<?xml version="1.0" encoding="UTF-8" standalone="no"?>
<!DOCTYPE svg PUBLIC "-//W3C//DTD SVG 1.1//EN"
 "http://www.w3.org/Graphics/SVG/1.1/DTD/svg11.dtd">
<!-- Generated by graphviz version 12.1.0 (20240811.2233)
 -->
<!-- Title: InventorySpell Pages: 1 -->
<!--zoomable 552 -->

<svg id="main" version="1.1" xmlns="http://www.w3.org/2000/svg" xmlns:xlink="http://www.w3.org/1999/xlink" xml:space="preserve" onload="init(evt)">
<style type="text/css"><![CDATA[
.node, .edge {opacity: 0.7;}
.node.selected, .edge.selected {opacity: 1;}
.edge:hover path { stroke: red; }
.edge:hover polygon { stroke: red; fill: red; }
]]></style>

<defs>
  <circle id="rim" cx="0" cy="0" r="7"/>
  <circle id="rim2" cx="0" cy="0" r="3.5"/>
  <g id="zoomPlus">
    <use xlink:href="#rim" fill="#404040"><set attributeName="fill" to="#808080" begin="zoomplus.mouseover" end="zoomplus.mouseout"/></use>
    <path d="M-4,0h8M0,-4v8" fill="none" stroke="white" stroke-width="1.5" pointer-events="none"/>
  </g>
  <g id="zoomMin">
    <use xlink:href="#rim" fill="#404040"><set attributeName="fill" to="#808080" begin="zoomminus.mouseover" end="zoomminus.mouseout"/></use>
    <path d="M-4,0h8" fill="none" stroke="white" stroke-width="1.5" pointer-events="none"/>
  </g>
  <g id="arrowUp" transform="translate(30 24)">
    <use xlink:href="#rim"/>
    <path pointer-events="none" fill="none" stroke="white" stroke-width="1.5" d="M0,-3.0v7 M-2.5,-0.5L0,-3.0L2.5,-0.5"/>
  </g>
  <g id="arrowRight" transform="rotate(90) translate(36 -43)">
    <use xlink:href="#rim"/>
    <path pointer-events="none" fill="none" stroke="white" stroke-width="1.5" d="M0,-3.0v7 M-2.5,-0.5L0,-3.0L2.5,-0.5"/>
  </g>
  <g id="arrowDown" transform="rotate(180) translate(-30 -48)">
    <use xlink:href="#rim"/>
    <path pointer-events="none" fill="none" stroke="white" stroke-width="1.5" d="M0,-3.0v7 M-2.5,-0.5L0,-3.0L2.5,-0.5"/>
  </g>
  <g id="arrowLeft" transform="rotate(270) translate(-36 17)">
    <use xlink:href="#rim"/>
    <path pointer-events="none" fill="none" stroke="white" stroke-width="1.5" d="M0,-3.0v7 M-2.5,-0.5L0,-3.0L2.5,-0.5"/>
  </g>
  <g id="resetDef">
    <use xlink:href="#rim2" fill="#404040"><set attributeName="fill" to="#808080" begin="reset.mouseover" end="reset.mouseout"/></use>
  </g>
</defs>
<script type="application/ecmascript">
var viewWidth = 978;
var viewHeight = 552;
var sectionId = 'dynsection-0';
</script>
<script type="application/ecmascript" xlink:href="../../svg.min.js"/>
<svg id="graph" class="graph">
<g id="viewport">
<title>InventorySpell</title>
<!-- Node1 -->
<g id="Node000001" class="node">
<title>Node1</title>
<g id="a_Node000001"><a xlink:title=" ">
<polygon fill="#999999" stroke="none" points="568,-456 376,-456 376,-156 568,-156 568,-456"/>
<text text-anchor="start" x="440.88" y="-442.5" font-family="Helvetica,sans-Serif" font-size="10.00">InventorySpell</text>
<text text-anchor="start" x="380" y="-426.5" font-family="Helvetica,sans-Serif" font-size="10.00">+</text>
<text text-anchor="start" x="390" y="-426.5" font-family="Helvetica,sans-Serif" font-size="10.00">double CastTime</text>
<text text-anchor="start" x="380" y="-410.5" font-family="Helvetica,sans-Serif" font-size="10.00">+</text>
<text text-anchor="start" x="390" y="-410.5" font-family="Helvetica,sans-Serif" font-size="10.00">double CoolDown</text>
<text text-anchor="start" x="380" y="-394.5" font-family="Helvetica,sans-Serif" font-size="10.00">+</text>
<text text-anchor="start" x="390" y="-394.5" font-family="Helvetica,sans-Serif" font-size="10.00">double BaseDamage</text>
<text text-anchor="start" x="380" y="-378.5" font-family="Helvetica,sans-Serif" font-size="10.00">+</text>
<text text-anchor="start" x="390" y="-378.5" font-family="Helvetica,sans-Serif" font-size="10.00">double Damage</text>
<text text-anchor="start" x="380" y="-362.5" font-family="Helvetica,sans-Serif" font-size="10.00">+</text>
<text text-anchor="start" x="390" y="-362.5" font-family="Helvetica,sans-Serif" font-size="10.00">MagicType MagicType</text>
<text text-anchor="start" x="380.38" y="-346.5" font-family="Helvetica,sans-Serif" font-size="10.00">#</text>
<text text-anchor="start" x="390" y="-346.5" font-family="Helvetica,sans-Serif" font-size="10.00">HealthComponent _playerHealth</text>
<text text-anchor="start" x="390" y="-334.5" font-family="Helvetica,sans-Serif" font-size="10.00">Component</text>
<text text-anchor="start" x="380.38" y="-318.5" font-family="Helvetica,sans-Serif" font-size="10.00">#</text>
<text text-anchor="start" x="390" y="-318.5" font-family="Helvetica,sans-Serif" font-size="10.00">PackedScene _spellScene</text>
<text text-anchor="start" x="380" y="-302.5" font-family="Helvetica,sans-Serif" font-size="10.00">+</text>
<text text-anchor="start" x="390" y="-302.5" font-family="Helvetica,sans-Serif" font-size="10.00">override void _Ready()</text>
<text text-anchor="start" x="380" y="-286.5" font-family="Helvetica,sans-Serif" font-size="10.00">+</text>
<text text-anchor="start" x="390" y="-286.5" font-family="Helvetica,sans-Serif" font-size="10.00">virtual void Cast(Vector2</text>
<text text-anchor="start" x="390" y="-274.5" font-family="Helvetica,sans-Serif" font-size="10.00"> playerPosition, Vector2</text>
<text text-anchor="start" x="390" y="-262.5" font-family="Helvetica,sans-Serif" font-size="10.00"> targetPosition)</text>
<text text-anchor="start" x="380" y="-246.5" font-family="Helvetica,sans-Serif" font-size="10.00">+</text>
<text text-anchor="start" x="390" y="-246.5" font-family="Helvetica,sans-Serif" font-size="10.00">void ResetDamage()</text>
<text text-anchor="start" x="380" y="-230.5" font-family="Helvetica,sans-Serif" font-size="10.00">+</text>
<text text-anchor="start" x="390" y="-230.5" font-family="Helvetica,sans-Serif" font-size="10.00">void AddOnCastAugmentEffect</text>
<text text-anchor="start" x="390" y="-218.5" font-family="Helvetica,sans-Serif" font-size="10.00">(OnCastAugmentEffect onCastAugment</text>
<text text-anchor="start" x="390" y="-206.5" font-family="Helvetica,sans-Serif" font-size="10.00">Effect)</text>
<text text-anchor="start" x="380" y="-190.5" font-family="Helvetica,sans-Serif" font-size="10.00">+</text>
<text text-anchor="start" x="390" y="-190.5" font-family="Helvetica,sans-Serif" font-size="10.00">void ClearOnCastAugmentEffects()</text>
<text text-anchor="start" x="380" y="-174.5" font-family="Helvetica,sans-Serif" font-size="10.00">+</text>
<text text-anchor="start" x="390" y="-174.5" font-family="Helvetica,sans-Serif" font-size="10.00">List&lt; OnCastAugmentEffect</text>
<text text-anchor="start" x="390" y="-162.5" font-family="Helvetica,sans-Serif" font-size="10.00"> &gt; GetOnCastAugmentEffects()</text>
<polygon fill="#666666" stroke="#666666" points="376,-438 376,-438 568,-438 568,-438 376,-438"/>
<polygon fill="#666666" stroke="#666666" points="376,-314 376,-314 388,-314 388,-314 376,-314"/>
<polygon fill="#666666" stroke="#666666" points="388,-314 388,-314 568,-314 568,-314 388,-314"/>
<polygon fill="none" stroke="#666666" points="376,-156 376,-456 568,-456 568,-156 376,-156"/>
</a>
</g>
</g>
<!-- Node3 -->
<g id="Node000003" class="node">
<title>Node3</title>
<g id="a_Node000003"><a xlink:href="../../d8/d26/class_inventory_basic_spell.html" target="_top" xlink:title=" ">
<polygon fill="white" stroke="none" points="116,-86 0,-86 0,-34 116,-34 116,-86"/>
<text text-anchor="start" x="14.5" y="-72.5" font-family="Helvetica,sans-Serif" font-size="10.00">InventoryBasicSpell</text>
<text text-anchor="start" x="56.5" y="-56.5" font-family="Helvetica,sans-Serif" font-size="10.00"> </text>
<text text-anchor="start" x="4" y="-40.5" font-family="Helvetica,sans-Serif" font-size="10.00">+</text>
<text text-anchor="start" x="14" y="-40.5" font-family="Helvetica,sans-Serif" font-size="10.00">override void _Ready()</text>
<polygon fill="#666666" stroke="#666666" points="0,-68 0,-68 116,-68 116,-68 0,-68"/>
<polygon fill="#666666" stroke="#666666" points="0,-52 0,-52 116,-52 116,-52 0,-52"/>
<polygon fill="none" stroke="#666666" points="0,-34 0,-86 116,-86 116,-34 0,-34"/>
</a>
</g>
</g>
<!-- Node1&#45;&gt;Node3 -->
<g id="edge2_Node000001_Node000003" class="edge">
<title>Node1&#45;&gt;Node3</title>
<g id="a_edge2_Node000001_Node000003"><a xlink:title=" ">
<path fill="none" stroke="#63b8ff" d="M365.88,-256.42C295.22,-222.17 201.62,-173.08 125,-120 110.35,-109.85 95.34,-96.91 83.25,-85.74"/>
<polygon fill="none" stroke="#63b8ff" points="364.25,-259.52 374.78,-260.71 367.29,-253.21 364.25,-259.52"/>
</a>
</g>
</g>
<!-- Node4 -->
<g id="Node000004" class="node">
<title>Node4</title>
<g id="a_Node000004"><a xlink:href="../../d6/d81/class_inventory_black_hole.html" target="_top" xlink:title=" ">
<polygon fill="white" stroke="none" points="250,-86 134,-86 134,-34 250,-34 250,-86"/>
<text text-anchor="start" x="149.25" y="-72.5" font-family="Helvetica,sans-Serif" font-size="10.00">InventoryBlackHole</text>
<text text-anchor="start" x="190.5" y="-56.5" font-family="Helvetica,sans-Serif" font-size="10.00"> </text>
<text text-anchor="start" x="138" y="-40.5" font-family="Helvetica,sans-Serif" font-size="10.00">+</text>
<text text-anchor="start" x="148" y="-40.5" font-family="Helvetica,sans-Serif" font-size="10.00">override void _Ready()</text>
<polygon fill="#666666" stroke="#666666" points="134,-68 134,-68 250,-68 250,-68 134,-68"/>
<polygon fill="#666666" stroke="#666666" points="134,-52 134,-52 250,-52 250,-52 134,-52"/>
<polygon fill="none" stroke="#666666" points="134,-34 134,-86 250,-86 250,-34 134,-34"/>
</a>
</g>
</g>
<!-- Node1&#45;&gt;Node4 -->
<g id="edge3_Node000001_Node000004" class="edge">
<title>Node1&#45;&gt;Node4</title>
<g id="a_edge3_Node000001_Node000004"><a xlink:title=" ">
<path fill="none" stroke="#63b8ff" d="M367.93,-214.86C333.24,-184.74 294.41,-150.97 259,-120 246.17,-108.78 231.99,-96.3 220,-85.73"/>
<polygon fill="none" stroke="#63b8ff" points="365.2,-217.12 375.04,-221.03 369.78,-211.84 365.2,-217.12"/>
</a>
</g>
</g>
<!-- Node5 -->
<g id="Node000005" class="node">
<title>Node5</title>
<g id="a_Node000005"><a xlink:href="../../de/d1d/class_inventory_dark_energy_wave.html" target="_top" xlink:title=" ">
<polygon fill="white" stroke="none" points="395.5,-86 268.5,-86 268.5,-34 395.5,-34 395.5,-86"/>
<text text-anchor="start" x="273.5" y="-72.5" font-family="Helvetica,sans-Serif" font-size="10.00">InventoryDarkEnergyWave</text>
<text text-anchor="start" x="330.5" y="-56.5" font-family="Helvetica,sans-Serif" font-size="10.00"> </text>
<text text-anchor="start" x="275" y="-40.5" font-family="Helvetica,sans-Serif" font-size="10.00">+</text>
<text text-anchor="start" x="287.5" y="-40.5" font-family="Helvetica,sans-Serif" font-size="10.00">override void _Ready()</text>
<polygon fill="#666666" stroke="#666666" points="268.5,-68 268.5,-68 395.5,-68 395.5,-68 268.5,-68"/>
<polygon fill="#666666" stroke="#666666" points="268.5,-52 268.5,-52 395.5,-52 395.5,-52 268.5,-52"/>
<polygon fill="none" stroke="#666666" points="268.5,-34 268.5,-86 395.5,-86 395.5,-34 268.5,-34"/>
</a>
</g>
</g>
<!-- Node1&#45;&gt;Node5 -->
<g id="edge4_Node000001_Node000005" class="edge">
<title>Node1&#45;&gt;Node5</title>
<g id="a_edge4_Node000001_Node000005"><a xlink:title=" ">
<path fill="none" stroke="#63b8ff" d="M380.92,-146.25C367.48,-122.83 355.18,-101.41 346.28,-85.89"/>
<polygon fill="none" stroke="#63b8ff" points="377.76,-147.79 385.78,-154.72 383.83,-144.31 377.76,-147.79"/>
</a>
</g>
</g>
<!-- Node6 -->
<g id="Node000006" class="node">
<title>Node6</title>
<g id="a_Node000006"><a xlink:href="../../d4/d32/class_inventory_moon_light.html" target="_top" xlink:title=" ">
<polygon fill="white" stroke="none" points="530,-86 414,-86 414,-34 530,-34 530,-86"/>
<text text-anchor="start" x="429.25" y="-72.5" font-family="Helvetica,sans-Serif" font-size="10.00">InventoryMoonLight</text>
<text text-anchor="start" x="470.5" y="-56.5" font-family="Helvetica,sans-Serif" font-size="10.00"> </text>
<text text-anchor="start" x="418" y="-40.5" font-family="Helvetica,sans-Serif" font-size="10.00">+</text>
<text text-anchor="start" x="428" y="-40.5" font-family="Helvetica,sans-Serif" font-size="10.00">override void _Ready()</text>
<polygon fill="#666666" stroke="#666666" points="414,-68 414,-68 530,-68 530,-68 414,-68"/>
<polygon fill="#666666" stroke="#666666" points="414,-52 414,-52 530,-52 530,-52 414,-52"/>
<polygon fill="none" stroke="#666666" points="414,-34 414,-86 530,-86 530,-34 414,-34"/>
</a>
</g>
</g>
<!-- Node1&#45;&gt;Node6 -->
<g id="edge5_Node000001_Node000006" class="edge">
<title>Node1&#45;&gt;Node6</title>
<g id="a_edge5_Node000001_Node000006"><a xlink:title=" ">
<path fill="none" stroke="#63b8ff" d="M472,-144.69C472,-121.88 472,-101.06 472,-85.89"/>
<polygon fill="none" stroke="#63b8ff" points="468.5,-144.52 472,-154.52 475.5,-144.52 468.5,-144.52"/>
</a>
</g>
</g>
<!-- Node7 -->
<g id="Node000007" class="node">
<title>Node7</title>
<g id="a_Node000007"><a xlink:href="../../dd/ddc/class_inventory_star_rain.html" target="_top" xlink:title=" ">
<polygon fill="white" stroke="none" points="701.5,-120 548.5,-120 548.5,0 701.5,0 701.5,-120"/>
<text text-anchor="start" x="585.62" y="-106.5" font-family="Helvetica,sans-Serif" font-size="10.00">InventoryStarRain</text>
<text text-anchor="start" x="552.5" y="-90.5" font-family="Helvetica,sans-Serif" font-size="10.00">+</text>
<text text-anchor="start" x="562.5" y="-90.5" font-family="Helvetica,sans-Serif" font-size="10.00">double AmountStarsToSpawn</text>
<text text-anchor="start" x="552.5" y="-74.5" font-family="Helvetica,sans-Serif" font-size="10.00">+</text>
<text text-anchor="start" x="562.5" y="-74.5" font-family="Helvetica,sans-Serif" font-size="10.00">override void _Ready()</text>
<text text-anchor="start" x="552.5" y="-58.5" font-family="Helvetica,sans-Serif" font-size="10.00">+</text>
<text text-anchor="start" x="562.5" y="-58.5" font-family="Helvetica,sans-Serif" font-size="10.00">override void Cast</text>
<text text-anchor="start" x="562.5" y="-46.5" font-family="Helvetica,sans-Serif" font-size="10.00">(Vector2 playerPosition,</text>
<text text-anchor="start" x="562.5" y="-34.5" font-family="Helvetica,sans-Serif" font-size="10.00"> Vector2 targetPosition)</text>
<text text-anchor="start" x="552.5" y="-18.5" font-family="Helvetica,sans-Serif" font-size="10.00">+</text>
<text text-anchor="start" x="562.5" y="-18.5" font-family="Helvetica,sans-Serif" font-size="10.00">override void _PhysicsProcess</text>
<text text-anchor="start" x="562.5" y="-6.5" font-family="Helvetica,sans-Serif" font-size="10.00">(double delta)</text>
<polygon fill="#666666" stroke="#666666" points="548.5,-102 548.5,-102 701.5,-102 701.5,-102 548.5,-102"/>
<polygon fill="#666666" stroke="#666666" points="548.5,-86 548.5,-86 560.5,-86 560.5,-86 548.5,-86"/>
<polygon fill="#666666" stroke="#666666" points="560.5,-86 560.5,-86 701.5,-86 701.5,-86 560.5,-86"/>
<polygon fill="none" stroke="#666666" points="548.5,0 548.5,-120 701.5,-120 701.5,0 548.5,0"/>
</a>
</g>
</g>
<!-- Node1&#45;&gt;Node7 -->
<g id="edge6_Node000001_Node000007" class="edge">
<title>Node1&#45;&gt;Node7</title>
<g id="a_edge6_Node000001_Node000007"><a xlink:title=" ">
<path fill="none" stroke="#63b8ff" d="M571.51,-146.3C577.3,-137.06 582.9,-128.13 588.16,-119.75"/>
<polygon fill="none" stroke="#63b8ff" points="568.56,-144.42 566.21,-154.75 574.49,-148.14 568.56,-144.42"/>
</a>
</g>
</g>
<!-- Node8 -->
<g id="Node000008" class="node">
<title>Node8</title>
<g id="a_Node000008"><a xlink:href="../../d5/d3e/class_inventory_summon_sun.html" target="_top" xlink:title=" ">
<polygon fill="white" stroke="none" points="836,-86 720,-86 720,-34 836,-34 836,-86"/>
<text text-anchor="start" x="729.62" y="-72.5" font-family="Helvetica,sans-Serif" font-size="10.00">InventorySummonSun</text>
<text text-anchor="start" x="776.5" y="-56.5" font-family="Helvetica,sans-Serif" font-size="10.00"> </text>
<text text-anchor="start" x="724" y="-40.5" font-family="Helvetica,sans-Serif" font-size="10.00">+</text>
<text text-anchor="start" x="734" y="-40.5" font-family="Helvetica,sans-Serif" font-size="10.00">override void _Ready()</text>
<polygon fill="#666666" stroke="#666666" points="720,-68 720,-68 836,-68 836,-68 720,-68"/>
<polygon fill="#666666" stroke="#666666" points="720,-52 720,-52 836,-52 836,-52 720,-52"/>
<polygon fill="none" stroke="#666666" points="720,-34 720,-86 836,-86 836,-34 720,-34"/>
</a>
</g>
</g>
<!-- Node1&#45;&gt;Node8 -->
<g id="edge7_Node000001_Node000008" class="edge">
<title>Node1&#45;&gt;Node8</title>
<g id="a_edge7_Node000001_Node000008"><a xlink:title=" ">
<path fill="none" stroke="#63b8ff" d="M576.77,-226.18C618.95,-193.86 667.75,-155.72 711,-120 724.26,-109.04 738.62,-96.5 750.63,-85.8"/>
<polygon fill="none" stroke="#63b8ff" points="574.9,-223.21 569.08,-232.07 579.15,-228.77 574.9,-223.21"/>
</a>
</g>
</g>
<!-- Node9 -->
<g id="Node000009" class="node">
<title>Node9</title>
<g id="a_Node000009"><a xlink:href="../../d4/d43/class_inventory_sun_beam.html" target="_top" xlink:title=" ">
<polygon fill="white" stroke="none" points="970,-86 854,-86 854,-34 970,-34 970,-86"/>
<text text-anchor="start" x="870.38" y="-72.5" font-family="Helvetica,sans-Serif" font-size="10.00">InventorySunBeam</text>
<text text-anchor="start" x="910.5" y="-56.5" font-family="Helvetica,sans-Serif" font-size="10.00"> </text>
<text text-anchor="start" x="858" y="-40.5" font-family="Helvetica,sans-Serif" font-size="10.00">+</text>
<text text-anchor="start" x="868" y="-40.5" font-family="Helvetica,sans-Serif" font-size="10.00">override void _Ready()</text>
<polygon fill="#666666" stroke="#666666" points="854,-68 854,-68 970,-68 970,-68 854,-68"/>
<polygon fill="#666666" stroke="#666666" points="854,-52 854,-52 970,-52 970,-52 854,-52"/>
<polygon fill="none" stroke="#666666" points="854,-34 854,-86 970,-86 970,-34 854,-34"/>
</a>
</g>
</g>
<!-- Node1&#45;&gt;Node9 -->
<g id="edge8_Node000001_Node000009" class="edge">
<title>Node1&#45;&gt;Node9</title>
<g id="a_edge8_Node000001_Node000009"><a xlink:title=" ">
<path fill="none" stroke="#63b8ff" d="M577.91,-261.39C654.87,-227.62 759.99,-177.07 845,-120 859.8,-110.07 874.82,-97.15 886.88,-85.94"/>
<polygon fill="none" stroke="#63b8ff" points="576.87,-258.03 569.11,-265.24 579.67,-264.44 576.87,-258.03"/>
</a>
</g>
</g>
<!-- Node2 -->
<g id="Node000002" class="node">
<title>Node2</title>
<g id="a_Node000002"><a xlink:href="../../dc/d8f/class_node.html" target="_top" xlink:title=" ">
<polygon fill="white" stroke="none" points="488.5,-544 455.5,-544 455.5,-492 488.5,-492 488.5,-544"/>
<text text-anchor="start" x="460.38" y="-530.5" font-family="Helvetica,sans-Serif" font-size="10.00">Node</text>
<text text-anchor="start" x="470.5" y="-514.5" font-family="Helvetica,sans-Serif" font-size="10.00"> </text>
<text text-anchor="start" x="470.5" y="-498.5" font-family="Helvetica,sans-Serif" font-size="10.00"> </text>
<polygon fill="#666666" stroke="#666666" points="455.5,-526 455.5,-526 488.5,-526 488.5,-526 455.5,-526"/>
<polygon fill="#666666" stroke="#666666" points="455.5,-510 455.5,-510 488.5,-510 488.5,-510 455.5,-510"/>
<polygon fill="none" stroke="#666666" points="455.5,-492 455.5,-544 488.5,-544 488.5,-492 455.5,-492"/>
</a>
</g>
</g>
<!-- Node2&#45;&gt;Node1 -->
<g id="edge1_Node000001_Node000002" class="edge">
<title>Node2&#45;&gt;Node1</title>
<g id="a_edge1_Node000001_Node000002"><a xlink:title=" ">
<path fill="none" stroke="#63b8ff" d="M472,-480.58C472,-473.01 472,-464.6 472,-455.68"/>
<polygon fill="none" stroke="#63b8ff" points="468.5,-480.57 472,-490.57 475.5,-480.57 468.5,-480.57"/>
</a>
</g>
</g>
</g>
</svg>

<g id="navigator" transform="translate(0 0)" fill="#404254">
  <rect fill="#f2f5e9" fill-opacity="0.5" stroke="#606060" stroke-width=".5" x="0" y="0" width="60" height="60"/>
  <use id="zoomplus" xlink:href="#zoomPlus" x="17" y="9" onmousedown="handleZoom(evt,'in')"/>
  <use id="zoomminus" xlink:href="#zoomMin" x="42" y="9" onmousedown="handleZoom(evt,'out')"/>
  <use id="reset" xlink:href="#resetDef" x="30" y="36" onmousedown="handleReset()"/>
   <use id="arrowup" xlink:href="#arrowUp" x="0" y="0" onmousedown="handlePan(0,-1)"/>
  <use id="arrowright" xlink:href="#arrowRight" x="0" y="0" onmousedown="handlePan(1,0)"/>
  <use id="arrowdown" xlink:href="#arrowDown" x="0" y="0" onmousedown="handlePan(0,1)"/>
  <use id="arrowleft" xlink:href="#arrowLeft" x="0" y="0" onmousedown="handlePan(-1,0)"/>
</g>
<svg viewBox="0 0 15 15" width="100%" height="30px" preserveAspectRatio="xMaxYMin meet">
 <g id="arrow_out" transform="scale(0.3 0.3)">
  <a xlink:href="class_inventory_spell__inherit__graph_org.svg" target="_base">
   <rect id="button" ry="5" rx="5" y="6" x="6" height="38" width="38"
        fill="#f2f5e9" fill-opacity="0.5" stroke="#606060" stroke-width="1.0"/>
   <path id="arrow"
     d="M 11.500037,31.436501 C 11.940474,20.09759 22.043105,11.32322 32.158766,21.979434 L 37.068811,17.246167 C 37.068811,17.246167 37.088388,32 37.088388,32 L 22.160133,31.978069 C 22.160133,31.978069 26.997745,27.140456 26.997745,27.140456 C 18.528582,18.264221 13.291696,25.230495 11.500037,31.436501 z"
     style="fill:#404040;"/>
  </a>
 </g>
</svg>

<style type='text/css'>
<![CDATA[
[data-mouse-over-selected='false'] { opacity: 0.7; }
[data-mouse-over-selected='true']  { opacity: 1.0; }
]]>
</style>
<script type="application/ecmascript"><![CDATA[
document.addEventListener('DOMContentLoaded', (event) => {
  highlightEdges();
  highlightAdjacentNodes();
});
]]></script>
</svg>
