<?xml version="1.0" encoding="UTF-8" standalone="no"?>
<!DOCTYPE svg PUBLIC "-//W3C//DTD SVG 1.1//EN"
 "http://www.w3.org/Graphics/SVG/1.1/DTD/svg11.dtd">
<!-- Generated by graphviz version 12.1.0 (20240811.2233)
 -->
<!-- Title: PlayerIdle Pages: 1 -->
<svg width="247pt" height="444pt"
 viewBox="0.00 0.00 247.00 444.00" xmlns="http://www.w3.org/2000/svg" xmlns:xlink="http://www.w3.org/1999/xlink">

<svg id="main" version="1.1" xmlns="http://www.w3.org/2000/svg" xmlns:xlink="http://www.w3.org/1999/xlink" xml:space="preserve" onload="init(evt)">
<style type="text/css"><![CDATA[
.node, .edge {opacity: 0.7;}
.node.selected, .edge.selected {opacity: 1;}
.edge:hover path { stroke: red; }
.edge:hover polygon { stroke: red; fill: red; }
]]></style>
<script type="application/ecmascript" xlink:href="../../svg.min.js"/>
<svg id="graph" class="graph">
<g id="graph0" class="graph" transform="scale(1 1) rotate(0) translate(4 440)">
<title>PlayerIdle</title>
<!-- Node1 -->
<g id="Node000001" class="node">
<title>Node1</title>
<g id="a_Node000001"><a xlink:title=" ">
<polygon fill="#999999" stroke="none" points="172,-80 19,-80 19,0 172,0 172,-80"/>
<text text-anchor="start" x="73.75" y="-66.5" font-family="Helvetica,sans-Serif" font-size="10.00">PlayerIdle</text>
<text text-anchor="start" x="94" y="-50.5" font-family="Helvetica,sans-Serif" font-size="10.00"> </text>
<text text-anchor="start" x="23" y="-34.5" font-family="Helvetica,sans-Serif" font-size="10.00">+</text>
<text text-anchor="start" x="33" y="-34.5" font-family="Helvetica,sans-Serif" font-size="10.00">override void Enter()</text>
<text text-anchor="start" x="23" y="-18.5" font-family="Helvetica,sans-Serif" font-size="10.00">+</text>
<text text-anchor="start" x="33" y="-18.5" font-family="Helvetica,sans-Serif" font-size="10.00">override State ProcessPhysics</text>
<text text-anchor="start" x="33" y="-6.5" font-family="Helvetica,sans-Serif" font-size="10.00">(double delta)</text>
<polygon fill="#666666" stroke="#666666" points="19,-62 19,-62 172,-62 172,-62 19,-62"/>
<polygon fill="#666666" stroke="#666666" points="19,-46 19,-46 172,-46 172,-46 19,-46"/>
<polygon fill="none" stroke="#666666" points="19,0 19,-80 172,-80 172,0 19,0"/>
</a>
</g>
</g>
<!-- Node2 -->
<g id="Node000002" class="node">
<title>Node2</title>
<g id="a_Node000002"><a xlink:href="../../d0/d8b/class_state.html" target="_top" xlink:title=" ">
<polygon fill="white" stroke="none" points="172.5,-336 18.5,-336 18.5,-152 172.5,-152 172.5,-336"/>
<text text-anchor="start" x="83.88" y="-322.5" font-family="Helvetica,sans-Serif" font-size="10.00">State</text>
<text text-anchor="start" x="94" y="-306.5" font-family="Helvetica,sans-Serif" font-size="10.00"> </text>
<text text-anchor="start" x="22.5" y="-290.5" font-family="Helvetica,sans-Serif" font-size="10.00">+</text>
<text text-anchor="start" x="32.5" y="-290.5" font-family="Helvetica,sans-Serif" font-size="10.00">virtual bool CanEnter()</text>
<text text-anchor="start" x="22.5" y="-274.5" font-family="Helvetica,sans-Serif" font-size="10.00">+</text>
<text text-anchor="start" x="32.5" y="-274.5" font-family="Helvetica,sans-Serif" font-size="10.00">virtual void Enter()</text>
<text text-anchor="start" x="22.5" y="-258.5" font-family="Helvetica,sans-Serif" font-size="10.00">+</text>
<text text-anchor="start" x="32.5" y="-258.5" font-family="Helvetica,sans-Serif" font-size="10.00">virtual void Exit()</text>
<text text-anchor="start" x="22.5" y="-242.5" font-family="Helvetica,sans-Serif" font-size="10.00">+</text>
<text text-anchor="start" x="32.5" y="-242.5" font-family="Helvetica,sans-Serif" font-size="10.00">virtual State ProcessInput</text>
<text text-anchor="start" x="32.5" y="-230.5" font-family="Helvetica,sans-Serif" font-size="10.00">(InputEvent @event)</text>
<text text-anchor="start" x="22.5" y="-214.5" font-family="Helvetica,sans-Serif" font-size="10.00">+</text>
<text text-anchor="start" x="32.5" y="-214.5" font-family="Helvetica,sans-Serif" font-size="10.00">virtual State ProcessFrame</text>
<text text-anchor="start" x="32.5" y="-202.5" font-family="Helvetica,sans-Serif" font-size="10.00">(double delta)</text>
<text text-anchor="start" x="22.5" y="-186.5" font-family="Helvetica,sans-Serif" font-size="10.00">+</text>
<text text-anchor="start" x="32.5" y="-186.5" font-family="Helvetica,sans-Serif" font-size="10.00">virtual State ProcessPhysics</text>
<text text-anchor="start" x="32.5" y="-174.5" font-family="Helvetica,sans-Serif" font-size="10.00">(double delta)</text>
<text text-anchor="start" x="22.5" y="-158.5" font-family="Helvetica,sans-Serif" font-size="10.00">+</text>
<text text-anchor="start" x="32.5" y="-158.5" font-family="Helvetica,sans-Serif" font-size="10.00">virtual void UpdateAnimations()</text>
<polygon fill="#666666" stroke="#666666" points="18.5,-318 18.5,-318 172.5,-318 172.5,-318 18.5,-318"/>
<polygon fill="#666666" stroke="#666666" points="18.5,-302 18.5,-302 172.5,-302 172.5,-302 18.5,-302"/>
<polygon fill="none" stroke="#666666" points="18.5,-152 18.5,-336 172.5,-336 172.5,-152 18.5,-152"/>
</a>
</g>
</g>
<!-- Node2&#45;&gt;Node1 -->
<g id="edge1_Node000001_Node000002" class="edge">
<title>Node2&#45;&gt;Node1</title>
<g id="a_edge1_Node000001_Node000002"><a xlink:title=" ">
<path fill="none" stroke="#63b8ff" d="M93.29,-140.68C93.21,-126.35 93.26,-111.8 93.5,-98 93.6,-92.16 93.76,-85.98 93.95,-79.94"/>
<polygon fill="none" stroke="#63b8ff" points="89.79,-140.63 93.36,-150.6 96.79,-140.57 89.79,-140.63"/>
</a>
</g>
</g>
<!-- Node2&#45;&gt;Node1 -->
<g id="edge5_Node000001_Node000002" class="edge">
<title>Node2&#45;&gt;Node1</title>
<g id="a_edge5_Node000001_Node000002"><a xlink:title=" ">
<path fill="none" stroke="#63b8ff" d="M95.5,-152.05C95.5,-131.75 95.5,-110.91 95.5,-92.85"/>
<polygon fill="none" stroke="#63b8ff" points="95.5,-92.83 91.5,-86.83 95.5,-80.83 99.5,-86.83 95.5,-92.83"/>
</a>
</g>
<text text-anchor="middle" x="126.25" y="-124.5" font-family="Helvetica,sans-Serif" font-size="10.00" fill="grey"> +Dashing</text>
<text text-anchor="middle" x="126.25" y="-112.5" font-family="Helvetica,sans-Serif" font-size="10.00" fill="grey">+Moving</text>
<text text-anchor="middle" x="126.25" y="-100.5" font-family="Helvetica,sans-Serif" font-size="10.00" fill="grey">+SpellCasting</text>
</g>
<!-- Node3 -->
<g id="Node000003" class="node">
<title>Node3</title>
<g id="a_Node000003"><a xlink:href="../../dc/d8f/class_node.html" target="_top" xlink:title=" ">
<polygon fill="white" stroke="none" points="33,-436 0,-436 0,-384 33,-384 33,-436"/>
<text text-anchor="start" x="4.88" y="-422.5" font-family="Helvetica,sans-Serif" font-size="10.00">Node</text>
<text text-anchor="start" x="15" y="-406.5" font-family="Helvetica,sans-Serif" font-size="10.00"> </text>
<text text-anchor="start" x="15" y="-390.5" font-family="Helvetica,sans-Serif" font-size="10.00"> </text>
<polygon fill="#666666" stroke="#666666" points="0,-418 0,-418 33,-418 33,-418 0,-418"/>
<polygon fill="#666666" stroke="#666666" points="0,-402 0,-402 33,-402 33,-402 0,-402"/>
<polygon fill="none" stroke="#666666" points="0,-384 0,-436 33,-436 33,-384 0,-384"/>
</a>
</g>
</g>
<!-- Node3&#45;&gt;Node2 -->
<g id="edge2_Node000002_Node000003" class="edge">
<title>Node3&#45;&gt;Node2</title>
<g id="a_edge2_Node000002_Node000003"><a xlink:title=" ">
<path fill="none" stroke="#63b8ff" d="M33.45,-373.81C38.92,-362.46 45.25,-349.31 51.74,-335.84"/>
<polygon fill="none" stroke="#63b8ff" points="30.34,-372.2 29.16,-382.73 36.65,-375.24 30.34,-372.2"/>
</a>
</g>
</g>
<!-- Node4 -->
<g id="Node000004" class="node">
<title>Node4</title>
<g id="a_Node000004"><a xlink:title=" ">
<polygon fill="white" stroke="none" points="139.5,-436 51.5,-436 51.5,-384 139.5,-384 139.5,-436"/>
<text text-anchor="start" x="56.5" y="-422.5" font-family="Helvetica,sans-Serif" font-size="10.00">CharacterBody2D</text>
<text text-anchor="start" x="94" y="-406.5" font-family="Helvetica,sans-Serif" font-size="10.00"> </text>
<text text-anchor="start" x="94" y="-390.5" font-family="Helvetica,sans-Serif" font-size="10.00"> </text>
<polygon fill="#666666" stroke="#666666" points="51.5,-418 51.5,-418 139.5,-418 139.5,-418 51.5,-418"/>
<polygon fill="#666666" stroke="#666666" points="51.5,-402 51.5,-402 139.5,-402 139.5,-402 51.5,-402"/>
<polygon fill="none" stroke="#666666" points="51.5,-384 51.5,-436 139.5,-436 139.5,-384 51.5,-384"/>
</a>
</g>
</g>
<!-- Node4&#45;&gt;Node2 -->
<g id="edge3_Node000002_Node000004" class="edge">
<title>Node4&#45;&gt;Node2</title>
<g id="a_edge3_Node000002_Node000004"><a xlink:title=" ">
<path fill="none" stroke="#63b8ff" d="M95.5,-384.09C95.5,-374.04 95.5,-361.72 95.5,-348.61"/>
<polygon fill="none" stroke="#63b8ff" points="95.5,-348.74 91.5,-342.74 95.5,-336.74 99.5,-342.74 95.5,-348.74"/>
</a>
</g>
<text text-anchor="middle" x="114.25" y="-356.5" font-family="Helvetica,sans-Serif" font-size="10.00" fill="grey"> +Parent</text>
</g>
<!-- Node5 -->
<g id="Node000005" class="node">
<title>Node5</title>
<g id="a_Node000005"><a xlink:title=" ">
<polygon fill="white" stroke="none" points="239,-436 158,-436 158,-384 239,-384 239,-436"/>
<text text-anchor="start" x="162.88" y="-422.5" font-family="Helvetica,sans-Serif" font-size="10.00">AnimationPlayer</text>
<text text-anchor="start" x="197" y="-406.5" font-family="Helvetica,sans-Serif" font-size="10.00"> </text>
<text text-anchor="start" x="197" y="-390.5" font-family="Helvetica,sans-Serif" font-size="10.00"> </text>
<polygon fill="#666666" stroke="#666666" points="158,-418 158,-418 239,-418 239,-418 158,-418"/>
<polygon fill="#666666" stroke="#666666" points="158,-402 158,-402 239,-402 239,-402 158,-402"/>
<polygon fill="none" stroke="#666666" points="158,-384 158,-436 239,-436 239,-384 158,-384"/>
</a>
</g>
</g>
<!-- Node5&#45;&gt;Node2 -->
<g id="edge4_Node000002_Node000005" class="edge">
<title>Node5&#45;&gt;Node2</title>
<g id="a_edge4_Node000002_Node000005"><a xlink:title=" ">
<path fill="none" stroke="#63b8ff" d="M182.86,-384.09C176.22,-373.52 168,-360.44 159.29,-346.57"/>
<polygon fill="none" stroke="#63b8ff" points="159.41,-346.76 152.83,-343.81 153.03,-336.6 159.61,-339.55 159.41,-346.76"/>
</a>
</g>
<text text-anchor="middle" x="199.75" y="-356.5" font-family="Helvetica,sans-Serif" font-size="10.00" fill="grey"> +Animations</text>
</g>
</g>
</svg>
</svg>

<style type='text/css'>
<![CDATA[
[data-mouse-over-selected='false'] { opacity: 0.7; }
[data-mouse-over-selected='true']  { opacity: 1.0; }
]]>
</style>
<script type="application/ecmascript"><![CDATA[
document.addEventListener('DOMContentLoaded', (event) => {
  highlightEdges();
  highlightAdjacentNodes();
});
]]></script>
</svg>
