<?xml version="1.0" encoding="UTF-8" standalone="no"?>
<!DOCTYPE svg PUBLIC "-//W3C//DTD SVG 1.1//EN"
 "http://www.w3.org/Graphics/SVG/1.1/DTD/svg11.dtd">
<!-- Generated by graphviz version 12.1.0 (20240811.2233)
 -->
<!-- Title: Unicorn Pages: 1 -->
<svg width="440pt" height="784pt"
 viewBox="0.00 0.00 440.23 784.00" xmlns="http://www.w3.org/2000/svg" xmlns:xlink="http://www.w3.org/1999/xlink">
<g id="graph0" class="graph" transform="scale(1 1) rotate(0) translate(4 780)">
<title>Unicorn</title>
<!-- Node1 -->
<g id="Node000001" class="node">
<title>Node1</title>
<g id="a_Node000001"><a xlink:title=" ">
<polygon fill="#999999" stroke="none" points="357.5,-180 200.5,-180 200.5,0 357.5,0 357.5,-180"/>
<text text-anchor="start" x="262.12" y="-166.5" font-family="Helvetica,sans-Serif" font-size="10.00">Unicorn</text>
<text text-anchor="start" x="277.5" y="-150.5" font-family="Helvetica,sans-Serif" font-size="10.00"> </text>
<text text-anchor="start" x="204.5" y="-134.5" font-family="Helvetica,sans-Serif" font-size="10.00">+</text>
<text text-anchor="start" x="214.5" y="-134.5" font-family="Helvetica,sans-Serif" font-size="10.00">override void _Ready()</text>
<text text-anchor="start" x="204.5" y="-118.5" font-family="Helvetica,sans-Serif" font-size="10.00">+</text>
<text text-anchor="start" x="214.5" y="-118.5" font-family="Helvetica,sans-Serif" font-size="10.00">override void _Process</text>
<text text-anchor="start" x="214.5" y="-106.5" font-family="Helvetica,sans-Serif" font-size="10.00">(double delta)</text>
<text text-anchor="start" x="204.5" y="-90.5" font-family="Helvetica,sans-Serif" font-size="10.00">+</text>
<text text-anchor="start" x="214.5" y="-90.5" font-family="Helvetica,sans-Serif" font-size="10.00">override void _PhysicsProcess</text>
<text text-anchor="start" x="214.5" y="-78.5" font-family="Helvetica,sans-Serif" font-size="10.00">(double delta)</text>
<text text-anchor="start" x="204.5" y="-62.5" font-family="Helvetica,sans-Serif" font-size="10.00">+</text>
<text text-anchor="start" x="214.5" y="-62.5" font-family="Helvetica,sans-Serif" font-size="10.00">void SetUnicornProperties</text>
<text text-anchor="start" x="214.5" y="-50.5" font-family="Helvetica,sans-Serif" font-size="10.00">(MagicType magicType, Vector2</text>
<text text-anchor="start" x="214.5" y="-38.5" font-family="Helvetica,sans-Serif" font-size="10.00"> unicornPosition)</text>
<text text-anchor="start" x="204.5" y="-22.5" font-family="Helvetica,sans-Serif" font-size="10.00">+</text>
<text text-anchor="start" x="214.5" y="-22.5" font-family="Helvetica,sans-Serif" font-size="10.00">MagicType GetMagicType()</text>
<text text-anchor="start" x="204.5" y="-6.5" font-family="Helvetica,sans-Serif" font-size="10.00">+</text>
<text text-anchor="start" x="214.5" y="-6.5" font-family="Helvetica,sans-Serif" font-size="10.00">float GetDamageValue()</text>
<polygon fill="#666666" stroke="#666666" points="200.5,-162 200.5,-162 357.5,-162 357.5,-162 200.5,-162"/>
<polygon fill="#666666" stroke="#666666" points="200.5,-146 200.5,-146 357.5,-146 357.5,-146 200.5,-146"/>
<polygon fill="none" stroke="#666666" points="200.5,0 200.5,-180 357.5,-180 357.5,0 200.5,0"/>
</a>
</g>
</g>
<!-- Node2 -->
<g id="Node000002" class="node">
<title>Node2</title>
<g id="a_Node000002"><a xlink:title=" ">
<polygon fill="white" stroke="none" points="88,-776 0,-776 0,-724 88,-724 88,-776"/>
<text text-anchor="start" x="5" y="-762.5" font-family="Helvetica,sans-Serif" font-size="10.00">CharacterBody2D</text>
<text text-anchor="start" x="42.5" y="-746.5" font-family="Helvetica,sans-Serif" font-size="10.00"> </text>
<text text-anchor="start" x="42.5" y="-730.5" font-family="Helvetica,sans-Serif" font-size="10.00"> </text>
<polygon fill="#666666" stroke="#666666" points="0,-758 0,-758 88,-758 88,-758 0,-758"/>
<polygon fill="#666666" stroke="#666666" points="0,-742 0,-742 88,-742 88,-742 0,-742"/>
<polygon fill="none" stroke="#666666" points="0,-724 0,-776 88,-776 88,-724 0,-724"/>
</a>
</g>
</g>
<!-- Node2&#45;&gt;Node1 -->
<g id="edge1_Node000001_Node000002" class="edge">
<title>Node2&#45;&gt;Node1</title>
<g id="a_edge1_Node000001_Node000002"><a xlink:title=" ">
<path fill="none" stroke="#63b8ff" d="M43.29,-712.76C43.06,-626.03 51.16,-401.72 134,-240 150.29,-208.2 175.67,-178.71 200.67,-154.5"/>
<polygon fill="none" stroke="#63b8ff" points="39.79,-712.58 43.36,-722.55 46.79,-712.53 39.79,-712.58"/>
</a>
</g>
</g>
<!-- Node5 -->
<g id="Node000005" class="node">
<title>Node5</title>
<g id="a_Node000005"><a xlink:href="../../d0/d8b/class_state.html" target="_top" xlink:title=" ">
<polygon fill="white" stroke="none" points="294,-676 140,-676 140,-492 294,-492 294,-676"/>
<text text-anchor="start" x="205.38" y="-662.5" font-family="Helvetica,sans-Serif" font-size="10.00">State</text>
<text text-anchor="start" x="215.5" y="-646.5" font-family="Helvetica,sans-Serif" font-size="10.00"> </text>
<text text-anchor="start" x="144" y="-630.5" font-family="Helvetica,sans-Serif" font-size="10.00">+</text>
<text text-anchor="start" x="154" y="-630.5" font-family="Helvetica,sans-Serif" font-size="10.00">virtual bool CanEnter()</text>
<text text-anchor="start" x="144" y="-614.5" font-family="Helvetica,sans-Serif" font-size="10.00">+</text>
<text text-anchor="start" x="154" y="-614.5" font-family="Helvetica,sans-Serif" font-size="10.00">virtual void Enter()</text>
<text text-anchor="start" x="144" y="-598.5" font-family="Helvetica,sans-Serif" font-size="10.00">+</text>
<text text-anchor="start" x="154" y="-598.5" font-family="Helvetica,sans-Serif" font-size="10.00">virtual void Exit()</text>
<text text-anchor="start" x="144" y="-582.5" font-family="Helvetica,sans-Serif" font-size="10.00">+</text>
<text text-anchor="start" x="154" y="-582.5" font-family="Helvetica,sans-Serif" font-size="10.00">virtual State ProcessInput</text>
<text text-anchor="start" x="154" y="-570.5" font-family="Helvetica,sans-Serif" font-size="10.00">(InputEvent @event)</text>
<text text-anchor="start" x="144" y="-554.5" font-family="Helvetica,sans-Serif" font-size="10.00">+</text>
<text text-anchor="start" x="154" y="-554.5" font-family="Helvetica,sans-Serif" font-size="10.00">virtual State ProcessFrame</text>
<text text-anchor="start" x="154" y="-542.5" font-family="Helvetica,sans-Serif" font-size="10.00">(double delta)</text>
<text text-anchor="start" x="144" y="-526.5" font-family="Helvetica,sans-Serif" font-size="10.00">+</text>
<text text-anchor="start" x="154" y="-526.5" font-family="Helvetica,sans-Serif" font-size="10.00">virtual State ProcessPhysics</text>
<text text-anchor="start" x="154" y="-514.5" font-family="Helvetica,sans-Serif" font-size="10.00">(double delta)</text>
<text text-anchor="start" x="144" y="-498.5" font-family="Helvetica,sans-Serif" font-size="10.00">+</text>
<text text-anchor="start" x="154" y="-498.5" font-family="Helvetica,sans-Serif" font-size="10.00">virtual void UpdateAnimations()</text>
<polygon fill="#666666" stroke="#666666" points="140,-658 140,-658 294,-658 294,-658 140,-658"/>
<polygon fill="#666666" stroke="#666666" points="140,-642 140,-642 294,-642 294,-642 140,-642"/>
<polygon fill="none" stroke="#666666" points="140,-492 140,-676 294,-676 294,-492 140,-492"/>
</a>
</g>
</g>
<!-- Node2&#45;&gt;Node5 -->
<g id="edge6_Node000005_Node000002" class="edge">
<title>Node2&#45;&gt;Node5</title>
<g id="a_edge6_Node000005_Node000002"><a xlink:title=" ">
<path fill="none" stroke="#63b8ff" d="M70.27,-724.09C86.65,-708.57 108.74,-687.62 130.81,-666.7"/>
<polygon fill="none" stroke="#63b8ff" points="130.89,-666.63 132.49,-659.6 139.6,-658.38 137.99,-665.41 130.89,-666.63"/>
</a>
</g>
<text text-anchor="middle" x="118.71" y="-696.5" font-family="Helvetica,sans-Serif" font-size="10.00" fill="grey"> +Parent</text>
</g>
<!-- Node3 -->
<g id="Node000003" class="node">
<title>Node3</title>
<g id="a_Node000003"><a xlink:href="../../d4/dd0/class_state_machine.html" target="_top" xlink:title=" ">
<polygon fill="white" stroke="none" points="290.5,-432 143.5,-432 143.5,-240 290.5,-240 290.5,-432"/>
<text text-anchor="start" x="187" y="-418.5" font-family="Helvetica,sans-Serif" font-size="10.00">StateMachine</text>
<text text-anchor="start" x="215.5" y="-402.5" font-family="Helvetica,sans-Serif" font-size="10.00"> </text>
<text text-anchor="start" x="147.5" y="-386.5" font-family="Helvetica,sans-Serif" font-size="10.00">+</text>
<text text-anchor="start" x="157.5" y="-386.5" font-family="Helvetica,sans-Serif" font-size="10.00">void Init(CharacterBody2</text>
<text text-anchor="start" x="157.5" y="-374.5" font-family="Helvetica,sans-Serif" font-size="10.00">D parent, AnimationPlayer</text>
<text text-anchor="start" x="157.5" y="-362.5" font-family="Helvetica,sans-Serif" font-size="10.00"> animationPlayer)</text>
<text text-anchor="start" x="147.5" y="-346.5" font-family="Helvetica,sans-Serif" font-size="10.00">+</text>
<text text-anchor="start" x="157.5" y="-346.5" font-family="Helvetica,sans-Serif" font-size="10.00">void ProcessInput(InputEvent</text>
<text text-anchor="start" x="157.5" y="-334.5" font-family="Helvetica,sans-Serif" font-size="10.00"> @event)</text>
<text text-anchor="start" x="147.5" y="-318.5" font-family="Helvetica,sans-Serif" font-size="10.00">+</text>
<text text-anchor="start" x="157.5" y="-318.5" font-family="Helvetica,sans-Serif" font-size="10.00">void ProcessFrame(double</text>
<text text-anchor="start" x="157.5" y="-306.5" font-family="Helvetica,sans-Serif" font-size="10.00"> delta)</text>
<text text-anchor="start" x="147.5" y="-290.5" font-family="Helvetica,sans-Serif" font-size="10.00">+</text>
<text text-anchor="start" x="157.5" y="-290.5" font-family="Helvetica,sans-Serif" font-size="10.00">void ProcessPhysics</text>
<text text-anchor="start" x="157.5" y="-278.5" font-family="Helvetica,sans-Serif" font-size="10.00">(double delta)</text>
<text text-anchor="start" x="147.5" y="-262.5" font-family="Helvetica,sans-Serif" font-size="10.00">+</text>
<text text-anchor="start" x="157.5" y="-262.5" font-family="Helvetica,sans-Serif" font-size="10.00">State GetState()</text>
<text text-anchor="start" x="147.5" y="-246.5" font-family="Helvetica,sans-Serif" font-size="10.00">+</text>
<text text-anchor="start" x="157.5" y="-246.5" font-family="Helvetica,sans-Serif" font-size="10.00">void OnDeath()</text>
<polygon fill="#666666" stroke="#666666" points="143.5,-414 143.5,-414 290.5,-414 290.5,-414 143.5,-414"/>
<polygon fill="#666666" stroke="#666666" points="143.5,-398 143.5,-398 290.5,-398 290.5,-398 143.5,-398"/>
<polygon fill="none" stroke="#666666" points="143.5,-240 143.5,-432 290.5,-432 290.5,-240 143.5,-240"/>
</a>
</g>
</g>
<!-- Node3&#45;&gt;Node1 -->
<g id="edge2_Node000001_Node000003" class="edge">
<title>Node3&#45;&gt;Node1</title>
<g id="a_edge2_Node000001_Node000003"><a xlink:title=" ">
<path fill="none" stroke="#63b8ff" d="M229.71,-240.15C232.35,-225.93 235.43,-211.51 239,-198 239.49,-196.14 240,-194.27 240.53,-192.39"/>
<polygon fill="none" stroke="#63b8ff" points="240.57,-192.26 238.45,-185.37 244,-180.76 246.12,-187.66 240.57,-192.26"/>
</a>
</g>
<text text-anchor="middle" x="273.5" y="-206.5" font-family="Helvetica,sans-Serif" font-size="10.00" fill="grey"> +StateMachine</text>
</g>
<!-- Node4 -->
<g id="Node000004" class="node">
<title>Node4</title>
<g id="a_Node000004"><a xlink:href="../../dc/d8f/class_node.html" target="_top" xlink:title=" ">
<polygon fill="white" stroke="none" points="142.5,-776 109.5,-776 109.5,-724 142.5,-724 142.5,-776"/>
<text text-anchor="start" x="114.38" y="-762.5" font-family="Helvetica,sans-Serif" font-size="10.00">Node</text>
<text text-anchor="start" x="124.5" y="-746.5" font-family="Helvetica,sans-Serif" font-size="10.00"> </text>
<text text-anchor="start" x="124.5" y="-730.5" font-family="Helvetica,sans-Serif" font-size="10.00"> </text>
<polygon fill="#666666" stroke="#666666" points="109.5,-758 109.5,-758 142.5,-758 142.5,-758 109.5,-758"/>
<polygon fill="#666666" stroke="#666666" points="109.5,-742 109.5,-742 142.5,-742 142.5,-742 109.5,-742"/>
<polygon fill="none" stroke="#666666" points="109.5,-724 109.5,-776 142.5,-776 142.5,-724 109.5,-724"/>
</a>
</g>
</g>
<!-- Node4&#45;&gt;Node3 -->
<g id="edge3_Node000003_Node000004" class="edge">
<title>Node4&#45;&gt;Node3</title>
<g id="a_edge3_Node000003_Node000004"><a xlink:title=" ">
<path fill="none" stroke="#63b8ff" d="M121.34,-713.11C115.98,-662.73 110.38,-568.6 131,-492 136.48,-471.64 145.19,-451.08 155,-431.89"/>
<polygon fill="none" stroke="#63b8ff" points="117.84,-713.31 122.43,-722.85 124.79,-712.52 117.84,-713.31"/>
</a>
</g>
</g>
<!-- Node4&#45;&gt;Node5 -->
<g id="edge5_Node000005_Node000004" class="edge">
<title>Node4&#45;&gt;Node5</title>
<g id="a_edge5_Node000005_Node000004"><a xlink:title=" ">
<path fill="none" stroke="#63b8ff" d="M145.33,-714.16C151.67,-702.73 159.04,-689.45 166.6,-675.84"/>
<polygon fill="none" stroke="#63b8ff" points="142.35,-712.33 140.56,-722.77 148.47,-715.72 142.35,-712.33"/>
</a>
</g>
</g>
<!-- Node5&#45;&gt;Node3 -->
<g id="edge4_Node000003_Node000005" class="edge">
<title>Node5&#45;&gt;Node3</title>
<g id="a_edge4_Node000003_Node000005"><a xlink:title=" ">
<path fill="none" stroke="#63b8ff" d="M217,-492.1C217,-476.55 217,-460.26 217,-444.33"/>
<polygon fill="none" stroke="#63b8ff" points="217,-444.55 213,-438.55 217,-432.55 221,-438.55 217,-444.55"/>
</a>
</g>
<text text-anchor="middle" x="248.5" y="-464.5" font-family="Helvetica,sans-Serif" font-size="10.00" fill="grey"> +DeathState</text>
<text text-anchor="middle" x="248.5" y="-452.5" font-family="Helvetica,sans-Serif" font-size="10.00" fill="grey">+StartingState</text>
</g>
<!-- Node6 -->
<g id="Node000006" class="node">
<title>Node6</title>
<g id="a_Node000006"><a xlink:title=" ">
<polygon fill="white" stroke="none" points="309.5,-776 228.5,-776 228.5,-724 309.5,-724 309.5,-776"/>
<text text-anchor="start" x="233.38" y="-762.5" font-family="Helvetica,sans-Serif" font-size="10.00">AnimationPlayer</text>
<text text-anchor="start" x="267.5" y="-746.5" font-family="Helvetica,sans-Serif" font-size="10.00"> </text>
<text text-anchor="start" x="267.5" y="-730.5" font-family="Helvetica,sans-Serif" font-size="10.00"> </text>
<polygon fill="#666666" stroke="#666666" points="228.5,-758 228.5,-758 309.5,-758 309.5,-758 228.5,-758"/>
<polygon fill="#666666" stroke="#666666" points="228.5,-742 228.5,-742 309.5,-742 309.5,-742 228.5,-742"/>
<polygon fill="none" stroke="#666666" points="228.5,-724 228.5,-776 309.5,-776 309.5,-724 228.5,-724"/>
</a>
</g>
</g>
<!-- Node6&#45;&gt;Node1 -->
<g id="edge8_Node000001_Node000006" class="edge">
<title>Node6&#45;&gt;Node1</title>
<g id="a_edge8_Node000001_Node000006"><a xlink:title=" ">
<path fill="none" stroke="#63b8ff" d="M296.82,-724.31C301.39,-718.78 305.46,-712.58 308,-706 348.65,-600.68 322.9,-309.9 308,-198 307.77,-196.24 307.51,-194.48 307.24,-192.7"/>
<polygon fill="none" stroke="#63b8ff" points="307.23,-192.67 302.26,-187.46 305.16,-180.85 310.14,-186.07 307.23,-192.67"/>
</a>
</g>
<text text-anchor="middle" x="369.47" y="-458.5" font-family="Helvetica,sans-Serif" font-size="10.00" fill="grey"> +AnimationPlayer</text>
</g>
<!-- Node6&#45;&gt;Node5 -->
<g id="edge7_Node000005_Node000006" class="edge">
<title>Node6&#45;&gt;Node5</title>
<g id="a_edge7_Node000005_Node000006"><a xlink:title=" ">
<path fill="none" stroke="#63b8ff" d="M257.48,-724.23C254.93,-718.32 252.37,-711.99 250.25,-706 248.22,-700.27 246.25,-694.35 244.33,-688.35"/>
<polygon fill="none" stroke="#63b8ff" points="244.31,-688.28 238.71,-683.74 240.75,-676.82 246.34,-681.36 244.31,-688.28"/>
</a>
</g>
<text text-anchor="middle" x="279.12" y="-696.5" font-family="Helvetica,sans-Serif" font-size="10.00" fill="grey"> +Animations</text>
</g>
<!-- Node7 -->
<g id="Node000007" class="node">
<title>Node7</title>
<g id="a_Node000007"><a xlink:title=" ">
<polygon fill="white" stroke="none" points="378,-362 350,-362 350,-310 378,-310 378,-362"/>
<text text-anchor="start" x="354.62" y="-348.5" font-family="Helvetica,sans-Serif" font-size="10.00">float</text>
<text text-anchor="start" x="362.5" y="-332.5" font-family="Helvetica,sans-Serif" font-size="10.00"> </text>
<text text-anchor="start" x="362.5" y="-316.5" font-family="Helvetica,sans-Serif" font-size="10.00"> </text>
<polygon fill="#666666" stroke="#666666" points="350,-344 350,-344 378,-344 378,-344 350,-344"/>
<polygon fill="#666666" stroke="#666666" points="350,-328 350,-328 378,-328 378,-328 350,-328"/>
<polygon fill="none" stroke="#666666" points="350,-310 350,-362 378,-362 378,-310 350,-310"/>
</a>
</g>
</g>
<!-- Node7&#45;&gt;Node1 -->
<g id="edge9_Node000001_Node000007" class="edge">
<title>Node7&#45;&gt;Node1</title>
<g id="a_edge9_Node000001_Node000007"><a xlink:title=" ">
<path fill="none" stroke="#63b8ff" d="M361.11,-310.17C357.37,-282.26 349.65,-235.92 336,-198 335.25,-195.92 334.47,-193.84 333.66,-191.75"/>
<polygon fill="none" stroke="#63b8ff" points="333.63,-191.67 327.64,-187.65 329.05,-180.58 335.04,-184.6 333.63,-191.67"/>
</a>
</g>
<text text-anchor="middle" x="387.61" y="-212.5" font-family="Helvetica,sans-Serif" font-size="10.00" fill="grey"> +BaseDamage</text>
<text text-anchor="middle" x="387.61" y="-200.5" font-family="Helvetica,sans-Serif" font-size="10.00" fill="grey">+MeleeAttackRange</text>
</g>
</g>
</svg>
