<?xml version="1.0" encoding="UTF-8" standalone="no"?>
<!DOCTYPE svg PUBLIC "-//W3C//DTD SVG 1.1//EN"
 "http://www.w3.org/Graphics/SVG/1.1/DTD/svg11.dtd">
<!-- Generated by graphviz version 12.1.0 (20240811.2233)
 -->
<!-- Title: Unicorn Pages: 1 -->
<svg width="440pt" height="828pt"
 viewBox="0.00 0.00 439.63 828.00" xmlns="http://www.w3.org/2000/svg" xmlns:xlink="http://www.w3.org/1999/xlink">
<g id="graph0" class="graph" transform="scale(1 1) rotate(0) translate(4 824)">
<title>Unicorn</title>
<!-- Node1 -->
<g id="Node000001" class="node">
<title>Node1</title>
<g id="a_Node000001"><a xlink:title=" ">
<polygon fill="#999999" stroke="none" points="357.5,-224 200.5,-224 200.5,0 357.5,0 357.5,-224"/>
<text text-anchor="start" x="262.12" y="-210.5" font-family="Helvetica,sans-Serif" font-size="10.00">Unicorn</text>
<text text-anchor="start" x="277.5" y="-194.5" font-family="Helvetica,sans-Serif" font-size="10.00"> </text>
<text text-anchor="start" x="204.5" y="-178.5" font-family="Helvetica,sans-Serif" font-size="10.00">+</text>
<text text-anchor="start" x="214.5" y="-178.5" font-family="Helvetica,sans-Serif" font-size="10.00">delegate void DeathEvent</text>
<text text-anchor="start" x="214.5" y="-166.5" font-family="Helvetica,sans-Serif" font-size="10.00">Handler()</text>
<text text-anchor="start" x="204.5" y="-150.5" font-family="Helvetica,sans-Serif" font-size="10.00">+</text>
<text text-anchor="start" x="214.5" y="-150.5" font-family="Helvetica,sans-Serif" font-size="10.00">override void _Ready()</text>
<text text-anchor="start" x="204.5" y="-134.5" font-family="Helvetica,sans-Serif" font-size="10.00">+</text>
<text text-anchor="start" x="214.5" y="-134.5" font-family="Helvetica,sans-Serif" font-size="10.00">override void _Process</text>
<text text-anchor="start" x="214.5" y="-122.5" font-family="Helvetica,sans-Serif" font-size="10.00">(double delta)</text>
<text text-anchor="start" x="204.5" y="-106.5" font-family="Helvetica,sans-Serif" font-size="10.00">+</text>
<text text-anchor="start" x="214.5" y="-106.5" font-family="Helvetica,sans-Serif" font-size="10.00">override void _PhysicsProcess</text>
<text text-anchor="start" x="214.5" y="-94.5" font-family="Helvetica,sans-Serif" font-size="10.00">(double delta)</text>
<text text-anchor="start" x="204.5" y="-78.5" font-family="Helvetica,sans-Serif" font-size="10.00">+</text>
<text text-anchor="start" x="214.5" y="-78.5" font-family="Helvetica,sans-Serif" font-size="10.00">void OnHealthReachesZero()</text>
<text text-anchor="start" x="204.5" y="-62.5" font-family="Helvetica,sans-Serif" font-size="10.00">+</text>
<text text-anchor="start" x="214.5" y="-62.5" font-family="Helvetica,sans-Serif" font-size="10.00">void SetUnicornProperties</text>
<text text-anchor="start" x="214.5" y="-50.5" font-family="Helvetica,sans-Serif" font-size="10.00">(MagicType magicType, Vector2</text>
<text text-anchor="start" x="214.5" y="-38.5" font-family="Helvetica,sans-Serif" font-size="10.00"> unicornPosition)</text>
<text text-anchor="start" x="204.5" y="-22.5" font-family="Helvetica,sans-Serif" font-size="10.00">+</text>
<text text-anchor="start" x="214.5" y="-22.5" font-family="Helvetica,sans-Serif" font-size="10.00">MagicType GetMagicType()</text>
<text text-anchor="start" x="204.5" y="-6.5" font-family="Helvetica,sans-Serif" font-size="10.00">+</text>
<text text-anchor="start" x="214.5" y="-6.5" font-family="Helvetica,sans-Serif" font-size="10.00">float GetDamageValue()</text>
<polygon fill="#666666" stroke="#666666" points="200.5,-206 200.5,-206 357.5,-206 357.5,-206 200.5,-206"/>
<polygon fill="#666666" stroke="#666666" points="200.5,-190 200.5,-190 357.5,-190 357.5,-190 200.5,-190"/>
<polygon fill="none" stroke="#666666" points="200.5,0 200.5,-224 357.5,-224 357.5,0 200.5,0"/>
</a>
</g>
</g>
<!-- Node2 -->
<g id="Node000002" class="node">
<title>Node2</title>
<g id="a_Node000002"><a xlink:title=" ">
<polygon fill="white" stroke="none" points="88,-820 0,-820 0,-768 88,-768 88,-820"/>
<text text-anchor="start" x="5" y="-806.5" font-family="Helvetica,sans-Serif" font-size="10.00">CharacterBody2D</text>
<text text-anchor="start" x="42.5" y="-790.5" font-family="Helvetica,sans-Serif" font-size="10.00"> </text>
<text text-anchor="start" x="42.5" y="-774.5" font-family="Helvetica,sans-Serif" font-size="10.00"> </text>
<polygon fill="#666666" stroke="#666666" points="0,-802 0,-802 88,-802 88,-802 0,-802"/>
<polygon fill="#666666" stroke="#666666" points="0,-786 0,-786 88,-786 88,-786 0,-786"/>
<polygon fill="none" stroke="#666666" points="0,-768 0,-820 88,-820 88,-768 0,-768"/>
</a>
</g>
</g>
<!-- Node2&#45;&gt;Node1 -->
<g id="edge1_Node000001_Node000002" class="edge">
<title>Node2&#45;&gt;Node1</title>
<g id="a_edge1_Node000001_Node000002"><a xlink:title=" ">
<path fill="none" stroke="#63b8ff" d="M44.04,-756.55C45.45,-670.2 56.92,-448.1 134,-284 150.38,-249.12 175.78,-215.65 200.77,-187.71"/>
<polygon fill="none" stroke="#63b8ff" points="40.54,-756.49 43.91,-766.54 47.54,-756.58 40.54,-756.49"/>
</a>
</g>
</g>
<!-- Node5 -->
<g id="Node000005" class="node">
<title>Node5</title>
<g id="a_Node000005"><a xlink:href="../../d0/d8b/class_state.html" target="_top" xlink:title=" ">
<polygon fill="white" stroke="none" points="294,-720 140,-720 140,-536 294,-536 294,-720"/>
<text text-anchor="start" x="205.38" y="-706.5" font-family="Helvetica,sans-Serif" font-size="10.00">State</text>
<text text-anchor="start" x="215.5" y="-690.5" font-family="Helvetica,sans-Serif" font-size="10.00"> </text>
<text text-anchor="start" x="144" y="-674.5" font-family="Helvetica,sans-Serif" font-size="10.00">+</text>
<text text-anchor="start" x="154" y="-674.5" font-family="Helvetica,sans-Serif" font-size="10.00">virtual bool CanEnter()</text>
<text text-anchor="start" x="144" y="-658.5" font-family="Helvetica,sans-Serif" font-size="10.00">+</text>
<text text-anchor="start" x="154" y="-658.5" font-family="Helvetica,sans-Serif" font-size="10.00">virtual void Enter()</text>
<text text-anchor="start" x="144" y="-642.5" font-family="Helvetica,sans-Serif" font-size="10.00">+</text>
<text text-anchor="start" x="154" y="-642.5" font-family="Helvetica,sans-Serif" font-size="10.00">virtual void Exit()</text>
<text text-anchor="start" x="144" y="-626.5" font-family="Helvetica,sans-Serif" font-size="10.00">+</text>
<text text-anchor="start" x="154" y="-626.5" font-family="Helvetica,sans-Serif" font-size="10.00">virtual State ProcessInput</text>
<text text-anchor="start" x="154" y="-614.5" font-family="Helvetica,sans-Serif" font-size="10.00">(InputEvent @event)</text>
<text text-anchor="start" x="144" y="-598.5" font-family="Helvetica,sans-Serif" font-size="10.00">+</text>
<text text-anchor="start" x="154" y="-598.5" font-family="Helvetica,sans-Serif" font-size="10.00">virtual State ProcessFrame</text>
<text text-anchor="start" x="154" y="-586.5" font-family="Helvetica,sans-Serif" font-size="10.00">(double delta)</text>
<text text-anchor="start" x="144" y="-570.5" font-family="Helvetica,sans-Serif" font-size="10.00">+</text>
<text text-anchor="start" x="154" y="-570.5" font-family="Helvetica,sans-Serif" font-size="10.00">virtual State ProcessPhysics</text>
<text text-anchor="start" x="154" y="-558.5" font-family="Helvetica,sans-Serif" font-size="10.00">(double delta)</text>
<text text-anchor="start" x="144" y="-542.5" font-family="Helvetica,sans-Serif" font-size="10.00">+</text>
<text text-anchor="start" x="154" y="-542.5" font-family="Helvetica,sans-Serif" font-size="10.00">virtual void UpdateAnimations()</text>
<polygon fill="#666666" stroke="#666666" points="140,-702 140,-702 294,-702 294,-702 140,-702"/>
<polygon fill="#666666" stroke="#666666" points="140,-686 140,-686 294,-686 294,-686 140,-686"/>
<polygon fill="none" stroke="#666666" points="140,-536 140,-720 294,-720 294,-536 140,-536"/>
</a>
</g>
</g>
<!-- Node2&#45;&gt;Node5 -->
<g id="edge6_Node000005_Node000002" class="edge">
<title>Node2&#45;&gt;Node5</title>
<g id="a_edge6_Node000005_Node000002"><a xlink:title=" ">
<path fill="none" stroke="#63b8ff" d="M70.27,-768.09C86.65,-752.57 108.74,-731.62 130.81,-710.7"/>
<polygon fill="none" stroke="#63b8ff" points="130.89,-710.63 132.49,-703.6 139.6,-702.38 137.99,-709.41 130.89,-710.63"/>
</a>
</g>
<text text-anchor="middle" x="118.71" y="-740.5" font-family="Helvetica,sans-Serif" font-size="10.00" fill="grey"> +Parent</text>
</g>
<!-- Node3 -->
<g id="Node000003" class="node">
<title>Node3</title>
<g id="a_Node000003"><a xlink:href="../../d4/dd0/class_state_machine.html" target="_top" xlink:title=" ">
<polygon fill="white" stroke="none" points="290.5,-476 143.5,-476 143.5,-284 290.5,-284 290.5,-476"/>
<text text-anchor="start" x="187" y="-462.5" font-family="Helvetica,sans-Serif" font-size="10.00">StateMachine</text>
<text text-anchor="start" x="215.5" y="-446.5" font-family="Helvetica,sans-Serif" font-size="10.00"> </text>
<text text-anchor="start" x="147.5" y="-430.5" font-family="Helvetica,sans-Serif" font-size="10.00">+</text>
<text text-anchor="start" x="157.5" y="-430.5" font-family="Helvetica,sans-Serif" font-size="10.00">void Init(CharacterBody2</text>
<text text-anchor="start" x="157.5" y="-418.5" font-family="Helvetica,sans-Serif" font-size="10.00">D parent, AnimationPlayer</text>
<text text-anchor="start" x="157.5" y="-406.5" font-family="Helvetica,sans-Serif" font-size="10.00"> animationPlayer)</text>
<text text-anchor="start" x="147.5" y="-390.5" font-family="Helvetica,sans-Serif" font-size="10.00">+</text>
<text text-anchor="start" x="157.5" y="-390.5" font-family="Helvetica,sans-Serif" font-size="10.00">void ProcessInput(InputEvent</text>
<text text-anchor="start" x="157.5" y="-378.5" font-family="Helvetica,sans-Serif" font-size="10.00"> @event)</text>
<text text-anchor="start" x="147.5" y="-362.5" font-family="Helvetica,sans-Serif" font-size="10.00">+</text>
<text text-anchor="start" x="157.5" y="-362.5" font-family="Helvetica,sans-Serif" font-size="10.00">void ProcessFrame(double</text>
<text text-anchor="start" x="157.5" y="-350.5" font-family="Helvetica,sans-Serif" font-size="10.00"> delta)</text>
<text text-anchor="start" x="147.5" y="-334.5" font-family="Helvetica,sans-Serif" font-size="10.00">+</text>
<text text-anchor="start" x="157.5" y="-334.5" font-family="Helvetica,sans-Serif" font-size="10.00">void ProcessPhysics</text>
<text text-anchor="start" x="157.5" y="-322.5" font-family="Helvetica,sans-Serif" font-size="10.00">(double delta)</text>
<text text-anchor="start" x="147.5" y="-306.5" font-family="Helvetica,sans-Serif" font-size="10.00">+</text>
<text text-anchor="start" x="157.5" y="-306.5" font-family="Helvetica,sans-Serif" font-size="10.00">State GetState()</text>
<text text-anchor="start" x="147.5" y="-290.5" font-family="Helvetica,sans-Serif" font-size="10.00">+</text>
<text text-anchor="start" x="157.5" y="-290.5" font-family="Helvetica,sans-Serif" font-size="10.00">void OnDeath()</text>
<polygon fill="#666666" stroke="#666666" points="143.5,-458 143.5,-458 290.5,-458 290.5,-458 143.5,-458"/>
<polygon fill="#666666" stroke="#666666" points="143.5,-442 143.5,-442 290.5,-442 290.5,-442 143.5,-442"/>
<polygon fill="none" stroke="#666666" points="143.5,-284 143.5,-476 290.5,-476 290.5,-284 143.5,-284"/>
</a>
</g>
</g>
<!-- Node3&#45;&gt;Node1 -->
<g id="edge2_Node000001_Node000003" class="edge">
<title>Node3&#45;&gt;Node1</title>
<g id="a_edge2_Node000001_Node000003"><a xlink:title=" ">
<path fill="none" stroke="#63b8ff" d="M230.41,-284.32C232.94,-270.08 235.82,-255.6 239,-242 239.43,-240.15 239.88,-238.28 240.34,-236.4"/>
<polygon fill="none" stroke="#63b8ff" points="240.34,-236.41 237.94,-229.61 243.3,-224.78 245.69,-231.58 240.34,-236.41"/>
</a>
</g>
<text text-anchor="middle" x="273.5" y="-250.5" font-family="Helvetica,sans-Serif" font-size="10.00" fill="grey"> +StateMachine</text>
</g>
<!-- Node4 -->
<g id="Node000004" class="node">
<title>Node4</title>
<g id="a_Node000004"><a xlink:href="../../dc/d8f/class_node.html" target="_top" xlink:title=" ">
<polygon fill="white" stroke="none" points="142.5,-820 109.5,-820 109.5,-768 142.5,-768 142.5,-820"/>
<text text-anchor="start" x="114.38" y="-806.5" font-family="Helvetica,sans-Serif" font-size="10.00">Node</text>
<text text-anchor="start" x="124.5" y="-790.5" font-family="Helvetica,sans-Serif" font-size="10.00"> </text>
<text text-anchor="start" x="124.5" y="-774.5" font-family="Helvetica,sans-Serif" font-size="10.00"> </text>
<polygon fill="#666666" stroke="#666666" points="109.5,-802 109.5,-802 142.5,-802 142.5,-802 109.5,-802"/>
<polygon fill="#666666" stroke="#666666" points="109.5,-786 109.5,-786 142.5,-786 142.5,-786 109.5,-786"/>
<polygon fill="none" stroke="#666666" points="109.5,-768 109.5,-820 142.5,-820 142.5,-768 109.5,-768"/>
</a>
</g>
</g>
<!-- Node4&#45;&gt;Node3 -->
<g id="edge3_Node000003_Node000004" class="edge">
<title>Node4&#45;&gt;Node3</title>
<g id="a_edge3_Node000003_Node000004"><a xlink:title=" ">
<path fill="none" stroke="#63b8ff" d="M121.34,-757.11C115.98,-706.73 110.38,-612.6 131,-536 136.48,-515.64 145.19,-495.08 155,-475.89"/>
<polygon fill="none" stroke="#63b8ff" points="117.84,-757.31 122.43,-766.85 124.79,-756.52 117.84,-757.31"/>
</a>
</g>
</g>
<!-- Node4&#45;&gt;Node5 -->
<g id="edge5_Node000005_Node000004" class="edge">
<title>Node4&#45;&gt;Node5</title>
<g id="a_edge5_Node000005_Node000004"><a xlink:title=" ">
<path fill="none" stroke="#63b8ff" d="M145.33,-758.16C151.67,-746.73 159.04,-733.45 166.6,-719.84"/>
<polygon fill="none" stroke="#63b8ff" points="142.35,-756.33 140.56,-766.77 148.47,-759.72 142.35,-756.33"/>
</a>
</g>
</g>
<!-- Node5&#45;&gt;Node3 -->
<g id="edge4_Node000003_Node000005" class="edge">
<title>Node5&#45;&gt;Node3</title>
<g id="a_edge4_Node000003_Node000005"><a xlink:title=" ">
<path fill="none" stroke="#63b8ff" d="M217,-536.1C217,-520.55 217,-504.26 217,-488.33"/>
<polygon fill="none" stroke="#63b8ff" points="217,-488.55 213,-482.55 217,-476.55 221,-482.55 217,-488.55"/>
</a>
</g>
<text text-anchor="middle" x="248.5" y="-508.5" font-family="Helvetica,sans-Serif" font-size="10.00" fill="grey"> +DeathState</text>
<text text-anchor="middle" x="248.5" y="-496.5" font-family="Helvetica,sans-Serif" font-size="10.00" fill="grey">+StartingState</text>
</g>
<!-- Node6 -->
<g id="Node000006" class="node">
<title>Node6</title>
<g id="a_Node000006"><a xlink:title=" ">
<polygon fill="white" stroke="none" points="309.5,-820 228.5,-820 228.5,-768 309.5,-768 309.5,-820"/>
<text text-anchor="start" x="233.38" y="-806.5" font-family="Helvetica,sans-Serif" font-size="10.00">AnimationPlayer</text>
<text text-anchor="start" x="267.5" y="-790.5" font-family="Helvetica,sans-Serif" font-size="10.00"> </text>
<text text-anchor="start" x="267.5" y="-774.5" font-family="Helvetica,sans-Serif" font-size="10.00"> </text>
<polygon fill="#666666" stroke="#666666" points="228.5,-802 228.5,-802 309.5,-802 309.5,-802 228.5,-802"/>
<polygon fill="#666666" stroke="#666666" points="228.5,-786 228.5,-786 309.5,-786 309.5,-786 228.5,-786"/>
<polygon fill="none" stroke="#666666" points="228.5,-768 228.5,-820 309.5,-820 309.5,-768 228.5,-768"/>
</a>
</g>
</g>
<!-- Node6&#45;&gt;Node1 -->
<g id="edge8_Node000001_Node000006" class="edge">
<title>Node6&#45;&gt;Node1</title>
<g id="a_edge8_Node000001_Node000006"><a xlink:title=" ">
<path fill="none" stroke="#63b8ff" d="M296.82,-768.31C301.39,-762.78 305.46,-756.58 308,-750 348.65,-644.68 320.46,-354.2 308,-242 307.8,-240.24 307.59,-238.47 307.37,-236.69"/>
<polygon fill="none" stroke="#63b8ff" points="307.37,-236.69 302.57,-231.31 305.69,-224.81 310.49,-230.19 307.37,-236.69"/>
</a>
</g>
<text text-anchor="middle" x="368.61" y="-502.5" font-family="Helvetica,sans-Serif" font-size="10.00" fill="grey"> +AnimationPlayer</text>
</g>
<!-- Node6&#45;&gt;Node5 -->
<g id="edge7_Node000005_Node000006" class="edge">
<title>Node6&#45;&gt;Node5</title>
<g id="a_edge7_Node000005_Node000006"><a xlink:title=" ">
<path fill="none" stroke="#63b8ff" d="M257.48,-768.23C254.93,-762.32 252.37,-755.99 250.25,-750 248.22,-744.27 246.25,-738.35 244.33,-732.35"/>
<polygon fill="none" stroke="#63b8ff" points="244.31,-732.28 238.71,-727.74 240.75,-720.82 246.34,-725.36 244.31,-732.28"/>
</a>
</g>
<text text-anchor="middle" x="279.12" y="-740.5" font-family="Helvetica,sans-Serif" font-size="10.00" fill="grey"> +Animations</text>
</g>
<!-- Node7 -->
<g id="Node000007" class="node">
<title>Node7</title>
<g id="a_Node000007"><a xlink:title=" ">
<polygon fill="white" stroke="none" points="378,-406 350,-406 350,-354 378,-354 378,-406"/>
<text text-anchor="start" x="354.62" y="-392.5" font-family="Helvetica,sans-Serif" font-size="10.00">float</text>
<text text-anchor="start" x="362.5" y="-376.5" font-family="Helvetica,sans-Serif" font-size="10.00"> </text>
<text text-anchor="start" x="362.5" y="-360.5" font-family="Helvetica,sans-Serif" font-size="10.00"> </text>
<polygon fill="#666666" stroke="#666666" points="350,-388 350,-388 378,-388 378,-388 350,-388"/>
<polygon fill="#666666" stroke="#666666" points="350,-372 350,-372 378,-372 378,-372 350,-372"/>
<polygon fill="none" stroke="#666666" points="350,-354 350,-406 378,-406 378,-354 350,-354"/>
</a>
</g>
</g>
<!-- Node7&#45;&gt;Node1 -->
<g id="edge9_Node000001_Node000007" class="edge">
<title>Node7&#45;&gt;Node1</title>
<g id="a_edge9_Node000001_Node000007"><a xlink:title=" ">
<path fill="none" stroke="#63b8ff" d="M360.55,-354.09C356.34,-326.32 348.21,-280.28 336,-242 335.38,-240.05 334.73,-238.09 334.07,-236.12"/>
<polygon fill="none" stroke="#63b8ff" points="334.07,-236.12 328.31,-231.79 330.1,-224.8 335.86,-229.13 334.07,-236.12"/>
</a>
</g>
<text text-anchor="middle" x="387" y="-256.5" font-family="Helvetica,sans-Serif" font-size="10.00" fill="grey"> +BaseDamage</text>
<text text-anchor="middle" x="387" y="-244.5" font-family="Helvetica,sans-Serif" font-size="10.00" fill="grey">+MeleeAttackRange</text>
</g>
</g>
</svg>
