<?xml version="1.0" encoding="UTF-8" standalone="no"?>
<!DOCTYPE svg PUBLIC "-//W3C//DTD SVG 1.1//EN"
 "http://www.w3.org/Graphics/SVG/1.1/DTD/svg11.dtd">
<!-- Generated by graphviz version 12.1.0 (20240811.2233)
 -->
<!-- Title: HurtBoxStompingAttack Pages: 1 -->
<svg width="161pt" height="304pt"
 viewBox="0.00 0.00 161.00 304.00" xmlns="http://www.w3.org/2000/svg" xmlns:xlink="http://www.w3.org/1999/xlink">
<g id="graph0" class="graph" transform="scale(1 1) rotate(0) translate(4 300)">
<title>HurtBoxStompingAttack</title>
<!-- Node1 -->
<g id="Node000001" class="node">
<title>Node1</title>
<g id="a_Node000001"><a xlink:title=" ">
<polygon fill="#999999" stroke="none" points="153,-196 0,-196 0,0 153,0 153,-196"/>
<text text-anchor="start" x="23.62" y="-182.5" font-family="Helvetica,sans-Serif" font-size="10.00">HurtBoxStompingAttack</text>
<text text-anchor="start" x="75" y="-166.5" font-family="Helvetica,sans-Serif" font-size="10.00"> </text>
<text text-anchor="start" x="4" y="-150.5" font-family="Helvetica,sans-Serif" font-size="10.00">+</text>
<text text-anchor="start" x="14" y="-150.5" font-family="Helvetica,sans-Serif" font-size="10.00">override void _Ready()</text>
<text text-anchor="start" x="4" y="-134.5" font-family="Helvetica,sans-Serif" font-size="10.00">+</text>
<text text-anchor="start" x="14" y="-134.5" font-family="Helvetica,sans-Serif" font-size="10.00">override void _PhysicsProcess</text>
<text text-anchor="start" x="14" y="-122.5" font-family="Helvetica,sans-Serif" font-size="10.00">(double delta)</text>
<text text-anchor="start" x="4" y="-106.5" font-family="Helvetica,sans-Serif" font-size="10.00">+</text>
<text text-anchor="start" x="14" y="-106.5" font-family="Helvetica,sans-Serif" font-size="10.00">void OnAreaEntered</text>
<text text-anchor="start" x="14" y="-94.5" font-family="Helvetica,sans-Serif" font-size="10.00">(Area2D area)</text>
<text text-anchor="start" x="4" y="-78.5" font-family="Helvetica,sans-Serif" font-size="10.00">+</text>
<text text-anchor="start" x="14" y="-78.5" font-family="Helvetica,sans-Serif" font-size="10.00">void SetAttack(Attack</text>
<text text-anchor="start" x="14" y="-66.5" font-family="Helvetica,sans-Serif" font-size="10.00"> attack)</text>
<text text-anchor="start" x="4" y="-50.5" font-family="Helvetica,sans-Serif" font-size="10.00">+</text>
<text text-anchor="start" x="14" y="-50.5" font-family="Helvetica,sans-Serif" font-size="10.00">void StartAttack(Attack</text>
<text text-anchor="start" x="14" y="-38.5" font-family="Helvetica,sans-Serif" font-size="10.00"> attack, double delayTime)</text>
<text text-anchor="start" x="4" y="-22.5" font-family="Helvetica,sans-Serif" font-size="10.00">+</text>
<text text-anchor="start" x="14" y="-22.5" font-family="Helvetica,sans-Serif" font-size="10.00">void EndAttack()</text>
<text text-anchor="start" x="4" y="-6.5" font-family="Helvetica,sans-Serif" font-size="10.00">+</text>
<text text-anchor="start" x="14" y="-6.5" font-family="Helvetica,sans-Serif" font-size="10.00">void OnTimerTimeout()</text>
<polygon fill="#666666" stroke="#666666" points="0,-178 0,-178 153,-178 153,-178 0,-178"/>
<polygon fill="#666666" stroke="#666666" points="0,-162 0,-162 153,-162 153,-162 0,-162"/>
<polygon fill="none" stroke="#666666" points="0,0 0,-196 153,-196 153,0 0,0"/>
</a>
</g>
</g>
<!-- Node2 -->
<g id="Node000002" class="node">
<title>Node2</title>
<g id="a_Node000002"><a xlink:href="../../dc/df8/class_area2_d.html" target="_top" xlink:title=" ">
<polygon fill="white" stroke="none" points="70,-296 27,-296 27,-244 70,-244 70,-296"/>
<text text-anchor="start" x="32" y="-282.5" font-family="Helvetica,sans-Serif" font-size="10.00">Area2D</text>
<text text-anchor="start" x="47" y="-266.5" font-family="Helvetica,sans-Serif" font-size="10.00"> </text>
<text text-anchor="start" x="47" y="-250.5" font-family="Helvetica,sans-Serif" font-size="10.00"> </text>
<polygon fill="#666666" stroke="#666666" points="27,-278 27,-278 70,-278 70,-278 27,-278"/>
<polygon fill="#666666" stroke="#666666" points="27,-262 27,-262 70,-262 70,-262 27,-262"/>
<polygon fill="none" stroke="#666666" points="27,-244 27,-296 70,-296 70,-244 27,-244"/>
</a>
</g>
</g>
<!-- Node2&#45;&gt;Node1 -->
<g id="edge1_Node000001_Node000002" class="edge">
<title>Node2&#45;&gt;Node1</title>
<g id="a_edge1_Node000001_Node000002"><a xlink:title=" ">
<path fill="none" stroke="#63b8ff" d="M54.44,-232.92C56.28,-221.78 58.39,-208.94 60.57,-195.72"/>
<polygon fill="none" stroke="#63b8ff" points="50.99,-232.35 52.82,-242.79 57.9,-233.49 50.99,-232.35"/>
</a>
</g>
</g>
<!-- Node3 -->
<g id="Node000003" class="node">
<title>Node3</title>
<g id="a_Node000003"><a xlink:title=" ">
<polygon fill="white" stroke="none" points="122.5,-296 88.5,-296 88.5,-244 122.5,-244 122.5,-296"/>
<text text-anchor="start" x="93.12" y="-282.5" font-family="Helvetica,sans-Serif" font-size="10.00">Timer</text>
<text text-anchor="start" x="104" y="-266.5" font-family="Helvetica,sans-Serif" font-size="10.00"> </text>
<text text-anchor="start" x="104" y="-250.5" font-family="Helvetica,sans-Serif" font-size="10.00"> </text>
<polygon fill="#666666" stroke="#666666" points="88.5,-278 88.5,-278 122.5,-278 122.5,-278 88.5,-278"/>
<polygon fill="#666666" stroke="#666666" points="88.5,-262 88.5,-262 122.5,-262 122.5,-262 88.5,-262"/>
<polygon fill="none" stroke="#666666" points="88.5,-244 88.5,-296 122.5,-296 122.5,-244 88.5,-244"/>
</a>
</g>
</g>
<!-- Node3&#45;&gt;Node1 -->
<g id="edge2_Node000001_Node000003" class="edge">
<title>Node3&#45;&gt;Node1</title>
<g id="a_edge2_Node000001_Node000003"><a xlink:title=" ">
<path fill="none" stroke="#63b8ff" d="M101.28,-244.28C99.55,-234.13 97.42,-221.61 95.13,-208.22"/>
<polygon fill="none" stroke="#63b8ff" points="95.17,-208.44 90.22,-203.19 93.15,-196.61 98.1,-201.85 95.17,-208.44"/>
</a>
</g>
<text text-anchor="middle" x="113.1" y="-216.5" font-family="Helvetica,sans-Serif" font-size="10.00" fill="grey"> +timer</text>
</g>
</g>
</svg>
