<?xml version="1.0" encoding="UTF-8" standalone="no"?>
<!DOCTYPE svg PUBLIC "-//W3C//DTD SVG 1.1//EN"
 "http://www.w3.org/Graphics/SVG/1.1/DTD/svg11.dtd">
<!-- Generated by graphviz version 12.1.0 (20240811.2233)
 -->
<!-- Title: SlimeMoving Pages: 1 -->
<svg width="247pt" height="464pt"
 viewBox="0.00 0.00 247.00 464.00" xmlns="http://www.w3.org/2000/svg" xmlns:xlink="http://www.w3.org/1999/xlink">
<g id="graph0" class="graph" transform="scale(1 1) rotate(0) translate(4 460)">
<title>SlimeMoving</title>
<!-- Node1 -->
<g id="Node000001" class="node">
<title>Node1</title>
<g id="a_Node000001"><a xlink:title=" ">
<polygon fill="#999999" stroke="none" points="209.5,-112 47.5,-112 47.5,0 209.5,0 209.5,-112"/>
<text text-anchor="start" x="100.38" y="-98.5" font-family="Helvetica,sans-Serif" font-size="10.00">SlimeMoving</text>
<text text-anchor="start" x="127" y="-82.5" font-family="Helvetica,sans-Serif" font-size="10.00"> </text>
<text text-anchor="start" x="51.5" y="-66.5" font-family="Helvetica,sans-Serif" font-size="10.00">+</text>
<text text-anchor="start" x="61.5" y="-66.5" font-family="Helvetica,sans-Serif" font-size="10.00">override void _Ready()</text>
<text text-anchor="start" x="51.5" y="-50.5" font-family="Helvetica,sans-Serif" font-size="10.00">+</text>
<text text-anchor="start" x="61.5" y="-50.5" font-family="Helvetica,sans-Serif" font-size="10.00">override void Enter()</text>
<text text-anchor="start" x="51.5" y="-34.5" font-family="Helvetica,sans-Serif" font-size="10.00">+</text>
<text text-anchor="start" x="61.5" y="-34.5" font-family="Helvetica,sans-Serif" font-size="10.00">override State ProcessPhysics</text>
<text text-anchor="start" x="61.5" y="-22.5" font-family="Helvetica,sans-Serif" font-size="10.00">(double delta)</text>
<text text-anchor="start" x="51.5" y="-6.5" font-family="Helvetica,sans-Serif" font-size="10.00">+</text>
<text text-anchor="start" x="61.5" y="-6.5" font-family="Helvetica,sans-Serif" font-size="10.00">override void UpdateAnimations()</text>
<polygon fill="#666666" stroke="#666666" points="47.5,-94 47.5,-94 209.5,-94 209.5,-94 47.5,-94"/>
<polygon fill="#666666" stroke="#666666" points="47.5,-78 47.5,-78 209.5,-78 209.5,-78 47.5,-78"/>
<polygon fill="none" stroke="#666666" points="47.5,0 47.5,-112 209.5,-112 209.5,0 47.5,0"/>
</a>
</g>
</g>
<!-- Node2 -->
<g id="Node000002" class="node">
<title>Node2</title>
<g id="a_Node000002"><a xlink:href="../../d0/d8b/class_state.html" target="_top" xlink:title=" ">
<polygon fill="white" stroke="none" points="172.5,-356 18.5,-356 18.5,-172 172.5,-172 172.5,-356"/>
<text text-anchor="start" x="83.88" y="-342.5" font-family="Helvetica,sans-Serif" font-size="10.00">State</text>
<text text-anchor="start" x="94" y="-326.5" font-family="Helvetica,sans-Serif" font-size="10.00"> </text>
<text text-anchor="start" x="22.5" y="-310.5" font-family="Helvetica,sans-Serif" font-size="10.00">+</text>
<text text-anchor="start" x="32.5" y="-310.5" font-family="Helvetica,sans-Serif" font-size="10.00">virtual bool CanEnter()</text>
<text text-anchor="start" x="22.5" y="-294.5" font-family="Helvetica,sans-Serif" font-size="10.00">+</text>
<text text-anchor="start" x="32.5" y="-294.5" font-family="Helvetica,sans-Serif" font-size="10.00">virtual void Enter()</text>
<text text-anchor="start" x="22.5" y="-278.5" font-family="Helvetica,sans-Serif" font-size="10.00">+</text>
<text text-anchor="start" x="32.5" y="-278.5" font-family="Helvetica,sans-Serif" font-size="10.00">virtual void Exit()</text>
<text text-anchor="start" x="22.5" y="-262.5" font-family="Helvetica,sans-Serif" font-size="10.00">+</text>
<text text-anchor="start" x="32.5" y="-262.5" font-family="Helvetica,sans-Serif" font-size="10.00">virtual State ProcessInput</text>
<text text-anchor="start" x="32.5" y="-250.5" font-family="Helvetica,sans-Serif" font-size="10.00">(InputEvent @event)</text>
<text text-anchor="start" x="22.5" y="-234.5" font-family="Helvetica,sans-Serif" font-size="10.00">+</text>
<text text-anchor="start" x="32.5" y="-234.5" font-family="Helvetica,sans-Serif" font-size="10.00">virtual State ProcessFrame</text>
<text text-anchor="start" x="32.5" y="-222.5" font-family="Helvetica,sans-Serif" font-size="10.00">(double delta)</text>
<text text-anchor="start" x="22.5" y="-206.5" font-family="Helvetica,sans-Serif" font-size="10.00">+</text>
<text text-anchor="start" x="32.5" y="-206.5" font-family="Helvetica,sans-Serif" font-size="10.00">virtual State ProcessPhysics</text>
<text text-anchor="start" x="32.5" y="-194.5" font-family="Helvetica,sans-Serif" font-size="10.00">(double delta)</text>
<text text-anchor="start" x="22.5" y="-178.5" font-family="Helvetica,sans-Serif" font-size="10.00">+</text>
<text text-anchor="start" x="32.5" y="-178.5" font-family="Helvetica,sans-Serif" font-size="10.00">virtual void UpdateAnimations()</text>
<polygon fill="#666666" stroke="#666666" points="18.5,-338 18.5,-338 172.5,-338 172.5,-338 18.5,-338"/>
<polygon fill="#666666" stroke="#666666" points="18.5,-322 18.5,-322 172.5,-322 172.5,-322 18.5,-322"/>
<polygon fill="none" stroke="#666666" points="18.5,-172 18.5,-356 172.5,-356 172.5,-172 18.5,-172"/>
</a>
</g>
</g>
<!-- Node2&#45;&gt;Node1 -->
<g id="edge1_Node000001_Node000002" class="edge">
<title>Node2&#45;&gt;Node1</title>
<g id="a_edge1_Node000001_Node000002"><a xlink:title=" ">
<path fill="none" stroke="#63b8ff" d="M104.67,-160.9C106.08,-150.43 107.69,-139.98 109.5,-130 110.58,-124.07 111.88,-117.92 113.29,-111.81"/>
<polygon fill="none" stroke="#63b8ff" points="101.21,-160.37 103.41,-170.74 108.15,-161.26 101.21,-160.37"/>
</a>
</g>
</g>
<!-- Node2&#45;&gt;Node1 -->
<g id="edge5_Node000001_Node000002" class="edge">
<title>Node2&#45;&gt;Node1</title>
<g id="a_edge5_Node000001_Node000002"><a xlink:title=" ">
<path fill="none" stroke="#63b8ff" d="M110.07,-172.05C112.63,-156.05 115.26,-139.65 117.7,-124.44"/>
<polygon fill="none" stroke="#63b8ff" points="117.65,-124.71 114.65,-118.16 119.55,-112.87 122.55,-119.42 117.65,-124.71"/>
</a>
</g>
<text text-anchor="middle" x="141.05" y="-144.5" font-family="Helvetica,sans-Serif" font-size="10.00" fill="grey"> +Attacking</text>
<text text-anchor="middle" x="141.05" y="-132.5" font-family="Helvetica,sans-Serif" font-size="10.00" fill="grey">+Idle</text>
</g>
<!-- Node3 -->
<g id="Node000003" class="node">
<title>Node3</title>
<g id="a_Node000003"><a xlink:href="../../dc/d8f/class_node.html" target="_top" xlink:title=" ">
<polygon fill="white" stroke="none" points="33,-456 0,-456 0,-404 33,-404 33,-456"/>
<text text-anchor="start" x="4.88" y="-442.5" font-family="Helvetica,sans-Serif" font-size="10.00">Node</text>
<text text-anchor="start" x="15" y="-426.5" font-family="Helvetica,sans-Serif" font-size="10.00"> </text>
<text text-anchor="start" x="15" y="-410.5" font-family="Helvetica,sans-Serif" font-size="10.00"> </text>
<polygon fill="#666666" stroke="#666666" points="0,-438 0,-438 33,-438 33,-438 0,-438"/>
<polygon fill="#666666" stroke="#666666" points="0,-422 0,-422 33,-422 33,-422 0,-422"/>
<polygon fill="none" stroke="#666666" points="0,-404 0,-456 33,-456 33,-404 0,-404"/>
</a>
</g>
</g>
<!-- Node3&#45;&gt;Node2 -->
<g id="edge2_Node000002_Node000003" class="edge">
<title>Node3&#45;&gt;Node2</title>
<g id="a_edge2_Node000002_Node000003"><a xlink:title=" ">
<path fill="none" stroke="#63b8ff" d="M33.45,-393.81C38.92,-382.46 45.25,-369.31 51.74,-355.84"/>
<polygon fill="none" stroke="#63b8ff" points="30.34,-392.2 29.16,-402.73 36.65,-395.24 30.34,-392.2"/>
</a>
</g>
</g>
<!-- Node4 -->
<g id="Node000004" class="node">
<title>Node4</title>
<g id="a_Node000004"><a xlink:title=" ">
<polygon fill="white" stroke="none" points="139.5,-456 51.5,-456 51.5,-404 139.5,-404 139.5,-456"/>
<text text-anchor="start" x="56.5" y="-442.5" font-family="Helvetica,sans-Serif" font-size="10.00">CharacterBody2D</text>
<text text-anchor="start" x="94" y="-426.5" font-family="Helvetica,sans-Serif" font-size="10.00"> </text>
<text text-anchor="start" x="94" y="-410.5" font-family="Helvetica,sans-Serif" font-size="10.00"> </text>
<polygon fill="#666666" stroke="#666666" points="51.5,-438 51.5,-438 139.5,-438 139.5,-438 51.5,-438"/>
<polygon fill="#666666" stroke="#666666" points="51.5,-422 51.5,-422 139.5,-422 139.5,-422 51.5,-422"/>
<polygon fill="none" stroke="#666666" points="51.5,-404 51.5,-456 139.5,-456 139.5,-404 51.5,-404"/>
</a>
</g>
</g>
<!-- Node4&#45;&gt;Node2 -->
<g id="edge3_Node000002_Node000004" class="edge">
<title>Node4&#45;&gt;Node2</title>
<g id="a_edge3_Node000002_Node000004"><a xlink:title=" ">
<path fill="none" stroke="#63b8ff" d="M95.5,-404.09C95.5,-394.04 95.5,-381.72 95.5,-368.61"/>
<polygon fill="none" stroke="#63b8ff" points="95.5,-368.74 91.5,-362.74 95.5,-356.74 99.5,-362.74 95.5,-368.74"/>
</a>
</g>
<text text-anchor="middle" x="114.25" y="-376.5" font-family="Helvetica,sans-Serif" font-size="10.00" fill="grey"> +Parent</text>
</g>
<!-- Node5 -->
<g id="Node000005" class="node">
<title>Node5</title>
<g id="a_Node000005"><a xlink:title=" ">
<polygon fill="white" stroke="none" points="239,-456 158,-456 158,-404 239,-404 239,-456"/>
<text text-anchor="start" x="162.88" y="-442.5" font-family="Helvetica,sans-Serif" font-size="10.00">AnimationPlayer</text>
<text text-anchor="start" x="197" y="-426.5" font-family="Helvetica,sans-Serif" font-size="10.00"> </text>
<text text-anchor="start" x="197" y="-410.5" font-family="Helvetica,sans-Serif" font-size="10.00"> </text>
<polygon fill="#666666" stroke="#666666" points="158,-438 158,-438 239,-438 239,-438 158,-438"/>
<polygon fill="#666666" stroke="#666666" points="158,-422 158,-422 239,-422 239,-422 158,-422"/>
<polygon fill="none" stroke="#666666" points="158,-404 158,-456 239,-456 239,-404 158,-404"/>
</a>
</g>
</g>
<!-- Node5&#45;&gt;Node2 -->
<g id="edge4_Node000002_Node000005" class="edge">
<title>Node5&#45;&gt;Node2</title>
<g id="a_edge4_Node000002_Node000005"><a xlink:title=" ">
<path fill="none" stroke="#63b8ff" d="M182.86,-404.09C176.22,-393.52 168,-380.44 159.29,-366.57"/>
<polygon fill="none" stroke="#63b8ff" points="159.41,-366.76 152.83,-363.81 153.03,-356.6 159.61,-359.55 159.41,-366.76"/>
</a>
</g>
<text text-anchor="middle" x="199.75" y="-376.5" font-family="Helvetica,sans-Serif" font-size="10.00" fill="grey"> +Animations</text>
</g>
<!-- Node6 -->
<g id="Node000006" class="node">
<title>Node6</title>
<g id="a_Node000006"><a xlink:title=" ">
<polygon fill="white" stroke="none" points="218.5,-290 190.5,-290 190.5,-238 218.5,-238 218.5,-290"/>
<text text-anchor="start" x="195.12" y="-276.5" font-family="Helvetica,sans-Serif" font-size="10.00">float</text>
<text text-anchor="start" x="203" y="-260.5" font-family="Helvetica,sans-Serif" font-size="10.00"> </text>
<text text-anchor="start" x="203" y="-244.5" font-family="Helvetica,sans-Serif" font-size="10.00"> </text>
<polygon fill="#666666" stroke="#666666" points="190.5,-272 190.5,-272 218.5,-272 218.5,-272 190.5,-272"/>
<polygon fill="#666666" stroke="#666666" points="190.5,-256 190.5,-256 218.5,-256 218.5,-256 190.5,-256"/>
<polygon fill="none" stroke="#666666" points="190.5,-238 190.5,-290 218.5,-290 218.5,-238 190.5,-238"/>
</a>
</g>
</g>
<!-- Node6&#45;&gt;Node1 -->
<g id="edge6_Node000001_Node000006" class="edge">
<title>Node6&#45;&gt;Node1</title>
<g id="a_edge6_Node000001_Node000006"><a xlink:title=" ">
<path fill="none" stroke="#63b8ff" d="M200.32,-238.32C195.23,-211.12 185.42,-166.38 170.5,-130 169.56,-127.72 168.57,-125.42 167.53,-123.11"/>
<polygon fill="none" stroke="#63b8ff" points="167.59,-123.24 161.37,-119.57 162.37,-112.43 168.58,-116.09 167.59,-123.24"/>
</a>
</g>
<text text-anchor="middle" x="200.05" y="-138.5" font-family="Helvetica,sans-Serif" font-size="10.00" fill="grey"> +SPEED</text>
</g>
</g>
</svg>
