<?xml version="1.0" encoding="UTF-8" standalone="no"?>
<!DOCTYPE svg PUBLIC "-//W3C//DTD SVG 1.1//EN"
 "http://www.w3.org/Graphics/SVG/1.1/DTD/svg11.dtd">
<!-- Generated by graphviz version 12.1.0 (20240811.2233)
 -->
<!-- Title: SlimeMoving Pages: 1 -->
<svg width="358pt" height="480pt"
 viewBox="0.00 0.00 358.44 480.00" xmlns="http://www.w3.org/2000/svg" xmlns:xlink="http://www.w3.org/1999/xlink">
<g id="graph0" class="graph" transform="scale(1 1) rotate(0) translate(4 476)">
<title>SlimeMoving</title>
<!-- Node1 -->
<g id="Node000001" class="node">
<title>Node1</title>
<g id="a_Node000001"><a xlink:title=" ">
<polygon fill="#999999" stroke="none" points="278.5,-128 116.5,-128 116.5,0 278.5,0 278.5,-128"/>
<text text-anchor="start" x="169.38" y="-114.5" font-family="Helvetica,sans-Serif" font-size="10.00">SlimeMoving</text>
<text text-anchor="start" x="196" y="-98.5" font-family="Helvetica,sans-Serif" font-size="10.00"> </text>
<text text-anchor="start" x="120.5" y="-82.5" font-family="Helvetica,sans-Serif" font-size="10.00">+</text>
<text text-anchor="start" x="130.5" y="-82.5" font-family="Helvetica,sans-Serif" font-size="10.00">override void _Ready()</text>
<text text-anchor="start" x="120.5" y="-66.5" font-family="Helvetica,sans-Serif" font-size="10.00">+</text>
<text text-anchor="start" x="130.5" y="-66.5" font-family="Helvetica,sans-Serif" font-size="10.00">override void Enter()</text>
<text text-anchor="start" x="120.5" y="-50.5" font-family="Helvetica,sans-Serif" font-size="10.00">+</text>
<text text-anchor="start" x="130.5" y="-50.5" font-family="Helvetica,sans-Serif" font-size="10.00">override void Exit()</text>
<text text-anchor="start" x="120.5" y="-34.5" font-family="Helvetica,sans-Serif" font-size="10.00">+</text>
<text text-anchor="start" x="130.5" y="-34.5" font-family="Helvetica,sans-Serif" font-size="10.00">override State ProcessPhysics</text>
<text text-anchor="start" x="130.5" y="-22.5" font-family="Helvetica,sans-Serif" font-size="10.00">(double delta)</text>
<text text-anchor="start" x="120.5" y="-6.5" font-family="Helvetica,sans-Serif" font-size="10.00">+</text>
<text text-anchor="start" x="130.5" y="-6.5" font-family="Helvetica,sans-Serif" font-size="10.00">override void UpdateAnimations()</text>
<polygon fill="#666666" stroke="#666666" points="116.5,-110 116.5,-110 278.5,-110 278.5,-110 116.5,-110"/>
<polygon fill="#666666" stroke="#666666" points="116.5,-94 116.5,-94 278.5,-94 278.5,-94 116.5,-94"/>
<polygon fill="none" stroke="#666666" points="116.5,0 116.5,-128 278.5,-128 278.5,0 116.5,0"/>
</a>
</g>
</g>
<!-- Node2 -->
<g id="Node000002" class="node">
<title>Node2</title>
<g id="a_Node000002"><a xlink:href="../../d0/d8b/class_state.html" target="_top" xlink:title=" ">
<polygon fill="white" stroke="none" points="172.5,-372 18.5,-372 18.5,-188 172.5,-188 172.5,-372"/>
<text text-anchor="start" x="83.88" y="-358.5" font-family="Helvetica,sans-Serif" font-size="10.00">State</text>
<text text-anchor="start" x="94" y="-342.5" font-family="Helvetica,sans-Serif" font-size="10.00"> </text>
<text text-anchor="start" x="22.5" y="-326.5" font-family="Helvetica,sans-Serif" font-size="10.00">+</text>
<text text-anchor="start" x="32.5" y="-326.5" font-family="Helvetica,sans-Serif" font-size="10.00">virtual bool CanEnter()</text>
<text text-anchor="start" x="22.5" y="-310.5" font-family="Helvetica,sans-Serif" font-size="10.00">+</text>
<text text-anchor="start" x="32.5" y="-310.5" font-family="Helvetica,sans-Serif" font-size="10.00">virtual void Enter()</text>
<text text-anchor="start" x="22.5" y="-294.5" font-family="Helvetica,sans-Serif" font-size="10.00">+</text>
<text text-anchor="start" x="32.5" y="-294.5" font-family="Helvetica,sans-Serif" font-size="10.00">virtual void Exit()</text>
<text text-anchor="start" x="22.5" y="-278.5" font-family="Helvetica,sans-Serif" font-size="10.00">+</text>
<text text-anchor="start" x="32.5" y="-278.5" font-family="Helvetica,sans-Serif" font-size="10.00">virtual State ProcessInput</text>
<text text-anchor="start" x="32.5" y="-266.5" font-family="Helvetica,sans-Serif" font-size="10.00">(InputEvent @event)</text>
<text text-anchor="start" x="22.5" y="-250.5" font-family="Helvetica,sans-Serif" font-size="10.00">+</text>
<text text-anchor="start" x="32.5" y="-250.5" font-family="Helvetica,sans-Serif" font-size="10.00">virtual State ProcessFrame</text>
<text text-anchor="start" x="32.5" y="-238.5" font-family="Helvetica,sans-Serif" font-size="10.00">(double delta)</text>
<text text-anchor="start" x="22.5" y="-222.5" font-family="Helvetica,sans-Serif" font-size="10.00">+</text>
<text text-anchor="start" x="32.5" y="-222.5" font-family="Helvetica,sans-Serif" font-size="10.00">virtual State ProcessPhysics</text>
<text text-anchor="start" x="32.5" y="-210.5" font-family="Helvetica,sans-Serif" font-size="10.00">(double delta)</text>
<text text-anchor="start" x="22.5" y="-194.5" font-family="Helvetica,sans-Serif" font-size="10.00">+</text>
<text text-anchor="start" x="32.5" y="-194.5" font-family="Helvetica,sans-Serif" font-size="10.00">virtual void UpdateAnimations()</text>
<polygon fill="#666666" stroke="#666666" points="18.5,-354 18.5,-354 172.5,-354 172.5,-354 18.5,-354"/>
<polygon fill="#666666" stroke="#666666" points="18.5,-338 18.5,-338 172.5,-338 172.5,-338 18.5,-338"/>
<polygon fill="none" stroke="#666666" points="18.5,-188 18.5,-372 172.5,-372 172.5,-188 18.5,-188"/>
</a>
</g>
</g>
<!-- Node2&#45;&gt;Node1 -->
<g id="edge1_Node000001_Node000002" class="edge">
<title>Node2&#45;&gt;Node1</title>
<g id="a_edge1_Node000001_Node000002"><a xlink:title=" ">
<path fill="none" stroke="#63b8ff" d="M120.96,-177.32C124.94,-166.52 129.44,-155.88 134.5,-146 137.67,-139.82 141.33,-133.64 145.27,-127.6"/>
<polygon fill="none" stroke="#63b8ff" points="117.67,-176.13 117.65,-186.72 124.27,-178.45 117.67,-176.13"/>
</a>
</g>
</g>
<!-- Node2&#45;&gt;Node1 -->
<g id="edge6_Node000001_Node000002" class="edge">
<title>Node2&#45;&gt;Node1</title>
<g id="a_edge6_Node000001_Node000002"><a xlink:title=" ">
<path fill="none" stroke="#63b8ff" d="M138.76,-188.24C146.58,-171.84 154.65,-154.91 162.21,-139.05"/>
<polygon fill="none" stroke="#63b8ff" points="162.06,-139.36 161.03,-132.22 167.22,-128.52 168.25,-135.66 162.06,-139.36"/>
</a>
</g>
<text text-anchor="middle" x="183.76" y="-160.5" font-family="Helvetica,sans-Serif" font-size="10.00" fill="grey"> +Attacking</text>
<text text-anchor="middle" x="183.76" y="-148.5" font-family="Helvetica,sans-Serif" font-size="10.00" fill="grey">+Idle</text>
</g>
<!-- Node3 -->
<g id="Node000003" class="node">
<title>Node3</title>
<g id="a_Node000003"><a xlink:href="../../dc/d8f/class_node.html" target="_top" xlink:title=" ">
<polygon fill="white" stroke="none" points="33,-472 0,-472 0,-420 33,-420 33,-472"/>
<text text-anchor="start" x="4.88" y="-458.5" font-family="Helvetica,sans-Serif" font-size="10.00">Node</text>
<text text-anchor="start" x="15" y="-442.5" font-family="Helvetica,sans-Serif" font-size="10.00"> </text>
<text text-anchor="start" x="15" y="-426.5" font-family="Helvetica,sans-Serif" font-size="10.00"> </text>
<polygon fill="#666666" stroke="#666666" points="0,-454 0,-454 33,-454 33,-454 0,-454"/>
<polygon fill="#666666" stroke="#666666" points="0,-438 0,-438 33,-438 33,-438 0,-438"/>
<polygon fill="none" stroke="#666666" points="0,-420 0,-472 33,-472 33,-420 0,-420"/>
</a>
</g>
</g>
<!-- Node3&#45;&gt;Node2 -->
<g id="edge2_Node000002_Node000003" class="edge">
<title>Node3&#45;&gt;Node2</title>
<g id="a_edge2_Node000002_Node000003"><a xlink:title=" ">
<path fill="none" stroke="#63b8ff" d="M33.45,-409.81C38.92,-398.46 45.25,-385.31 51.74,-371.84"/>
<polygon fill="none" stroke="#63b8ff" points="30.34,-408.2 29.16,-418.73 36.65,-411.24 30.34,-408.2"/>
</a>
</g>
</g>
<!-- Node4 -->
<g id="Node000004" class="node">
<title>Node4</title>
<g id="a_Node000004"><a xlink:title=" ">
<polygon fill="white" stroke="none" points="139.5,-472 51.5,-472 51.5,-420 139.5,-420 139.5,-472"/>
<text text-anchor="start" x="56.5" y="-458.5" font-family="Helvetica,sans-Serif" font-size="10.00">CharacterBody2D</text>
<text text-anchor="start" x="94" y="-442.5" font-family="Helvetica,sans-Serif" font-size="10.00"> </text>
<text text-anchor="start" x="94" y="-426.5" font-family="Helvetica,sans-Serif" font-size="10.00"> </text>
<polygon fill="#666666" stroke="#666666" points="51.5,-454 51.5,-454 139.5,-454 139.5,-454 51.5,-454"/>
<polygon fill="#666666" stroke="#666666" points="51.5,-438 51.5,-438 139.5,-438 139.5,-438 51.5,-438"/>
<polygon fill="none" stroke="#666666" points="51.5,-420 51.5,-472 139.5,-472 139.5,-420 51.5,-420"/>
</a>
</g>
</g>
<!-- Node4&#45;&gt;Node2 -->
<g id="edge3_Node000002_Node000004" class="edge">
<title>Node4&#45;&gt;Node2</title>
<g id="a_edge3_Node000002_Node000004"><a xlink:title=" ">
<path fill="none" stroke="#63b8ff" d="M95.5,-420.09C95.5,-410.04 95.5,-397.72 95.5,-384.61"/>
<polygon fill="none" stroke="#63b8ff" points="95.5,-384.74 91.5,-378.74 95.5,-372.74 99.5,-378.74 95.5,-384.74"/>
</a>
</g>
<text text-anchor="middle" x="114.25" y="-392.5" font-family="Helvetica,sans-Serif" font-size="10.00" fill="grey"> +Parent</text>
</g>
<!-- Node5 -->
<g id="Node000005" class="node">
<title>Node5</title>
<g id="a_Node000005"><a xlink:title=" ">
<polygon fill="white" stroke="none" points="239,-472 158,-472 158,-420 239,-420 239,-472"/>
<text text-anchor="start" x="162.88" y="-458.5" font-family="Helvetica,sans-Serif" font-size="10.00">AnimationPlayer</text>
<text text-anchor="start" x="197" y="-442.5" font-family="Helvetica,sans-Serif" font-size="10.00"> </text>
<text text-anchor="start" x="197" y="-426.5" font-family="Helvetica,sans-Serif" font-size="10.00"> </text>
<polygon fill="#666666" stroke="#666666" points="158,-454 158,-454 239,-454 239,-454 158,-454"/>
<polygon fill="#666666" stroke="#666666" points="158,-438 158,-438 239,-438 239,-438 158,-438"/>
<polygon fill="none" stroke="#666666" points="158,-420 158,-472 239,-472 239,-420 158,-420"/>
</a>
</g>
</g>
<!-- Node5&#45;&gt;Node2 -->
<g id="edge4_Node000002_Node000005" class="edge">
<title>Node5&#45;&gt;Node2</title>
<g id="a_edge4_Node000002_Node000005"><a xlink:title=" ">
<path fill="none" stroke="#63b8ff" d="M182.86,-420.09C176.22,-409.52 168,-396.44 159.29,-382.57"/>
<polygon fill="none" stroke="#63b8ff" points="159.41,-382.76 152.83,-379.81 153.03,-372.6 159.61,-375.55 159.41,-382.76"/>
</a>
</g>
<text text-anchor="middle" x="199.75" y="-392.5" font-family="Helvetica,sans-Serif" font-size="10.00" fill="grey"> +Animations</text>
</g>
<!-- Node6 -->
<g id="Node000006" class="node">
<title>Node6</title>
<g id="a_Node000006"><a xlink:title=" ">
<polygon fill="white" stroke="none" points="296.5,-306 190.5,-306 190.5,-254 296.5,-254 296.5,-306"/>
<text text-anchor="start" x="195.12" y="-292.5" font-family="Helvetica,sans-Serif" font-size="10.00">AudioStreamPlayer2D</text>
<text text-anchor="start" x="242" y="-276.5" font-family="Helvetica,sans-Serif" font-size="10.00"> </text>
<text text-anchor="start" x="242" y="-260.5" font-family="Helvetica,sans-Serif" font-size="10.00"> </text>
<polygon fill="#666666" stroke="#666666" points="190.5,-288 190.5,-288 296.5,-288 296.5,-288 190.5,-288"/>
<polygon fill="#666666" stroke="#666666" points="190.5,-272 190.5,-272 296.5,-272 296.5,-272 190.5,-272"/>
<polygon fill="none" stroke="#666666" points="190.5,-254 190.5,-306 296.5,-306 296.5,-254 190.5,-254"/>
</a>
</g>
</g>
<!-- Node6&#45;&gt;Node1 -->
<g id="edge5_Node000001_Node000006" class="edge">
<title>Node6&#45;&gt;Node1</title>
<g id="a_edge5_Node000001_Node000006"><a xlink:title=" ">
<path fill="none" stroke="#63b8ff" d="M238.13,-254.03C232.17,-226.28 222.24,-180.11 213.7,-140.35"/>
<polygon fill="none" stroke="#63b8ff" points="213.69,-140.31 208.52,-135.29 211.17,-128.58 216.34,-133.61 213.69,-140.31"/>
</a>
</g>
<text text-anchor="middle" x="254.75" y="-154.5" font-family="Helvetica,sans-Serif" font-size="10.00" fill="grey"> +WalkingSound</text>
</g>
<!-- Node7 -->
<g id="Node000007" class="node">
<title>Node7</title>
<g id="a_Node000007"><a xlink:title=" ">
<polygon fill="white" stroke="none" points="346.5,-306 318.5,-306 318.5,-254 346.5,-254 346.5,-306"/>
<text text-anchor="start" x="323.12" y="-292.5" font-family="Helvetica,sans-Serif" font-size="10.00">float</text>
<text text-anchor="start" x="331" y="-276.5" font-family="Helvetica,sans-Serif" font-size="10.00"> </text>
<text text-anchor="start" x="331" y="-260.5" font-family="Helvetica,sans-Serif" font-size="10.00"> </text>
<polygon fill="#666666" stroke="#666666" points="318.5,-288 318.5,-288 346.5,-288 346.5,-288 318.5,-288"/>
<polygon fill="#666666" stroke="#666666" points="318.5,-272 318.5,-272 346.5,-272 346.5,-272 318.5,-272"/>
<polygon fill="none" stroke="#666666" points="318.5,-254 318.5,-306 346.5,-306 346.5,-254 318.5,-254"/>
</a>
</g>
</g>
<!-- Node7&#45;&gt;Node1 -->
<g id="edge7_Node000001_Node000007" class="edge">
<title>Node7&#45;&gt;Node1</title>
<g id="a_edge7_Node000001_Node000007"><a xlink:title=" ">
<path fill="none" stroke="#63b8ff" d="M329.84,-254.14C325.87,-225.97 316.37,-179.62 294.5,-146 292.09,-142.3 289.47,-138.68 286.67,-135.16"/>
<polygon fill="none" stroke="#63b8ff" points="286.77,-135.27 279.83,-133.32 278.96,-126.16 285.9,-128.11 286.77,-135.27"/>
</a>
</g>
<text text-anchor="middle" x="328.69" y="-154.5" font-family="Helvetica,sans-Serif" font-size="10.00" fill="grey"> +SPEED</text>
</g>
</g>
</svg>
