<?xml version="1.0" encoding="UTF-8" standalone="no"?>
<!DOCTYPE svg PUBLIC "-//W3C//DTD SVG 1.1//EN"
 "http://www.w3.org/Graphics/SVG/1.1/DTD/svg11.dtd">
<!-- Generated by graphviz version 12.1.0 (20240811.2233)
 -->
<!-- Title: SpellInventory Pages: 1 -->
<svg width="150pt" height="160pt"
 viewBox="0.00 0.00 150.00 160.00" xmlns="http://www.w3.org/2000/svg" xmlns:xlink="http://www.w3.org/1999/xlink">
<g id="graph0" class="graph" transform="scale(1 1) rotate(0) translate(4 156)">
<title>SpellInventory</title>
<!-- Node1 -->
<g id="Node000001" class="node">
<title>Node1</title>
<g id="a_Node000001"><a xlink:title=" ">
<polygon fill="#999999" stroke="none" points="142,-64 0,-64 0,0 142,0 142,-64"/>
<text text-anchor="start" x="39.88" y="-50.5" font-family="Helvetica,sans-Serif" font-size="10.00">SpellInventory</text>
<text text-anchor="start" x="69.5" y="-34.5" font-family="Helvetica,sans-Serif" font-size="10.00"> </text>
<text text-anchor="start" x="4" y="-18.5" font-family="Helvetica,sans-Serif" font-size="10.00">+</text>
<text text-anchor="start" x="14" y="-18.5" font-family="Helvetica,sans-Serif" font-size="10.00">void SetUIIcon(int</text>
<text text-anchor="start" x="14" y="-6.5" font-family="Helvetica,sans-Serif" font-size="10.00"> nrSpellSlot, Texture2D icon)</text>
<polygon fill="#666666" stroke="#666666" points="0,-46 0,-46 142,-46 142,-46 0,-46"/>
<polygon fill="#666666" stroke="#666666" points="0,-30 0,-30 142,-30 142,-30 0,-30"/>
<polygon fill="none" stroke="#666666" points="0,0 0,-64 142,-64 142,0 0,0"/>
</a>
</g>
</g>
<!-- Node2 -->
<g id="Node000002" class="node">
<title>Node2</title>
<g id="a_Node000002"><a xlink:href="../../d7/d49/class_control.html" target="_top" xlink:title=" ">
<polygon fill="white" stroke="none" points="91.5,-152 50.5,-152 50.5,-100 91.5,-100 91.5,-152"/>
<text text-anchor="start" x="55.25" y="-138.5" font-family="Helvetica,sans-Serif" font-size="10.00">Control</text>
<text text-anchor="start" x="69.5" y="-122.5" font-family="Helvetica,sans-Serif" font-size="10.00"> </text>
<text text-anchor="start" x="69.5" y="-106.5" font-family="Helvetica,sans-Serif" font-size="10.00"> </text>
<polygon fill="#666666" stroke="#666666" points="50.5,-134 50.5,-134 91.5,-134 91.5,-134 50.5,-134"/>
<polygon fill="#666666" stroke="#666666" points="50.5,-118 50.5,-118 91.5,-118 91.5,-118 50.5,-118"/>
<polygon fill="none" stroke="#666666" points="50.5,-100 50.5,-152 91.5,-152 91.5,-100 50.5,-100"/>
</a>
</g>
</g>
<!-- Node2&#45;&gt;Node1 -->
<g id="edge1_Node000001_Node000002" class="edge">
<title>Node2&#45;&gt;Node1</title>
<g id="a_edge1_Node000001_Node000002"><a xlink:title=" ">
<path fill="none" stroke="#63b8ff" d="M71,-89.06C71,-80.78 71,-72.04 71,-63.98"/>
<polygon fill="none" stroke="#63b8ff" points="67.5,-88.83 71,-98.83 74.5,-88.83 67.5,-88.83"/>
</a>
</g>
</g>
</g>
</svg>
