<?xml version="1.0" encoding="UTF-8" standalone="no"?>
<!DOCTYPE svg PUBLIC "-//W3C//DTD SVG 1.1//EN"
 "http://www.w3.org/Graphics/SVG/1.1/DTD/svg11.dtd">
<!-- Generated by graphviz version 12.1.0 (20240811.2233)
 -->
<!-- Title: SpellInventory Pages: 1 -->
<svg width="80pt" height="148pt"
 viewBox="0.00 0.00 80.00 148.00" xmlns="http://www.w3.org/2000/svg" xmlns:xlink="http://www.w3.org/1999/xlink">
<g id="graph0" class="graph" transform="scale(1 1) rotate(0) translate(4 144)">
<title>SpellInventory</title>
<!-- Node1 -->
<g id="Node000001" class="node">
<title>Node1</title>
<g id="a_Node000001"><a xlink:title=" ">
<polygon fill="#999999" stroke="none" points="72,-52 0,-52 0,0 72,0 72,-52"/>
<text text-anchor="start" x="4.88" y="-38.5" font-family="Helvetica,sans-Serif" font-size="10.00">SpellInventory</text>
<text text-anchor="start" x="34.5" y="-22.5" font-family="Helvetica,sans-Serif" font-size="10.00"> </text>
<text text-anchor="start" x="34.5" y="-6.5" font-family="Helvetica,sans-Serif" font-size="10.00"> </text>
<polygon fill="#666666" stroke="#666666" points="0,-34 0,-34 72,-34 72,-34 0,-34"/>
<polygon fill="#666666" stroke="#666666" points="0,-18 0,-18 72,-18 72,-18 0,-18"/>
<polygon fill="none" stroke="#666666" points="0,0 0,-52 72,-52 72,0 0,0"/>
</a>
</g>
</g>
<!-- Node2 -->
<g id="Node000002" class="node">
<title>Node2</title>
<g id="a_Node000002"><a xlink:href="../../d7/d49/class_control.html" target="_top" xlink:title=" ">
<polygon fill="white" stroke="none" points="56.5,-140 15.5,-140 15.5,-88 56.5,-88 56.5,-140"/>
<text text-anchor="start" x="20.25" y="-126.5" font-family="Helvetica,sans-Serif" font-size="10.00">Control</text>
<text text-anchor="start" x="34.5" y="-110.5" font-family="Helvetica,sans-Serif" font-size="10.00"> </text>
<text text-anchor="start" x="34.5" y="-94.5" font-family="Helvetica,sans-Serif" font-size="10.00"> </text>
<polygon fill="#666666" stroke="#666666" points="15.5,-122 15.5,-122 56.5,-122 56.5,-122 15.5,-122"/>
<polygon fill="#666666" stroke="#666666" points="15.5,-106 15.5,-106 56.5,-106 56.5,-106 15.5,-106"/>
<polygon fill="none" stroke="#666666" points="15.5,-88 15.5,-140 56.5,-140 56.5,-88 15.5,-88"/>
</a>
</g>
</g>
<!-- Node2&#45;&gt;Node1 -->
<g id="edge1_Node000001_Node000002" class="edge">
<title>Node2&#45;&gt;Node1</title>
<g id="a_edge1_Node000001_Node000002"><a xlink:title=" ">
<path fill="none" stroke="#63b8ff" d="M36,-76.66C36,-68.29 36,-59.57 36,-51.82"/>
<polygon fill="none" stroke="#63b8ff" points="32.5,-76.61 36,-86.61 39.5,-76.61 32.5,-76.61"/>
</a>
</g>
</g>
</g>
</svg>
