<?xml version="1.0" encoding="UTF-8" standalone="no"?>
<!DOCTYPE svg PUBLIC "-//W3C//DTD SVG 1.1//EN"
 "http://www.w3.org/Graphics/SVG/1.1/DTD/svg11.dtd">
<!-- Generated by graphviz version 12.1.0 (20240811.2233)
 -->
<!-- Title: Dungeon Pages: 1 -->
<svg width="170pt" height="244pt"
 viewBox="0.00 0.00 170.00 244.00" xmlns="http://www.w3.org/2000/svg" xmlns:xlink="http://www.w3.org/1999/xlink">
<g id="graph0" class="graph" transform="scale(1 1) rotate(0) translate(4 240)">
<title>Dungeon</title>
<!-- Node1 -->
<g id="Node000001" class="node">
<title>Node1</title>
<g id="a_Node000001"><a xlink:title=" ">
<polygon fill="#999999" stroke="none" points="162,-236 0,-236 0,0 162,0 162,-236"/>
<text text-anchor="start" x="61.5" y="-222.5" font-family="Helvetica,sans-Serif" font-size="10.00">Dungeon</text>
<text text-anchor="start" x="4" y="-206.5" font-family="Helvetica,sans-Serif" font-size="10.00">+</text>
<text text-anchor="start" x="14" y="-206.5" font-family="Helvetica,sans-Serif" font-size="10.00">Dictionary&lt; Vector2I,</text>
<text text-anchor="start" x="14" y="-194.5" font-family="Helvetica,sans-Serif" font-size="10.00"> Room &gt; Layout</text>
<text text-anchor="start" x="4" y="-178.5" font-family="Helvetica,sans-Serif" font-size="10.00">+</text>
<text text-anchor="start" x="14" y="-178.5" font-family="Helvetica,sans-Serif" font-size="10.00">Vector2I CurrentRoomPosition</text>
<text text-anchor="start" x="4" y="-162.5" font-family="Helvetica,sans-Serif" font-size="10.00">+</text>
<text text-anchor="start" x="14" y="-162.5" font-family="Helvetica,sans-Serif" font-size="10.00">Vector2I EntrancePosition</text>
<text text-anchor="start" x="4" y="-146.5" font-family="Helvetica,sans-Serif" font-size="10.00">+</text>
<text text-anchor="start" x="14" y="-146.5" font-family="Helvetica,sans-Serif" font-size="10.00">Vector2I BossPosition</text>
<text text-anchor="start" x="4" y="-130.5" font-family="Helvetica,sans-Serif" font-size="10.00">+</text>
<text text-anchor="start" x="14" y="-130.5" font-family="Helvetica,sans-Serif" font-size="10.00">Vector2I GridSize</text>
<text text-anchor="start" x="4" y="-114.5" font-family="Helvetica,sans-Serif" font-size="10.00">+</text>
<text text-anchor="start" x="14" y="-114.5" font-family="Helvetica,sans-Serif" font-size="10.00">MagicType MagicType</text>
<text text-anchor="start" x="4" y="-98.5" font-family="Helvetica,sans-Serif" font-size="10.00">+</text>
<text text-anchor="start" x="14" y="-98.5" font-family="Helvetica,sans-Serif" font-size="10.00">Dungeon(int minRooms,</text>
<text text-anchor="start" x="14" y="-86.5" font-family="Helvetica,sans-Serif" font-size="10.00"> int maxRooms)</text>
<text text-anchor="start" x="4" y="-70.5" font-family="Helvetica,sans-Serif" font-size="10.00">+</text>
<text text-anchor="start" x="14" y="-70.5" font-family="Helvetica,sans-Serif" font-size="10.00">Dungeon(Dictionary</text>
<text text-anchor="start" x="14" y="-58.5" font-family="Helvetica,sans-Serif" font-size="10.00">&lt; Vector2I, Room &gt; layout,</text>
<text text-anchor="start" x="14" y="-46.5" font-family="Helvetica,sans-Serif" font-size="10.00"> Vector2I entrancePosition,</text>
<text text-anchor="start" x="14" y="-34.5" font-family="Helvetica,sans-Serif" font-size="10.00"> Vector2I bossPosition, Vector2I</text>
<text text-anchor="start" x="14" y="-22.5" font-family="Helvetica,sans-Serif" font-size="10.00"> gridSize, MagicType magicType)</text>
<text text-anchor="start" x="4" y="-6.5" font-family="Helvetica,sans-Serif" font-size="10.00">+</text>
<text text-anchor="start" x="14" y="-6.5" font-family="Helvetica,sans-Serif" font-size="10.00">Dungeon(Dungeon dungeon)</text>
<polygon fill="#666666" stroke="#666666" points="0,-218 0,-218 162,-218 162,-218 0,-218"/>
<polygon fill="#666666" stroke="#666666" points="0,-110 0,-110 12,-110 12,-110 0,-110"/>
<polygon fill="#666666" stroke="#666666" points="12,-110 12,-110 162,-110 162,-110 12,-110"/>
<polygon fill="none" stroke="#666666" points="0,0 0,-236 162,-236 162,0 0,0"/>
</a>
</g>
</g>
</g>
</svg>
