<?xml version="1.0" encoding="UTF-8" standalone="no"?>
<!DOCTYPE svg PUBLIC "-//W3C//DTD SVG 1.1//EN"
 "http://www.w3.org/Graphics/SVG/1.1/DTD/svg11.dtd">
<!-- Generated by graphviz version 12.1.0 (20240811.2233)
 -->
<!-- Title: BossRoom Pages: 1 -->
<svg width="125pt" height="148pt"
 viewBox="0.00 0.00 125.00 148.00" xmlns="http://www.w3.org/2000/svg" xmlns:xlink="http://www.w3.org/1999/xlink">
<g id="graph0" class="graph" transform="scale(1 1) rotate(0) translate(4 144)">
<title>BossRoom</title>
<!-- Node1 -->
<g id="Node000001" class="node">
<title>Node1</title>
<g id="a_Node000001"><a xlink:title=" ">
<polygon fill="#999999" stroke="none" points="117,-52 0,-52 0,0 117,0 117,-52"/>
<text text-anchor="start" x="34.12" y="-38.5" font-family="Helvetica,sans-Serif" font-size="10.00">BossRoom</text>
<text text-anchor="start" x="57" y="-22.5" font-family="Helvetica,sans-Serif" font-size="10.00"> </text>
<text text-anchor="start" x="4" y="-6.5" font-family="Helvetica,sans-Serif" font-size="10.00">+</text>
<text text-anchor="start" x="14" y="-6.5" font-family="Helvetica,sans-Serif" font-size="10.00">void OnUnicornDeath()</text>
<polygon fill="#666666" stroke="#666666" points="0,-34 0,-34 117,-34 117,-34 0,-34"/>
<polygon fill="#666666" stroke="#666666" points="0,-18 0,-18 117,-18 117,-18 0,-18"/>
<polygon fill="none" stroke="#666666" points="0,0 0,-52 117,-52 117,0 0,0"/>
</a>
</g>
</g>
<!-- Node2 -->
<g id="Node000002" class="node">
<title>Node2</title>
<g id="a_Node000002"><a xlink:title=" ">
<polygon fill="white" stroke="none" points="81.5,-140 35.5,-140 35.5,-88 81.5,-88 81.5,-140"/>
<text text-anchor="start" x="40.5" y="-126.5" font-family="Helvetica,sans-Serif" font-size="10.00">Node2D</text>
<text text-anchor="start" x="57" y="-110.5" font-family="Helvetica,sans-Serif" font-size="10.00"> </text>
<text text-anchor="start" x="57" y="-94.5" font-family="Helvetica,sans-Serif" font-size="10.00"> </text>
<polygon fill="#666666" stroke="#666666" points="35.5,-122 35.5,-122 81.5,-122 81.5,-122 35.5,-122"/>
<polygon fill="#666666" stroke="#666666" points="35.5,-106 35.5,-106 81.5,-106 81.5,-106 35.5,-106"/>
<polygon fill="none" stroke="#666666" points="35.5,-88 35.5,-140 81.5,-140 81.5,-88 35.5,-88"/>
</a>
</g>
</g>
<!-- Node2&#45;&gt;Node1 -->
<g id="edge1_Node000001_Node000002" class="edge">
<title>Node2&#45;&gt;Node1</title>
<g id="a_edge1_Node000001_Node000002"><a xlink:title=" ">
<path fill="none" stroke="#63b8ff" d="M58.5,-76.66C58.5,-68.29 58.5,-59.57 58.5,-51.82"/>
<polygon fill="none" stroke="#63b8ff" points="55,-76.61 58.5,-86.61 62,-76.61 55,-76.61"/>
</a>
</g>
</g>
</g>
</svg>
