<?xml version="1.0" encoding="UTF-8" standalone="no"?>
<!DOCTYPE svg PUBLIC "-//W3C//DTD SVG 1.1//EN"
 "http://www.w3.org/Graphics/SVG/1.1/DTD/svg11.dtd">
<!-- Generated by graphviz version 12.1.0 (20240811.2233)
 -->
<!-- Title: Healthbar Pages: 1 -->
<svg width="125pt" height="248pt"
 viewBox="0.00 0.00 125.00 248.00" xmlns="http://www.w3.org/2000/svg" xmlns:xlink="http://www.w3.org/1999/xlink">
<g id="graph0" class="graph" transform="scale(1 1) rotate(0) translate(4 244)">
<title>Healthbar</title>
<!-- Node1 -->
<g id="Node000001" class="node">
<title>Node1</title>
<g id="a_Node000001"><a xlink:title=" ">
<polygon fill="#999999" stroke="none" points="117,-152 0,-152 0,0 117,0 117,-152"/>
<text text-anchor="start" x="37.5" y="-138.5" font-family="Helvetica,sans-Serif" font-size="10.00">Healthbar</text>
<text text-anchor="start" x="57" y="-122.5" font-family="Helvetica,sans-Serif" font-size="10.00"> </text>
<text text-anchor="start" x="4" y="-106.5" font-family="Helvetica,sans-Serif" font-size="10.00">+</text>
<text text-anchor="start" x="14" y="-106.5" font-family="Helvetica,sans-Serif" font-size="10.00">override void _Ready()</text>
<text text-anchor="start" x="4" y="-90.5" font-family="Helvetica,sans-Serif" font-size="10.00">+</text>
<text text-anchor="start" x="14" y="-90.5" font-family="Helvetica,sans-Serif" font-size="10.00">override void _Process</text>
<text text-anchor="start" x="14" y="-78.5" font-family="Helvetica,sans-Serif" font-size="10.00">(double delta)</text>
<text text-anchor="start" x="4" y="-62.5" font-family="Helvetica,sans-Serif" font-size="10.00">+</text>
<text text-anchor="start" x="14" y="-62.5" font-family="Helvetica,sans-Serif" font-size="10.00">void InitHealthbar</text>
<text text-anchor="start" x="14" y="-50.5" font-family="Helvetica,sans-Serif" font-size="10.00">(double health)</text>
<text text-anchor="start" x="4" y="-34.5" font-family="Helvetica,sans-Serif" font-size="10.00">+</text>
<text text-anchor="start" x="14" y="-34.5" font-family="Helvetica,sans-Serif" font-size="10.00">void SetHealthPoints</text>
<text text-anchor="start" x="14" y="-22.5" font-family="Helvetica,sans-Serif" font-size="10.00">(double newHealth)</text>
<text text-anchor="start" x="4" y="-6.5" font-family="Helvetica,sans-Serif" font-size="10.00">+</text>
<text text-anchor="start" x="14" y="-6.5" font-family="Helvetica,sans-Serif" font-size="10.00">void OnTimerTimeout()</text>
<polygon fill="#666666" stroke="#666666" points="0,-134 0,-134 117,-134 117,-134 0,-134"/>
<polygon fill="#666666" stroke="#666666" points="0,-118 0,-118 117,-118 117,-118 0,-118"/>
<polygon fill="none" stroke="#666666" points="0,0 0,-152 117,-152 117,0 0,0"/>
</a>
</g>
</g>
<!-- Node2 -->
<g id="Node000002" class="node">
<title>Node2</title>
<g id="a_Node000002"><a xlink:title=" ">
<polygon fill="white" stroke="none" points="106.5,-240 10.5,-240 10.5,-188 106.5,-188 106.5,-240"/>
<text text-anchor="start" x="15.38" y="-226.5" font-family="Helvetica,sans-Serif" font-size="10.00">TextureProgressBar</text>
<text text-anchor="start" x="57" y="-210.5" font-family="Helvetica,sans-Serif" font-size="10.00"> </text>
<text text-anchor="start" x="57" y="-194.5" font-family="Helvetica,sans-Serif" font-size="10.00"> </text>
<polygon fill="#666666" stroke="#666666" points="10.5,-222 10.5,-222 106.5,-222 106.5,-222 10.5,-222"/>
<polygon fill="#666666" stroke="#666666" points="10.5,-206 10.5,-206 106.5,-206 106.5,-206 10.5,-206"/>
<polygon fill="none" stroke="#666666" points="10.5,-188 10.5,-240 106.5,-240 106.5,-188 10.5,-188"/>
</a>
</g>
</g>
<!-- Node2&#45;&gt;Node1 -->
<g id="edge1_Node000001_Node000002" class="edge">
<title>Node2&#45;&gt;Node1</title>
<g id="a_edge1_Node000001_Node000002"><a xlink:title=" ">
<path fill="none" stroke="#63b8ff" d="M58.5,-176.57C58.5,-168.84 58.5,-160.41 58.5,-151.84"/>
<polygon fill="none" stroke="#63b8ff" points="55,-176.54 58.5,-186.54 62,-176.54 55,-176.54"/>
</a>
</g>
</g>
</g>
</svg>
