<?xml version="1.0" encoding="UTF-8" standalone="no"?>
<!DOCTYPE svg PUBLIC "-//W3C//DTD SVG 1.1//EN"
 "http://www.w3.org/Graphics/SVG/1.1/DTD/svg11.dtd">
<!-- Generated by graphviz version 12.1.0 (20240811.2233)
 -->
<!-- Title: AugmentEffect Pages: 1 -->
<!--zoomable 516 -->

<svg id="main" version="1.1" xmlns="http://www.w3.org/2000/svg" xmlns:xlink="http://www.w3.org/1999/xlink" xml:space="preserve" onload="init(evt)">
<style type="text/css"><![CDATA[
.node, .edge {opacity: 0.7;}
.node.selected, .edge.selected {opacity: 1;}
.edge:hover path { stroke: red; }
.edge:hover polygon { stroke: red; fill: red; }
]]></style>

<defs>
  <circle id="rim" cx="0" cy="0" r="7"/>
  <circle id="rim2" cx="0" cy="0" r="3.5"/>
  <g id="zoomPlus">
    <use xlink:href="#rim" fill="#404040"><set attributeName="fill" to="#808080" begin="zoomplus.mouseover" end="zoomplus.mouseout"/></use>
    <path d="M-4,0h8M0,-4v8" fill="none" stroke="white" stroke-width="1.5" pointer-events="none"/>
  </g>
  <g id="zoomMin">
    <use xlink:href="#rim" fill="#404040"><set attributeName="fill" to="#808080" begin="zoomminus.mouseover" end="zoomminus.mouseout"/></use>
    <path d="M-4,0h8" fill="none" stroke="white" stroke-width="1.5" pointer-events="none"/>
  </g>
  <g id="arrowUp" transform="translate(30 24)">
    <use xlink:href="#rim"/>
    <path pointer-events="none" fill="none" stroke="white" stroke-width="1.5" d="M0,-3.0v7 M-2.5,-0.5L0,-3.0L2.5,-0.5"/>
  </g>
  <g id="arrowRight" transform="rotate(90) translate(36 -43)">
    <use xlink:href="#rim"/>
    <path pointer-events="none" fill="none" stroke="white" stroke-width="1.5" d="M0,-3.0v7 M-2.5,-0.5L0,-3.0L2.5,-0.5"/>
  </g>
  <g id="arrowDown" transform="rotate(180) translate(-30 -48)">
    <use xlink:href="#rim"/>
    <path pointer-events="none" fill="none" stroke="white" stroke-width="1.5" d="M0,-3.0v7 M-2.5,-0.5L0,-3.0L2.5,-0.5"/>
  </g>
  <g id="arrowLeft" transform="rotate(270) translate(-36 17)">
    <use xlink:href="#rim"/>
    <path pointer-events="none" fill="none" stroke="white" stroke-width="1.5" d="M0,-3.0v7 M-2.5,-0.5L0,-3.0L2.5,-0.5"/>
  </g>
  <g id="resetDef">
    <use xlink:href="#rim2" fill="#404040"><set attributeName="fill" to="#808080" begin="reset.mouseover" end="reset.mouseout"/></use>
  </g>
</defs>
<script type="application/ecmascript">
var viewWidth = 1534;
var viewHeight = 516;
var sectionId = 'dynsection-0';
</script>
<script type="application/ecmascript" xlink:href="../../svg.min.js"/>
<svg id="graph" class="graph">
<g id="viewport">
<title>AugmentEffect</title>
<!-- Node1 -->
<g id="Node000001" class="node">
<title>Node1</title>
<g id="a_Node000001"><a xlink:title=" ">
<polygon fill="#999999" stroke="none" points="835.5,-420 706.5,-420 706.5,-312 835.5,-312 835.5,-420"/>
<text text-anchor="start" x="738.75" y="-406.5" font-family="Helvetica,sans-Serif" font-size="10.00">AugmentEffect</text>
<text text-anchor="start" x="769.5" y="-390.5" font-family="Helvetica,sans-Serif" font-size="10.00"> </text>
<text text-anchor="start" x="710.5" y="-374.5" font-family="Helvetica,sans-Serif" font-size="10.00">+</text>
<text text-anchor="start" x="720.5" y="-374.5" font-family="Helvetica,sans-Serif" font-size="10.00">virtual void Equip</text>
<text text-anchor="start" x="720.5" y="-362.5" font-family="Helvetica,sans-Serif" font-size="10.00">(SceneTree sceneTree)</text>
<text text-anchor="start" x="710.5" y="-346.5" font-family="Helvetica,sans-Serif" font-size="10.00">+</text>
<text text-anchor="start" x="720.5" y="-346.5" font-family="Helvetica,sans-Serif" font-size="10.00">virtual void UnEquip</text>
<text text-anchor="start" x="720.5" y="-334.5" font-family="Helvetica,sans-Serif" font-size="10.00">(SceneTree sceneTree)</text>
<text text-anchor="start" x="710.5" y="-318.5" font-family="Helvetica,sans-Serif" font-size="10.00">+</text>
<text text-anchor="start" x="720.5" y="-318.5" font-family="Helvetica,sans-Serif" font-size="10.00">virtual string Description()</text>
<polygon fill="#666666" stroke="#666666" points="706.5,-402 706.5,-402 835.5,-402 835.5,-402 706.5,-402"/>
<polygon fill="#666666" stroke="#666666" points="706.5,-386 706.5,-386 835.5,-386 835.5,-386 706.5,-386"/>
<polygon fill="none" stroke="#666666" points="706.5,-312 706.5,-420 835.5,-420 835.5,-312 706.5,-312"/>
</a>
</g>
</g>
<!-- Node3 -->
<g id="Node000003" class="node">
<title>Node3</title>
<g id="a_Node000003"><a xlink:href="../../d3/df6/class_additional_stars.html" target="_top" xlink:title=" ">
<polygon fill="white" stroke="none" points="138,-276 0,-276 0,-168 138,-168 138,-276"/>
<text text-anchor="start" x="36" y="-262.5" font-family="Helvetica,sans-Serif" font-size="10.00">AdditionalStars</text>
<text text-anchor="start" x="67.5" y="-246.5" font-family="Helvetica,sans-Serif" font-size="10.00"> </text>
<text text-anchor="start" x="4" y="-230.5" font-family="Helvetica,sans-Serif" font-size="10.00">+</text>
<text text-anchor="start" x="14" y="-230.5" font-family="Helvetica,sans-Serif" font-size="10.00">override void Equip</text>
<text text-anchor="start" x="14" y="-218.5" font-family="Helvetica,sans-Serif" font-size="10.00">(SceneTree sceneTree)</text>
<text text-anchor="start" x="4" y="-202.5" font-family="Helvetica,sans-Serif" font-size="10.00">+</text>
<text text-anchor="start" x="14" y="-202.5" font-family="Helvetica,sans-Serif" font-size="10.00">override void UnEquip</text>
<text text-anchor="start" x="14" y="-190.5" font-family="Helvetica,sans-Serif" font-size="10.00">(SceneTree sceneTree)</text>
<text text-anchor="start" x="4" y="-174.5" font-family="Helvetica,sans-Serif" font-size="10.00">+</text>
<text text-anchor="start" x="14" y="-174.5" font-family="Helvetica,sans-Serif" font-size="10.00">override string Description()</text>
<polygon fill="#666666" stroke="#666666" points="0,-258 0,-258 138,-258 138,-258 0,-258"/>
<polygon fill="#666666" stroke="#666666" points="0,-242 0,-242 138,-242 138,-242 0,-242"/>
<polygon fill="none" stroke="#666666" points="0,-168 0,-276 138,-276 138,-168 0,-168"/>
</a>
</g>
</g>
<!-- Node1&#45;&gt;Node3 -->
<g id="edge2_Node000001_Node000003" class="edge">
<title>Node1&#45;&gt;Node3</title>
<g id="a_edge2_Node000001_Node000003"><a xlink:title=" ">
<path fill="none" stroke="#63b8ff" d="M695.37,-365.09C575.15,-362.86 334.84,-348.7 147,-276 143.95,-274.82 140.89,-273.5 137.86,-272.07"/>
<polygon fill="none" stroke="#63b8ff" points="695.06,-368.58 705.11,-365.24 695.17,-361.58 695.06,-368.58"/>
</a>
</g>
</g>
<!-- Node4 -->
<g id="Node000004" class="node">
<title>Node4</title>
<g id="a_Node000004"><a xlink:href="../../d2/d5b/class_cast_additional_spell.html" target="_top" xlink:title=" ">
<polygon fill="white" stroke="none" points="294,-276 156,-276 156,-168 294,-168 294,-276"/>
<text text-anchor="start" x="182.25" y="-262.5" font-family="Helvetica,sans-Serif" font-size="10.00">CastAdditionalSpell</text>
<text text-anchor="start" x="223.5" y="-246.5" font-family="Helvetica,sans-Serif" font-size="10.00"> </text>
<text text-anchor="start" x="160" y="-230.5" font-family="Helvetica,sans-Serif" font-size="10.00">+</text>
<text text-anchor="start" x="170" y="-230.5" font-family="Helvetica,sans-Serif" font-size="10.00">override void Equip</text>
<text text-anchor="start" x="170" y="-218.5" font-family="Helvetica,sans-Serif" font-size="10.00">(SceneTree sceneTree)</text>
<text text-anchor="start" x="160" y="-202.5" font-family="Helvetica,sans-Serif" font-size="10.00">+</text>
<text text-anchor="start" x="170" y="-202.5" font-family="Helvetica,sans-Serif" font-size="10.00">override void UnEquip</text>
<text text-anchor="start" x="170" y="-190.5" font-family="Helvetica,sans-Serif" font-size="10.00">(SceneTree sceneTree)</text>
<text text-anchor="start" x="160" y="-174.5" font-family="Helvetica,sans-Serif" font-size="10.00">+</text>
<text text-anchor="start" x="170" y="-174.5" font-family="Helvetica,sans-Serif" font-size="10.00">override string Description()</text>
<polygon fill="#666666" stroke="#666666" points="156,-258 156,-258 294,-258 294,-258 156,-258"/>
<polygon fill="#666666" stroke="#666666" points="156,-242 156,-242 294,-242 294,-242 156,-242"/>
<polygon fill="none" stroke="#666666" points="156,-168 156,-276 294,-276 294,-168 156,-168"/>
</a>
</g>
</g>
<!-- Node1&#45;&gt;Node4 -->
<g id="edge3_Node000001_Node000004" class="edge">
<title>Node1&#45;&gt;Node4</title>
<g id="a_edge3_Node000001_Node000004"><a xlink:title=" ">
<path fill="none" stroke="#63b8ff" d="M695.37,-360.11C600.54,-351.88 434.45,-330.4 303,-276 299.97,-274.75 296.95,-273.37 293.93,-271.89"/>
<polygon fill="none" stroke="#63b8ff" points="694.81,-363.58 705.07,-360.93 695.4,-356.6 694.81,-363.58"/>
</a>
</g>
</g>
<!-- Node5 -->
<g id="Node000005" class="node">
<title>Node5</title>
<g id="a_Node000005"><a xlink:href="../../d8/d35/class_extra_armor_of_all_types.html" target="_top" xlink:title=" ">
<polygon fill="white" stroke="none" points="450,-276 312,-276 312,-168 450,-168 450,-276"/>
<text text-anchor="start" x="332.25" y="-262.5" font-family="Helvetica,sans-Serif" font-size="10.00">ExtraArmorOfAllTypes</text>
<text text-anchor="start" x="379.5" y="-246.5" font-family="Helvetica,sans-Serif" font-size="10.00"> </text>
<text text-anchor="start" x="316" y="-230.5" font-family="Helvetica,sans-Serif" font-size="10.00">+</text>
<text text-anchor="start" x="326" y="-230.5" font-family="Helvetica,sans-Serif" font-size="10.00">override void Equip</text>
<text text-anchor="start" x="326" y="-218.5" font-family="Helvetica,sans-Serif" font-size="10.00">(SceneTree sceneTree)</text>
<text text-anchor="start" x="316" y="-202.5" font-family="Helvetica,sans-Serif" font-size="10.00">+</text>
<text text-anchor="start" x="326" y="-202.5" font-family="Helvetica,sans-Serif" font-size="10.00">override void UnEquip</text>
<text text-anchor="start" x="326" y="-190.5" font-family="Helvetica,sans-Serif" font-size="10.00">(SceneTree sceneTree)</text>
<text text-anchor="start" x="316" y="-174.5" font-family="Helvetica,sans-Serif" font-size="10.00">+</text>
<text text-anchor="start" x="326" y="-174.5" font-family="Helvetica,sans-Serif" font-size="10.00">override string Description()</text>
<polygon fill="#666666" stroke="#666666" points="312,-258 312,-258 450,-258 450,-258 312,-258"/>
<polygon fill="#666666" stroke="#666666" points="312,-242 312,-242 450,-242 450,-242 312,-242"/>
<polygon fill="none" stroke="#666666" points="312,-168 312,-276 450,-276 450,-168 312,-168"/>
</a>
</g>
</g>
<!-- Node1&#45;&gt;Node5 -->
<g id="edge4_Node000001_Node000005" class="edge">
<title>Node1&#45;&gt;Node5</title>
<g id="a_edge4_Node000001_Node000005"><a xlink:title=" ">
<path fill="none" stroke="#63b8ff" d="M695.8,-350.62C631.07,-336.6 536.18,-312.08 459,-276 455.89,-274.54 452.76,-272.97 449.64,-271.31"/>
<polygon fill="none" stroke="#63b8ff" points="694.73,-353.97 705.24,-352.63 696.19,-347.12 694.73,-353.97"/>
</a>
</g>
</g>
<!-- Node6 -->
<g id="Node000006" class="node">
<title>Node6</title>
<g id="a_Node000006"><a xlink:href="../../df/deb/class_extra_armor_of_type.html" target="_top" xlink:title=" ">
<polygon fill="white" stroke="none" points="606,-276 468,-276 468,-168 606,-168 606,-276"/>
<text text-anchor="start" x="496.5" y="-262.5" font-family="Helvetica,sans-Serif" font-size="10.00">ExtraArmorOfType</text>
<text text-anchor="start" x="535.5" y="-246.5" font-family="Helvetica,sans-Serif" font-size="10.00"> </text>
<text text-anchor="start" x="472" y="-230.5" font-family="Helvetica,sans-Serif" font-size="10.00">+</text>
<text text-anchor="start" x="482" y="-230.5" font-family="Helvetica,sans-Serif" font-size="10.00">override void Equip</text>
<text text-anchor="start" x="482" y="-218.5" font-family="Helvetica,sans-Serif" font-size="10.00">(SceneTree sceneTree)</text>
<text text-anchor="start" x="472" y="-202.5" font-family="Helvetica,sans-Serif" font-size="10.00">+</text>
<text text-anchor="start" x="482" y="-202.5" font-family="Helvetica,sans-Serif" font-size="10.00">override void UnEquip</text>
<text text-anchor="start" x="482" y="-190.5" font-family="Helvetica,sans-Serif" font-size="10.00">(SceneTree sceneTree)</text>
<text text-anchor="start" x="472" y="-174.5" font-family="Helvetica,sans-Serif" font-size="10.00">+</text>
<text text-anchor="start" x="482" y="-174.5" font-family="Helvetica,sans-Serif" font-size="10.00">override string Description()</text>
<polygon fill="#666666" stroke="#666666" points="468,-258 468,-258 606,-258 606,-258 468,-258"/>
<polygon fill="#666666" stroke="#666666" points="468,-242 468,-242 606,-242 606,-242 468,-242"/>
<polygon fill="none" stroke="#666666" points="468,-168 468,-276 606,-276 606,-168 468,-168"/>
</a>
</g>
</g>
<!-- Node1&#45;&gt;Node6 -->
<g id="edge5_Node000001_Node000006" class="edge">
<title>Node1&#45;&gt;Node6</title>
<g id="a_edge5_Node000001_Node000006"><a xlink:title=" ">
<path fill="none" stroke="#63b8ff" d="M696.75,-324.21C670.64,-309.45 641.28,-292.39 615,-276 611.94,-274.09 608.84,-272.12 605.71,-270.12"/>
<polygon fill="none" stroke="#63b8ff" points="694.83,-327.14 705.26,-329 698.26,-321.04 694.83,-327.14"/>
</a>
</g>
</g>
<!-- Node7 -->
<g id="Node000007" class="node">
<title>Node7</title>
<g id="a_Node000007"><a xlink:href="../../d9/d41/class_flat_damage_for_one_type.html" target="_top" xlink:title=" ">
<polygon fill="white" stroke="none" points="762,-262 624,-262 624,-182 762,-182 762,-262"/>
<text text-anchor="start" x="639.75" y="-248.5" font-family="Helvetica,sans-Serif" font-size="10.00">FlatDamageForOneType</text>
<text text-anchor="start" x="691.5" y="-232.5" font-family="Helvetica,sans-Serif" font-size="10.00"> </text>
<text text-anchor="start" x="628" y="-216.5" font-family="Helvetica,sans-Serif" font-size="10.00">+</text>
<text text-anchor="start" x="638" y="-216.5" font-family="Helvetica,sans-Serif" font-size="10.00">override void Equip</text>
<text text-anchor="start" x="638" y="-204.5" font-family="Helvetica,sans-Serif" font-size="10.00">(SceneTree sceneTree)</text>
<text text-anchor="start" x="628" y="-188.5" font-family="Helvetica,sans-Serif" font-size="10.00">+</text>
<text text-anchor="start" x="638" y="-188.5" font-family="Helvetica,sans-Serif" font-size="10.00">override string Description()</text>
<polygon fill="#666666" stroke="#666666" points="624,-244 624,-244 762,-244 762,-244 624,-244"/>
<polygon fill="#666666" stroke="#666666" points="624,-228 624,-228 762,-228 762,-228 624,-228"/>
<polygon fill="none" stroke="#666666" points="624,-182 624,-262 762,-262 762,-182 624,-182"/>
</a>
</g>
</g>
<!-- Node1&#45;&gt;Node7 -->
<g id="edge6_Node000001_Node000007" class="edge">
<title>Node1&#45;&gt;Node7</title>
<g id="a_edge6_Node000001_Node000007"><a xlink:title=" ">
<path fill="none" stroke="#63b8ff" d="M736.5,-302.2C728.93,-288.42 721.14,-274.22 714.27,-261.72"/>
<polygon fill="none" stroke="#63b8ff" points="733.34,-303.72 741.23,-310.8 739.48,-300.35 733.34,-303.72"/>
</a>
</g>
</g>
<!-- Node8 -->
<g id="Node000008" class="node">
<title>Node8</title>
<g id="a_Node000008"><a xlink:href="../../d4/d8f/class_flat_damage_for_spell_slot.html" target="_top" xlink:title=" ">
<polygon fill="white" stroke="none" points="918,-262 780,-262 780,-182 918,-182 918,-262"/>
<text text-anchor="start" x="795.75" y="-248.5" font-family="Helvetica,sans-Serif" font-size="10.00">FlatDamageForSpellSlot</text>
<text text-anchor="start" x="847.5" y="-232.5" font-family="Helvetica,sans-Serif" font-size="10.00"> </text>
<text text-anchor="start" x="784" y="-216.5" font-family="Helvetica,sans-Serif" font-size="10.00">+</text>
<text text-anchor="start" x="794" y="-216.5" font-family="Helvetica,sans-Serif" font-size="10.00">override void Equip</text>
<text text-anchor="start" x="794" y="-204.5" font-family="Helvetica,sans-Serif" font-size="10.00">(SceneTree sceneTree)</text>
<text text-anchor="start" x="784" y="-188.5" font-family="Helvetica,sans-Serif" font-size="10.00">+</text>
<text text-anchor="start" x="794" y="-188.5" font-family="Helvetica,sans-Serif" font-size="10.00">override string Description()</text>
<polygon fill="#666666" stroke="#666666" points="780,-244 780,-244 918,-244 918,-244 780,-244"/>
<polygon fill="#666666" stroke="#666666" points="780,-228 780,-228 918,-228 918,-228 780,-228"/>
<polygon fill="none" stroke="#666666" points="780,-182 780,-262 918,-262 918,-182 780,-182"/>
</a>
</g>
</g>
<!-- Node1&#45;&gt;Node8 -->
<g id="edge7_Node000001_Node000008" class="edge">
<title>Node1&#45;&gt;Node8</title>
<g id="a_edge7_Node000001_Node000008"><a xlink:title=" ">
<path fill="none" stroke="#63b8ff" d="M805.5,-302.2C813.07,-288.42 820.86,-274.22 827.73,-261.72"/>
<polygon fill="none" stroke="#63b8ff" points="802.52,-300.35 800.77,-310.8 808.66,-303.72 802.52,-300.35"/>
</a>
</g>
</g>
<!-- Node9 -->
<g id="Node000009" class="node">
<title>Node9</title>
<g id="a_Node000009"><a xlink:href="../../d1/d2e/class_h_p_increase_augment_effect.html" target="_top" xlink:title=" ">
<polygon fill="white" stroke="none" points="1074,-276 936,-276 936,-168 1074,-168 1074,-276"/>
<text text-anchor="start" x="946.88" y="-262.5" font-family="Helvetica,sans-Serif" font-size="10.00">HPIncreaseAugmentEffect</text>
<text text-anchor="start" x="1003.5" y="-246.5" font-family="Helvetica,sans-Serif" font-size="10.00"> </text>
<text text-anchor="start" x="940" y="-230.5" font-family="Helvetica,sans-Serif" font-size="10.00">+</text>
<text text-anchor="start" x="950" y="-230.5" font-family="Helvetica,sans-Serif" font-size="10.00">override void Equip</text>
<text text-anchor="start" x="950" y="-218.5" font-family="Helvetica,sans-Serif" font-size="10.00">(SceneTree sceneTree)</text>
<text text-anchor="start" x="940" y="-202.5" font-family="Helvetica,sans-Serif" font-size="10.00">+</text>
<text text-anchor="start" x="950" y="-202.5" font-family="Helvetica,sans-Serif" font-size="10.00">override void UnEquip</text>
<text text-anchor="start" x="950" y="-190.5" font-family="Helvetica,sans-Serif" font-size="10.00">(SceneTree sceneTree)</text>
<text text-anchor="start" x="940" y="-174.5" font-family="Helvetica,sans-Serif" font-size="10.00">+</text>
<text text-anchor="start" x="950" y="-174.5" font-family="Helvetica,sans-Serif" font-size="10.00">override string Description()</text>
<polygon fill="#666666" stroke="#666666" points="936,-258 936,-258 1074,-258 1074,-258 936,-258"/>
<polygon fill="#666666" stroke="#666666" points="936,-242 936,-242 1074,-242 1074,-242 936,-242"/>
<polygon fill="none" stroke="#666666" points="936,-168 936,-276 1074,-276 1074,-168 936,-168"/>
</a>
</g>
</g>
<!-- Node1&#45;&gt;Node9 -->
<g id="edge8_Node000001_Node000009" class="edge">
<title>Node1&#45;&gt;Node9</title>
<g id="a_edge8_Node000001_Node000009"><a xlink:title=" ">
<path fill="none" stroke="#63b8ff" d="M845.25,-324.21C871.36,-309.45 900.72,-292.39 927,-276 930.06,-274.09 933.16,-272.12 936.29,-270.12"/>
<polygon fill="none" stroke="#63b8ff" points="843.74,-321.04 836.74,-329 847.17,-327.14 843.74,-321.04"/>
</a>
</g>
</g>
<!-- Node10 -->
<g id="Node000010" class="node">
<title>Node10</title>
<g id="a_Node000010"><a xlink:href="../../d8/d16/class_on_cast_augment_effect.html" target="_top" xlink:title=" ">
<polygon fill="white" stroke="none" points="1213.5,-266 1092.5,-266 1092.5,-178 1213.5,-178 1213.5,-266"/>
<text text-anchor="start" x="1103.88" y="-252.5" font-family="Helvetica,sans-Serif" font-size="10.00">OnCastAugmentEffect</text>
<text text-anchor="start" x="1151.5" y="-236.5" font-family="Helvetica,sans-Serif" font-size="10.00"> </text>
<text text-anchor="start" x="1096.5" y="-220.5" font-family="Helvetica,sans-Serif" font-size="10.00">+</text>
<text text-anchor="start" x="1106.5" y="-220.5" font-family="Helvetica,sans-Serif" font-size="10.00">virtual void OnCast</text>
<text text-anchor="start" x="1106.5" y="-208.5" font-family="Helvetica,sans-Serif" font-size="10.00">(Spell spell, Vector2</text>
<text text-anchor="start" x="1106.5" y="-196.5" font-family="Helvetica,sans-Serif" font-size="10.00"> playerPosition, Vector2</text>
<text text-anchor="start" x="1106.5" y="-184.5" font-family="Helvetica,sans-Serif" font-size="10.00"> targetPosition)</text>
<polygon fill="#666666" stroke="#666666" points="1092.5,-248 1092.5,-248 1213.5,-248 1213.5,-248 1092.5,-248"/>
<polygon fill="#666666" stroke="#666666" points="1092.5,-232 1092.5,-232 1213.5,-232 1213.5,-232 1092.5,-232"/>
<polygon fill="none" stroke="#666666" points="1092.5,-178 1092.5,-266 1213.5,-266 1213.5,-178 1092.5,-178"/>
</a>
</g>
</g>
<!-- Node1&#45;&gt;Node10 -->
<g id="edge9_Node000001_Node000010" class="edge">
<title>Node1&#45;&gt;Node10</title>
<g id="a_edge9_Node000001_Node000010"><a xlink:title=" ">
<path fill="none" stroke="#63b8ff" d="M846.37,-351.67C911.41,-338.28 1006.65,-314.11 1083,-276 1088.86,-273.07 1094.73,-269.63 1100.44,-265.94"/>
<polygon fill="none" stroke="#63b8ff" points="845.99,-348.17 836.88,-353.58 847.37,-355.03 845.99,-348.17"/>
</a>
</g>
</g>
<!-- Node13 -->
<g id="Node000013" class="node">
<title>Node13</title>
<g id="a_Node000013"><a xlink:href="../../d1/d07/class_percent_damage_for_one_spell.html" target="_top" xlink:title=" ">
<polygon fill="white" stroke="none" points="1370,-262 1232,-262 1232,-182 1370,-182 1370,-262"/>
<text text-anchor="start" x="1238.75" y="-248.5" font-family="Helvetica,sans-Serif" font-size="10.00">PercentDamageForOneSpell</text>
<text text-anchor="start" x="1299.5" y="-232.5" font-family="Helvetica,sans-Serif" font-size="10.00"> </text>
<text text-anchor="start" x="1236" y="-216.5" font-family="Helvetica,sans-Serif" font-size="10.00">+</text>
<text text-anchor="start" x="1246" y="-216.5" font-family="Helvetica,sans-Serif" font-size="10.00">override void Equip</text>
<text text-anchor="start" x="1246" y="-204.5" font-family="Helvetica,sans-Serif" font-size="10.00">(SceneTree sceneTree)</text>
<text text-anchor="start" x="1236" y="-188.5" font-family="Helvetica,sans-Serif" font-size="10.00">+</text>
<text text-anchor="start" x="1246" y="-188.5" font-family="Helvetica,sans-Serif" font-size="10.00">override string Description()</text>
<polygon fill="#666666" stroke="#666666" points="1232,-244 1232,-244 1370,-244 1370,-244 1232,-244"/>
<polygon fill="#666666" stroke="#666666" points="1232,-228 1232,-228 1370,-228 1370,-228 1232,-228"/>
<polygon fill="none" stroke="#666666" points="1232,-182 1232,-262 1370,-262 1370,-182 1232,-182"/>
</a>
</g>
</g>
<!-- Node1&#45;&gt;Node13 -->
<g id="edge12_Node000001_Node000013" class="edge">
<title>Node1&#45;&gt;Node13</title>
<g id="a_edge12_Node000001_Node000013"><a xlink:title=" ">
<path fill="none" stroke="#63b8ff" d="M846.92,-359.39C938.97,-350.51 1097.38,-328.47 1223,-276 1232.06,-272.21 1241.16,-267.29 1249.79,-261.97"/>
<polygon fill="none" stroke="#63b8ff" points="846.62,-355.9 836.99,-360.32 847.27,-362.87 846.62,-355.9"/>
</a>
</g>
</g>
<!-- Node14 -->
<g id="Node000014" class="node">
<title>Node14</title>
<g id="a_Node000014"><a xlink:href="../../d1/dd0/class_percent_damage_for_one_type.html" target="_top" xlink:title=" ">
<polygon fill="white" stroke="none" points="1526,-262 1388,-262 1388,-182 1526,-182 1526,-262"/>
<text text-anchor="start" x="1395.12" y="-248.5" font-family="Helvetica,sans-Serif" font-size="10.00">PercentDamageForOneType</text>
<text text-anchor="start" x="1455.5" y="-232.5" font-family="Helvetica,sans-Serif" font-size="10.00"> </text>
<text text-anchor="start" x="1392" y="-216.5" font-family="Helvetica,sans-Serif" font-size="10.00">+</text>
<text text-anchor="start" x="1402" y="-216.5" font-family="Helvetica,sans-Serif" font-size="10.00">override void Equip</text>
<text text-anchor="start" x="1402" y="-204.5" font-family="Helvetica,sans-Serif" font-size="10.00">(SceneTree sceneTree)</text>
<text text-anchor="start" x="1392" y="-188.5" font-family="Helvetica,sans-Serif" font-size="10.00">+</text>
<text text-anchor="start" x="1402" y="-188.5" font-family="Helvetica,sans-Serif" font-size="10.00">override string Description()</text>
<polygon fill="#666666" stroke="#666666" points="1388,-244 1388,-244 1526,-244 1526,-244 1388,-244"/>
<polygon fill="#666666" stroke="#666666" points="1388,-228 1388,-228 1526,-228 1526,-228 1388,-228"/>
<polygon fill="none" stroke="#666666" points="1388,-182 1388,-262 1526,-262 1526,-182 1388,-182"/>
</a>
</g>
</g>
<!-- Node1&#45;&gt;Node14 -->
<g id="edge13_Node000001_Node000014" class="edge">
<title>Node1&#45;&gt;Node14</title>
<g id="a_edge13_Node000001_Node000014"><a xlink:title=" ">
<path fill="none" stroke="#63b8ff" d="M846.45,-364.69C964.17,-361.88 1196.91,-346.85 1379,-276 1388.46,-272.32 1397.91,-267.31 1406.81,-261.84"/>
<polygon fill="none" stroke="#63b8ff" points="846.51,-361.19 836.59,-364.9 846.66,-368.19 846.51,-361.19"/>
</a>
</g>
</g>
<!-- Node2 -->
<g id="Node000002" class="node">
<title>Node2</title>
<g id="a_Node000002"><a xlink:href="../../df/d00/class_resource.html" target="_top" xlink:title=" ">
<polygon fill="white" stroke="none" points="797,-508 745,-508 745,-456 797,-456 797,-508"/>
<text text-anchor="start" x="750" y="-494.5" font-family="Helvetica,sans-Serif" font-size="10.00">Resource</text>
<text text-anchor="start" x="769.5" y="-478.5" font-family="Helvetica,sans-Serif" font-size="10.00"> </text>
<text text-anchor="start" x="769.5" y="-462.5" font-family="Helvetica,sans-Serif" font-size="10.00"> </text>
<polygon fill="#666666" stroke="#666666" points="745,-490 745,-490 797,-490 797,-490 745,-490"/>
<polygon fill="#666666" stroke="#666666" points="745,-474 745,-474 797,-474 797,-474 745,-474"/>
<polygon fill="none" stroke="#666666" points="745,-456 745,-508 797,-508 797,-456 745,-456"/>
</a>
</g>
</g>
<!-- Node2&#45;&gt;Node1 -->
<g id="edge1_Node000001_Node000002" class="edge">
<title>Node2&#45;&gt;Node1</title>
<g id="a_edge1_Node000001_Node000002"><a xlink:title=" ">
<path fill="none" stroke="#63b8ff" d="M771,-444.77C771,-436.81 771,-428.23 771,-419.77"/>
<polygon fill="none" stroke="#63b8ff" points="767.5,-444.75 771,-454.75 774.5,-444.75 767.5,-444.75"/>
</a>
</g>
</g>
<!-- Node11 -->
<g id="Node000011" class="node">
<title>Node11</title>
<g id="a_Node000011"><a xlink:href="../../d0/d68/class_increase_duration_of_spell.html" target="_top" xlink:title=" ">
<polygon fill="white" stroke="none" points="1144,-132 1006,-132 1006,0 1144,0 1144,-132"/>
<text text-anchor="start" x="1021.75" y="-118.5" font-family="Helvetica,sans-Serif" font-size="10.00">IncreaseDurationOfSpell</text>
<text text-anchor="start" x="1073.5" y="-102.5" font-family="Helvetica,sans-Serif" font-size="10.00"> </text>
<text text-anchor="start" x="1010" y="-86.5" font-family="Helvetica,sans-Serif" font-size="10.00">+</text>
<text text-anchor="start" x="1020" y="-86.5" font-family="Helvetica,sans-Serif" font-size="10.00">override void Equip</text>
<text text-anchor="start" x="1020" y="-74.5" font-family="Helvetica,sans-Serif" font-size="10.00">(SceneTree sceneTree)</text>
<text text-anchor="start" x="1010" y="-58.5" font-family="Helvetica,sans-Serif" font-size="10.00">+</text>
<text text-anchor="start" x="1020" y="-58.5" font-family="Helvetica,sans-Serif" font-size="10.00">override void OnCast</text>
<text text-anchor="start" x="1020" y="-46.5" font-family="Helvetica,sans-Serif" font-size="10.00">(Spell spell, Vector2</text>
<text text-anchor="start" x="1020" y="-34.5" font-family="Helvetica,sans-Serif" font-size="10.00"> playerPosition, Vector2</text>
<text text-anchor="start" x="1020" y="-22.5" font-family="Helvetica,sans-Serif" font-size="10.00"> targetPosition)</text>
<text text-anchor="start" x="1010" y="-6.5" font-family="Helvetica,sans-Serif" font-size="10.00">+</text>
<text text-anchor="start" x="1020" y="-6.5" font-family="Helvetica,sans-Serif" font-size="10.00">override string Description()</text>
<polygon fill="#666666" stroke="#666666" points="1006,-114 1006,-114 1144,-114 1144,-114 1006,-114"/>
<polygon fill="#666666" stroke="#666666" points="1006,-98 1006,-98 1144,-98 1144,-98 1006,-98"/>
<polygon fill="none" stroke="#666666" points="1006,0 1006,-132 1144,-132 1144,0 1006,0"/>
</a>
</g>
</g>
<!-- Node10&#45;&gt;Node11 -->
<g id="edge10_Node000010_Node000011" class="edge">
<title>Node10&#45;&gt;Node11</title>
<g id="a_edge10_Node000010_Node000011"><a xlink:title=" ">
<path fill="none" stroke="#63b8ff" d="M1126.2,-168.09C1120.29,-156.42 1113.97,-143.93 1107.85,-131.85"/>
<polygon fill="none" stroke="#63b8ff" points="1122.95,-169.41 1130.59,-176.75 1129.19,-166.25 1122.95,-169.41"/>
</a>
</g>
</g>
<!-- Node12 -->
<g id="Node000012" class="node">
<title>Node12</title>
<g id="a_Node000012"><a xlink:href="../../d5/d92/class_increased_radius_of_spell.html" target="_top" xlink:title=" ">
<polygon fill="white" stroke="none" points="1300,-132 1162,-132 1162,0 1300,0 1300,-132"/>
<text text-anchor="start" x="1178.12" y="-118.5" font-family="Helvetica,sans-Serif" font-size="10.00">IncreasedRadiusOfSpell</text>
<text text-anchor="start" x="1229.5" y="-102.5" font-family="Helvetica,sans-Serif" font-size="10.00"> </text>
<text text-anchor="start" x="1166" y="-86.5" font-family="Helvetica,sans-Serif" font-size="10.00">+</text>
<text text-anchor="start" x="1176" y="-86.5" font-family="Helvetica,sans-Serif" font-size="10.00">override void Equip</text>
<text text-anchor="start" x="1176" y="-74.5" font-family="Helvetica,sans-Serif" font-size="10.00">(SceneTree sceneTree)</text>
<text text-anchor="start" x="1166" y="-58.5" font-family="Helvetica,sans-Serif" font-size="10.00">+</text>
<text text-anchor="start" x="1176" y="-58.5" font-family="Helvetica,sans-Serif" font-size="10.00">override void OnCast</text>
<text text-anchor="start" x="1176" y="-46.5" font-family="Helvetica,sans-Serif" font-size="10.00">(Spell spell, Vector2</text>
<text text-anchor="start" x="1176" y="-34.5" font-family="Helvetica,sans-Serif" font-size="10.00"> playerPosition, Vector2</text>
<text text-anchor="start" x="1176" y="-22.5" font-family="Helvetica,sans-Serif" font-size="10.00"> targetPosition)</text>
<text text-anchor="start" x="1166" y="-6.5" font-family="Helvetica,sans-Serif" font-size="10.00">+</text>
<text text-anchor="start" x="1176" y="-6.5" font-family="Helvetica,sans-Serif" font-size="10.00">override string Description()</text>
<polygon fill="#666666" stroke="#666666" points="1162,-114 1162,-114 1300,-114 1300,-114 1162,-114"/>
<polygon fill="#666666" stroke="#666666" points="1162,-98 1162,-98 1300,-98 1300,-98 1162,-98"/>
<polygon fill="none" stroke="#666666" points="1162,0 1162,-132 1300,-132 1300,0 1162,0"/>
</a>
</g>
</g>
<!-- Node10&#45;&gt;Node12 -->
<g id="edge11_Node000010_Node000012" class="edge">
<title>Node10&#45;&gt;Node12</title>
<g id="a_edge11_Node000010_Node000012"><a xlink:title=" ">
<path fill="none" stroke="#63b8ff" d="M1179.8,-168.09C1185.71,-156.42 1192.03,-143.93 1198.15,-131.85"/>
<polygon fill="none" stroke="#63b8ff" points="1176.81,-166.25 1175.41,-176.75 1183.05,-169.41 1176.81,-166.25"/>
</a>
</g>
</g>
</g>
</svg>

<g id="navigator" transform="translate(0 0)" fill="#404254">
  <rect fill="#f2f5e9" fill-opacity="0.5" stroke="#606060" stroke-width=".5" x="0" y="0" width="60" height="60"/>
  <use id="zoomplus" xlink:href="#zoomPlus" x="17" y="9" onmousedown="handleZoom(evt,'in')"/>
  <use id="zoomminus" xlink:href="#zoomMin" x="42" y="9" onmousedown="handleZoom(evt,'out')"/>
  <use id="reset" xlink:href="#resetDef" x="30" y="36" onmousedown="handleReset()"/>
   <use id="arrowup" xlink:href="#arrowUp" x="0" y="0" onmousedown="handlePan(0,-1)"/>
  <use id="arrowright" xlink:href="#arrowRight" x="0" y="0" onmousedown="handlePan(1,0)"/>
  <use id="arrowdown" xlink:href="#arrowDown" x="0" y="0" onmousedown="handlePan(0,1)"/>
  <use id="arrowleft" xlink:href="#arrowLeft" x="0" y="0" onmousedown="handlePan(-1,0)"/>
</g>
<svg viewBox="0 0 15 15" width="100%" height="30px" preserveAspectRatio="xMaxYMin meet">
 <g id="arrow_out" transform="scale(0.3 0.3)">
  <a xlink:href="class_augment_effect__inherit__graph_org.svg" target="_base">
   <rect id="button" ry="5" rx="5" y="6" x="6" height="38" width="38"
        fill="#f2f5e9" fill-opacity="0.5" stroke="#606060" stroke-width="1.0"/>
   <path id="arrow"
     d="M 11.500037,31.436501 C 11.940474,20.09759 22.043105,11.32322 32.158766,21.979434 L 37.068811,17.246167 C 37.068811,17.246167 37.088388,32 37.088388,32 L 22.160133,31.978069 C 22.160133,31.978069 26.997745,27.140456 26.997745,27.140456 C 18.528582,18.264221 13.291696,25.230495 11.500037,31.436501 z"
     style="fill:#404040;"/>
  </a>
 </g>
</svg>

<style type='text/css'>
<![CDATA[
[data-mouse-over-selected='false'] { opacity: 0.7; }
[data-mouse-over-selected='true']  { opacity: 1.0; }
]]>
</style>
<script type="application/ecmascript"><![CDATA[
document.addEventListener('DOMContentLoaded', (event) => {
  highlightEdges();
  highlightAdjacentNodes();
});
]]></script>
</svg>
