<?xml version="1.0" encoding="UTF-8" standalone="no"?>
<!DOCTYPE svg PUBLIC "-//W3C//DTD SVG 1.1//EN"
 "http://www.w3.org/Graphics/SVG/1.1/DTD/svg11.dtd">
<!-- Generated by graphviz version 12.1.0 (20240811.2233)
 -->
<!-- Title: AugmentEffect Pages: 1 -->
<svg width="1520pt" height="492pt"
 viewBox="0.00 0.00 1520.00 492.00" xmlns="http://www.w3.org/2000/svg" xmlns:xlink="http://www.w3.org/1999/xlink">
<g id="graph0" class="graph" transform="scale(1 1) rotate(0) translate(4 488)">
<title>AugmentEffect</title>
<!-- Node1 -->
<g id="Node000001" class="node">
<title>Node1</title>
<g id="a_Node000001"><a xlink:title=" ">
<polygon fill="#999999" stroke="none" points="835.5,-396 706.5,-396 706.5,-288 835.5,-288 835.5,-396"/>
<text text-anchor="start" x="738.75" y="-382.5" font-family="Helvetica,sans-Serif" font-size="10.00">AugmentEffect</text>
<text text-anchor="start" x="769.5" y="-366.5" font-family="Helvetica,sans-Serif" font-size="10.00"> </text>
<text text-anchor="start" x="710.5" y="-350.5" font-family="Helvetica,sans-Serif" font-size="10.00">+</text>
<text text-anchor="start" x="720.5" y="-350.5" font-family="Helvetica,sans-Serif" font-size="10.00">virtual void Equip</text>
<text text-anchor="start" x="720.5" y="-338.5" font-family="Helvetica,sans-Serif" font-size="10.00">(SceneTree sceneTree)</text>
<text text-anchor="start" x="710.5" y="-322.5" font-family="Helvetica,sans-Serif" font-size="10.00">+</text>
<text text-anchor="start" x="720.5" y="-322.5" font-family="Helvetica,sans-Serif" font-size="10.00">virtual void UnEquip</text>
<text text-anchor="start" x="720.5" y="-310.5" font-family="Helvetica,sans-Serif" font-size="10.00">(SceneTree sceneTree)</text>
<text text-anchor="start" x="710.5" y="-294.5" font-family="Helvetica,sans-Serif" font-size="10.00">+</text>
<text text-anchor="start" x="720.5" y="-294.5" font-family="Helvetica,sans-Serif" font-size="10.00">virtual string Description()</text>
<polygon fill="#666666" stroke="#666666" points="706.5,-378 706.5,-378 835.5,-378 835.5,-378 706.5,-378"/>
<polygon fill="#666666" stroke="#666666" points="706.5,-362 706.5,-362 835.5,-362 835.5,-362 706.5,-362"/>
<polygon fill="none" stroke="#666666" points="706.5,-288 706.5,-396 835.5,-396 835.5,-288 706.5,-288"/>
</a>
</g>
</g>
<!-- Node3 -->
<g id="Node000003" class="node">
<title>Node3</title>
<g id="a_Node000003"><a xlink:href="../../d3/df6/class_additional_stars.html" target="_top" xlink:title=" ">
<polygon fill="white" stroke="none" points="138,-252 0,-252 0,-144 138,-144 138,-252"/>
<text text-anchor="start" x="36" y="-238.5" font-family="Helvetica,sans-Serif" font-size="10.00">AdditionalStars</text>
<text text-anchor="start" x="67.5" y="-222.5" font-family="Helvetica,sans-Serif" font-size="10.00"> </text>
<text text-anchor="start" x="4" y="-206.5" font-family="Helvetica,sans-Serif" font-size="10.00">+</text>
<text text-anchor="start" x="14" y="-206.5" font-family="Helvetica,sans-Serif" font-size="10.00">override void Equip</text>
<text text-anchor="start" x="14" y="-194.5" font-family="Helvetica,sans-Serif" font-size="10.00">(SceneTree sceneTree)</text>
<text text-anchor="start" x="4" y="-178.5" font-family="Helvetica,sans-Serif" font-size="10.00">+</text>
<text text-anchor="start" x="14" y="-178.5" font-family="Helvetica,sans-Serif" font-size="10.00">override void UnEquip</text>
<text text-anchor="start" x="14" y="-166.5" font-family="Helvetica,sans-Serif" font-size="10.00">(SceneTree sceneTree)</text>
<text text-anchor="start" x="4" y="-150.5" font-family="Helvetica,sans-Serif" font-size="10.00">+</text>
<text text-anchor="start" x="14" y="-150.5" font-family="Helvetica,sans-Serif" font-size="10.00">override string Description()</text>
<polygon fill="#666666" stroke="#666666" points="0,-234 0,-234 138,-234 138,-234 0,-234"/>
<polygon fill="#666666" stroke="#666666" points="0,-218 0,-218 138,-218 138,-218 0,-218"/>
<polygon fill="none" stroke="#666666" points="0,-144 0,-252 138,-252 138,-144 0,-144"/>
</a>
</g>
</g>
<!-- Node1&#45;&gt;Node3 -->
<g id="edge2_Node000001_Node000003" class="edge">
<title>Node1&#45;&gt;Node3</title>
<g id="a_edge2_Node000001_Node000003"><a xlink:title=" ">
<path fill="none" stroke="#63b8ff" d="M695.37,-341.09C575.15,-338.86 334.84,-324.7 147,-252 143.95,-250.82 140.89,-249.5 137.86,-248.07"/>
<polygon fill="none" stroke="#63b8ff" points="695.06,-344.58 705.11,-341.24 695.17,-337.58 695.06,-344.58"/>
</a>
</g>
</g>
<!-- Node4 -->
<g id="Node000004" class="node">
<title>Node4</title>
<g id="a_Node000004"><a xlink:href="../../d2/d5b/class_cast_additional_spell.html" target="_top" xlink:title=" ">
<polygon fill="white" stroke="none" points="294,-238 156,-238 156,-158 294,-158 294,-238"/>
<text text-anchor="start" x="182.25" y="-224.5" font-family="Helvetica,sans-Serif" font-size="10.00">CastAdditionalSpell</text>
<text text-anchor="start" x="223.5" y="-208.5" font-family="Helvetica,sans-Serif" font-size="10.00"> </text>
<text text-anchor="start" x="160" y="-192.5" font-family="Helvetica,sans-Serif" font-size="10.00">+</text>
<text text-anchor="start" x="170" y="-192.5" font-family="Helvetica,sans-Serif" font-size="10.00">override void Equip</text>
<text text-anchor="start" x="170" y="-180.5" font-family="Helvetica,sans-Serif" font-size="10.00">(SceneTree sceneTree)</text>
<text text-anchor="start" x="160" y="-164.5" font-family="Helvetica,sans-Serif" font-size="10.00">+</text>
<text text-anchor="start" x="170" y="-164.5" font-family="Helvetica,sans-Serif" font-size="10.00">override string Description()</text>
<polygon fill="#666666" stroke="#666666" points="156,-220 156,-220 294,-220 294,-220 156,-220"/>
<polygon fill="#666666" stroke="#666666" points="156,-204 156,-204 294,-204 294,-204 156,-204"/>
<polygon fill="none" stroke="#666666" points="156,-158 156,-238 294,-238 294,-158 156,-158"/>
</a>
</g>
</g>
<!-- Node1&#45;&gt;Node4 -->
<g id="edge3_Node000001_Node000004" class="edge">
<title>Node1&#45;&gt;Node4</title>
<g id="a_edge3_Node000001_Node000004"><a xlink:title=" ">
<path fill="none" stroke="#63b8ff" d="M695.37,-336.11C600.54,-327.88 434.45,-306.4 303,-252 293.77,-248.18 284.51,-243.17 275.76,-237.76"/>
<polygon fill="none" stroke="#63b8ff" points="694.81,-339.58 705.07,-336.93 695.4,-332.6 694.81,-339.58"/>
</a>
</g>
</g>
<!-- Node5 -->
<g id="Node000005" class="node">
<title>Node5</title>
<g id="a_Node000005"><a xlink:href="../../d8/d35/class_extra_armor_of_all_types.html" target="_top" xlink:title=" ">
<polygon fill="white" stroke="none" points="450,-252 312,-252 312,-144 450,-144 450,-252"/>
<text text-anchor="start" x="332.25" y="-238.5" font-family="Helvetica,sans-Serif" font-size="10.00">ExtraArmorOfAllTypes</text>
<text text-anchor="start" x="379.5" y="-222.5" font-family="Helvetica,sans-Serif" font-size="10.00"> </text>
<text text-anchor="start" x="316" y="-206.5" font-family="Helvetica,sans-Serif" font-size="10.00">+</text>
<text text-anchor="start" x="326" y="-206.5" font-family="Helvetica,sans-Serif" font-size="10.00">override void Equip</text>
<text text-anchor="start" x="326" y="-194.5" font-family="Helvetica,sans-Serif" font-size="10.00">(SceneTree sceneTree)</text>
<text text-anchor="start" x="316" y="-178.5" font-family="Helvetica,sans-Serif" font-size="10.00">+</text>
<text text-anchor="start" x="326" y="-178.5" font-family="Helvetica,sans-Serif" font-size="10.00">override void UnEquip</text>
<text text-anchor="start" x="326" y="-166.5" font-family="Helvetica,sans-Serif" font-size="10.00">(SceneTree sceneTree)</text>
<text text-anchor="start" x="316" y="-150.5" font-family="Helvetica,sans-Serif" font-size="10.00">+</text>
<text text-anchor="start" x="326" y="-150.5" font-family="Helvetica,sans-Serif" font-size="10.00">override string Description()</text>
<polygon fill="#666666" stroke="#666666" points="312,-234 312,-234 450,-234 450,-234 312,-234"/>
<polygon fill="#666666" stroke="#666666" points="312,-218 312,-218 450,-218 450,-218 312,-218"/>
<polygon fill="none" stroke="#666666" points="312,-144 312,-252 450,-252 450,-144 312,-144"/>
</a>
</g>
</g>
<!-- Node1&#45;&gt;Node5 -->
<g id="edge4_Node000001_Node000005" class="edge">
<title>Node1&#45;&gt;Node5</title>
<g id="a_edge4_Node000001_Node000005"><a xlink:title=" ">
<path fill="none" stroke="#63b8ff" d="M695.8,-326.62C631.07,-312.6 536.18,-288.08 459,-252 455.89,-250.54 452.76,-248.97 449.64,-247.31"/>
<polygon fill="none" stroke="#63b8ff" points="694.73,-329.97 705.24,-328.63 696.19,-323.12 694.73,-329.97"/>
</a>
</g>
</g>
<!-- Node6 -->
<g id="Node000006" class="node">
<title>Node6</title>
<g id="a_Node000006"><a xlink:href="../../df/deb/class_extra_armor_of_type.html" target="_top" xlink:title=" ">
<polygon fill="white" stroke="none" points="606,-252 468,-252 468,-144 606,-144 606,-252"/>
<text text-anchor="start" x="496.5" y="-238.5" font-family="Helvetica,sans-Serif" font-size="10.00">ExtraArmorOfType</text>
<text text-anchor="start" x="535.5" y="-222.5" font-family="Helvetica,sans-Serif" font-size="10.00"> </text>
<text text-anchor="start" x="472" y="-206.5" font-family="Helvetica,sans-Serif" font-size="10.00">+</text>
<text text-anchor="start" x="482" y="-206.5" font-family="Helvetica,sans-Serif" font-size="10.00">override void Equip</text>
<text text-anchor="start" x="482" y="-194.5" font-family="Helvetica,sans-Serif" font-size="10.00">(SceneTree sceneTree)</text>
<text text-anchor="start" x="472" y="-178.5" font-family="Helvetica,sans-Serif" font-size="10.00">+</text>
<text text-anchor="start" x="482" y="-178.5" font-family="Helvetica,sans-Serif" font-size="10.00">override void UnEquip</text>
<text text-anchor="start" x="482" y="-166.5" font-family="Helvetica,sans-Serif" font-size="10.00">(SceneTree sceneTree)</text>
<text text-anchor="start" x="472" y="-150.5" font-family="Helvetica,sans-Serif" font-size="10.00">+</text>
<text text-anchor="start" x="482" y="-150.5" font-family="Helvetica,sans-Serif" font-size="10.00">override string Description()</text>
<polygon fill="#666666" stroke="#666666" points="468,-234 468,-234 606,-234 606,-234 468,-234"/>
<polygon fill="#666666" stroke="#666666" points="468,-218 468,-218 606,-218 606,-218 468,-218"/>
<polygon fill="none" stroke="#666666" points="468,-144 468,-252 606,-252 606,-144 468,-144"/>
</a>
</g>
</g>
<!-- Node1&#45;&gt;Node6 -->
<g id="edge5_Node000001_Node000006" class="edge">
<title>Node1&#45;&gt;Node6</title>
<g id="a_edge5_Node000001_Node000006"><a xlink:title=" ">
<path fill="none" stroke="#63b8ff" d="M696.75,-300.21C670.64,-285.45 641.28,-268.39 615,-252 611.94,-250.09 608.84,-248.12 605.71,-246.12"/>
<polygon fill="none" stroke="#63b8ff" points="694.83,-303.14 705.26,-305 698.26,-297.04 694.83,-303.14"/>
</a>
</g>
</g>
<!-- Node7 -->
<g id="Node000007" class="node">
<title>Node7</title>
<g id="a_Node000007"><a xlink:href="../../d9/d41/class_flat_damage_for_one_type.html" target="_top" xlink:title=" ">
<polygon fill="white" stroke="none" points="762,-238 624,-238 624,-158 762,-158 762,-238"/>
<text text-anchor="start" x="639.75" y="-224.5" font-family="Helvetica,sans-Serif" font-size="10.00">FlatDamageForOneType</text>
<text text-anchor="start" x="691.5" y="-208.5" font-family="Helvetica,sans-Serif" font-size="10.00"> </text>
<text text-anchor="start" x="628" y="-192.5" font-family="Helvetica,sans-Serif" font-size="10.00">+</text>
<text text-anchor="start" x="638" y="-192.5" font-family="Helvetica,sans-Serif" font-size="10.00">override void Equip</text>
<text text-anchor="start" x="638" y="-180.5" font-family="Helvetica,sans-Serif" font-size="10.00">(SceneTree sceneTree)</text>
<text text-anchor="start" x="628" y="-164.5" font-family="Helvetica,sans-Serif" font-size="10.00">+</text>
<text text-anchor="start" x="638" y="-164.5" font-family="Helvetica,sans-Serif" font-size="10.00">override string Description()</text>
<polygon fill="#666666" stroke="#666666" points="624,-220 624,-220 762,-220 762,-220 624,-220"/>
<polygon fill="#666666" stroke="#666666" points="624,-204 624,-204 762,-204 762,-204 624,-204"/>
<polygon fill="none" stroke="#666666" points="624,-158 624,-238 762,-238 762,-158 624,-158"/>
</a>
</g>
</g>
<!-- Node1&#45;&gt;Node7 -->
<g id="edge6_Node000001_Node000007" class="edge">
<title>Node1&#45;&gt;Node7</title>
<g id="a_edge6_Node000001_Node000007"><a xlink:title=" ">
<path fill="none" stroke="#63b8ff" d="M736.5,-278.2C728.93,-264.42 721.14,-250.22 714.27,-237.72"/>
<polygon fill="none" stroke="#63b8ff" points="733.34,-279.72 741.23,-286.8 739.48,-276.35 733.34,-279.72"/>
</a>
</g>
</g>
<!-- Node8 -->
<g id="Node000008" class="node">
<title>Node8</title>
<g id="a_Node000008"><a xlink:href="../../d4/d8f/class_flat_damage_for_spell_slot.html" target="_top" xlink:title=" ">
<polygon fill="white" stroke="none" points="918,-238 780,-238 780,-158 918,-158 918,-238"/>
<text text-anchor="start" x="795.75" y="-224.5" font-family="Helvetica,sans-Serif" font-size="10.00">FlatDamageForSpellSlot</text>
<text text-anchor="start" x="847.5" y="-208.5" font-family="Helvetica,sans-Serif" font-size="10.00"> </text>
<text text-anchor="start" x="784" y="-192.5" font-family="Helvetica,sans-Serif" font-size="10.00">+</text>
<text text-anchor="start" x="794" y="-192.5" font-family="Helvetica,sans-Serif" font-size="10.00">override void Equip</text>
<text text-anchor="start" x="794" y="-180.5" font-family="Helvetica,sans-Serif" font-size="10.00">(SceneTree sceneTree)</text>
<text text-anchor="start" x="784" y="-164.5" font-family="Helvetica,sans-Serif" font-size="10.00">+</text>
<text text-anchor="start" x="794" y="-164.5" font-family="Helvetica,sans-Serif" font-size="10.00">override string Description()</text>
<polygon fill="#666666" stroke="#666666" points="780,-220 780,-220 918,-220 918,-220 780,-220"/>
<polygon fill="#666666" stroke="#666666" points="780,-204 780,-204 918,-204 918,-204 780,-204"/>
<polygon fill="none" stroke="#666666" points="780,-158 780,-238 918,-238 918,-158 780,-158"/>
</a>
</g>
</g>
<!-- Node1&#45;&gt;Node8 -->
<g id="edge7_Node000001_Node000008" class="edge">
<title>Node1&#45;&gt;Node8</title>
<g id="a_edge7_Node000001_Node000008"><a xlink:title=" ">
<path fill="none" stroke="#63b8ff" d="M805.5,-278.2C813.07,-264.42 820.86,-250.22 827.73,-237.72"/>
<polygon fill="none" stroke="#63b8ff" points="802.52,-276.35 800.77,-286.8 808.66,-279.72 802.52,-276.35"/>
</a>
</g>
</g>
<!-- Node9 -->
<g id="Node000009" class="node">
<title>Node9</title>
<g id="a_Node000009"><a xlink:href="../../d1/d2e/class_h_p_increase_augment_effect.html" target="_top" xlink:title=" ">
<polygon fill="white" stroke="none" points="1074,-252 936,-252 936,-144 1074,-144 1074,-252"/>
<text text-anchor="start" x="946.88" y="-238.5" font-family="Helvetica,sans-Serif" font-size="10.00">HPIncreaseAugmentEffect</text>
<text text-anchor="start" x="1003.5" y="-222.5" font-family="Helvetica,sans-Serif" font-size="10.00"> </text>
<text text-anchor="start" x="940" y="-206.5" font-family="Helvetica,sans-Serif" font-size="10.00">+</text>
<text text-anchor="start" x="950" y="-206.5" font-family="Helvetica,sans-Serif" font-size="10.00">override void Equip</text>
<text text-anchor="start" x="950" y="-194.5" font-family="Helvetica,sans-Serif" font-size="10.00">(SceneTree sceneTree)</text>
<text text-anchor="start" x="940" y="-178.5" font-family="Helvetica,sans-Serif" font-size="10.00">+</text>
<text text-anchor="start" x="950" y="-178.5" font-family="Helvetica,sans-Serif" font-size="10.00">override void UnEquip</text>
<text text-anchor="start" x="950" y="-166.5" font-family="Helvetica,sans-Serif" font-size="10.00">(SceneTree sceneTree)</text>
<text text-anchor="start" x="940" y="-150.5" font-family="Helvetica,sans-Serif" font-size="10.00">+</text>
<text text-anchor="start" x="950" y="-150.5" font-family="Helvetica,sans-Serif" font-size="10.00">override string Description()</text>
<polygon fill="#666666" stroke="#666666" points="936,-234 936,-234 1074,-234 1074,-234 936,-234"/>
<polygon fill="#666666" stroke="#666666" points="936,-218 936,-218 1074,-218 1074,-218 936,-218"/>
<polygon fill="none" stroke="#666666" points="936,-144 936,-252 1074,-252 1074,-144 936,-144"/>
</a>
</g>
</g>
<!-- Node1&#45;&gt;Node9 -->
<g id="edge8_Node000001_Node000009" class="edge">
<title>Node1&#45;&gt;Node9</title>
<g id="a_edge8_Node000001_Node000009"><a xlink:title=" ">
<path fill="none" stroke="#63b8ff" d="M845.25,-300.21C871.36,-285.45 900.72,-268.39 927,-252 930.06,-250.09 933.16,-248.12 936.29,-246.12"/>
<polygon fill="none" stroke="#63b8ff" points="843.74,-297.04 836.74,-305 847.17,-303.14 843.74,-297.04"/>
</a>
</g>
</g>
<!-- Node10 -->
<g id="Node000010" class="node">
<title>Node10</title>
<g id="a_Node000010"><a xlink:href="../../d8/d16/class_on_cast_augment_effect.html" target="_top" xlink:title=" ">
<polygon fill="white" stroke="none" points="1200,-230 1092,-230 1092,-166 1200,-166 1200,-230"/>
<text text-anchor="start" x="1096.88" y="-216.5" font-family="Helvetica,sans-Serif" font-size="10.00">OnCastAugmentEffect</text>
<text text-anchor="start" x="1144.5" y="-200.5" font-family="Helvetica,sans-Serif" font-size="10.00"> </text>
<text text-anchor="start" x="1097.5" y="-184.5" font-family="Helvetica,sans-Serif" font-size="10.00">+</text>
<text text-anchor="start" x="1109" y="-184.5" font-family="Helvetica,sans-Serif" font-size="10.00">virtual void OnCast</text>
<text text-anchor="start" x="1109" y="-172.5" font-family="Helvetica,sans-Serif" font-size="10.00">(Spell spell)</text>
<polygon fill="#666666" stroke="#666666" points="1092,-212 1092,-212 1200,-212 1200,-212 1092,-212"/>
<polygon fill="#666666" stroke="#666666" points="1092,-196 1092,-196 1200,-196 1200,-196 1092,-196"/>
<polygon fill="none" stroke="#666666" points="1092,-166 1092,-230 1200,-230 1200,-166 1092,-166"/>
</a>
</g>
</g>
<!-- Node1&#45;&gt;Node10 -->
<g id="edge9_Node000001_Node000010" class="edge">
<title>Node1&#45;&gt;Node10</title>
<g id="a_edge9_Node000001_Node000010"><a xlink:title=" ">
<path fill="none" stroke="#63b8ff" d="M846.26,-328.76C911.64,-316.02 1007.42,-292.18 1083,-252 1094.11,-246.1 1105.02,-237.99 1114.56,-229.89"/>
<polygon fill="none" stroke="#63b8ff" points="845.89,-325.27 836.72,-330.58 847.2,-332.14 845.89,-325.27"/>
</a>
</g>
</g>
<!-- Node13 -->
<g id="Node000013" class="node">
<title>Node13</title>
<g id="a_Node000013"><a xlink:href="../../d1/d07/class_percent_damage_for_one_spell.html" target="_top" xlink:title=" ">
<polygon fill="white" stroke="none" points="1356,-238 1218,-238 1218,-158 1356,-158 1356,-238"/>
<text text-anchor="start" x="1224.75" y="-224.5" font-family="Helvetica,sans-Serif" font-size="10.00">PercentDamageForOneSpell</text>
<text text-anchor="start" x="1285.5" y="-208.5" font-family="Helvetica,sans-Serif" font-size="10.00"> </text>
<text text-anchor="start" x="1222" y="-192.5" font-family="Helvetica,sans-Serif" font-size="10.00">+</text>
<text text-anchor="start" x="1232" y="-192.5" font-family="Helvetica,sans-Serif" font-size="10.00">override void Equip</text>
<text text-anchor="start" x="1232" y="-180.5" font-family="Helvetica,sans-Serif" font-size="10.00">(SceneTree sceneTree)</text>
<text text-anchor="start" x="1222" y="-164.5" font-family="Helvetica,sans-Serif" font-size="10.00">+</text>
<text text-anchor="start" x="1232" y="-164.5" font-family="Helvetica,sans-Serif" font-size="10.00">override string Description()</text>
<polygon fill="#666666" stroke="#666666" points="1218,-220 1218,-220 1356,-220 1356,-220 1218,-220"/>
<polygon fill="#666666" stroke="#666666" points="1218,-204 1218,-204 1356,-204 1356,-204 1218,-204"/>
<polygon fill="none" stroke="#666666" points="1218,-158 1218,-238 1356,-238 1356,-158 1218,-158"/>
</a>
</g>
</g>
<!-- Node1&#45;&gt;Node13 -->
<g id="edge12_Node000001_Node000013" class="edge">
<title>Node1&#45;&gt;Node13</title>
<g id="a_edge12_Node000001_Node000013"><a xlink:title=" ">
<path fill="none" stroke="#63b8ff" d="M846.74,-334.76C936.25,-325.34 1088.25,-302.86 1209,-252 1218.05,-248.19 1227.15,-243.25 1235.77,-237.93"/>
<polygon fill="none" stroke="#63b8ff" points="846.44,-331.27 836.85,-335.77 847.15,-338.24 846.44,-331.27"/>
</a>
</g>
</g>
<!-- Node14 -->
<g id="Node000014" class="node">
<title>Node14</title>
<g id="a_Node000014"><a xlink:href="../../d1/dd0/class_percent_damage_for_one_type.html" target="_top" xlink:title=" ">
<polygon fill="white" stroke="none" points="1512,-238 1374,-238 1374,-158 1512,-158 1512,-238"/>
<text text-anchor="start" x="1381.12" y="-224.5" font-family="Helvetica,sans-Serif" font-size="10.00">PercentDamageForOneType</text>
<text text-anchor="start" x="1441.5" y="-208.5" font-family="Helvetica,sans-Serif" font-size="10.00"> </text>
<text text-anchor="start" x="1378" y="-192.5" font-family="Helvetica,sans-Serif" font-size="10.00">+</text>
<text text-anchor="start" x="1388" y="-192.5" font-family="Helvetica,sans-Serif" font-size="10.00">override void Equip</text>
<text text-anchor="start" x="1388" y="-180.5" font-family="Helvetica,sans-Serif" font-size="10.00">(SceneTree sceneTree)</text>
<text text-anchor="start" x="1378" y="-164.5" font-family="Helvetica,sans-Serif" font-size="10.00">+</text>
<text text-anchor="start" x="1388" y="-164.5" font-family="Helvetica,sans-Serif" font-size="10.00">override string Description()</text>
<polygon fill="#666666" stroke="#666666" points="1374,-220 1374,-220 1512,-220 1512,-220 1374,-220"/>
<polygon fill="#666666" stroke="#666666" points="1374,-204 1374,-204 1512,-204 1512,-204 1374,-204"/>
<polygon fill="none" stroke="#666666" points="1374,-158 1374,-238 1512,-238 1512,-158 1374,-158"/>
</a>
</g>
</g>
<!-- Node1&#45;&gt;Node14 -->
<g id="edge13_Node000001_Node000014" class="edge">
<title>Node1&#45;&gt;Node14</title>
<g id="a_edge13_Node000001_Node000014"><a xlink:title=" ">
<path fill="none" stroke="#63b8ff" d="M846.55,-340.33C962.14,-336.97 1188.07,-321.19 1365,-252 1374.45,-248.3 1383.9,-243.29 1392.8,-237.81"/>
<polygon fill="none" stroke="#63b8ff" points="846.79,-336.82 836.89,-340.58 846.98,-343.82 846.79,-336.82"/>
</a>
</g>
</g>
<!-- Node2 -->
<g id="Node000002" class="node">
<title>Node2</title>
<g id="a_Node000002"><a xlink:href="../../df/d00/class_resource.html" target="_top" xlink:title=" ">
<polygon fill="white" stroke="none" points="797,-484 745,-484 745,-432 797,-432 797,-484"/>
<text text-anchor="start" x="750" y="-470.5" font-family="Helvetica,sans-Serif" font-size="10.00">Resource</text>
<text text-anchor="start" x="769.5" y="-454.5" font-family="Helvetica,sans-Serif" font-size="10.00"> </text>
<text text-anchor="start" x="769.5" y="-438.5" font-family="Helvetica,sans-Serif" font-size="10.00"> </text>
<polygon fill="#666666" stroke="#666666" points="745,-466 745,-466 797,-466 797,-466 745,-466"/>
<polygon fill="#666666" stroke="#666666" points="745,-450 745,-450 797,-450 797,-450 745,-450"/>
<polygon fill="none" stroke="#666666" points="745,-432 745,-484 797,-484 797,-432 745,-432"/>
</a>
</g>
</g>
<!-- Node2&#45;&gt;Node1 -->
<g id="edge1_Node000001_Node000002" class="edge">
<title>Node2&#45;&gt;Node1</title>
<g id="a_edge1_Node000001_Node000002"><a xlink:title=" ">
<path fill="none" stroke="#63b8ff" d="M771,-420.77C771,-412.81 771,-404.23 771,-395.77"/>
<polygon fill="none" stroke="#63b8ff" points="767.5,-420.75 771,-430.75 774.5,-420.75 767.5,-420.75"/>
</a>
</g>
</g>
<!-- Node11 -->
<g id="Node000011" class="node">
<title>Node11</title>
<g id="a_Node000011"><a xlink:href="../../d0/d68/class_increase_duration_of_spell.html" target="_top" xlink:title=" ">
<polygon fill="white" stroke="none" points="1137,-108 999,-108 999,0 1137,0 1137,-108"/>
<text text-anchor="start" x="1014.75" y="-94.5" font-family="Helvetica,sans-Serif" font-size="10.00">IncreaseDurationOfSpell</text>
<text text-anchor="start" x="1066.5" y="-78.5" font-family="Helvetica,sans-Serif" font-size="10.00"> </text>
<text text-anchor="start" x="1003" y="-62.5" font-family="Helvetica,sans-Serif" font-size="10.00">+</text>
<text text-anchor="start" x="1013" y="-62.5" font-family="Helvetica,sans-Serif" font-size="10.00">override void Equip</text>
<text text-anchor="start" x="1013" y="-50.5" font-family="Helvetica,sans-Serif" font-size="10.00">(SceneTree sceneTree)</text>
<text text-anchor="start" x="1003" y="-34.5" font-family="Helvetica,sans-Serif" font-size="10.00">+</text>
<text text-anchor="start" x="1013" y="-34.5" font-family="Helvetica,sans-Serif" font-size="10.00">override void OnCast</text>
<text text-anchor="start" x="1013" y="-22.5" font-family="Helvetica,sans-Serif" font-size="10.00">(Spell spell)</text>
<text text-anchor="start" x="1003" y="-6.5" font-family="Helvetica,sans-Serif" font-size="10.00">+</text>
<text text-anchor="start" x="1013" y="-6.5" font-family="Helvetica,sans-Serif" font-size="10.00">override string Description()</text>
<polygon fill="#666666" stroke="#666666" points="999,-90 999,-90 1137,-90 1137,-90 999,-90"/>
<polygon fill="#666666" stroke="#666666" points="999,-74 999,-74 1137,-74 1137,-74 999,-74"/>
<polygon fill="none" stroke="#666666" points="999,0 999,-108 1137,-108 1137,0 999,0"/>
</a>
</g>
</g>
<!-- Node10&#45;&gt;Node11 -->
<g id="edge10_Node000010_Node000011" class="edge">
<title>Node10&#45;&gt;Node11</title>
<g id="a_edge10_Node000010_Node000011"><a xlink:title=" ">
<path fill="none" stroke="#63b8ff" d="M1123.56,-156.16C1115.29,-141.09 1105.79,-123.8 1097.01,-107.82"/>
<polygon fill="none" stroke="#63b8ff" points="1120.46,-157.78 1128.35,-164.86 1126.6,-154.41 1120.46,-157.78"/>
</a>
</g>
</g>
<!-- Node12 -->
<g id="Node000012" class="node">
<title>Node12</title>
<g id="a_Node000012"><a xlink:href="../../d5/d92/class_increased_radius_of_spell.html" target="_top" xlink:title=" ">
<polygon fill="white" stroke="none" points="1293,-108 1155,-108 1155,0 1293,0 1293,-108"/>
<text text-anchor="start" x="1171.12" y="-94.5" font-family="Helvetica,sans-Serif" font-size="10.00">IncreasedRadiusOfSpell</text>
<text text-anchor="start" x="1222.5" y="-78.5" font-family="Helvetica,sans-Serif" font-size="10.00"> </text>
<text text-anchor="start" x="1159" y="-62.5" font-family="Helvetica,sans-Serif" font-size="10.00">+</text>
<text text-anchor="start" x="1169" y="-62.5" font-family="Helvetica,sans-Serif" font-size="10.00">override void Equip</text>
<text text-anchor="start" x="1169" y="-50.5" font-family="Helvetica,sans-Serif" font-size="10.00">(SceneTree sceneTree)</text>
<text text-anchor="start" x="1159" y="-34.5" font-family="Helvetica,sans-Serif" font-size="10.00">+</text>
<text text-anchor="start" x="1169" y="-34.5" font-family="Helvetica,sans-Serif" font-size="10.00">override void OnCast</text>
<text text-anchor="start" x="1169" y="-22.5" font-family="Helvetica,sans-Serif" font-size="10.00">(Spell spell)</text>
<text text-anchor="start" x="1159" y="-6.5" font-family="Helvetica,sans-Serif" font-size="10.00">+</text>
<text text-anchor="start" x="1169" y="-6.5" font-family="Helvetica,sans-Serif" font-size="10.00">override string Description()</text>
<polygon fill="#666666" stroke="#666666" points="1155,-90 1155,-90 1293,-90 1293,-90 1155,-90"/>
<polygon fill="#666666" stroke="#666666" points="1155,-74 1155,-74 1293,-74 1293,-74 1155,-74"/>
<polygon fill="none" stroke="#666666" points="1155,0 1155,-108 1293,-108 1293,0 1155,0"/>
</a>
</g>
</g>
<!-- Node10&#45;&gt;Node12 -->
<g id="edge11_Node000010_Node000012" class="edge">
<title>Node10&#45;&gt;Node12</title>
<g id="a_edge11_Node000010_Node000012"><a xlink:title=" ">
<path fill="none" stroke="#63b8ff" d="M1168.44,-156.16C1176.71,-141.09 1186.21,-123.8 1194.99,-107.82"/>
<polygon fill="none" stroke="#63b8ff" points="1165.4,-154.41 1163.65,-164.86 1171.54,-157.78 1165.4,-154.41"/>
</a>
</g>
</g>
</g>
</svg>
