<?xml version="1.0" encoding="UTF-8" standalone="no"?>
<!DOCTYPE svg PUBLIC "-//W3C//DTD SVG 1.1//EN"
 "http://www.w3.org/Graphics/SVG/1.1/DTD/svg11.dtd">
<!-- Generated by graphviz version 12.1.0 (20240811.2233)
 -->
<!-- Title: JsonConverter Pages: 1 -->
<svg width="183pt" height="248pt"
 viewBox="0.00 0.00 183.00 248.00" xmlns="http://www.w3.org/2000/svg" xmlns:xlink="http://www.w3.org/1999/xlink">
<g id="graph0" class="graph" transform="scale(1 1) rotate(0) translate(4 244)">
<title>JsonConverter</title>
<!-- Node1 -->
<g id="Node000001" class="node">
<title>Node1</title>
<g id="a_Node000001"><a xlink:title=" ">
<polygon fill="#999999" stroke="none" points="124,-240 51,-240 51,-188 124,-188 124,-240"/>
<text text-anchor="start" x="55.62" y="-226.5" font-family="Helvetica,sans-Serif" font-size="10.00">JsonConverter</text>
<text text-anchor="start" x="86" y="-210.5" font-family="Helvetica,sans-Serif" font-size="10.00"> </text>
<text text-anchor="start" x="86" y="-194.5" font-family="Helvetica,sans-Serif" font-size="10.00"> </text>
<polygon fill="#666666" stroke="#666666" points="51,-222 51,-222 124,-222 124,-222 51,-222"/>
<polygon fill="#666666" stroke="#666666" points="51,-206 51,-206 124,-206 124,-206 51,-206"/>
<polygon fill="none" stroke="#666666" points="51,-188 51,-240 124,-240 124,-188 51,-188"/>
</a>
</g>
</g>
<!-- Node2 -->
<g id="Node000002" class="node">
<title>Node2</title>
<g id="a_Node000002"><a xlink:href="../../d4/dde/class_vector2_i_json_converter.html" target="_top" xlink:title=" ">
<polygon fill="white" stroke="none" points="175,-152 0,-152 0,0 175,0 175,-152"/>
<text text-anchor="start" x="37.62" y="-138.5" font-family="Helvetica,sans-Serif" font-size="10.00">Vector2IJsonConverter</text>
<text text-anchor="start" x="60.5" y="-126.5" font-family="Helvetica,sans-Serif" font-size="10.00">&lt; Vector2I &gt;</text>
<text text-anchor="start" x="86" y="-110.5" font-family="Helvetica,sans-Serif" font-size="10.00"> </text>
<text text-anchor="start" x="4" y="-94.5" font-family="Helvetica,sans-Serif" font-size="10.00">+</text>
<text text-anchor="start" x="14" y="-94.5" font-family="Helvetica,sans-Serif" font-size="10.00">override Vector2I Read</text>
<text text-anchor="start" x="14" y="-82.5" font-family="Helvetica,sans-Serif" font-size="10.00">(ref Utf8JsonReader reader,</text>
<text text-anchor="start" x="14" y="-70.5" font-family="Helvetica,sans-Serif" font-size="10.00"> Type typeToConvert, JsonSerializer</text>
<text text-anchor="start" x="14" y="-58.5" font-family="Helvetica,sans-Serif" font-size="10.00">Options options)</text>
<text text-anchor="start" x="4" y="-42.5" font-family="Helvetica,sans-Serif" font-size="10.00">+</text>
<text text-anchor="start" x="14" y="-42.5" font-family="Helvetica,sans-Serif" font-size="10.00">override void Write</text>
<text text-anchor="start" x="14" y="-30.5" font-family="Helvetica,sans-Serif" font-size="10.00">(Utf8JsonWriter writer,</text>
<text text-anchor="start" x="14" y="-18.5" font-family="Helvetica,sans-Serif" font-size="10.00"> Vector2I value, JsonSerializer</text>
<text text-anchor="start" x="14" y="-6.5" font-family="Helvetica,sans-Serif" font-size="10.00">Options options)</text>
<polygon fill="#666666" stroke="#666666" points="0,-122 0,-122 175,-122 175,-122 0,-122"/>
<polygon fill="#666666" stroke="#666666" points="0,-106 0,-106 175,-106 175,-106 0,-106"/>
<polygon fill="none" stroke="#666666" points="0,0 0,-152 175,-152 175,0 0,0"/>
</a>
</g>
</g>
<!-- Node1&#45;&gt;Node2 -->
<g id="edge1_Node000001_Node000002" class="edge">
<title>Node1&#45;&gt;Node2</title>
<g id="a_edge1_Node000001_Node000002"><a xlink:title=" ">
<path fill="none" stroke="#63b8ff" d="M87.5,-176.57C87.5,-168.84 87.5,-160.41 87.5,-151.84"/>
<polygon fill="none" stroke="#63b8ff" points="84,-176.54 87.5,-186.54 91,-176.54 84,-176.54"/>
</a>
</g>
</g>
</g>
</svg>
