<?xml version="1.0" encoding="UTF-8" standalone="no"?>
<!DOCTYPE svg PUBLIC "-//W3C//DTD SVG 1.1//EN"
 "http://www.w3.org/Graphics/SVG/1.1/DTD/svg11.dtd">
<!-- Generated by graphviz version 12.1.0 (20240811.2233)
 -->
<!-- Title: ShootingAttackProjectileHandler Pages: 1 -->
<svg width="229pt" height="252pt"
 viewBox="0.00 0.00 229.06 252.00" xmlns="http://www.w3.org/2000/svg" xmlns:xlink="http://www.w3.org/1999/xlink">
<g id="graph0" class="graph" transform="scale(1 1) rotate(0) translate(4 248)">
<title>ShootingAttackProjectileHandler</title>
<!-- Node1 -->
<g id="Node000001" class="node">
<title>Node1</title>
<g id="a_Node000001"><a xlink:title=" ">
<polygon fill="#999999" stroke="none" points="153,-144 0,-144 0,0 153,0 153,-144"/>
<text text-anchor="start" x="22.88" y="-130.5" font-family="Helvetica,sans-Serif" font-size="10.00">ShootingAttackProjectile</text>
<text text-anchor="start" x="59.62" y="-118.5" font-family="Helvetica,sans-Serif" font-size="10.00">Handler</text>
<text text-anchor="start" x="75" y="-102.5" font-family="Helvetica,sans-Serif" font-size="10.00"> </text>
<text text-anchor="start" x="4" y="-86.5" font-family="Helvetica,sans-Serif" font-size="10.00">+</text>
<text text-anchor="start" x="14" y="-86.5" font-family="Helvetica,sans-Serif" font-size="10.00">override void _PhysicsProcess</text>
<text text-anchor="start" x="14" y="-74.5" font-family="Helvetica,sans-Serif" font-size="10.00">(double delta)</text>
<text text-anchor="start" x="4" y="-58.5" font-family="Helvetica,sans-Serif" font-size="10.00">+</text>
<text text-anchor="start" x="14" y="-58.5" font-family="Helvetica,sans-Serif" font-size="10.00">void SetAttack(Attack</text>
<text text-anchor="start" x="14" y="-46.5" font-family="Helvetica,sans-Serif" font-size="10.00"> attack)</text>
<text text-anchor="start" x="4" y="-30.5" font-family="Helvetica,sans-Serif" font-size="10.00">+</text>
<text text-anchor="start" x="14" y="-30.5" font-family="Helvetica,sans-Serif" font-size="10.00">void StartShootingAttack</text>
<text text-anchor="start" x="14" y="-18.5" font-family="Helvetica,sans-Serif" font-size="10.00">(Attack attack, Vector2</text>
<text text-anchor="start" x="14" y="-6.5" font-family="Helvetica,sans-Serif" font-size="10.00"> unicornPosition)</text>
<polygon fill="#666666" stroke="#666666" points="0,-114 0,-114 153,-114 153,-114 0,-114"/>
<polygon fill="#666666" stroke="#666666" points="0,-98 0,-98 153,-98 153,-98 0,-98"/>
<polygon fill="none" stroke="#666666" points="0,0 0,-144 153,-144 153,0 0,0"/>
</a>
</g>
</g>
<!-- Node2 -->
<g id="Node000002" class="node">
<title>Node2</title>
<g id="a_Node000002"><a xlink:href="../../dc/d8f/class_node.html" target="_top" xlink:title=" ">
<polygon fill="white" stroke="none" points="71,-244 38,-244 38,-192 71,-192 71,-244"/>
<text text-anchor="start" x="42.88" y="-230.5" font-family="Helvetica,sans-Serif" font-size="10.00">Node</text>
<text text-anchor="start" x="53" y="-214.5" font-family="Helvetica,sans-Serif" font-size="10.00"> </text>
<text text-anchor="start" x="53" y="-198.5" font-family="Helvetica,sans-Serif" font-size="10.00"> </text>
<polygon fill="#666666" stroke="#666666" points="38,-226 38,-226 71,-226 71,-226 38,-226"/>
<polygon fill="#666666" stroke="#666666" points="38,-210 38,-210 71,-210 71,-210 38,-210"/>
<polygon fill="none" stroke="#666666" points="38,-192 38,-244 71,-244 71,-192 38,-192"/>
</a>
</g>
</g>
<!-- Node2&#45;&gt;Node1 -->
<g id="edge1_Node000001_Node000002" class="edge">
<title>Node2&#45;&gt;Node1</title>
<g id="a_edge1_Node000001_Node000002"><a xlink:title=" ">
<path fill="none" stroke="#63b8ff" d="M59.99,-181.07C61.72,-169.73 63.7,-156.77 65.67,-143.86"/>
<polygon fill="none" stroke="#63b8ff" points="56.56,-180.34 58.51,-190.75 63.48,-181.39 56.56,-180.34"/>
</a>
</g>
</g>
<!-- Node3 -->
<g id="Node000003" class="node">
<title>Node3</title>
<g id="a_Node000003"><a xlink:title=" ">
<polygon fill="white" stroke="none" points="109.5,-244 89.5,-244 89.5,-192 109.5,-192 109.5,-244"/>
<text text-anchor="start" x="94.25" y="-230.5" font-family="Helvetica,sans-Serif" font-size="10.00">int</text>
<text text-anchor="start" x="98" y="-214.5" font-family="Helvetica,sans-Serif" font-size="10.00"> </text>
<text text-anchor="start" x="98" y="-198.5" font-family="Helvetica,sans-Serif" font-size="10.00"> </text>
<polygon fill="#666666" stroke="#666666" points="89.5,-226 89.5,-226 109.5,-226 109.5,-226 89.5,-226"/>
<polygon fill="#666666" stroke="#666666" points="89.5,-210 89.5,-210 109.5,-210 109.5,-210 89.5,-210"/>
<polygon fill="none" stroke="#666666" points="89.5,-192 89.5,-244 109.5,-244 109.5,-192 89.5,-192"/>
</a>
</g>
</g>
<!-- Node3&#45;&gt;Node1 -->
<g id="edge2_Node000001_Node000003" class="edge">
<title>Node3&#45;&gt;Node1</title>
<g id="a_edge2_Node000001_Node000003"><a xlink:title=" ">
<path fill="none" stroke="#63b8ff" d="M95.55,-192.25C93.91,-182.01 91.91,-169.49 89.83,-156.46"/>
<polygon fill="none" stroke="#63b8ff" points="89.85,-156.6 84.96,-151.31 87.96,-144.75 92.86,-150.04 89.85,-156.6"/>
</a>
</g>
<text text-anchor="middle" x="156.56" y="-164.5" font-family="Helvetica,sans-Serif" font-size="10.00" fill="grey"> +AmountProjectilesToSpawn</text>
</g>
</g>
</svg>
