<?xml version="1.0" encoding="UTF-8" standalone="no"?>
<!DOCTYPE svg PUBLIC "-//W3C//DTD SVG 1.1//EN"
 "http://www.w3.org/Graphics/SVG/1.1/DTD/svg11.dtd">
<!-- Generated by graphviz version 12.1.0 (20240811.2233)
 -->
<!-- Title: Camera2D Pages: 1 -->
<svg width="125pt" height="208pt"
 viewBox="0.00 0.00 125.00 208.00" xmlns="http://www.w3.org/2000/svg" xmlns:xlink="http://www.w3.org/1999/xlink">

<svg id="main" version="1.1" xmlns="http://www.w3.org/2000/svg" xmlns:xlink="http://www.w3.org/1999/xlink" xml:space="preserve" onload="init(evt)">
<style type="text/css"><![CDATA[
.node, .edge {opacity: 0.7;}
.node.selected, .edge.selected {opacity: 1;}
.edge:hover path { stroke: red; }
.edge:hover polygon { stroke: red; fill: red; }
]]></style>
<script type="application/ecmascript" xlink:href="../../svg.min.js"/>
<svg id="graph" class="graph">
<g id="graph0" class="graph" transform="scale(1 1) rotate(0) translate(4 204)">
<title>Camera2D</title>
<!-- Node1 -->
<g id="Node000001" class="node">
<title>Node1</title>
<g id="a_Node000001"><a xlink:title=" ">
<polygon fill="#999999" stroke="none" points="87,-200 30,-200 30,-148 87,-148 87,-200"/>
<text text-anchor="start" x="34.88" y="-186.5" font-family="Helvetica,sans-Serif" font-size="10.00">Camera2D</text>
<text text-anchor="start" x="57" y="-170.5" font-family="Helvetica,sans-Serif" font-size="10.00"> </text>
<text text-anchor="start" x="57" y="-154.5" font-family="Helvetica,sans-Serif" font-size="10.00"> </text>
<polygon fill="#666666" stroke="#666666" points="30,-182 30,-182 87,-182 87,-182 30,-182"/>
<polygon fill="#666666" stroke="#666666" points="30,-166 30,-166 87,-166 87,-166 30,-166"/>
<polygon fill="none" stroke="#666666" points="30,-148 30,-200 87,-200 87,-148 30,-148"/>
</a>
</g>
</g>
<!-- Node2 -->
<g id="Node000002" class="node">
<title>Node2</title>
<g id="a_Node000002"><a xlink:href="../../d4/d3e/class_camera_controller.html" target="_top" xlink:title="This class controls the camera in the game.">
<polygon fill="white" stroke="none" points="117,-112 0,-112 0,0 117,0 117,-112"/>
<text text-anchor="start" x="20.25" y="-98.5" font-family="Helvetica,sans-Serif" font-size="10.00">CameraController</text>
<text text-anchor="start" x="4" y="-82.5" font-family="Helvetica,sans-Serif" font-size="10.00">+</text>
<text text-anchor="start" x="14" y="-82.5" font-family="Helvetica,sans-Serif" font-size="10.00">float SmoothingFactor</text>
<text text-anchor="start" x="4" y="-66.5" font-family="Helvetica,sans-Serif" font-size="10.00">+</text>
<text text-anchor="start" x="14" y="-66.5" font-family="Helvetica,sans-Serif" font-size="10.00">float MinDelta</text>
<text text-anchor="start" x="4" y="-50.5" font-family="Helvetica,sans-Serif" font-size="10.00">+</text>
<text text-anchor="start" x="14" y="-50.5" font-family="Helvetica,sans-Serif" font-size="10.00">Vector2 targetPosition</text>
<text text-anchor="start" x="4" y="-34.5" font-family="Helvetica,sans-Serif" font-size="10.00">+</text>
<text text-anchor="start" x="14" y="-34.5" font-family="Helvetica,sans-Serif" font-size="10.00">override void _Ready()</text>
<text text-anchor="start" x="4" y="-18.5" font-family="Helvetica,sans-Serif" font-size="10.00">+</text>
<text text-anchor="start" x="14" y="-18.5" font-family="Helvetica,sans-Serif" font-size="10.00">override void _Process</text>
<text text-anchor="start" x="14" y="-6.5" font-family="Helvetica,sans-Serif" font-size="10.00">(double delta)</text>
<polygon fill="#666666" stroke="#666666" points="0,-94 0,-94 117,-94 117,-94 0,-94"/>
<polygon fill="#666666" stroke="#666666" points="0,-46 0,-46 12,-46 12,-46 0,-46"/>
<polygon fill="#666666" stroke="#666666" points="12,-46 12,-46 117,-46 117,-46 12,-46"/>
<polygon fill="none" stroke="#666666" points="0,0 0,-112 117,-112 117,0 0,0"/>
</a>
</g>
</g>
<!-- Node1&#45;&gt;Node2 -->
<g id="edge1_Node000001_Node000002" class="edge">
<title>Node1&#45;&gt;Node2</title>
<g id="a_edge1_Node000001_Node000002"><a xlink:title=" ">
<path fill="none" stroke="#63b8ff" d="M58.5,-136.71C58.5,-128.82 58.5,-120.31 58.5,-111.88"/>
<polygon fill="none" stroke="#63b8ff" points="55,-136.6 58.5,-146.6 62,-136.6 55,-136.6"/>
</a>
</g>
</g>
</g>
</svg>
</svg>

<style type='text/css'>
<![CDATA[
[data-mouse-over-selected='false'] { opacity: 0.7; }
[data-mouse-over-selected='true']  { opacity: 1.0; }
]]>
</style>
<script type="application/ecmascript"><![CDATA[
document.addEventListener('DOMContentLoaded', (event) => {
  highlightEdges();
  highlightAdjacentNodes();
});
]]></script>
</svg>
