<?xml version="1.0" encoding="UTF-8" standalone="no"?>
<!DOCTYPE svg PUBLIC "-//W3C//DTD SVG 1.1//EN"
 "http://www.w3.org/Graphics/SVG/1.1/DTD/svg11.dtd">
<!-- Generated by graphviz version 12.1.0 (20240811.2233)
 -->
<!-- Title: BasicSpell Pages: 1 -->
<svg width="162pt" height="596pt"
 viewBox="0.00 0.00 162.00 596.00" xmlns="http://www.w3.org/2000/svg" xmlns:xlink="http://www.w3.org/1999/xlink">
<g id="graph0" class="graph" transform="scale(1 1) rotate(0) translate(4 592)">
<title>BasicSpell</title>
<!-- Node1 -->
<g id="Node000001" class="node">
<title>Node1</title>
<g id="a_Node000001"><a xlink:title=" ">
<polygon fill="#999999" stroke="none" points="153.5,-268 0.5,-268 0.5,0 153.5,0 153.5,-268"/>
<text text-anchor="start" x="53.75" y="-254.5" font-family="Helvetica,sans-Serif" font-size="10.00">BasicSpell</text>
<text text-anchor="start" x="4.5" y="-238.5" font-family="Helvetica,sans-Serif" font-size="10.00">+</text>
<text text-anchor="start" x="14.5" y="-238.5" font-family="Helvetica,sans-Serif" font-size="10.00">float SPEED</text>
<text text-anchor="start" x="4.5" y="-222.5" font-family="Helvetica,sans-Serif" font-size="10.00">+</text>
<text text-anchor="start" x="14.5" y="-222.5" font-family="Helvetica,sans-Serif" font-size="10.00">Color SunTrailColor</text>
<text text-anchor="start" x="4.5" y="-206.5" font-family="Helvetica,sans-Serif" font-size="10.00">+</text>
<text text-anchor="start" x="14.5" y="-206.5" font-family="Helvetica,sans-Serif" font-size="10.00">Color SunCollisionColor</text>
<text text-anchor="start" x="4.5" y="-190.5" font-family="Helvetica,sans-Serif" font-size="10.00">+</text>
<text text-anchor="start" x="14.5" y="-190.5" font-family="Helvetica,sans-Serif" font-size="10.00">Color CosmicTrailColor</text>
<text text-anchor="start" x="4.5" y="-174.5" font-family="Helvetica,sans-Serif" font-size="10.00">+</text>
<text text-anchor="start" x="14.5" y="-174.5" font-family="Helvetica,sans-Serif" font-size="10.00">Color CosmicCollisionColor</text>
<text text-anchor="start" x="4.5" y="-158.5" font-family="Helvetica,sans-Serif" font-size="10.00">+</text>
<text text-anchor="start" x="14.5" y="-158.5" font-family="Helvetica,sans-Serif" font-size="10.00">Color DarkTrailColor</text>
<text text-anchor="start" x="4.5" y="-142.5" font-family="Helvetica,sans-Serif" font-size="10.00">+</text>
<text text-anchor="start" x="14.5" y="-142.5" font-family="Helvetica,sans-Serif" font-size="10.00">Color DarkCollisionColor</text>
<text text-anchor="start" x="4.5" y="-126.5" font-family="Helvetica,sans-Serif" font-size="10.00">+</text>
<text text-anchor="start" x="14.5" y="-126.5" font-family="Helvetica,sans-Serif" font-size="10.00">override void Init</text>
<text text-anchor="start" x="14.5" y="-114.5" font-family="Helvetica,sans-Serif" font-size="10.00">(Attack attack, Vector2</text>
<text text-anchor="start" x="14.5" y="-102.5" font-family="Helvetica,sans-Serif" font-size="10.00"> playerPosition, Vector2</text>
<text text-anchor="start" x="14.5" y="-90.5" font-family="Helvetica,sans-Serif" font-size="10.00"> targetPosition)</text>
<text text-anchor="start" x="4.5" y="-74.5" font-family="Helvetica,sans-Serif" font-size="10.00">+</text>
<text text-anchor="start" x="14.5" y="-74.5" font-family="Helvetica,sans-Serif" font-size="10.00">override void _PhysicsProcess</text>
<text text-anchor="start" x="14.5" y="-62.5" font-family="Helvetica,sans-Serif" font-size="10.00">(double delta)</text>
<text text-anchor="start" x="4.5" y="-46.5" font-family="Helvetica,sans-Serif" font-size="10.00">+</text>
<text text-anchor="start" x="14.5" y="-46.5" font-family="Helvetica,sans-Serif" font-size="10.00">override void OnAreaEntered</text>
<text text-anchor="start" x="14.5" y="-34.5" font-family="Helvetica,sans-Serif" font-size="10.00">(Area2D area)</text>
<text text-anchor="start" x="4.5" y="-18.5" font-family="Helvetica,sans-Serif" font-size="10.00">+</text>
<text text-anchor="start" x="14.5" y="-18.5" font-family="Helvetica,sans-Serif" font-size="10.00">void OnBodyEntered</text>
<text text-anchor="start" x="14.5" y="-6.5" font-family="Helvetica,sans-Serif" font-size="10.00">(Node2D body)</text>
<polygon fill="#666666" stroke="#666666" points="0.5,-250 0.5,-250 153.5,-250 153.5,-250 0.5,-250"/>
<polygon fill="#666666" stroke="#666666" points="0.5,-138 0.5,-138 12.5,-138 12.5,-138 0.5,-138"/>
<polygon fill="#666666" stroke="#666666" points="12.5,-138 12.5,-138 153.5,-138 153.5,-138 12.5,-138"/>
<polygon fill="none" stroke="#666666" points="0.5,0 0.5,-268 153.5,-268 153.5,0 0.5,0"/>
</a>
</g>
</g>
<!-- Node2 -->
<g id="Node000002" class="node">
<title>Node2</title>
<g id="a_Node000002"><a xlink:href="../../d8/d0d/class_spell.html" target="_top" xlink:title=" ">
<polygon fill="white" stroke="none" points="154,-500 0,-500 0,-304 154,-304 154,-500"/>
<text text-anchor="start" x="66.12" y="-486.5" font-family="Helvetica,sans-Serif" font-size="10.00">Spell</text>
<text text-anchor="start" x="4" y="-470.5" font-family="Helvetica,sans-Serif" font-size="10.00">+</text>
<text text-anchor="start" x="14" y="-470.5" font-family="Helvetica,sans-Serif" font-size="10.00">double MaxLifeTimeInSeconds</text>
<text text-anchor="start" x="4" y="-454.5" font-family="Helvetica,sans-Serif" font-size="10.00">+</text>
<text text-anchor="start" x="14" y="-454.5" font-family="Helvetica,sans-Serif" font-size="10.00">double _timeLeftUntilDeletion</text>
<text text-anchor="start" x="4.38" y="-438.5" font-family="Helvetica,sans-Serif" font-size="10.00">#</text>
<text text-anchor="start" x="14" y="-438.5" font-family="Helvetica,sans-Serif" font-size="10.00">Attack _attack</text>
<text text-anchor="start" x="4" y="-422.5" font-family="Helvetica,sans-Serif" font-size="10.00">+</text>
<text text-anchor="start" x="14" y="-422.5" font-family="Helvetica,sans-Serif" font-size="10.00">override void _Ready()</text>
<text text-anchor="start" x="4" y="-406.5" font-family="Helvetica,sans-Serif" font-size="10.00">+</text>
<text text-anchor="start" x="14" y="-406.5" font-family="Helvetica,sans-Serif" font-size="10.00">virtual void Init(Attack</text>
<text text-anchor="start" x="14" y="-394.5" font-family="Helvetica,sans-Serif" font-size="10.00"> attack, Vector2 playerPosition,</text>
<text text-anchor="start" x="14" y="-382.5" font-family="Helvetica,sans-Serif" font-size="10.00"> Vector2 targetPosition)</text>
<text text-anchor="start" x="4" y="-366.5" font-family="Helvetica,sans-Serif" font-size="10.00">+</text>
<text text-anchor="start" x="14" y="-366.5" font-family="Helvetica,sans-Serif" font-size="10.00">override void _PhysicsProcess</text>
<text text-anchor="start" x="14" y="-354.5" font-family="Helvetica,sans-Serif" font-size="10.00">(double delta)</text>
<text text-anchor="start" x="4" y="-338.5" font-family="Helvetica,sans-Serif" font-size="10.00">+</text>
<text text-anchor="start" x="14" y="-338.5" font-family="Helvetica,sans-Serif" font-size="10.00">virtual void OnAreaEntered</text>
<text text-anchor="start" x="14" y="-326.5" font-family="Helvetica,sans-Serif" font-size="10.00">(Area2D area)</text>
<text text-anchor="start" x="4" y="-310.5" font-family="Helvetica,sans-Serif" font-size="10.00">+</text>
<text text-anchor="start" x="14" y="-310.5" font-family="Helvetica,sans-Serif" font-size="10.00">double GetTimeUntilDeleteion()</text>
<polygon fill="#666666" stroke="#666666" points="0,-482 0,-482 154,-482 154,-482 0,-482"/>
<polygon fill="#666666" stroke="#666666" points="0,-434 0,-434 12,-434 12,-434 0,-434"/>
<polygon fill="#666666" stroke="#666666" points="12,-434 12,-434 154,-434 154,-434 12,-434"/>
<polygon fill="none" stroke="#666666" points="0,-304 0,-500 154,-500 154,-304 0,-304"/>
</a>
</g>
</g>
<!-- Node2&#45;&gt;Node1 -->
<g id="edge1_Node000001_Node000002" class="edge">
<title>Node2&#45;&gt;Node1</title>
<g id="a_edge1_Node000001_Node000002"><a xlink:title=" ">
<path fill="none" stroke="#63b8ff" d="M77,-292.96C77,-284.64 77,-276.19 77,-267.73"/>
<polygon fill="none" stroke="#63b8ff" points="73.5,-292.7 77,-302.7 80.5,-292.7 73.5,-292.7"/>
</a>
</g>
</g>
<!-- Node3 -->
<g id="Node000003" class="node">
<title>Node3</title>
<g id="a_Node000003"><a xlink:href="../../dc/df8/class_area2_d.html" target="_top" xlink:title=" ">
<polygon fill="white" stroke="none" points="98.5,-588 55.5,-588 55.5,-536 98.5,-536 98.5,-588"/>
<text text-anchor="start" x="60.5" y="-574.5" font-family="Helvetica,sans-Serif" font-size="10.00">Area2D</text>
<text text-anchor="start" x="75.5" y="-558.5" font-family="Helvetica,sans-Serif" font-size="10.00"> </text>
<text text-anchor="start" x="75.5" y="-542.5" font-family="Helvetica,sans-Serif" font-size="10.00"> </text>
<polygon fill="#666666" stroke="#666666" points="55.5,-570 55.5,-570 98.5,-570 98.5,-570 55.5,-570"/>
<polygon fill="#666666" stroke="#666666" points="55.5,-554 55.5,-554 98.5,-554 98.5,-554 55.5,-554"/>
<polygon fill="none" stroke="#666666" points="55.5,-536 55.5,-588 98.5,-588 98.5,-536 55.5,-536"/>
</a>
</g>
</g>
<!-- Node3&#45;&gt;Node2 -->
<g id="edge2_Node000002_Node000003" class="edge">
<title>Node3&#45;&gt;Node2</title>
<g id="a_edge2_Node000002_Node000003"><a xlink:title=" ">
<path fill="none" stroke="#63b8ff" d="M77,-524.88C77,-517.15 77,-508.63 77,-499.8"/>
<polygon fill="none" stroke="#63b8ff" points="73.5,-524.8 77,-534.8 80.5,-524.8 73.5,-524.8"/>
</a>
</g>
</g>
</g>
</svg>
