<?xml version="1.0" encoding="UTF-8" standalone="no"?>
<!DOCTYPE svg PUBLIC "-//W3C//DTD SVG 1.1//EN"
 "http://www.w3.org/Graphics/SVG/1.1/DTD/svg11.dtd">
<!-- Generated by graphviz version 12.1.0 (20240811.2233)
 -->
<!-- Title: AugmentEffectSelector Pages: 1 -->
<svg width="136pt" height="160pt"
 viewBox="0.00 0.00 136.00 160.00" xmlns="http://www.w3.org/2000/svg" xmlns:xlink="http://www.w3.org/1999/xlink">

<svg id="main" version="1.1" xmlns="http://www.w3.org/2000/svg" xmlns:xlink="http://www.w3.org/1999/xlink" xml:space="preserve" onload="init(evt)">
<style type="text/css"><![CDATA[
.node, .edge {opacity: 0.7;}
.node.selected, .edge.selected {opacity: 1;}
.edge:hover path { stroke: red; }
.edge:hover polygon { stroke: red; fill: red; }
]]></style>
<script type="application/ecmascript" xlink:href="../../svg.min.js"/>
<svg id="graph" class="graph">
<g id="graph0" class="graph" transform="scale(1 1) rotate(0) translate(4 156)">
<title>AugmentEffectSelector</title>
<!-- Node1 -->
<g id="Node000001" class="node">
<title>Node1</title>
<g id="a_Node000001"><a xlink:title=" ">
<polygon fill="#999999" stroke="none" points="128,-64 0,-64 0,0 128,0 128,-64"/>
<text text-anchor="start" x="13.75" y="-50.5" font-family="Helvetica,sans-Serif" font-size="10.00">AugmentEffectSelector</text>
<text text-anchor="start" x="62.5" y="-34.5" font-family="Helvetica,sans-Serif" font-size="10.00"> </text>
<text text-anchor="start" x="4" y="-18.5" font-family="Helvetica,sans-Serif" font-size="10.00">+</text>
<text text-anchor="start" x="14" y="-18.5" font-family="Helvetica,sans-Serif" font-size="10.00">void SelectAugment</text>
<text text-anchor="start" x="14" y="-6.5" font-family="Helvetica,sans-Serif" font-size="10.00">(Augment augment, int _)</text>
<polygon fill="#666666" stroke="#666666" points="0,-46 0,-46 128,-46 128,-46 0,-46"/>
<polygon fill="#666666" stroke="#666666" points="0,-30 0,-30 128,-30 128,-30 0,-30"/>
<polygon fill="none" stroke="#666666" points="0,0 0,-64 128,-64 128,0 0,0"/>
</a>
</g>
</g>
<!-- Node2 -->
<g id="Node000002" class="node">
<title>Node2</title>
<g id="a_Node000002"><a xlink:href="../../df/d33/class_option_button.html" target="_top" xlink:title=" ">
<polygon fill="white" stroke="none" points="97.5,-152 30.5,-152 30.5,-100 97.5,-100 97.5,-152"/>
<text text-anchor="start" x="35.5" y="-138.5" font-family="Helvetica,sans-Serif" font-size="10.00">OptionButton</text>
<text text-anchor="start" x="62.5" y="-122.5" font-family="Helvetica,sans-Serif" font-size="10.00"> </text>
<text text-anchor="start" x="62.5" y="-106.5" font-family="Helvetica,sans-Serif" font-size="10.00"> </text>
<polygon fill="#666666" stroke="#666666" points="30.5,-134 30.5,-134 97.5,-134 97.5,-134 30.5,-134"/>
<polygon fill="#666666" stroke="#666666" points="30.5,-118 30.5,-118 97.5,-118 97.5,-118 30.5,-118"/>
<polygon fill="none" stroke="#666666" points="30.5,-100 30.5,-152 97.5,-152 97.5,-100 30.5,-100"/>
</a>
</g>
</g>
<!-- Node2&#45;&gt;Node1 -->
<g id="edge1_Node000001_Node000002" class="edge">
<title>Node2&#45;&gt;Node1</title>
<g id="a_edge1_Node000001_Node000002"><a xlink:title=" ">
<path fill="none" stroke="#63b8ff" d="M64,-89.06C64,-80.78 64,-72.04 64,-63.98"/>
<polygon fill="none" stroke="#63b8ff" points="60.5,-88.83 64,-98.83 67.5,-88.83 60.5,-88.83"/>
</a>
</g>
</g>
</g>
</svg>
</svg>

<style type='text/css'>
<![CDATA[
[data-mouse-over-selected='false'] { opacity: 0.7; }
[data-mouse-over-selected='true']  { opacity: 1.0; }
]]>
</style>
<script type="application/ecmascript"><![CDATA[
document.addEventListener('DOMContentLoaded', (event) => {
  highlightEdges();
  highlightAdjacentNodes();
});
]]></script>
</svg>
