<?xml version="1.0" encoding="UTF-8" standalone="no"?>
<!DOCTYPE svg PUBLIC "-//W3C//DTD SVG 1.1//EN"
 "http://www.w3.org/Graphics/SVG/1.1/DTD/svg11.dtd">
<!-- Generated by graphviz version 12.1.0 (20240811.2233)
 -->
<!-- Title: DarkEnergyWave Pages: 1 -->
<!--zoomable 1094 -->

<svg id="main" version="1.1" xmlns="http://www.w3.org/2000/svg" xmlns:xlink="http://www.w3.org/1999/xlink" xml:space="preserve" onload="init(evt)">
<style type="text/css"><![CDATA[
.node, .edge {opacity: 0.7;}
.node.selected, .edge.selected {opacity: 1;}
.edge:hover path { stroke: red; }
.edge:hover polygon { stroke: red; fill: red; }
]]></style>

<defs>
  <circle id="rim" cx="0" cy="0" r="7"/>
  <circle id="rim2" cx="0" cy="0" r="3.5"/>
  <g id="zoomPlus">
    <use xlink:href="#rim" fill="#404040"><set attributeName="fill" to="#808080" begin="zoomplus.mouseover" end="zoomplus.mouseout"/></use>
    <path d="M-4,0h8M0,-4v8" fill="none" stroke="white" stroke-width="1.5" pointer-events="none"/>
  </g>
  <g id="zoomMin">
    <use xlink:href="#rim" fill="#404040"><set attributeName="fill" to="#808080" begin="zoomminus.mouseover" end="zoomminus.mouseout"/></use>
    <path d="M-4,0h8" fill="none" stroke="white" stroke-width="1.5" pointer-events="none"/>
  </g>
  <g id="arrowUp" transform="translate(30 24)">
    <use xlink:href="#rim"/>
    <path pointer-events="none" fill="none" stroke="white" stroke-width="1.5" d="M0,-3.0v7 M-2.5,-0.5L0,-3.0L2.5,-0.5"/>
  </g>
  <g id="arrowRight" transform="rotate(90) translate(36 -43)">
    <use xlink:href="#rim"/>
    <path pointer-events="none" fill="none" stroke="white" stroke-width="1.5" d="M0,-3.0v7 M-2.5,-0.5L0,-3.0L2.5,-0.5"/>
  </g>
  <g id="arrowDown" transform="rotate(180) translate(-30 -48)">
    <use xlink:href="#rim"/>
    <path pointer-events="none" fill="none" stroke="white" stroke-width="1.5" d="M0,-3.0v7 M-2.5,-0.5L0,-3.0L2.5,-0.5"/>
  </g>
  <g id="arrowLeft" transform="rotate(270) translate(-36 17)">
    <use xlink:href="#rim"/>
    <path pointer-events="none" fill="none" stroke="white" stroke-width="1.5" d="M0,-3.0v7 M-2.5,-0.5L0,-3.0L2.5,-0.5"/>
  </g>
  <g id="resetDef">
    <use xlink:href="#rim2" fill="#404040"><set attributeName="fill" to="#808080" begin="reset.mouseover" end="reset.mouseout"/></use>
  </g>
</defs>
<script type="application/ecmascript">
var viewWidth = 408;
var viewHeight = 1094;
var sectionId = 'dynsection-1';
</script>
<script type="application/ecmascript" xlink:href="../../svg.min.js"/>
<svg id="graph" class="graph">
<g id="viewport">
<title>DarkEnergyWave</title>
<!-- Node1 -->
<g id="Node000001" class="node">
<title>Node1</title>
<g id="a_Node000001"><a xlink:title=" ">
<polygon fill="#999999" stroke="none" points="153.5,-144 0.5,-144 0.5,0 153.5,0 153.5,-144"/>
<text text-anchor="start" x="38.75" y="-130.5" font-family="Helvetica,sans-Serif" font-size="10.00">DarkEnergyWave</text>
<text text-anchor="start" x="75.5" y="-114.5" font-family="Helvetica,sans-Serif" font-size="10.00"> </text>
<text text-anchor="start" x="4.5" y="-98.5" font-family="Helvetica,sans-Serif" font-size="10.00">+</text>
<text text-anchor="start" x="14.5" y="-98.5" font-family="Helvetica,sans-Serif" font-size="10.00">override void Init</text>
<text text-anchor="start" x="14.5" y="-86.5" font-family="Helvetica,sans-Serif" font-size="10.00">(Attack attack, Vector2</text>
<text text-anchor="start" x="14.5" y="-74.5" font-family="Helvetica,sans-Serif" font-size="10.00"> playerPosition, Vector2</text>
<text text-anchor="start" x="14.5" y="-62.5" font-family="Helvetica,sans-Serif" font-size="10.00"> targetPosition)</text>
<text text-anchor="start" x="4.5" y="-46.5" font-family="Helvetica,sans-Serif" font-size="10.00">+</text>
<text text-anchor="start" x="14.5" y="-46.5" font-family="Helvetica,sans-Serif" font-size="10.00">override void _PhysicsProcess</text>
<text text-anchor="start" x="14.5" y="-34.5" font-family="Helvetica,sans-Serif" font-size="10.00">(double delta)</text>
<text text-anchor="start" x="4.5" y="-18.5" font-family="Helvetica,sans-Serif" font-size="10.00">+</text>
<text text-anchor="start" x="14.5" y="-18.5" font-family="Helvetica,sans-Serif" font-size="10.00">override void OnAreaEntered</text>
<text text-anchor="start" x="14.5" y="-6.5" font-family="Helvetica,sans-Serif" font-size="10.00">(Area2D area)</text>
<polygon fill="#666666" stroke="#666666" points="0.5,-126 0.5,-126 153.5,-126 153.5,-126 0.5,-126"/>
<polygon fill="#666666" stroke="#666666" points="0.5,-110 0.5,-110 153.5,-110 153.5,-110 0.5,-110"/>
<polygon fill="none" stroke="#666666" points="0.5,0 0.5,-144 153.5,-144 153.5,0 0.5,0"/>
</a>
</g>
</g>
<!-- Node2 -->
<g id="Node000002" class="node">
<title>Node2</title>
<g id="a_Node000002"><a xlink:href="../../d8/d0d/class_spell.html" target="_top" xlink:title=" ">
<polygon fill="white" stroke="none" points="154,-345 0,-345 0,-181 154,-181 154,-345"/>
<text text-anchor="start" x="66.12" y="-331.5" font-family="Helvetica,sans-Serif" font-size="10.00">Spell</text>
<text text-anchor="start" x="75.5" y="-315.5" font-family="Helvetica,sans-Serif" font-size="10.00"> </text>
<text text-anchor="start" x="4" y="-299.5" font-family="Helvetica,sans-Serif" font-size="10.00">+</text>
<text text-anchor="start" x="14" y="-299.5" font-family="Helvetica,sans-Serif" font-size="10.00">override void _Ready()</text>
<text text-anchor="start" x="4" y="-283.5" font-family="Helvetica,sans-Serif" font-size="10.00">+</text>
<text text-anchor="start" x="14" y="-283.5" font-family="Helvetica,sans-Serif" font-size="10.00">virtual void Init(Attack</text>
<text text-anchor="start" x="14" y="-271.5" font-family="Helvetica,sans-Serif" font-size="10.00"> attack, Vector2 playerPosition,</text>
<text text-anchor="start" x="14" y="-259.5" font-family="Helvetica,sans-Serif" font-size="10.00"> Vector2 targetPosition)</text>
<text text-anchor="start" x="4" y="-243.5" font-family="Helvetica,sans-Serif" font-size="10.00">+</text>
<text text-anchor="start" x="14" y="-243.5" font-family="Helvetica,sans-Serif" font-size="10.00">override void _PhysicsProcess</text>
<text text-anchor="start" x="14" y="-231.5" font-family="Helvetica,sans-Serif" font-size="10.00">(double delta)</text>
<text text-anchor="start" x="4" y="-215.5" font-family="Helvetica,sans-Serif" font-size="10.00">+</text>
<text text-anchor="start" x="14" y="-215.5" font-family="Helvetica,sans-Serif" font-size="10.00">virtual void OnAreaEntered</text>
<text text-anchor="start" x="14" y="-203.5" font-family="Helvetica,sans-Serif" font-size="10.00">(Area2D area)</text>
<text text-anchor="start" x="4" y="-187.5" font-family="Helvetica,sans-Serif" font-size="10.00">+</text>
<text text-anchor="start" x="14" y="-187.5" font-family="Helvetica,sans-Serif" font-size="10.00">double GetTimeUntilDeleteion()</text>
<polygon fill="#666666" stroke="#666666" points="0,-327 0,-327 154,-327 154,-327 0,-327"/>
<polygon fill="#666666" stroke="#666666" points="0,-311 0,-311 154,-311 154,-311 0,-311"/>
<polygon fill="none" stroke="#666666" points="0,-181 0,-345 154,-345 154,-181 0,-181"/>
</a>
</g>
</g>
<!-- Node2&#45;&gt;Node1 -->
<g id="edge1_Node000001_Node000002" class="edge">
<title>Node2&#45;&gt;Node1</title>
<g id="a_edge1_Node000001_Node000002"><a xlink:title=" ">
<path fill="none" stroke="#63b8ff" d="M77,-169.7C77,-161.05 77,-152.38 77,-143.98"/>
<polygon fill="none" stroke="#63b8ff" points="73.5,-169.51 77,-179.51 80.5,-169.51 73.5,-169.51"/>
</a>
</g>
</g>
<!-- Node3 -->
<g id="Node000003" class="node">
<title>Node3</title>
<g id="a_Node000003"><a xlink:href="../../dc/df8/class_area2_d.html" target="_top" xlink:title=" ">
<polygon fill="white" stroke="none" points="150.5,-947 107.5,-947 107.5,-895 150.5,-895 150.5,-947"/>
<text text-anchor="start" x="112.5" y="-933.5" font-family="Helvetica,sans-Serif" font-size="10.00">Area2D</text>
<text text-anchor="start" x="127.5" y="-917.5" font-family="Helvetica,sans-Serif" font-size="10.00"> </text>
<text text-anchor="start" x="127.5" y="-901.5" font-family="Helvetica,sans-Serif" font-size="10.00"> </text>
<polygon fill="#666666" stroke="#666666" points="107.5,-929 107.5,-929 150.5,-929 150.5,-929 107.5,-929"/>
<polygon fill="#666666" stroke="#666666" points="107.5,-913 107.5,-913 150.5,-913 150.5,-913 107.5,-913"/>
<polygon fill="none" stroke="#666666" points="107.5,-895 107.5,-947 150.5,-947 150.5,-895 107.5,-895"/>
</a>
</g>
</g>
<!-- Node3&#45;&gt;Node2 -->
<g id="edge2_Node000002_Node000003" class="edge">
<title>Node3&#45;&gt;Node2</title>
<g id="a_edge2_Node000002_Node000003"><a xlink:title=" ">
<path fill="none" stroke="#63b8ff" d="M107.57,-885.31C94.13,-861.45 78.06,-828.51 71,-797 35.81,-639.87 51.23,-450.11 64.72,-344.66"/>
<polygon fill="none" stroke="#63b8ff" points="104.53,-887.05 112.56,-893.96 110.59,-883.55 104.53,-887.05"/>
</a>
</g>
</g>
<!-- Node7 -->
<g id="Node000007" class="node">
<title>Node7</title>
<g id="a_Node000007"><a xlink:href="../../d1/da7/class_health_component.html" target="_top" xlink:title=" ">
<polygon fill="white" stroke="none" points="400,-797 218,-797 218,-533 400,-533 400,-797"/>
<text text-anchor="start" x="269.62" y="-783.5" font-family="Helvetica,sans-Serif" font-size="10.00">HealthComponent</text>
<text text-anchor="start" x="307.5" y="-767.5" font-family="Helvetica,sans-Serif" font-size="10.00"> </text>
<text text-anchor="start" x="222" y="-751.5" font-family="Helvetica,sans-Serif" font-size="10.00">+</text>
<text text-anchor="start" x="232" y="-751.5" font-family="Helvetica,sans-Serif" font-size="10.00">delegate void DeathEvent</text>
<text text-anchor="start" x="232" y="-739.5" font-family="Helvetica,sans-Serif" font-size="10.00">Handler()</text>
<text text-anchor="start" x="222" y="-723.5" font-family="Helvetica,sans-Serif" font-size="10.00">+</text>
<text text-anchor="start" x="232" y="-723.5" font-family="Helvetica,sans-Serif" font-size="10.00">override void _Ready()</text>
<text text-anchor="start" x="222" y="-707.5" font-family="Helvetica,sans-Serif" font-size="10.00">+</text>
<text text-anchor="start" x="232" y="-707.5" font-family="Helvetica,sans-Serif" font-size="10.00">void TakeDamage(Attack</text>
<text text-anchor="start" x="232" y="-695.5" font-family="Helvetica,sans-Serif" font-size="10.00"> attack)</text>
<text text-anchor="start" x="222" y="-679.5" font-family="Helvetica,sans-Serif" font-size="10.00">+</text>
<text text-anchor="start" x="232" y="-679.5" font-family="Helvetica,sans-Serif" font-size="10.00">void SetMaxHP(double</text>
<text text-anchor="start" x="232" y="-667.5" font-family="Helvetica,sans-Serif" font-size="10.00"> newMaxHP)</text>
<text text-anchor="start" x="222" y="-651.5" font-family="Helvetica,sans-Serif" font-size="10.00">+</text>
<text text-anchor="start" x="232" y="-651.5" font-family="Helvetica,sans-Serif" font-size="10.00">double GetMaxHP()</text>
<text text-anchor="start" x="222" y="-635.5" font-family="Helvetica,sans-Serif" font-size="10.00">+</text>
<text text-anchor="start" x="232" y="-635.5" font-family="Helvetica,sans-Serif" font-size="10.00">void SetArmor(double</text>
<text text-anchor="start" x="232" y="-623.5" font-family="Helvetica,sans-Serif" font-size="10.00"> armorSun, double armorCosmic,</text>
<text text-anchor="start" x="232" y="-611.5" font-family="Helvetica,sans-Serif" font-size="10.00"> double armorDark)</text>
<text text-anchor="start" x="222" y="-595.5" font-family="Helvetica,sans-Serif" font-size="10.00">+</text>
<text text-anchor="start" x="232" y="-595.5" font-family="Helvetica,sans-Serif" font-size="10.00">double GetCurrentHP()</text>
<text text-anchor="start" x="222" y="-579.5" font-family="Helvetica,sans-Serif" font-size="10.00">+</text>
<text text-anchor="start" x="232" y="-579.5" font-family="Helvetica,sans-Serif" font-size="10.00">double GetArmorOfType</text>
<text text-anchor="start" x="232" y="-567.5" font-family="Helvetica,sans-Serif" font-size="10.00">(MagicType type)</text>
<text text-anchor="start" x="222" y="-551.5" font-family="Helvetica,sans-Serif" font-size="10.00">+</text>
<text text-anchor="start" x="232" y="-551.5" font-family="Helvetica,sans-Serif" font-size="10.00">void ModifyArmor(MagicType</text>
<text text-anchor="start" x="232" y="-539.5" font-family="Helvetica,sans-Serif" font-size="10.00"> magicType, double flatArmorChange)</text>
<polygon fill="#666666" stroke="#666666" points="218,-779 218,-779 400,-779 400,-779 218,-779"/>
<polygon fill="#666666" stroke="#666666" points="218,-763 218,-763 400,-763 400,-763 218,-763"/>
<polygon fill="none" stroke="#666666" points="218,-533 218,-797 400,-797 400,-533 218,-533"/>
</a>
</g>
</g>
<!-- Node3&#45;&gt;Node7 -->
<g id="edge7_Node000007_Node000003" class="edge">
<title>Node3&#45;&gt;Node7</title>
<g id="a_edge7_Node000007_Node000003"><a xlink:title=" ">
<path fill="none" stroke="#63b8ff" d="M153.2,-885.85C170.2,-861.86 194.1,-828.13 218.09,-794.28"/>
<polygon fill="none" stroke="#63b8ff" points="150.39,-883.77 147.46,-893.95 156.1,-887.81 150.39,-883.77"/>
</a>
</g>
</g>
<!-- Node4 -->
<g id="Node000004" class="node">
<title>Node4</title>
<g id="a_Node000004"><a xlink:href="../../d9/db7/class_attack.html" target="_top" xlink:title=" ">
<polygon fill="white" stroke="none" points="381,-485 207,-485 207,-393 381,-393 381,-485"/>
<text text-anchor="start" x="279.75" y="-471.5" font-family="Helvetica,sans-Serif" font-size="10.00">Attack</text>
<text text-anchor="start" x="292.5" y="-455.5" font-family="Helvetica,sans-Serif" font-size="10.00"> </text>
<text text-anchor="start" x="211" y="-439.5" font-family="Helvetica,sans-Serif" font-size="10.00">+</text>
<text text-anchor="start" x="221" y="-439.5" font-family="Helvetica,sans-Serif" font-size="10.00">Attack(double damageValue,</text>
<text text-anchor="start" x="221" y="-427.5" font-family="Helvetica,sans-Serif" font-size="10.00"> MagicType type, HealthComponent</text>
<text text-anchor="start" x="221" y="-415.5" font-family="Helvetica,sans-Serif" font-size="10.00"> attackerNode)</text>
<text text-anchor="start" x="211" y="-399.5" font-family="Helvetica,sans-Serif" font-size="10.00">+</text>
<text text-anchor="start" x="221" y="-399.5" font-family="Helvetica,sans-Serif" font-size="10.00">Attack(Attack attack)</text>
<polygon fill="#666666" stroke="#666666" points="207,-467 207,-467 381,-467 381,-467 207,-467"/>
<polygon fill="#666666" stroke="#666666" points="207,-451 207,-451 381,-451 381,-451 207,-451"/>
<polygon fill="none" stroke="#666666" points="207,-393 207,-485 381,-485 381,-393 207,-393"/>
</a>
</g>
</g>
<!-- Node4&#45;&gt;Node2 -->
<g id="edge3_Node000002_Node000004" class="edge">
<title>Node4&#45;&gt;Node2</title>
<g id="a_edge3_Node000002_Node000004"><a xlink:title=" ">
<path fill="none" stroke="#63b8ff" d="M238.12,-393.19C215.5,-375.06 188.86,-353.7 163.83,-333.62"/>
<polygon fill="none" stroke="#63b8ff" points="164.02,-333.78 156.84,-333.14 154.66,-326.27 161.84,-326.9 164.02,-333.78"/>
</a>
</g>
<text text-anchor="middle" x="231.57" y="-365.5" font-family="Helvetica,sans-Serif" font-size="10.00" fill="grey"> #_attack</text>
</g>
<!-- Node5 -->
<g id="Node000005" class="node">
<title>Node5</title>
<g id="a_Node000005"><a xlink:title=" ">
<polygon fill="white" stroke="none" points="118,-691 80,-691 80,-639 118,-639 118,-691"/>
<text text-anchor="start" x="84.75" y="-677.5" font-family="Helvetica,sans-Serif" font-size="10.00">double</text>
<text text-anchor="start" x="97.5" y="-661.5" font-family="Helvetica,sans-Serif" font-size="10.00"> </text>
<text text-anchor="start" x="97.5" y="-645.5" font-family="Helvetica,sans-Serif" font-size="10.00"> </text>
<polygon fill="#666666" stroke="#666666" points="80,-673 80,-673 118,-673 118,-673 80,-673"/>
<polygon fill="#666666" stroke="#666666" points="80,-657 80,-657 118,-657 118,-657 80,-657"/>
<polygon fill="none" stroke="#666666" points="80,-639 80,-691 118,-691 118,-639 80,-639"/>
</a>
</g>
</g>
<!-- Node5&#45;&gt;Node2 -->
<g id="edge10_Node000002_Node000005" class="edge">
<title>Node5&#45;&gt;Node2</title>
<g id="a_edge10_Node000002_Node000005"><a xlink:title=" ">
<path fill="none" stroke="#63b8ff" d="M97,-639.11C94.27,-604.55 89.36,-540.06 86.25,-485 83.89,-443.23 81.86,-396.99 80.31,-357.64"/>
<polygon fill="none" stroke="#63b8ff" points="80.32,-357.74 76.09,-351.9 79.85,-345.75 84.08,-351.59 80.32,-357.74"/>
</a>
</g>
<text text-anchor="middle" x="142.12" y="-441.5" font-family="Helvetica,sans-Serif" font-size="10.00" fill="grey"> +MaxLifeTimeInSeconds</text>
<text text-anchor="middle" x="142.12" y="-429.5" font-family="Helvetica,sans-Serif" font-size="10.00" fill="grey">+_timeLeftUntilDeletion</text>
</g>
<!-- Node5&#45;&gt;Node4 -->
<g id="edge4_Node000004_Node000005" class="edge">
<title>Node5&#45;&gt;Node4</title>
<g id="a_edge4_Node000004_Node000005"><a xlink:title=" ">
<path fill="none" stroke="#63b8ff" d="M100.47,-639C103.19,-611 110.93,-565.3 133,-533 141.92,-519.94 167.6,-503.25 195.91,-487.63"/>
<polygon fill="none" stroke="#63b8ff" points="195.94,-487.61 199.31,-481.24 206.49,-481.9 203.12,-488.27 195.94,-487.61"/>
</a>
</g>
<text text-anchor="middle" x="187.81" y="-505.5" font-family="Helvetica,sans-Serif" font-size="10.00" fill="grey"> +damage</text>
</g>
<!-- Node6 -->
<g id="Node000006" class="node">
<title>Node6</title>
<g id="a_Node000006"><a xlink:title=" ">
<polygon fill="white" stroke="none" points="199.5,-691 142.5,-691 142.5,-639 199.5,-639 199.5,-691"/>
<text text-anchor="start" x="147.38" y="-677.5" font-family="Helvetica,sans-Serif" font-size="10.00">MagicType</text>
<text text-anchor="start" x="169.5" y="-661.5" font-family="Helvetica,sans-Serif" font-size="10.00"> </text>
<text text-anchor="start" x="169.5" y="-645.5" font-family="Helvetica,sans-Serif" font-size="10.00"> </text>
<polygon fill="#666666" stroke="#666666" points="142.5,-673 142.5,-673 199.5,-673 199.5,-673 142.5,-673"/>
<polygon fill="#666666" stroke="#666666" points="142.5,-657 142.5,-657 199.5,-657 199.5,-657 142.5,-657"/>
<polygon fill="none" stroke="#666666" points="142.5,-639 142.5,-691 199.5,-691 199.5,-639 142.5,-639"/>
</a>
</g>
</g>
<!-- Node6&#45;&gt;Node4 -->
<g id="edge5_Node000004_Node000006" class="edge">
<title>Node6&#45;&gt;Node4</title>
<g id="a_edge5_Node000004_Node000006"><a xlink:title=" ">
<path fill="none" stroke="#63b8ff" d="M174.74,-639.03C179.62,-611.64 189.88,-567.07 209,-533 216.53,-519.59 226.33,-506.53 236.59,-494.64"/>
<polygon fill="none" stroke="#63b8ff" points="236.67,-494.55 237.7,-487.41 244.68,-485.61 243.66,-492.75 236.67,-494.55"/>
</a>
</g>
<text text-anchor="middle" x="256.49" y="-505.5" font-family="Helvetica,sans-Serif" font-size="10.00" fill="grey"> +magicType</text>
</g>
<!-- Node7&#45;&gt;Node4 -->
<g id="edge6_Node000004_Node000007" class="edge">
<title>Node7&#45;&gt;Node4</title>
<g id="a_edge6_Node000004_Node000007"><a xlink:title=" ">
<path fill="none" stroke="#63b8ff" d="M300.23,-533.05C299.41,-520.8 298.61,-508.86 297.87,-497.84"/>
<polygon fill="none" stroke="#63b8ff" points="297.87,-497.77 293.48,-492.05 297.07,-485.8 301.46,-491.52 297.87,-497.77"/>
</a>
</g>
<text text-anchor="middle" x="320.98" y="-505.5" font-family="Helvetica,sans-Serif" font-size="10.00" fill="grey"> +attacker</text>
</g>
<!-- Node8 -->
<g id="Node000008" class="node">
<title>Node8</title>
<g id="a_Node000008"><a xlink:href="../../d7/dca/class_healthbar.html" target="_top" xlink:title=" ">
<polygon fill="white" stroke="none" points="367.5,-997 250.5,-997 250.5,-845 367.5,-845 367.5,-997"/>
<text text-anchor="start" x="288" y="-983.5" font-family="Helvetica,sans-Serif" font-size="10.00">Healthbar</text>
<text text-anchor="start" x="307.5" y="-967.5" font-family="Helvetica,sans-Serif" font-size="10.00"> </text>
<text text-anchor="start" x="254.5" y="-951.5" font-family="Helvetica,sans-Serif" font-size="10.00">+</text>
<text text-anchor="start" x="264.5" y="-951.5" font-family="Helvetica,sans-Serif" font-size="10.00">override void _Ready()</text>
<text text-anchor="start" x="254.5" y="-935.5" font-family="Helvetica,sans-Serif" font-size="10.00">+</text>
<text text-anchor="start" x="264.5" y="-935.5" font-family="Helvetica,sans-Serif" font-size="10.00">override void _Process</text>
<text text-anchor="start" x="264.5" y="-923.5" font-family="Helvetica,sans-Serif" font-size="10.00">(double delta)</text>
<text text-anchor="start" x="254.5" y="-907.5" font-family="Helvetica,sans-Serif" font-size="10.00">+</text>
<text text-anchor="start" x="264.5" y="-907.5" font-family="Helvetica,sans-Serif" font-size="10.00">void InitHealthbar</text>
<text text-anchor="start" x="264.5" y="-895.5" font-family="Helvetica,sans-Serif" font-size="10.00">(double health)</text>
<text text-anchor="start" x="254.5" y="-879.5" font-family="Helvetica,sans-Serif" font-size="10.00">+</text>
<text text-anchor="start" x="264.5" y="-879.5" font-family="Helvetica,sans-Serif" font-size="10.00">void SetHealthPoints</text>
<text text-anchor="start" x="264.5" y="-867.5" font-family="Helvetica,sans-Serif" font-size="10.00">(double newHealth)</text>
<text text-anchor="start" x="254.5" y="-851.5" font-family="Helvetica,sans-Serif" font-size="10.00">+</text>
<text text-anchor="start" x="264.5" y="-851.5" font-family="Helvetica,sans-Serif" font-size="10.00">void OnTimerTimeout()</text>
<polygon fill="#666666" stroke="#666666" points="250.5,-979 250.5,-979 367.5,-979 367.5,-979 250.5,-979"/>
<polygon fill="#666666" stroke="#666666" points="250.5,-963 250.5,-963 367.5,-963 367.5,-963 250.5,-963"/>
<polygon fill="none" stroke="#666666" points="250.5,-845 250.5,-997 367.5,-997 367.5,-845 250.5,-845"/>
</a>
</g>
</g>
<!-- Node8&#45;&gt;Node7 -->
<g id="edge8_Node000007_Node000008" class="edge">
<title>Node8&#45;&gt;Node7</title>
<g id="a_edge8_Node000007_Node000008"><a xlink:title=" ">
<path fill="none" stroke="#63b8ff" d="M309,-845.17C309,-833.87 309,-821.91 309,-809.74"/>
<polygon fill="none" stroke="#63b8ff" points="309,-809.9 305,-803.9 309,-797.9 313,-803.9 309,-809.9"/>
</a>
</g>
<text text-anchor="middle" x="333.38" y="-817.5" font-family="Helvetica,sans-Serif" font-size="10.00" fill="grey"> +healthbar</text>
</g>
<!-- Node9 -->
<g id="Node000009" class="node">
<title>Node9</title>
<g id="a_Node000009"><a xlink:title=" ">
<polygon fill="white" stroke="none" points="357,-1086 261,-1086 261,-1034 357,-1034 357,-1086"/>
<text text-anchor="start" x="265.88" y="-1072.5" font-family="Helvetica,sans-Serif" font-size="10.00">TextureProgressBar</text>
<text text-anchor="start" x="307.5" y="-1056.5" font-family="Helvetica,sans-Serif" font-size="10.00"> </text>
<text text-anchor="start" x="307.5" y="-1040.5" font-family="Helvetica,sans-Serif" font-size="10.00"> </text>
<polygon fill="#666666" stroke="#666666" points="261,-1068 261,-1068 357,-1068 357,-1068 261,-1068"/>
<polygon fill="#666666" stroke="#666666" points="261,-1052 261,-1052 357,-1052 357,-1052 261,-1052"/>
<polygon fill="none" stroke="#666666" points="261,-1034 261,-1086 357,-1086 357,-1034 261,-1034"/>
</a>
</g>
</g>
<!-- Node9&#45;&gt;Node8 -->
<g id="edge9_Node000008_Node000009" class="edge">
<title>Node9&#45;&gt;Node8</title>
<g id="a_edge9_Node000008_Node000009"><a xlink:title=" ">
<path fill="none" stroke="#63b8ff" d="M309,-1022.92C309,-1014.8 309,-1005.88 309,-996.81"/>
<polygon fill="none" stroke="#63b8ff" points="305.5,-1022.68 309,-1032.68 312.5,-1022.68 305.5,-1022.68"/>
</a>
</g>
</g>
</g>
</svg>

<g id="navigator" transform="translate(0 0)" fill="#404254">
  <rect fill="#f2f5e9" fill-opacity="0.5" stroke="#606060" stroke-width=".5" x="0" y="0" width="60" height="60"/>
  <use id="zoomplus" xlink:href="#zoomPlus" x="17" y="9" onmousedown="handleZoom(evt,'in')"/>
  <use id="zoomminus" xlink:href="#zoomMin" x="42" y="9" onmousedown="handleZoom(evt,'out')"/>
  <use id="reset" xlink:href="#resetDef" x="30" y="36" onmousedown="handleReset()"/>
   <use id="arrowup" xlink:href="#arrowUp" x="0" y="0" onmousedown="handlePan(0,-1)"/>
  <use id="arrowright" xlink:href="#arrowRight" x="0" y="0" onmousedown="handlePan(1,0)"/>
  <use id="arrowdown" xlink:href="#arrowDown" x="0" y="0" onmousedown="handlePan(0,1)"/>
  <use id="arrowleft" xlink:href="#arrowLeft" x="0" y="0" onmousedown="handlePan(-1,0)"/>
</g>
<svg viewBox="0 0 15 15" width="100%" height="30px" preserveAspectRatio="xMaxYMin meet">
 <g id="arrow_out" transform="scale(0.3 0.3)">
  <a xlink:href="class_dark_energy_wave__coll__graph_org.svg" target="_base">
   <rect id="button" ry="5" rx="5" y="6" x="6" height="38" width="38"
        fill="#f2f5e9" fill-opacity="0.5" stroke="#606060" stroke-width="1.0"/>
   <path id="arrow"
     d="M 11.500037,31.436501 C 11.940474,20.09759 22.043105,11.32322 32.158766,21.979434 L 37.068811,17.246167 C 37.068811,17.246167 37.088388,32 37.088388,32 L 22.160133,31.978069 C 22.160133,31.978069 26.997745,27.140456 26.997745,27.140456 C 18.528582,18.264221 13.291696,25.230495 11.500037,31.436501 z"
     style="fill:#404040;"/>
  </a>
 </g>
</svg>

<style type='text/css'>
<![CDATA[
[data-mouse-over-selected='false'] { opacity: 0.7; }
[data-mouse-over-selected='true']  { opacity: 1.0; }
]]>
</style>
<script type="application/ecmascript"><![CDATA[
document.addEventListener('DOMContentLoaded', (event) => {
  highlightEdges();
  highlightAdjacentNodes();
});
]]></script>
</svg>
