<?xml version="1.0" encoding="UTF-8" standalone="no"?>
<!DOCTYPE svg PUBLIC "-//W3C//DTD SVG 1.1//EN"
 "http://www.w3.org/Graphics/SVG/1.1/DTD/svg11.dtd">
<!-- Generated by graphviz version 12.1.0 (20240811.2233)
 -->
<!-- Title: FlashLightTextureGenerator Pages: 1 -->
<svg width="406pt" height="188pt"
 viewBox="0.00 0.00 405.96 188.00" xmlns="http://www.w3.org/2000/svg" xmlns:xlink="http://www.w3.org/1999/xlink">

<svg id="main" version="1.1" xmlns="http://www.w3.org/2000/svg" xmlns:xlink="http://www.w3.org/1999/xlink" xml:space="preserve" onload="init(evt)">
<style type="text/css"><![CDATA[
.node, .edge {opacity: 0.7;}
.node.selected, .edge.selected {opacity: 1;}
.edge:hover path { stroke: red; }
.edge:hover polygon { stroke: red; fill: red; }
]]></style>
<script type="application/ecmascript" xlink:href="../../svg.min.js"/>
<svg id="graph" class="graph">
<g id="graph0" class="graph" transform="scale(1 1) rotate(0) translate(4 184)">
<title>FlashLightTextureGenerator</title>
<!-- Node1 -->
<g id="Node000001" class="node">
<title>Node1</title>
<g id="a_Node000001"><a xlink:title=" ">
<polygon fill="#999999" stroke="none" points="243,-80 113,-80 113,0 243,0 243,-80"/>
<text text-anchor="start" x="118" y="-66.5" font-family="Helvetica,sans-Serif" font-size="10.00">FlashLightTextureGenerator</text>
<text text-anchor="start" x="176.5" y="-50.5" font-family="Helvetica,sans-Serif" font-size="10.00"> </text>
<text text-anchor="start" x="120" y="-34.5" font-family="Helvetica,sans-Serif" font-size="10.00">+</text>
<text text-anchor="start" x="133" y="-34.5" font-family="Helvetica,sans-Serif" font-size="10.00">override void _Ready()</text>
<text text-anchor="start" x="120" y="-18.5" font-family="Helvetica,sans-Serif" font-size="10.00">+</text>
<text text-anchor="start" x="133" y="-18.5" font-family="Helvetica,sans-Serif" font-size="10.00">override void _Process</text>
<text text-anchor="start" x="133" y="-6.5" font-family="Helvetica,sans-Serif" font-size="10.00">(double delta)</text>
<polygon fill="#666666" stroke="#666666" points="113,-62 113,-62 243,-62 243,-62 113,-62"/>
<polygon fill="#666666" stroke="#666666" points="113,-46 113,-46 243,-46 243,-46 113,-46"/>
<polygon fill="none" stroke="#666666" points="113,0 113,-80 243,-80 243,0 113,0"/>
</a>
</g>
</g>
<!-- Node2 -->
<g id="Node000002" class="node">
<title>Node2</title>
<g id="a_Node000002"><a xlink:title=" ">
<polygon fill="white" stroke="none" points="66,-180 0,-180 0,-128 66,-128 66,-180"/>
<text text-anchor="start" x="4.88" y="-166.5" font-family="Helvetica,sans-Serif" font-size="10.00">PointLight2D</text>
<text text-anchor="start" x="31.5" y="-150.5" font-family="Helvetica,sans-Serif" font-size="10.00"> </text>
<text text-anchor="start" x="31.5" y="-134.5" font-family="Helvetica,sans-Serif" font-size="10.00"> </text>
<polygon fill="#666666" stroke="#666666" points="0,-162 0,-162 66,-162 66,-162 0,-162"/>
<polygon fill="#666666" stroke="#666666" points="0,-146 0,-146 66,-146 66,-146 0,-146"/>
<polygon fill="none" stroke="#666666" points="0,-128 0,-180 66,-180 66,-128 0,-128"/>
</a>
</g>
</g>
<!-- Node2&#45;&gt;Node1 -->
<g id="edge1_Node000001_Node000002" class="edge">
<title>Node2&#45;&gt;Node1</title>
<g id="a_edge1_Node000001_Node000002"><a xlink:title=" ">
<path fill="none" stroke="#63b8ff" d="M73.03,-121.37C82.81,-113.69 93.26,-105.52 103,-98 110.64,-92.1 118.73,-85.89 126.68,-79.83"/>
<polygon fill="none" stroke="#63b8ff" points="71.16,-118.38 65.47,-127.32 75.49,-123.89 71.16,-118.38"/>
</a>
</g>
</g>
<!-- Node3 -->
<g id="Node000003" class="node">
<title>Node3</title>
<g id="a_Node000003"><a xlink:title=" ">
<polygon fill="white" stroke="none" points="104,-180 84,-180 84,-128 104,-128 104,-180"/>
<text text-anchor="start" x="88.75" y="-166.5" font-family="Helvetica,sans-Serif" font-size="10.00">int</text>
<text text-anchor="start" x="92.5" y="-150.5" font-family="Helvetica,sans-Serif" font-size="10.00"> </text>
<text text-anchor="start" x="92.5" y="-134.5" font-family="Helvetica,sans-Serif" font-size="10.00"> </text>
<polygon fill="#666666" stroke="#666666" points="84,-162 84,-162 104,-162 104,-162 84,-162"/>
<polygon fill="#666666" stroke="#666666" points="84,-146 84,-146 104,-146 104,-146 84,-146"/>
<polygon fill="none" stroke="#666666" points="84,-128 84,-180 104,-180 104,-128 84,-128"/>
</a>
</g>
</g>
<!-- Node3&#45;&gt;Node1 -->
<g id="edge2_Node000001_Node000003" class="edge">
<title>Node3&#45;&gt;Node1</title>
<g id="a_edge2_Node000001_Node000003"><a xlink:title=" ">
<path fill="none" stroke="#63b8ff" d="M99.74,-128.19C102.77,-118.27 107.15,-107.06 113.25,-98 115.18,-95.13 117.3,-92.31 119.54,-89.56"/>
<polygon fill="none" stroke="#63b8ff" points="119.55,-89.55 120.56,-82.41 127.54,-80.6 126.53,-87.74 119.55,-89.55"/>
</a>
</g>
<text text-anchor="middle" x="143.62" y="-100.5" font-family="Helvetica,sans-Serif" font-size="10.00" fill="grey"> +TextureSize</text>
</g>
<!-- Node4 -->
<g id="Node000004" class="node">
<title>Node4</title>
<g id="a_Node000004"><a xlink:title=" ">
<polygon fill="white" stroke="none" points="192,-180 164,-180 164,-128 192,-128 192,-180"/>
<text text-anchor="start" x="168.62" y="-166.5" font-family="Helvetica,sans-Serif" font-size="10.00">float</text>
<text text-anchor="start" x="176.5" y="-150.5" font-family="Helvetica,sans-Serif" font-size="10.00"> </text>
<text text-anchor="start" x="176.5" y="-134.5" font-family="Helvetica,sans-Serif" font-size="10.00"> </text>
<polygon fill="#666666" stroke="#666666" points="164,-162 164,-162 192,-162 192,-162 164,-162"/>
<polygon fill="#666666" stroke="#666666" points="164,-146 164,-146 192,-146 192,-146 164,-146"/>
<polygon fill="none" stroke="#666666" points="164,-128 164,-180 192,-180 192,-128 164,-128"/>
</a>
</g>
</g>
<!-- Node4&#45;&gt;Node1 -->
<g id="edge3_Node000001_Node000004" class="edge">
<title>Node4&#45;&gt;Node1</title>
<g id="a_edge3_Node000001_Node000004"><a xlink:title=" ">
<path fill="none" stroke="#63b8ff" d="M178,-128.14C178,-117.62 178,-104.95 178,-92.56"/>
<polygon fill="none" stroke="#63b8ff" points="178,-92.77 174,-86.77 178,-80.77 182,-86.77 178,-92.77"/>
</a>
</g>
<text text-anchor="middle" x="207.62" y="-100.5" font-family="Helvetica,sans-Serif" font-size="10.00" fill="grey"> +BeamAngle</text>
</g>
<!-- Node5 -->
<g id="Node000005" class="node">
<title>Node5</title>
<g id="a_Node000005"><a xlink:title=" ">
<polygon fill="white" stroke="none" points="276.5,-180 243.5,-180 243.5,-128 276.5,-128 276.5,-180"/>
<text text-anchor="start" x="248.38" y="-166.5" font-family="Helvetica,sans-Serif" font-size="10.00">Color</text>
<text text-anchor="start" x="258.5" y="-150.5" font-family="Helvetica,sans-Serif" font-size="10.00"> </text>
<text text-anchor="start" x="258.5" y="-134.5" font-family="Helvetica,sans-Serif" font-size="10.00"> </text>
<polygon fill="#666666" stroke="#666666" points="243.5,-162 243.5,-162 276.5,-162 276.5,-162 243.5,-162"/>
<polygon fill="#666666" stroke="#666666" points="243.5,-146 243.5,-146 276.5,-146 276.5,-146 243.5,-146"/>
<polygon fill="none" stroke="#666666" points="243.5,-128 243.5,-180 276.5,-180 276.5,-128 243.5,-128"/>
</a>
</g>
</g>
<!-- Node5&#45;&gt;Node1 -->
<g id="edge4_Node000001_Node000005" class="edge">
<title>Node5&#45;&gt;Node1</title>
<g id="a_edge4_Node000001_Node000005"><a xlink:title=" ">
<path fill="none" stroke="#63b8ff" d="M252.59,-128.05C249.03,-118.21 244.17,-107.11 238,-98 236.06,-95.14 233.96,-92.32 231.74,-89.55"/>
<polygon fill="none" stroke="#63b8ff" points="231.74,-89.54 224.78,-87.63 223.88,-80.47 230.83,-82.39 231.74,-89.54"/>
</a>
</g>
<text text-anchor="middle" x="273.39" y="-100.5" font-family="Helvetica,sans-Serif" font-size="10.00" fill="grey"> +BeamColor</text>
</g>
<!-- Node6 -->
<g id="Node000006" class="node">
<title>Node6</title>
<g id="a_Node000006"><a xlink:title=" ">
<polygon fill="white" stroke="none" points="355,-180 327,-180 327,-128 355,-128 355,-180"/>
<text text-anchor="start" x="332" y="-166.5" font-family="Helvetica,sans-Serif" font-size="10.00">bool</text>
<text text-anchor="start" x="339.5" y="-150.5" font-family="Helvetica,sans-Serif" font-size="10.00"> </text>
<text text-anchor="start" x="339.5" y="-134.5" font-family="Helvetica,sans-Serif" font-size="10.00"> </text>
<polygon fill="#666666" stroke="#666666" points="327,-162 327,-162 355,-162 355,-162 327,-162"/>
<polygon fill="#666666" stroke="#666666" points="327,-146 327,-146 355,-146 355,-146 327,-146"/>
<polygon fill="none" stroke="#666666" points="327,-128 327,-180 355,-180 355,-128 327,-128"/>
</a>
</g>
</g>
<!-- Node6&#45;&gt;Node1 -->
<g id="edge5_Node000001_Node000006" class="edge">
<title>Node6&#45;&gt;Node1</title>
<g id="a_edge5_Node000001_Node000006"><a xlink:title=" ">
<path fill="none" stroke="#63b8ff" d="M329.35,-128.23C323.5,-117.84 315.6,-106.28 306,-98 291.04,-85.1 272.69,-74.65 254.6,-66.39"/>
<polygon fill="none" stroke="#63b8ff" points="254.64,-66.4 247.54,-67.69 243.62,-61.63 250.72,-60.35 254.64,-66.4"/>
</a>
</g>
<text text-anchor="middle" x="357.46" y="-100.5" font-family="Helvetica,sans-Serif" font-size="10.00" fill="grey"> +GenerateTexture</text>
</g>
</g>
</svg>
</svg>

<style type='text/css'>
<![CDATA[
[data-mouse-over-selected='false'] { opacity: 0.7; }
[data-mouse-over-selected='true']  { opacity: 1.0; }
]]>
</style>
<script type="application/ecmascript"><![CDATA[
document.addEventListener('DOMContentLoaded', (event) => {
  highlightEdges();
  highlightAdjacentNodes();
});
]]></script>
</svg>
