<?xml version="1.0" encoding="UTF-8" standalone="no"?>
<!DOCTYPE svg PUBLIC "-//W3C//DTD SVG 1.1//EN"
 "http://www.w3.org/Graphics/SVG/1.1/DTD/svg11.dtd">
<!-- Generated by graphviz version 12.1.0 (20240811.2233)
 -->
<!-- Title: Minimap Pages: 1 -->
<svg width="131pt" height="204pt"
 viewBox="0.00 0.00 131.44 204.00" xmlns="http://www.w3.org/2000/svg" xmlns:xlink="http://www.w3.org/1999/xlink">
<g id="graph0" class="graph" transform="scale(1 1) rotate(0) translate(4 200)">
<title>Minimap</title>
<!-- Node1 -->
<g id="Node000001" class="node">
<title>Node1</title>
<g id="a_Node000001"><a xlink:title="A UI element that displays a minimap of the dungeon.">
<polygon fill="#999999" stroke="none" points="117,-96 0,-96 0,0 117,0 117,-96"/>
<text text-anchor="start" x="40.12" y="-82.5" font-family="Helvetica,sans-Serif" font-size="10.00">Minimap</text>
<text text-anchor="start" x="57" y="-66.5" font-family="Helvetica,sans-Serif" font-size="10.00"> </text>
<text text-anchor="start" x="4" y="-50.5" font-family="Helvetica,sans-Serif" font-size="10.00">+</text>
<text text-anchor="start" x="14" y="-50.5" font-family="Helvetica,sans-Serif" font-size="10.00">override void _Ready()</text>
<text text-anchor="start" x="4" y="-34.5" font-family="Helvetica,sans-Serif" font-size="10.00">+</text>
<text text-anchor="start" x="14" y="-34.5" font-family="Helvetica,sans-Serif" font-size="10.00">override void _Process</text>
<text text-anchor="start" x="14" y="-22.5" font-family="Helvetica,sans-Serif" font-size="10.00">(double delta)</text>
<text text-anchor="start" x="4" y="-6.5" font-family="Helvetica,sans-Serif" font-size="10.00">+</text>
<text text-anchor="start" x="14" y="-6.5" font-family="Helvetica,sans-Serif" font-size="10.00">override void _Draw()</text>
<polygon fill="#666666" stroke="#666666" points="0,-78 0,-78 117,-78 117,-78 0,-78"/>
<polygon fill="#666666" stroke="#666666" points="0,-62 0,-62 117,-62 117,-62 0,-62"/>
<polygon fill="none" stroke="#666666" points="0,0 0,-96 117,-96 117,0 0,0"/>
</a>
</g>
</g>
<!-- Node2 -->
<g id="Node000002" class="node">
<title>Node2</title>
<g id="a_Node000002"><a xlink:href="../../d7/d49/class_control.html" target="_top" xlink:title=" ">
<polygon fill="white" stroke="none" points="48,-196 7,-196 7,-144 48,-144 48,-196"/>
<text text-anchor="start" x="11.75" y="-182.5" font-family="Helvetica,sans-Serif" font-size="10.00">Control</text>
<text text-anchor="start" x="26" y="-166.5" font-family="Helvetica,sans-Serif" font-size="10.00"> </text>
<text text-anchor="start" x="26" y="-150.5" font-family="Helvetica,sans-Serif" font-size="10.00"> </text>
<polygon fill="#666666" stroke="#666666" points="7,-178 7,-178 48,-178 48,-178 7,-178"/>
<polygon fill="#666666" stroke="#666666" points="7,-162 7,-162 48,-162 48,-162 7,-162"/>
<polygon fill="none" stroke="#666666" points="7,-144 7,-196 48,-196 48,-144 7,-144"/>
</a>
</g>
</g>
<!-- Node2&#45;&gt;Node1 -->
<g id="edge1_Node000001_Node000002" class="edge">
<title>Node2&#45;&gt;Node1</title>
<g id="a_edge1_Node000001_Node000002"><a xlink:title=" ">
<path fill="none" stroke="#63b8ff" d="M36.71,-133.34C39.77,-121.52 43.21,-108.18 46.45,-95.66"/>
<polygon fill="none" stroke="#63b8ff" points="33.41,-132.11 34.3,-142.67 40.19,-133.86 33.41,-132.11"/>
</a>
</g>
</g>
<!-- Node3 -->
<g id="Node000003" class="node">
<title>Node3</title>
<g id="a_Node000003"><a xlink:title=" ">
<polygon fill="white" stroke="none" points="112.5,-196 66.5,-196 66.5,-144 112.5,-144 112.5,-196"/>
<text text-anchor="start" x="71.5" y="-182.5" font-family="Helvetica,sans-Serif" font-size="10.00">Vector2I</text>
<text text-anchor="start" x="88" y="-166.5" font-family="Helvetica,sans-Serif" font-size="10.00"> </text>
<text text-anchor="start" x="88" y="-150.5" font-family="Helvetica,sans-Serif" font-size="10.00"> </text>
<polygon fill="#666666" stroke="#666666" points="66.5,-178 66.5,-178 112.5,-178 112.5,-178 66.5,-178"/>
<polygon fill="#666666" stroke="#666666" points="66.5,-162 66.5,-162 112.5,-162 112.5,-162 66.5,-162"/>
<polygon fill="none" stroke="#666666" points="66.5,-144 66.5,-196 112.5,-196 112.5,-144 66.5,-144"/>
</a>
</g>
</g>
<!-- Node3&#45;&gt;Node1 -->
<g id="edge2_Node000001_Node000003" class="edge">
<title>Node3&#45;&gt;Node1</title>
<g id="a_edge2_Node000001_Node000003"><a xlink:title=" ">
<path fill="none" stroke="#63b8ff" d="M83.08,-144.14C80.36,-133.63 77.08,-120.91 73.8,-108.24"/>
<polygon fill="none" stroke="#63b8ff" points="73.78,-108.15 68.41,-103.34 70.78,-96.53 76.15,-101.34 73.78,-108.15"/>
</a>
</g>
<text text-anchor="middle" x="100.56" y="-116.5" font-family="Helvetica,sans-Serif" font-size="10.00" fill="grey"> +CellSize</text>
</g>
</g>
</svg>
