<?xml version="1.0" encoding="UTF-8" standalone="no"?>
<!DOCTYPE svg PUBLIC "-//W3C//DTD SVG 1.1//EN"
 "http://www.w3.org/Graphics/SVG/1.1/DTD/svg11.dtd">
<!-- Generated by graphviz version 12.1.0 (20240811.2233)
 -->
<!-- Title: PlayerDeath Pages: 1 -->
<svg width="284pt" height="420pt"
 viewBox="0.00 0.00 283.80 420.00" xmlns="http://www.w3.org/2000/svg" xmlns:xlink="http://www.w3.org/1999/xlink">
<g id="graph0" class="graph" transform="scale(1 1) rotate(0) translate(4 416)">
<title>PlayerDeath</title>
<!-- Node1 -->
<g id="Node000001" class="node">
<title>Node1</title>
<g id="a_Node000001"><a xlink:title=" ">
<polygon fill="#999999" stroke="none" points="229,-80 76,-80 76,0 229,0 229,-80"/>
<text text-anchor="start" x="125.5" y="-66.5" font-family="Helvetica,sans-Serif" font-size="10.00">PlayerDeath</text>
<text text-anchor="start" x="151" y="-50.5" font-family="Helvetica,sans-Serif" font-size="10.00"> </text>
<text text-anchor="start" x="80" y="-34.5" font-family="Helvetica,sans-Serif" font-size="10.00">+</text>
<text text-anchor="start" x="90" y="-34.5" font-family="Helvetica,sans-Serif" font-size="10.00">override void Enter()</text>
<text text-anchor="start" x="80" y="-18.5" font-family="Helvetica,sans-Serif" font-size="10.00">+</text>
<text text-anchor="start" x="90" y="-18.5" font-family="Helvetica,sans-Serif" font-size="10.00">override State ProcessPhysics</text>
<text text-anchor="start" x="90" y="-6.5" font-family="Helvetica,sans-Serif" font-size="10.00">(double delta)</text>
<polygon fill="#666666" stroke="#666666" points="76,-62 76,-62 229,-62 229,-62 76,-62"/>
<polygon fill="#666666" stroke="#666666" points="76,-46 76,-46 229,-46 229,-46 76,-46"/>
<polygon fill="none" stroke="#666666" points="76,0 76,-80 229,-80 229,0 76,0"/>
</a>
</g>
</g>
<!-- Node2 -->
<g id="Node000002" class="node">
<title>Node2</title>
<g id="a_Node000002"><a xlink:href="../../d0/d8b/class_state.html" target="_top" xlink:title=" ">
<polygon fill="white" stroke="none" points="172.5,-312 18.5,-312 18.5,-128 172.5,-128 172.5,-312"/>
<text text-anchor="start" x="83.88" y="-298.5" font-family="Helvetica,sans-Serif" font-size="10.00">State</text>
<text text-anchor="start" x="94" y="-282.5" font-family="Helvetica,sans-Serif" font-size="10.00"> </text>
<text text-anchor="start" x="22.5" y="-266.5" font-family="Helvetica,sans-Serif" font-size="10.00">+</text>
<text text-anchor="start" x="32.5" y="-266.5" font-family="Helvetica,sans-Serif" font-size="10.00">virtual bool CanEnter()</text>
<text text-anchor="start" x="22.5" y="-250.5" font-family="Helvetica,sans-Serif" font-size="10.00">+</text>
<text text-anchor="start" x="32.5" y="-250.5" font-family="Helvetica,sans-Serif" font-size="10.00">virtual void Enter()</text>
<text text-anchor="start" x="22.5" y="-234.5" font-family="Helvetica,sans-Serif" font-size="10.00">+</text>
<text text-anchor="start" x="32.5" y="-234.5" font-family="Helvetica,sans-Serif" font-size="10.00">virtual void Exit()</text>
<text text-anchor="start" x="22.5" y="-218.5" font-family="Helvetica,sans-Serif" font-size="10.00">+</text>
<text text-anchor="start" x="32.5" y="-218.5" font-family="Helvetica,sans-Serif" font-size="10.00">virtual State ProcessInput</text>
<text text-anchor="start" x="32.5" y="-206.5" font-family="Helvetica,sans-Serif" font-size="10.00">(InputEvent @event)</text>
<text text-anchor="start" x="22.5" y="-190.5" font-family="Helvetica,sans-Serif" font-size="10.00">+</text>
<text text-anchor="start" x="32.5" y="-190.5" font-family="Helvetica,sans-Serif" font-size="10.00">virtual State ProcessFrame</text>
<text text-anchor="start" x="32.5" y="-178.5" font-family="Helvetica,sans-Serif" font-size="10.00">(double delta)</text>
<text text-anchor="start" x="22.5" y="-162.5" font-family="Helvetica,sans-Serif" font-size="10.00">+</text>
<text text-anchor="start" x="32.5" y="-162.5" font-family="Helvetica,sans-Serif" font-size="10.00">virtual State ProcessPhysics</text>
<text text-anchor="start" x="32.5" y="-150.5" font-family="Helvetica,sans-Serif" font-size="10.00">(double delta)</text>
<text text-anchor="start" x="22.5" y="-134.5" font-family="Helvetica,sans-Serif" font-size="10.00">+</text>
<text text-anchor="start" x="32.5" y="-134.5" font-family="Helvetica,sans-Serif" font-size="10.00">virtual void UpdateAnimations()</text>
<polygon fill="#666666" stroke="#666666" points="18.5,-294 18.5,-294 172.5,-294 172.5,-294 18.5,-294"/>
<polygon fill="#666666" stroke="#666666" points="18.5,-278 18.5,-278 172.5,-278 172.5,-278 18.5,-278"/>
<polygon fill="none" stroke="#666666" points="18.5,-128 18.5,-312 172.5,-312 172.5,-128 18.5,-128"/>
</a>
</g>
</g>
<!-- Node2&#45;&gt;Node1 -->
<g id="edge1_Node000001_Node000002" class="edge">
<title>Node2&#45;&gt;Node1</title>
<g id="a_edge1_Node000001_Node000002"><a xlink:title=" ">
<path fill="none" stroke="#63b8ff" d="M128.01,-117.47C132.26,-104.2 136.39,-91.3 140.01,-80"/>
<polygon fill="none" stroke="#63b8ff" points="124.76,-116.14 125.05,-126.73 131.43,-118.28 124.76,-116.14"/>
</a>
</g>
</g>
<!-- Node3 -->
<g id="Node000003" class="node">
<title>Node3</title>
<g id="a_Node000003"><a xlink:href="../../dc/d8f/class_node.html" target="_top" xlink:title=" ">
<polygon fill="white" stroke="none" points="33,-412 0,-412 0,-360 33,-360 33,-412"/>
<text text-anchor="start" x="4.88" y="-398.5" font-family="Helvetica,sans-Serif" font-size="10.00">Node</text>
<text text-anchor="start" x="15" y="-382.5" font-family="Helvetica,sans-Serif" font-size="10.00"> </text>
<text text-anchor="start" x="15" y="-366.5" font-family="Helvetica,sans-Serif" font-size="10.00"> </text>
<polygon fill="#666666" stroke="#666666" points="0,-394 0,-394 33,-394 33,-394 0,-394"/>
<polygon fill="#666666" stroke="#666666" points="0,-378 0,-378 33,-378 33,-378 0,-378"/>
<polygon fill="none" stroke="#666666" points="0,-360 0,-412 33,-412 33,-360 0,-360"/>
</a>
</g>
</g>
<!-- Node3&#45;&gt;Node2 -->
<g id="edge2_Node000002_Node000003" class="edge">
<title>Node3&#45;&gt;Node2</title>
<g id="a_edge2_Node000002_Node000003"><a xlink:title=" ">
<path fill="none" stroke="#63b8ff" d="M33.45,-349.81C38.92,-338.46 45.25,-325.31 51.74,-311.84"/>
<polygon fill="none" stroke="#63b8ff" points="30.34,-348.2 29.16,-358.73 36.65,-351.24 30.34,-348.2"/>
</a>
</g>
</g>
<!-- Node4 -->
<g id="Node000004" class="node">
<title>Node4</title>
<g id="a_Node000004"><a xlink:title=" ">
<polygon fill="white" stroke="none" points="139.5,-412 51.5,-412 51.5,-360 139.5,-360 139.5,-412"/>
<text text-anchor="start" x="56.5" y="-398.5" font-family="Helvetica,sans-Serif" font-size="10.00">CharacterBody2D</text>
<text text-anchor="start" x="94" y="-382.5" font-family="Helvetica,sans-Serif" font-size="10.00"> </text>
<text text-anchor="start" x="94" y="-366.5" font-family="Helvetica,sans-Serif" font-size="10.00"> </text>
<polygon fill="#666666" stroke="#666666" points="51.5,-394 51.5,-394 139.5,-394 139.5,-394 51.5,-394"/>
<polygon fill="#666666" stroke="#666666" points="51.5,-378 51.5,-378 139.5,-378 139.5,-378 51.5,-378"/>
<polygon fill="none" stroke="#666666" points="51.5,-360 51.5,-412 139.5,-412 139.5,-360 51.5,-360"/>
</a>
</g>
</g>
<!-- Node4&#45;&gt;Node2 -->
<g id="edge3_Node000002_Node000004" class="edge">
<title>Node4&#45;&gt;Node2</title>
<g id="a_edge3_Node000002_Node000004"><a xlink:title=" ">
<path fill="none" stroke="#63b8ff" d="M95.5,-360.09C95.5,-350.04 95.5,-337.72 95.5,-324.61"/>
<polygon fill="none" stroke="#63b8ff" points="95.5,-324.74 91.5,-318.74 95.5,-312.74 99.5,-318.74 95.5,-324.74"/>
</a>
</g>
<text text-anchor="middle" x="114.25" y="-332.5" font-family="Helvetica,sans-Serif" font-size="10.00" fill="grey"> +Parent</text>
</g>
<!-- Node5 -->
<g id="Node000005" class="node">
<title>Node5</title>
<g id="a_Node000005"><a xlink:title=" ">
<polygon fill="white" stroke="none" points="239,-412 158,-412 158,-360 239,-360 239,-412"/>
<text text-anchor="start" x="162.88" y="-398.5" font-family="Helvetica,sans-Serif" font-size="10.00">AnimationPlayer</text>
<text text-anchor="start" x="197" y="-382.5" font-family="Helvetica,sans-Serif" font-size="10.00"> </text>
<text text-anchor="start" x="197" y="-366.5" font-family="Helvetica,sans-Serif" font-size="10.00"> </text>
<polygon fill="#666666" stroke="#666666" points="158,-394 158,-394 239,-394 239,-394 158,-394"/>
<polygon fill="#666666" stroke="#666666" points="158,-378 158,-378 239,-378 239,-378 158,-378"/>
<polygon fill="none" stroke="#666666" points="158,-360 158,-412 239,-412 239,-360 158,-360"/>
</a>
</g>
</g>
<!-- Node5&#45;&gt;Node2 -->
<g id="edge4_Node000002_Node000005" class="edge">
<title>Node5&#45;&gt;Node2</title>
<g id="a_edge4_Node000002_Node000005"><a xlink:title=" ">
<path fill="none" stroke="#63b8ff" d="M182.86,-360.09C176.22,-349.52 168,-336.44 159.29,-322.57"/>
<polygon fill="none" stroke="#63b8ff" points="159.41,-322.76 152.83,-319.81 153.03,-312.6 159.61,-315.55 159.41,-322.76"/>
</a>
</g>
<text text-anchor="middle" x="199.75" y="-332.5" font-family="Helvetica,sans-Serif" font-size="10.00" fill="grey"> +Animations</text>
</g>
<!-- Node6 -->
<g id="Node000006" class="node">
<title>Node6</title>
<g id="a_Node000006"><a xlink:title=" ">
<polygon fill="white" stroke="none" points="228.5,-246 190.5,-246 190.5,-194 228.5,-194 228.5,-246"/>
<text text-anchor="start" x="195.25" y="-232.5" font-family="Helvetica,sans-Serif" font-size="10.00">double</text>
<text text-anchor="start" x="208" y="-216.5" font-family="Helvetica,sans-Serif" font-size="10.00"> </text>
<text text-anchor="start" x="208" y="-200.5" font-family="Helvetica,sans-Serif" font-size="10.00"> </text>
<polygon fill="#666666" stroke="#666666" points="190.5,-228 190.5,-228 228.5,-228 228.5,-228 190.5,-228"/>
<polygon fill="#666666" stroke="#666666" points="190.5,-212 190.5,-212 228.5,-212 228.5,-212 190.5,-212"/>
<polygon fill="none" stroke="#666666" points="190.5,-194 190.5,-246 228.5,-246 228.5,-194 190.5,-194"/>
</a>
</g>
</g>
<!-- Node6&#45;&gt;Node1 -->
<g id="edge5_Node000001_Node000006" class="edge">
<title>Node6&#45;&gt;Node1</title>
<g id="a_edge5_Node000001_Node000006"><a xlink:title=" ">
<path fill="none" stroke="#63b8ff" d="M202.05,-194.23C196.49,-175.91 188.66,-150.35 181.5,-128 177.79,-116.42 173.71,-104.01 169.82,-92.29"/>
<polygon fill="none" stroke="#63b8ff" points="169.77,-92.15 164.08,-87.73 165.97,-80.77 171.67,-85.19 169.77,-92.15"/>
</a>
</g>
<text text-anchor="middle" x="225.55" y="-100.5" font-family="Helvetica,sans-Serif" font-size="10.00" fill="grey"> +DeathAnimationTime</text>
</g>
</g>
</svg>
