<?xml version="1.0" encoding="UTF-8" standalone="no"?>
<!DOCTYPE svg PUBLIC "-//W3C//DTD SVG 1.1//EN"
 "http://www.w3.org/Graphics/SVG/1.1/DTD/svg11.dtd">
<!-- Generated by graphviz version 12.1.0 (20240811.2233)
 -->
<!-- Title: SlimeIdle Pages: 1 -->
<svg width="360pt" height="480pt"
 viewBox="0.00 0.00 360.19 480.00" xmlns="http://www.w3.org/2000/svg" xmlns:xlink="http://www.w3.org/1999/xlink">
<g id="graph0" class="graph" transform="scale(1 1) rotate(0) translate(4 476)">
<title>SlimeIdle</title>
<!-- Node1 -->
<g id="Node000001" class="node">
<title>Node1</title>
<g id="a_Node000001"><a xlink:title=" ">
<polygon fill="#999999" stroke="none" points="247.5,-128 85.5,-128 85.5,0 247.5,0 247.5,-128"/>
<text text-anchor="start" x="146.25" y="-114.5" font-family="Helvetica,sans-Serif" font-size="10.00">SlimeIdle</text>
<text text-anchor="start" x="165" y="-98.5" font-family="Helvetica,sans-Serif" font-size="10.00"> </text>
<text text-anchor="start" x="89.5" y="-82.5" font-family="Helvetica,sans-Serif" font-size="10.00">+</text>
<text text-anchor="start" x="99.5" y="-82.5" font-family="Helvetica,sans-Serif" font-size="10.00">override void _Ready()</text>
<text text-anchor="start" x="89.5" y="-66.5" font-family="Helvetica,sans-Serif" font-size="10.00">+</text>
<text text-anchor="start" x="99.5" y="-66.5" font-family="Helvetica,sans-Serif" font-size="10.00">override State ProcessPhysics</text>
<text text-anchor="start" x="99.5" y="-54.5" font-family="Helvetica,sans-Serif" font-size="10.00">(double delta)</text>
<text text-anchor="start" x="89.5" y="-38.5" font-family="Helvetica,sans-Serif" font-size="10.00">+</text>
<text text-anchor="start" x="99.5" y="-38.5" font-family="Helvetica,sans-Serif" font-size="10.00">Vector2 ChangeRandomWalk()</text>
<text text-anchor="start" x="89.5" y="-22.5" font-family="Helvetica,sans-Serif" font-size="10.00">+</text>
<text text-anchor="start" x="99.5" y="-22.5" font-family="Helvetica,sans-Serif" font-size="10.00">override void UpdateAnimations()</text>
<text text-anchor="start" x="89.5" y="-6.5" font-family="Helvetica,sans-Serif" font-size="10.00">+</text>
<text text-anchor="start" x="99.5" y="-6.5" font-family="Helvetica,sans-Serif" font-size="10.00">void CreateRNG()</text>
<polygon fill="#666666" stroke="#666666" points="85.5,-110 85.5,-110 247.5,-110 247.5,-110 85.5,-110"/>
<polygon fill="#666666" stroke="#666666" points="85.5,-94 85.5,-94 247.5,-94 247.5,-94 85.5,-94"/>
<polygon fill="none" stroke="#666666" points="85.5,0 85.5,-128 247.5,-128 247.5,0 85.5,0"/>
</a>
</g>
</g>
<!-- Node2 -->
<g id="Node000002" class="node">
<title>Node2</title>
<g id="a_Node000002"><a xlink:href="../../d0/d8b/class_state.html" target="_top" xlink:title=" ">
<polygon fill="white" stroke="none" points="172.5,-372 18.5,-372 18.5,-188 172.5,-188 172.5,-372"/>
<text text-anchor="start" x="83.88" y="-358.5" font-family="Helvetica,sans-Serif" font-size="10.00">State</text>
<text text-anchor="start" x="94" y="-342.5" font-family="Helvetica,sans-Serif" font-size="10.00"> </text>
<text text-anchor="start" x="22.5" y="-326.5" font-family="Helvetica,sans-Serif" font-size="10.00">+</text>
<text text-anchor="start" x="32.5" y="-326.5" font-family="Helvetica,sans-Serif" font-size="10.00">virtual bool CanEnter()</text>
<text text-anchor="start" x="22.5" y="-310.5" font-family="Helvetica,sans-Serif" font-size="10.00">+</text>
<text text-anchor="start" x="32.5" y="-310.5" font-family="Helvetica,sans-Serif" font-size="10.00">virtual void Enter()</text>
<text text-anchor="start" x="22.5" y="-294.5" font-family="Helvetica,sans-Serif" font-size="10.00">+</text>
<text text-anchor="start" x="32.5" y="-294.5" font-family="Helvetica,sans-Serif" font-size="10.00">virtual void Exit()</text>
<text text-anchor="start" x="22.5" y="-278.5" font-family="Helvetica,sans-Serif" font-size="10.00">+</text>
<text text-anchor="start" x="32.5" y="-278.5" font-family="Helvetica,sans-Serif" font-size="10.00">virtual State ProcessInput</text>
<text text-anchor="start" x="32.5" y="-266.5" font-family="Helvetica,sans-Serif" font-size="10.00">(InputEvent @event)</text>
<text text-anchor="start" x="22.5" y="-250.5" font-family="Helvetica,sans-Serif" font-size="10.00">+</text>
<text text-anchor="start" x="32.5" y="-250.5" font-family="Helvetica,sans-Serif" font-size="10.00">virtual State ProcessFrame</text>
<text text-anchor="start" x="32.5" y="-238.5" font-family="Helvetica,sans-Serif" font-size="10.00">(double delta)</text>
<text text-anchor="start" x="22.5" y="-222.5" font-family="Helvetica,sans-Serif" font-size="10.00">+</text>
<text text-anchor="start" x="32.5" y="-222.5" font-family="Helvetica,sans-Serif" font-size="10.00">virtual State ProcessPhysics</text>
<text text-anchor="start" x="32.5" y="-210.5" font-family="Helvetica,sans-Serif" font-size="10.00">(double delta)</text>
<text text-anchor="start" x="22.5" y="-194.5" font-family="Helvetica,sans-Serif" font-size="10.00">+</text>
<text text-anchor="start" x="32.5" y="-194.5" font-family="Helvetica,sans-Serif" font-size="10.00">virtual void UpdateAnimations()</text>
<polygon fill="#666666" stroke="#666666" points="18.5,-354 18.5,-354 172.5,-354 172.5,-354 18.5,-354"/>
<polygon fill="#666666" stroke="#666666" points="18.5,-338 18.5,-338 172.5,-338 172.5,-338 18.5,-338"/>
<polygon fill="none" stroke="#666666" points="18.5,-188 18.5,-372 172.5,-372 172.5,-188 18.5,-188"/>
</a>
</g>
</g>
<!-- Node2&#45;&gt;Node1 -->
<g id="edge1_Node000001_Node000002" class="edge">
<title>Node2&#45;&gt;Node1</title>
<g id="a_edge1_Node000001_Node000002"><a xlink:title=" ">
<path fill="none" stroke="#63b8ff" d="M101.75,-177.03C103.95,-166.38 106.81,-155.85 110.5,-146 112.78,-139.92 115.62,-133.85 118.8,-127.94"/>
<polygon fill="none" stroke="#63b8ff" points="98.35,-176.2 99.97,-186.67 105.23,-177.48 98.35,-176.2"/>
</a>
</g>
</g>
<!-- Node2&#45;&gt;Node1 -->
<g id="edge5_Node000001_Node000002" class="edge">
<title>Node2&#45;&gt;Node1</title>
<g id="a_edge5_Node000001_Node000002"><a xlink:title=" ">
<path fill="none" stroke="#63b8ff" d="M114.42,-188.08C118.18,-173.85 122.46,-159.41 127.25,-146 127.99,-143.93 128.77,-141.83 129.58,-139.73"/>
<polygon fill="none" stroke="#63b8ff" points="129.63,-139.61 128.19,-132.54 134.16,-128.5 135.6,-135.57 129.63,-139.61"/>
</a>
</g>
<text text-anchor="middle" x="152.38" y="-160.5" font-family="Helvetica,sans-Serif" font-size="10.00" fill="grey"> +Attacking</text>
<text text-anchor="middle" x="152.38" y="-148.5" font-family="Helvetica,sans-Serif" font-size="10.00" fill="grey">+Moving</text>
</g>
<!-- Node3 -->
<g id="Node000003" class="node">
<title>Node3</title>
<g id="a_Node000003"><a xlink:href="../../dc/d8f/class_node.html" target="_top" xlink:title=" ">
<polygon fill="white" stroke="none" points="33,-472 0,-472 0,-420 33,-420 33,-472"/>
<text text-anchor="start" x="4.88" y="-458.5" font-family="Helvetica,sans-Serif" font-size="10.00">Node</text>
<text text-anchor="start" x="15" y="-442.5" font-family="Helvetica,sans-Serif" font-size="10.00"> </text>
<text text-anchor="start" x="15" y="-426.5" font-family="Helvetica,sans-Serif" font-size="10.00"> </text>
<polygon fill="#666666" stroke="#666666" points="0,-454 0,-454 33,-454 33,-454 0,-454"/>
<polygon fill="#666666" stroke="#666666" points="0,-438 0,-438 33,-438 33,-438 0,-438"/>
<polygon fill="none" stroke="#666666" points="0,-420 0,-472 33,-472 33,-420 0,-420"/>
</a>
</g>
</g>
<!-- Node3&#45;&gt;Node2 -->
<g id="edge2_Node000002_Node000003" class="edge">
<title>Node3&#45;&gt;Node2</title>
<g id="a_edge2_Node000002_Node000003"><a xlink:title=" ">
<path fill="none" stroke="#63b8ff" d="M33.45,-409.81C38.92,-398.46 45.25,-385.31 51.74,-371.84"/>
<polygon fill="none" stroke="#63b8ff" points="30.34,-408.2 29.16,-418.73 36.65,-411.24 30.34,-408.2"/>
</a>
</g>
</g>
<!-- Node4 -->
<g id="Node000004" class="node">
<title>Node4</title>
<g id="a_Node000004"><a xlink:title=" ">
<polygon fill="white" stroke="none" points="139.5,-472 51.5,-472 51.5,-420 139.5,-420 139.5,-472"/>
<text text-anchor="start" x="56.5" y="-458.5" font-family="Helvetica,sans-Serif" font-size="10.00">CharacterBody2D</text>
<text text-anchor="start" x="94" y="-442.5" font-family="Helvetica,sans-Serif" font-size="10.00"> </text>
<text text-anchor="start" x="94" y="-426.5" font-family="Helvetica,sans-Serif" font-size="10.00"> </text>
<polygon fill="#666666" stroke="#666666" points="51.5,-454 51.5,-454 139.5,-454 139.5,-454 51.5,-454"/>
<polygon fill="#666666" stroke="#666666" points="51.5,-438 51.5,-438 139.5,-438 139.5,-438 51.5,-438"/>
<polygon fill="none" stroke="#666666" points="51.5,-420 51.5,-472 139.5,-472 139.5,-420 51.5,-420"/>
</a>
</g>
</g>
<!-- Node4&#45;&gt;Node2 -->
<g id="edge3_Node000002_Node000004" class="edge">
<title>Node4&#45;&gt;Node2</title>
<g id="a_edge3_Node000002_Node000004"><a xlink:title=" ">
<path fill="none" stroke="#63b8ff" d="M95.5,-420.09C95.5,-410.04 95.5,-397.72 95.5,-384.61"/>
<polygon fill="none" stroke="#63b8ff" points="95.5,-384.74 91.5,-378.74 95.5,-372.74 99.5,-378.74 95.5,-384.74"/>
</a>
</g>
<text text-anchor="middle" x="114.25" y="-392.5" font-family="Helvetica,sans-Serif" font-size="10.00" fill="grey"> +Parent</text>
</g>
<!-- Node5 -->
<g id="Node000005" class="node">
<title>Node5</title>
<g id="a_Node000005"><a xlink:title=" ">
<polygon fill="white" stroke="none" points="239,-472 158,-472 158,-420 239,-420 239,-472"/>
<text text-anchor="start" x="162.88" y="-458.5" font-family="Helvetica,sans-Serif" font-size="10.00">AnimationPlayer</text>
<text text-anchor="start" x="197" y="-442.5" font-family="Helvetica,sans-Serif" font-size="10.00"> </text>
<text text-anchor="start" x="197" y="-426.5" font-family="Helvetica,sans-Serif" font-size="10.00"> </text>
<polygon fill="#666666" stroke="#666666" points="158,-454 158,-454 239,-454 239,-454 158,-454"/>
<polygon fill="#666666" stroke="#666666" points="158,-438 158,-438 239,-438 239,-438 158,-438"/>
<polygon fill="none" stroke="#666666" points="158,-420 158,-472 239,-472 239,-420 158,-420"/>
</a>
</g>
</g>
<!-- Node5&#45;&gt;Node2 -->
<g id="edge4_Node000002_Node000005" class="edge">
<title>Node5&#45;&gt;Node2</title>
<g id="a_edge4_Node000002_Node000005"><a xlink:title=" ">
<path fill="none" stroke="#63b8ff" d="M182.86,-420.09C176.22,-409.52 168,-396.44 159.29,-382.57"/>
<polygon fill="none" stroke="#63b8ff" points="159.41,-382.76 152.83,-379.81 153.03,-372.6 159.61,-375.55 159.41,-382.76"/>
</a>
</g>
<text text-anchor="middle" x="199.75" y="-392.5" font-family="Helvetica,sans-Serif" font-size="10.00" fill="grey"> +Animations</text>
</g>
<!-- Node6 -->
<g id="Node000006" class="node">
<title>Node6</title>
<g id="a_Node000006"><a xlink:title=" ">
<polygon fill="white" stroke="none" points="218.5,-306 190.5,-306 190.5,-254 218.5,-254 218.5,-306"/>
<text text-anchor="start" x="195.12" y="-292.5" font-family="Helvetica,sans-Serif" font-size="10.00">float</text>
<text text-anchor="start" x="203" y="-276.5" font-family="Helvetica,sans-Serif" font-size="10.00"> </text>
<text text-anchor="start" x="203" y="-260.5" font-family="Helvetica,sans-Serif" font-size="10.00"> </text>
<polygon fill="#666666" stroke="#666666" points="190.5,-288 190.5,-288 218.5,-288 218.5,-288 190.5,-288"/>
<polygon fill="#666666" stroke="#666666" points="190.5,-272 190.5,-272 218.5,-272 218.5,-272 190.5,-272"/>
<polygon fill="none" stroke="#666666" points="190.5,-254 190.5,-306 218.5,-306 218.5,-254 190.5,-254"/>
</a>
</g>
</g>
<!-- Node6&#45;&gt;Node1 -->
<g id="edge6_Node000001_Node000006" class="edge">
<title>Node6&#45;&gt;Node1</title>
<g id="a_edge6_Node000001_Node000006"><a xlink:title=" ">
<path fill="none" stroke="#63b8ff" d="M200.35,-254.47C195.81,-227.77 188.27,-183.83 181.5,-146 181.17,-144.15 180.83,-142.28 180.49,-140.39"/>
<polygon fill="none" stroke="#63b8ff" points="180.51,-140.47 175.5,-135.28 178.36,-128.67 183.37,-133.86 180.51,-140.47"/>
</a>
</g>
<text text-anchor="middle" x="207.11" y="-154.5" font-family="Helvetica,sans-Serif" font-size="10.00" fill="grey"> +SPEED</text>
</g>
<!-- Node7 -->
<g id="Node000007" class="node">
<title>Node7</title>
<g id="a_Node000007"><a xlink:title=" ">
<polygon fill="white" stroke="none" points="289.5,-306 251.5,-306 251.5,-254 289.5,-254 289.5,-306"/>
<text text-anchor="start" x="256.25" y="-292.5" font-family="Helvetica,sans-Serif" font-size="10.00">double</text>
<text text-anchor="start" x="269" y="-276.5" font-family="Helvetica,sans-Serif" font-size="10.00"> </text>
<text text-anchor="start" x="269" y="-260.5" font-family="Helvetica,sans-Serif" font-size="10.00"> </text>
<polygon fill="#666666" stroke="#666666" points="251.5,-288 251.5,-288 289.5,-288 289.5,-288 251.5,-288"/>
<polygon fill="#666666" stroke="#666666" points="251.5,-272 251.5,-272 289.5,-272 289.5,-272 251.5,-272"/>
<polygon fill="none" stroke="#666666" points="251.5,-254 251.5,-306 289.5,-306 289.5,-254 251.5,-254"/>
</a>
</g>
</g>
<!-- Node7&#45;&gt;Node1 -->
<g id="edge7_Node000001_Node000007" class="edge">
<title>Node7&#45;&gt;Node1</title>
<g id="a_edge7_Node000001_Node000007"><a xlink:title=" ">
<path fill="none" stroke="#63b8ff" d="M266.5,-254.1C261.38,-226.5 250.89,-181.23 232.5,-146 231.25,-143.61 229.93,-141.23 228.54,-138.86"/>
<polygon fill="none" stroke="#63b8ff" points="228.51,-138.8 221.92,-135.85 222.11,-128.64 228.69,-131.59 228.51,-138.8"/>
</a>
</g>
<text text-anchor="middle" x="297.06" y="-160.5" font-family="Helvetica,sans-Serif" font-size="10.00" fill="grey"> +IdleAnimationDuration</text>
<text text-anchor="middle" x="297.06" y="-148.5" font-family="Helvetica,sans-Serif" font-size="10.00" fill="grey">+JumpAnimationDuration</text>
</g>
</g>
</svg>
