<?xml version="1.0" encoding="UTF-8" standalone="no"?>
<!DOCTYPE svg PUBLIC "-//W3C//DTD SVG 1.1//EN"
 "http://www.w3.org/Graphics/SVG/1.1/DTD/svg11.dtd">
<!-- Generated by graphviz version 12.1.0 (20240811.2233)
 -->
<!-- Title: EnemySpawn Pages: 1 -->
<svg width="147pt" height="160pt"
 viewBox="0.00 0.00 147.16 160.00" xmlns="http://www.w3.org/2000/svg" xmlns:xlink="http://www.w3.org/1999/xlink">
<g id="graph0" class="graph" transform="scale(1 1) rotate(0) translate(4 156)">
<title>EnemySpawn</title>
<!-- Node1 -->
<g id="Node000001" class="node">
<title>Node1</title>
<g id="a_Node000001"><a xlink:title=" ">
<polygon fill="#999999" stroke="none" points="105.5,-52 12.5,-52 12.5,0 105.5,0 105.5,-52"/>
<text text-anchor="start" x="28.62" y="-38.5" font-family="Helvetica,sans-Serif" font-size="10.00">EnemySpawn</text>
<text text-anchor="start" x="57.5" y="-22.5" font-family="Helvetica,sans-Serif" font-size="10.00"> </text>
<text text-anchor="start" x="16.5" y="-6.5" font-family="Helvetica,sans-Serif" font-size="10.00">+</text>
<text text-anchor="start" x="26.5" y="-6.5" font-family="Helvetica,sans-Serif" font-size="10.00">Node2D Spawn()</text>
<polygon fill="#666666" stroke="#666666" points="12.5,-34 12.5,-34 105.5,-34 105.5,-34 12.5,-34"/>
<polygon fill="#666666" stroke="#666666" points="12.5,-18 12.5,-18 105.5,-18 105.5,-18 12.5,-18"/>
<polygon fill="none" stroke="#666666" points="12.5,0 12.5,-52 105.5,-52 105.5,0 12.5,0"/>
</a>
</g>
</g>
<!-- Node2 -->
<g id="Node000002" class="node">
<title>Node2</title>
<g id="a_Node000002"><a xlink:title=" ">
<polygon fill="white" stroke="none" points="46,-152 0,-152 0,-100 46,-100 46,-152"/>
<text text-anchor="start" x="5" y="-138.5" font-family="Helvetica,sans-Serif" font-size="10.00">Node2D</text>
<text text-anchor="start" x="21.5" y="-122.5" font-family="Helvetica,sans-Serif" font-size="10.00"> </text>
<text text-anchor="start" x="21.5" y="-106.5" font-family="Helvetica,sans-Serif" font-size="10.00"> </text>
<polygon fill="#666666" stroke="#666666" points="0,-134 0,-134 46,-134 46,-134 0,-134"/>
<polygon fill="#666666" stroke="#666666" points="0,-118 0,-118 46,-118 46,-118 0,-118"/>
<polygon fill="none" stroke="#666666" points="0,-100 0,-152 46,-152 46,-100 0,-100"/>
</a>
</g>
</g>
<!-- Node2&#45;&gt;Node1 -->
<g id="edge1_Node000001_Node000002" class="edge">
<title>Node2&#45;&gt;Node1</title>
<g id="a_edge1_Node000001_Node000002"><a xlink:title=" ">
<path fill="none" stroke="#63b8ff" d="M36.04,-89.49C40.62,-77.04 45.65,-63.34 49.84,-51.94"/>
<polygon fill="none" stroke="#63b8ff" points="32.86,-88 32.7,-98.6 39.43,-90.42 32.86,-88"/>
</a>
</g>
</g>
<!-- Node3 -->
<g id="Node000003" class="node">
<title>Node3</title>
<g id="a_Node000003"><a xlink:title=" ">
<polygon fill="white" stroke="none" points="125.5,-152 64.5,-152 64.5,-100 125.5,-100 125.5,-152"/>
<text text-anchor="start" x="69.5" y="-138.5" font-family="Helvetica,sans-Serif" font-size="10.00">SpawnType</text>
<text text-anchor="start" x="93.5" y="-122.5" font-family="Helvetica,sans-Serif" font-size="10.00"> </text>
<text text-anchor="start" x="93.5" y="-106.5" font-family="Helvetica,sans-Serif" font-size="10.00"> </text>
<polygon fill="#666666" stroke="#666666" points="64.5,-134 64.5,-134 125.5,-134 125.5,-134 64.5,-134"/>
<polygon fill="#666666" stroke="#666666" points="64.5,-118 64.5,-118 125.5,-118 125.5,-118 64.5,-118"/>
<polygon fill="none" stroke="#666666" points="64.5,-100 64.5,-152 125.5,-152 125.5,-100 64.5,-100"/>
</a>
</g>
</g>
<!-- Node3&#45;&gt;Node1 -->
<g id="edge2_Node000001_Node000003" class="edge">
<title>Node3&#45;&gt;Node1</title>
<g id="a_edge2_Node000001_Node000003"><a xlink:title=" ">
<path fill="none" stroke="#63b8ff" d="M85.82,-100.02C81.8,-89.07 77,-76.01 72.58,-63.97"/>
<polygon fill="none" stroke="#63b8ff" points="72.61,-64.05 66.79,-59.79 68.47,-52.78 74.3,-57.04 72.61,-64.05"/>
</a>
</g>
<text text-anchor="middle" x="109.16" y="-72.5" font-family="Helvetica,sans-Serif" font-size="10.00" fill="grey"> +SpawnType</text>
</g>
</g>
</svg>
