<?xml version="1.0" encoding="UTF-8" standalone="no"?>
<!DOCTYPE svg PUBLIC "-//W3C//DTD SVG 1.1//EN"
 "http://www.w3.org/Graphics/SVG/1.1/DTD/svg11.dtd">
<!-- Generated by graphviz version 12.1.0 (20240811.2233)
 -->
<!-- Title: IncreaseDurationOfSpell Pages: 1 -->
<svg width="146pt" height="496pt"
 viewBox="0.00 0.00 146.00 496.00" xmlns="http://www.w3.org/2000/svg" xmlns:xlink="http://www.w3.org/1999/xlink">
<g id="graph0" class="graph" transform="scale(1 1) rotate(0) translate(4 492)">
<title>IncreaseDurationOfSpell</title>
<!-- Node1 -->
<g id="Node000001" class="node">
<title>Node1</title>
<g id="a_Node000001"><a xlink:title=" ">
<polygon fill="#999999" stroke="none" points="138,-132 0,-132 0,0 138,0 138,-132"/>
<text text-anchor="start" x="15.75" y="-118.5" font-family="Helvetica,sans-Serif" font-size="10.00">IncreaseDurationOfSpell</text>
<text text-anchor="start" x="67.5" y="-102.5" font-family="Helvetica,sans-Serif" font-size="10.00"> </text>
<text text-anchor="start" x="4" y="-86.5" font-family="Helvetica,sans-Serif" font-size="10.00">+</text>
<text text-anchor="start" x="14" y="-86.5" font-family="Helvetica,sans-Serif" font-size="10.00">override void Equip</text>
<text text-anchor="start" x="14" y="-74.5" font-family="Helvetica,sans-Serif" font-size="10.00">(SceneTree sceneTree)</text>
<text text-anchor="start" x="4" y="-58.5" font-family="Helvetica,sans-Serif" font-size="10.00">+</text>
<text text-anchor="start" x="14" y="-58.5" font-family="Helvetica,sans-Serif" font-size="10.00">override void OnCast</text>
<text text-anchor="start" x="14" y="-46.5" font-family="Helvetica,sans-Serif" font-size="10.00">(Spell spell, Vector2</text>
<text text-anchor="start" x="14" y="-34.5" font-family="Helvetica,sans-Serif" font-size="10.00"> playerPosition, Vector2</text>
<text text-anchor="start" x="14" y="-22.5" font-family="Helvetica,sans-Serif" font-size="10.00"> targetPosition)</text>
<text text-anchor="start" x="4" y="-6.5" font-family="Helvetica,sans-Serif" font-size="10.00">+</text>
<text text-anchor="start" x="14" y="-6.5" font-family="Helvetica,sans-Serif" font-size="10.00">override string Description()</text>
<polygon fill="#666666" stroke="#666666" points="0,-114 0,-114 138,-114 138,-114 0,-114"/>
<polygon fill="#666666" stroke="#666666" points="0,-98 0,-98 138,-98 138,-98 0,-98"/>
<polygon fill="none" stroke="#666666" points="0,0 0,-132 138,-132 138,0 0,0"/>
</a>
</g>
</g>
<!-- Node2 -->
<g id="Node000002" class="node">
<title>Node2</title>
<g id="a_Node000002"><a xlink:href="../../d8/d16/class_on_cast_augment_effect.html" target="_top" xlink:title=" ">
<polygon fill="white" stroke="none" points="129.5,-256 8.5,-256 8.5,-168 129.5,-168 129.5,-256"/>
<text text-anchor="start" x="19.88" y="-242.5" font-family="Helvetica,sans-Serif" font-size="10.00">OnCastAugmentEffect</text>
<text text-anchor="start" x="67.5" y="-226.5" font-family="Helvetica,sans-Serif" font-size="10.00"> </text>
<text text-anchor="start" x="12.5" y="-210.5" font-family="Helvetica,sans-Serif" font-size="10.00">+</text>
<text text-anchor="start" x="22.5" y="-210.5" font-family="Helvetica,sans-Serif" font-size="10.00">virtual void OnCast</text>
<text text-anchor="start" x="22.5" y="-198.5" font-family="Helvetica,sans-Serif" font-size="10.00">(Spell spell, Vector2</text>
<text text-anchor="start" x="22.5" y="-186.5" font-family="Helvetica,sans-Serif" font-size="10.00"> playerPosition, Vector2</text>
<text text-anchor="start" x="22.5" y="-174.5" font-family="Helvetica,sans-Serif" font-size="10.00"> targetPosition)</text>
<polygon fill="#666666" stroke="#666666" points="8.5,-238 8.5,-238 129.5,-238 129.5,-238 8.5,-238"/>
<polygon fill="#666666" stroke="#666666" points="8.5,-222 8.5,-222 129.5,-222 129.5,-222 8.5,-222"/>
<polygon fill="none" stroke="#666666" points="8.5,-168 8.5,-256 129.5,-256 129.5,-168 8.5,-168"/>
</a>
</g>
</g>
<!-- Node2&#45;&gt;Node1 -->
<g id="edge1_Node000001_Node000002" class="edge">
<title>Node2&#45;&gt;Node1</title>
<g id="a_edge1_Node000001_Node000002"><a xlink:title=" ">
<path fill="none" stroke="#63b8ff" d="M69,-156.88C69,-148.69 69,-140.17 69,-131.78"/>
<polygon fill="none" stroke="#63b8ff" points="65.5,-156.67 69,-166.67 72.5,-156.67 65.5,-156.67"/>
</a>
</g>
</g>
<!-- Node3 -->
<g id="Node000003" class="node">
<title>Node3</title>
<g id="a_Node000003"><a xlink:href="../../d5/d2b/class_augment_effect.html" target="_top" xlink:title=" ">
<polygon fill="white" stroke="none" points="133.5,-400 4.5,-400 4.5,-292 133.5,-292 133.5,-400"/>
<text text-anchor="start" x="36.75" y="-386.5" font-family="Helvetica,sans-Serif" font-size="10.00">AugmentEffect</text>
<text text-anchor="start" x="67.5" y="-370.5" font-family="Helvetica,sans-Serif" font-size="10.00"> </text>
<text text-anchor="start" x="8.5" y="-354.5" font-family="Helvetica,sans-Serif" font-size="10.00">+</text>
<text text-anchor="start" x="18.5" y="-354.5" font-family="Helvetica,sans-Serif" font-size="10.00">virtual void Equip</text>
<text text-anchor="start" x="18.5" y="-342.5" font-family="Helvetica,sans-Serif" font-size="10.00">(SceneTree sceneTree)</text>
<text text-anchor="start" x="8.5" y="-326.5" font-family="Helvetica,sans-Serif" font-size="10.00">+</text>
<text text-anchor="start" x="18.5" y="-326.5" font-family="Helvetica,sans-Serif" font-size="10.00">virtual void UnEquip</text>
<text text-anchor="start" x="18.5" y="-314.5" font-family="Helvetica,sans-Serif" font-size="10.00">(SceneTree sceneTree)</text>
<text text-anchor="start" x="8.5" y="-298.5" font-family="Helvetica,sans-Serif" font-size="10.00">+</text>
<text text-anchor="start" x="18.5" y="-298.5" font-family="Helvetica,sans-Serif" font-size="10.00">virtual string Description()</text>
<polygon fill="#666666" stroke="#666666" points="4.5,-382 4.5,-382 133.5,-382 133.5,-382 4.5,-382"/>
<polygon fill="#666666" stroke="#666666" points="4.5,-366 4.5,-366 133.5,-366 133.5,-366 4.5,-366"/>
<polygon fill="none" stroke="#666666" points="4.5,-292 4.5,-400 133.5,-400 133.5,-292 4.5,-292"/>
</a>
</g>
</g>
<!-- Node3&#45;&gt;Node2 -->
<g id="edge2_Node000002_Node000003" class="edge">
<title>Node3&#45;&gt;Node2</title>
<g id="a_edge2_Node000002_Node000003"><a xlink:title=" ">
<path fill="none" stroke="#63b8ff" d="M69,-280.65C69,-272.22 69,-263.75 69,-255.8"/>
<polygon fill="none" stroke="#63b8ff" points="65.5,-280.56 69,-290.56 72.5,-280.56 65.5,-280.56"/>
</a>
</g>
</g>
<!-- Node4 -->
<g id="Node000004" class="node">
<title>Node4</title>
<g id="a_Node000004"><a xlink:href="../../df/d00/class_resource.html" target="_top" xlink:title=" ">
<polygon fill="white" stroke="none" points="95,-488 43,-488 43,-436 95,-436 95,-488"/>
<text text-anchor="start" x="48" y="-474.5" font-family="Helvetica,sans-Serif" font-size="10.00">Resource</text>
<text text-anchor="start" x="67.5" y="-458.5" font-family="Helvetica,sans-Serif" font-size="10.00"> </text>
<text text-anchor="start" x="67.5" y="-442.5" font-family="Helvetica,sans-Serif" font-size="10.00"> </text>
<polygon fill="#666666" stroke="#666666" points="43,-470 43,-470 95,-470 95,-470 43,-470"/>
<polygon fill="#666666" stroke="#666666" points="43,-454 43,-454 95,-454 95,-454 43,-454"/>
<polygon fill="none" stroke="#666666" points="43,-436 43,-488 95,-488 95,-436 43,-436"/>
</a>
</g>
</g>
<!-- Node4&#45;&gt;Node3 -->
<g id="edge3_Node000003_Node000004" class="edge">
<title>Node4&#45;&gt;Node3</title>
<g id="a_edge3_Node000003_Node000004"><a xlink:title=" ">
<path fill="none" stroke="#63b8ff" d="M69,-424.77C69,-416.81 69,-408.23 69,-399.77"/>
<polygon fill="none" stroke="#63b8ff" points="65.5,-424.75 69,-434.75 72.5,-424.75 65.5,-424.75"/>
</a>
</g>
</g>
</g>
</svg>
