<?xml version="1.0" encoding="UTF-8" standalone="no"?>
<!DOCTYPE svg PUBLIC "-//W3C//DTD SVG 1.1//EN"
 "http://www.w3.org/Graphics/SVG/1.1/DTD/svg11.dtd">
<!-- Generated by graphviz version 12.1.0 (20240811.2233)
 -->
<!-- Title: BaseMenu Pages: 1 -->
<!--zoomable 461 -->

<svg id="main" version="1.1" xmlns="http://www.w3.org/2000/svg" xmlns:xlink="http://www.w3.org/1999/xlink" xml:space="preserve" onload="init(evt)">
<style type="text/css"><![CDATA[
.node, .edge {opacity: 0.7;}
.node.selected, .edge.selected {opacity: 1;}
.edge:hover path { stroke: red; }
.edge:hover polygon { stroke: red; fill: red; }
]]></style>

<defs>
  <circle id="rim" cx="0" cy="0" r="7"/>
  <circle id="rim2" cx="0" cy="0" r="3.5"/>
  <g id="zoomPlus">
    <use xlink:href="#rim" fill="#404040"><set attributeName="fill" to="#808080" begin="zoomplus.mouseover" end="zoomplus.mouseout"/></use>
    <path d="M-4,0h8M0,-4v8" fill="none" stroke="white" stroke-width="1.5" pointer-events="none"/>
  </g>
  <g id="zoomMin">
    <use xlink:href="#rim" fill="#404040"><set attributeName="fill" to="#808080" begin="zoomminus.mouseover" end="zoomminus.mouseout"/></use>
    <path d="M-4,0h8" fill="none" stroke="white" stroke-width="1.5" pointer-events="none"/>
  </g>
  <g id="arrowUp" transform="translate(30 24)">
    <use xlink:href="#rim"/>
    <path pointer-events="none" fill="none" stroke="white" stroke-width="1.5" d="M0,-3.0v7 M-2.5,-0.5L0,-3.0L2.5,-0.5"/>
  </g>
  <g id="arrowRight" transform="rotate(90) translate(36 -43)">
    <use xlink:href="#rim"/>
    <path pointer-events="none" fill="none" stroke="white" stroke-width="1.5" d="M0,-3.0v7 M-2.5,-0.5L0,-3.0L2.5,-0.5"/>
  </g>
  <g id="arrowDown" transform="rotate(180) translate(-30 -48)">
    <use xlink:href="#rim"/>
    <path pointer-events="none" fill="none" stroke="white" stroke-width="1.5" d="M0,-3.0v7 M-2.5,-0.5L0,-3.0L2.5,-0.5"/>
  </g>
  <g id="arrowLeft" transform="rotate(270) translate(-36 17)">
    <use xlink:href="#rim"/>
    <path pointer-events="none" fill="none" stroke="white" stroke-width="1.5" d="M0,-3.0v7 M-2.5,-0.5L0,-3.0L2.5,-0.5"/>
  </g>
  <g id="resetDef">
    <use xlink:href="#rim2" fill="#404040"><set attributeName="fill" to="#808080" begin="reset.mouseover" end="reset.mouseout"/></use>
  </g>
</defs>
<script type="application/ecmascript">
var viewWidth = 274;
var viewHeight = 461;
var sectionId = 'dynsection-1';
</script>
<script type="application/ecmascript" xlink:href="../../svg.min.js"/>
<svg id="graph" class="graph">
<g id="viewport">
<title>BaseMenu</title>
<!-- Node1 -->
<g id="Node000001" class="node">
<title>Node1</title>
<g id="a_Node000001"><a xlink:title=" ">
<polygon fill="#999999" stroke="none" points="166,-152 0,-152 0,0 166,0 166,-152"/>
<text text-anchor="start" x="59.75" y="-138.5" font-family="Helvetica,sans-Serif" font-size="10.00">BaseMenu</text>
<text text-anchor="start" x="4" y="-122.5" font-family="Helvetica,sans-Serif" font-size="10.00">+</text>
<text text-anchor="start" x="14" y="-122.5" font-family="Helvetica,sans-Serif" font-size="10.00">MenuManager.MenuType</text>
<text text-anchor="start" x="14" y="-110.5" font-family="Helvetica,sans-Serif" font-size="10.00"> MenuType</text>
<text text-anchor="start" x="4" y="-94.5" font-family="Helvetica,sans-Serif" font-size="10.00">+</text>
<text text-anchor="start" x="14" y="-94.5" font-family="Helvetica,sans-Serif" font-size="10.00">override void _Ready()</text>
<text text-anchor="start" x="4" y="-78.5" font-family="Helvetica,sans-Serif" font-size="10.00">+</text>
<text text-anchor="start" x="14" y="-78.5" font-family="Helvetica,sans-Serif" font-size="10.00">void PushMenu(MenuManager.</text>
<text text-anchor="start" x="14" y="-66.5" font-family="Helvetica,sans-Serif" font-size="10.00">MenuType newMenu)</text>
<text text-anchor="start" x="4" y="-50.5" font-family="Helvetica,sans-Serif" font-size="10.00">+</text>
<text text-anchor="start" x="14" y="-50.5" font-family="Helvetica,sans-Serif" font-size="10.00">void PopMenu()</text>
<text text-anchor="start" x="4" y="-34.5" font-family="Helvetica,sans-Serif" font-size="10.00">+</text>
<text text-anchor="start" x="14" y="-34.5" font-family="Helvetica,sans-Serif" font-size="10.00">void SetRootMenu(MenuManager.</text>
<text text-anchor="start" x="14" y="-22.5" font-family="Helvetica,sans-Serif" font-size="10.00">MenuType newMenu)</text>
<text text-anchor="start" x="4.38" y="-6.5" font-family="Helvetica,sans-Serif" font-size="10.00">#</text>
<text text-anchor="start" x="14" y="-6.5" font-family="Helvetica,sans-Serif" font-size="10.00">virtual void SetupMenu()</text>
<polygon fill="#666666" stroke="#666666" points="0,-134 0,-134 166,-134 166,-134 0,-134"/>
<polygon fill="#666666" stroke="#666666" points="0,-106 0,-106 12,-106 12,-106 0,-106"/>
<polygon fill="#666666" stroke="#666666" points="12,-106 12,-106 166,-106 166,-106 12,-106"/>
<polygon fill="none" stroke="#666666" points="0,0 0,-152 166,-152 166,0 0,0"/>
</a>
</g>
</g>
<!-- Node2 -->
<g id="Node000002" class="node">
<title>Node2</title>
<g id="a_Node000002"><a xlink:href="../../d4/dc3/class_canvas_layer.html" target="_top" xlink:title=" ">
<polygon fill="white" stroke="none" points="74.5,-308 7.5,-308 7.5,-256 74.5,-256 74.5,-308"/>
<text text-anchor="start" x="12.12" y="-294.5" font-family="Helvetica,sans-Serif" font-size="10.00">CanvasLayer</text>
<text text-anchor="start" x="39.5" y="-278.5" font-family="Helvetica,sans-Serif" font-size="10.00"> </text>
<text text-anchor="start" x="39.5" y="-262.5" font-family="Helvetica,sans-Serif" font-size="10.00"> </text>
<polygon fill="#666666" stroke="#666666" points="7.5,-290 7.5,-290 74.5,-290 74.5,-290 7.5,-290"/>
<polygon fill="#666666" stroke="#666666" points="7.5,-274 7.5,-274 74.5,-274 74.5,-274 7.5,-274"/>
<polygon fill="none" stroke="#666666" points="7.5,-256 7.5,-308 74.5,-308 74.5,-256 7.5,-256"/>
</a>
</g>
</g>
<!-- Node2&#45;&gt;Node1 -->
<g id="edge1_Node000001_Node000002" class="edge">
<title>Node2&#45;&gt;Node1</title>
<g id="a_edge1_Node000001_Node000002"><a xlink:title=" ">
<path fill="none" stroke="#63b8ff" d="M48.35,-245.29C53.67,-219.48 61.03,-183.69 67.61,-151.74"/>
<polygon fill="none" stroke="#63b8ff" points="44.96,-244.41 46.37,-254.91 51.82,-245.82 44.96,-244.41"/>
</a>
</g>
</g>
<!-- Node3 -->
<g id="Node000003" class="node">
<title>Node3</title>
<g id="a_Node000003"><a xlink:href="../../d9/db2/class_menu_manager.html" target="_top" xlink:title=" ">
<polygon fill="white" stroke="none" points="265.5,-364 92.5,-364 92.5,-200 265.5,-200 265.5,-364"/>
<text text-anchor="start" x="148.25" y="-350.5" font-family="Helvetica,sans-Serif" font-size="10.00">MenuManager</text>
<text text-anchor="start" x="96.5" y="-334.5" font-family="Helvetica,sans-Serif" font-size="10.00">+</text>
<text text-anchor="start" x="106.5" y="-334.5" font-family="Helvetica,sans-Serif" font-size="10.00">MenuType CurrentMenu</text>
<text text-anchor="start" x="96.5" y="-318.5" font-family="Helvetica,sans-Serif" font-size="10.00">+</text>
<text text-anchor="start" x="106.5" y="-318.5" font-family="Helvetica,sans-Serif" font-size="10.00">delegate void MenuChanged</text>
<text text-anchor="start" x="106.5" y="-306.5" font-family="Helvetica,sans-Serif" font-size="10.00">EventHandler(MenuType newMenu,</text>
<text text-anchor="start" x="106.5" y="-294.5" font-family="Helvetica,sans-Serif" font-size="10.00"> bool isPush)</text>
<text text-anchor="start" x="96.5" y="-278.5" font-family="Helvetica,sans-Serif" font-size="10.00">+</text>
<text text-anchor="start" x="106.5" y="-278.5" font-family="Helvetica,sans-Serif" font-size="10.00">override void _Ready()</text>
<text text-anchor="start" x="96.5" y="-262.5" font-family="Helvetica,sans-Serif" font-size="10.00">+</text>
<text text-anchor="start" x="106.5" y="-262.5" font-family="Helvetica,sans-Serif" font-size="10.00">void PushMenu(MenuType</text>
<text text-anchor="start" x="106.5" y="-250.5" font-family="Helvetica,sans-Serif" font-size="10.00"> newMenu)</text>
<text text-anchor="start" x="96.5" y="-234.5" font-family="Helvetica,sans-Serif" font-size="10.00">+</text>
<text text-anchor="start" x="106.5" y="-234.5" font-family="Helvetica,sans-Serif" font-size="10.00">void PopMenu()</text>
<text text-anchor="start" x="96.5" y="-218.5" font-family="Helvetica,sans-Serif" font-size="10.00">+</text>
<text text-anchor="start" x="106.5" y="-218.5" font-family="Helvetica,sans-Serif" font-size="10.00">void SetRootMenu(MenuType</text>
<text text-anchor="start" x="106.5" y="-206.5" font-family="Helvetica,sans-Serif" font-size="10.00"> newMenu)</text>
<polygon fill="#666666" stroke="#666666" points="92.5,-346 92.5,-346 265.5,-346 265.5,-346 92.5,-346"/>
<polygon fill="#666666" stroke="#666666" points="92.5,-330 92.5,-330 104.5,-330 104.5,-330 92.5,-330"/>
<polygon fill="#666666" stroke="#666666" points="104.5,-330 104.5,-330 265.5,-330 265.5,-330 104.5,-330"/>
<polygon fill="none" stroke="#666666" points="92.5,-200 92.5,-364 265.5,-364 265.5,-200 92.5,-200"/>
</a>
</g>
</g>
<!-- Node3&#45;&gt;Node1 -->
<g id="edge2_Node000001_Node000003" class="edge">
<title>Node3&#45;&gt;Node1</title>
<g id="a_edge2_Node000001_Node000003"><a xlink:title=" ">
<path fill="none" stroke="#63b8ff" d="M140.92,-200.08C135.25,-188.03 129.38,-175.56 123.66,-163.4"/>
<polygon fill="none" stroke="#63b8ff" points="123.72,-163.53 117.54,-159.8 118.61,-152.67 124.78,-156.39 123.72,-163.53"/>
</a>
</g>
<text text-anchor="middle" x="165.88" y="-172.5" font-family="Helvetica,sans-Serif" font-size="10.00" fill="grey"> #MenuManager</text>
</g>
<!-- Node4 -->
<g id="Node000004" class="node">
<title>Node4</title>
<g id="a_Node000004"><a xlink:href="../../dc/d8f/class_node.html" target="_top" xlink:title=" ">
<polygon fill="white" stroke="none" points="195.5,-453 162.5,-453 162.5,-401 195.5,-401 195.5,-453"/>
<text text-anchor="start" x="167.38" y="-439.5" font-family="Helvetica,sans-Serif" font-size="10.00">Node</text>
<text text-anchor="start" x="177.5" y="-423.5" font-family="Helvetica,sans-Serif" font-size="10.00"> </text>
<text text-anchor="start" x="177.5" y="-407.5" font-family="Helvetica,sans-Serif" font-size="10.00"> </text>
<polygon fill="#666666" stroke="#666666" points="162.5,-435 162.5,-435 195.5,-435 195.5,-435 162.5,-435"/>
<polygon fill="#666666" stroke="#666666" points="162.5,-419 162.5,-419 195.5,-419 195.5,-419 162.5,-419"/>
<polygon fill="none" stroke="#666666" points="162.5,-401 162.5,-453 195.5,-453 195.5,-401 162.5,-401"/>
</a>
</g>
</g>
<!-- Node4&#45;&gt;Node3 -->
<g id="edge3_Node000003_Node000004" class="edge">
<title>Node4&#45;&gt;Node3</title>
<g id="a_edge3_Node000003_Node000004"><a xlink:title=" ">
<path fill="none" stroke="#63b8ff" d="M179,-389.61C179,-381.61 179,-372.82 179,-363.83"/>
<polygon fill="none" stroke="#63b8ff" points="175.5,-389.58 179,-399.58 182.5,-389.58 175.5,-389.58"/>
</a>
</g>
</g>
</g>
</svg>

<g id="navigator" transform="translate(0 0)" fill="#404254">
  <rect fill="#f2f5e9" fill-opacity="0.5" stroke="#606060" stroke-width=".5" x="0" y="0" width="60" height="60"/>
  <use id="zoomplus" xlink:href="#zoomPlus" x="17" y="9" onmousedown="handleZoom(evt,'in')"/>
  <use id="zoomminus" xlink:href="#zoomMin" x="42" y="9" onmousedown="handleZoom(evt,'out')"/>
  <use id="reset" xlink:href="#resetDef" x="30" y="36" onmousedown="handleReset()"/>
   <use id="arrowup" xlink:href="#arrowUp" x="0" y="0" onmousedown="handlePan(0,-1)"/>
  <use id="arrowright" xlink:href="#arrowRight" x="0" y="0" onmousedown="handlePan(1,0)"/>
  <use id="arrowdown" xlink:href="#arrowDown" x="0" y="0" onmousedown="handlePan(0,1)"/>
  <use id="arrowleft" xlink:href="#arrowLeft" x="0" y="0" onmousedown="handlePan(-1,0)"/>
</g>
<svg viewBox="0 0 15 15" width="100%" height="30px" preserveAspectRatio="xMaxYMin meet">
 <g id="arrow_out" transform="scale(0.3 0.3)">
  <a xlink:href="class_base_menu__coll__graph_org.svg" target="_base">
   <rect id="button" ry="5" rx="5" y="6" x="6" height="38" width="38"
        fill="#f2f5e9" fill-opacity="0.5" stroke="#606060" stroke-width="1.0"/>
   <path id="arrow"
     d="M 11.500037,31.436501 C 11.940474,20.09759 22.043105,11.32322 32.158766,21.979434 L 37.068811,17.246167 C 37.068811,17.246167 37.088388,32 37.088388,32 L 22.160133,31.978069 C 22.160133,31.978069 26.997745,27.140456 26.997745,27.140456 C 18.528582,18.264221 13.291696,25.230495 11.500037,31.436501 z"
     style="fill:#404040;"/>
  </a>
 </g>
</svg>

<style type='text/css'>
<![CDATA[
[data-mouse-over-selected='false'] { opacity: 0.7; }
[data-mouse-over-selected='true']  { opacity: 1.0; }
]]>
</style>
<script type="application/ecmascript"><![CDATA[
document.addEventListener('DOMContentLoaded', (event) => {
  highlightEdges();
  highlightAdjacentNodes();
});
]]></script>
</svg>
