<?xml version="1.0" encoding="UTF-8" standalone="no"?>
<!DOCTYPE svg PUBLIC "-//W3C//DTD SVG 1.1//EN"
 "http://www.w3.org/Graphics/SVG/1.1/DTD/svg11.dtd">
<!-- Generated by graphviz version 12.1.0 (20240811.2233)
 -->
<!-- Title: BaseMenu Pages: 1 -->
<svg width="274pt" height="461pt"
 viewBox="0.00 0.00 273.50 461.00" xmlns="http://www.w3.org/2000/svg" xmlns:xlink="http://www.w3.org/1999/xlink">
<g id="graph0" class="graph" transform="scale(1 1) rotate(0) translate(4 457)">
<title>BaseMenu</title>
<!-- Node1 -->
<g id="Node000001" class="node">
<title>Node1</title>
<g id="a_Node000001"><a xlink:title=" ">
<polygon fill="#999999" stroke="none" points="166,-152 0,-152 0,0 166,0 166,-152"/>
<text text-anchor="start" x="59.75" y="-138.5" font-family="Helvetica,sans-Serif" font-size="10.00">BaseMenu</text>
<text text-anchor="start" x="4" y="-122.5" font-family="Helvetica,sans-Serif" font-size="10.00">+</text>
<text text-anchor="start" x="14" y="-122.5" font-family="Helvetica,sans-Serif" font-size="10.00">MenuManager.MenuType</text>
<text text-anchor="start" x="14" y="-110.5" font-family="Helvetica,sans-Serif" font-size="10.00"> MenuType</text>
<text text-anchor="start" x="4" y="-94.5" font-family="Helvetica,sans-Serif" font-size="10.00">+</text>
<text text-anchor="start" x="14" y="-94.5" font-family="Helvetica,sans-Serif" font-size="10.00">override void _Ready()</text>
<text text-anchor="start" x="4" y="-78.5" font-family="Helvetica,sans-Serif" font-size="10.00">+</text>
<text text-anchor="start" x="14" y="-78.5" font-family="Helvetica,sans-Serif" font-size="10.00">void PushMenu(MenuManager.</text>
<text text-anchor="start" x="14" y="-66.5" font-family="Helvetica,sans-Serif" font-size="10.00">MenuType newMenu)</text>
<text text-anchor="start" x="4" y="-50.5" font-family="Helvetica,sans-Serif" font-size="10.00">+</text>
<text text-anchor="start" x="14" y="-50.5" font-family="Helvetica,sans-Serif" font-size="10.00">void PopMenu()</text>
<text text-anchor="start" x="4" y="-34.5" font-family="Helvetica,sans-Serif" font-size="10.00">+</text>
<text text-anchor="start" x="14" y="-34.5" font-family="Helvetica,sans-Serif" font-size="10.00">void SetRootMenu(MenuManager.</text>
<text text-anchor="start" x="14" y="-22.5" font-family="Helvetica,sans-Serif" font-size="10.00">MenuType newMenu)</text>
<text text-anchor="start" x="4.38" y="-6.5" font-family="Helvetica,sans-Serif" font-size="10.00">#</text>
<text text-anchor="start" x="14" y="-6.5" font-family="Helvetica,sans-Serif" font-size="10.00">virtual void SetupMenu()</text>
<polygon fill="#666666" stroke="#666666" points="0,-134 0,-134 166,-134 166,-134 0,-134"/>
<polygon fill="#666666" stroke="#666666" points="0,-106 0,-106 12,-106 12,-106 0,-106"/>
<polygon fill="#666666" stroke="#666666" points="12,-106 12,-106 166,-106 166,-106 12,-106"/>
<polygon fill="none" stroke="#666666" points="0,0 0,-152 166,-152 166,0 0,0"/>
</a>
</g>
</g>
<!-- Node2 -->
<g id="Node000002" class="node">
<title>Node2</title>
<g id="a_Node000002"><a xlink:href="../../d4/dc3/class_canvas_layer.html" target="_top" xlink:title=" ">
<polygon fill="white" stroke="none" points="74.5,-308 7.5,-308 7.5,-256 74.5,-256 74.5,-308"/>
<text text-anchor="start" x="12.12" y="-294.5" font-family="Helvetica,sans-Serif" font-size="10.00">CanvasLayer</text>
<text text-anchor="start" x="39.5" y="-278.5" font-family="Helvetica,sans-Serif" font-size="10.00"> </text>
<text text-anchor="start" x="39.5" y="-262.5" font-family="Helvetica,sans-Serif" font-size="10.00"> </text>
<polygon fill="#666666" stroke="#666666" points="7.5,-290 7.5,-290 74.5,-290 74.5,-290 7.5,-290"/>
<polygon fill="#666666" stroke="#666666" points="7.5,-274 7.5,-274 74.5,-274 74.5,-274 7.5,-274"/>
<polygon fill="none" stroke="#666666" points="7.5,-256 7.5,-308 74.5,-308 74.5,-256 7.5,-256"/>
</a>
</g>
</g>
<!-- Node2&#45;&gt;Node1 -->
<g id="edge1_Node000001_Node000002" class="edge">
<title>Node2&#45;&gt;Node1</title>
<g id="a_edge1_Node000001_Node000002"><a xlink:title=" ">
<path fill="none" stroke="#63b8ff" d="M48.35,-245.29C53.67,-219.48 61.03,-183.69 67.61,-151.74"/>
<polygon fill="none" stroke="#63b8ff" points="44.96,-244.41 46.37,-254.91 51.82,-245.82 44.96,-244.41"/>
</a>
</g>
</g>
<!-- Node3 -->
<g id="Node000003" class="node">
<title>Node3</title>
<g id="a_Node000003"><a xlink:href="../../d9/db2/class_menu_manager.html" target="_top" xlink:title=" ">
<polygon fill="white" stroke="none" points="265.5,-364 92.5,-364 92.5,-200 265.5,-200 265.5,-364"/>
<text text-anchor="start" x="148.25" y="-350.5" font-family="Helvetica,sans-Serif" font-size="10.00">MenuManager</text>
<text text-anchor="start" x="96.5" y="-334.5" font-family="Helvetica,sans-Serif" font-size="10.00">+</text>
<text text-anchor="start" x="106.5" y="-334.5" font-family="Helvetica,sans-Serif" font-size="10.00">MenuType CurrentMenu</text>
<text text-anchor="start" x="96.5" y="-318.5" font-family="Helvetica,sans-Serif" font-size="10.00">+</text>
<text text-anchor="start" x="106.5" y="-318.5" font-family="Helvetica,sans-Serif" font-size="10.00">delegate void MenuChanged</text>
<text text-anchor="start" x="106.5" y="-306.5" font-family="Helvetica,sans-Serif" font-size="10.00">EventHandler(MenuType newMenu,</text>
<text text-anchor="start" x="106.5" y="-294.5" font-family="Helvetica,sans-Serif" font-size="10.00"> bool isPush)</text>
<text text-anchor="start" x="96.5" y="-278.5" font-family="Helvetica,sans-Serif" font-size="10.00">+</text>
<text text-anchor="start" x="106.5" y="-278.5" font-family="Helvetica,sans-Serif" font-size="10.00">override void _Ready()</text>
<text text-anchor="start" x="96.5" y="-262.5" font-family="Helvetica,sans-Serif" font-size="10.00">+</text>
<text text-anchor="start" x="106.5" y="-262.5" font-family="Helvetica,sans-Serif" font-size="10.00">void PushMenu(MenuType</text>
<text text-anchor="start" x="106.5" y="-250.5" font-family="Helvetica,sans-Serif" font-size="10.00"> newMenu)</text>
<text text-anchor="start" x="96.5" y="-234.5" font-family="Helvetica,sans-Serif" font-size="10.00">+</text>
<text text-anchor="start" x="106.5" y="-234.5" font-family="Helvetica,sans-Serif" font-size="10.00">void PopMenu()</text>
<text text-anchor="start" x="96.5" y="-218.5" font-family="Helvetica,sans-Serif" font-size="10.00">+</text>
<text text-anchor="start" x="106.5" y="-218.5" font-family="Helvetica,sans-Serif" font-size="10.00">void SetRootMenu(MenuType</text>
<text text-anchor="start" x="106.5" y="-206.5" font-family="Helvetica,sans-Serif" font-size="10.00"> newMenu)</text>
<polygon fill="#666666" stroke="#666666" points="92.5,-346 92.5,-346 265.5,-346 265.5,-346 92.5,-346"/>
<polygon fill="#666666" stroke="#666666" points="92.5,-330 92.5,-330 104.5,-330 104.5,-330 92.5,-330"/>
<polygon fill="#666666" stroke="#666666" points="104.5,-330 104.5,-330 265.5,-330 265.5,-330 104.5,-330"/>
<polygon fill="none" stroke="#666666" points="92.5,-200 92.5,-364 265.5,-364 265.5,-200 92.5,-200"/>
</a>
</g>
</g>
<!-- Node3&#45;&gt;Node1 -->
<g id="edge2_Node000001_Node000003" class="edge">
<title>Node3&#45;&gt;Node1</title>
<g id="a_edge2_Node000001_Node000003"><a xlink:title=" ">
<path fill="none" stroke="#63b8ff" d="M140.92,-200.08C135.25,-188.03 129.38,-175.56 123.66,-163.4"/>
<polygon fill="none" stroke="#63b8ff" points="123.72,-163.53 117.54,-159.8 118.61,-152.67 124.78,-156.39 123.72,-163.53"/>
</a>
</g>
<text text-anchor="middle" x="165.88" y="-172.5" font-family="Helvetica,sans-Serif" font-size="10.00" fill="grey"> #MenuManager</text>
</g>
<!-- Node4 -->
<g id="Node000004" class="node">
<title>Node4</title>
<g id="a_Node000004"><a xlink:href="../../dc/d8f/class_node.html" target="_top" xlink:title=" ">
<polygon fill="white" stroke="none" points="195.5,-453 162.5,-453 162.5,-401 195.5,-401 195.5,-453"/>
<text text-anchor="start" x="167.38" y="-439.5" font-family="Helvetica,sans-Serif" font-size="10.00">Node</text>
<text text-anchor="start" x="177.5" y="-423.5" font-family="Helvetica,sans-Serif" font-size="10.00"> </text>
<text text-anchor="start" x="177.5" y="-407.5" font-family="Helvetica,sans-Serif" font-size="10.00"> </text>
<polygon fill="#666666" stroke="#666666" points="162.5,-435 162.5,-435 195.5,-435 195.5,-435 162.5,-435"/>
<polygon fill="#666666" stroke="#666666" points="162.5,-419 162.5,-419 195.5,-419 195.5,-419 162.5,-419"/>
<polygon fill="none" stroke="#666666" points="162.5,-401 162.5,-453 195.5,-453 195.5,-401 162.5,-401"/>
</a>
</g>
</g>
<!-- Node4&#45;&gt;Node3 -->
<g id="edge3_Node000003_Node000004" class="edge">
<title>Node4&#45;&gt;Node3</title>
<g id="a_edge3_Node000003_Node000004"><a xlink:title=" ">
<path fill="none" stroke="#63b8ff" d="M179,-389.61C179,-381.61 179,-372.82 179,-363.83"/>
<polygon fill="none" stroke="#63b8ff" points="175.5,-389.58 179,-399.58 182.5,-389.58 175.5,-389.58"/>
</a>
</g>
</g>
</g>
</svg>
