<?xml version="1.0" encoding="UTF-8" standalone="no"?>
<!DOCTYPE svg PUBLIC "-//W3C//DTD SVG 1.1//EN"
 "http://www.w3.org/Graphics/SVG/1.1/DTD/svg11.dtd">
<!-- Generated by graphviz version 12.1.0 (20240811.2233)
 -->
<!-- Title: CanvasLayer Pages: 1 -->
<!--zoomable 516 -->

<svg id="main" version="1.1" xmlns="http://www.w3.org/2000/svg" xmlns:xlink="http://www.w3.org/1999/xlink" xml:space="preserve" onload="init(evt)">
<style type="text/css"><![CDATA[
.node, .edge {opacity: 0.7;}
.node.selected, .edge.selected {opacity: 1;}
.edge:hover path { stroke: red; }
.edge:hover polygon { stroke: red; fill: red; }
]]></style>

<defs>
  <circle id="rim" cx="0" cy="0" r="7"/>
  <circle id="rim2" cx="0" cy="0" r="3.5"/>
  <g id="zoomPlus">
    <use xlink:href="#rim" fill="#404040"><set attributeName="fill" to="#808080" begin="zoomplus.mouseover" end="zoomplus.mouseout"/></use>
    <path d="M-4,0h8M0,-4v8" fill="none" stroke="white" stroke-width="1.5" pointer-events="none"/>
  </g>
  <g id="zoomMin">
    <use xlink:href="#rim" fill="#404040"><set attributeName="fill" to="#808080" begin="zoomminus.mouseover" end="zoomminus.mouseout"/></use>
    <path d="M-4,0h8" fill="none" stroke="white" stroke-width="1.5" pointer-events="none"/>
  </g>
  <g id="arrowUp" transform="translate(30 24)">
    <use xlink:href="#rim"/>
    <path pointer-events="none" fill="none" stroke="white" stroke-width="1.5" d="M0,-3.0v7 M-2.5,-0.5L0,-3.0L2.5,-0.5"/>
  </g>
  <g id="arrowRight" transform="rotate(90) translate(36 -43)">
    <use xlink:href="#rim"/>
    <path pointer-events="none" fill="none" stroke="white" stroke-width="1.5" d="M0,-3.0v7 M-2.5,-0.5L0,-3.0L2.5,-0.5"/>
  </g>
  <g id="arrowDown" transform="rotate(180) translate(-30 -48)">
    <use xlink:href="#rim"/>
    <path pointer-events="none" fill="none" stroke="white" stroke-width="1.5" d="M0,-3.0v7 M-2.5,-0.5L0,-3.0L2.5,-0.5"/>
  </g>
  <g id="arrowLeft" transform="rotate(270) translate(-36 17)">
    <use xlink:href="#rim"/>
    <path pointer-events="none" fill="none" stroke="white" stroke-width="1.5" d="M0,-3.0v7 M-2.5,-0.5L0,-3.0L2.5,-0.5"/>
  </g>
  <g id="resetDef">
    <use xlink:href="#rim2" fill="#404040"><set attributeName="fill" to="#808080" begin="reset.mouseover" end="reset.mouseout"/></use>
  </g>
</defs>
<script type="application/ecmascript">
var viewWidth = 370;
var viewHeight = 516;
var sectionId = 'dynsection-0';
</script>
<script type="application/ecmascript" xlink:href="../../svg.min.js"/>
<svg id="graph" class="graph">
<g id="viewport">
<title>CanvasLayer</title>
<!-- Node1 -->
<g id="Node000001" class="node">
<title>Node1</title>
<g id="a_Node000001"><a xlink:title=" ">
<polygon fill="#999999" stroke="none" points="219,-508 152,-508 152,-456 219,-456 219,-508"/>
<text text-anchor="start" x="156.62" y="-494.5" font-family="Helvetica,sans-Serif" font-size="10.00">CanvasLayer</text>
<text text-anchor="start" x="184" y="-478.5" font-family="Helvetica,sans-Serif" font-size="10.00"> </text>
<text text-anchor="start" x="184" y="-462.5" font-family="Helvetica,sans-Serif" font-size="10.00"> </text>
<polygon fill="#666666" stroke="#666666" points="152,-490 152,-490 219,-490 219,-490 152,-490"/>
<polygon fill="#666666" stroke="#666666" points="152,-474 152,-474 219,-474 219,-474 152,-474"/>
<polygon fill="none" stroke="#666666" points="152,-456 152,-508 219,-508 219,-456 152,-456"/>
</a>
</g>
</g>
<!-- Node2 -->
<g id="Node000002" class="node">
<title>Node2</title>
<g id="a_Node000002"><a xlink:href="../../df/d7a/class_augment_inventory.html" target="_top" xlink:title=" ">
<polygon fill="white" stroke="none" points="181,-348 0,-348 0,-72 181,-72 181,-348"/>
<text text-anchor="start" x="50.75" y="-334.5" font-family="Helvetica,sans-Serif" font-size="10.00">AugmentInventory</text>
<text text-anchor="start" x="89" y="-318.5" font-family="Helvetica,sans-Serif" font-size="10.00"> </text>
<text text-anchor="start" x="4" y="-302.5" font-family="Helvetica,sans-Serif" font-size="10.00">+</text>
<text text-anchor="start" x="14" y="-302.5" font-family="Helvetica,sans-Serif" font-size="10.00">override void _Ready()</text>
<text text-anchor="start" x="4" y="-286.5" font-family="Helvetica,sans-Serif" font-size="10.00">+</text>
<text text-anchor="start" x="14" y="-286.5" font-family="Helvetica,sans-Serif" font-size="10.00">override void _Unhandled</text>
<text text-anchor="start" x="14" y="-274.5" font-family="Helvetica,sans-Serif" font-size="10.00">Input(InputEvent @event)</text>
<text text-anchor="start" x="4" y="-258.5" font-family="Helvetica,sans-Serif" font-size="10.00">+</text>
<text text-anchor="start" x="14" y="-258.5" font-family="Helvetica,sans-Serif" font-size="10.00">void SetVisibility</text>
<text text-anchor="start" x="14" y="-246.5" font-family="Helvetica,sans-Serif" font-size="10.00">(bool isVisible)</text>
<text text-anchor="start" x="4" y="-230.5" font-family="Helvetica,sans-Serif" font-size="10.00">+</text>
<text text-anchor="start" x="14" y="-230.5" font-family="Helvetica,sans-Serif" font-size="10.00">void AddAugmentToInventory</text>
<text text-anchor="start" x="14" y="-218.5" font-family="Helvetica,sans-Serif" font-size="10.00">(Augment augment)</text>
<text text-anchor="start" x="4" y="-202.5" font-family="Helvetica,sans-Serif" font-size="10.00">+</text>
<text text-anchor="start" x="14" y="-202.5" font-family="Helvetica,sans-Serif" font-size="10.00">void SwitchToFuseAugments()</text>
<text text-anchor="start" x="4" y="-186.5" font-family="Helvetica,sans-Serif" font-size="10.00">+</text>
<text text-anchor="start" x="14" y="-186.5" font-family="Helvetica,sans-Serif" font-size="10.00">void SwitchToAugmentInventory()</text>
<text text-anchor="start" x="4" y="-170.5" font-family="Helvetica,sans-Serif" font-size="10.00">+</text>
<text text-anchor="start" x="14" y="-170.5" font-family="Helvetica,sans-Serif" font-size="10.00">void LeftButtonPressed()</text>
<text text-anchor="start" x="4" y="-154.5" font-family="Helvetica,sans-Serif" font-size="10.00">+</text>
<text text-anchor="start" x="14" y="-154.5" font-family="Helvetica,sans-Serif" font-size="10.00">void RightButtonPressed()</text>
<text text-anchor="start" x="4" y="-138.5" font-family="Helvetica,sans-Serif" font-size="10.00">+</text>
<text text-anchor="start" x="14" y="-138.5" font-family="Helvetica,sans-Serif" font-size="10.00">void FuseSelectedAugments()</text>
<text text-anchor="start" x="4" y="-122.5" font-family="Helvetica,sans-Serif" font-size="10.00">+</text>
<text text-anchor="start" x="14" y="-122.5" font-family="Helvetica,sans-Serif" font-size="10.00">void AddRandomAugment()</text>
<text text-anchor="start" x="4" y="-106.5" font-family="Helvetica,sans-Serif" font-size="10.00">+</text>
<text text-anchor="start" x="14" y="-106.5" font-family="Helvetica,sans-Serif" font-size="10.00">GridContainer GetInactive</text>
<text text-anchor="start" x="14" y="-94.5" font-family="Helvetica,sans-Serif" font-size="10.00">Augments()</text>
<text text-anchor="start" x="4" y="-78.5" font-family="Helvetica,sans-Serif" font-size="10.00">+</text>
<text text-anchor="start" x="14" y="-78.5" font-family="Helvetica,sans-Serif" font-size="10.00">HBoxContainer GetActiveAugments()</text>
<polygon fill="#666666" stroke="#666666" points="0,-330 0,-330 181,-330 181,-330 0,-330"/>
<polygon fill="#666666" stroke="#666666" points="0,-314 0,-314 181,-314 181,-314 0,-314"/>
<polygon fill="none" stroke="#666666" points="0,-72 0,-348 181,-348 181,-72 0,-72"/>
</a>
</g>
</g>
<!-- Node1&#45;&gt;Node2 -->
<g id="edge1_Node000001_Node000002" class="edge">
<title>Node1&#45;&gt;Node2</title>
<g id="a_edge1_Node000001_Node000002"><a xlink:title=" ">
<path fill="none" stroke="#63b8ff" d="M173.02,-445.53C164.07,-420.1 151.4,-384.08 138.66,-347.88"/>
<polygon fill="none" stroke="#63b8ff" points="169.61,-446.38 176.23,-454.66 176.21,-444.06 169.61,-446.38"/>
</a>
</g>
</g>
<!-- Node3 -->
<g id="Node000003" class="node">
<title>Node3</title>
<g id="a_Node000003"><a xlink:href="../../d9/dc8/class_skill_tree.html" target="_top" xlink:title=" ">
<polygon fill="white" stroke="none" points="361.5,-420 199.5,-420 199.5,0 361.5,0 361.5,-420"/>
<text text-anchor="start" x="261.38" y="-406.5" font-family="Helvetica,sans-Serif" font-size="10.00">SkillTree</text>
<text text-anchor="start" x="279" y="-390.5" font-family="Helvetica,sans-Serif" font-size="10.00"> </text>
<text text-anchor="start" x="203.5" y="-374.5" font-family="Helvetica,sans-Serif" font-size="10.00">+</text>
<text text-anchor="start" x="213.5" y="-374.5" font-family="Helvetica,sans-Serif" font-size="10.00">override void _Ready()</text>
<text text-anchor="start" x="203.5" y="-358.5" font-family="Helvetica,sans-Serif" font-size="10.00">+</text>
<text text-anchor="start" x="213.5" y="-358.5" font-family="Helvetica,sans-Serif" font-size="10.00">override void _Unhandled</text>
<text text-anchor="start" x="213.5" y="-346.5" font-family="Helvetica,sans-Serif" font-size="10.00">Input(InputEvent @event)</text>
<text text-anchor="start" x="203.5" y="-330.5" font-family="Helvetica,sans-Serif" font-size="10.00">+</text>
<text text-anchor="start" x="213.5" y="-330.5" font-family="Helvetica,sans-Serif" font-size="10.00">void SetVisibility</text>
<text text-anchor="start" x="213.5" y="-318.5" font-family="Helvetica,sans-Serif" font-size="10.00">(bool isVisible)</text>
<text text-anchor="start" x="203.5" y="-302.5" font-family="Helvetica,sans-Serif" font-size="10.00">+</text>
<text text-anchor="start" x="213.5" y="-302.5" font-family="Helvetica,sans-Serif" font-size="10.00">void LeftButtonPressed()</text>
<text text-anchor="start" x="203.5" y="-286.5" font-family="Helvetica,sans-Serif" font-size="10.00">+</text>
<text text-anchor="start" x="213.5" y="-286.5" font-family="Helvetica,sans-Serif" font-size="10.00">void RightButtonPressed()</text>
<text text-anchor="start" x="203.5" y="-270.5" font-family="Helvetica,sans-Serif" font-size="10.00">+</text>
<text text-anchor="start" x="213.5" y="-270.5" font-family="Helvetica,sans-Serif" font-size="10.00">void SetStartBasic</text>
<text text-anchor="start" x="213.5" y="-258.5" font-family="Helvetica,sans-Serif" font-size="10.00">(MagicType magicType)</text>
<text text-anchor="start" x="203.5" y="-242.5" font-family="Helvetica,sans-Serif" font-size="10.00">+</text>
<text text-anchor="start" x="213.5" y="-242.5" font-family="Helvetica,sans-Serif" font-size="10.00">int IsSkillCurrentlyEquipped</text>
<text text-anchor="start" x="213.5" y="-230.5" font-family="Helvetica,sans-Serif" font-size="10.00">(int nrSkillSlot, int index)</text>
<text text-anchor="start" x="203.5" y="-214.5" font-family="Helvetica,sans-Serif" font-size="10.00">+</text>
<text text-anchor="start" x="213.5" y="-214.5" font-family="Helvetica,sans-Serif" font-size="10.00">SpellName? GetSpellFromIndex</text>
<text text-anchor="start" x="213.5" y="-202.5" font-family="Helvetica,sans-Serif" font-size="10.00">(int index)</text>
<text text-anchor="start" x="203.5" y="-186.5" font-family="Helvetica,sans-Serif" font-size="10.00">+</text>
<text text-anchor="start" x="213.5" y="-186.5" font-family="Helvetica,sans-Serif" font-size="10.00">int GetIndexFromSpell</text>
<text text-anchor="start" x="213.5" y="-174.5" font-family="Helvetica,sans-Serif" font-size="10.00">(SpellName spellName)</text>
<text text-anchor="start" x="203.5" y="-158.5" font-family="Helvetica,sans-Serif" font-size="10.00">+</text>
<text text-anchor="start" x="213.5" y="-158.5" font-family="Helvetica,sans-Serif" font-size="10.00">int GetSkillPointsOfType</text>
<text text-anchor="start" x="213.5" y="-146.5" font-family="Helvetica,sans-Serif" font-size="10.00">(MagicType magicType)</text>
<text text-anchor="start" x="203.5" y="-130.5" font-family="Helvetica,sans-Serif" font-size="10.00">+</text>
<text text-anchor="start" x="213.5" y="-130.5" font-family="Helvetica,sans-Serif" font-size="10.00">bool IsUnlocked(SpellName</text>
<text text-anchor="start" x="213.5" y="-118.5" font-family="Helvetica,sans-Serif" font-size="10.00"> spellName)</text>
<text text-anchor="start" x="203.5" y="-102.5" font-family="Helvetica,sans-Serif" font-size="10.00">+</text>
<text text-anchor="start" x="213.5" y="-102.5" font-family="Helvetica,sans-Serif" font-size="10.00">bool IsAnyBasicSpellUnlocked()</text>
<text text-anchor="start" x="203.5" y="-86.5" font-family="Helvetica,sans-Serif" font-size="10.00">+</text>
<text text-anchor="start" x="213.5" y="-86.5" font-family="Helvetica,sans-Serif" font-size="10.00">SpellName GetRandomUnlocked</text>
<text text-anchor="start" x="213.5" y="-74.5" font-family="Helvetica,sans-Serif" font-size="10.00">BasicSpell()</text>
<text text-anchor="start" x="203.5" y="-58.5" font-family="Helvetica,sans-Serif" font-size="10.00">+</text>
<text text-anchor="start" x="213.5" y="-58.5" font-family="Helvetica,sans-Serif" font-size="10.00">void AddSkillPointOfType</text>
<text text-anchor="start" x="213.5" y="-46.5" font-family="Helvetica,sans-Serif" font-size="10.00">(MagicType magicType)</text>
<text text-anchor="start" x="203.5" y="-30.5" font-family="Helvetica,sans-Serif" font-size="10.00">+</text>
<text text-anchor="start" x="213.5" y="-30.5" font-family="Helvetica,sans-Serif" font-size="10.00">static SpellName Convert</text>
<text text-anchor="start" x="213.5" y="-18.5" font-family="Helvetica,sans-Serif" font-size="10.00">StringNameToSpellName</text>
<text text-anchor="start" x="213.5" y="-6.5" font-family="Helvetica,sans-Serif" font-size="10.00">(string skillName)</text>
<polygon fill="#666666" stroke="#666666" points="199.5,-402 199.5,-402 361.5,-402 361.5,-402 199.5,-402"/>
<polygon fill="#666666" stroke="#666666" points="199.5,-386 199.5,-386 361.5,-386 361.5,-386 199.5,-386"/>
<polygon fill="none" stroke="#666666" points="199.5,0 199.5,-420 361.5,-420 361.5,0 199.5,0"/>
</a>
</g>
</g>
<!-- Node1&#45;&gt;Node3 -->
<g id="edge2_Node000001_Node000003" class="edge">
<title>Node1&#45;&gt;Node3</title>
<g id="a_edge2_Node000001_Node000003"><a xlink:title=" ">
<path fill="none" stroke="#63b8ff" d="M198.07,-445.29C200.74,-437.68 203.75,-429.12 207,-419.9"/>
<polygon fill="none" stroke="#63b8ff" points="194.79,-444.06 194.77,-454.66 201.39,-446.38 194.79,-444.06"/>
</a>
</g>
</g>
</g>
</svg>

<g id="navigator" transform="translate(0 0)" fill="#404254">
  <rect fill="#f2f5e9" fill-opacity="0.5" stroke="#606060" stroke-width=".5" x="0" y="0" width="60" height="60"/>
  <use id="zoomplus" xlink:href="#zoomPlus" x="17" y="9" onmousedown="handleZoom(evt,'in')"/>
  <use id="zoomminus" xlink:href="#zoomMin" x="42" y="9" onmousedown="handleZoom(evt,'out')"/>
  <use id="reset" xlink:href="#resetDef" x="30" y="36" onmousedown="handleReset()"/>
   <use id="arrowup" xlink:href="#arrowUp" x="0" y="0" onmousedown="handlePan(0,-1)"/>
  <use id="arrowright" xlink:href="#arrowRight" x="0" y="0" onmousedown="handlePan(1,0)"/>
  <use id="arrowdown" xlink:href="#arrowDown" x="0" y="0" onmousedown="handlePan(0,1)"/>
  <use id="arrowleft" xlink:href="#arrowLeft" x="0" y="0" onmousedown="handlePan(-1,0)"/>
</g>
<svg viewBox="0 0 15 15" width="100%" height="30px" preserveAspectRatio="xMaxYMin meet">
 <g id="arrow_out" transform="scale(0.3 0.3)">
  <a xlink:href="class_canvas_layer__inherit__graph_org.svg" target="_base">
   <rect id="button" ry="5" rx="5" y="6" x="6" height="38" width="38"
        fill="#f2f5e9" fill-opacity="0.5" stroke="#606060" stroke-width="1.0"/>
   <path id="arrow"
     d="M 11.500037,31.436501 C 11.940474,20.09759 22.043105,11.32322 32.158766,21.979434 L 37.068811,17.246167 C 37.068811,17.246167 37.088388,32 37.088388,32 L 22.160133,31.978069 C 22.160133,31.978069 26.997745,27.140456 26.997745,27.140456 C 18.528582,18.264221 13.291696,25.230495 11.500037,31.436501 z"
     style="fill:#404040;"/>
  </a>
 </g>
</svg>

<style type='text/css'>
<![CDATA[
[data-mouse-over-selected='false'] { opacity: 0.7; }
[data-mouse-over-selected='true']  { opacity: 1.0; }
]]>
</style>
<script type="application/ecmascript"><![CDATA[
document.addEventListener('DOMContentLoaded', (event) => {
  highlightEdges();
  highlightAdjacentNodes();
});
]]></script>
</svg>
