<?xml version="1.0" encoding="UTF-8" standalone="no"?>
<!DOCTYPE svg PUBLIC "-//W3C//DTD SVG 1.1//EN"
 "http://www.w3.org/Graphics/SVG/1.1/DTD/svg11.dtd">
<!-- Generated by graphviz version 12.1.0 (20240811.2233)
 -->
<!-- Title: CanvasLayer Pages: 1 -->
<svg width="660pt" height="456pt"
 viewBox="0.00 0.00 660.00 456.00" xmlns="http://www.w3.org/2000/svg" xmlns:xlink="http://www.w3.org/1999/xlink">
<g id="graph0" class="graph" transform="scale(1 1) rotate(0) translate(4 452)">
<title>CanvasLayer</title>
<!-- Node1 -->
<g id="Node000001" class="node">
<title>Node1</title>
<g id="a_Node000001"><a xlink:title=" ">
<polygon fill="#999999" stroke="none" points="263.5,-448 196.5,-448 196.5,-396 263.5,-396 263.5,-448"/>
<text text-anchor="start" x="201.12" y="-434.5" font-family="Helvetica,sans-Serif" font-size="10.00">CanvasLayer</text>
<text text-anchor="start" x="228.5" y="-418.5" font-family="Helvetica,sans-Serif" font-size="10.00"> </text>
<text text-anchor="start" x="228.5" y="-402.5" font-family="Helvetica,sans-Serif" font-size="10.00"> </text>
<polygon fill="#666666" stroke="#666666" points="196.5,-430 196.5,-430 263.5,-430 263.5,-430 196.5,-430"/>
<polygon fill="#666666" stroke="#666666" points="196.5,-414 196.5,-414 263.5,-414 263.5,-414 196.5,-414"/>
<polygon fill="none" stroke="#666666" points="196.5,-396 196.5,-448 263.5,-448 263.5,-396 196.5,-396"/>
</a>
</g>
</g>
<!-- Node2 -->
<g id="Node000002" class="node">
<title>Node2</title>
<g id="a_Node000002"><a xlink:href="../../df/d7a/class_augment_inventory.html" target="_top" xlink:title=" ">
<polygon fill="white" stroke="none" points="224.5,-360 43.5,-360 43.5,-116 224.5,-116 224.5,-360"/>
<text text-anchor="start" x="94.25" y="-346.5" font-family="Helvetica,sans-Serif" font-size="10.00">AugmentInventory</text>
<text text-anchor="start" x="132.5" y="-330.5" font-family="Helvetica,sans-Serif" font-size="10.00"> </text>
<text text-anchor="start" x="47.5" y="-314.5" font-family="Helvetica,sans-Serif" font-size="10.00">+</text>
<text text-anchor="start" x="57.5" y="-314.5" font-family="Helvetica,sans-Serif" font-size="10.00">override void _Ready()</text>
<text text-anchor="start" x="47.5" y="-298.5" font-family="Helvetica,sans-Serif" font-size="10.00">+</text>
<text text-anchor="start" x="57.5" y="-298.5" font-family="Helvetica,sans-Serif" font-size="10.00">override void _Unhandled</text>
<text text-anchor="start" x="57.5" y="-286.5" font-family="Helvetica,sans-Serif" font-size="10.00">Input(InputEvent @event)</text>
<text text-anchor="start" x="47.5" y="-270.5" font-family="Helvetica,sans-Serif" font-size="10.00">+</text>
<text text-anchor="start" x="57.5" y="-270.5" font-family="Helvetica,sans-Serif" font-size="10.00">void SetVisibility</text>
<text text-anchor="start" x="57.5" y="-258.5" font-family="Helvetica,sans-Serif" font-size="10.00">(bool isVisible)</text>
<text text-anchor="start" x="47.5" y="-242.5" font-family="Helvetica,sans-Serif" font-size="10.00">+</text>
<text text-anchor="start" x="57.5" y="-242.5" font-family="Helvetica,sans-Serif" font-size="10.00">void AddAugmentToInventory</text>
<text text-anchor="start" x="57.5" y="-230.5" font-family="Helvetica,sans-Serif" font-size="10.00">(Augment augment)</text>
<text text-anchor="start" x="47.5" y="-214.5" font-family="Helvetica,sans-Serif" font-size="10.00">+</text>
<text text-anchor="start" x="57.5" y="-214.5" font-family="Helvetica,sans-Serif" font-size="10.00">void LeftButtonPressed()</text>
<text text-anchor="start" x="47.5" y="-198.5" font-family="Helvetica,sans-Serif" font-size="10.00">+</text>
<text text-anchor="start" x="57.5" y="-198.5" font-family="Helvetica,sans-Serif" font-size="10.00">void RightButtonPressed()</text>
<text text-anchor="start" x="47.5" y="-182.5" font-family="Helvetica,sans-Serif" font-size="10.00">+</text>
<text text-anchor="start" x="57.5" y="-182.5" font-family="Helvetica,sans-Serif" font-size="10.00">void FuseSelectedAugments()</text>
<text text-anchor="start" x="47.5" y="-166.5" font-family="Helvetica,sans-Serif" font-size="10.00">+</text>
<text text-anchor="start" x="57.5" y="-166.5" font-family="Helvetica,sans-Serif" font-size="10.00">void AddRandomAugment()</text>
<text text-anchor="start" x="47.5" y="-150.5" font-family="Helvetica,sans-Serif" font-size="10.00">+</text>
<text text-anchor="start" x="57.5" y="-150.5" font-family="Helvetica,sans-Serif" font-size="10.00">GridContainer GetInactive</text>
<text text-anchor="start" x="57.5" y="-138.5" font-family="Helvetica,sans-Serif" font-size="10.00">Augments()</text>
<text text-anchor="start" x="47.5" y="-122.5" font-family="Helvetica,sans-Serif" font-size="10.00">+</text>
<text text-anchor="start" x="57.5" y="-122.5" font-family="Helvetica,sans-Serif" font-size="10.00">HBoxContainer GetActiveAugments()</text>
<polygon fill="#666666" stroke="#666666" points="43.5,-342 43.5,-342 224.5,-342 224.5,-342 43.5,-342"/>
<polygon fill="#666666" stroke="#666666" points="43.5,-326 43.5,-326 224.5,-326 224.5,-326 43.5,-326"/>
<polygon fill="none" stroke="#666666" points="43.5,-116 43.5,-360 224.5,-360 224.5,-116 43.5,-116"/>
</a>
</g>
</g>
<!-- Node1&#45;&gt;Node2 -->
<g id="edge1_Node000001_Node000002" class="edge">
<title>Node1&#45;&gt;Node2</title>
<g id="a_edge1_Node000001_Node000002"><a xlink:title=" ">
<path fill="none" stroke="#63b8ff" d="M211.5,-385.93C207.34,-378.05 202.7,-369.25 197.81,-359.98"/>
<polygon fill="none" stroke="#63b8ff" points="208.39,-387.52 216.15,-394.74 214.58,-384.26 208.39,-387.52"/>
</a>
</g>
</g>
<!-- Node3 -->
<g id="Node000003" class="node">
<title>Node3</title>
<g id="a_Node000003"><a xlink:href="../../d9/dc5/class_base_menu.html" target="_top" xlink:title=" ">
<polygon fill="white" stroke="none" points="409,-322 243,-322 243,-154 409,-154 409,-322"/>
<text text-anchor="start" x="302.75" y="-308.5" font-family="Helvetica,sans-Serif" font-size="10.00">BaseMenu</text>
<text text-anchor="start" x="247" y="-292.5" font-family="Helvetica,sans-Serif" font-size="10.00">+</text>
<text text-anchor="start" x="257" y="-292.5" font-family="Helvetica,sans-Serif" font-size="10.00">MenuManager.MenuType</text>
<text text-anchor="start" x="257" y="-280.5" font-family="Helvetica,sans-Serif" font-size="10.00"> MenuType</text>
<text text-anchor="start" x="247.38" y="-264.5" font-family="Helvetica,sans-Serif" font-size="10.00">#</text>
<text text-anchor="start" x="257" y="-264.5" font-family="Helvetica,sans-Serif" font-size="10.00">MenuManager MenuManager</text>
<text text-anchor="start" x="247" y="-248.5" font-family="Helvetica,sans-Serif" font-size="10.00">+</text>
<text text-anchor="start" x="257" y="-248.5" font-family="Helvetica,sans-Serif" font-size="10.00">override void _Ready()</text>
<text text-anchor="start" x="247" y="-232.5" font-family="Helvetica,sans-Serif" font-size="10.00">+</text>
<text text-anchor="start" x="257" y="-232.5" font-family="Helvetica,sans-Serif" font-size="10.00">void PushMenu(MenuManager.</text>
<text text-anchor="start" x="257" y="-220.5" font-family="Helvetica,sans-Serif" font-size="10.00">MenuType newMenu)</text>
<text text-anchor="start" x="247" y="-204.5" font-family="Helvetica,sans-Serif" font-size="10.00">+</text>
<text text-anchor="start" x="257" y="-204.5" font-family="Helvetica,sans-Serif" font-size="10.00">void PopMenu()</text>
<text text-anchor="start" x="247" y="-188.5" font-family="Helvetica,sans-Serif" font-size="10.00">+</text>
<text text-anchor="start" x="257" y="-188.5" font-family="Helvetica,sans-Serif" font-size="10.00">void SetRootMenu(MenuManager.</text>
<text text-anchor="start" x="257" y="-176.5" font-family="Helvetica,sans-Serif" font-size="10.00">MenuType newMenu)</text>
<text text-anchor="start" x="247.38" y="-160.5" font-family="Helvetica,sans-Serif" font-size="10.00">#</text>
<text text-anchor="start" x="257" y="-160.5" font-family="Helvetica,sans-Serif" font-size="10.00">virtual void SetupMenu()</text>
<polygon fill="#666666" stroke="#666666" points="243,-304 243,-304 409,-304 409,-304 243,-304"/>
<polygon fill="#666666" stroke="#666666" points="243,-260 243,-260 255,-260 255,-260 243,-260"/>
<polygon fill="#666666" stroke="#666666" points="255,-260 255,-260 409,-260 409,-260 255,-260"/>
<polygon fill="none" stroke="#666666" points="243,-154 243,-322 409,-322 409,-154 243,-154"/>
</a>
</g>
</g>
<!-- Node1&#45;&gt;Node3 -->
<g id="edge2_Node000001_Node000003" class="edge">
<title>Node1&#45;&gt;Node3</title>
<g id="a_edge2_Node000001_Node000003"><a xlink:title=" ">
<path fill="none" stroke="#63b8ff" d="M248.39,-386.14C258.09,-367.75 270.44,-344.33 282.42,-321.61"/>
<polygon fill="none" stroke="#63b8ff" points="245.42,-384.26 243.85,-394.74 251.61,-387.52 245.42,-384.26"/>
</a>
</g>
</g>
<!-- Node4 -->
<g id="Node000004" class="node">
<title>Node4</title>
<g id="a_Node000004"><a xlink:href="../../df/d8a/class_main_game.html" target="_top" xlink:title=" ">
<polygon fill="white" stroke="none" points="116,-80 0,-80 0,0 116,0 116,-80"/>
<text text-anchor="start" x="34.38" y="-66.5" font-family="Helvetica,sans-Serif" font-size="10.00">MainGame</text>
<text text-anchor="start" x="56.5" y="-50.5" font-family="Helvetica,sans-Serif" font-size="10.00"> </text>
<text text-anchor="start" x="4" y="-34.5" font-family="Helvetica,sans-Serif" font-size="10.00">+</text>
<text text-anchor="start" x="14" y="-34.5" font-family="Helvetica,sans-Serif" font-size="10.00">override void _Ready()</text>
<text text-anchor="start" x="4" y="-18.5" font-family="Helvetica,sans-Serif" font-size="10.00">+</text>
<text text-anchor="start" x="14" y="-18.5" font-family="Helvetica,sans-Serif" font-size="10.00">override void _Input</text>
<text text-anchor="start" x="14" y="-6.5" font-family="Helvetica,sans-Serif" font-size="10.00">(InputEvent @event)</text>
<polygon fill="#666666" stroke="#666666" points="0,-62 0,-62 116,-62 116,-62 0,-62"/>
<polygon fill="#666666" stroke="#666666" points="0,-46 0,-46 116,-46 116,-46 0,-46"/>
<polygon fill="none" stroke="#666666" points="0,0 0,-80 116,-80 116,0 0,0"/>
</a>
</g>
</g>
<!-- Node3&#45;&gt;Node4 -->
<g id="edge3_Node000003_Node000004" class="edge">
<title>Node3&#45;&gt;Node4</title>
<g id="a_edge3_Node000003_Node000004"><a xlink:title=" ">
<path fill="none" stroke="#63b8ff" d="M266.54,-145.7C256.63,-134.67 245.73,-124.37 234,-116 192.47,-86.36 171.52,-100.95 125,-80 121.93,-78.62 118.82,-77.13 115.71,-75.58"/>
<polygon fill="none" stroke="#63b8ff" points="263.75,-147.82 272.93,-153.11 269.05,-143.25 263.75,-147.82"/>
</a>
</g>
</g>
<!-- Node5 -->
<g id="Node000005" class="node">
<title>Node5</title>
<g id="a_Node000005"><a xlink:href="../../d0/d9f/class_main_hub.html" target="_top" xlink:title=" ">
<polygon fill="white" stroke="none" points="250,-66 134,-66 134,-14 250,-14 250,-66"/>
<text text-anchor="start" x="172.5" y="-52.5" font-family="Helvetica,sans-Serif" font-size="10.00">MainHub</text>
<text text-anchor="start" x="190.5" y="-36.5" font-family="Helvetica,sans-Serif" font-size="10.00"> </text>
<text text-anchor="start" x="138" y="-20.5" font-family="Helvetica,sans-Serif" font-size="10.00">+</text>
<text text-anchor="start" x="148" y="-20.5" font-family="Helvetica,sans-Serif" font-size="10.00">override void _Ready()</text>
<polygon fill="#666666" stroke="#666666" points="134,-48 134,-48 250,-48 250,-48 134,-48"/>
<polygon fill="#666666" stroke="#666666" points="134,-32 134,-32 250,-32 250,-32 134,-32"/>
<polygon fill="none" stroke="#666666" points="134,-14 134,-66 250,-66 250,-14 134,-14"/>
</a>
</g>
</g>
<!-- Node3&#45;&gt;Node5 -->
<g id="edge4_Node000003_Node000005" class="edge">
<title>Node3&#45;&gt;Node5</title>
<g id="a_edge4_Node000003_Node000005"><a xlink:title=" ">
<path fill="none" stroke="#63b8ff" d="M262.93,-144.75C243.02,-115.63 222.65,-85.84 208.88,-65.69"/>
<polygon fill="none" stroke="#63b8ff" points="259.98,-146.63 268.51,-152.91 265.76,-142.68 259.98,-146.63"/>
</a>
</g>
</g>
<!-- Node6 -->
<g id="Node000006" class="node">
<title>Node6</title>
<g id="a_Node000006"><a xlink:href="../../d4/d04/class_main_menu.html" target="_top" xlink:title=" ">
<polygon fill="white" stroke="none" points="384,-66 268,-66 268,-14 384,-14 384,-66"/>
<text text-anchor="start" x="303.5" y="-52.5" font-family="Helvetica,sans-Serif" font-size="10.00">MainMenu</text>
<text text-anchor="start" x="324.5" y="-36.5" font-family="Helvetica,sans-Serif" font-size="10.00"> </text>
<text text-anchor="start" x="272" y="-20.5" font-family="Helvetica,sans-Serif" font-size="10.00">+</text>
<text text-anchor="start" x="282" y="-20.5" font-family="Helvetica,sans-Serif" font-size="10.00">override void _Ready()</text>
<polygon fill="#666666" stroke="#666666" points="268,-48 268,-48 384,-48 384,-48 268,-48"/>
<polygon fill="#666666" stroke="#666666" points="268,-32 268,-32 384,-32 384,-32 268,-32"/>
<polygon fill="none" stroke="#666666" points="268,-14 268,-66 384,-66 384,-14 268,-14"/>
</a>
</g>
</g>
<!-- Node3&#45;&gt;Node6 -->
<g id="edge5_Node000003_Node000006" class="edge">
<title>Node3&#45;&gt;Node6</title>
<g id="a_edge5_Node000003_Node000006"><a xlink:title=" ">
<path fill="none" stroke="#63b8ff" d="M326,-142.85C326,-114.34 326,-85.4 326,-65.69"/>
<polygon fill="none" stroke="#63b8ff" points="322.5,-142.65 326,-152.65 329.5,-142.65 322.5,-142.65"/>
</a>
</g>
</g>
<!-- Node7 -->
<g id="Node000007" class="node">
<title>Node7</title>
<g id="a_Node000007"><a xlink:href="../../d4/de5/class_pause_menu.html" target="_top" xlink:title=" ">
<polygon fill="white" stroke="none" points="518,-80 402,-80 402,0 518,0 518,-80"/>
<text text-anchor="start" x="434.12" y="-66.5" font-family="Helvetica,sans-Serif" font-size="10.00">PauseMenu</text>
<text text-anchor="start" x="458.5" y="-50.5" font-family="Helvetica,sans-Serif" font-size="10.00"> </text>
<text text-anchor="start" x="406" y="-34.5" font-family="Helvetica,sans-Serif" font-size="10.00">+</text>
<text text-anchor="start" x="416" y="-34.5" font-family="Helvetica,sans-Serif" font-size="10.00">override void _Ready()</text>
<text text-anchor="start" x="406" y="-18.5" font-family="Helvetica,sans-Serif" font-size="10.00">+</text>
<text text-anchor="start" x="416" y="-18.5" font-family="Helvetica,sans-Serif" font-size="10.00">override void _Input</text>
<text text-anchor="start" x="416" y="-6.5" font-family="Helvetica,sans-Serif" font-size="10.00">(InputEvent @event)</text>
<polygon fill="#666666" stroke="#666666" points="402,-62 402,-62 518,-62 518,-62 402,-62"/>
<polygon fill="#666666" stroke="#666666" points="402,-46 402,-46 518,-46 518,-46 402,-46"/>
<polygon fill="none" stroke="#666666" points="402,0 402,-80 518,-80 518,0 402,0"/>
</a>
</g>
</g>
<!-- Node3&#45;&gt;Node7 -->
<g id="edge6_Node000003_Node000007" class="edge">
<title>Node3&#45;&gt;Node7</title>
<g id="a_edge6_Node000003_Node000007"><a xlink:title=" ">
<path fill="none" stroke="#63b8ff" d="M389.08,-144.74C404.73,-121.85 420.66,-98.53 433.46,-79.82"/>
<polygon fill="none" stroke="#63b8ff" points="386.24,-142.68 383.49,-152.91 392.02,-146.63 386.24,-142.68"/>
</a>
</g>
</g>
<!-- Node8 -->
<g id="Node000008" class="node">
<title>Node8</title>
<g id="a_Node000008"><a xlink:href="../../d4/d94/class_settings_menu.html" target="_top" xlink:title=" ">
<polygon fill="white" stroke="none" points="652,-66 536,-66 536,-14 652,-14 652,-66"/>
<text text-anchor="start" x="564" y="-52.5" font-family="Helvetica,sans-Serif" font-size="10.00">SettingsMenu</text>
<text text-anchor="start" x="592.5" y="-36.5" font-family="Helvetica,sans-Serif" font-size="10.00"> </text>
<text text-anchor="start" x="540" y="-20.5" font-family="Helvetica,sans-Serif" font-size="10.00">+</text>
<text text-anchor="start" x="550" y="-20.5" font-family="Helvetica,sans-Serif" font-size="10.00">override void _Ready()</text>
<polygon fill="#666666" stroke="#666666" points="536,-48 536,-48 652,-48 652,-48 536,-48"/>
<polygon fill="#666666" stroke="#666666" points="536,-32 536,-32 652,-32 652,-32 536,-32"/>
<polygon fill="none" stroke="#666666" points="536,-14 536,-66 652,-66 652,-14 536,-14"/>
</a>
</g>
</g>
<!-- Node3&#45;&gt;Node8 -->
<g id="edge7_Node000003_Node000008" class="edge">
<title>Node3&#45;&gt;Node8</title>
<g id="a_edge7_Node000003_Node000008"><a xlink:title=" ">
<path fill="none" stroke="#63b8ff" d="M418.02,-169.7C467.08,-133.82 524.49,-91.84 560.05,-65.83"/>
<polygon fill="none" stroke="#63b8ff" points="416.19,-166.7 410.18,-175.43 420.32,-172.36 416.19,-166.7"/>
</a>
</g>
</g>
</g>
</svg>
