<?xml version="1.0" encoding="UTF-8" standalone="no"?>
<!DOCTYPE svg PUBLIC "-//W3C//DTD SVG 1.1//EN"
 "http://www.w3.org/Graphics/SVG/1.1/DTD/svg11.dtd">
<!-- Generated by graphviz version 12.1.0 (20240811.2233)
 -->
<!-- Title: CanvasLayer Pages: 1 -->
<svg width="370pt" height="516pt"
 viewBox="0.00 0.00 369.50 516.00" xmlns="http://www.w3.org/2000/svg" xmlns:xlink="http://www.w3.org/1999/xlink">
<g id="graph0" class="graph" transform="scale(1 1) rotate(0) translate(4 512)">
<title>CanvasLayer</title>
<!-- Node1 -->
<g id="Node000001" class="node">
<title>Node1</title>
<g id="a_Node000001"><a xlink:title=" ">
<polygon fill="#999999" stroke="none" points="219,-508 152,-508 152,-456 219,-456 219,-508"/>
<text text-anchor="start" x="156.62" y="-494.5" font-family="Helvetica,sans-Serif" font-size="10.00">CanvasLayer</text>
<text text-anchor="start" x="184" y="-478.5" font-family="Helvetica,sans-Serif" font-size="10.00"> </text>
<text text-anchor="start" x="184" y="-462.5" font-family="Helvetica,sans-Serif" font-size="10.00"> </text>
<polygon fill="#666666" stroke="#666666" points="152,-490 152,-490 219,-490 219,-490 152,-490"/>
<polygon fill="#666666" stroke="#666666" points="152,-474 152,-474 219,-474 219,-474 152,-474"/>
<polygon fill="none" stroke="#666666" points="152,-456 152,-508 219,-508 219,-456 152,-456"/>
</a>
</g>
</g>
<!-- Node2 -->
<g id="Node000002" class="node">
<title>Node2</title>
<g id="a_Node000002"><a xlink:href="../../df/d7a/class_augment_inventory.html" target="_top" xlink:title=" ">
<polygon fill="white" stroke="none" points="181,-348 0,-348 0,-72 181,-72 181,-348"/>
<text text-anchor="start" x="50.75" y="-334.5" font-family="Helvetica,sans-Serif" font-size="10.00">AugmentInventory</text>
<text text-anchor="start" x="89" y="-318.5" font-family="Helvetica,sans-Serif" font-size="10.00"> </text>
<text text-anchor="start" x="4" y="-302.5" font-family="Helvetica,sans-Serif" font-size="10.00">+</text>
<text text-anchor="start" x="14" y="-302.5" font-family="Helvetica,sans-Serif" font-size="10.00">override void _Ready()</text>
<text text-anchor="start" x="4" y="-286.5" font-family="Helvetica,sans-Serif" font-size="10.00">+</text>
<text text-anchor="start" x="14" y="-286.5" font-family="Helvetica,sans-Serif" font-size="10.00">override void _Unhandled</text>
<text text-anchor="start" x="14" y="-274.5" font-family="Helvetica,sans-Serif" font-size="10.00">Input(InputEvent @event)</text>
<text text-anchor="start" x="4" y="-258.5" font-family="Helvetica,sans-Serif" font-size="10.00">+</text>
<text text-anchor="start" x="14" y="-258.5" font-family="Helvetica,sans-Serif" font-size="10.00">void SetVisibility</text>
<text text-anchor="start" x="14" y="-246.5" font-family="Helvetica,sans-Serif" font-size="10.00">(bool isVisible)</text>
<text text-anchor="start" x="4" y="-230.5" font-family="Helvetica,sans-Serif" font-size="10.00">+</text>
<text text-anchor="start" x="14" y="-230.5" font-family="Helvetica,sans-Serif" font-size="10.00">void AddAugmentToInventory</text>
<text text-anchor="start" x="14" y="-218.5" font-family="Helvetica,sans-Serif" font-size="10.00">(Augment augment)</text>
<text text-anchor="start" x="4" y="-202.5" font-family="Helvetica,sans-Serif" font-size="10.00">+</text>
<text text-anchor="start" x="14" y="-202.5" font-family="Helvetica,sans-Serif" font-size="10.00">void SwitchToFuseAugments()</text>
<text text-anchor="start" x="4" y="-186.5" font-family="Helvetica,sans-Serif" font-size="10.00">+</text>
<text text-anchor="start" x="14" y="-186.5" font-family="Helvetica,sans-Serif" font-size="10.00">void SwitchToAugmentInventory()</text>
<text text-anchor="start" x="4" y="-170.5" font-family="Helvetica,sans-Serif" font-size="10.00">+</text>
<text text-anchor="start" x="14" y="-170.5" font-family="Helvetica,sans-Serif" font-size="10.00">void LeftButtonPressed()</text>
<text text-anchor="start" x="4" y="-154.5" font-family="Helvetica,sans-Serif" font-size="10.00">+</text>
<text text-anchor="start" x="14" y="-154.5" font-family="Helvetica,sans-Serif" font-size="10.00">void RightButtonPressed()</text>
<text text-anchor="start" x="4" y="-138.5" font-family="Helvetica,sans-Serif" font-size="10.00">+</text>
<text text-anchor="start" x="14" y="-138.5" font-family="Helvetica,sans-Serif" font-size="10.00">void FuseSelectedAugments()</text>
<text text-anchor="start" x="4" y="-122.5" font-family="Helvetica,sans-Serif" font-size="10.00">+</text>
<text text-anchor="start" x="14" y="-122.5" font-family="Helvetica,sans-Serif" font-size="10.00">void AddRandomAugment()</text>
<text text-anchor="start" x="4" y="-106.5" font-family="Helvetica,sans-Serif" font-size="10.00">+</text>
<text text-anchor="start" x="14" y="-106.5" font-family="Helvetica,sans-Serif" font-size="10.00">GridContainer GetInactive</text>
<text text-anchor="start" x="14" y="-94.5" font-family="Helvetica,sans-Serif" font-size="10.00">Augments()</text>
<text text-anchor="start" x="4" y="-78.5" font-family="Helvetica,sans-Serif" font-size="10.00">+</text>
<text text-anchor="start" x="14" y="-78.5" font-family="Helvetica,sans-Serif" font-size="10.00">HBoxContainer GetActiveAugments()</text>
<polygon fill="#666666" stroke="#666666" points="0,-330 0,-330 181,-330 181,-330 0,-330"/>
<polygon fill="#666666" stroke="#666666" points="0,-314 0,-314 181,-314 181,-314 0,-314"/>
<polygon fill="none" stroke="#666666" points="0,-72 0,-348 181,-348 181,-72 0,-72"/>
</a>
</g>
</g>
<!-- Node1&#45;&gt;Node2 -->
<g id="edge1_Node000001_Node000002" class="edge">
<title>Node1&#45;&gt;Node2</title>
<g id="a_edge1_Node000001_Node000002"><a xlink:title=" ">
<path fill="none" stroke="#63b8ff" d="M173.02,-445.53C164.07,-420.1 151.4,-384.08 138.66,-347.88"/>
<polygon fill="none" stroke="#63b8ff" points="169.61,-446.38 176.23,-454.66 176.21,-444.06 169.61,-446.38"/>
</a>
</g>
</g>
<!-- Node3 -->
<g id="Node000003" class="node">
<title>Node3</title>
<g id="a_Node000003"><a xlink:href="../../d9/dc8/class_skill_tree.html" target="_top" xlink:title=" ">
<polygon fill="white" stroke="none" points="361.5,-420 199.5,-420 199.5,0 361.5,0 361.5,-420"/>
<text text-anchor="start" x="261.38" y="-406.5" font-family="Helvetica,sans-Serif" font-size="10.00">SkillTree</text>
<text text-anchor="start" x="279" y="-390.5" font-family="Helvetica,sans-Serif" font-size="10.00"> </text>
<text text-anchor="start" x="203.5" y="-374.5" font-family="Helvetica,sans-Serif" font-size="10.00">+</text>
<text text-anchor="start" x="213.5" y="-374.5" font-family="Helvetica,sans-Serif" font-size="10.00">override void _Ready()</text>
<text text-anchor="start" x="203.5" y="-358.5" font-family="Helvetica,sans-Serif" font-size="10.00">+</text>
<text text-anchor="start" x="213.5" y="-358.5" font-family="Helvetica,sans-Serif" font-size="10.00">override void _Unhandled</text>
<text text-anchor="start" x="213.5" y="-346.5" font-family="Helvetica,sans-Serif" font-size="10.00">Input(InputEvent @event)</text>
<text text-anchor="start" x="203.5" y="-330.5" font-family="Helvetica,sans-Serif" font-size="10.00">+</text>
<text text-anchor="start" x="213.5" y="-330.5" font-family="Helvetica,sans-Serif" font-size="10.00">void SetVisibility</text>
<text text-anchor="start" x="213.5" y="-318.5" font-family="Helvetica,sans-Serif" font-size="10.00">(bool isVisible)</text>
<text text-anchor="start" x="203.5" y="-302.5" font-family="Helvetica,sans-Serif" font-size="10.00">+</text>
<text text-anchor="start" x="213.5" y="-302.5" font-family="Helvetica,sans-Serif" font-size="10.00">void LeftButtonPressed()</text>
<text text-anchor="start" x="203.5" y="-286.5" font-family="Helvetica,sans-Serif" font-size="10.00">+</text>
<text text-anchor="start" x="213.5" y="-286.5" font-family="Helvetica,sans-Serif" font-size="10.00">void RightButtonPressed()</text>
<text text-anchor="start" x="203.5" y="-270.5" font-family="Helvetica,sans-Serif" font-size="10.00">+</text>
<text text-anchor="start" x="213.5" y="-270.5" font-family="Helvetica,sans-Serif" font-size="10.00">void SetStartBasic</text>
<text text-anchor="start" x="213.5" y="-258.5" font-family="Helvetica,sans-Serif" font-size="10.00">(MagicType magicType)</text>
<text text-anchor="start" x="203.5" y="-242.5" font-family="Helvetica,sans-Serif" font-size="10.00">+</text>
<text text-anchor="start" x="213.5" y="-242.5" font-family="Helvetica,sans-Serif" font-size="10.00">int IsSkillCurrentlyEquipped</text>
<text text-anchor="start" x="213.5" y="-230.5" font-family="Helvetica,sans-Serif" font-size="10.00">(int nrSkillSlot, int index)</text>
<text text-anchor="start" x="203.5" y="-214.5" font-family="Helvetica,sans-Serif" font-size="10.00">+</text>
<text text-anchor="start" x="213.5" y="-214.5" font-family="Helvetica,sans-Serif" font-size="10.00">SpellName? GetSpellFromIndex</text>
<text text-anchor="start" x="213.5" y="-202.5" font-family="Helvetica,sans-Serif" font-size="10.00">(int index)</text>
<text text-anchor="start" x="203.5" y="-186.5" font-family="Helvetica,sans-Serif" font-size="10.00">+</text>
<text text-anchor="start" x="213.5" y="-186.5" font-family="Helvetica,sans-Serif" font-size="10.00">int GetIndexFromSpell</text>
<text text-anchor="start" x="213.5" y="-174.5" font-family="Helvetica,sans-Serif" font-size="10.00">(SpellName spellName)</text>
<text text-anchor="start" x="203.5" y="-158.5" font-family="Helvetica,sans-Serif" font-size="10.00">+</text>
<text text-anchor="start" x="213.5" y="-158.5" font-family="Helvetica,sans-Serif" font-size="10.00">int GetSkillPointsOfType</text>
<text text-anchor="start" x="213.5" y="-146.5" font-family="Helvetica,sans-Serif" font-size="10.00">(MagicType magicType)</text>
<text text-anchor="start" x="203.5" y="-130.5" font-family="Helvetica,sans-Serif" font-size="10.00">+</text>
<text text-anchor="start" x="213.5" y="-130.5" font-family="Helvetica,sans-Serif" font-size="10.00">bool IsUnlocked(SpellName</text>
<text text-anchor="start" x="213.5" y="-118.5" font-family="Helvetica,sans-Serif" font-size="10.00"> spellName)</text>
<text text-anchor="start" x="203.5" y="-102.5" font-family="Helvetica,sans-Serif" font-size="10.00">+</text>
<text text-anchor="start" x="213.5" y="-102.5" font-family="Helvetica,sans-Serif" font-size="10.00">bool IsAnyBasicSpellUnlocked()</text>
<text text-anchor="start" x="203.5" y="-86.5" font-family="Helvetica,sans-Serif" font-size="10.00">+</text>
<text text-anchor="start" x="213.5" y="-86.5" font-family="Helvetica,sans-Serif" font-size="10.00">SpellName GetRandomUnlocked</text>
<text text-anchor="start" x="213.5" y="-74.5" font-family="Helvetica,sans-Serif" font-size="10.00">BasicSpell()</text>
<text text-anchor="start" x="203.5" y="-58.5" font-family="Helvetica,sans-Serif" font-size="10.00">+</text>
<text text-anchor="start" x="213.5" y="-58.5" font-family="Helvetica,sans-Serif" font-size="10.00">void AddSkillPointOfType</text>
<text text-anchor="start" x="213.5" y="-46.5" font-family="Helvetica,sans-Serif" font-size="10.00">(MagicType magicType)</text>
<text text-anchor="start" x="203.5" y="-30.5" font-family="Helvetica,sans-Serif" font-size="10.00">+</text>
<text text-anchor="start" x="213.5" y="-30.5" font-family="Helvetica,sans-Serif" font-size="10.00">static SpellName Convert</text>
<text text-anchor="start" x="213.5" y="-18.5" font-family="Helvetica,sans-Serif" font-size="10.00">StringNameToSpellName</text>
<text text-anchor="start" x="213.5" y="-6.5" font-family="Helvetica,sans-Serif" font-size="10.00">(string skillName)</text>
<polygon fill="#666666" stroke="#666666" points="199.5,-402 199.5,-402 361.5,-402 361.5,-402 199.5,-402"/>
<polygon fill="#666666" stroke="#666666" points="199.5,-386 199.5,-386 361.5,-386 361.5,-386 199.5,-386"/>
<polygon fill="none" stroke="#666666" points="199.5,0 199.5,-420 361.5,-420 361.5,0 199.5,0"/>
</a>
</g>
</g>
<!-- Node1&#45;&gt;Node3 -->
<g id="edge2_Node000001_Node000003" class="edge">
<title>Node1&#45;&gt;Node3</title>
<g id="a_edge2_Node000001_Node000003"><a xlink:title=" ">
<path fill="none" stroke="#63b8ff" d="M198.07,-445.29C200.74,-437.68 203.75,-429.12 207,-419.9"/>
<polygon fill="none" stroke="#63b8ff" points="194.79,-444.06 194.77,-454.66 201.39,-446.38 194.79,-444.06"/>
</a>
</g>
</g>
</g>
</svg>
