<?xml version="1.0" encoding="UTF-8" standalone="no"?>
<!DOCTYPE svg PUBLIC "-//W3C//DTD SVG 1.1//EN"
 "http://www.w3.org/Graphics/SVG/1.1/DTD/svg11.dtd">
<!-- Generated by graphviz version 12.1.0 (20240811.2233)
 -->
<!-- Title: UISpellSlot Pages: 1 -->
<svg width="193pt" height="276pt"
 viewBox="0.00 0.00 192.59 276.00" xmlns="http://www.w3.org/2000/svg" xmlns:xlink="http://www.w3.org/1999/xlink">
<g id="graph0" class="graph" transform="scale(1 1) rotate(0) translate(4 272)">
<title>UISpellSlot</title>
<!-- Node1 -->
<g id="Node000001" class="node">
<title>Node1</title>
<g id="a_Node000001"><a xlink:title="Class for the Spell Box that shows the currently active spell.">
<polygon fill="#999999" stroke="none" points="158,-168 2,-168 2,0 158,0 158,-168"/>
<text text-anchor="start" x="55.25" y="-154.5" font-family="Helvetica,sans-Serif" font-size="10.00">UISpellSlot</text>
<text text-anchor="start" x="78.5" y="-138.5" font-family="Helvetica,sans-Serif" font-size="10.00"> </text>
<text text-anchor="start" x="6" y="-122.5" font-family="Helvetica,sans-Serif" font-size="10.00">+</text>
<text text-anchor="start" x="16" y="-122.5" font-family="Helvetica,sans-Serif" font-size="10.00">override void _Ready()</text>
<text text-anchor="start" x="6" y="-106.5" font-family="Helvetica,sans-Serif" font-size="10.00">+</text>
<text text-anchor="start" x="16" y="-106.5" font-family="Helvetica,sans-Serif" font-size="10.00">void SetSpell(Texture2D</text>
<text text-anchor="start" x="16" y="-94.5" font-family="Helvetica,sans-Serif" font-size="10.00"> icon)</text>
<text text-anchor="start" x="6" y="-78.5" font-family="Helvetica,sans-Serif" font-size="10.00">+</text>
<text text-anchor="start" x="16" y="-78.5" font-family="Helvetica,sans-Serif" font-size="10.00">override void _PhysicsProcess</text>
<text text-anchor="start" x="16" y="-66.5" font-family="Helvetica,sans-Serif" font-size="10.00">(double delta)</text>
<text text-anchor="start" x="6" y="-50.5" font-family="Helvetica,sans-Serif" font-size="10.00">+</text>
<text text-anchor="start" x="16" y="-50.5" font-family="Helvetica,sans-Serif" font-size="10.00">void Cast(double cooldown)</text>
<text text-anchor="start" x="6" y="-34.5" font-family="Helvetica,sans-Serif" font-size="10.00">+</text>
<text text-anchor="start" x="16" y="-34.5" font-family="Helvetica,sans-Serif" font-size="10.00">bool IsOnCooldown()</text>
<text text-anchor="start" x="6" y="-18.5" font-family="Helvetica,sans-Serif" font-size="10.00">+</text>
<text text-anchor="start" x="16" y="-18.5" font-family="Helvetica,sans-Serif" font-size="10.00">static string ConvertTime</text>
<text text-anchor="start" x="16" y="-6.5" font-family="Helvetica,sans-Serif" font-size="10.00">ToStringInSeconds(double time)</text>
<polygon fill="#666666" stroke="#666666" points="2,-150 2,-150 158,-150 158,-150 2,-150"/>
<polygon fill="#666666" stroke="#666666" points="2,-134 2,-134 158,-134 158,-134 2,-134"/>
<polygon fill="none" stroke="#666666" points="2,0 2,-168 158,-168 158,0 2,0"/>
</a>
</g>
</g>
<!-- Node2 -->
<g id="Node000002" class="node">
<title>Node2</title>
<g id="a_Node000002"><a xlink:href="../../d3/dd2/class_panel_container.html" target="_top" xlink:title=" ">
<polygon fill="white" stroke="none" points="76,-268 0,-268 0,-216 76,-216 76,-268"/>
<text text-anchor="start" x="4.62" y="-254.5" font-family="Helvetica,sans-Serif" font-size="10.00">PanelContainer</text>
<text text-anchor="start" x="36.5" y="-238.5" font-family="Helvetica,sans-Serif" font-size="10.00"> </text>
<text text-anchor="start" x="36.5" y="-222.5" font-family="Helvetica,sans-Serif" font-size="10.00"> </text>
<polygon fill="#666666" stroke="#666666" points="0,-250 0,-250 76,-250 76,-250 0,-250"/>
<polygon fill="#666666" stroke="#666666" points="0,-234 0,-234 76,-234 76,-234 0,-234"/>
<polygon fill="none" stroke="#666666" points="0,-216 0,-268 76,-268 76,-216 0,-216"/>
</a>
</g>
</g>
<!-- Node2&#45;&gt;Node1 -->
<g id="edge1_Node000001_Node000002" class="edge">
<title>Node2&#45;&gt;Node1</title>
<g id="a_edge1_Node000001_Node000002"><a xlink:title=" ">
<path fill="none" stroke="#63b8ff" d="M47.64,-205.18C50.69,-193.87 54.19,-180.88 57.73,-167.71"/>
<polygon fill="none" stroke="#63b8ff" points="44.27,-204.25 45.05,-214.82 51.03,-206.07 44.27,-204.25"/>
</a>
</g>
</g>
<!-- Node3 -->
<g id="Node000003" class="node">
<title>Node3</title>
<g id="a_Node000003"><a xlink:title=" ">
<polygon fill="white" stroke="none" points="149.5,-268 94.5,-268 94.5,-216 149.5,-216 149.5,-268"/>
<text text-anchor="start" x="99.5" y="-254.5" font-family="Helvetica,sans-Serif" font-size="10.00">Texture2D</text>
<text text-anchor="start" x="120.5" y="-238.5" font-family="Helvetica,sans-Serif" font-size="10.00"> </text>
<text text-anchor="start" x="120.5" y="-222.5" font-family="Helvetica,sans-Serif" font-size="10.00"> </text>
<polygon fill="#666666" stroke="#666666" points="94.5,-250 94.5,-250 149.5,-250 149.5,-250 94.5,-250"/>
<polygon fill="#666666" stroke="#666666" points="94.5,-234 94.5,-234 149.5,-234 149.5,-234 94.5,-234"/>
<polygon fill="none" stroke="#666666" points="94.5,-216 94.5,-268 149.5,-268 149.5,-216 94.5,-216"/>
</a>
</g>
</g>
<!-- Node3&#45;&gt;Node1 -->
<g id="edge2_Node000001_Node000003" class="edge">
<title>Node3&#45;&gt;Node1</title>
<g id="a_edge2_Node000001_Node000003"><a xlink:title=" ">
<path fill="none" stroke="#63b8ff" d="M115.34,-216.28C112.58,-206.02 109.19,-193.4 105.6,-180.09"/>
<polygon fill="none" stroke="#63b8ff" points="105.62,-180.16 100.2,-175.41 102.5,-168.58 107.92,-173.33 105.62,-180.16"/>
</a>
</g>
<text text-anchor="middle" x="147.09" y="-188.5" font-family="Helvetica,sans-Serif" font-size="10.00" fill="grey"> +StartingTexture</text>
</g>
</g>
</svg>
