<?xml version="1.0" encoding="UTF-8" standalone="no"?>
<!DOCTYPE svg PUBLIC "-//W3C//DTD SVG 1.1//EN"
 "http://www.w3.org/Graphics/SVG/1.1/DTD/svg11.dtd">
<!-- Generated by graphviz version 12.1.0 (20240811.2233)
 -->
<!-- Title: FlashLightTextureGenerator Pages: 1 -->
<svg width="138pt" height="224pt"
 viewBox="0.00 0.00 138.00 224.00" xmlns="http://www.w3.org/2000/svg" xmlns:xlink="http://www.w3.org/1999/xlink">

<svg id="main" version="1.1" xmlns="http://www.w3.org/2000/svg" xmlns:xlink="http://www.w3.org/1999/xlink" xml:space="preserve" onload="init(evt)">
<style type="text/css"><![CDATA[
.node, .edge {opacity: 0.7;}
.node.selected, .edge.selected {opacity: 1;}
.edge:hover path { stroke: red; }
.edge:hover polygon { stroke: red; fill: red; }
]]></style>
<script type="application/ecmascript" xlink:href="../../svg.min.js"/>
<svg id="graph" class="graph">
<g id="graph0" class="graph" transform="scale(1 1) rotate(0) translate(4 220)">
<title>FlashLightTextureGenerator</title>
<!-- Node1 -->
<g id="Node000001" class="node">
<title>Node1</title>
<g id="a_Node000001"><a xlink:title=" ">
<polygon fill="#999999" stroke="none" points="130,-128 0,-128 0,0 130,0 130,-128"/>
<text text-anchor="start" x="5" y="-114.5" font-family="Helvetica,sans-Serif" font-size="10.00">FlashLightTextureGenerator</text>
<text text-anchor="start" x="7" y="-98.5" font-family="Helvetica,sans-Serif" font-size="10.00">+</text>
<text text-anchor="start" x="20" y="-98.5" font-family="Helvetica,sans-Serif" font-size="10.00">int TextureSize</text>
<text text-anchor="start" x="7" y="-82.5" font-family="Helvetica,sans-Serif" font-size="10.00">+</text>
<text text-anchor="start" x="20" y="-82.5" font-family="Helvetica,sans-Serif" font-size="10.00">float BeamAngle</text>
<text text-anchor="start" x="7" y="-66.5" font-family="Helvetica,sans-Serif" font-size="10.00">+</text>
<text text-anchor="start" x="20" y="-66.5" font-family="Helvetica,sans-Serif" font-size="10.00">Color BeamColor</text>
<text text-anchor="start" x="7" y="-50.5" font-family="Helvetica,sans-Serif" font-size="10.00">+</text>
<text text-anchor="start" x="20" y="-50.5" font-family="Helvetica,sans-Serif" font-size="10.00">bool GenerateTexture</text>
<text text-anchor="start" x="7" y="-34.5" font-family="Helvetica,sans-Serif" font-size="10.00">+</text>
<text text-anchor="start" x="20" y="-34.5" font-family="Helvetica,sans-Serif" font-size="10.00">override void _Ready()</text>
<text text-anchor="start" x="7" y="-18.5" font-family="Helvetica,sans-Serif" font-size="10.00">+</text>
<text text-anchor="start" x="20" y="-18.5" font-family="Helvetica,sans-Serif" font-size="10.00">override void _Process</text>
<text text-anchor="start" x="20" y="-6.5" font-family="Helvetica,sans-Serif" font-size="10.00">(double delta)</text>
<polygon fill="#666666" stroke="#666666" points="0,-110 0,-110 130,-110 130,-110 0,-110"/>
<polygon fill="#666666" stroke="#666666" points="0,-46 0,-46 18,-46 18,-46 0,-46"/>
<polygon fill="#666666" stroke="#666666" points="18,-46 18,-46 130,-46 130,-46 18,-46"/>
<polygon fill="none" stroke="#666666" points="0,0 0,-128 130,-128 130,0 0,0"/>
</a>
</g>
</g>
<!-- Node2 -->
<g id="Node000002" class="node">
<title>Node2</title>
<g id="a_Node000002"><a xlink:title=" ">
<polygon fill="white" stroke="none" points="98,-216 32,-216 32,-164 98,-164 98,-216"/>
<text text-anchor="start" x="36.88" y="-202.5" font-family="Helvetica,sans-Serif" font-size="10.00">PointLight2D</text>
<text text-anchor="start" x="63.5" y="-186.5" font-family="Helvetica,sans-Serif" font-size="10.00"> </text>
<text text-anchor="start" x="63.5" y="-170.5" font-family="Helvetica,sans-Serif" font-size="10.00"> </text>
<polygon fill="#666666" stroke="#666666" points="32,-198 32,-198 98,-198 98,-198 32,-198"/>
<polygon fill="#666666" stroke="#666666" points="32,-182 32,-182 98,-182 98,-182 32,-182"/>
<polygon fill="none" stroke="#666666" points="32,-164 32,-216 98,-216 98,-164 32,-164"/>
</a>
</g>
</g>
<!-- Node2&#45;&gt;Node1 -->
<g id="edge1_Node000001_Node000002" class="edge">
<title>Node2&#45;&gt;Node1</title>
<g id="a_edge1_Node000001_Node000002"><a xlink:title=" ">
<path fill="none" stroke="#63b8ff" d="M65,-152.83C65,-144.93 65,-136.35 65,-127.75"/>
<polygon fill="none" stroke="#63b8ff" points="61.5,-152.69 65,-162.69 68.5,-152.69 61.5,-152.69"/>
</a>
</g>
</g>
</g>
</svg>
</svg>

<style type='text/css'>
<![CDATA[
[data-mouse-over-selected='false'] { opacity: 0.7; }
[data-mouse-over-selected='true']  { opacity: 1.0; }
]]>
</style>
<script type="application/ecmascript"><![CDATA[
document.addEventListener('DOMContentLoaded', (event) => {
  highlightEdges();
  highlightAdjacentNodes();
});
]]></script>
</svg>
