<?xml version="1.0" encoding="UTF-8" standalone="no"?>
<!DOCTYPE svg PUBLIC "-//W3C//DTD SVG 1.1//EN"
 "http://www.w3.org/Graphics/SVG/1.1/DTD/svg11.dtd">
<!-- Generated by graphviz version 12.1.0 (20240811.2233)
 -->
<!-- Title: DungeonSelection Pages: 1 -->
<svg width="174pt" height="380pt"
 viewBox="0.00 0.00 174.00 380.00" xmlns="http://www.w3.org/2000/svg" xmlns:xlink="http://www.w3.org/1999/xlink">
<g id="graph0" class="graph" transform="scale(1 1) rotate(0) translate(4 376)">
<title>DungeonSelection</title>
<!-- Node1 -->
<g id="Node000001" class="node">
<title>Node1</title>
<g id="a_Node000001"><a xlink:title=" ">
<polygon fill="#999999" stroke="none" points="142.5,-80 23.5,-80 23.5,0 142.5,0 142.5,-80"/>
<text text-anchor="start" x="43.25" y="-66.5" font-family="Helvetica,sans-Serif" font-size="10.00">DungeonSelection</text>
<text text-anchor="start" x="81.5" y="-50.5" font-family="Helvetica,sans-Serif" font-size="10.00"> </text>
<text text-anchor="start" x="27.5" y="-34.5" font-family="Helvetica,sans-Serif" font-size="10.00">+</text>
<text text-anchor="start" x="37.5" y="-34.5" font-family="Helvetica,sans-Serif" font-size="10.00">override void _Ready()</text>
<text text-anchor="start" x="27.5" y="-18.5" font-family="Helvetica,sans-Serif" font-size="10.00">+</text>
<text text-anchor="start" x="37.5" y="-18.5" font-family="Helvetica,sans-Serif" font-size="10.00">void RestoreRerolls</text>
<text text-anchor="start" x="37.5" y="-6.5" font-family="Helvetica,sans-Serif" font-size="10.00">(bool fullRestore=false)</text>
<polygon fill="#666666" stroke="#666666" points="23.5,-62 23.5,-62 142.5,-62 142.5,-62 23.5,-62"/>
<polygon fill="#666666" stroke="#666666" points="23.5,-46 23.5,-46 142.5,-46 142.5,-46 23.5,-46"/>
<polygon fill="none" stroke="#666666" points="23.5,0 23.5,-80 142.5,-80 142.5,0 23.5,0"/>
</a>
</g>
</g>
<!-- Node2 -->
<g id="Node000002" class="node">
<title>Node2</title>
<g id="a_Node000002"><a xlink:href="../../d9/dc5/class_base_menu.html" target="_top" xlink:title=" ">
<polygon fill="white" stroke="none" points="166,-284 0,-284 0,-116 166,-116 166,-284"/>
<text text-anchor="start" x="59.75" y="-270.5" font-family="Helvetica,sans-Serif" font-size="10.00">BaseMenu</text>
<text text-anchor="start" x="4" y="-254.5" font-family="Helvetica,sans-Serif" font-size="10.00">+</text>
<text text-anchor="start" x="14" y="-254.5" font-family="Helvetica,sans-Serif" font-size="10.00">MenuManager.MenuType</text>
<text text-anchor="start" x="14" y="-242.5" font-family="Helvetica,sans-Serif" font-size="10.00"> MenuType</text>
<text text-anchor="start" x="4.38" y="-226.5" font-family="Helvetica,sans-Serif" font-size="10.00">#</text>
<text text-anchor="start" x="14" y="-226.5" font-family="Helvetica,sans-Serif" font-size="10.00">MenuManager MenuManager</text>
<text text-anchor="start" x="4" y="-210.5" font-family="Helvetica,sans-Serif" font-size="10.00">+</text>
<text text-anchor="start" x="14" y="-210.5" font-family="Helvetica,sans-Serif" font-size="10.00">override void _Ready()</text>
<text text-anchor="start" x="4" y="-194.5" font-family="Helvetica,sans-Serif" font-size="10.00">+</text>
<text text-anchor="start" x="14" y="-194.5" font-family="Helvetica,sans-Serif" font-size="10.00">void PushMenu(MenuManager.</text>
<text text-anchor="start" x="14" y="-182.5" font-family="Helvetica,sans-Serif" font-size="10.00">MenuType newMenu)</text>
<text text-anchor="start" x="4" y="-166.5" font-family="Helvetica,sans-Serif" font-size="10.00">+</text>
<text text-anchor="start" x="14" y="-166.5" font-family="Helvetica,sans-Serif" font-size="10.00">void PopMenu()</text>
<text text-anchor="start" x="4" y="-150.5" font-family="Helvetica,sans-Serif" font-size="10.00">+</text>
<text text-anchor="start" x="14" y="-150.5" font-family="Helvetica,sans-Serif" font-size="10.00">void SetRootMenu(MenuManager.</text>
<text text-anchor="start" x="14" y="-138.5" font-family="Helvetica,sans-Serif" font-size="10.00">MenuType newMenu)</text>
<text text-anchor="start" x="4.38" y="-122.5" font-family="Helvetica,sans-Serif" font-size="10.00">#</text>
<text text-anchor="start" x="14" y="-122.5" font-family="Helvetica,sans-Serif" font-size="10.00">virtual void SetupMenu()</text>
<polygon fill="#666666" stroke="#666666" points="0,-266 0,-266 166,-266 166,-266 0,-266"/>
<polygon fill="#666666" stroke="#666666" points="0,-222 0,-222 12,-222 12,-222 0,-222"/>
<polygon fill="#666666" stroke="#666666" points="12,-222 12,-222 166,-222 166,-222 12,-222"/>
<polygon fill="none" stroke="#666666" points="0,-116 0,-284 166,-284 166,-116 0,-116"/>
</a>
</g>
</g>
<!-- Node2&#45;&gt;Node1 -->
<g id="edge1_Node000001_Node000002" class="edge">
<title>Node2&#45;&gt;Node1</title>
<g id="a_edge1_Node000001_Node000002"><a xlink:title=" ">
<path fill="none" stroke="#63b8ff" d="M83,-105.06C83,-96.27 83,-87.74 83,-79.92"/>
<polygon fill="none" stroke="#63b8ff" points="79.5,-104.78 83,-114.78 86.5,-104.78 79.5,-104.78"/>
</a>
</g>
</g>
<!-- Node3 -->
<g id="Node000003" class="node">
<title>Node3</title>
<g id="a_Node000003"><a xlink:href="../../dc/d8f/class_node.html" target="_top" xlink:title=" ">
<polygon fill="white" stroke="none" points="99.5,-372 66.5,-372 66.5,-320 99.5,-320 99.5,-372"/>
<text text-anchor="start" x="71.38" y="-358.5" font-family="Helvetica,sans-Serif" font-size="10.00">Node</text>
<text text-anchor="start" x="81.5" y="-342.5" font-family="Helvetica,sans-Serif" font-size="10.00"> </text>
<text text-anchor="start" x="81.5" y="-326.5" font-family="Helvetica,sans-Serif" font-size="10.00"> </text>
<polygon fill="#666666" stroke="#666666" points="66.5,-354 66.5,-354 99.5,-354 99.5,-354 66.5,-354"/>
<polygon fill="#666666" stroke="#666666" points="66.5,-338 66.5,-338 99.5,-338 99.5,-338 66.5,-338"/>
<polygon fill="none" stroke="#666666" points="66.5,-320 66.5,-372 99.5,-372 99.5,-320 66.5,-320"/>
</a>
</g>
</g>
<!-- Node3&#45;&gt;Node2 -->
<g id="edge2_Node000002_Node000003" class="edge">
<title>Node3&#45;&gt;Node2</title>
<g id="a_edge2_Node000002_Node000003"><a xlink:title=" ">
<path fill="none" stroke="#63b8ff" d="M83,-308.79C83,-301.07 83,-292.61 83,-283.94"/>
<polygon fill="none" stroke="#63b8ff" points="79.5,-308.73 83,-318.73 86.5,-308.73 79.5,-308.73"/>
</a>
</g>
</g>
</g>
</svg>
