<?xml version="1.0" encoding="UTF-8" standalone="no"?>
<!DOCTYPE svg PUBLIC "-//W3C//DTD SVG 1.1//EN"
 "http://www.w3.org/Graphics/SVG/1.1/DTD/svg11.dtd">
<!-- Generated by graphviz version 12.1.0 (20240811.2233)
 -->
<!-- Title: EntityTypeComponent Pages: 1 -->
<svg width="136pt" height="176pt"
 viewBox="0.00 0.00 136.00 176.00" xmlns="http://www.w3.org/2000/svg" xmlns:xlink="http://www.w3.org/1999/xlink">

<svg id="main" version="1.1" xmlns="http://www.w3.org/2000/svg" xmlns:xlink="http://www.w3.org/1999/xlink" xml:space="preserve" onload="init(evt)">
<style type="text/css"><![CDATA[
.node, .edge {opacity: 0.7;}
.node.selected, .edge.selected {opacity: 1;}
.edge:hover path { stroke: red; }
.edge:hover polygon { stroke: red; fill: red; }
]]></style>
<script type="application/ecmascript" xlink:href="../../svg.min.js"/>
<svg id="graph" class="graph">
<g id="graph0" class="graph" transform="scale(1 1) rotate(0) translate(4 172)">
<title>EntityTypeComponent</title>
<!-- Node1 -->
<g id="Node000001" class="node">
<title>Node1</title>
<g id="a_Node000001"><a xlink:title=" ">
<polygon fill="#999999" stroke="none" points="128,-80 0,-80 0,0 128,0 128,-80"/>
<text text-anchor="start" x="15.62" y="-66.5" font-family="Helvetica,sans-Serif" font-size="10.00">EntityTypeComponent</text>
<text text-anchor="start" x="4" y="-50.5" font-family="Helvetica,sans-Serif" font-size="10.00">+</text>
<text text-anchor="start" x="14" y="-50.5" font-family="Helvetica,sans-Serif" font-size="10.00">EntityType Type</text>
<text text-anchor="start" x="4" y="-34.5" font-family="Helvetica,sans-Serif" font-size="10.00">+</text>
<text text-anchor="start" x="14" y="-34.5" font-family="Helvetica,sans-Serif" font-size="10.00">bool IsOfType(EntityType</text>
<text text-anchor="start" x="14" y="-22.5" font-family="Helvetica,sans-Serif" font-size="10.00"> type)</text>
<text text-anchor="start" x="4" y="-6.5" font-family="Helvetica,sans-Serif" font-size="10.00">+</text>
<text text-anchor="start" x="14" y="-6.5" font-family="Helvetica,sans-Serif" font-size="10.00">override void _Ready()</text>
<polygon fill="#666666" stroke="#666666" points="0,-62 0,-62 128,-62 128,-62 0,-62"/>
<polygon fill="#666666" stroke="#666666" points="0,-46 0,-46 12,-46 12,-46 0,-46"/>
<polygon fill="#666666" stroke="#666666" points="12,-46 12,-46 128,-46 128,-46 12,-46"/>
<polygon fill="none" stroke="#666666" points="0,0 0,-80 128,-80 128,0 0,0"/>
</a>
</g>
</g>
<!-- Node2 -->
<g id="Node000002" class="node">
<title>Node2</title>
<g id="a_Node000002"><a xlink:href="../../dc/d8f/class_node.html" target="_top" xlink:title=" ">
<polygon fill="white" stroke="none" points="80.5,-168 47.5,-168 47.5,-116 80.5,-116 80.5,-168"/>
<text text-anchor="start" x="52.38" y="-154.5" font-family="Helvetica,sans-Serif" font-size="10.00">Node</text>
<text text-anchor="start" x="62.5" y="-138.5" font-family="Helvetica,sans-Serif" font-size="10.00"> </text>
<text text-anchor="start" x="62.5" y="-122.5" font-family="Helvetica,sans-Serif" font-size="10.00"> </text>
<polygon fill="#666666" stroke="#666666" points="47.5,-150 47.5,-150 80.5,-150 80.5,-150 47.5,-150"/>
<polygon fill="#666666" stroke="#666666" points="47.5,-134 47.5,-134 80.5,-134 80.5,-134 47.5,-134"/>
<polygon fill="none" stroke="#666666" points="47.5,-116 47.5,-168 80.5,-168 80.5,-116 47.5,-116"/>
</a>
</g>
</g>
<!-- Node2&#45;&gt;Node1 -->
<g id="edge1_Node000001_Node000002" class="edge">
<title>Node2&#45;&gt;Node1</title>
<g id="a_edge1_Node000001_Node000002"><a xlink:title=" ">
<path fill="none" stroke="#63b8ff" d="M64,-104.61C64,-96.5 64,-87.86 64,-79.65"/>
<polygon fill="none" stroke="#63b8ff" points="60.5,-104.51 64,-114.51 67.5,-104.51 60.5,-104.51"/>
</a>
</g>
</g>
</g>
</svg>
</svg>

<style type='text/css'>
<![CDATA[
[data-mouse-over-selected='false'] { opacity: 0.7; }
[data-mouse-over-selected='true']  { opacity: 1.0; }
]]>
</style>
<script type="application/ecmascript"><![CDATA[
document.addEventListener('DOMContentLoaded', (event) => {
  highlightEdges();
  highlightAdjacentNodes();
});
]]></script>
</svg>
