<?xml version="1.0" encoding="UTF-8" standalone="no"?>
<!DOCTYPE svg PUBLIC "-//W3C//DTD SVG 1.1//EN"
 "http://www.w3.org/Graphics/SVG/1.1/DTD/svg11.dtd">
<!-- Generated by graphviz version 12.1.0 (20240811.2233)
 -->
<!-- Title: BasicSpell Pages: 1 -->
<svg width="457pt" height="1193pt"
 viewBox="0.00 0.00 456.50 1193.00" xmlns="http://www.w3.org/2000/svg" xmlns:xlink="http://www.w3.org/1999/xlink">
<g id="graph0" class="graph" transform="scale(1 1) rotate(0) translate(4 1189)">
<title>BasicSpell</title>
<!-- Node1 -->
<g id="Node000001" class="node">
<title>Node1</title>
<g id="a_Node000001"><a xlink:title=" ">
<polygon fill="#999999" stroke="none" points="262.5,-172 109.5,-172 109.5,0 262.5,0 262.5,-172"/>
<text text-anchor="start" x="162.75" y="-158.5" font-family="Helvetica,sans-Serif" font-size="10.00">BasicSpell</text>
<text text-anchor="start" x="184.5" y="-142.5" font-family="Helvetica,sans-Serif" font-size="10.00"> </text>
<text text-anchor="start" x="113.5" y="-126.5" font-family="Helvetica,sans-Serif" font-size="10.00">+</text>
<text text-anchor="start" x="123.5" y="-126.5" font-family="Helvetica,sans-Serif" font-size="10.00">override void Init</text>
<text text-anchor="start" x="123.5" y="-114.5" font-family="Helvetica,sans-Serif" font-size="10.00">(Attack attack, Vector2</text>
<text text-anchor="start" x="123.5" y="-102.5" font-family="Helvetica,sans-Serif" font-size="10.00"> playerPosition, Vector2</text>
<text text-anchor="start" x="123.5" y="-90.5" font-family="Helvetica,sans-Serif" font-size="10.00"> targetPosition)</text>
<text text-anchor="start" x="113.5" y="-74.5" font-family="Helvetica,sans-Serif" font-size="10.00">+</text>
<text text-anchor="start" x="123.5" y="-74.5" font-family="Helvetica,sans-Serif" font-size="10.00">override void _PhysicsProcess</text>
<text text-anchor="start" x="123.5" y="-62.5" font-family="Helvetica,sans-Serif" font-size="10.00">(double delta)</text>
<text text-anchor="start" x="113.5" y="-46.5" font-family="Helvetica,sans-Serif" font-size="10.00">+</text>
<text text-anchor="start" x="123.5" y="-46.5" font-family="Helvetica,sans-Serif" font-size="10.00">override void OnAreaEntered</text>
<text text-anchor="start" x="123.5" y="-34.5" font-family="Helvetica,sans-Serif" font-size="10.00">(Area2D area)</text>
<text text-anchor="start" x="113.5" y="-18.5" font-family="Helvetica,sans-Serif" font-size="10.00">+</text>
<text text-anchor="start" x="123.5" y="-18.5" font-family="Helvetica,sans-Serif" font-size="10.00">void OnBodyEntered</text>
<text text-anchor="start" x="123.5" y="-6.5" font-family="Helvetica,sans-Serif" font-size="10.00">(Node2D body)</text>
<polygon fill="#666666" stroke="#666666" points="109.5,-154 109.5,-154 262.5,-154 262.5,-154 109.5,-154"/>
<polygon fill="#666666" stroke="#666666" points="109.5,-138 109.5,-138 262.5,-138 262.5,-138 109.5,-138"/>
<polygon fill="none" stroke="#666666" points="109.5,0 109.5,-172 262.5,-172 262.5,0 109.5,0"/>
</a>
</g>
</g>
<!-- Node2 -->
<g id="Node000002" class="node">
<title>Node2</title>
<g id="a_Node000002"><a xlink:href="../../d8/d0d/class_spell.html" target="_top" xlink:title=" ">
<polygon fill="white" stroke="none" points="154,-444 0,-444 0,-280 154,-280 154,-444"/>
<text text-anchor="start" x="66.12" y="-430.5" font-family="Helvetica,sans-Serif" font-size="10.00">Spell</text>
<text text-anchor="start" x="75.5" y="-414.5" font-family="Helvetica,sans-Serif" font-size="10.00"> </text>
<text text-anchor="start" x="4" y="-398.5" font-family="Helvetica,sans-Serif" font-size="10.00">+</text>
<text text-anchor="start" x="14" y="-398.5" font-family="Helvetica,sans-Serif" font-size="10.00">override void _Ready()</text>
<text text-anchor="start" x="4" y="-382.5" font-family="Helvetica,sans-Serif" font-size="10.00">+</text>
<text text-anchor="start" x="14" y="-382.5" font-family="Helvetica,sans-Serif" font-size="10.00">virtual void Init(Attack</text>
<text text-anchor="start" x="14" y="-370.5" font-family="Helvetica,sans-Serif" font-size="10.00"> attack, Vector2 playerPosition,</text>
<text text-anchor="start" x="14" y="-358.5" font-family="Helvetica,sans-Serif" font-size="10.00"> Vector2 targetPosition)</text>
<text text-anchor="start" x="4" y="-342.5" font-family="Helvetica,sans-Serif" font-size="10.00">+</text>
<text text-anchor="start" x="14" y="-342.5" font-family="Helvetica,sans-Serif" font-size="10.00">override void _PhysicsProcess</text>
<text text-anchor="start" x="14" y="-330.5" font-family="Helvetica,sans-Serif" font-size="10.00">(double delta)</text>
<text text-anchor="start" x="4" y="-314.5" font-family="Helvetica,sans-Serif" font-size="10.00">+</text>
<text text-anchor="start" x="14" y="-314.5" font-family="Helvetica,sans-Serif" font-size="10.00">virtual void OnAreaEntered</text>
<text text-anchor="start" x="14" y="-302.5" font-family="Helvetica,sans-Serif" font-size="10.00">(Area2D area)</text>
<text text-anchor="start" x="4" y="-286.5" font-family="Helvetica,sans-Serif" font-size="10.00">+</text>
<text text-anchor="start" x="14" y="-286.5" font-family="Helvetica,sans-Serif" font-size="10.00">double GetTimeUntilDeleteion()</text>
<polygon fill="#666666" stroke="#666666" points="0,-426 0,-426 154,-426 154,-426 0,-426"/>
<polygon fill="#666666" stroke="#666666" points="0,-410 0,-410 154,-410 154,-410 0,-410"/>
<polygon fill="none" stroke="#666666" points="0,-280 0,-444 154,-444 154,-280 0,-280"/>
</a>
</g>
</g>
<!-- Node2&#45;&gt;Node1 -->
<g id="edge1_Node000001_Node000002" class="edge">
<title>Node2&#45;&gt;Node1</title>
<g id="a_edge1_Node000001_Node000002"><a xlink:title=" ">
<path fill="none" stroke="#63b8ff" d="M113.31,-269.72C125.87,-238.16 139.88,-202.94 152.22,-171.91"/>
<polygon fill="none" stroke="#63b8ff" points="110.12,-268.28 109.67,-278.87 116.62,-270.87 110.12,-268.28"/>
</a>
</g>
</g>
<!-- Node3 -->
<g id="Node000003" class="node">
<title>Node3</title>
<g id="a_Node000003"><a xlink:href="../../dc/df8/class_area2_d.html" target="_top" xlink:title=" ">
<polygon fill="white" stroke="none" points="140.5,-1046 97.5,-1046 97.5,-994 140.5,-994 140.5,-1046"/>
<text text-anchor="start" x="102.5" y="-1032.5" font-family="Helvetica,sans-Serif" font-size="10.00">Area2D</text>
<text text-anchor="start" x="117.5" y="-1016.5" font-family="Helvetica,sans-Serif" font-size="10.00"> </text>
<text text-anchor="start" x="117.5" y="-1000.5" font-family="Helvetica,sans-Serif" font-size="10.00"> </text>
<polygon fill="#666666" stroke="#666666" points="97.5,-1028 97.5,-1028 140.5,-1028 140.5,-1028 97.5,-1028"/>
<polygon fill="#666666" stroke="#666666" points="97.5,-1012 97.5,-1012 140.5,-1012 140.5,-1012 97.5,-1012"/>
<polygon fill="none" stroke="#666666" points="97.5,-994 97.5,-1046 140.5,-1046 140.5,-994 97.5,-994"/>
</a>
</g>
</g>
<!-- Node3&#45;&gt;Node2 -->
<g id="edge2_Node000002_Node000003" class="edge">
<title>Node3&#45;&gt;Node2</title>
<g id="a_edge2_Node000002_Node000003"><a xlink:title=" ">
<path fill="none" stroke="#63b8ff" d="M101.3,-983.99C90.15,-959.93 76.81,-926.87 71,-896 41.26,-737.99 54.65,-548.94 66.33,-443.77"/>
<polygon fill="none" stroke="#63b8ff" points="98.13,-985.47 105.58,-993.01 104.45,-982.47 98.13,-985.47"/>
</a>
</g>
</g>
<!-- Node7 -->
<g id="Node000007" class="node">
<title>Node7</title>
<g id="a_Node000007"><a xlink:href="../../d1/da7/class_health_component.html" target="_top" xlink:title=" ">
<polygon fill="white" stroke="none" points="400,-896 218,-896 218,-632 400,-632 400,-896"/>
<text text-anchor="start" x="269.62" y="-882.5" font-family="Helvetica,sans-Serif" font-size="10.00">HealthComponent</text>
<text text-anchor="start" x="307.5" y="-866.5" font-family="Helvetica,sans-Serif" font-size="10.00"> </text>
<text text-anchor="start" x="222" y="-850.5" font-family="Helvetica,sans-Serif" font-size="10.00">+</text>
<text text-anchor="start" x="232" y="-850.5" font-family="Helvetica,sans-Serif" font-size="10.00">delegate void DeathEvent</text>
<text text-anchor="start" x="232" y="-838.5" font-family="Helvetica,sans-Serif" font-size="10.00">Handler()</text>
<text text-anchor="start" x="222" y="-822.5" font-family="Helvetica,sans-Serif" font-size="10.00">+</text>
<text text-anchor="start" x="232" y="-822.5" font-family="Helvetica,sans-Serif" font-size="10.00">override void _Ready()</text>
<text text-anchor="start" x="222" y="-806.5" font-family="Helvetica,sans-Serif" font-size="10.00">+</text>
<text text-anchor="start" x="232" y="-806.5" font-family="Helvetica,sans-Serif" font-size="10.00">void TakeDamage(Attack</text>
<text text-anchor="start" x="232" y="-794.5" font-family="Helvetica,sans-Serif" font-size="10.00"> attack)</text>
<text text-anchor="start" x="222" y="-778.5" font-family="Helvetica,sans-Serif" font-size="10.00">+</text>
<text text-anchor="start" x="232" y="-778.5" font-family="Helvetica,sans-Serif" font-size="10.00">void SetMaxHP(double</text>
<text text-anchor="start" x="232" y="-766.5" font-family="Helvetica,sans-Serif" font-size="10.00"> newMaxHP)</text>
<text text-anchor="start" x="222" y="-750.5" font-family="Helvetica,sans-Serif" font-size="10.00">+</text>
<text text-anchor="start" x="232" y="-750.5" font-family="Helvetica,sans-Serif" font-size="10.00">double GetMaxHP()</text>
<text text-anchor="start" x="222" y="-734.5" font-family="Helvetica,sans-Serif" font-size="10.00">+</text>
<text text-anchor="start" x="232" y="-734.5" font-family="Helvetica,sans-Serif" font-size="10.00">void SetArmor(double</text>
<text text-anchor="start" x="232" y="-722.5" font-family="Helvetica,sans-Serif" font-size="10.00"> armorSun, double armorCosmic,</text>
<text text-anchor="start" x="232" y="-710.5" font-family="Helvetica,sans-Serif" font-size="10.00"> double armorDark)</text>
<text text-anchor="start" x="222" y="-694.5" font-family="Helvetica,sans-Serif" font-size="10.00">+</text>
<text text-anchor="start" x="232" y="-694.5" font-family="Helvetica,sans-Serif" font-size="10.00">double GetCurrentHP()</text>
<text text-anchor="start" x="222" y="-678.5" font-family="Helvetica,sans-Serif" font-size="10.00">+</text>
<text text-anchor="start" x="232" y="-678.5" font-family="Helvetica,sans-Serif" font-size="10.00">double GetArmorOfType</text>
<text text-anchor="start" x="232" y="-666.5" font-family="Helvetica,sans-Serif" font-size="10.00">(MagicType type)</text>
<text text-anchor="start" x="222" y="-650.5" font-family="Helvetica,sans-Serif" font-size="10.00">+</text>
<text text-anchor="start" x="232" y="-650.5" font-family="Helvetica,sans-Serif" font-size="10.00">void ModifyArmor(MagicType</text>
<text text-anchor="start" x="232" y="-638.5" font-family="Helvetica,sans-Serif" font-size="10.00"> magicType, double flatArmorChange)</text>
<polygon fill="#666666" stroke="#666666" points="218,-878 218,-878 400,-878 400,-878 218,-878"/>
<polygon fill="#666666" stroke="#666666" points="218,-862 218,-862 400,-862 400,-862 218,-862"/>
<polygon fill="none" stroke="#666666" points="218,-632 218,-896 400,-896 400,-632 218,-632"/>
</a>
</g>
</g>
<!-- Node3&#45;&gt;Node7 -->
<g id="edge7_Node000007_Node000003" class="edge">
<title>Node3&#45;&gt;Node7</title>
<g id="a_edge7_Node000007_Node000003"><a xlink:title=" ">
<path fill="none" stroke="#63b8ff" d="M144.23,-985.27C163.41,-959.64 191.03,-922.7 218.2,-886.38"/>
<polygon fill="none" stroke="#63b8ff" points="141.66,-982.87 138.47,-992.97 147.26,-987.06 141.66,-982.87"/>
</a>
</g>
</g>
<!-- Node4 -->
<g id="Node000004" class="node">
<title>Node4</title>
<g id="a_Node000004"><a xlink:href="../../d9/db7/class_attack.html" target="_top" xlink:title=" ">
<polygon fill="white" stroke="none" points="381,-584 207,-584 207,-492 381,-492 381,-584"/>
<text text-anchor="start" x="279.75" y="-570.5" font-family="Helvetica,sans-Serif" font-size="10.00">Attack</text>
<text text-anchor="start" x="292.5" y="-554.5" font-family="Helvetica,sans-Serif" font-size="10.00"> </text>
<text text-anchor="start" x="211" y="-538.5" font-family="Helvetica,sans-Serif" font-size="10.00">+</text>
<text text-anchor="start" x="221" y="-538.5" font-family="Helvetica,sans-Serif" font-size="10.00">Attack(double damageValue,</text>
<text text-anchor="start" x="221" y="-526.5" font-family="Helvetica,sans-Serif" font-size="10.00"> MagicType type, HealthComponent</text>
<text text-anchor="start" x="221" y="-514.5" font-family="Helvetica,sans-Serif" font-size="10.00"> attackerNode)</text>
<text text-anchor="start" x="211" y="-498.5" font-family="Helvetica,sans-Serif" font-size="10.00">+</text>
<text text-anchor="start" x="221" y="-498.5" font-family="Helvetica,sans-Serif" font-size="10.00">Attack(Attack attack)</text>
<polygon fill="#666666" stroke="#666666" points="207,-566 207,-566 381,-566 381,-566 207,-566"/>
<polygon fill="#666666" stroke="#666666" points="207,-550 207,-550 381,-550 381,-550 207,-550"/>
<polygon fill="none" stroke="#666666" points="207,-492 207,-584 381,-584 381,-492 207,-492"/>
</a>
</g>
</g>
<!-- Node4&#45;&gt;Node2 -->
<g id="edge3_Node000002_Node000004" class="edge">
<title>Node4&#45;&gt;Node2</title>
<g id="a_edge3_Node000002_Node000004"><a xlink:title=" ">
<path fill="none" stroke="#63b8ff" d="M227.04,-492.13C208.54,-479.12 188.52,-464.45 163.94,-444.58"/>
<polygon fill="none" stroke="#63b8ff" points="163.89,-444.54 156.71,-443.84 154.6,-436.95 161.77,-437.65 163.89,-444.54"/>
</a>
</g>
<text text-anchor="middle" x="221.66" y="-464.5" font-family="Helvetica,sans-Serif" font-size="10.00" fill="grey"> #_attack</text>
</g>
<!-- Node5 -->
<g id="Node000005" class="node">
<title>Node5</title>
<g id="a_Node000005"><a xlink:title=" ">
<polygon fill="white" stroke="none" points="118,-790 80,-790 80,-738 118,-738 118,-790"/>
<text text-anchor="start" x="84.75" y="-776.5" font-family="Helvetica,sans-Serif" font-size="10.00">double</text>
<text text-anchor="start" x="97.5" y="-760.5" font-family="Helvetica,sans-Serif" font-size="10.00"> </text>
<text text-anchor="start" x="97.5" y="-744.5" font-family="Helvetica,sans-Serif" font-size="10.00"> </text>
<polygon fill="#666666" stroke="#666666" points="80,-772 80,-772 118,-772 118,-772 80,-772"/>
<polygon fill="#666666" stroke="#666666" points="80,-756 80,-756 118,-756 118,-756 80,-756"/>
<polygon fill="none" stroke="#666666" points="80,-738 80,-790 118,-790 118,-738 80,-738"/>
</a>
</g>
</g>
<!-- Node5&#45;&gt;Node2 -->
<g id="edge11_Node000002_Node000005" class="edge">
<title>Node5&#45;&gt;Node2</title>
<g id="a_edge11_Node000002_Node000005"><a xlink:title=" ">
<path fill="none" stroke="#63b8ff" d="M97,-738.11C94.27,-703.55 89.36,-639.06 86.25,-584 83.89,-542.23 81.86,-495.99 80.31,-456.64"/>
<polygon fill="none" stroke="#63b8ff" points="80.32,-456.74 76.09,-450.9 79.85,-444.75 84.08,-450.59 80.32,-456.74"/>
</a>
</g>
<text text-anchor="middle" x="142.12" y="-540.5" font-family="Helvetica,sans-Serif" font-size="10.00" fill="grey"> +MaxLifeTimeInSeconds</text>
<text text-anchor="middle" x="142.12" y="-528.5" font-family="Helvetica,sans-Serif" font-size="10.00" fill="grey">+_timeLeftUntilDeletion</text>
</g>
<!-- Node5&#45;&gt;Node4 -->
<g id="edge4_Node000004_Node000005" class="edge">
<title>Node5&#45;&gt;Node4</title>
<g id="a_edge4_Node000004_Node000005"><a xlink:title=" ">
<path fill="none" stroke="#63b8ff" d="M100.47,-738C103.19,-710 110.93,-664.3 133,-632 141.92,-618.94 167.6,-602.25 195.91,-586.63"/>
<polygon fill="none" stroke="#63b8ff" points="195.94,-586.61 199.31,-580.24 206.49,-580.9 203.12,-587.27 195.94,-586.61"/>
</a>
</g>
<text text-anchor="middle" x="187.81" y="-604.5" font-family="Helvetica,sans-Serif" font-size="10.00" fill="grey"> +damage</text>
</g>
<!-- Node6 -->
<g id="Node000006" class="node">
<title>Node6</title>
<g id="a_Node000006"><a xlink:title=" ">
<polygon fill="white" stroke="none" points="199.5,-790 142.5,-790 142.5,-738 199.5,-738 199.5,-790"/>
<text text-anchor="start" x="147.38" y="-776.5" font-family="Helvetica,sans-Serif" font-size="10.00">MagicType</text>
<text text-anchor="start" x="169.5" y="-760.5" font-family="Helvetica,sans-Serif" font-size="10.00"> </text>
<text text-anchor="start" x="169.5" y="-744.5" font-family="Helvetica,sans-Serif" font-size="10.00"> </text>
<polygon fill="#666666" stroke="#666666" points="142.5,-772 142.5,-772 199.5,-772 199.5,-772 142.5,-772"/>
<polygon fill="#666666" stroke="#666666" points="142.5,-756 142.5,-756 199.5,-756 199.5,-756 142.5,-756"/>
<polygon fill="none" stroke="#666666" points="142.5,-738 142.5,-790 199.5,-790 199.5,-738 142.5,-738"/>
</a>
</g>
</g>
<!-- Node6&#45;&gt;Node4 -->
<g id="edge5_Node000004_Node000006" class="edge">
<title>Node6&#45;&gt;Node4</title>
<g id="a_edge5_Node000004_Node000006"><a xlink:title=" ">
<path fill="none" stroke="#63b8ff" d="M174.74,-738.03C179.62,-710.64 189.88,-666.07 209,-632 216.53,-618.59 226.33,-605.53 236.59,-593.64"/>
<polygon fill="none" stroke="#63b8ff" points="236.67,-593.55 237.7,-586.41 244.68,-584.61 243.66,-591.75 236.67,-593.55"/>
</a>
</g>
<text text-anchor="middle" x="256.49" y="-604.5" font-family="Helvetica,sans-Serif" font-size="10.00" fill="grey"> +magicType</text>
</g>
<!-- Node7&#45;&gt;Node4 -->
<g id="edge6_Node000004_Node000007" class="edge">
<title>Node7&#45;&gt;Node4</title>
<g id="a_edge6_Node000004_Node000007"><a xlink:title=" ">
<path fill="none" stroke="#63b8ff" d="M300.23,-632.05C299.41,-619.8 298.61,-607.86 297.87,-596.84"/>
<polygon fill="none" stroke="#63b8ff" points="297.87,-596.77 293.48,-591.05 297.07,-584.8 301.46,-590.52 297.87,-596.77"/>
</a>
</g>
<text text-anchor="middle" x="320.98" y="-604.5" font-family="Helvetica,sans-Serif" font-size="10.00" fill="grey"> +attacker</text>
</g>
<!-- Node8 -->
<g id="Node000008" class="node">
<title>Node8</title>
<g id="a_Node000008"><a xlink:title=" ">
<polygon fill="white" stroke="none" points="313,-1046 207,-1046 207,-994 313,-994 313,-1046"/>
<text text-anchor="start" x="211.62" y="-1032.5" font-family="Helvetica,sans-Serif" font-size="10.00">AudioStreamPlayer2D</text>
<text text-anchor="start" x="258.5" y="-1016.5" font-family="Helvetica,sans-Serif" font-size="10.00"> </text>
<text text-anchor="start" x="258.5" y="-1000.5" font-family="Helvetica,sans-Serif" font-size="10.00"> </text>
<polygon fill="#666666" stroke="#666666" points="207,-1028 207,-1028 313,-1028 313,-1028 207,-1028"/>
<polygon fill="#666666" stroke="#666666" points="207,-1012 207,-1012 313,-1012 313,-1012 207,-1012"/>
<polygon fill="none" stroke="#666666" points="207,-994 207,-1046 313,-1046 313,-994 207,-994"/>
</a>
</g>
</g>
<!-- Node8&#45;&gt;Node7 -->
<g id="edge8_Node000007_Node000008" class="edge">
<title>Node8&#45;&gt;Node7</title>
<g id="a_edge8_Node000007_Node000008"><a xlink:title=" ">
<path fill="none" stroke="#63b8ff" d="M264.79,-994.18C268.8,-973.37 274.89,-941.82 281.27,-908.72"/>
<polygon fill="none" stroke="#63b8ff" points="281.29,-908.65 278.5,-902 283.56,-896.87 286.35,-903.52 281.29,-908.65"/>
</a>
</g>
<text text-anchor="middle" x="304.86" y="-916.5" font-family="Helvetica,sans-Serif" font-size="10.00" fill="grey"> +HitSound</text>
</g>
<!-- Node9 -->
<g id="Node000009" class="node">
<title>Node9</title>
<g id="a_Node000009"><a xlink:href="../../d7/dca/class_healthbar.html" target="_top" xlink:title=" ">
<polygon fill="white" stroke="none" points="448.5,-1096 331.5,-1096 331.5,-944 448.5,-944 448.5,-1096"/>
<text text-anchor="start" x="369" y="-1082.5" font-family="Helvetica,sans-Serif" font-size="10.00">Healthbar</text>
<text text-anchor="start" x="388.5" y="-1066.5" font-family="Helvetica,sans-Serif" font-size="10.00"> </text>
<text text-anchor="start" x="335.5" y="-1050.5" font-family="Helvetica,sans-Serif" font-size="10.00">+</text>
<text text-anchor="start" x="345.5" y="-1050.5" font-family="Helvetica,sans-Serif" font-size="10.00">override void _Ready()</text>
<text text-anchor="start" x="335.5" y="-1034.5" font-family="Helvetica,sans-Serif" font-size="10.00">+</text>
<text text-anchor="start" x="345.5" y="-1034.5" font-family="Helvetica,sans-Serif" font-size="10.00">override void _Process</text>
<text text-anchor="start" x="345.5" y="-1022.5" font-family="Helvetica,sans-Serif" font-size="10.00">(double delta)</text>
<text text-anchor="start" x="335.5" y="-1006.5" font-family="Helvetica,sans-Serif" font-size="10.00">+</text>
<text text-anchor="start" x="345.5" y="-1006.5" font-family="Helvetica,sans-Serif" font-size="10.00">void InitHealthbar</text>
<text text-anchor="start" x="345.5" y="-994.5" font-family="Helvetica,sans-Serif" font-size="10.00">(double health)</text>
<text text-anchor="start" x="335.5" y="-978.5" font-family="Helvetica,sans-Serif" font-size="10.00">+</text>
<text text-anchor="start" x="345.5" y="-978.5" font-family="Helvetica,sans-Serif" font-size="10.00">void SetHealthPoints</text>
<text text-anchor="start" x="345.5" y="-966.5" font-family="Helvetica,sans-Serif" font-size="10.00">(double newHealth)</text>
<text text-anchor="start" x="335.5" y="-950.5" font-family="Helvetica,sans-Serif" font-size="10.00">+</text>
<text text-anchor="start" x="345.5" y="-950.5" font-family="Helvetica,sans-Serif" font-size="10.00">void OnTimerTimeout()</text>
<polygon fill="#666666" stroke="#666666" points="331.5,-1078 331.5,-1078 448.5,-1078 448.5,-1078 331.5,-1078"/>
<polygon fill="#666666" stroke="#666666" points="331.5,-1062 331.5,-1062 448.5,-1062 448.5,-1062 331.5,-1062"/>
<polygon fill="none" stroke="#666666" points="331.5,-944 331.5,-1096 448.5,-1096 448.5,-944 331.5,-944"/>
</a>
</g>
</g>
<!-- Node9&#45;&gt;Node7 -->
<g id="edge9_Node000007_Node000009" class="edge">
<title>Node9&#45;&gt;Node7</title>
<g id="a_edge9_Node000007_Node000009"><a xlink:title=" ">
<path fill="none" stroke="#63b8ff" d="M366.14,-944.17C362.5,-932.75 358.64,-920.66 354.72,-908.35"/>
<polygon fill="none" stroke="#63b8ff" points="354.7,-908.29 349.06,-903.79 351.05,-896.86 356.68,-901.36 354.7,-908.29"/>
</a>
</g>
<text text-anchor="middle" x="383.51" y="-916.5" font-family="Helvetica,sans-Serif" font-size="10.00" fill="grey"> +healthbar</text>
</g>
<!-- Node10 -->
<g id="Node000010" class="node">
<title>Node10</title>
<g id="a_Node000010"><a xlink:title=" ">
<polygon fill="white" stroke="none" points="438,-1185 342,-1185 342,-1133 438,-1133 438,-1185"/>
<text text-anchor="start" x="346.88" y="-1171.5" font-family="Helvetica,sans-Serif" font-size="10.00">TextureProgressBar</text>
<text text-anchor="start" x="388.5" y="-1155.5" font-family="Helvetica,sans-Serif" font-size="10.00"> </text>
<text text-anchor="start" x="388.5" y="-1139.5" font-family="Helvetica,sans-Serif" font-size="10.00"> </text>
<polygon fill="#666666" stroke="#666666" points="342,-1167 342,-1167 438,-1167 438,-1167 342,-1167"/>
<polygon fill="#666666" stroke="#666666" points="342,-1151 342,-1151 438,-1151 438,-1151 342,-1151"/>
<polygon fill="none" stroke="#666666" points="342,-1133 342,-1185 438,-1185 438,-1133 342,-1133"/>
</a>
</g>
</g>
<!-- Node10&#45;&gt;Node9 -->
<g id="edge10_Node000009_Node000010" class="edge">
<title>Node10&#45;&gt;Node9</title>
<g id="a_edge10_Node000009_Node000010"><a xlink:title=" ">
<path fill="none" stroke="#63b8ff" d="M390,-1121.92C390,-1113.8 390,-1104.88 390,-1095.81"/>
<polygon fill="none" stroke="#63b8ff" points="386.5,-1121.68 390,-1131.68 393.5,-1121.68 386.5,-1121.68"/>
</a>
</g>
</g>
<!-- Node11 -->
<g id="Node000011" class="node">
<title>Node11</title>
<g id="a_Node000011"><a xlink:title=" ">
<polygon fill="white" stroke="none" points="200,-388 172,-388 172,-336 200,-336 200,-388"/>
<text text-anchor="start" x="176.62" y="-374.5" font-family="Helvetica,sans-Serif" font-size="10.00">float</text>
<text text-anchor="start" x="184.5" y="-358.5" font-family="Helvetica,sans-Serif" font-size="10.00"> </text>
<text text-anchor="start" x="184.5" y="-342.5" font-family="Helvetica,sans-Serif" font-size="10.00"> </text>
<polygon fill="#666666" stroke="#666666" points="172,-370 172,-370 200,-370 200,-370 172,-370"/>
<polygon fill="#666666" stroke="#666666" points="172,-354 172,-354 200,-354 200,-354 172,-354"/>
<polygon fill="none" stroke="#666666" points="172,-336 172,-388 200,-388 200,-336 172,-336"/>
</a>
</g>
</g>
<!-- Node11&#45;&gt;Node1 -->
<g id="edge12_Node000001_Node000011" class="edge">
<title>Node11&#45;&gt;Node1</title>
<g id="a_edge12_Node000001_Node000011"><a xlink:title=" ">
<path fill="none" stroke="#63b8ff" d="M186,-336.2C186,-302.11 186,-238.83 186,-184.57"/>
<polygon fill="none" stroke="#63b8ff" points="186,-184.62 182,-178.62 186,-172.62 190,-178.62 186,-184.62"/>
</a>
</g>
<text text-anchor="middle" x="207.75" y="-222.5" font-family="Helvetica,sans-Serif" font-size="10.00" fill="grey"> +SPEED</text>
</g>
<!-- Node12 -->
<g id="Node000012" class="node">
<title>Node12</title>
<g id="a_Node000012"><a xlink:title=" ">
<polygon fill="white" stroke="none" points="269.5,-388 236.5,-388 236.5,-336 269.5,-336 269.5,-388"/>
<text text-anchor="start" x="241.38" y="-374.5" font-family="Helvetica,sans-Serif" font-size="10.00">Color</text>
<text text-anchor="start" x="251.5" y="-358.5" font-family="Helvetica,sans-Serif" font-size="10.00"> </text>
<text text-anchor="start" x="251.5" y="-342.5" font-family="Helvetica,sans-Serif" font-size="10.00"> </text>
<polygon fill="#666666" stroke="#666666" points="236.5,-370 236.5,-370 269.5,-370 269.5,-370 236.5,-370"/>
<polygon fill="#666666" stroke="#666666" points="236.5,-354 236.5,-354 269.5,-354 269.5,-354 236.5,-354"/>
<polygon fill="none" stroke="#666666" points="236.5,-336 236.5,-388 269.5,-388 269.5,-336 236.5,-336"/>
</a>
</g>
</g>
<!-- Node12&#45;&gt;Node1 -->
<g id="edge13_Node000001_Node000012" class="edge">
<title>Node12&#45;&gt;Node1</title>
<g id="a_edge13_Node000001_Node000012"><a xlink:title=" ">
<path fill="none" stroke="#63b8ff" d="M252.01,-336.21C250.18,-302.56 245.05,-240.77 231,-190 230.45,-188.03 229.88,-186.04 229.27,-184.05"/>
<polygon fill="none" stroke="#63b8ff" points="229.26,-184.01 223.59,-179.55 225.52,-172.61 231.19,-177.06 229.26,-184.01"/>
</a>
</g>
<text text-anchor="middle" x="296.51" y="-252.5" font-family="Helvetica,sans-Serif" font-size="10.00" fill="grey"> +CosmicCollisionColor</text>
<text text-anchor="middle" x="296.51" y="-240.5" font-family="Helvetica,sans-Serif" font-size="10.00" fill="grey">+CosmicTrailColor</text>
<text text-anchor="middle" x="296.51" y="-228.5" font-family="Helvetica,sans-Serif" font-size="10.00" fill="grey">+DarkCollisionColor</text>
<text text-anchor="middle" x="296.51" y="-216.5" font-family="Helvetica,sans-Serif" font-size="10.00" fill="grey">+DarkTrailColor</text>
<text text-anchor="middle" x="296.51" y="-204.5" font-family="Helvetica,sans-Serif" font-size="10.00" fill="grey">+SunCollisionColor</text>
<text text-anchor="middle" x="296.51" y="-192.5" font-family="Helvetica,sans-Serif" font-size="10.00" fill="grey">+SunTrailColor</text>
</g>
</g>
</svg>
