<?xml version="1.0" encoding="UTF-8" standalone="no"?>
<!DOCTYPE svg PUBLIC "-//W3C//DTD SVG 1.1//EN"
 "http://www.w3.org/Graphics/SVG/1.1/DTD/svg11.dtd">
<!-- Generated by graphviz version 12.1.0 (20240811.2233)
 -->
<!-- Title: Control Pages: 1 -->
<svg width="216pt" height="192pt"
 viewBox="0.00 0.00 215.50 192.00" xmlns="http://www.w3.org/2000/svg" xmlns:xlink="http://www.w3.org/1999/xlink">
<g id="graph0" class="graph" transform="scale(1 1) rotate(0) translate(4 188)">
<title>Control</title>
<!-- Node1 -->
<g id="Node000001" class="node">
<title>Node1</title>
<g id="a_Node000001"><a xlink:title=" ">
<polygon fill="#999999" stroke="none" points="135,-184 94,-184 94,-132 135,-132 135,-184"/>
<text text-anchor="start" x="98.75" y="-170.5" font-family="Helvetica,sans-Serif" font-size="10.00">Control</text>
<text text-anchor="start" x="113" y="-154.5" font-family="Helvetica,sans-Serif" font-size="10.00"> </text>
<text text-anchor="start" x="113" y="-138.5" font-family="Helvetica,sans-Serif" font-size="10.00"> </text>
<polygon fill="#666666" stroke="#666666" points="94,-166 94,-166 135,-166 135,-166 94,-166"/>
<polygon fill="#666666" stroke="#666666" points="94,-150 94,-150 135,-150 135,-150 94,-150"/>
<polygon fill="none" stroke="#666666" points="94,-132 94,-184 135,-184 135,-132 94,-132"/>
</a>
</g>
</g>
<!-- Node2 -->
<g id="Node000002" class="node">
<title>Node2</title>
<g id="a_Node000002"><a xlink:href="../../dd/d5b/class_minimap.html" target="_top" xlink:title="A UI element that displays a minimap of the dungeon.">
<polygon fill="white" stroke="none" points="117,-96 0,-96 0,0 117,0 117,-96"/>
<text text-anchor="start" x="40.12" y="-82.5" font-family="Helvetica,sans-Serif" font-size="10.00">Minimap</text>
<text text-anchor="start" x="4" y="-66.5" font-family="Helvetica,sans-Serif" font-size="10.00">+</text>
<text text-anchor="start" x="14" y="-66.5" font-family="Helvetica,sans-Serif" font-size="10.00">Vector2I CellSize</text>
<text text-anchor="start" x="4" y="-50.5" font-family="Helvetica,sans-Serif" font-size="10.00">+</text>
<text text-anchor="start" x="14" y="-50.5" font-family="Helvetica,sans-Serif" font-size="10.00">override void _Ready()</text>
<text text-anchor="start" x="4" y="-34.5" font-family="Helvetica,sans-Serif" font-size="10.00">+</text>
<text text-anchor="start" x="14" y="-34.5" font-family="Helvetica,sans-Serif" font-size="10.00">override void _Process</text>
<text text-anchor="start" x="14" y="-22.5" font-family="Helvetica,sans-Serif" font-size="10.00">(double delta)</text>
<text text-anchor="start" x="4" y="-6.5" font-family="Helvetica,sans-Serif" font-size="10.00">+</text>
<text text-anchor="start" x="14" y="-6.5" font-family="Helvetica,sans-Serif" font-size="10.00">override void _Draw()</text>
<polygon fill="#666666" stroke="#666666" points="0,-78 0,-78 117,-78 117,-78 0,-78"/>
<polygon fill="#666666" stroke="#666666" points="0,-62 0,-62 12,-62 12,-62 0,-62"/>
<polygon fill="#666666" stroke="#666666" points="12,-62 12,-62 117,-62 117,-62 12,-62"/>
<polygon fill="none" stroke="#666666" points="0,0 0,-96 117,-96 117,0 0,0"/>
</a>
</g>
</g>
<!-- Node1&#45;&gt;Node2 -->
<g id="edge1_Node000001_Node000002" class="edge">
<title>Node1&#45;&gt;Node2</title>
<g id="a_edge1_Node000001_Node000002"><a xlink:title=" ">
<path fill="none" stroke="#63b8ff" d="M96.38,-122.05C92.03,-113.67 87.32,-104.58 82.74,-95.75"/>
<polygon fill="none" stroke="#63b8ff" points="93.25,-123.61 100.96,-130.88 99.46,-120.39 93.25,-123.61"/>
</a>
</g>
</g>
<!-- Node3 -->
<g id="Node000003" class="node">
<title>Node3</title>
<g id="a_Node000003"><a xlink:href="../../db/dbe/class_spell_inventory.html" target="_top" xlink:title=" ">
<polygon fill="white" stroke="none" points="207.5,-74 135.5,-74 135.5,-22 207.5,-22 207.5,-74"/>
<text text-anchor="start" x="140.38" y="-60.5" font-family="Helvetica,sans-Serif" font-size="10.00">SpellInventory</text>
<text text-anchor="start" x="170" y="-44.5" font-family="Helvetica,sans-Serif" font-size="10.00"> </text>
<text text-anchor="start" x="170" y="-28.5" font-family="Helvetica,sans-Serif" font-size="10.00"> </text>
<polygon fill="#666666" stroke="#666666" points="135.5,-56 135.5,-56 207.5,-56 207.5,-56 135.5,-56"/>
<polygon fill="#666666" stroke="#666666" points="135.5,-40 135.5,-40 207.5,-40 207.5,-40 135.5,-40"/>
<polygon fill="none" stroke="#666666" points="135.5,-22 135.5,-74 207.5,-74 207.5,-22 135.5,-22"/>
</a>
</g>
</g>
<!-- Node1&#45;&gt;Node3 -->
<g id="edge2_Node000001_Node000003" class="edge">
<title>Node1&#45;&gt;Node3</title>
<g id="a_edge2_Node000001_Node000003"><a xlink:title=" ">
<path fill="none" stroke="#63b8ff" d="M132.84,-122.25C141.19,-106.42 150.89,-88.05 158.48,-73.66"/>
<polygon fill="none" stroke="#63b8ff" points="129.86,-120.41 128.28,-130.88 136.05,-123.67 129.86,-120.41"/>
</a>
</g>
</g>
</g>
</svg>
