<?xml version="1.0" encoding="UTF-8" standalone="no"?>
<!DOCTYPE svg PUBLIC "-//W3C//DTD SVG 1.1//EN"
 "http://www.w3.org/Graphics/SVG/1.1/DTD/svg11.dtd">
<!-- Generated by graphviz version 12.1.0 (20240811.2233)
 -->
<!-- Title: Control Pages: 1 -->
<svg width="286pt" height="192pt"
 viewBox="0.00 0.00 285.50 192.00" xmlns="http://www.w3.org/2000/svg" xmlns:xlink="http://www.w3.org/1999/xlink">

<svg id="main" version="1.1" xmlns="http://www.w3.org/2000/svg" xmlns:xlink="http://www.w3.org/1999/xlink" xml:space="preserve" onload="init(evt)">
<style type="text/css"><![CDATA[
.node, .edge {opacity: 0.7;}
.node.selected, .edge.selected {opacity: 1;}
.edge:hover path { stroke: red; }
.edge:hover polygon { stroke: red; fill: red; }
]]></style>
<script type="application/ecmascript" xlink:href="../../svg.min.js"/>
<svg id="graph" class="graph">
<g id="graph0" class="graph" transform="scale(1 1) rotate(0) translate(4 188)">
<title>Control</title>
<!-- Node1 -->
<g id="Node000001" class="node">
<title>Node1</title>
<g id="a_Node000001"><a xlink:title=" ">
<polygon fill="#999999" stroke="none" points="153,-184 112,-184 112,-132 153,-132 153,-184"/>
<text text-anchor="start" x="116.75" y="-170.5" font-family="Helvetica,sans-Serif" font-size="10.00">Control</text>
<text text-anchor="start" x="131" y="-154.5" font-family="Helvetica,sans-Serif" font-size="10.00"> </text>
<text text-anchor="start" x="131" y="-138.5" font-family="Helvetica,sans-Serif" font-size="10.00"> </text>
<polygon fill="#666666" stroke="#666666" points="112,-166 112,-166 153,-166 153,-166 112,-166"/>
<polygon fill="#666666" stroke="#666666" points="112,-150 112,-150 153,-150 153,-150 112,-150"/>
<polygon fill="none" stroke="#666666" points="112,-132 112,-184 153,-184 153,-132 112,-132"/>
</a>
</g>
</g>
<!-- Node2 -->
<g id="Node000002" class="node">
<title>Node2</title>
<g id="a_Node000002"><a xlink:href="../../dd/d5b/class_minimap.html" target="_top" xlink:title="A UI element that displays a minimap of the dungeon.">
<polygon fill="white" stroke="none" points="117,-96 0,-96 0,0 117,0 117,-96"/>
<text text-anchor="start" x="40.12" y="-82.5" font-family="Helvetica,sans-Serif" font-size="10.00">Minimap</text>
<text text-anchor="start" x="4" y="-66.5" font-family="Helvetica,sans-Serif" font-size="10.00">+</text>
<text text-anchor="start" x="14" y="-66.5" font-family="Helvetica,sans-Serif" font-size="10.00">Vector2I CellSize</text>
<text text-anchor="start" x="4" y="-50.5" font-family="Helvetica,sans-Serif" font-size="10.00">+</text>
<text text-anchor="start" x="14" y="-50.5" font-family="Helvetica,sans-Serif" font-size="10.00">override void _Ready()</text>
<text text-anchor="start" x="4" y="-34.5" font-family="Helvetica,sans-Serif" font-size="10.00">+</text>
<text text-anchor="start" x="14" y="-34.5" font-family="Helvetica,sans-Serif" font-size="10.00">override void _Process</text>
<text text-anchor="start" x="14" y="-22.5" font-family="Helvetica,sans-Serif" font-size="10.00">(double delta)</text>
<text text-anchor="start" x="4" y="-6.5" font-family="Helvetica,sans-Serif" font-size="10.00">+</text>
<text text-anchor="start" x="14" y="-6.5" font-family="Helvetica,sans-Serif" font-size="10.00">override void _Draw()</text>
<polygon fill="#666666" stroke="#666666" points="0,-78 0,-78 117,-78 117,-78 0,-78"/>
<polygon fill="#666666" stroke="#666666" points="0,-62 0,-62 12,-62 12,-62 0,-62"/>
<polygon fill="#666666" stroke="#666666" points="12,-62 12,-62 117,-62 117,-62 12,-62"/>
<polygon fill="none" stroke="#666666" points="0,0 0,-96 117,-96 117,0 0,0"/>
</a>
</g>
</g>
<!-- Node1&#45;&gt;Node2 -->
<g id="edge1_Node000001_Node000002" class="edge">
<title>Node1&#45;&gt;Node2</title>
<g id="a_edge1_Node000001_Node000002"><a xlink:title=" ">
<path fill="none" stroke="#63b8ff" d="M109.13,-122.89C103.22,-114.27 96.78,-104.87 90.53,-95.75"/>
<polygon fill="none" stroke="#63b8ff" points="106.13,-124.7 114.67,-130.97 111.9,-120.75 106.13,-124.7"/>
</a>
</g>
</g>
<!-- Node3 -->
<g id="Node000003" class="node">
<title>Node3</title>
<g id="a_Node000003"><a xlink:href="../../db/dbe/class_spell_inventory.html" target="_top" xlink:title=" ">
<polygon fill="white" stroke="none" points="277.5,-80 135.5,-80 135.5,-16 277.5,-16 277.5,-80"/>
<text text-anchor="start" x="175.38" y="-66.5" font-family="Helvetica,sans-Serif" font-size="10.00">SpellInventory</text>
<text text-anchor="start" x="205" y="-50.5" font-family="Helvetica,sans-Serif" font-size="10.00"> </text>
<text text-anchor="start" x="139.5" y="-34.5" font-family="Helvetica,sans-Serif" font-size="10.00">+</text>
<text text-anchor="start" x="149.5" y="-34.5" font-family="Helvetica,sans-Serif" font-size="10.00">void SetUIIcon(int</text>
<text text-anchor="start" x="149.5" y="-22.5" font-family="Helvetica,sans-Serif" font-size="10.00"> nrSpellSlot, Texture2D icon)</text>
<polygon fill="#666666" stroke="#666666" points="135.5,-62 135.5,-62 277.5,-62 277.5,-62 135.5,-62"/>
<polygon fill="#666666" stroke="#666666" points="135.5,-46 135.5,-46 277.5,-46 277.5,-46 135.5,-46"/>
<polygon fill="none" stroke="#666666" points="135.5,-16 135.5,-80 277.5,-80 277.5,-16 135.5,-16"/>
</a>
</g>
</g>
<!-- Node1&#45;&gt;Node3 -->
<g id="edge2_Node000001_Node000003" class="edge">
<title>Node1&#45;&gt;Node3</title>
<g id="a_edge2_Node000001_Node000003"><a xlink:title=" ">
<path fill="none" stroke="#63b8ff" d="M155.78,-123.03C165.25,-109.2 176.12,-93.33 185.37,-79.84"/>
<polygon fill="none" stroke="#63b8ff" points="153.1,-120.75 150.33,-130.97 158.87,-124.7 153.1,-120.75"/>
</a>
</g>
</g>
</g>
</svg>
</svg>

<style type='text/css'>
<![CDATA[
[data-mouse-over-selected='false'] { opacity: 0.7; }
[data-mouse-over-selected='true']  { opacity: 1.0; }
]]>
</style>
<script type="application/ecmascript"><![CDATA[
document.addEventListener('DOMContentLoaded', (event) => {
  highlightEdges();
  highlightAdjacentNodes();
});
]]></script>
</svg>
