<?xml version="1.0" encoding="UTF-8" standalone="no"?>
<!DOCTYPE svg PUBLIC "-//W3C//DTD SVG 1.1//EN"
 "http://www.w3.org/Graphics/SVG/1.1/DTD/svg11.dtd">
<!-- Generated by graphviz version 12.1.0 (20240811.2233)
 -->
<!-- Title: ShootingAttackProjectile Pages: 1 -->
<svg width="247pt" height="272pt"
 viewBox="0.00 0.00 246.95 272.00" xmlns="http://www.w3.org/2000/svg" xmlns:xlink="http://www.w3.org/1999/xlink">
<g id="graph0" class="graph" transform="scale(1 1) rotate(0) translate(4 268)">
<title>ShootingAttackProjectile</title>
<!-- Node1 -->
<g id="Node000001" class="node">
<title>Node1</title>
<g id="a_Node000001"><a xlink:title=" ">
<polygon fill="#999999" stroke="none" points="153,-152 0,-152 0,0 153,0 153,-152"/>
<text text-anchor="start" x="22.88" y="-138.5" font-family="Helvetica,sans-Serif" font-size="10.00">ShootingAttackProjectile</text>
<text text-anchor="start" x="75" y="-122.5" font-family="Helvetica,sans-Serif" font-size="10.00"> </text>
<text text-anchor="start" x="4" y="-106.5" font-family="Helvetica,sans-Serif" font-size="10.00">+</text>
<text text-anchor="start" x="14" y="-106.5" font-family="Helvetica,sans-Serif" font-size="10.00">override void _Ready()</text>
<text text-anchor="start" x="4" y="-90.5" font-family="Helvetica,sans-Serif" font-size="10.00">+</text>
<text text-anchor="start" x="14" y="-90.5" font-family="Helvetica,sans-Serif" font-size="10.00">void Init(Attack attack)</text>
<text text-anchor="start" x="4" y="-74.5" font-family="Helvetica,sans-Serif" font-size="10.00">+</text>
<text text-anchor="start" x="14" y="-74.5" font-family="Helvetica,sans-Serif" font-size="10.00">override void _PhysicsProcess</text>
<text text-anchor="start" x="14" y="-62.5" font-family="Helvetica,sans-Serif" font-size="10.00">(double delta)</text>
<text text-anchor="start" x="4" y="-46.5" font-family="Helvetica,sans-Serif" font-size="10.00">+</text>
<text text-anchor="start" x="14" y="-46.5" font-family="Helvetica,sans-Serif" font-size="10.00">void OnAreaEntered</text>
<text text-anchor="start" x="14" y="-34.5" font-family="Helvetica,sans-Serif" font-size="10.00">(Area2D area)</text>
<text text-anchor="start" x="4" y="-18.5" font-family="Helvetica,sans-Serif" font-size="10.00">+</text>
<text text-anchor="start" x="14" y="-18.5" font-family="Helvetica,sans-Serif" font-size="10.00">void OnBodyEntered</text>
<text text-anchor="start" x="14" y="-6.5" font-family="Helvetica,sans-Serif" font-size="10.00">(Node2D body)</text>
<polygon fill="#666666" stroke="#666666" points="0,-134 0,-134 153,-134 153,-134 0,-134"/>
<polygon fill="#666666" stroke="#666666" points="0,-118 0,-118 153,-118 153,-118 0,-118"/>
<polygon fill="none" stroke="#666666" points="0,0 0,-152 153,-152 153,0 0,0"/>
</a>
</g>
</g>
<!-- Node2 -->
<g id="Node000002" class="node">
<title>Node2</title>
<g id="a_Node000002"><a xlink:href="../../dc/df8/class_area2_d.html" target="_top" xlink:title=" ">
<polygon fill="white" stroke="none" points="44,-264 1,-264 1,-212 44,-212 44,-264"/>
<text text-anchor="start" x="6" y="-250.5" font-family="Helvetica,sans-Serif" font-size="10.00">Area2D</text>
<text text-anchor="start" x="21" y="-234.5" font-family="Helvetica,sans-Serif" font-size="10.00"> </text>
<text text-anchor="start" x="21" y="-218.5" font-family="Helvetica,sans-Serif" font-size="10.00"> </text>
<polygon fill="#666666" stroke="#666666" points="1,-246 1,-246 44,-246 44,-246 1,-246"/>
<polygon fill="#666666" stroke="#666666" points="1,-230 1,-230 44,-230 44,-230 1,-230"/>
<polygon fill="none" stroke="#666666" points="1,-212 1,-264 44,-264 44,-212 1,-212"/>
</a>
</g>
</g>
<!-- Node2&#45;&gt;Node1 -->
<g id="edge1_Node000001_Node000002" class="edge">
<title>Node2&#45;&gt;Node1</title>
<g id="a_edge1_Node000001_Node000002"><a xlink:title=" ">
<path fill="none" stroke="#63b8ff" d="M34.51,-201.42C39.45,-186.77 45.38,-169.21 51.2,-151.96"/>
<polygon fill="none" stroke="#63b8ff" points="31.3,-199.97 31.42,-210.57 37.94,-202.21 31.3,-199.97"/>
</a>
</g>
</g>
<!-- Node3 -->
<g id="Node000003" class="node">
<title>Node3</title>
<g id="a_Node000003"><a xlink:title=" ">
<polygon fill="white" stroke="none" points="90.5,-264 62.5,-264 62.5,-212 90.5,-212 90.5,-264"/>
<text text-anchor="start" x="67.12" y="-250.5" font-family="Helvetica,sans-Serif" font-size="10.00">float</text>
<text text-anchor="start" x="75" y="-234.5" font-family="Helvetica,sans-Serif" font-size="10.00"> </text>
<text text-anchor="start" x="75" y="-218.5" font-family="Helvetica,sans-Serif" font-size="10.00"> </text>
<polygon fill="#666666" stroke="#666666" points="62.5,-246 62.5,-246 90.5,-246 90.5,-246 62.5,-246"/>
<polygon fill="#666666" stroke="#666666" points="62.5,-230 62.5,-230 90.5,-230 90.5,-230 62.5,-230"/>
<polygon fill="none" stroke="#666666" points="62.5,-212 62.5,-264 90.5,-264 90.5,-212 62.5,-212"/>
</a>
</g>
</g>
<!-- Node3&#45;&gt;Node1 -->
<g id="edge2_Node000001_Node000003" class="edge">
<title>Node3&#45;&gt;Node1</title>
<g id="a_edge2_Node000001_Node000003"><a xlink:title=" ">
<path fill="none" stroke="#63b8ff" d="M76.5,-212C76.5,-198.98 76.5,-182.19 76.5,-164.91"/>
<polygon fill="none" stroke="#63b8ff" points="76.5,-164.87 72.5,-158.87 76.5,-152.87 80.5,-158.87 76.5,-164.87"/>
</a>
</g>
<text text-anchor="middle" x="98.25" y="-178.5" font-family="Helvetica,sans-Serif" font-size="10.00" fill="grey"> +SPEED</text>
</g>
<!-- Node4 -->
<g id="Node000004" class="node">
<title>Node4</title>
<g id="a_Node000004"><a xlink:title=" ">
<polygon fill="white" stroke="none" points="162.5,-264 124.5,-264 124.5,-212 162.5,-212 162.5,-264"/>
<text text-anchor="start" x="129.25" y="-250.5" font-family="Helvetica,sans-Serif" font-size="10.00">double</text>
<text text-anchor="start" x="142" y="-234.5" font-family="Helvetica,sans-Serif" font-size="10.00"> </text>
<text text-anchor="start" x="142" y="-218.5" font-family="Helvetica,sans-Serif" font-size="10.00"> </text>
<polygon fill="#666666" stroke="#666666" points="124.5,-246 124.5,-246 162.5,-246 162.5,-246 124.5,-246"/>
<polygon fill="#666666" stroke="#666666" points="124.5,-230 124.5,-230 162.5,-230 162.5,-230 124.5,-230"/>
<polygon fill="none" stroke="#666666" points="124.5,-212 124.5,-264 162.5,-264 162.5,-212 124.5,-212"/>
</a>
</g>
</g>
<!-- Node4&#45;&gt;Node1 -->
<g id="edge3_Node000001_Node000004" class="edge">
<title>Node4&#45;&gt;Node1</title>
<g id="a_edge3_Node000001_Node000004"><a xlink:title=" ">
<path fill="none" stroke="#63b8ff" d="M136.23,-212.21C132.27,-199.45 127.05,-183.74 121.5,-170 120.68,-167.97 119.84,-165.92 118.97,-163.86"/>
<polygon fill="none" stroke="#63b8ff" points="118.96,-163.83 112.9,-159.91 114.19,-152.82 120.25,-156.74 118.96,-163.83"/>
</a>
</g>
<text text-anchor="middle" x="184.58" y="-184.5" font-family="Helvetica,sans-Serif" font-size="10.00" fill="grey"> +HomingTimer</text>
<text text-anchor="middle" x="184.58" y="-172.5" font-family="Helvetica,sans-Serif" font-size="10.00" fill="grey">+MaxLifeTimeInSeconds</text>
</g>
</g>
</svg>
