<?xml version="1.0" encoding="UTF-8" standalone="no"?>
<!DOCTYPE svg PUBLIC "-//W3C//DTD SVG 1.1//EN"
 "http://www.w3.org/Graphics/SVG/1.1/DTD/svg11.dtd">
<!-- Generated by graphviz version 12.1.0 (20240811.2233)
 -->
<!-- Title: OnCastAugmentEffect Pages: 1 -->
<svg width="302pt" height="448pt"
 viewBox="0.00 0.00 302.00 448.00" xmlns="http://www.w3.org/2000/svg" xmlns:xlink="http://www.w3.org/1999/xlink">

<svg id="main" version="1.1" xmlns="http://www.w3.org/2000/svg" xmlns:xlink="http://www.w3.org/1999/xlink" xml:space="preserve" onload="init(evt)">
<style type="text/css"><![CDATA[
.node, .edge {opacity: 0.7;}
.node.selected, .edge.selected {opacity: 1;}
.edge:hover path { stroke: red; }
.edge:hover polygon { stroke: red; fill: red; }
]]></style>
<script type="application/ecmascript" xlink:href="../../svg.min.js"/>
<svg id="graph" class="graph">
<g id="graph0" class="graph" transform="scale(1 1) rotate(0) translate(4 444)">
<title>OnCastAugmentEffect</title>
<!-- Node1 -->
<g id="Node000001" class="node">
<title>Node1</title>
<g id="a_Node000001"><a xlink:title=" ">
<polygon fill="#999999" stroke="none" points="201,-208 93,-208 93,-144 201,-144 201,-208"/>
<text text-anchor="start" x="97.88" y="-194.5" font-family="Helvetica,sans-Serif" font-size="10.00">OnCastAugmentEffect</text>
<text text-anchor="start" x="145.5" y="-178.5" font-family="Helvetica,sans-Serif" font-size="10.00"> </text>
<text text-anchor="start" x="98.5" y="-162.5" font-family="Helvetica,sans-Serif" font-size="10.00">+</text>
<text text-anchor="start" x="110" y="-162.5" font-family="Helvetica,sans-Serif" font-size="10.00">virtual void OnCast</text>
<text text-anchor="start" x="110" y="-150.5" font-family="Helvetica,sans-Serif" font-size="10.00">(Spell spell)</text>
<polygon fill="#666666" stroke="#666666" points="93,-190 93,-190 201,-190 201,-190 93,-190"/>
<polygon fill="#666666" stroke="#666666" points="93,-174 93,-174 201,-174 201,-174 93,-174"/>
<polygon fill="none" stroke="#666666" points="93,-144 93,-208 201,-208 201,-144 93,-144"/>
</a>
</g>
</g>
<!-- Node4 -->
<g id="Node000004" class="node">
<title>Node4</title>
<g id="a_Node000004"><a xlink:href="../../d0/d68/class_increase_duration_of_spell.html" target="_top" xlink:title=" ">
<polygon fill="white" stroke="none" points="138,-108 0,-108 0,0 138,0 138,-108"/>
<text text-anchor="start" x="15.75" y="-94.5" font-family="Helvetica,sans-Serif" font-size="10.00">IncreaseDurationOfSpell</text>
<text text-anchor="start" x="67.5" y="-78.5" font-family="Helvetica,sans-Serif" font-size="10.00"> </text>
<text text-anchor="start" x="4" y="-62.5" font-family="Helvetica,sans-Serif" font-size="10.00">+</text>
<text text-anchor="start" x="14" y="-62.5" font-family="Helvetica,sans-Serif" font-size="10.00">override void Equip</text>
<text text-anchor="start" x="14" y="-50.5" font-family="Helvetica,sans-Serif" font-size="10.00">(SceneTree sceneTree)</text>
<text text-anchor="start" x="4" y="-34.5" font-family="Helvetica,sans-Serif" font-size="10.00">+</text>
<text text-anchor="start" x="14" y="-34.5" font-family="Helvetica,sans-Serif" font-size="10.00">override void OnCast</text>
<text text-anchor="start" x="14" y="-22.5" font-family="Helvetica,sans-Serif" font-size="10.00">(Spell spell)</text>
<text text-anchor="start" x="4" y="-6.5" font-family="Helvetica,sans-Serif" font-size="10.00">+</text>
<text text-anchor="start" x="14" y="-6.5" font-family="Helvetica,sans-Serif" font-size="10.00">override string Description()</text>
<polygon fill="#666666" stroke="#666666" points="0,-90 0,-90 138,-90 138,-90 0,-90"/>
<polygon fill="#666666" stroke="#666666" points="0,-74 0,-74 138,-74 138,-74 0,-74"/>
<polygon fill="none" stroke="#666666" points="0,0 0,-108 138,-108 138,0 0,0"/>
</a>
</g>
</g>
<!-- Node1&#45;&gt;Node4 -->
<g id="edge3_Node000001_Node000004" class="edge">
<title>Node1&#45;&gt;Node4</title>
<g id="a_edge3_Node000001_Node000004"><a xlink:title=" ">
<path fill="none" stroke="#63b8ff" d="M120.76,-134.63C115.14,-125.98 109.12,-116.72 103.24,-107.68"/>
<polygon fill="none" stroke="#63b8ff" points="117.7,-136.35 126.09,-142.83 123.57,-132.54 117.7,-136.35"/>
</a>
</g>
</g>
<!-- Node5 -->
<g id="Node000005" class="node">
<title>Node5</title>
<g id="a_Node000005"><a xlink:href="../../d5/d92/class_increased_radius_of_spell.html" target="_top" xlink:title=" ">
<polygon fill="white" stroke="none" points="294,-108 156,-108 156,0 294,0 294,-108"/>
<text text-anchor="start" x="172.12" y="-94.5" font-family="Helvetica,sans-Serif" font-size="10.00">IncreasedRadiusOfSpell</text>
<text text-anchor="start" x="223.5" y="-78.5" font-family="Helvetica,sans-Serif" font-size="10.00"> </text>
<text text-anchor="start" x="160" y="-62.5" font-family="Helvetica,sans-Serif" font-size="10.00">+</text>
<text text-anchor="start" x="170" y="-62.5" font-family="Helvetica,sans-Serif" font-size="10.00">override void Equip</text>
<text text-anchor="start" x="170" y="-50.5" font-family="Helvetica,sans-Serif" font-size="10.00">(SceneTree sceneTree)</text>
<text text-anchor="start" x="160" y="-34.5" font-family="Helvetica,sans-Serif" font-size="10.00">+</text>
<text text-anchor="start" x="170" y="-34.5" font-family="Helvetica,sans-Serif" font-size="10.00">override void OnCast</text>
<text text-anchor="start" x="170" y="-22.5" font-family="Helvetica,sans-Serif" font-size="10.00">(Spell spell)</text>
<text text-anchor="start" x="160" y="-6.5" font-family="Helvetica,sans-Serif" font-size="10.00">+</text>
<text text-anchor="start" x="170" y="-6.5" font-family="Helvetica,sans-Serif" font-size="10.00">override string Description()</text>
<polygon fill="#666666" stroke="#666666" points="156,-90 156,-90 294,-90 294,-90 156,-90"/>
<polygon fill="#666666" stroke="#666666" points="156,-74 156,-74 294,-74 294,-74 156,-74"/>
<polygon fill="none" stroke="#666666" points="156,0 156,-108 294,-108 294,0 156,0"/>
</a>
</g>
</g>
<!-- Node1&#45;&gt;Node5 -->
<g id="edge4_Node000001_Node000005" class="edge">
<title>Node1&#45;&gt;Node5</title>
<g id="a_edge4_Node000001_Node000005"><a xlink:title=" ">
<path fill="none" stroke="#63b8ff" d="M173.24,-134.63C178.86,-125.98 184.88,-116.72 190.76,-107.68"/>
<polygon fill="none" stroke="#63b8ff" points="170.43,-132.54 167.91,-142.83 176.3,-136.35 170.43,-132.54"/>
</a>
</g>
</g>
<!-- Node2 -->
<g id="Node000002" class="node">
<title>Node2</title>
<g id="a_Node000002"><a xlink:href="../../d5/d2b/class_augment_effect.html" target="_top" xlink:title=" ">
<polygon fill="white" stroke="none" points="211.5,-352 82.5,-352 82.5,-244 211.5,-244 211.5,-352"/>
<text text-anchor="start" x="114.75" y="-338.5" font-family="Helvetica,sans-Serif" font-size="10.00">AugmentEffect</text>
<text text-anchor="start" x="145.5" y="-322.5" font-family="Helvetica,sans-Serif" font-size="10.00"> </text>
<text text-anchor="start" x="86.5" y="-306.5" font-family="Helvetica,sans-Serif" font-size="10.00">+</text>
<text text-anchor="start" x="96.5" y="-306.5" font-family="Helvetica,sans-Serif" font-size="10.00">virtual void Equip</text>
<text text-anchor="start" x="96.5" y="-294.5" font-family="Helvetica,sans-Serif" font-size="10.00">(SceneTree sceneTree)</text>
<text text-anchor="start" x="86.5" y="-278.5" font-family="Helvetica,sans-Serif" font-size="10.00">+</text>
<text text-anchor="start" x="96.5" y="-278.5" font-family="Helvetica,sans-Serif" font-size="10.00">virtual void UnEquip</text>
<text text-anchor="start" x="96.5" y="-266.5" font-family="Helvetica,sans-Serif" font-size="10.00">(SceneTree sceneTree)</text>
<text text-anchor="start" x="86.5" y="-250.5" font-family="Helvetica,sans-Serif" font-size="10.00">+</text>
<text text-anchor="start" x="96.5" y="-250.5" font-family="Helvetica,sans-Serif" font-size="10.00">virtual string Description()</text>
<polygon fill="#666666" stroke="#666666" points="82.5,-334 82.5,-334 211.5,-334 211.5,-334 82.5,-334"/>
<polygon fill="#666666" stroke="#666666" points="82.5,-318 82.5,-318 211.5,-318 211.5,-318 82.5,-318"/>
<polygon fill="none" stroke="#666666" points="82.5,-244 82.5,-352 211.5,-352 211.5,-244 82.5,-244"/>
</a>
</g>
</g>
<!-- Node2&#45;&gt;Node1 -->
<g id="edge1_Node000001_Node000002" class="edge">
<title>Node2&#45;&gt;Node1</title>
<g id="a_edge1_Node000001_Node000002"><a xlink:title=" ">
<path fill="none" stroke="#63b8ff" d="M147,-232.6C147,-223.93 147,-215.37 147,-207.67"/>
<polygon fill="none" stroke="#63b8ff" points="143.5,-232.5 147,-242.5 150.5,-232.5 143.5,-232.5"/>
</a>
</g>
</g>
<!-- Node3 -->
<g id="Node000003" class="node">
<title>Node3</title>
<g id="a_Node000003"><a xlink:href="../../df/d00/class_resource.html" target="_top" xlink:title=" ">
<polygon fill="white" stroke="none" points="173,-440 121,-440 121,-388 173,-388 173,-440"/>
<text text-anchor="start" x="126" y="-426.5" font-family="Helvetica,sans-Serif" font-size="10.00">Resource</text>
<text text-anchor="start" x="145.5" y="-410.5" font-family="Helvetica,sans-Serif" font-size="10.00"> </text>
<text text-anchor="start" x="145.5" y="-394.5" font-family="Helvetica,sans-Serif" font-size="10.00"> </text>
<polygon fill="#666666" stroke="#666666" points="121,-422 121,-422 173,-422 173,-422 121,-422"/>
<polygon fill="#666666" stroke="#666666" points="121,-406 121,-406 173,-406 173,-406 121,-406"/>
<polygon fill="none" stroke="#666666" points="121,-388 121,-440 173,-440 173,-388 121,-388"/>
</a>
</g>
</g>
<!-- Node3&#45;&gt;Node2 -->
<g id="edge2_Node000002_Node000003" class="edge">
<title>Node3&#45;&gt;Node2</title>
<g id="a_edge2_Node000002_Node000003"><a xlink:title=" ">
<path fill="none" stroke="#63b8ff" d="M147,-376.77C147,-368.81 147,-360.23 147,-351.77"/>
<polygon fill="none" stroke="#63b8ff" points="143.5,-376.75 147,-386.75 150.5,-376.75 143.5,-376.75"/>
</a>
</g>
</g>
</g>
</svg>
</svg>

<style type='text/css'>
<![CDATA[
[data-mouse-over-selected='false'] { opacity: 0.7; }
[data-mouse-over-selected='true']  { opacity: 1.0; }
]]>
</style>
<script type="application/ecmascript"><![CDATA[
document.addEventListener('DOMContentLoaded', (event) => {
  highlightEdges();
  highlightAdjacentNodes();
});
]]></script>
</svg>
