<?xml version="1.0" encoding="UTF-8" standalone="no"?>
<!DOCTYPE svg PUBLIC "-//W3C//DTD SVG 1.1//EN"
 "http://www.w3.org/Graphics/SVG/1.1/DTD/svg11.dtd">
<!-- Generated by graphviz version 12.1.0 (20240811.2233)
 -->
<!-- Title: OnCastAugmentEffect Pages: 1 -->
<svg width="302pt" height="496pt"
 viewBox="0.00 0.00 302.00 496.00" xmlns="http://www.w3.org/2000/svg" xmlns:xlink="http://www.w3.org/1999/xlink">
<g id="graph0" class="graph" transform="scale(1 1) rotate(0) translate(4 492)">
<title>OnCastAugmentEffect</title>
<!-- Node1 -->
<g id="Node000001" class="node">
<title>Node1</title>
<g id="a_Node000001"><a xlink:title=" ">
<polygon fill="#999999" stroke="none" points="207.5,-256 86.5,-256 86.5,-168 207.5,-168 207.5,-256"/>
<text text-anchor="start" x="97.88" y="-242.5" font-family="Helvetica,sans-Serif" font-size="10.00">OnCastAugmentEffect</text>
<text text-anchor="start" x="145.5" y="-226.5" font-family="Helvetica,sans-Serif" font-size="10.00"> </text>
<text text-anchor="start" x="90.5" y="-210.5" font-family="Helvetica,sans-Serif" font-size="10.00">+</text>
<text text-anchor="start" x="100.5" y="-210.5" font-family="Helvetica,sans-Serif" font-size="10.00">virtual void OnCast</text>
<text text-anchor="start" x="100.5" y="-198.5" font-family="Helvetica,sans-Serif" font-size="10.00">(Spell spell, Vector2</text>
<text text-anchor="start" x="100.5" y="-186.5" font-family="Helvetica,sans-Serif" font-size="10.00"> playerPosition, Vector2</text>
<text text-anchor="start" x="100.5" y="-174.5" font-family="Helvetica,sans-Serif" font-size="10.00"> targetPosition)</text>
<polygon fill="#666666" stroke="#666666" points="86.5,-238 86.5,-238 207.5,-238 207.5,-238 86.5,-238"/>
<polygon fill="#666666" stroke="#666666" points="86.5,-222 86.5,-222 207.5,-222 207.5,-222 86.5,-222"/>
<polygon fill="none" stroke="#666666" points="86.5,-168 86.5,-256 207.5,-256 207.5,-168 86.5,-168"/>
</a>
</g>
</g>
<!-- Node4 -->
<g id="Node000004" class="node">
<title>Node4</title>
<g id="a_Node000004"><a xlink:href="../../d0/d68/class_increase_duration_of_spell.html" target="_top" xlink:title=" ">
<polygon fill="white" stroke="none" points="138,-132 0,-132 0,0 138,0 138,-132"/>
<text text-anchor="start" x="15.75" y="-118.5" font-family="Helvetica,sans-Serif" font-size="10.00">IncreaseDurationOfSpell</text>
<text text-anchor="start" x="67.5" y="-102.5" font-family="Helvetica,sans-Serif" font-size="10.00"> </text>
<text text-anchor="start" x="4" y="-86.5" font-family="Helvetica,sans-Serif" font-size="10.00">+</text>
<text text-anchor="start" x="14" y="-86.5" font-family="Helvetica,sans-Serif" font-size="10.00">override void Equip</text>
<text text-anchor="start" x="14" y="-74.5" font-family="Helvetica,sans-Serif" font-size="10.00">(SceneTree sceneTree)</text>
<text text-anchor="start" x="4" y="-58.5" font-family="Helvetica,sans-Serif" font-size="10.00">+</text>
<text text-anchor="start" x="14" y="-58.5" font-family="Helvetica,sans-Serif" font-size="10.00">override void OnCast</text>
<text text-anchor="start" x="14" y="-46.5" font-family="Helvetica,sans-Serif" font-size="10.00">(Spell spell, Vector2</text>
<text text-anchor="start" x="14" y="-34.5" font-family="Helvetica,sans-Serif" font-size="10.00"> playerPosition, Vector2</text>
<text text-anchor="start" x="14" y="-22.5" font-family="Helvetica,sans-Serif" font-size="10.00"> targetPosition)</text>
<text text-anchor="start" x="4" y="-6.5" font-family="Helvetica,sans-Serif" font-size="10.00">+</text>
<text text-anchor="start" x="14" y="-6.5" font-family="Helvetica,sans-Serif" font-size="10.00">override string Description()</text>
<polygon fill="#666666" stroke="#666666" points="0,-114 0,-114 138,-114 138,-114 0,-114"/>
<polygon fill="#666666" stroke="#666666" points="0,-98 0,-98 138,-98 138,-98 0,-98"/>
<polygon fill="none" stroke="#666666" points="0,0 0,-132 138,-132 138,0 0,0"/>
</a>
</g>
</g>
<!-- Node1&#45;&gt;Node4 -->
<g id="edge3_Node000001_Node000004" class="edge">
<title>Node1&#45;&gt;Node4</title>
<g id="a_edge3_Node000001_Node000004"><a xlink:title=" ">
<path fill="none" stroke="#63b8ff" d="M118.45,-158.28C113.78,-149.67 108.89,-140.65 104.09,-131.78"/>
<polygon fill="none" stroke="#63b8ff" points="115.25,-159.73 123.09,-166.85 121.4,-156.39 115.25,-159.73"/>
</a>
</g>
</g>
<!-- Node5 -->
<g id="Node000005" class="node">
<title>Node5</title>
<g id="a_Node000005"><a xlink:href="../../d5/d92/class_increased_radius_of_spell.html" target="_top" xlink:title=" ">
<polygon fill="white" stroke="none" points="294,-132 156,-132 156,0 294,0 294,-132"/>
<text text-anchor="start" x="172.12" y="-118.5" font-family="Helvetica,sans-Serif" font-size="10.00">IncreasedRadiusOfSpell</text>
<text text-anchor="start" x="223.5" y="-102.5" font-family="Helvetica,sans-Serif" font-size="10.00"> </text>
<text text-anchor="start" x="160" y="-86.5" font-family="Helvetica,sans-Serif" font-size="10.00">+</text>
<text text-anchor="start" x="170" y="-86.5" font-family="Helvetica,sans-Serif" font-size="10.00">override void Equip</text>
<text text-anchor="start" x="170" y="-74.5" font-family="Helvetica,sans-Serif" font-size="10.00">(SceneTree sceneTree)</text>
<text text-anchor="start" x="160" y="-58.5" font-family="Helvetica,sans-Serif" font-size="10.00">+</text>
<text text-anchor="start" x="170" y="-58.5" font-family="Helvetica,sans-Serif" font-size="10.00">override void OnCast</text>
<text text-anchor="start" x="170" y="-46.5" font-family="Helvetica,sans-Serif" font-size="10.00">(Spell spell, Vector2</text>
<text text-anchor="start" x="170" y="-34.5" font-family="Helvetica,sans-Serif" font-size="10.00"> playerPosition, Vector2</text>
<text text-anchor="start" x="170" y="-22.5" font-family="Helvetica,sans-Serif" font-size="10.00"> targetPosition)</text>
<text text-anchor="start" x="160" y="-6.5" font-family="Helvetica,sans-Serif" font-size="10.00">+</text>
<text text-anchor="start" x="170" y="-6.5" font-family="Helvetica,sans-Serif" font-size="10.00">override string Description()</text>
<polygon fill="#666666" stroke="#666666" points="156,-114 156,-114 294,-114 294,-114 156,-114"/>
<polygon fill="#666666" stroke="#666666" points="156,-98 156,-98 294,-98 294,-98 156,-98"/>
<polygon fill="none" stroke="#666666" points="156,0 156,-132 294,-132 294,0 156,0"/>
</a>
</g>
</g>
<!-- Node1&#45;&gt;Node5 -->
<g id="edge4_Node000001_Node000005" class="edge">
<title>Node1&#45;&gt;Node5</title>
<g id="a_edge4_Node000001_Node000005"><a xlink:title=" ">
<path fill="none" stroke="#63b8ff" d="M175.55,-158.28C180.22,-149.67 185.11,-140.65 189.91,-131.78"/>
<polygon fill="none" stroke="#63b8ff" points="172.6,-156.39 170.91,-166.85 178.75,-159.73 172.6,-156.39"/>
</a>
</g>
</g>
<!-- Node2 -->
<g id="Node000002" class="node">
<title>Node2</title>
<g id="a_Node000002"><a xlink:href="../../d5/d2b/class_augment_effect.html" target="_top" xlink:title=" ">
<polygon fill="white" stroke="none" points="211.5,-400 82.5,-400 82.5,-292 211.5,-292 211.5,-400"/>
<text text-anchor="start" x="114.75" y="-386.5" font-family="Helvetica,sans-Serif" font-size="10.00">AugmentEffect</text>
<text text-anchor="start" x="145.5" y="-370.5" font-family="Helvetica,sans-Serif" font-size="10.00"> </text>
<text text-anchor="start" x="86.5" y="-354.5" font-family="Helvetica,sans-Serif" font-size="10.00">+</text>
<text text-anchor="start" x="96.5" y="-354.5" font-family="Helvetica,sans-Serif" font-size="10.00">virtual void Equip</text>
<text text-anchor="start" x="96.5" y="-342.5" font-family="Helvetica,sans-Serif" font-size="10.00">(SceneTree sceneTree)</text>
<text text-anchor="start" x="86.5" y="-326.5" font-family="Helvetica,sans-Serif" font-size="10.00">+</text>
<text text-anchor="start" x="96.5" y="-326.5" font-family="Helvetica,sans-Serif" font-size="10.00">virtual void UnEquip</text>
<text text-anchor="start" x="96.5" y="-314.5" font-family="Helvetica,sans-Serif" font-size="10.00">(SceneTree sceneTree)</text>
<text text-anchor="start" x="86.5" y="-298.5" font-family="Helvetica,sans-Serif" font-size="10.00">+</text>
<text text-anchor="start" x="96.5" y="-298.5" font-family="Helvetica,sans-Serif" font-size="10.00">virtual string Description()</text>
<polygon fill="#666666" stroke="#666666" points="82.5,-382 82.5,-382 211.5,-382 211.5,-382 82.5,-382"/>
<polygon fill="#666666" stroke="#666666" points="82.5,-366 82.5,-366 211.5,-366 211.5,-366 82.5,-366"/>
<polygon fill="none" stroke="#666666" points="82.5,-292 82.5,-400 211.5,-400 211.5,-292 82.5,-292"/>
</a>
</g>
</g>
<!-- Node2&#45;&gt;Node1 -->
<g id="edge1_Node000001_Node000002" class="edge">
<title>Node2&#45;&gt;Node1</title>
<g id="a_edge1_Node000001_Node000002"><a xlink:title=" ">
<path fill="none" stroke="#63b8ff" d="M147,-280.65C147,-272.22 147,-263.75 147,-255.8"/>
<polygon fill="none" stroke="#63b8ff" points="143.5,-280.56 147,-290.56 150.5,-280.56 143.5,-280.56"/>
</a>
</g>
</g>
<!-- Node3 -->
<g id="Node000003" class="node">
<title>Node3</title>
<g id="a_Node000003"><a xlink:href="../../df/d00/class_resource.html" target="_top" xlink:title=" ">
<polygon fill="white" stroke="none" points="173,-488 121,-488 121,-436 173,-436 173,-488"/>
<text text-anchor="start" x="126" y="-474.5" font-family="Helvetica,sans-Serif" font-size="10.00">Resource</text>
<text text-anchor="start" x="145.5" y="-458.5" font-family="Helvetica,sans-Serif" font-size="10.00"> </text>
<text text-anchor="start" x="145.5" y="-442.5" font-family="Helvetica,sans-Serif" font-size="10.00"> </text>
<polygon fill="#666666" stroke="#666666" points="121,-470 121,-470 173,-470 173,-470 121,-470"/>
<polygon fill="#666666" stroke="#666666" points="121,-454 121,-454 173,-454 173,-454 121,-454"/>
<polygon fill="none" stroke="#666666" points="121,-436 121,-488 173,-488 173,-436 121,-436"/>
</a>
</g>
</g>
<!-- Node3&#45;&gt;Node2 -->
<g id="edge2_Node000002_Node000003" class="edge">
<title>Node3&#45;&gt;Node2</title>
<g id="a_edge2_Node000002_Node000003"><a xlink:title=" ">
<path fill="none" stroke="#63b8ff" d="M147,-424.77C147,-416.81 147,-408.23 147,-399.77"/>
<polygon fill="none" stroke="#63b8ff" points="143.5,-424.75 147,-434.75 150.5,-424.75 143.5,-424.75"/>
</a>
</g>
</g>
</g>
</svg>
