<?xml version="1.0" encoding="UTF-8" standalone="no"?>
<!DOCTYPE svg PUBLIC "-//W3C//DTD SVG 1.1//EN"
 "http://www.w3.org/Graphics/SVG/1.1/DTD/svg11.dtd">
<!-- Generated by graphviz version 12.1.0 (20240811.2233)
 -->
<!-- Title: Spell Pages: 1 -->
<svg width="1107pt" height="500pt"
 viewBox="0.00 0.00 1107.00 500.00" xmlns="http://www.w3.org/2000/svg" xmlns:xlink="http://www.w3.org/1999/xlink">
<g id="graph0" class="graph" transform="scale(1 1) rotate(0) translate(4 496)">
<title>Spell</title>
<!-- Node1 -->
<g id="Node000001" class="node">
<title>Node1</title>
<g id="a_Node000001"><a xlink:title=" ">
<polygon fill="#999999" stroke="none" points="618.5,-404 464.5,-404 464.5,-208 618.5,-208 618.5,-404"/>
<text text-anchor="start" x="530.62" y="-390.5" font-family="Helvetica,sans-Serif" font-size="10.00">Spell</text>
<text text-anchor="start" x="468.5" y="-374.5" font-family="Helvetica,sans-Serif" font-size="10.00">+</text>
<text text-anchor="start" x="478.5" y="-374.5" font-family="Helvetica,sans-Serif" font-size="10.00">double MaxLifeTimeInSeconds</text>
<text text-anchor="start" x="468.5" y="-358.5" font-family="Helvetica,sans-Serif" font-size="10.00">+</text>
<text text-anchor="start" x="478.5" y="-358.5" font-family="Helvetica,sans-Serif" font-size="10.00">double _timeLeftUntilDeletion</text>
<text text-anchor="start" x="468.88" y="-342.5" font-family="Helvetica,sans-Serif" font-size="10.00">#</text>
<text text-anchor="start" x="478.5" y="-342.5" font-family="Helvetica,sans-Serif" font-size="10.00">Attack _attack</text>
<text text-anchor="start" x="468.5" y="-326.5" font-family="Helvetica,sans-Serif" font-size="10.00">+</text>
<text text-anchor="start" x="478.5" y="-326.5" font-family="Helvetica,sans-Serif" font-size="10.00">override void _Ready()</text>
<text text-anchor="start" x="468.5" y="-310.5" font-family="Helvetica,sans-Serif" font-size="10.00">+</text>
<text text-anchor="start" x="478.5" y="-310.5" font-family="Helvetica,sans-Serif" font-size="10.00">virtual void Init(Attack</text>
<text text-anchor="start" x="478.5" y="-298.5" font-family="Helvetica,sans-Serif" font-size="10.00"> attack, Vector2 playerPosition,</text>
<text text-anchor="start" x="478.5" y="-286.5" font-family="Helvetica,sans-Serif" font-size="10.00"> Vector2 targetPosition)</text>
<text text-anchor="start" x="468.5" y="-270.5" font-family="Helvetica,sans-Serif" font-size="10.00">+</text>
<text text-anchor="start" x="478.5" y="-270.5" font-family="Helvetica,sans-Serif" font-size="10.00">override void _PhysicsProcess</text>
<text text-anchor="start" x="478.5" y="-258.5" font-family="Helvetica,sans-Serif" font-size="10.00">(double delta)</text>
<text text-anchor="start" x="468.5" y="-242.5" font-family="Helvetica,sans-Serif" font-size="10.00">+</text>
<text text-anchor="start" x="478.5" y="-242.5" font-family="Helvetica,sans-Serif" font-size="10.00">virtual void OnAreaEntered</text>
<text text-anchor="start" x="478.5" y="-230.5" font-family="Helvetica,sans-Serif" font-size="10.00">(Area2D area)</text>
<text text-anchor="start" x="468.5" y="-214.5" font-family="Helvetica,sans-Serif" font-size="10.00">+</text>
<text text-anchor="start" x="478.5" y="-214.5" font-family="Helvetica,sans-Serif" font-size="10.00">double GetTimeUntilDeleteion()</text>
<polygon fill="#666666" stroke="#666666" points="464.5,-386 464.5,-386 618.5,-386 618.5,-386 464.5,-386"/>
<polygon fill="#666666" stroke="#666666" points="464.5,-338 464.5,-338 476.5,-338 476.5,-338 464.5,-338"/>
<polygon fill="#666666" stroke="#666666" points="476.5,-338 476.5,-338 618.5,-338 618.5,-338 476.5,-338"/>
<polygon fill="none" stroke="#666666" points="464.5,-208 464.5,-404 618.5,-404 618.5,-208 464.5,-208"/>
</a>
</g>
</g>
<!-- Node3 -->
<g id="Node000003" class="node">
<title>Node3</title>
<g id="a_Node000003"><a xlink:href="../../d6/df9/class_basic_spell.html" target="_top" xlink:title=" ">
<polygon fill="white" stroke="none" points="153,-172 0,-172 0,0 153,0 153,-172"/>
<text text-anchor="start" x="53.25" y="-158.5" font-family="Helvetica,sans-Serif" font-size="10.00">BasicSpell</text>
<text text-anchor="start" x="4" y="-142.5" font-family="Helvetica,sans-Serif" font-size="10.00">+</text>
<text text-anchor="start" x="14" y="-142.5" font-family="Helvetica,sans-Serif" font-size="10.00">float SPEED</text>
<text text-anchor="start" x="4" y="-126.5" font-family="Helvetica,sans-Serif" font-size="10.00">+</text>
<text text-anchor="start" x="14" y="-126.5" font-family="Helvetica,sans-Serif" font-size="10.00">override void Init</text>
<text text-anchor="start" x="14" y="-114.5" font-family="Helvetica,sans-Serif" font-size="10.00">(Attack attack, Vector2</text>
<text text-anchor="start" x="14" y="-102.5" font-family="Helvetica,sans-Serif" font-size="10.00"> playerPosition, Vector2</text>
<text text-anchor="start" x="14" y="-90.5" font-family="Helvetica,sans-Serif" font-size="10.00"> targetPosition)</text>
<text text-anchor="start" x="4" y="-74.5" font-family="Helvetica,sans-Serif" font-size="10.00">+</text>
<text text-anchor="start" x="14" y="-74.5" font-family="Helvetica,sans-Serif" font-size="10.00">override void _PhysicsProcess</text>
<text text-anchor="start" x="14" y="-62.5" font-family="Helvetica,sans-Serif" font-size="10.00">(double delta)</text>
<text text-anchor="start" x="4" y="-46.5" font-family="Helvetica,sans-Serif" font-size="10.00">+</text>
<text text-anchor="start" x="14" y="-46.5" font-family="Helvetica,sans-Serif" font-size="10.00">override void OnAreaEntered</text>
<text text-anchor="start" x="14" y="-34.5" font-family="Helvetica,sans-Serif" font-size="10.00">(Area2D area)</text>
<text text-anchor="start" x="4" y="-18.5" font-family="Helvetica,sans-Serif" font-size="10.00">+</text>
<text text-anchor="start" x="14" y="-18.5" font-family="Helvetica,sans-Serif" font-size="10.00">void OnBodyEntered</text>
<text text-anchor="start" x="14" y="-6.5" font-family="Helvetica,sans-Serif" font-size="10.00">(Node2D body)</text>
<polygon fill="#666666" stroke="#666666" points="0,-154 0,-154 153,-154 153,-154 0,-154"/>
<polygon fill="#666666" stroke="#666666" points="0,-138 0,-138 12,-138 12,-138 0,-138"/>
<polygon fill="#666666" stroke="#666666" points="12,-138 12,-138 153,-138 153,-138 12,-138"/>
<polygon fill="none" stroke="#666666" points="0,0 0,-172 153,-172 153,0 0,0"/>
</a>
</g>
</g>
<!-- Node1&#45;&gt;Node3 -->
<g id="edge2_Node000001_Node000003" class="edge">
<title>Node1&#45;&gt;Node3</title>
<g id="a_edge2_Node000001_Node000003"><a xlink:title=" ">
<path fill="none" stroke="#63b8ff" d="M453.5,-286.13C373.13,-266.22 253.21,-229.63 161.5,-172 158.58,-170.17 155.69,-168.22 152.83,-166.18"/>
<polygon fill="none" stroke="#63b8ff" points="452.56,-289.5 463.1,-288.47 454.22,-282.7 452.56,-289.5"/>
</a>
</g>
</g>
<!-- Node4 -->
<g id="Node000004" class="node">
<title>Node4</title>
<g id="a_Node000004"><a xlink:href="../../db/d1b/class_black_hole.html" target="_top" xlink:title=" ">
<polygon fill="white" stroke="none" points="292,-130 171,-130 171,-42 292,-42 292,-130"/>
<text text-anchor="start" x="209" y="-116.5" font-family="Helvetica,sans-Serif" font-size="10.00">BlackHole</text>
<text text-anchor="start" x="230" y="-100.5" font-family="Helvetica,sans-Serif" font-size="10.00"> </text>
<text text-anchor="start" x="175" y="-84.5" font-family="Helvetica,sans-Serif" font-size="10.00">+</text>
<text text-anchor="start" x="185" y="-84.5" font-family="Helvetica,sans-Serif" font-size="10.00">override void Init</text>
<text text-anchor="start" x="185" y="-72.5" font-family="Helvetica,sans-Serif" font-size="10.00">(Attack attack, Vector2</text>
<text text-anchor="start" x="185" y="-60.5" font-family="Helvetica,sans-Serif" font-size="10.00"> playerPosition, Vector2</text>
<text text-anchor="start" x="185" y="-48.5" font-family="Helvetica,sans-Serif" font-size="10.00"> targetPosition)</text>
<polygon fill="#666666" stroke="#666666" points="171,-112 171,-112 292,-112 292,-112 171,-112"/>
<polygon fill="#666666" stroke="#666666" points="171,-96 171,-96 292,-96 292,-96 171,-96"/>
<polygon fill="none" stroke="#666666" points="171,-42 171,-130 292,-130 292,-42 171,-42"/>
</a>
</g>
</g>
<!-- Node1&#45;&gt;Node4 -->
<g id="edge3_Node000001_Node000004" class="edge">
<title>Node1&#45;&gt;Node4</title>
<g id="a_edge3_Node000001_Node000004"><a xlink:title=" ">
<path fill="none" stroke="#63b8ff" d="M454.48,-267.11C406.26,-243.72 346.87,-210.79 300.5,-172 285.92,-159.8 272.2,-144.17 260.9,-129.64"/>
<polygon fill="none" stroke="#63b8ff" points="452.7,-270.13 463.23,-271.3 455.72,-263.82 452.7,-270.13"/>
</a>
</g>
</g>
<!-- Node5 -->
<g id="Node000005" class="node">
<title>Node5</title>
<g id="a_Node000005"><a xlink:href="../../d9/d51/class_dark_energy_wave.html" target="_top" xlink:title=" ">
<polygon fill="white" stroke="none" points="463,-158 310,-158 310,-14 463,-14 463,-158"/>
<text text-anchor="start" x="348.25" y="-144.5" font-family="Helvetica,sans-Serif" font-size="10.00">DarkEnergyWave</text>
<text text-anchor="start" x="385" y="-128.5" font-family="Helvetica,sans-Serif" font-size="10.00"> </text>
<text text-anchor="start" x="314" y="-112.5" font-family="Helvetica,sans-Serif" font-size="10.00">+</text>
<text text-anchor="start" x="324" y="-112.5" font-family="Helvetica,sans-Serif" font-size="10.00">override void Init</text>
<text text-anchor="start" x="324" y="-100.5" font-family="Helvetica,sans-Serif" font-size="10.00">(Attack attack, Vector2</text>
<text text-anchor="start" x="324" y="-88.5" font-family="Helvetica,sans-Serif" font-size="10.00"> playerPosition, Vector2</text>
<text text-anchor="start" x="324" y="-76.5" font-family="Helvetica,sans-Serif" font-size="10.00"> targetPosition)</text>
<text text-anchor="start" x="314" y="-60.5" font-family="Helvetica,sans-Serif" font-size="10.00">+</text>
<text text-anchor="start" x="324" y="-60.5" font-family="Helvetica,sans-Serif" font-size="10.00">override void _PhysicsProcess</text>
<text text-anchor="start" x="324" y="-48.5" font-family="Helvetica,sans-Serif" font-size="10.00">(double delta)</text>
<text text-anchor="start" x="314" y="-32.5" font-family="Helvetica,sans-Serif" font-size="10.00">+</text>
<text text-anchor="start" x="324" y="-32.5" font-family="Helvetica,sans-Serif" font-size="10.00">override void OnAreaEntered</text>
<text text-anchor="start" x="324" y="-20.5" font-family="Helvetica,sans-Serif" font-size="10.00">(Area2D area)</text>
<polygon fill="#666666" stroke="#666666" points="310,-140 310,-140 463,-140 463,-140 310,-140"/>
<polygon fill="#666666" stroke="#666666" points="310,-124 310,-124 463,-124 463,-124 310,-124"/>
<polygon fill="none" stroke="#666666" points="310,-14 310,-158 463,-158 463,-14 310,-14"/>
</a>
</g>
</g>
<!-- Node1&#45;&gt;Node5 -->
<g id="edge4_Node000001_Node000005" class="edge">
<title>Node1&#45;&gt;Node5</title>
<g id="a_edge4_Node000001_Node000005"><a xlink:title=" ">
<path fill="none" stroke="#63b8ff" d="M466.1,-198.95C456.16,-184.98 446.18,-170.94 436.81,-157.76"/>
<polygon fill="none" stroke="#63b8ff" points="463.09,-200.76 471.74,-206.88 468.79,-196.7 463.09,-200.76"/>
</a>
</g>
</g>
<!-- Node6 -->
<g id="Node000006" class="node">
<title>Node6</title>
<g id="a_Node000006"><a xlink:href="../../df/d1e/class_moon_light.html" target="_top" xlink:title=" ">
<polygon fill="white" stroke="none" points="602,-130 481,-130 481,-42 602,-42 602,-130"/>
<text text-anchor="start" x="519" y="-116.5" font-family="Helvetica,sans-Serif" font-size="10.00">MoonLight</text>
<text text-anchor="start" x="485" y="-100.5" font-family="Helvetica,sans-Serif" font-size="10.00">+</text>
<text text-anchor="start" x="495" y="-100.5" font-family="Helvetica,sans-Serif" font-size="10.00">double boost</text>
<text text-anchor="start" x="485" y="-84.5" font-family="Helvetica,sans-Serif" font-size="10.00">+</text>
<text text-anchor="start" x="495" y="-84.5" font-family="Helvetica,sans-Serif" font-size="10.00">override void Init</text>
<text text-anchor="start" x="495" y="-72.5" font-family="Helvetica,sans-Serif" font-size="10.00">(Attack attack, Vector2</text>
<text text-anchor="start" x="495" y="-60.5" font-family="Helvetica,sans-Serif" font-size="10.00"> playerPosition, Vector2</text>
<text text-anchor="start" x="495" y="-48.5" font-family="Helvetica,sans-Serif" font-size="10.00"> targetPosition)</text>
<polygon fill="#666666" stroke="#666666" points="481,-112 481,-112 602,-112 602,-112 481,-112"/>
<polygon fill="#666666" stroke="#666666" points="481,-96 481,-96 493,-96 493,-96 481,-96"/>
<polygon fill="#666666" stroke="#666666" points="493,-96 493,-96 602,-96 602,-96 493,-96"/>
<polygon fill="none" stroke="#666666" points="481,-42 481,-130 602,-130 602,-42 481,-42"/>
</a>
</g>
</g>
<!-- Node1&#45;&gt;Node6 -->
<g id="edge5_Node000001_Node000006" class="edge">
<title>Node1&#45;&gt;Node6</title>
<g id="a_edge5_Node000001_Node000006"><a xlink:title=" ">
<path fill="none" stroke="#63b8ff" d="M541.5,-196.83C541.5,-173.04 541.5,-149.2 541.5,-129.84"/>
<polygon fill="none" stroke="#63b8ff" points="538,-196.6 541.5,-206.6 545,-196.6 538,-196.6"/>
</a>
</g>
</g>
<!-- Node7 -->
<g id="Node000007" class="node">
<title>Node7</title>
<g id="a_Node000007"><a xlink:href="../../d7/d8d/class_star.html" target="_top" xlink:title=" ">
<polygon fill="white" stroke="none" points="773,-172 620,-172 620,0 773,0 773,-172"/>
<text text-anchor="start" x="687.5" y="-158.5" font-family="Helvetica,sans-Serif" font-size="10.00">Star</text>
<text text-anchor="start" x="624" y="-142.5" font-family="Helvetica,sans-Serif" font-size="10.00">+</text>
<text text-anchor="start" x="634" y="-142.5" font-family="Helvetica,sans-Serif" font-size="10.00">float SPEED</text>
<text text-anchor="start" x="624" y="-126.5" font-family="Helvetica,sans-Serif" font-size="10.00">+</text>
<text text-anchor="start" x="634" y="-126.5" font-family="Helvetica,sans-Serif" font-size="10.00">override void Init</text>
<text text-anchor="start" x="634" y="-114.5" font-family="Helvetica,sans-Serif" font-size="10.00">(Attack attack, Vector2</text>
<text text-anchor="start" x="634" y="-102.5" font-family="Helvetica,sans-Serif" font-size="10.00"> playerPosition, Vector2</text>
<text text-anchor="start" x="634" y="-90.5" font-family="Helvetica,sans-Serif" font-size="10.00"> targetPosition)</text>
<text text-anchor="start" x="624" y="-74.5" font-family="Helvetica,sans-Serif" font-size="10.00">+</text>
<text text-anchor="start" x="634" y="-74.5" font-family="Helvetica,sans-Serif" font-size="10.00">override void _PhysicsProcess</text>
<text text-anchor="start" x="634" y="-62.5" font-family="Helvetica,sans-Serif" font-size="10.00">(double delta)</text>
<text text-anchor="start" x="624" y="-46.5" font-family="Helvetica,sans-Serif" font-size="10.00">+</text>
<text text-anchor="start" x="634" y="-46.5" font-family="Helvetica,sans-Serif" font-size="10.00">override void OnAreaEntered</text>
<text text-anchor="start" x="634" y="-34.5" font-family="Helvetica,sans-Serif" font-size="10.00">(Area2D area)</text>
<text text-anchor="start" x="624" y="-18.5" font-family="Helvetica,sans-Serif" font-size="10.00">+</text>
<text text-anchor="start" x="634" y="-18.5" font-family="Helvetica,sans-Serif" font-size="10.00">void OnBodyEntered</text>
<text text-anchor="start" x="634" y="-6.5" font-family="Helvetica,sans-Serif" font-size="10.00">(Node2D body)</text>
<polygon fill="#666666" stroke="#666666" points="620,-154 620,-154 773,-154 773,-154 620,-154"/>
<polygon fill="#666666" stroke="#666666" points="620,-138 620,-138 632,-138 632,-138 620,-138"/>
<polygon fill="#666666" stroke="#666666" points="632,-138 632,-138 773,-138 773,-138 632,-138"/>
<polygon fill="none" stroke="#666666" points="620,0 620,-172 773,-172 773,0 620,0"/>
</a>
</g>
</g>
<!-- Node1&#45;&gt;Node7 -->
<g id="edge6_Node000001_Node000007" class="edge">
<title>Node1&#45;&gt;Node7</title>
<g id="a_edge6_Node000001_Node000007"><a xlink:title=" ">
<path fill="none" stroke="#63b8ff" d="M617.04,-198.76C623.43,-189.77 629.84,-180.75 636.1,-171.95"/>
<polygon fill="none" stroke="#63b8ff" points="614.21,-196.7 611.26,-206.88 619.91,-200.76 614.21,-196.7"/>
</a>
</g>
</g>
<!-- Node8 -->
<g id="Node000008" class="node">
<title>Node8</title>
<g id="a_Node000008"><a xlink:href="../../d6/d93/class_sun.html" target="_top" xlink:title=" ">
<polygon fill="white" stroke="none" points="960,-172 791,-172 791,0 960,0 960,-172"/>
<text text-anchor="start" x="866.88" y="-158.5" font-family="Helvetica,sans-Serif" font-size="10.00">Sun</text>
<text text-anchor="start" x="874" y="-142.5" font-family="Helvetica,sans-Serif" font-size="10.00"> </text>
<text text-anchor="start" x="795" y="-126.5" font-family="Helvetica,sans-Serif" font-size="10.00">+</text>
<text text-anchor="start" x="805" y="-126.5" font-family="Helvetica,sans-Serif" font-size="10.00">override void Init</text>
<text text-anchor="start" x="805" y="-114.5" font-family="Helvetica,sans-Serif" font-size="10.00">(Attack attack, Vector2</text>
<text text-anchor="start" x="805" y="-102.5" font-family="Helvetica,sans-Serif" font-size="10.00"> playerPosition, Vector2</text>
<text text-anchor="start" x="805" y="-90.5" font-family="Helvetica,sans-Serif" font-size="10.00"> targetPosition)</text>
<text text-anchor="start" x="795" y="-74.5" font-family="Helvetica,sans-Serif" font-size="10.00">+</text>
<text text-anchor="start" x="805" y="-74.5" font-family="Helvetica,sans-Serif" font-size="10.00">override void _PhysicsProcess</text>
<text text-anchor="start" x="805" y="-62.5" font-family="Helvetica,sans-Serif" font-size="10.00">(double delta)</text>
<text text-anchor="start" x="795" y="-46.5" font-family="Helvetica,sans-Serif" font-size="10.00">+</text>
<text text-anchor="start" x="805" y="-46.5" font-family="Helvetica,sans-Serif" font-size="10.00">Attack CalculateAttack</text>
<text text-anchor="start" x="805" y="-34.5" font-family="Helvetica,sans-Serif" font-size="10.00">(double distanceToEnemySquared)</text>
<text text-anchor="start" x="795" y="-18.5" font-family="Helvetica,sans-Serif" font-size="10.00">+</text>
<text text-anchor="start" x="805" y="-18.5" font-family="Helvetica,sans-Serif" font-size="10.00">override void OnAreaEntered</text>
<text text-anchor="start" x="805" y="-6.5" font-family="Helvetica,sans-Serif" font-size="10.00">(Area2D area)</text>
<polygon fill="#666666" stroke="#666666" points="791,-154 791,-154 960,-154 960,-154 791,-154"/>
<polygon fill="#666666" stroke="#666666" points="791,-138 791,-138 960,-138 960,-138 791,-138"/>
<polygon fill="none" stroke="#666666" points="791,0 791,-172 960,-172 960,0 791,0"/>
</a>
</g>
</g>
<!-- Node1&#45;&gt;Node8 -->
<g id="edge7_Node000001_Node000008" class="edge">
<title>Node1&#45;&gt;Node8</title>
<g id="a_edge7_Node000001_Node000008"><a xlink:title=" ">
<path fill="none" stroke="#63b8ff" d="M628.55,-263.29C675.74,-239.15 734.12,-206.71 782.5,-172 785.34,-169.96 788.19,-167.84 791.04,-165.67"/>
<polygon fill="none" stroke="#63b8ff" points="627.04,-260.14 619.71,-267.78 630.21,-266.38 627.04,-260.14"/>
</a>
</g>
</g>
<!-- Node9 -->
<g id="Node000009" class="node">
<title>Node9</title>
<g id="a_Node000009"><a xlink:href="../../d5/d00/class_sun_beam.html" target="_top" xlink:title=" ">
<polygon fill="white" stroke="none" points="1099,-130 978,-130 978,-42 1099,-42 1099,-130"/>
<text text-anchor="start" x="1017.12" y="-116.5" font-family="Helvetica,sans-Serif" font-size="10.00">SunBeam</text>
<text text-anchor="start" x="1037" y="-100.5" font-family="Helvetica,sans-Serif" font-size="10.00"> </text>
<text text-anchor="start" x="982" y="-84.5" font-family="Helvetica,sans-Serif" font-size="10.00">+</text>
<text text-anchor="start" x="992" y="-84.5" font-family="Helvetica,sans-Serif" font-size="10.00">override void Init</text>
<text text-anchor="start" x="992" y="-72.5" font-family="Helvetica,sans-Serif" font-size="10.00">(Attack attack, Vector2</text>
<text text-anchor="start" x="992" y="-60.5" font-family="Helvetica,sans-Serif" font-size="10.00"> playerPosition, Vector2</text>
<text text-anchor="start" x="992" y="-48.5" font-family="Helvetica,sans-Serif" font-size="10.00"> targetPosition)</text>
<polygon fill="#666666" stroke="#666666" points="978,-112 978,-112 1099,-112 1099,-112 978,-112"/>
<polygon fill="#666666" stroke="#666666" points="978,-96 978,-96 1099,-96 1099,-96 978,-96"/>
<polygon fill="none" stroke="#666666" points="978,-42 978,-130 1099,-130 1099,-42 978,-42"/>
</a>
</g>
</g>
<!-- Node1&#45;&gt;Node9 -->
<g id="edge8_Node000001_Node000009" class="edge">
<title>Node1&#45;&gt;Node9</title>
<g id="a_edge8_Node000001_Node000009"><a xlink:title=" ">
<path fill="none" stroke="#63b8ff" d="M629.62,-293.02C721.04,-277.25 864.97,-242.77 969.5,-172 985.87,-160.92 1000.33,-144.81 1011.72,-129.59"/>
<polygon fill="none" stroke="#63b8ff" points="629.24,-289.54 619.96,-294.65 630.4,-296.44 629.24,-289.54"/>
</a>
</g>
</g>
<!-- Node2 -->
<g id="Node000002" class="node">
<title>Node2</title>
<g id="a_Node000002"><a xlink:href="../../dc/df8/class_area2_d.html" target="_top" xlink:title=" ">
<polygon fill="white" stroke="none" points="563,-492 520,-492 520,-440 563,-440 563,-492"/>
<text text-anchor="start" x="525" y="-478.5" font-family="Helvetica,sans-Serif" font-size="10.00">Area2D</text>
<text text-anchor="start" x="540" y="-462.5" font-family="Helvetica,sans-Serif" font-size="10.00"> </text>
<text text-anchor="start" x="540" y="-446.5" font-family="Helvetica,sans-Serif" font-size="10.00"> </text>
<polygon fill="#666666" stroke="#666666" points="520,-474 520,-474 563,-474 563,-474 520,-474"/>
<polygon fill="#666666" stroke="#666666" points="520,-458 520,-458 563,-458 563,-458 520,-458"/>
<polygon fill="none" stroke="#666666" points="520,-440 520,-492 563,-492 563,-440 520,-440"/>
</a>
</g>
</g>
<!-- Node2&#45;&gt;Node1 -->
<g id="edge1_Node000001_Node000002" class="edge">
<title>Node2&#45;&gt;Node1</title>
<g id="a_edge1_Node000001_Node000002"><a xlink:title=" ">
<path fill="none" stroke="#63b8ff" d="M541.5,-428.88C541.5,-421.15 541.5,-412.63 541.5,-403.8"/>
<polygon fill="none" stroke="#63b8ff" points="538,-428.8 541.5,-438.8 545,-428.8 538,-428.8"/>
</a>
</g>
</g>
</g>
</svg>
