<?xml version="1.0" encoding="UTF-8" standalone="no"?>
<!DOCTYPE svg PUBLIC "-//W3C//DTD SVG 1.1//EN"
 "http://www.w3.org/Graphics/SVG/1.1/DTD/svg11.dtd">
<!-- Generated by graphviz version 12.1.0 (20240811.2233)
 -->
<!-- Title: UnicornWait Pages: 1 -->
<svg width="257pt" height="492pt"
 viewBox="0.00 0.00 256.53 492.00" xmlns="http://www.w3.org/2000/svg" xmlns:xlink="http://www.w3.org/1999/xlink">
<g id="graph0" class="graph" transform="scale(1 1) rotate(0) translate(4 488)">
<title>UnicornWait</title>
<!-- Node1 -->
<g id="Node000001" class="node">
<title>Node1</title>
<g id="a_Node000001"><a xlink:title=" ">
<polygon fill="#999999" stroke="none" points="197.5,-128 35.5,-128 35.5,0 197.5,0 197.5,-128"/>
<text text-anchor="start" x="89.88" y="-114.5" font-family="Helvetica,sans-Serif" font-size="10.00">UnicornWait</text>
<text text-anchor="start" x="115" y="-98.5" font-family="Helvetica,sans-Serif" font-size="10.00"> </text>
<text text-anchor="start" x="39.5" y="-82.5" font-family="Helvetica,sans-Serif" font-size="10.00">+</text>
<text text-anchor="start" x="49.5" y="-82.5" font-family="Helvetica,sans-Serif" font-size="10.00">override void _Ready()</text>
<text text-anchor="start" x="39.5" y="-66.5" font-family="Helvetica,sans-Serif" font-size="10.00">+</text>
<text text-anchor="start" x="49.5" y="-66.5" font-family="Helvetica,sans-Serif" font-size="10.00">override void Enter()</text>
<text text-anchor="start" x="39.5" y="-50.5" font-family="Helvetica,sans-Serif" font-size="10.00">+</text>
<text text-anchor="start" x="49.5" y="-50.5" font-family="Helvetica,sans-Serif" font-size="10.00">override void Exit()</text>
<text text-anchor="start" x="39.5" y="-34.5" font-family="Helvetica,sans-Serif" font-size="10.00">+</text>
<text text-anchor="start" x="49.5" y="-34.5" font-family="Helvetica,sans-Serif" font-size="10.00">override State ProcessPhysics</text>
<text text-anchor="start" x="49.5" y="-22.5" font-family="Helvetica,sans-Serif" font-size="10.00">(double delta)</text>
<text text-anchor="start" x="39.5" y="-6.5" font-family="Helvetica,sans-Serif" font-size="10.00">+</text>
<text text-anchor="start" x="49.5" y="-6.5" font-family="Helvetica,sans-Serif" font-size="10.00">override void UpdateAnimations()</text>
<polygon fill="#666666" stroke="#666666" points="35.5,-110 35.5,-110 197.5,-110 197.5,-110 35.5,-110"/>
<polygon fill="#666666" stroke="#666666" points="35.5,-94 35.5,-94 197.5,-94 197.5,-94 35.5,-94"/>
<polygon fill="none" stroke="#666666" points="35.5,0 35.5,-128 197.5,-128 197.5,0 35.5,0"/>
</a>
</g>
</g>
<!-- Node2 -->
<g id="Node000002" class="node">
<title>Node2</title>
<g id="a_Node000002"><a xlink:href="../../d0/d8b/class_state.html" target="_top" xlink:title=" ">
<polygon fill="white" stroke="none" points="172.5,-384 18.5,-384 18.5,-200 172.5,-200 172.5,-384"/>
<text text-anchor="start" x="83.88" y="-370.5" font-family="Helvetica,sans-Serif" font-size="10.00">State</text>
<text text-anchor="start" x="94" y="-354.5" font-family="Helvetica,sans-Serif" font-size="10.00"> </text>
<text text-anchor="start" x="22.5" y="-338.5" font-family="Helvetica,sans-Serif" font-size="10.00">+</text>
<text text-anchor="start" x="32.5" y="-338.5" font-family="Helvetica,sans-Serif" font-size="10.00">virtual bool CanEnter()</text>
<text text-anchor="start" x="22.5" y="-322.5" font-family="Helvetica,sans-Serif" font-size="10.00">+</text>
<text text-anchor="start" x="32.5" y="-322.5" font-family="Helvetica,sans-Serif" font-size="10.00">virtual void Enter()</text>
<text text-anchor="start" x="22.5" y="-306.5" font-family="Helvetica,sans-Serif" font-size="10.00">+</text>
<text text-anchor="start" x="32.5" y="-306.5" font-family="Helvetica,sans-Serif" font-size="10.00">virtual void Exit()</text>
<text text-anchor="start" x="22.5" y="-290.5" font-family="Helvetica,sans-Serif" font-size="10.00">+</text>
<text text-anchor="start" x="32.5" y="-290.5" font-family="Helvetica,sans-Serif" font-size="10.00">virtual State ProcessInput</text>
<text text-anchor="start" x="32.5" y="-278.5" font-family="Helvetica,sans-Serif" font-size="10.00">(InputEvent @event)</text>
<text text-anchor="start" x="22.5" y="-262.5" font-family="Helvetica,sans-Serif" font-size="10.00">+</text>
<text text-anchor="start" x="32.5" y="-262.5" font-family="Helvetica,sans-Serif" font-size="10.00">virtual State ProcessFrame</text>
<text text-anchor="start" x="32.5" y="-250.5" font-family="Helvetica,sans-Serif" font-size="10.00">(double delta)</text>
<text text-anchor="start" x="22.5" y="-234.5" font-family="Helvetica,sans-Serif" font-size="10.00">+</text>
<text text-anchor="start" x="32.5" y="-234.5" font-family="Helvetica,sans-Serif" font-size="10.00">virtual State ProcessPhysics</text>
<text text-anchor="start" x="32.5" y="-222.5" font-family="Helvetica,sans-Serif" font-size="10.00">(double delta)</text>
<text text-anchor="start" x="22.5" y="-206.5" font-family="Helvetica,sans-Serif" font-size="10.00">+</text>
<text text-anchor="start" x="32.5" y="-206.5" font-family="Helvetica,sans-Serif" font-size="10.00">virtual void UpdateAnimations()</text>
<polygon fill="#666666" stroke="#666666" points="18.5,-366 18.5,-366 172.5,-366 172.5,-366 18.5,-366"/>
<polygon fill="#666666" stroke="#666666" points="18.5,-350 18.5,-350 172.5,-350 172.5,-350 18.5,-350"/>
<polygon fill="none" stroke="#666666" points="18.5,-200 18.5,-384 172.5,-384 172.5,-200 18.5,-200"/>
</a>
</g>
</g>
<!-- Node2&#45;&gt;Node1 -->
<g id="edge1_Node000001_Node000002" class="edge">
<title>Node2&#45;&gt;Node1</title>
<g id="a_edge1_Node000001_Node000002"><a xlink:title=" ">
<path fill="none" stroke="#63b8ff" d="M94.14,-188.8C94.75,-174.4 95.81,-159.8 97.5,-146 98.22,-140.12 99.2,-134.05 100.33,-127.99"/>
<polygon fill="none" stroke="#63b8ff" points="90.64,-188.67 93.79,-198.78 97.63,-188.91 90.64,-188.67"/>
</a>
</g>
</g>
<!-- Node2&#45;&gt;Node1 -->
<g id="edge5_Node000001_Node000002" class="edge">
<title>Node2&#45;&gt;Node1</title>
<g id="a_edge5_Node000001_Node000002"><a xlink:title=" ">
<path fill="none" stroke="#63b8ff" d="M103.95,-200.05C105.78,-180.32 107.7,-159.66 109.48,-140.59"/>
<polygon fill="none" stroke="#63b8ff" points="109.48,-140.53 106.05,-134.18 110.59,-128.58 114.02,-134.92 109.48,-140.53"/>
</a>
</g>
<text text-anchor="middle" x="146.37" y="-172.5" font-family="Helvetica,sans-Serif" font-size="10.00" fill="grey"> +ChargeAttack</text>
<text text-anchor="middle" x="146.37" y="-160.5" font-family="Helvetica,sans-Serif" font-size="10.00" fill="grey">+ShootingAttack</text>
<text text-anchor="middle" x="146.37" y="-148.5" font-family="Helvetica,sans-Serif" font-size="10.00" fill="grey">+StompingAttack</text>
</g>
<!-- Node3 -->
<g id="Node000003" class="node">
<title>Node3</title>
<g id="a_Node000003"><a xlink:href="../../dc/d8f/class_node.html" target="_top" xlink:title=" ">
<polygon fill="white" stroke="none" points="33,-484 0,-484 0,-432 33,-432 33,-484"/>
<text text-anchor="start" x="4.88" y="-470.5" font-family="Helvetica,sans-Serif" font-size="10.00">Node</text>
<text text-anchor="start" x="15" y="-454.5" font-family="Helvetica,sans-Serif" font-size="10.00"> </text>
<text text-anchor="start" x="15" y="-438.5" font-family="Helvetica,sans-Serif" font-size="10.00"> </text>
<polygon fill="#666666" stroke="#666666" points="0,-466 0,-466 33,-466 33,-466 0,-466"/>
<polygon fill="#666666" stroke="#666666" points="0,-450 0,-450 33,-450 33,-450 0,-450"/>
<polygon fill="none" stroke="#666666" points="0,-432 0,-484 33,-484 33,-432 0,-432"/>
</a>
</g>
</g>
<!-- Node3&#45;&gt;Node2 -->
<g id="edge2_Node000002_Node000003" class="edge">
<title>Node3&#45;&gt;Node2</title>
<g id="a_edge2_Node000002_Node000003"><a xlink:title=" ">
<path fill="none" stroke="#63b8ff" d="M33.45,-421.81C38.92,-410.46 45.25,-397.31 51.74,-383.84"/>
<polygon fill="none" stroke="#63b8ff" points="30.34,-420.2 29.16,-430.73 36.65,-423.24 30.34,-420.2"/>
</a>
</g>
</g>
<!-- Node4 -->
<g id="Node000004" class="node">
<title>Node4</title>
<g id="a_Node000004"><a xlink:title=" ">
<polygon fill="white" stroke="none" points="139.5,-484 51.5,-484 51.5,-432 139.5,-432 139.5,-484"/>
<text text-anchor="start" x="56.5" y="-470.5" font-family="Helvetica,sans-Serif" font-size="10.00">CharacterBody2D</text>
<text text-anchor="start" x="94" y="-454.5" font-family="Helvetica,sans-Serif" font-size="10.00"> </text>
<text text-anchor="start" x="94" y="-438.5" font-family="Helvetica,sans-Serif" font-size="10.00"> </text>
<polygon fill="#666666" stroke="#666666" points="51.5,-466 51.5,-466 139.5,-466 139.5,-466 51.5,-466"/>
<polygon fill="#666666" stroke="#666666" points="51.5,-450 51.5,-450 139.5,-450 139.5,-450 51.5,-450"/>
<polygon fill="none" stroke="#666666" points="51.5,-432 51.5,-484 139.5,-484 139.5,-432 51.5,-432"/>
</a>
</g>
</g>
<!-- Node4&#45;&gt;Node2 -->
<g id="edge3_Node000002_Node000004" class="edge">
<title>Node4&#45;&gt;Node2</title>
<g id="a_edge3_Node000002_Node000004"><a xlink:title=" ">
<path fill="none" stroke="#63b8ff" d="M95.5,-432.09C95.5,-422.04 95.5,-409.72 95.5,-396.61"/>
<polygon fill="none" stroke="#63b8ff" points="95.5,-396.74 91.5,-390.74 95.5,-384.74 99.5,-390.74 95.5,-396.74"/>
</a>
</g>
<text text-anchor="middle" x="114.25" y="-404.5" font-family="Helvetica,sans-Serif" font-size="10.00" fill="grey"> +Parent</text>
</g>
<!-- Node5 -->
<g id="Node000005" class="node">
<title>Node5</title>
<g id="a_Node000005"><a xlink:title=" ">
<polygon fill="white" stroke="none" points="239,-484 158,-484 158,-432 239,-432 239,-484"/>
<text text-anchor="start" x="162.88" y="-470.5" font-family="Helvetica,sans-Serif" font-size="10.00">AnimationPlayer</text>
<text text-anchor="start" x="197" y="-454.5" font-family="Helvetica,sans-Serif" font-size="10.00"> </text>
<text text-anchor="start" x="197" y="-438.5" font-family="Helvetica,sans-Serif" font-size="10.00"> </text>
<polygon fill="#666666" stroke="#666666" points="158,-466 158,-466 239,-466 239,-466 158,-466"/>
<polygon fill="#666666" stroke="#666666" points="158,-450 158,-450 239,-450 239,-450 158,-450"/>
<polygon fill="none" stroke="#666666" points="158,-432 158,-484 239,-484 239,-432 158,-432"/>
</a>
</g>
</g>
<!-- Node5&#45;&gt;Node2 -->
<g id="edge4_Node000002_Node000005" class="edge">
<title>Node5&#45;&gt;Node2</title>
<g id="a_edge4_Node000002_Node000005"><a xlink:title=" ">
<path fill="none" stroke="#63b8ff" d="M182.86,-432.09C176.22,-421.52 168,-408.44 159.29,-394.57"/>
<polygon fill="none" stroke="#63b8ff" points="159.41,-394.76 152.83,-391.81 153.03,-384.6 159.61,-387.55 159.41,-394.76"/>
</a>
</g>
<text text-anchor="middle" x="199.75" y="-404.5" font-family="Helvetica,sans-Serif" font-size="10.00" fill="grey"> +Animations</text>
</g>
<!-- Node6 -->
<g id="Node000006" class="node">
<title>Node6</title>
<g id="a_Node000006"><a xlink:title=" ">
<polygon fill="white" stroke="none" points="229.5,-318 201.5,-318 201.5,-266 229.5,-266 229.5,-318"/>
<text text-anchor="start" x="206.12" y="-304.5" font-family="Helvetica,sans-Serif" font-size="10.00">float</text>
<text text-anchor="start" x="214" y="-288.5" font-family="Helvetica,sans-Serif" font-size="10.00"> </text>
<text text-anchor="start" x="214" y="-272.5" font-family="Helvetica,sans-Serif" font-size="10.00"> </text>
<polygon fill="#666666" stroke="#666666" points="201.5,-300 201.5,-300 229.5,-300 229.5,-300 201.5,-300"/>
<polygon fill="#666666" stroke="#666666" points="201.5,-284 201.5,-284 229.5,-284 229.5,-284 201.5,-284"/>
<polygon fill="none" stroke="#666666" points="201.5,-266 201.5,-318 229.5,-318 229.5,-266 201.5,-266"/>
</a>
</g>
</g>
<!-- Node6&#45;&gt;Node1 -->
<g id="edge6_Node000001_Node000006" class="edge">
<title>Node6&#45;&gt;Node1</title>
<g id="a_edge6_Node000001_Node000006"><a xlink:title=" ">
<path fill="none" stroke="#63b8ff" d="M214.89,-266.14C213.27,-236.21 207.64,-185.09 188.5,-146 187.3,-143.56 186.01,-141.13 184.64,-138.73"/>
<polygon fill="none" stroke="#63b8ff" points="184.57,-138.61 177.99,-135.66 178.18,-128.45 184.76,-131.4 184.57,-138.61"/>
</a>
</g>
<text text-anchor="middle" x="224.9" y="-166.5" font-family="Helvetica,sans-Serif" font-size="10.00" fill="grey"> +SPEED</text>
<text text-anchor="middle" x="224.9" y="-154.5" font-family="Helvetica,sans-Serif" font-size="10.00" fill="grey">+WaitTime</text>
</g>
</g>
</svg>
