<?xml version="1.0" encoding="UTF-8" standalone="no"?>
<!DOCTYPE svg PUBLIC "-//W3C//DTD SVG 1.1//EN"
 "http://www.w3.org/Graphics/SVG/1.1/DTD/svg11.dtd">
<!-- Generated by graphviz version 12.1.0 (20240811.2233)
 -->
<!-- Title: BaseMenu Pages: 1 -->
<svg width="660pt" height="380pt"
 viewBox="0.00 0.00 660.00 380.00" xmlns="http://www.w3.org/2000/svg" xmlns:xlink="http://www.w3.org/1999/xlink">
<g id="graph0" class="graph" transform="scale(1 1) rotate(0) translate(4 376)">
<title>BaseMenu</title>
<!-- Node1 -->
<g id="Node000001" class="node">
<title>Node1</title>
<g id="a_Node000001"><a xlink:title=" ">
<polygon fill="#999999" stroke="none" points="409,-284 243,-284 243,-116 409,-116 409,-284"/>
<text text-anchor="start" x="302.75" y="-270.5" font-family="Helvetica,sans-Serif" font-size="10.00">BaseMenu</text>
<text text-anchor="start" x="247" y="-254.5" font-family="Helvetica,sans-Serif" font-size="10.00">+</text>
<text text-anchor="start" x="257" y="-254.5" font-family="Helvetica,sans-Serif" font-size="10.00">MenuManager.MenuType</text>
<text text-anchor="start" x="257" y="-242.5" font-family="Helvetica,sans-Serif" font-size="10.00"> MenuType</text>
<text text-anchor="start" x="247.38" y="-226.5" font-family="Helvetica,sans-Serif" font-size="10.00">#</text>
<text text-anchor="start" x="257" y="-226.5" font-family="Helvetica,sans-Serif" font-size="10.00">MenuManager MenuManager</text>
<text text-anchor="start" x="247" y="-210.5" font-family="Helvetica,sans-Serif" font-size="10.00">+</text>
<text text-anchor="start" x="257" y="-210.5" font-family="Helvetica,sans-Serif" font-size="10.00">override void _Ready()</text>
<text text-anchor="start" x="247" y="-194.5" font-family="Helvetica,sans-Serif" font-size="10.00">+</text>
<text text-anchor="start" x="257" y="-194.5" font-family="Helvetica,sans-Serif" font-size="10.00">void PushMenu(MenuManager.</text>
<text text-anchor="start" x="257" y="-182.5" font-family="Helvetica,sans-Serif" font-size="10.00">MenuType newMenu)</text>
<text text-anchor="start" x="247" y="-166.5" font-family="Helvetica,sans-Serif" font-size="10.00">+</text>
<text text-anchor="start" x="257" y="-166.5" font-family="Helvetica,sans-Serif" font-size="10.00">void PopMenu()</text>
<text text-anchor="start" x="247" y="-150.5" font-family="Helvetica,sans-Serif" font-size="10.00">+</text>
<text text-anchor="start" x="257" y="-150.5" font-family="Helvetica,sans-Serif" font-size="10.00">void SetRootMenu(MenuManager.</text>
<text text-anchor="start" x="257" y="-138.5" font-family="Helvetica,sans-Serif" font-size="10.00">MenuType newMenu)</text>
<text text-anchor="start" x="247.38" y="-122.5" font-family="Helvetica,sans-Serif" font-size="10.00">#</text>
<text text-anchor="start" x="257" y="-122.5" font-family="Helvetica,sans-Serif" font-size="10.00">virtual void SetupMenu()</text>
<polygon fill="#666666" stroke="#666666" points="243,-266 243,-266 409,-266 409,-266 243,-266"/>
<polygon fill="#666666" stroke="#666666" points="243,-222 243,-222 255,-222 255,-222 243,-222"/>
<polygon fill="#666666" stroke="#666666" points="255,-222 255,-222 409,-222 409,-222 255,-222"/>
<polygon fill="none" stroke="#666666" points="243,-116 243,-284 409,-284 409,-116 243,-116"/>
</a>
</g>
</g>
<!-- Node3 -->
<g id="Node000003" class="node">
<title>Node3</title>
<g id="a_Node000003"><a xlink:href="../../df/d8a/class_main_game.html" target="_top" xlink:title=" ">
<polygon fill="white" stroke="none" points="116,-80 0,-80 0,0 116,0 116,-80"/>
<text text-anchor="start" x="34.38" y="-66.5" font-family="Helvetica,sans-Serif" font-size="10.00">MainGame</text>
<text text-anchor="start" x="56.5" y="-50.5" font-family="Helvetica,sans-Serif" font-size="10.00"> </text>
<text text-anchor="start" x="4" y="-34.5" font-family="Helvetica,sans-Serif" font-size="10.00">+</text>
<text text-anchor="start" x="14" y="-34.5" font-family="Helvetica,sans-Serif" font-size="10.00">override void _Ready()</text>
<text text-anchor="start" x="4" y="-18.5" font-family="Helvetica,sans-Serif" font-size="10.00">+</text>
<text text-anchor="start" x="14" y="-18.5" font-family="Helvetica,sans-Serif" font-size="10.00">override void _Input</text>
<text text-anchor="start" x="14" y="-6.5" font-family="Helvetica,sans-Serif" font-size="10.00">(InputEvent @event)</text>
<polygon fill="#666666" stroke="#666666" points="0,-62 0,-62 116,-62 116,-62 0,-62"/>
<polygon fill="#666666" stroke="#666666" points="0,-46 0,-46 116,-46 116,-46 0,-46"/>
<polygon fill="none" stroke="#666666" points="0,0 0,-80 116,-80 116,0 0,0"/>
</a>
</g>
</g>
<!-- Node1&#45;&gt;Node3 -->
<g id="edge2_Node000001_Node000003" class="edge">
<title>Node1&#45;&gt;Node3</title>
<g id="a_edge2_Node000001_Node000003"><a xlink:title=" ">
<path fill="none" stroke="#63b8ff" d="M233.25,-144.32C194.29,-121.35 150.17,-95.34 115.95,-75.16"/>
<polygon fill="none" stroke="#63b8ff" points="231.34,-147.26 241.73,-149.32 234.9,-141.23 231.34,-147.26"/>
</a>
</g>
</g>
<!-- Node4 -->
<g id="Node000004" class="node">
<title>Node4</title>
<g id="a_Node000004"><a xlink:href="../../d0/d9f/class_main_hub.html" target="_top" xlink:title=" ">
<polygon fill="white" stroke="none" points="250,-66 134,-66 134,-14 250,-14 250,-66"/>
<text text-anchor="start" x="172.5" y="-52.5" font-family="Helvetica,sans-Serif" font-size="10.00">MainHub</text>
<text text-anchor="start" x="190.5" y="-36.5" font-family="Helvetica,sans-Serif" font-size="10.00"> </text>
<text text-anchor="start" x="138" y="-20.5" font-family="Helvetica,sans-Serif" font-size="10.00">+</text>
<text text-anchor="start" x="148" y="-20.5" font-family="Helvetica,sans-Serif" font-size="10.00">override void _Ready()</text>
<polygon fill="#666666" stroke="#666666" points="134,-48 134,-48 250,-48 250,-48 134,-48"/>
<polygon fill="#666666" stroke="#666666" points="134,-32 134,-32 250,-32 250,-32 134,-32"/>
<polygon fill="none" stroke="#666666" points="134,-14 134,-66 250,-66 250,-14 134,-14"/>
</a>
</g>
</g>
<!-- Node1&#45;&gt;Node4 -->
<g id="edge3_Node000001_Node000004" class="edge">
<title>Node1&#45;&gt;Node4</title>
<g id="a_edge3_Node000001_Node000004"><a xlink:title=" ">
<path fill="none" stroke="#63b8ff" d="M248.59,-107.72C235.57,-92.38 223.1,-77.67 213.19,-65.98"/>
<polygon fill="none" stroke="#63b8ff" points="245.74,-109.78 254.88,-115.14 251.08,-105.25 245.74,-109.78"/>
</a>
</g>
</g>
<!-- Node5 -->
<g id="Node000005" class="node">
<title>Node5</title>
<g id="a_Node000005"><a xlink:href="../../d4/d04/class_main_menu.html" target="_top" xlink:title=" ">
<polygon fill="white" stroke="none" points="384,-66 268,-66 268,-14 384,-14 384,-66"/>
<text text-anchor="start" x="303.5" y="-52.5" font-family="Helvetica,sans-Serif" font-size="10.00">MainMenu</text>
<text text-anchor="start" x="324.5" y="-36.5" font-family="Helvetica,sans-Serif" font-size="10.00"> </text>
<text text-anchor="start" x="272" y="-20.5" font-family="Helvetica,sans-Serif" font-size="10.00">+</text>
<text text-anchor="start" x="282" y="-20.5" font-family="Helvetica,sans-Serif" font-size="10.00">override void _Ready()</text>
<polygon fill="#666666" stroke="#666666" points="268,-48 268,-48 384,-48 384,-48 268,-48"/>
<polygon fill="#666666" stroke="#666666" points="268,-32 268,-32 384,-32 384,-32 268,-32"/>
<polygon fill="none" stroke="#666666" points="268,-14 268,-66 384,-66 384,-14 268,-14"/>
</a>
</g>
</g>
<!-- Node1&#45;&gt;Node5 -->
<g id="edge4_Node000001_Node000005" class="edge">
<title>Node1&#45;&gt;Node5</title>
<g id="a_edge4_Node000001_Node000005"><a xlink:title=" ">
<path fill="none" stroke="#63b8ff" d="M326,-105.17C326,-90.75 326,-77.02 326,-65.98"/>
<polygon fill="none" stroke="#63b8ff" points="322.5,-104.78 326,-114.78 329.5,-104.78 322.5,-104.78"/>
</a>
</g>
</g>
<!-- Node6 -->
<g id="Node000006" class="node">
<title>Node6</title>
<g id="a_Node000006"><a xlink:href="../../d4/de5/class_pause_menu.html" target="_top" xlink:title=" ">
<polygon fill="white" stroke="none" points="518,-80 402,-80 402,0 518,0 518,-80"/>
<text text-anchor="start" x="434.12" y="-66.5" font-family="Helvetica,sans-Serif" font-size="10.00">PauseMenu</text>
<text text-anchor="start" x="458.5" y="-50.5" font-family="Helvetica,sans-Serif" font-size="10.00"> </text>
<text text-anchor="start" x="406" y="-34.5" font-family="Helvetica,sans-Serif" font-size="10.00">+</text>
<text text-anchor="start" x="416" y="-34.5" font-family="Helvetica,sans-Serif" font-size="10.00">override void _Ready()</text>
<text text-anchor="start" x="406" y="-18.5" font-family="Helvetica,sans-Serif" font-size="10.00">+</text>
<text text-anchor="start" x="416" y="-18.5" font-family="Helvetica,sans-Serif" font-size="10.00">override void _Input</text>
<text text-anchor="start" x="416" y="-6.5" font-family="Helvetica,sans-Serif" font-size="10.00">(InputEvent @event)</text>
<polygon fill="#666666" stroke="#666666" points="402,-62 402,-62 518,-62 518,-62 402,-62"/>
<polygon fill="#666666" stroke="#666666" points="402,-46 402,-46 518,-46 518,-46 402,-46"/>
<polygon fill="none" stroke="#666666" points="402,0 402,-80 518,-80 518,0 402,0"/>
</a>
</g>
</g>
<!-- Node1&#45;&gt;Node6 -->
<g id="edge5_Node000001_Node000006" class="edge">
<title>Node1&#45;&gt;Node6</title>
<g id="a_edge5_Node000001_Node000006"><a xlink:title=" ">
<path fill="none" stroke="#63b8ff" d="M403.43,-107.71C411.67,-97.99 419.7,-88.52 426.99,-79.92"/>
<polygon fill="none" stroke="#63b8ff" points="400.92,-105.25 397.12,-115.14 406.26,-109.78 400.92,-105.25"/>
</a>
</g>
</g>
<!-- Node7 -->
<g id="Node000007" class="node">
<title>Node7</title>
<g id="a_Node000007"><a xlink:href="../../d4/d94/class_settings_menu.html" target="_top" xlink:title=" ">
<polygon fill="white" stroke="none" points="652,-66 536,-66 536,-14 652,-14 652,-66"/>
<text text-anchor="start" x="564" y="-52.5" font-family="Helvetica,sans-Serif" font-size="10.00">SettingsMenu</text>
<text text-anchor="start" x="592.5" y="-36.5" font-family="Helvetica,sans-Serif" font-size="10.00"> </text>
<text text-anchor="start" x="540" y="-20.5" font-family="Helvetica,sans-Serif" font-size="10.00">+</text>
<text text-anchor="start" x="550" y="-20.5" font-family="Helvetica,sans-Serif" font-size="10.00">override void _Ready()</text>
<polygon fill="#666666" stroke="#666666" points="536,-48 536,-48 652,-48 652,-48 536,-48"/>
<polygon fill="#666666" stroke="#666666" points="536,-32 536,-32 652,-32 652,-32 536,-32"/>
<polygon fill="none" stroke="#666666" points="536,-14 536,-66 652,-66 652,-14 536,-14"/>
</a>
</g>
</g>
<!-- Node1&#45;&gt;Node7 -->
<g id="edge6_Node000001_Node000007" class="edge">
<title>Node1&#45;&gt;Node7</title>
<g id="a_edge6_Node000001_Node000007"><a xlink:title=" ">
<path fill="none" stroke="#63b8ff" d="M418.8,-144.29C464.06,-117.61 516.26,-86.83 551.83,-65.86"/>
<polygon fill="none" stroke="#63b8ff" points="417.1,-141.23 410.27,-149.32 420.66,-147.26 417.1,-141.23"/>
</a>
</g>
</g>
<!-- Node2 -->
<g id="Node000002" class="node">
<title>Node2</title>
<g id="a_Node000002"><a xlink:href="../../d4/dc3/class_canvas_layer.html" target="_top" xlink:title=" ">
<polygon fill="white" stroke="none" points="359.5,-372 292.5,-372 292.5,-320 359.5,-320 359.5,-372"/>
<text text-anchor="start" x="297.12" y="-358.5" font-family="Helvetica,sans-Serif" font-size="10.00">CanvasLayer</text>
<text text-anchor="start" x="324.5" y="-342.5" font-family="Helvetica,sans-Serif" font-size="10.00"> </text>
<text text-anchor="start" x="324.5" y="-326.5" font-family="Helvetica,sans-Serif" font-size="10.00"> </text>
<polygon fill="#666666" stroke="#666666" points="292.5,-354 292.5,-354 359.5,-354 359.5,-354 292.5,-354"/>
<polygon fill="#666666" stroke="#666666" points="292.5,-338 292.5,-338 359.5,-338 359.5,-338 292.5,-338"/>
<polygon fill="none" stroke="#666666" points="292.5,-320 292.5,-372 359.5,-372 359.5,-320 292.5,-320"/>
</a>
</g>
</g>
<!-- Node2&#45;&gt;Node1 -->
<g id="edge1_Node000001_Node000002" class="edge">
<title>Node2&#45;&gt;Node1</title>
<g id="a_edge1_Node000001_Node000002"><a xlink:title=" ">
<path fill="none" stroke="#63b8ff" d="M326,-308.79C326,-301.07 326,-292.61 326,-283.94"/>
<polygon fill="none" stroke="#63b8ff" points="322.5,-308.73 326,-318.73 329.5,-308.73 322.5,-308.73"/>
</a>
</g>
</g>
</g>
</svg>
