<?xml version="1.0" encoding="UTF-8" standalone="no"?>
<!DOCTYPE svg PUBLIC "-//W3C//DTD SVG 1.1//EN"
 "http://www.w3.org/Graphics/SVG/1.1/DTD/svg11.dtd">
<!-- Generated by graphviz version 12.1.0 (20240811.2233)
 -->
<!-- Title: BaseMenu Pages: 1 -->
<svg width="1283pt" height="428pt"
 viewBox="0.00 0.00 1282.50 428.00" xmlns="http://www.w3.org/2000/svg" xmlns:xlink="http://www.w3.org/1999/xlink">
<g id="graph0" class="graph" transform="scale(1 1) rotate(0) translate(4 424)">
<title>BaseMenu</title>
<!-- Node1 -->
<g id="Node000001" class="node">
<title>Node1</title>
<g id="a_Node000001"><a xlink:title=" ">
<polygon fill="#999999" stroke="none" points="703.5,-332 537.5,-332 537.5,-164 703.5,-164 703.5,-332"/>
<text text-anchor="start" x="597.25" y="-318.5" font-family="Helvetica,sans-Serif" font-size="10.00">BaseMenu</text>
<text text-anchor="start" x="541.5" y="-302.5" font-family="Helvetica,sans-Serif" font-size="10.00">+</text>
<text text-anchor="start" x="551.5" y="-302.5" font-family="Helvetica,sans-Serif" font-size="10.00">MenuManager.MenuType</text>
<text text-anchor="start" x="551.5" y="-290.5" font-family="Helvetica,sans-Serif" font-size="10.00"> MenuType</text>
<text text-anchor="start" x="541.88" y="-274.5" font-family="Helvetica,sans-Serif" font-size="10.00">#</text>
<text text-anchor="start" x="551.5" y="-274.5" font-family="Helvetica,sans-Serif" font-size="10.00">MenuManager MenuManager</text>
<text text-anchor="start" x="541.5" y="-258.5" font-family="Helvetica,sans-Serif" font-size="10.00">+</text>
<text text-anchor="start" x="551.5" y="-258.5" font-family="Helvetica,sans-Serif" font-size="10.00">override void _Ready()</text>
<text text-anchor="start" x="541.5" y="-242.5" font-family="Helvetica,sans-Serif" font-size="10.00">+</text>
<text text-anchor="start" x="551.5" y="-242.5" font-family="Helvetica,sans-Serif" font-size="10.00">void PushMenu(MenuManager.</text>
<text text-anchor="start" x="551.5" y="-230.5" font-family="Helvetica,sans-Serif" font-size="10.00">MenuType newMenu)</text>
<text text-anchor="start" x="541.5" y="-214.5" font-family="Helvetica,sans-Serif" font-size="10.00">+</text>
<text text-anchor="start" x="551.5" y="-214.5" font-family="Helvetica,sans-Serif" font-size="10.00">void PopMenu()</text>
<text text-anchor="start" x="541.5" y="-198.5" font-family="Helvetica,sans-Serif" font-size="10.00">+</text>
<text text-anchor="start" x="551.5" y="-198.5" font-family="Helvetica,sans-Serif" font-size="10.00">void SetRootMenu(MenuManager.</text>
<text text-anchor="start" x="551.5" y="-186.5" font-family="Helvetica,sans-Serif" font-size="10.00">MenuType newMenu)</text>
<text text-anchor="start" x="541.88" y="-170.5" font-family="Helvetica,sans-Serif" font-size="10.00">#</text>
<text text-anchor="start" x="551.5" y="-170.5" font-family="Helvetica,sans-Serif" font-size="10.00">virtual void SetupMenu()</text>
<polygon fill="#666666" stroke="#666666" points="537.5,-314 537.5,-314 703.5,-314 703.5,-314 537.5,-314"/>
<polygon fill="#666666" stroke="#666666" points="537.5,-270 537.5,-270 549.5,-270 549.5,-270 537.5,-270"/>
<polygon fill="#666666" stroke="#666666" points="549.5,-270 549.5,-270 703.5,-270 703.5,-270 549.5,-270"/>
<polygon fill="none" stroke="#666666" points="537.5,-164 537.5,-332 703.5,-332 703.5,-164 537.5,-164"/>
</a>
</g>
</g>
<!-- Node3 -->
<g id="Node000003" class="node">
<title>Node3</title>
<g id="a_Node000003"><a xlink:href="../../dc/db6/class_dungeon_clear_menu.html" target="_top" xlink:title=" ">
<polygon fill="white" stroke="none" points="139,-98 0,-98 0,-30 139,-30 139,-98"/>
<text text-anchor="start" x="26.38" y="-84.5" font-family="Helvetica,sans-Serif" font-size="10.00">DungeonClearMenu</text>
<text text-anchor="start" x="68" y="-68.5" font-family="Helvetica,sans-Serif" font-size="10.00"> </text>
<text text-anchor="start" x="4" y="-52.5" font-family="Helvetica,sans-Serif" font-size="10.00">+</text>
<text text-anchor="start" x="14" y="-52.5" font-family="Helvetica,sans-Serif" font-size="10.00">override void _Ready()</text>
<text text-anchor="start" x="4" y="-36.5" font-family="Helvetica,sans-Serif" font-size="10.00">+</text>
<text text-anchor="start" x="14" y="-36.5" font-family="Helvetica,sans-Serif" font-size="10.00">void OnExitButtonPressed()</text>
<polygon fill="#666666" stroke="#666666" points="0,-80 0,-80 139,-80 139,-80 0,-80"/>
<polygon fill="#666666" stroke="#666666" points="0,-64 0,-64 139,-64 139,-64 0,-64"/>
<polygon fill="none" stroke="#666666" points="0,-30 0,-98 139,-98 139,-30 0,-30"/>
</a>
</g>
</g>
<!-- Node1&#45;&gt;Node3 -->
<g id="edge2_Node000001_Node000003" class="edge">
<title>Node1&#45;&gt;Node3</title>
<g id="a_edge2_Node000001_Node000003"><a xlink:title=" ">
<path fill="none" stroke="#63b8ff" d="M526.55,-235.56C427.99,-220.83 270.61,-189.45 147.5,-128 131.77,-120.15 116.31,-108.69 103.36,-97.68"/>
<polygon fill="none" stroke="#63b8ff" points="525.78,-238.99 536.18,-236.97 526.79,-232.06 525.78,-238.99"/>
</a>
</g>
</g>
<!-- Node4 -->
<g id="Node000004" class="node">
<title>Node4</title>
<g id="a_Node000004"><a xlink:href="../../d3/da8/class_dungeon_selection.html" target="_top" xlink:title=" ">
<polygon fill="white" stroke="none" points="276,-104 157,-104 157,-24 276,-24 276,-104"/>
<text text-anchor="start" x="176.75" y="-90.5" font-family="Helvetica,sans-Serif" font-size="10.00">DungeonSelection</text>
<text text-anchor="start" x="215" y="-74.5" font-family="Helvetica,sans-Serif" font-size="10.00"> </text>
<text text-anchor="start" x="161" y="-58.5" font-family="Helvetica,sans-Serif" font-size="10.00">+</text>
<text text-anchor="start" x="171" y="-58.5" font-family="Helvetica,sans-Serif" font-size="10.00">override void _Ready()</text>
<text text-anchor="start" x="161" y="-42.5" font-family="Helvetica,sans-Serif" font-size="10.00">+</text>
<text text-anchor="start" x="171" y="-42.5" font-family="Helvetica,sans-Serif" font-size="10.00">void RestoreRerolls</text>
<text text-anchor="start" x="171" y="-30.5" font-family="Helvetica,sans-Serif" font-size="10.00">(bool fullRestore=false)</text>
<polygon fill="#666666" stroke="#666666" points="157,-86 157,-86 276,-86 276,-86 157,-86"/>
<polygon fill="#666666" stroke="#666666" points="157,-70 157,-70 276,-70 276,-70 157,-70"/>
<polygon fill="none" stroke="#666666" points="157,-24 157,-104 276,-104 276,-24 157,-24"/>
</a>
</g>
</g>
<!-- Node1&#45;&gt;Node4 -->
<g id="edge3_Node000001_Node000004" class="edge">
<title>Node1&#45;&gt;Node4</title>
<g id="a_edge3_Node000001_Node000004"><a xlink:title=" ">
<path fill="none" stroke="#63b8ff" d="M526.68,-224.5C456.96,-205.28 361.22,-173.46 285.5,-128 274.37,-121.32 263.46,-112.66 253.72,-103.92"/>
<polygon fill="none" stroke="#63b8ff" points="525.61,-227.84 536.18,-227.08 527.44,-221.08 525.61,-227.84"/>
</a>
</g>
</g>
<!-- Node5 -->
<g id="Node000005" class="node">
<title>Node5</title>
<g id="a_Node000005"><a xlink:href="../../df/d8a/class_main_game.html" target="_top" xlink:title=" ">
<polygon fill="white" stroke="none" points="410.5,-104 294.5,-104 294.5,-24 410.5,-24 410.5,-104"/>
<text text-anchor="start" x="328.88" y="-90.5" font-family="Helvetica,sans-Serif" font-size="10.00">MainGame</text>
<text text-anchor="start" x="351" y="-74.5" font-family="Helvetica,sans-Serif" font-size="10.00"> </text>
<text text-anchor="start" x="298.5" y="-58.5" font-family="Helvetica,sans-Serif" font-size="10.00">+</text>
<text text-anchor="start" x="308.5" y="-58.5" font-family="Helvetica,sans-Serif" font-size="10.00">override void _Ready()</text>
<text text-anchor="start" x="298.5" y="-42.5" font-family="Helvetica,sans-Serif" font-size="10.00">+</text>
<text text-anchor="start" x="308.5" y="-42.5" font-family="Helvetica,sans-Serif" font-size="10.00">override void _Input</text>
<text text-anchor="start" x="308.5" y="-30.5" font-family="Helvetica,sans-Serif" font-size="10.00">(InputEvent @event)</text>
<polygon fill="#666666" stroke="#666666" points="294.5,-86 294.5,-86 410.5,-86 410.5,-86 294.5,-86"/>
<polygon fill="#666666" stroke="#666666" points="294.5,-70 294.5,-70 410.5,-70 410.5,-70 294.5,-70"/>
<polygon fill="none" stroke="#666666" points="294.5,-24 294.5,-104 410.5,-104 410.5,-24 294.5,-24"/>
</a>
</g>
</g>
<!-- Node1&#45;&gt;Node5 -->
<g id="edge4_Node000001_Node000005" class="edge">
<title>Node1&#45;&gt;Node5</title>
<g id="a_edge4_Node000001_Node000005"><a xlink:title=" ">
<path fill="none" stroke="#63b8ff" d="M527.93,-197.88C492.86,-177.83 453.28,-153.39 419.5,-128 409.8,-120.71 399.95,-112.19 390.9,-103.83"/>
<polygon fill="none" stroke="#63b8ff" points="525.95,-200.78 536.37,-202.67 529.4,-194.69 525.95,-200.78"/>
</a>
</g>
</g>
<!-- Node6 -->
<g id="Node000006" class="node">
<title>Node6</title>
<g id="a_Node000006"><a xlink:href="../../d0/d9f/class_main_hub.html" target="_top" xlink:title=" ">
<polygon fill="white" stroke="none" points="544.5,-90 428.5,-90 428.5,-38 544.5,-38 544.5,-90"/>
<text text-anchor="start" x="467" y="-76.5" font-family="Helvetica,sans-Serif" font-size="10.00">MainHub</text>
<text text-anchor="start" x="485" y="-60.5" font-family="Helvetica,sans-Serif" font-size="10.00"> </text>
<text text-anchor="start" x="432.5" y="-44.5" font-family="Helvetica,sans-Serif" font-size="10.00">+</text>
<text text-anchor="start" x="442.5" y="-44.5" font-family="Helvetica,sans-Serif" font-size="10.00">override void _Ready()</text>
<polygon fill="#666666" stroke="#666666" points="428.5,-72 428.5,-72 544.5,-72 544.5,-72 428.5,-72"/>
<polygon fill="#666666" stroke="#666666" points="428.5,-56 428.5,-56 544.5,-56 544.5,-56 428.5,-56"/>
<polygon fill="none" stroke="#666666" points="428.5,-38 428.5,-90 544.5,-90 544.5,-38 428.5,-38"/>
</a>
</g>
</g>
<!-- Node1&#45;&gt;Node6 -->
<g id="edge5_Node000001_Node000006" class="edge">
<title>Node1&#45;&gt;Node6</title>
<g id="a_edge5_Node000001_Node000006"><a xlink:title=" ">
<path fill="none" stroke="#63b8ff" d="M552.79,-155.04C535.07,-130.97 517.42,-106.99 504.79,-89.84"/>
<polygon fill="none" stroke="#63b8ff" points="549.93,-157.06 558.68,-163.04 555.57,-152.91 549.93,-157.06"/>
</a>
</g>
</g>
<!-- Node7 -->
<g id="Node000007" class="node">
<title>Node7</title>
<g id="a_Node000007"><a xlink:href="../../d4/d04/class_main_menu.html" target="_top" xlink:title=" ">
<polygon fill="white" stroke="none" points="678.5,-90 562.5,-90 562.5,-38 678.5,-38 678.5,-90"/>
<text text-anchor="start" x="598" y="-76.5" font-family="Helvetica,sans-Serif" font-size="10.00">MainMenu</text>
<text text-anchor="start" x="619" y="-60.5" font-family="Helvetica,sans-Serif" font-size="10.00"> </text>
<text text-anchor="start" x="566.5" y="-44.5" font-family="Helvetica,sans-Serif" font-size="10.00">+</text>
<text text-anchor="start" x="576.5" y="-44.5" font-family="Helvetica,sans-Serif" font-size="10.00">override void _Ready()</text>
<polygon fill="#666666" stroke="#666666" points="562.5,-72 562.5,-72 678.5,-72 678.5,-72 562.5,-72"/>
<polygon fill="#666666" stroke="#666666" points="562.5,-56 562.5,-56 678.5,-56 678.5,-56 562.5,-56"/>
<polygon fill="none" stroke="#666666" points="562.5,-38 562.5,-90 678.5,-90 678.5,-38 562.5,-38"/>
</a>
</g>
</g>
<!-- Node1&#45;&gt;Node7 -->
<g id="edge6_Node000001_Node000007" class="edge">
<title>Node1&#45;&gt;Node7</title>
<g id="a_edge6_Node000001_Node000007"><a xlink:title=" ">
<path fill="none" stroke="#63b8ff" d="M620.5,-152.81C620.5,-129.5 620.5,-106.47 620.5,-89.84"/>
<polygon fill="none" stroke="#63b8ff" points="617,-152.74 620.5,-162.74 624,-152.74 617,-152.74"/>
</a>
</g>
</g>
<!-- Node8 -->
<g id="Node000008" class="node">
<title>Node8</title>
<g id="a_Node000008"><a xlink:href="../../dd/d8a/class_new_game_menu.html" target="_top" xlink:title=" ">
<polygon fill="white" stroke="none" points="826.5,-128 696.5,-128 696.5,0 826.5,0 826.5,-128"/>
<text text-anchor="start" x="726.25" y="-114.5" font-family="Helvetica,sans-Serif" font-size="10.00">NewGameMenu</text>
<text text-anchor="start" x="760" y="-98.5" font-family="Helvetica,sans-Serif" font-size="10.00"> </text>
<text text-anchor="start" x="700.5" y="-82.5" font-family="Helvetica,sans-Serif" font-size="10.00">+</text>
<text text-anchor="start" x="710.5" y="-82.5" font-family="Helvetica,sans-Serif" font-size="10.00">override void _Ready()</text>
<text text-anchor="start" x="700.5" y="-66.5" font-family="Helvetica,sans-Serif" font-size="10.00">+</text>
<text text-anchor="start" x="710.5" y="-66.5" font-family="Helvetica,sans-Serif" font-size="10.00">override void _Unhandled</text>
<text text-anchor="start" x="710.5" y="-54.5" font-family="Helvetica,sans-Serif" font-size="10.00">Input(InputEvent @event)</text>
<text text-anchor="start" x="700.5" y="-38.5" font-family="Helvetica,sans-Serif" font-size="10.00">+</text>
<text text-anchor="start" x="710.5" y="-38.5" font-family="Helvetica,sans-Serif" font-size="10.00">void SunSelected()</text>
<text text-anchor="start" x="700.5" y="-22.5" font-family="Helvetica,sans-Serif" font-size="10.00">+</text>
<text text-anchor="start" x="710.5" y="-22.5" font-family="Helvetica,sans-Serif" font-size="10.00">void CosmicSelected()</text>
<text text-anchor="start" x="700.5" y="-6.5" font-family="Helvetica,sans-Serif" font-size="10.00">+</text>
<text text-anchor="start" x="710.5" y="-6.5" font-family="Helvetica,sans-Serif" font-size="10.00">void DarkSelected()</text>
<polygon fill="#666666" stroke="#666666" points="696.5,-110 696.5,-110 826.5,-110 826.5,-110 696.5,-110"/>
<polygon fill="#666666" stroke="#666666" points="696.5,-94 696.5,-94 826.5,-94 826.5,-94 696.5,-94"/>
<polygon fill="none" stroke="#666666" points="696.5,0 696.5,-128 826.5,-128 826.5,0 696.5,0"/>
</a>
</g>
</g>
<!-- Node1&#45;&gt;Node8 -->
<g id="edge7_Node000001_Node000008" class="edge">
<title>Node1&#45;&gt;Node8</title>
<g id="a_edge7_Node000001_Node000008"><a xlink:title=" ">
<path fill="none" stroke="#63b8ff" d="M691.49,-155.36C698.69,-146.08 705.87,-136.8 712.75,-127.92"/>
<polygon fill="none" stroke="#63b8ff" points="688.89,-153.01 685.53,-163.06 694.42,-157.3 688.89,-153.01"/>
</a>
</g>
</g>
<!-- Node9 -->
<g id="Node000009" class="node">
<title>Node9</title>
<g id="a_Node000009"><a xlink:href="../../d4/de5/class_pause_menu.html" target="_top" xlink:title=" ">
<polygon fill="white" stroke="none" points="960.5,-104 844.5,-104 844.5,-24 960.5,-24 960.5,-104"/>
<text text-anchor="start" x="876.62" y="-90.5" font-family="Helvetica,sans-Serif" font-size="10.00">PauseMenu</text>
<text text-anchor="start" x="901" y="-74.5" font-family="Helvetica,sans-Serif" font-size="10.00"> </text>
<text text-anchor="start" x="848.5" y="-58.5" font-family="Helvetica,sans-Serif" font-size="10.00">+</text>
<text text-anchor="start" x="858.5" y="-58.5" font-family="Helvetica,sans-Serif" font-size="10.00">override void _Ready()</text>
<text text-anchor="start" x="848.5" y="-42.5" font-family="Helvetica,sans-Serif" font-size="10.00">+</text>
<text text-anchor="start" x="858.5" y="-42.5" font-family="Helvetica,sans-Serif" font-size="10.00">override void _Input</text>
<text text-anchor="start" x="858.5" y="-30.5" font-family="Helvetica,sans-Serif" font-size="10.00">(InputEvent @event)</text>
<polygon fill="#666666" stroke="#666666" points="844.5,-86 844.5,-86 960.5,-86 960.5,-86 844.5,-86"/>
<polygon fill="#666666" stroke="#666666" points="844.5,-70 844.5,-70 960.5,-70 960.5,-70 844.5,-70"/>
<polygon fill="none" stroke="#666666" points="844.5,-24 844.5,-104 960.5,-104 960.5,-24 844.5,-24"/>
</a>
</g>
</g>
<!-- Node1&#45;&gt;Node9 -->
<g id="edge8_Node000001_Node000009" class="edge">
<title>Node1&#45;&gt;Node9</title>
<g id="a_edge8_Node000001_Node000009"><a xlink:title=" ">
<path fill="none" stroke="#63b8ff" d="M713.11,-202.23C752.23,-181.7 797.45,-155.75 835.5,-128 845.43,-120.76 855.45,-112.17 864.61,-103.71"/>
<polygon fill="none" stroke="#63b8ff" points="711.9,-198.92 704.64,-206.64 715.13,-205.13 711.9,-198.92"/>
</a>
</g>
</g>
<!-- Node10 -->
<g id="Node000010" class="node">
<title>Node10</title>
<g id="a_Node000010"><a xlink:href="../../d6/de8/class_player_death_menu.html" target="_top" xlink:title=" ">
<polygon fill="white" stroke="none" points="1140,-104 979,-104 979,-24 1140,-24 1140,-104"/>
<text text-anchor="start" x="1020.5" y="-90.5" font-family="Helvetica,sans-Serif" font-size="10.00">PlayerDeathMenu</text>
<text text-anchor="start" x="1058" y="-74.5" font-family="Helvetica,sans-Serif" font-size="10.00"> </text>
<text text-anchor="start" x="983" y="-58.5" font-family="Helvetica,sans-Serif" font-size="10.00">+</text>
<text text-anchor="start" x="993" y="-58.5" font-family="Helvetica,sans-Serif" font-size="10.00">void OnExitDungeonButton</text>
<text text-anchor="start" x="993" y="-46.5" font-family="Helvetica,sans-Serif" font-size="10.00">Pressed()</text>
<text text-anchor="start" x="983" y="-30.5" font-family="Helvetica,sans-Serif" font-size="10.00">+</text>
<text text-anchor="start" x="993" y="-30.5" font-family="Helvetica,sans-Serif" font-size="10.00">void OnTryAgainButtonPressed()</text>
<polygon fill="#666666" stroke="#666666" points="979,-86 979,-86 1140,-86 1140,-86 979,-86"/>
<polygon fill="#666666" stroke="#666666" points="979,-70 979,-70 1140,-70 1140,-70 979,-70"/>
<polygon fill="none" stroke="#666666" points="979,-24 979,-104 1140,-104 1140,-24 979,-24"/>
</a>
</g>
</g>
<!-- Node1&#45;&gt;Node10 -->
<g id="edge9_Node000001_Node000010" class="edge">
<title>Node1&#45;&gt;Node10</title>
<g id="a_edge9_Node000001_Node000010"><a xlink:title=" ">
<path fill="none" stroke="#63b8ff" d="M714.03,-222.9C786.01,-202.53 886.83,-169.96 969.5,-128 982.94,-121.18 996.65,-112.57 1009.19,-103.92"/>
<polygon fill="none" stroke="#63b8ff" points="713.32,-219.46 704.64,-225.53 715.21,-226.2 713.32,-219.46"/>
</a>
</g>
</g>
<!-- Node11 -->
<g id="Node000011" class="node">
<title>Node11</title>
<g id="a_Node000011"><a xlink:href="../../d4/d94/class_settings_menu.html" target="_top" xlink:title=" ">
<polygon fill="white" stroke="none" points="1274.5,-90 1158.5,-90 1158.5,-38 1274.5,-38 1274.5,-90"/>
<text text-anchor="start" x="1186.5" y="-76.5" font-family="Helvetica,sans-Serif" font-size="10.00">SettingsMenu</text>
<text text-anchor="start" x="1215" y="-60.5" font-family="Helvetica,sans-Serif" font-size="10.00"> </text>
<text text-anchor="start" x="1162.5" y="-44.5" font-family="Helvetica,sans-Serif" font-size="10.00">+</text>
<text text-anchor="start" x="1172.5" y="-44.5" font-family="Helvetica,sans-Serif" font-size="10.00">override void _Ready()</text>
<polygon fill="#666666" stroke="#666666" points="1158.5,-72 1158.5,-72 1274.5,-72 1274.5,-72 1158.5,-72"/>
<polygon fill="#666666" stroke="#666666" points="1158.5,-56 1158.5,-56 1274.5,-56 1274.5,-56 1158.5,-56"/>
<polygon fill="none" stroke="#666666" points="1158.5,-38 1158.5,-90 1274.5,-90 1274.5,-38 1158.5,-38"/>
</a>
</g>
</g>
<!-- Node1&#45;&gt;Node11 -->
<g id="edge10_Node000001_Node000011" class="edge">
<title>Node1&#45;&gt;Node11</title>
<g id="a_edge10_Node000001_Node000011"><a xlink:title=" ">
<path fill="none" stroke="#63b8ff" d="M714.48,-240.87C824.47,-230.4 1009.36,-202.38 1149.5,-128 1167.27,-118.57 1183.78,-103.16 1195.96,-89.94"/>
<polygon fill="none" stroke="#63b8ff" points="714.24,-237.37 704.6,-241.77 714.88,-244.34 714.24,-237.37"/>
</a>
</g>
</g>
<!-- Node2 -->
<g id="Node000002" class="node">
<title>Node2</title>
<g id="a_Node000002"><a xlink:href="../../dc/d8f/class_node.html" target="_top" xlink:title=" ">
<polygon fill="white" stroke="none" points="637,-420 604,-420 604,-368 637,-368 637,-420"/>
<text text-anchor="start" x="608.88" y="-406.5" font-family="Helvetica,sans-Serif" font-size="10.00">Node</text>
<text text-anchor="start" x="619" y="-390.5" font-family="Helvetica,sans-Serif" font-size="10.00"> </text>
<text text-anchor="start" x="619" y="-374.5" font-family="Helvetica,sans-Serif" font-size="10.00"> </text>
<polygon fill="#666666" stroke="#666666" points="604,-402 604,-402 637,-402 637,-402 604,-402"/>
<polygon fill="#666666" stroke="#666666" points="604,-386 604,-386 637,-386 637,-386 604,-386"/>
<polygon fill="none" stroke="#666666" points="604,-368 604,-420 637,-420 637,-368 604,-368"/>
</a>
</g>
</g>
<!-- Node2&#45;&gt;Node1 -->
<g id="edge1_Node000001_Node000002" class="edge">
<title>Node2&#45;&gt;Node1</title>
<g id="a_edge1_Node000001_Node000002"><a xlink:title=" ">
<path fill="none" stroke="#63b8ff" d="M620.5,-356.79C620.5,-349.07 620.5,-340.61 620.5,-331.94"/>
<polygon fill="none" stroke="#63b8ff" points="617,-356.73 620.5,-366.73 624,-356.73 617,-356.73"/>
</a>
</g>
</g>
</g>
</svg>
