<?xml version="1.0" encoding="UTF-8" standalone="no"?>
<!DOCTYPE svg PUBLIC "-//W3C//DTD SVG 1.1//EN"
 "http://www.w3.org/Graphics/SVG/1.1/DTD/svg11.dtd">
<!-- Generated by graphviz version 12.1.0 (20240811.2233)
 -->
<!-- Title: StateMachine Pages: 1 -->
<svg width="307pt" height="544pt"
 viewBox="0.00 0.00 307.00 544.00" xmlns="http://www.w3.org/2000/svg" xmlns:xlink="http://www.w3.org/1999/xlink">
<g id="graph0" class="graph" transform="scale(1 1) rotate(0) translate(4 540)">
<title>StateMachine</title>
<!-- Node1 -->
<g id="Node000001" class="node">
<title>Node1</title>
<g id="a_Node000001"><a xlink:title=" ">
<polygon fill="#999999" stroke="none" points="147,-192 0,-192 0,0 147,0 147,-192"/>
<text text-anchor="start" x="43.5" y="-178.5" font-family="Helvetica,sans-Serif" font-size="10.00">StateMachine</text>
<text text-anchor="start" x="72" y="-162.5" font-family="Helvetica,sans-Serif" font-size="10.00"> </text>
<text text-anchor="start" x="4" y="-146.5" font-family="Helvetica,sans-Serif" font-size="10.00">+</text>
<text text-anchor="start" x="14" y="-146.5" font-family="Helvetica,sans-Serif" font-size="10.00">void Init(CharacterBody2</text>
<text text-anchor="start" x="14" y="-134.5" font-family="Helvetica,sans-Serif" font-size="10.00">D parent, AnimationPlayer</text>
<text text-anchor="start" x="14" y="-122.5" font-family="Helvetica,sans-Serif" font-size="10.00"> animationPlayer)</text>
<text text-anchor="start" x="4" y="-106.5" font-family="Helvetica,sans-Serif" font-size="10.00">+</text>
<text text-anchor="start" x="14" y="-106.5" font-family="Helvetica,sans-Serif" font-size="10.00">void ProcessInput(InputEvent</text>
<text text-anchor="start" x="14" y="-94.5" font-family="Helvetica,sans-Serif" font-size="10.00"> @event)</text>
<text text-anchor="start" x="4" y="-78.5" font-family="Helvetica,sans-Serif" font-size="10.00">+</text>
<text text-anchor="start" x="14" y="-78.5" font-family="Helvetica,sans-Serif" font-size="10.00">void ProcessFrame(double</text>
<text text-anchor="start" x="14" y="-66.5" font-family="Helvetica,sans-Serif" font-size="10.00"> delta)</text>
<text text-anchor="start" x="4" y="-50.5" font-family="Helvetica,sans-Serif" font-size="10.00">+</text>
<text text-anchor="start" x="14" y="-50.5" font-family="Helvetica,sans-Serif" font-size="10.00">void ProcessPhysics</text>
<text text-anchor="start" x="14" y="-38.5" font-family="Helvetica,sans-Serif" font-size="10.00">(double delta)</text>
<text text-anchor="start" x="4" y="-22.5" font-family="Helvetica,sans-Serif" font-size="10.00">+</text>
<text text-anchor="start" x="14" y="-22.5" font-family="Helvetica,sans-Serif" font-size="10.00">State GetState()</text>
<text text-anchor="start" x="4" y="-6.5" font-family="Helvetica,sans-Serif" font-size="10.00">+</text>
<text text-anchor="start" x="14" y="-6.5" font-family="Helvetica,sans-Serif" font-size="10.00">void OnDeath()</text>
<polygon fill="#666666" stroke="#666666" points="0,-174 0,-174 147,-174 147,-174 0,-174"/>
<polygon fill="#666666" stroke="#666666" points="0,-158 0,-158 147,-158 147,-158 0,-158"/>
<polygon fill="none" stroke="#666666" points="0,0 0,-192 147,-192 147,0 0,0"/>
</a>
</g>
</g>
<!-- Node2 -->
<g id="Node000002" class="node">
<title>Node2</title>
<g id="a_Node000002"><a xlink:href="../../dc/d8f/class_node.html" target="_top" xlink:title=" ">
<polygon fill="white" stroke="none" points="87,-536 54,-536 54,-484 87,-484 87,-536"/>
<text text-anchor="start" x="58.88" y="-522.5" font-family="Helvetica,sans-Serif" font-size="10.00">Node</text>
<text text-anchor="start" x="69" y="-506.5" font-family="Helvetica,sans-Serif" font-size="10.00"> </text>
<text text-anchor="start" x="69" y="-490.5" font-family="Helvetica,sans-Serif" font-size="10.00"> </text>
<polygon fill="#666666" stroke="#666666" points="54,-518 54,-518 87,-518 87,-518 54,-518"/>
<polygon fill="#666666" stroke="#666666" points="54,-502 54,-502 87,-502 87,-502 54,-502"/>
<polygon fill="none" stroke="#666666" points="54,-484 54,-536 87,-536 87,-484 54,-484"/>
</a>
</g>
</g>
<!-- Node2&#45;&gt;Node1 -->
<g id="edge1_Node000001_Node000002" class="edge">
<title>Node2&#45;&gt;Node1</title>
<g id="a_edge1_Node000001_Node000002"><a xlink:title=" ">
<path fill="none" stroke="#63b8ff" d="M70.76,-472.99C71.22,-410.74 72.16,-281.09 72.81,-191.58"/>
<polygon fill="none" stroke="#63b8ff" points="67.26,-472.62 70.69,-482.64 74.26,-472.67 67.26,-472.62"/>
</a>
</g>
</g>
<!-- Node3 -->
<g id="Node000003" class="node">
<title>Node3</title>
<g id="a_Node000003"><a xlink:href="../../d0/d8b/class_state.html" target="_top" xlink:title=" ">
<polygon fill="white" stroke="none" points="239.5,-436 85.5,-436 85.5,-252 239.5,-252 239.5,-436"/>
<text text-anchor="start" x="150.88" y="-422.5" font-family="Helvetica,sans-Serif" font-size="10.00">State</text>
<text text-anchor="start" x="161" y="-406.5" font-family="Helvetica,sans-Serif" font-size="10.00"> </text>
<text text-anchor="start" x="89.5" y="-390.5" font-family="Helvetica,sans-Serif" font-size="10.00">+</text>
<text text-anchor="start" x="99.5" y="-390.5" font-family="Helvetica,sans-Serif" font-size="10.00">virtual bool CanEnter()</text>
<text text-anchor="start" x="89.5" y="-374.5" font-family="Helvetica,sans-Serif" font-size="10.00">+</text>
<text text-anchor="start" x="99.5" y="-374.5" font-family="Helvetica,sans-Serif" font-size="10.00">virtual void Enter()</text>
<text text-anchor="start" x="89.5" y="-358.5" font-family="Helvetica,sans-Serif" font-size="10.00">+</text>
<text text-anchor="start" x="99.5" y="-358.5" font-family="Helvetica,sans-Serif" font-size="10.00">virtual void Exit()</text>
<text text-anchor="start" x="89.5" y="-342.5" font-family="Helvetica,sans-Serif" font-size="10.00">+</text>
<text text-anchor="start" x="99.5" y="-342.5" font-family="Helvetica,sans-Serif" font-size="10.00">virtual State ProcessInput</text>
<text text-anchor="start" x="99.5" y="-330.5" font-family="Helvetica,sans-Serif" font-size="10.00">(InputEvent @event)</text>
<text text-anchor="start" x="89.5" y="-314.5" font-family="Helvetica,sans-Serif" font-size="10.00">+</text>
<text text-anchor="start" x="99.5" y="-314.5" font-family="Helvetica,sans-Serif" font-size="10.00">virtual State ProcessFrame</text>
<text text-anchor="start" x="99.5" y="-302.5" font-family="Helvetica,sans-Serif" font-size="10.00">(double delta)</text>
<text text-anchor="start" x="89.5" y="-286.5" font-family="Helvetica,sans-Serif" font-size="10.00">+</text>
<text text-anchor="start" x="99.5" y="-286.5" font-family="Helvetica,sans-Serif" font-size="10.00">virtual State ProcessPhysics</text>
<text text-anchor="start" x="99.5" y="-274.5" font-family="Helvetica,sans-Serif" font-size="10.00">(double delta)</text>
<text text-anchor="start" x="89.5" y="-258.5" font-family="Helvetica,sans-Serif" font-size="10.00">+</text>
<text text-anchor="start" x="99.5" y="-258.5" font-family="Helvetica,sans-Serif" font-size="10.00">virtual void UpdateAnimations()</text>
<polygon fill="#666666" stroke="#666666" points="85.5,-418 85.5,-418 239.5,-418 239.5,-418 85.5,-418"/>
<polygon fill="#666666" stroke="#666666" points="85.5,-402 85.5,-402 239.5,-402 239.5,-402 85.5,-402"/>
<polygon fill="none" stroke="#666666" points="85.5,-252 85.5,-436 239.5,-436 239.5,-252 85.5,-252"/>
</a>
</g>
</g>
<!-- Node2&#45;&gt;Node3 -->
<g id="edge3_Node000003_Node000002" class="edge">
<title>Node2&#45;&gt;Node3</title>
<g id="a_edge3_Node000003_Node000002"><a xlink:title=" ">
<path fill="none" stroke="#63b8ff" d="M90.04,-474.16C96.46,-462.73 103.91,-449.45 111.54,-435.84"/>
<polygon fill="none" stroke="#63b8ff" points="87.05,-472.34 85.21,-482.77 93.16,-475.76 87.05,-472.34"/>
</a>
</g>
</g>
<!-- Node3&#45;&gt;Node1 -->
<g id="edge2_Node000001_Node000003" class="edge">
<title>Node3&#45;&gt;Node1</title>
<g id="a_edge2_Node000001_Node000003"><a xlink:title=" ">
<path fill="none" stroke="#63b8ff" d="M129.61,-252.1C123.93,-236.39 117.98,-219.94 112.16,-203.85"/>
<polygon fill="none" stroke="#63b8ff" points="112.13,-203.78 106.33,-199.5 108.05,-192.5 113.85,-196.78 112.13,-203.78"/>
</a>
</g>
<text text-anchor="middle" x="152.17" y="-224.5" font-family="Helvetica,sans-Serif" font-size="10.00" fill="grey"> +DeathState</text>
<text text-anchor="middle" x="152.17" y="-212.5" font-family="Helvetica,sans-Serif" font-size="10.00" fill="grey">+StartingState</text>
</g>
<!-- Node4 -->
<g id="Node000004" class="node">
<title>Node4</title>
<g id="a_Node000004"><a xlink:title=" ">
<polygon fill="white" stroke="none" points="199.5,-536 111.5,-536 111.5,-484 199.5,-484 199.5,-536"/>
<text text-anchor="start" x="116.5" y="-522.5" font-family="Helvetica,sans-Serif" font-size="10.00">CharacterBody2D</text>
<text text-anchor="start" x="154" y="-506.5" font-family="Helvetica,sans-Serif" font-size="10.00"> </text>
<text text-anchor="start" x="154" y="-490.5" font-family="Helvetica,sans-Serif" font-size="10.00"> </text>
<polygon fill="#666666" stroke="#666666" points="111.5,-518 111.5,-518 199.5,-518 199.5,-518 111.5,-518"/>
<polygon fill="#666666" stroke="#666666" points="111.5,-502 111.5,-502 199.5,-502 199.5,-502 111.5,-502"/>
<polygon fill="none" stroke="#666666" points="111.5,-484 111.5,-536 199.5,-536 199.5,-484 111.5,-484"/>
</a>
</g>
</g>
<!-- Node4&#45;&gt;Node3 -->
<g id="edge4_Node000003_Node000004" class="edge">
<title>Node4&#45;&gt;Node3</title>
<g id="a_edge4_Node000003_Node000004"><a xlink:title=" ">
<path fill="none" stroke="#63b8ff" d="M156.56,-484.09C156.99,-474.04 157.52,-461.72 158.08,-448.61"/>
<polygon fill="none" stroke="#63b8ff" points="158.07,-448.73 154.33,-442.56 158.58,-436.74 162.32,-442.9 158.07,-448.73"/>
</a>
</g>
<text text-anchor="middle" x="176.51" y="-456.5" font-family="Helvetica,sans-Serif" font-size="10.00" fill="grey"> +Parent</text>
</g>
<!-- Node5 -->
<g id="Node000005" class="node">
<title>Node5</title>
<g id="a_Node000005"><a xlink:title=" ">
<polygon fill="white" stroke="none" points="299,-536 218,-536 218,-484 299,-484 299,-536"/>
<text text-anchor="start" x="222.88" y="-522.5" font-family="Helvetica,sans-Serif" font-size="10.00">AnimationPlayer</text>
<text text-anchor="start" x="257" y="-506.5" font-family="Helvetica,sans-Serif" font-size="10.00"> </text>
<text text-anchor="start" x="257" y="-490.5" font-family="Helvetica,sans-Serif" font-size="10.00"> </text>
<polygon fill="#666666" stroke="#666666" points="218,-518 218,-518 299,-518 299,-518 218,-518"/>
<polygon fill="#666666" stroke="#666666" points="218,-502 218,-502 299,-502 299,-502 218,-502"/>
<polygon fill="none" stroke="#666666" points="218,-484 218,-536 299,-536 299,-484 218,-484"/>
</a>
</g>
</g>
<!-- Node5&#45;&gt;Node3 -->
<g id="edge5_Node000003_Node000005" class="edge">
<title>Node5&#45;&gt;Node3</title>
<g id="a_edge5_Node000003_Node000005"><a xlink:title=" ">
<path fill="none" stroke="#63b8ff" d="M243.92,-484.09C237.79,-473.63 230.23,-460.7 222.19,-446.98"/>
<polygon fill="none" stroke="#63b8ff" points="222.19,-446.97 215.71,-443.81 216.13,-436.61 222.61,-439.77 222.19,-446.97"/>
</a>
</g>
<text text-anchor="middle" x="261.63" y="-456.5" font-family="Helvetica,sans-Serif" font-size="10.00" fill="grey"> +Animations</text>
</g>
</g>
</svg>
