<?xml version="1.0" encoding="UTF-8" standalone="no"?>
<!DOCTYPE svg PUBLIC "-//W3C//DTD SVG 1.1//EN"
 "http://www.w3.org/Graphics/SVG/1.1/DTD/svg11.dtd">
<!-- Generated by graphviz version 12.1.0 (20240811.2233)
 -->
<!-- Title: StateMachine Pages: 1 -->
<!--zoomable 544 -->

<svg id="main" version="1.1" xmlns="http://www.w3.org/2000/svg" xmlns:xlink="http://www.w3.org/1999/xlink" xml:space="preserve" onload="init(evt)">
<style type="text/css"><![CDATA[
.node, .edge {opacity: 0.7;}
.node.selected, .edge.selected {opacity: 1;}
.edge:hover path { stroke: red; }
.edge:hover polygon { stroke: red; fill: red; }
]]></style>

<defs>
  <circle id="rim" cx="0" cy="0" r="7"/>
  <circle id="rim2" cx="0" cy="0" r="3.5"/>
  <g id="zoomPlus">
    <use xlink:href="#rim" fill="#404040"><set attributeName="fill" to="#808080" begin="zoomplus.mouseover" end="zoomplus.mouseout"/></use>
    <path d="M-4,0h8M0,-4v8" fill="none" stroke="white" stroke-width="1.5" pointer-events="none"/>
  </g>
  <g id="zoomMin">
    <use xlink:href="#rim" fill="#404040"><set attributeName="fill" to="#808080" begin="zoomminus.mouseover" end="zoomminus.mouseout"/></use>
    <path d="M-4,0h8" fill="none" stroke="white" stroke-width="1.5" pointer-events="none"/>
  </g>
  <g id="arrowUp" transform="translate(30 24)">
    <use xlink:href="#rim"/>
    <path pointer-events="none" fill="none" stroke="white" stroke-width="1.5" d="M0,-3.0v7 M-2.5,-0.5L0,-3.0L2.5,-0.5"/>
  </g>
  <g id="arrowRight" transform="rotate(90) translate(36 -43)">
    <use xlink:href="#rim"/>
    <path pointer-events="none" fill="none" stroke="white" stroke-width="1.5" d="M0,-3.0v7 M-2.5,-0.5L0,-3.0L2.5,-0.5"/>
  </g>
  <g id="arrowDown" transform="rotate(180) translate(-30 -48)">
    <use xlink:href="#rim"/>
    <path pointer-events="none" fill="none" stroke="white" stroke-width="1.5" d="M0,-3.0v7 M-2.5,-0.5L0,-3.0L2.5,-0.5"/>
  </g>
  <g id="arrowLeft" transform="rotate(270) translate(-36 17)">
    <use xlink:href="#rim"/>
    <path pointer-events="none" fill="none" stroke="white" stroke-width="1.5" d="M0,-3.0v7 M-2.5,-0.5L0,-3.0L2.5,-0.5"/>
  </g>
  <g id="resetDef">
    <use xlink:href="#rim2" fill="#404040"><set attributeName="fill" to="#808080" begin="reset.mouseover" end="reset.mouseout"/></use>
  </g>
</defs>
<script type="application/ecmascript">
var viewWidth = 307;
var viewHeight = 544;
var sectionId = 'dynsection-1';
</script>
<script type="application/ecmascript" xlink:href="../../svg.min.js"/>
<svg id="graph" class="graph">
<g id="viewport">
<title>StateMachine</title>
<!-- Node1 -->
<g id="Node000001" class="node">
<title>Node1</title>
<g id="a_Node000001"><a xlink:title=" ">
<polygon fill="#999999" stroke="none" points="147,-192 0,-192 0,0 147,0 147,-192"/>
<text text-anchor="start" x="43.5" y="-178.5" font-family="Helvetica,sans-Serif" font-size="10.00">StateMachine</text>
<text text-anchor="start" x="72" y="-162.5" font-family="Helvetica,sans-Serif" font-size="10.00"> </text>
<text text-anchor="start" x="4" y="-146.5" font-family="Helvetica,sans-Serif" font-size="10.00">+</text>
<text text-anchor="start" x="14" y="-146.5" font-family="Helvetica,sans-Serif" font-size="10.00">void Init(CharacterBody2</text>
<text text-anchor="start" x="14" y="-134.5" font-family="Helvetica,sans-Serif" font-size="10.00">D parent, AnimationPlayer</text>
<text text-anchor="start" x="14" y="-122.5" font-family="Helvetica,sans-Serif" font-size="10.00"> animationPlayer)</text>
<text text-anchor="start" x="4" y="-106.5" font-family="Helvetica,sans-Serif" font-size="10.00">+</text>
<text text-anchor="start" x="14" y="-106.5" font-family="Helvetica,sans-Serif" font-size="10.00">void ProcessInput(InputEvent</text>
<text text-anchor="start" x="14" y="-94.5" font-family="Helvetica,sans-Serif" font-size="10.00"> @event)</text>
<text text-anchor="start" x="4" y="-78.5" font-family="Helvetica,sans-Serif" font-size="10.00">+</text>
<text text-anchor="start" x="14" y="-78.5" font-family="Helvetica,sans-Serif" font-size="10.00">void ProcessFrame(double</text>
<text text-anchor="start" x="14" y="-66.5" font-family="Helvetica,sans-Serif" font-size="10.00"> delta)</text>
<text text-anchor="start" x="4" y="-50.5" font-family="Helvetica,sans-Serif" font-size="10.00">+</text>
<text text-anchor="start" x="14" y="-50.5" font-family="Helvetica,sans-Serif" font-size="10.00">void ProcessPhysics</text>
<text text-anchor="start" x="14" y="-38.5" font-family="Helvetica,sans-Serif" font-size="10.00">(double delta)</text>
<text text-anchor="start" x="4" y="-22.5" font-family="Helvetica,sans-Serif" font-size="10.00">+</text>
<text text-anchor="start" x="14" y="-22.5" font-family="Helvetica,sans-Serif" font-size="10.00">State GetState()</text>
<text text-anchor="start" x="4" y="-6.5" font-family="Helvetica,sans-Serif" font-size="10.00">+</text>
<text text-anchor="start" x="14" y="-6.5" font-family="Helvetica,sans-Serif" font-size="10.00">void OnDeath()</text>
<polygon fill="#666666" stroke="#666666" points="0,-174 0,-174 147,-174 147,-174 0,-174"/>
<polygon fill="#666666" stroke="#666666" points="0,-158 0,-158 147,-158 147,-158 0,-158"/>
<polygon fill="none" stroke="#666666" points="0,0 0,-192 147,-192 147,0 0,0"/>
</a>
</g>
</g>
<!-- Node2 -->
<g id="Node000002" class="node">
<title>Node2</title>
<g id="a_Node000002"><a xlink:href="../../dc/d8f/class_node.html" target="_top" xlink:title=" ">
<polygon fill="white" stroke="none" points="87,-536 54,-536 54,-484 87,-484 87,-536"/>
<text text-anchor="start" x="58.88" y="-522.5" font-family="Helvetica,sans-Serif" font-size="10.00">Node</text>
<text text-anchor="start" x="69" y="-506.5" font-family="Helvetica,sans-Serif" font-size="10.00"> </text>
<text text-anchor="start" x="69" y="-490.5" font-family="Helvetica,sans-Serif" font-size="10.00"> </text>
<polygon fill="#666666" stroke="#666666" points="54,-518 54,-518 87,-518 87,-518 54,-518"/>
<polygon fill="#666666" stroke="#666666" points="54,-502 54,-502 87,-502 87,-502 54,-502"/>
<polygon fill="none" stroke="#666666" points="54,-484 54,-536 87,-536 87,-484 54,-484"/>
</a>
</g>
</g>
<!-- Node2&#45;&gt;Node1 -->
<g id="edge1_Node000001_Node000002" class="edge">
<title>Node2&#45;&gt;Node1</title>
<g id="a_edge1_Node000001_Node000002"><a xlink:title=" ">
<path fill="none" stroke="#63b8ff" d="M70.76,-472.99C71.22,-410.74 72.16,-281.09 72.81,-191.58"/>
<polygon fill="none" stroke="#63b8ff" points="67.26,-472.62 70.69,-482.64 74.26,-472.67 67.26,-472.62"/>
</a>
</g>
</g>
<!-- Node3 -->
<g id="Node000003" class="node">
<title>Node3</title>
<g id="a_Node000003"><a xlink:href="../../d0/d8b/class_state.html" target="_top" xlink:title=" ">
<polygon fill="white" stroke="none" points="239.5,-436 85.5,-436 85.5,-252 239.5,-252 239.5,-436"/>
<text text-anchor="start" x="150.88" y="-422.5" font-family="Helvetica,sans-Serif" font-size="10.00">State</text>
<text text-anchor="start" x="161" y="-406.5" font-family="Helvetica,sans-Serif" font-size="10.00"> </text>
<text text-anchor="start" x="89.5" y="-390.5" font-family="Helvetica,sans-Serif" font-size="10.00">+</text>
<text text-anchor="start" x="99.5" y="-390.5" font-family="Helvetica,sans-Serif" font-size="10.00">virtual bool CanEnter()</text>
<text text-anchor="start" x="89.5" y="-374.5" font-family="Helvetica,sans-Serif" font-size="10.00">+</text>
<text text-anchor="start" x="99.5" y="-374.5" font-family="Helvetica,sans-Serif" font-size="10.00">virtual void Enter()</text>
<text text-anchor="start" x="89.5" y="-358.5" font-family="Helvetica,sans-Serif" font-size="10.00">+</text>
<text text-anchor="start" x="99.5" y="-358.5" font-family="Helvetica,sans-Serif" font-size="10.00">virtual void Exit()</text>
<text text-anchor="start" x="89.5" y="-342.5" font-family="Helvetica,sans-Serif" font-size="10.00">+</text>
<text text-anchor="start" x="99.5" y="-342.5" font-family="Helvetica,sans-Serif" font-size="10.00">virtual State ProcessInput</text>
<text text-anchor="start" x="99.5" y="-330.5" font-family="Helvetica,sans-Serif" font-size="10.00">(InputEvent @event)</text>
<text text-anchor="start" x="89.5" y="-314.5" font-family="Helvetica,sans-Serif" font-size="10.00">+</text>
<text text-anchor="start" x="99.5" y="-314.5" font-family="Helvetica,sans-Serif" font-size="10.00">virtual State ProcessFrame</text>
<text text-anchor="start" x="99.5" y="-302.5" font-family="Helvetica,sans-Serif" font-size="10.00">(double delta)</text>
<text text-anchor="start" x="89.5" y="-286.5" font-family="Helvetica,sans-Serif" font-size="10.00">+</text>
<text text-anchor="start" x="99.5" y="-286.5" font-family="Helvetica,sans-Serif" font-size="10.00">virtual State ProcessPhysics</text>
<text text-anchor="start" x="99.5" y="-274.5" font-family="Helvetica,sans-Serif" font-size="10.00">(double delta)</text>
<text text-anchor="start" x="89.5" y="-258.5" font-family="Helvetica,sans-Serif" font-size="10.00">+</text>
<text text-anchor="start" x="99.5" y="-258.5" font-family="Helvetica,sans-Serif" font-size="10.00">virtual void UpdateAnimations()</text>
<polygon fill="#666666" stroke="#666666" points="85.5,-418 85.5,-418 239.5,-418 239.5,-418 85.5,-418"/>
<polygon fill="#666666" stroke="#666666" points="85.5,-402 85.5,-402 239.5,-402 239.5,-402 85.5,-402"/>
<polygon fill="none" stroke="#666666" points="85.5,-252 85.5,-436 239.5,-436 239.5,-252 85.5,-252"/>
</a>
</g>
</g>
<!-- Node2&#45;&gt;Node3 -->
<g id="edge3_Node000003_Node000002" class="edge">
<title>Node2&#45;&gt;Node3</title>
<g id="a_edge3_Node000003_Node000002"><a xlink:title=" ">
<path fill="none" stroke="#63b8ff" d="M90.04,-474.16C96.46,-462.73 103.91,-449.45 111.54,-435.84"/>
<polygon fill="none" stroke="#63b8ff" points="87.05,-472.34 85.21,-482.77 93.16,-475.76 87.05,-472.34"/>
</a>
</g>
</g>
<!-- Node3&#45;&gt;Node1 -->
<g id="edge2_Node000001_Node000003" class="edge">
<title>Node3&#45;&gt;Node1</title>
<g id="a_edge2_Node000001_Node000003"><a xlink:title=" ">
<path fill="none" stroke="#63b8ff" d="M129.61,-252.1C123.93,-236.39 117.98,-219.94 112.16,-203.85"/>
<polygon fill="none" stroke="#63b8ff" points="112.13,-203.78 106.33,-199.5 108.05,-192.5 113.85,-196.78 112.13,-203.78"/>
</a>
</g>
<text text-anchor="middle" x="152.17" y="-224.5" font-family="Helvetica,sans-Serif" font-size="10.00" fill="grey"> +DeathState</text>
<text text-anchor="middle" x="152.17" y="-212.5" font-family="Helvetica,sans-Serif" font-size="10.00" fill="grey">+StartingState</text>
</g>
<!-- Node4 -->
<g id="Node000004" class="node">
<title>Node4</title>
<g id="a_Node000004"><a xlink:title=" ">
<polygon fill="white" stroke="none" points="199.5,-536 111.5,-536 111.5,-484 199.5,-484 199.5,-536"/>
<text text-anchor="start" x="116.5" y="-522.5" font-family="Helvetica,sans-Serif" font-size="10.00">CharacterBody2D</text>
<text text-anchor="start" x="154" y="-506.5" font-family="Helvetica,sans-Serif" font-size="10.00"> </text>
<text text-anchor="start" x="154" y="-490.5" font-family="Helvetica,sans-Serif" font-size="10.00"> </text>
<polygon fill="#666666" stroke="#666666" points="111.5,-518 111.5,-518 199.5,-518 199.5,-518 111.5,-518"/>
<polygon fill="#666666" stroke="#666666" points="111.5,-502 111.5,-502 199.5,-502 199.5,-502 111.5,-502"/>
<polygon fill="none" stroke="#666666" points="111.5,-484 111.5,-536 199.5,-536 199.5,-484 111.5,-484"/>
</a>
</g>
</g>
<!-- Node4&#45;&gt;Node3 -->
<g id="edge4_Node000003_Node000004" class="edge">
<title>Node4&#45;&gt;Node3</title>
<g id="a_edge4_Node000003_Node000004"><a xlink:title=" ">
<path fill="none" stroke="#63b8ff" d="M156.56,-484.09C156.99,-474.04 157.52,-461.72 158.08,-448.61"/>
<polygon fill="none" stroke="#63b8ff" points="158.07,-448.73 154.33,-442.56 158.58,-436.74 162.32,-442.9 158.07,-448.73"/>
</a>
</g>
<text text-anchor="middle" x="176.51" y="-456.5" font-family="Helvetica,sans-Serif" font-size="10.00" fill="grey"> +Parent</text>
</g>
<!-- Node5 -->
<g id="Node000005" class="node">
<title>Node5</title>
<g id="a_Node000005"><a xlink:title=" ">
<polygon fill="white" stroke="none" points="299,-536 218,-536 218,-484 299,-484 299,-536"/>
<text text-anchor="start" x="222.88" y="-522.5" font-family="Helvetica,sans-Serif" font-size="10.00">AnimationPlayer</text>
<text text-anchor="start" x="257" y="-506.5" font-family="Helvetica,sans-Serif" font-size="10.00"> </text>
<text text-anchor="start" x="257" y="-490.5" font-family="Helvetica,sans-Serif" font-size="10.00"> </text>
<polygon fill="#666666" stroke="#666666" points="218,-518 218,-518 299,-518 299,-518 218,-518"/>
<polygon fill="#666666" stroke="#666666" points="218,-502 218,-502 299,-502 299,-502 218,-502"/>
<polygon fill="none" stroke="#666666" points="218,-484 218,-536 299,-536 299,-484 218,-484"/>
</a>
</g>
</g>
<!-- Node5&#45;&gt;Node3 -->
<g id="edge5_Node000003_Node000005" class="edge">
<title>Node5&#45;&gt;Node3</title>
<g id="a_edge5_Node000003_Node000005"><a xlink:title=" ">
<path fill="none" stroke="#63b8ff" d="M243.92,-484.09C237.79,-473.63 230.23,-460.7 222.19,-446.98"/>
<polygon fill="none" stroke="#63b8ff" points="222.19,-446.97 215.71,-443.81 216.13,-436.61 222.61,-439.77 222.19,-446.97"/>
</a>
</g>
<text text-anchor="middle" x="261.63" y="-456.5" font-family="Helvetica,sans-Serif" font-size="10.00" fill="grey"> +Animations</text>
</g>
</g>
</svg>

<g id="navigator" transform="translate(0 0)" fill="#404254">
  <rect fill="#f2f5e9" fill-opacity="0.5" stroke="#606060" stroke-width=".5" x="0" y="0" width="60" height="60"/>
  <use id="zoomplus" xlink:href="#zoomPlus" x="17" y="9" onmousedown="handleZoom(evt,'in')"/>
  <use id="zoomminus" xlink:href="#zoomMin" x="42" y="9" onmousedown="handleZoom(evt,'out')"/>
  <use id="reset" xlink:href="#resetDef" x="30" y="36" onmousedown="handleReset()"/>
   <use id="arrowup" xlink:href="#arrowUp" x="0" y="0" onmousedown="handlePan(0,-1)"/>
  <use id="arrowright" xlink:href="#arrowRight" x="0" y="0" onmousedown="handlePan(1,0)"/>
  <use id="arrowdown" xlink:href="#arrowDown" x="0" y="0" onmousedown="handlePan(0,1)"/>
  <use id="arrowleft" xlink:href="#arrowLeft" x="0" y="0" onmousedown="handlePan(-1,0)"/>
</g>
<svg viewBox="0 0 15 15" width="100%" height="30px" preserveAspectRatio="xMaxYMin meet">
 <g id="arrow_out" transform="scale(0.3 0.3)">
  <a xlink:href="class_state_machine__coll__graph_org.svg" target="_base">
   <rect id="button" ry="5" rx="5" y="6" x="6" height="38" width="38"
        fill="#f2f5e9" fill-opacity="0.5" stroke="#606060" stroke-width="1.0"/>
   <path id="arrow"
     d="M 11.500037,31.436501 C 11.940474,20.09759 22.043105,11.32322 32.158766,21.979434 L 37.068811,17.246167 C 37.068811,17.246167 37.088388,32 37.088388,32 L 22.160133,31.978069 C 22.160133,31.978069 26.997745,27.140456 26.997745,27.140456 C 18.528582,18.264221 13.291696,25.230495 11.500037,31.436501 z"
     style="fill:#404040;"/>
  </a>
 </g>
</svg>

<style type='text/css'>
<![CDATA[
[data-mouse-over-selected='false'] { opacity: 0.7; }
[data-mouse-over-selected='true']  { opacity: 1.0; }
]]>
</style>
<script type="application/ecmascript"><![CDATA[
document.addEventListener('DOMContentLoaded', (event) => {
  highlightEdges();
  highlightAdjacentNodes();
});
]]></script>
</svg>
