<?xml version="1.0" encoding="UTF-8" standalone="no"?>
<!DOCTYPE svg PUBLIC "-//W3C//DTD SVG 1.1//EN"
 "http://www.w3.org/Graphics/SVG/1.1/DTD/svg11.dtd">
<!-- Generated by graphviz version 12.1.0 (20240811.2233)
 -->
<!-- Title: Augment Pages: 1 -->
<svg width="259pt" height="429pt"
 viewBox="0.00 0.00 259.29 429.00" xmlns="http://www.w3.org/2000/svg" xmlns:xlink="http://www.w3.org/1999/xlink">
<g id="graph0" class="graph" transform="scale(1 1) rotate(0) translate(4 425)">
<title>Augment</title>
<!-- Node1 -->
<g id="Node000001" class="node">
<title>Node1</title>
<g id="a_Node000001"><a xlink:title=" ">
<polygon fill="#999999" stroke="none" points="174,-176 34,-176 34,0 174,0 174,-176"/>
<text text-anchor="start" x="84.5" y="-162.5" font-family="Helvetica,sans-Serif" font-size="10.00">Augment</text>
<text text-anchor="start" x="102.5" y="-146.5" font-family="Helvetica,sans-Serif" font-size="10.00"> </text>
<text text-anchor="start" x="38" y="-130.5" font-family="Helvetica,sans-Serif" font-size="10.00">+</text>
<text text-anchor="start" x="48" y="-130.5" font-family="Helvetica,sans-Serif" font-size="10.00">void Equip(SceneTree</text>
<text text-anchor="start" x="48" y="-118.5" font-family="Helvetica,sans-Serif" font-size="10.00"> sceneTree)</text>
<text text-anchor="start" x="38" y="-102.5" font-family="Helvetica,sans-Serif" font-size="10.00">+</text>
<text text-anchor="start" x="48" y="-102.5" font-family="Helvetica,sans-Serif" font-size="10.00">void UnEquip(SceneTree</text>
<text text-anchor="start" x="48" y="-90.5" font-family="Helvetica,sans-Serif" font-size="10.00"> sceneTree)</text>
<text text-anchor="start" x="38" y="-74.5" font-family="Helvetica,sans-Serif" font-size="10.00">+</text>
<text text-anchor="start" x="48" y="-74.5" font-family="Helvetica,sans-Serif" font-size="10.00">void BuildDescription()</text>
<text text-anchor="start" x="38" y="-58.5" font-family="Helvetica,sans-Serif" font-size="10.00">+</text>
<text text-anchor="start" x="48" y="-58.5" font-family="Helvetica,sans-Serif" font-size="10.00">AugmentEffect GetAugment</text>
<text text-anchor="start" x="48" y="-46.5" font-family="Helvetica,sans-Serif" font-size="10.00">Effect(int index)</text>
<text text-anchor="start" x="38" y="-30.5" font-family="Helvetica,sans-Serif" font-size="10.00">+</text>
<text text-anchor="start" x="48" y="-30.5" font-family="Helvetica,sans-Serif" font-size="10.00">void SetAugmentEffect</text>
<text text-anchor="start" x="48" y="-18.5" font-family="Helvetica,sans-Serif" font-size="10.00">(int index, AugmentEffect</text>
<text text-anchor="start" x="48" y="-6.5" font-family="Helvetica,sans-Serif" font-size="10.00"> augmentEffect)</text>
<polygon fill="#666666" stroke="#666666" points="34,-158 34,-158 174,-158 174,-158 34,-158"/>
<polygon fill="#666666" stroke="#666666" points="34,-142 34,-142 174,-142 174,-142 34,-142"/>
<polygon fill="none" stroke="#666666" points="34,0 34,-176 174,-176 174,0 34,0"/>
</a>
</g>
</g>
<!-- Node2 -->
<g id="Node000002" class="node">
<title>Node2</title>
<g id="a_Node000002"><a xlink:href="../../df/d00/class_resource.html" target="_top" xlink:title=" ">
<polygon fill="white" stroke="none" points="52,-421 0,-421 0,-369 52,-369 52,-421"/>
<text text-anchor="start" x="5" y="-407.5" font-family="Helvetica,sans-Serif" font-size="10.00">Resource</text>
<text text-anchor="start" x="24.5" y="-391.5" font-family="Helvetica,sans-Serif" font-size="10.00"> </text>
<text text-anchor="start" x="24.5" y="-375.5" font-family="Helvetica,sans-Serif" font-size="10.00"> </text>
<polygon fill="#666666" stroke="#666666" points="0,-403 0,-403 52,-403 52,-403 0,-403"/>
<polygon fill="#666666" stroke="#666666" points="0,-387 0,-387 52,-387 52,-387 0,-387"/>
<polygon fill="none" stroke="#666666" points="0,-369 0,-421 52,-421 52,-369 0,-369"/>
</a>
</g>
</g>
<!-- Node2&#45;&gt;Node1 -->
<g id="edge1_Node000001_Node000002" class="edge">
<title>Node2&#45;&gt;Node1</title>
<g id="a_edge1_Node000001_Node000002"><a xlink:title=" ">
<path fill="none" stroke="#63b8ff" d="M22.97,-358.23C21.06,-323.35 20.87,-269.11 33,-224 37.37,-207.76 43.93,-191.27 51.34,-175.66"/>
<polygon fill="none" stroke="#63b8ff" points="19.45,-358.01 23.57,-367.77 26.43,-357.57 19.45,-358.01"/>
</a>
</g>
</g>
<!-- Node4 -->
<g id="Node000004" class="node">
<title>Node4</title>
<g id="a_Node000004"><a xlink:href="../../d5/d2b/class_augment_effect.html" target="_top" xlink:title=" ">
<polygon fill="white" stroke="none" points="171.5,-332 42.5,-332 42.5,-224 171.5,-224 171.5,-332"/>
<text text-anchor="start" x="74.75" y="-318.5" font-family="Helvetica,sans-Serif" font-size="10.00">AugmentEffect</text>
<text text-anchor="start" x="105.5" y="-302.5" font-family="Helvetica,sans-Serif" font-size="10.00"> </text>
<text text-anchor="start" x="46.5" y="-286.5" font-family="Helvetica,sans-Serif" font-size="10.00">+</text>
<text text-anchor="start" x="56.5" y="-286.5" font-family="Helvetica,sans-Serif" font-size="10.00">virtual void Equip</text>
<text text-anchor="start" x="56.5" y="-274.5" font-family="Helvetica,sans-Serif" font-size="10.00">(SceneTree sceneTree)</text>
<text text-anchor="start" x="46.5" y="-258.5" font-family="Helvetica,sans-Serif" font-size="10.00">+</text>
<text text-anchor="start" x="56.5" y="-258.5" font-family="Helvetica,sans-Serif" font-size="10.00">virtual void UnEquip</text>
<text text-anchor="start" x="56.5" y="-246.5" font-family="Helvetica,sans-Serif" font-size="10.00">(SceneTree sceneTree)</text>
<text text-anchor="start" x="46.5" y="-230.5" font-family="Helvetica,sans-Serif" font-size="10.00">+</text>
<text text-anchor="start" x="56.5" y="-230.5" font-family="Helvetica,sans-Serif" font-size="10.00">virtual string Description()</text>
<polygon fill="#666666" stroke="#666666" points="42.5,-314 42.5,-314 171.5,-314 171.5,-314 42.5,-314"/>
<polygon fill="#666666" stroke="#666666" points="42.5,-298 42.5,-298 171.5,-298 171.5,-298 42.5,-298"/>
<polygon fill="none" stroke="#666666" points="42.5,-224 42.5,-332 171.5,-332 171.5,-224 42.5,-224"/>
</a>
</g>
</g>
<!-- Node2&#45;&gt;Node4 -->
<g id="edge4_Node000004_Node000002" class="edge">
<title>Node2&#45;&gt;Node4</title>
<g id="a_edge4_Node000004_Node000002"><a xlink:title=" ">
<path fill="none" stroke="#63b8ff" d="M50.05,-359.86C56.27,-351.03 63.11,-341.31 69.84,-331.76"/>
<polygon fill="none" stroke="#63b8ff" points="47.34,-357.62 44.45,-367.81 53.07,-361.65 47.34,-357.62"/>
</a>
</g>
</g>
<!-- Node3 -->
<g id="Node000003" class="node">
<title>Node3</title>
<g id="a_Node000003"><a xlink:title=" ">
<polygon fill="white" stroke="none" points="227,-304 193,-304 193,-252 227,-252 227,-304"/>
<text text-anchor="start" x="198" y="-290.5" font-family="Helvetica,sans-Serif" font-size="10.00">string</text>
<text text-anchor="start" x="208.5" y="-274.5" font-family="Helvetica,sans-Serif" font-size="10.00"> </text>
<text text-anchor="start" x="208.5" y="-258.5" font-family="Helvetica,sans-Serif" font-size="10.00"> </text>
<polygon fill="#666666" stroke="#666666" points="193,-286 193,-286 227,-286 227,-286 193,-286"/>
<polygon fill="#666666" stroke="#666666" points="193,-270 193,-270 227,-270 227,-270 193,-270"/>
<polygon fill="none" stroke="#666666" points="193,-252 193,-304 227,-304 227,-252 193,-252"/>
</a>
</g>
</g>
<!-- Node3&#45;&gt;Node1 -->
<g id="edge2_Node000001_Node000003" class="edge">
<title>Node3&#45;&gt;Node1</title>
<g id="a_edge2_Node000001_Node000003"><a xlink:title=" ">
<path fill="none" stroke="#63b8ff" d="M206.19,-252.06C202.93,-235.05 197.26,-212.37 188,-194 185.76,-189.55 183.31,-185.12 180.7,-180.73"/>
<polygon fill="none" stroke="#63b8ff" points="180.77,-180.84 174.19,-177.88 174.39,-170.67 180.97,-173.63 180.77,-180.84"/>
</a>
</g>
<text text-anchor="middle" x="222.04" y="-196.5" font-family="Helvetica,sans-Serif" font-size="10.00" fill="grey"> +Description</text>
</g>
<!-- Node4&#45;&gt;Node1 -->
<g id="edge3_Node000001_Node000004" class="edge">
<title>Node4&#45;&gt;Node1</title>
<g id="a_edge3_Node000001_Node000004"><a xlink:title=" ">
<path fill="none" stroke="#63b8ff" d="M105.84,-224.27C105.72,-218.11 105.6,-211.92 105.5,-206 105.4,-200.36 105.31,-194.57 105.22,-188.73"/>
<polygon fill="none" stroke="#63b8ff" points="105.22,-188.79 101.14,-182.85 105.05,-176.8 109.14,-182.74 105.22,-188.79"/>
</a>
</g>
<text text-anchor="middle" x="146.75" y="-196.5" font-family="Helvetica,sans-Serif" font-size="10.00" fill="grey"> +_augmentEffects</text>
</g>
</g>
</svg>
