<?xml version="1.0" encoding="UTF-8" standalone="no"?>
<!DOCTYPE svg PUBLIC "-//W3C//DTD SVG 1.1//EN"
 "http://www.w3.org/Graphics/SVG/1.1/DTD/svg11.dtd">
<!-- Generated by graphviz version 12.1.0 (20240811.2233)
 -->
<!-- Title: Vector2IJsonConverter Pages: 1 -->
<svg width="183pt" height="236pt"
 viewBox="0.00 0.00 183.00 236.00" xmlns="http://www.w3.org/2000/svg" xmlns:xlink="http://www.w3.org/1999/xlink">
<g id="graph0" class="graph" transform="scale(1 1) rotate(0) translate(4 232)">
<title>Vector2IJsonConverter</title>
<!-- Node1 -->
<g id="Node000001" class="node">
<title>Node1</title>
<g id="a_Node000001"><a xlink:title=" ">
<polygon fill="#999999" stroke="none" points="175,-140 0,-140 0,0 175,0 175,-140"/>
<text text-anchor="start" x="37.62" y="-126.5" font-family="Helvetica,sans-Serif" font-size="10.00">Vector2IJsonConverter</text>
<text text-anchor="start" x="86" y="-110.5" font-family="Helvetica,sans-Serif" font-size="10.00"> </text>
<text text-anchor="start" x="4" y="-94.5" font-family="Helvetica,sans-Serif" font-size="10.00">+</text>
<text text-anchor="start" x="14" y="-94.5" font-family="Helvetica,sans-Serif" font-size="10.00">override Vector2I Read</text>
<text text-anchor="start" x="14" y="-82.5" font-family="Helvetica,sans-Serif" font-size="10.00">(ref Utf8JsonReader reader,</text>
<text text-anchor="start" x="14" y="-70.5" font-family="Helvetica,sans-Serif" font-size="10.00"> Type typeToConvert, JsonSerializer</text>
<text text-anchor="start" x="14" y="-58.5" font-family="Helvetica,sans-Serif" font-size="10.00">Options options)</text>
<text text-anchor="start" x="4" y="-42.5" font-family="Helvetica,sans-Serif" font-size="10.00">+</text>
<text text-anchor="start" x="14" y="-42.5" font-family="Helvetica,sans-Serif" font-size="10.00">override void Write</text>
<text text-anchor="start" x="14" y="-30.5" font-family="Helvetica,sans-Serif" font-size="10.00">(Utf8JsonWriter writer,</text>
<text text-anchor="start" x="14" y="-18.5" font-family="Helvetica,sans-Serif" font-size="10.00"> Vector2I value, JsonSerializer</text>
<text text-anchor="start" x="14" y="-6.5" font-family="Helvetica,sans-Serif" font-size="10.00">Options options)</text>
<polygon fill="#666666" stroke="#666666" points="0,-122 0,-122 175,-122 175,-122 0,-122"/>
<polygon fill="#666666" stroke="#666666" points="0,-106 0,-106 175,-106 175,-106 0,-106"/>
<polygon fill="none" stroke="#666666" points="0,0 0,-140 175,-140 175,0 0,0"/>
</a>
</g>
</g>
<!-- Node2 -->
<g id="Node000002" class="node">
<title>Node2</title>
<g id="a_Node000002"><a xlink:href="../../db/d44/class_json_converter.html" target="_top" xlink:title=" ">
<polygon fill="white" stroke="none" points="151,-228 24,-228 24,-176 151,-176 151,-228"/>
<text text-anchor="start" x="28.62" y="-214.5" font-family="Helvetica,sans-Serif" font-size="10.00">JsonConverter&lt; Vector2I &gt;</text>
<text text-anchor="start" x="86" y="-198.5" font-family="Helvetica,sans-Serif" font-size="10.00"> </text>
<text text-anchor="start" x="86" y="-182.5" font-family="Helvetica,sans-Serif" font-size="10.00"> </text>
<polygon fill="#666666" stroke="#666666" points="24,-210 24,-210 151,-210 151,-210 24,-210"/>
<polygon fill="#666666" stroke="#666666" points="24,-194 24,-194 151,-194 151,-194 24,-194"/>
<polygon fill="none" stroke="#666666" points="24,-176 24,-228 151,-228 151,-176 24,-176"/>
</a>
</g>
</g>
<!-- Node2&#45;&gt;Node1 -->
<g id="edge1_Node000001_Node000002" class="edge">
<title>Node2&#45;&gt;Node1</title>
<g id="a_edge1_Node000001_Node000002"><a xlink:title=" ">
<path fill="none" stroke="#63b8ff" d="M87.5,-164.92C87.5,-157.04 87.5,-148.46 87.5,-139.78"/>
<polygon fill="none" stroke="#63b8ff" points="84,-164.73 87.5,-174.73 91,-164.73 84,-164.73"/>
</a>
</g>
</g>
</g>
</svg>
