<?xml version="1.0" encoding="UTF-8" standalone="no"?>
<!DOCTYPE svg PUBLIC "-//W3C//DTD SVG 1.1//EN"
 "http://www.w3.org/Graphics/SVG/1.1/DTD/svg11.dtd">
<!-- Generated by graphviz version 12.1.0 (20240811.2233)
 -->
<!-- Title: CastAdditionalSpell Pages: 1 -->
<svg width="146pt" height="320pt"
 viewBox="0.00 0.00 146.00 320.00" xmlns="http://www.w3.org/2000/svg" xmlns:xlink="http://www.w3.org/1999/xlink">

<svg id="main" version="1.1" xmlns="http://www.w3.org/2000/svg" xmlns:xlink="http://www.w3.org/1999/xlink" xml:space="preserve" onload="init(evt)">
<style type="text/css"><![CDATA[
.node, .edge {opacity: 0.7;}
.node.selected, .edge.selected {opacity: 1;}
.edge:hover path { stroke: red; }
.edge:hover polygon { stroke: red; fill: red; }
]]></style>
<script type="application/ecmascript" xlink:href="../../svg.min.js"/>
<svg id="graph" class="graph">
<g id="graph0" class="graph" transform="scale(1 1) rotate(0) translate(4 316)">
<title>CastAdditionalSpell</title>
<!-- Node1 -->
<g id="Node000001" class="node">
<title>Node1</title>
<g id="a_Node000001"><a xlink:title=" ">
<polygon fill="#999999" stroke="none" points="138,-80 0,-80 0,0 138,0 138,-80"/>
<text text-anchor="start" x="26.25" y="-66.5" font-family="Helvetica,sans-Serif" font-size="10.00">CastAdditionalSpell</text>
<text text-anchor="start" x="67.5" y="-50.5" font-family="Helvetica,sans-Serif" font-size="10.00"> </text>
<text text-anchor="start" x="4" y="-34.5" font-family="Helvetica,sans-Serif" font-size="10.00">+</text>
<text text-anchor="start" x="14" y="-34.5" font-family="Helvetica,sans-Serif" font-size="10.00">override void Equip</text>
<text text-anchor="start" x="14" y="-22.5" font-family="Helvetica,sans-Serif" font-size="10.00">(SceneTree sceneTree)</text>
<text text-anchor="start" x="4" y="-6.5" font-family="Helvetica,sans-Serif" font-size="10.00">+</text>
<text text-anchor="start" x="14" y="-6.5" font-family="Helvetica,sans-Serif" font-size="10.00">override string Description()</text>
<polygon fill="#666666" stroke="#666666" points="0,-62 0,-62 138,-62 138,-62 0,-62"/>
<polygon fill="#666666" stroke="#666666" points="0,-46 0,-46 138,-46 138,-46 0,-46"/>
<polygon fill="none" stroke="#666666" points="0,0 0,-80 138,-80 138,0 0,0"/>
</a>
</g>
</g>
<!-- Node2 -->
<g id="Node000002" class="node">
<title>Node2</title>
<g id="a_Node000002"><a xlink:href="../../d5/d2b/class_augment_effect.html" target="_top" xlink:title=" ">
<polygon fill="white" stroke="none" points="133.5,-224 4.5,-224 4.5,-116 133.5,-116 133.5,-224"/>
<text text-anchor="start" x="36.75" y="-210.5" font-family="Helvetica,sans-Serif" font-size="10.00">AugmentEffect</text>
<text text-anchor="start" x="67.5" y="-194.5" font-family="Helvetica,sans-Serif" font-size="10.00"> </text>
<text text-anchor="start" x="8.5" y="-178.5" font-family="Helvetica,sans-Serif" font-size="10.00">+</text>
<text text-anchor="start" x="18.5" y="-178.5" font-family="Helvetica,sans-Serif" font-size="10.00">virtual void Equip</text>
<text text-anchor="start" x="18.5" y="-166.5" font-family="Helvetica,sans-Serif" font-size="10.00">(SceneTree sceneTree)</text>
<text text-anchor="start" x="8.5" y="-150.5" font-family="Helvetica,sans-Serif" font-size="10.00">+</text>
<text text-anchor="start" x="18.5" y="-150.5" font-family="Helvetica,sans-Serif" font-size="10.00">virtual void UnEquip</text>
<text text-anchor="start" x="18.5" y="-138.5" font-family="Helvetica,sans-Serif" font-size="10.00">(SceneTree sceneTree)</text>
<text text-anchor="start" x="8.5" y="-122.5" font-family="Helvetica,sans-Serif" font-size="10.00">+</text>
<text text-anchor="start" x="18.5" y="-122.5" font-family="Helvetica,sans-Serif" font-size="10.00">virtual string Description()</text>
<polygon fill="#666666" stroke="#666666" points="4.5,-206 4.5,-206 133.5,-206 133.5,-206 4.5,-206"/>
<polygon fill="#666666" stroke="#666666" points="4.5,-190 4.5,-190 133.5,-190 133.5,-190 4.5,-190"/>
<polygon fill="none" stroke="#666666" points="4.5,-116 4.5,-224 133.5,-224 133.5,-116 4.5,-116"/>
</a>
</g>
</g>
<!-- Node2&#45;&gt;Node1 -->
<g id="edge1_Node000001_Node000002" class="edge">
<title>Node2&#45;&gt;Node1</title>
<g id="a_edge1_Node000001_Node000002"><a xlink:title=" ">
<path fill="none" stroke="#63b8ff" d="M69,-104.73C69,-96.28 69,-87.84 69,-79.99"/>
<polygon fill="none" stroke="#63b8ff" points="65.5,-104.68 69,-114.68 72.5,-104.68 65.5,-104.68"/>
</a>
</g>
</g>
<!-- Node3 -->
<g id="Node000003" class="node">
<title>Node3</title>
<g id="a_Node000003"><a xlink:href="../../df/d00/class_resource.html" target="_top" xlink:title=" ">
<polygon fill="white" stroke="none" points="95,-312 43,-312 43,-260 95,-260 95,-312"/>
<text text-anchor="start" x="48" y="-298.5" font-family="Helvetica,sans-Serif" font-size="10.00">Resource</text>
<text text-anchor="start" x="67.5" y="-282.5" font-family="Helvetica,sans-Serif" font-size="10.00"> </text>
<text text-anchor="start" x="67.5" y="-266.5" font-family="Helvetica,sans-Serif" font-size="10.00"> </text>
<polygon fill="#666666" stroke="#666666" points="43,-294 43,-294 95,-294 95,-294 43,-294"/>
<polygon fill="#666666" stroke="#666666" points="43,-278 43,-278 95,-278 95,-278 43,-278"/>
<polygon fill="none" stroke="#666666" points="43,-260 43,-312 95,-312 95,-260 43,-260"/>
</a>
</g>
</g>
<!-- Node3&#45;&gt;Node2 -->
<g id="edge2_Node000002_Node000003" class="edge">
<title>Node3&#45;&gt;Node2</title>
<g id="a_edge2_Node000002_Node000003"><a xlink:title=" ">
<path fill="none" stroke="#63b8ff" d="M69,-248.77C69,-240.81 69,-232.23 69,-223.77"/>
<polygon fill="none" stroke="#63b8ff" points="65.5,-248.75 69,-258.75 72.5,-248.75 65.5,-248.75"/>
</a>
</g>
</g>
</g>
</svg>
</svg>

<style type='text/css'>
<![CDATA[
[data-mouse-over-selected='false'] { opacity: 0.7; }
[data-mouse-over-selected='true']  { opacity: 1.0; }
]]>
</style>
<script type="application/ecmascript"><![CDATA[
document.addEventListener('DOMContentLoaded', (event) => {
  highlightEdges();
  highlightAdjacentNodes();
});
]]></script>
</svg>
