<?xml version="1.0" encoding="UTF-8" standalone="no"?>
<!DOCTYPE svg PUBLIC "-//W3C//DTD SVG 1.1//EN"
 "http://www.w3.org/Graphics/SVG/1.1/DTD/svg11.dtd">
<!-- Generated by graphviz version 12.1.0 (20240811.2233)
 -->
<!-- Title: MainGame Pages: 1 -->
<svg width="274pt" height="578pt"
 viewBox="0.00 0.00 273.50 578.00" xmlns="http://www.w3.org/2000/svg" xmlns:xlink="http://www.w3.org/1999/xlink">
<g id="graph0" class="graph" transform="scale(1 1) rotate(0) translate(4 574)">
<title>MainGame</title>
<!-- Node1 -->
<g id="Node000001" class="node">
<title>Node1</title>
<g id="a_Node000001"><a xlink:title=" ">
<polygon fill="#999999" stroke="none" points="141,-80 25,-80 25,0 141,0 141,-80"/>
<text text-anchor="start" x="59.38" y="-66.5" font-family="Helvetica,sans-Serif" font-size="10.00">MainGame</text>
<text text-anchor="start" x="81.5" y="-50.5" font-family="Helvetica,sans-Serif" font-size="10.00"> </text>
<text text-anchor="start" x="29" y="-34.5" font-family="Helvetica,sans-Serif" font-size="10.00">+</text>
<text text-anchor="start" x="39" y="-34.5" font-family="Helvetica,sans-Serif" font-size="10.00">override void _Ready()</text>
<text text-anchor="start" x="29" y="-18.5" font-family="Helvetica,sans-Serif" font-size="10.00">+</text>
<text text-anchor="start" x="39" y="-18.5" font-family="Helvetica,sans-Serif" font-size="10.00">override void _Input</text>
<text text-anchor="start" x="39" y="-6.5" font-family="Helvetica,sans-Serif" font-size="10.00">(InputEvent @event)</text>
<polygon fill="#666666" stroke="#666666" points="25,-62 25,-62 141,-62 141,-62 25,-62"/>
<polygon fill="#666666" stroke="#666666" points="25,-46 25,-46 141,-46 141,-46 25,-46"/>
<polygon fill="none" stroke="#666666" points="25,0 25,-80 141,-80 141,0 25,0"/>
</a>
</g>
</g>
<!-- Node2 -->
<g id="Node000002" class="node">
<title>Node2</title>
<g id="a_Node000002"><a xlink:href="../../d9/dc5/class_base_menu.html" target="_top" xlink:title=" ">
<polygon fill="white" stroke="none" points="166,-269 0,-269 0,-117 166,-117 166,-269"/>
<text text-anchor="start" x="59.75" y="-255.5" font-family="Helvetica,sans-Serif" font-size="10.00">BaseMenu</text>
<text text-anchor="start" x="4" y="-239.5" font-family="Helvetica,sans-Serif" font-size="10.00">+</text>
<text text-anchor="start" x="14" y="-239.5" font-family="Helvetica,sans-Serif" font-size="10.00">MenuManager.MenuType</text>
<text text-anchor="start" x="14" y="-227.5" font-family="Helvetica,sans-Serif" font-size="10.00"> MenuType</text>
<text text-anchor="start" x="4" y="-211.5" font-family="Helvetica,sans-Serif" font-size="10.00">+</text>
<text text-anchor="start" x="14" y="-211.5" font-family="Helvetica,sans-Serif" font-size="10.00">override void _Ready()</text>
<text text-anchor="start" x="4" y="-195.5" font-family="Helvetica,sans-Serif" font-size="10.00">+</text>
<text text-anchor="start" x="14" y="-195.5" font-family="Helvetica,sans-Serif" font-size="10.00">void PushMenu(MenuManager.</text>
<text text-anchor="start" x="14" y="-183.5" font-family="Helvetica,sans-Serif" font-size="10.00">MenuType newMenu)</text>
<text text-anchor="start" x="4" y="-167.5" font-family="Helvetica,sans-Serif" font-size="10.00">+</text>
<text text-anchor="start" x="14" y="-167.5" font-family="Helvetica,sans-Serif" font-size="10.00">void PopMenu()</text>
<text text-anchor="start" x="4" y="-151.5" font-family="Helvetica,sans-Serif" font-size="10.00">+</text>
<text text-anchor="start" x="14" y="-151.5" font-family="Helvetica,sans-Serif" font-size="10.00">void SetRootMenu(MenuManager.</text>
<text text-anchor="start" x="14" y="-139.5" font-family="Helvetica,sans-Serif" font-size="10.00">MenuType newMenu)</text>
<text text-anchor="start" x="4.38" y="-123.5" font-family="Helvetica,sans-Serif" font-size="10.00">#</text>
<text text-anchor="start" x="14" y="-123.5" font-family="Helvetica,sans-Serif" font-size="10.00">virtual void SetupMenu()</text>
<polygon fill="#666666" stroke="#666666" points="0,-251 0,-251 166,-251 166,-251 0,-251"/>
<polygon fill="#666666" stroke="#666666" points="0,-223 0,-223 12,-223 12,-223 0,-223"/>
<polygon fill="#666666" stroke="#666666" points="12,-223 12,-223 166,-223 166,-223 12,-223"/>
<polygon fill="none" stroke="#666666" points="0,-117 0,-269 166,-269 166,-117 0,-117"/>
</a>
</g>
</g>
<!-- Node2&#45;&gt;Node1 -->
<g id="edge1_Node000001_Node000002" class="edge">
<title>Node2&#45;&gt;Node1</title>
<g id="a_edge1_Node000001_Node000002"><a xlink:title=" ">
<path fill="none" stroke="#63b8ff" d="M83,-106.07C83,-96.86 83,-87.85 83,-79.62"/>
<polygon fill="none" stroke="#63b8ff" points="79.5,-105.87 83,-115.87 86.5,-105.87 79.5,-105.87"/>
</a>
</g>
</g>
<!-- Node3 -->
<g id="Node000003" class="node">
<title>Node3</title>
<g id="a_Node000003"><a xlink:href="../../d4/dc3/class_canvas_layer.html" target="_top" xlink:title=" ">
<polygon fill="white" stroke="none" points="74.5,-425 7.5,-425 7.5,-373 74.5,-373 74.5,-425"/>
<text text-anchor="start" x="12.12" y="-411.5" font-family="Helvetica,sans-Serif" font-size="10.00">CanvasLayer</text>
<text text-anchor="start" x="39.5" y="-395.5" font-family="Helvetica,sans-Serif" font-size="10.00"> </text>
<text text-anchor="start" x="39.5" y="-379.5" font-family="Helvetica,sans-Serif" font-size="10.00"> </text>
<polygon fill="#666666" stroke="#666666" points="7.5,-407 7.5,-407 74.5,-407 74.5,-407 7.5,-407"/>
<polygon fill="#666666" stroke="#666666" points="7.5,-391 7.5,-391 74.5,-391 74.5,-391 7.5,-391"/>
<polygon fill="none" stroke="#666666" points="7.5,-373 7.5,-425 74.5,-425 74.5,-373 7.5,-373"/>
</a>
</g>
</g>
<!-- Node3&#45;&gt;Node2 -->
<g id="edge2_Node000002_Node000003" class="edge">
<title>Node3&#45;&gt;Node2</title>
<g id="a_edge2_Node000002_Node000003"><a xlink:title=" ">
<path fill="none" stroke="#63b8ff" d="M48.35,-362.29C53.67,-336.48 61.03,-300.69 67.61,-268.74"/>
<polygon fill="none" stroke="#63b8ff" points="44.96,-361.41 46.37,-371.91 51.82,-362.82 44.96,-361.41"/>
</a>
</g>
</g>
<!-- Node4 -->
<g id="Node000004" class="node">
<title>Node4</title>
<g id="a_Node000004"><a xlink:href="../../d9/db2/class_menu_manager.html" target="_top" xlink:title=" ">
<polygon fill="white" stroke="none" points="265.5,-481 92.5,-481 92.5,-317 265.5,-317 265.5,-481"/>
<text text-anchor="start" x="148.25" y="-467.5" font-family="Helvetica,sans-Serif" font-size="10.00">MenuManager</text>
<text text-anchor="start" x="96.5" y="-451.5" font-family="Helvetica,sans-Serif" font-size="10.00">+</text>
<text text-anchor="start" x="106.5" y="-451.5" font-family="Helvetica,sans-Serif" font-size="10.00">MenuType CurrentMenu</text>
<text text-anchor="start" x="96.5" y="-435.5" font-family="Helvetica,sans-Serif" font-size="10.00">+</text>
<text text-anchor="start" x="106.5" y="-435.5" font-family="Helvetica,sans-Serif" font-size="10.00">delegate void MenuChanged</text>
<text text-anchor="start" x="106.5" y="-423.5" font-family="Helvetica,sans-Serif" font-size="10.00">EventHandler(MenuType newMenu,</text>
<text text-anchor="start" x="106.5" y="-411.5" font-family="Helvetica,sans-Serif" font-size="10.00"> bool isPush)</text>
<text text-anchor="start" x="96.5" y="-395.5" font-family="Helvetica,sans-Serif" font-size="10.00">+</text>
<text text-anchor="start" x="106.5" y="-395.5" font-family="Helvetica,sans-Serif" font-size="10.00">override void _Ready()</text>
<text text-anchor="start" x="96.5" y="-379.5" font-family="Helvetica,sans-Serif" font-size="10.00">+</text>
<text text-anchor="start" x="106.5" y="-379.5" font-family="Helvetica,sans-Serif" font-size="10.00">void PushMenu(MenuType</text>
<text text-anchor="start" x="106.5" y="-367.5" font-family="Helvetica,sans-Serif" font-size="10.00"> newMenu)</text>
<text text-anchor="start" x="96.5" y="-351.5" font-family="Helvetica,sans-Serif" font-size="10.00">+</text>
<text text-anchor="start" x="106.5" y="-351.5" font-family="Helvetica,sans-Serif" font-size="10.00">void PopMenu()</text>
<text text-anchor="start" x="96.5" y="-335.5" font-family="Helvetica,sans-Serif" font-size="10.00">+</text>
<text text-anchor="start" x="106.5" y="-335.5" font-family="Helvetica,sans-Serif" font-size="10.00">void SetRootMenu(MenuType</text>
<text text-anchor="start" x="106.5" y="-323.5" font-family="Helvetica,sans-Serif" font-size="10.00"> newMenu)</text>
<polygon fill="#666666" stroke="#666666" points="92.5,-463 92.5,-463 265.5,-463 265.5,-463 92.5,-463"/>
<polygon fill="#666666" stroke="#666666" points="92.5,-447 92.5,-447 104.5,-447 104.5,-447 92.5,-447"/>
<polygon fill="#666666" stroke="#666666" points="104.5,-447 104.5,-447 265.5,-447 265.5,-447 104.5,-447"/>
<polygon fill="none" stroke="#666666" points="92.5,-317 92.5,-481 265.5,-481 265.5,-317 92.5,-317"/>
</a>
</g>
</g>
<!-- Node4&#45;&gt;Node2 -->
<g id="edge3_Node000002_Node000004" class="edge">
<title>Node4&#45;&gt;Node2</title>
<g id="a_edge3_Node000002_Node000004"><a xlink:title=" ">
<path fill="none" stroke="#63b8ff" d="M140.92,-317.08C135.25,-305.03 129.38,-292.56 123.66,-280.4"/>
<polygon fill="none" stroke="#63b8ff" points="123.72,-280.53 117.54,-276.8 118.61,-269.67 124.78,-273.39 123.72,-280.53"/>
</a>
</g>
<text text-anchor="middle" x="165.88" y="-289.5" font-family="Helvetica,sans-Serif" font-size="10.00" fill="grey"> #MenuManager</text>
</g>
<!-- Node5 -->
<g id="Node000005" class="node">
<title>Node5</title>
<g id="a_Node000005"><a xlink:href="../../dc/d8f/class_node.html" target="_top" xlink:title=" ">
<polygon fill="white" stroke="none" points="195.5,-570 162.5,-570 162.5,-518 195.5,-518 195.5,-570"/>
<text text-anchor="start" x="167.38" y="-556.5" font-family="Helvetica,sans-Serif" font-size="10.00">Node</text>
<text text-anchor="start" x="177.5" y="-540.5" font-family="Helvetica,sans-Serif" font-size="10.00"> </text>
<text text-anchor="start" x="177.5" y="-524.5" font-family="Helvetica,sans-Serif" font-size="10.00"> </text>
<polygon fill="#666666" stroke="#666666" points="162.5,-552 162.5,-552 195.5,-552 195.5,-552 162.5,-552"/>
<polygon fill="#666666" stroke="#666666" points="162.5,-536 162.5,-536 195.5,-536 195.5,-536 162.5,-536"/>
<polygon fill="none" stroke="#666666" points="162.5,-518 162.5,-570 195.5,-570 195.5,-518 162.5,-518"/>
</a>
</g>
</g>
<!-- Node5&#45;&gt;Node4 -->
<g id="edge4_Node000004_Node000005" class="edge">
<title>Node5&#45;&gt;Node4</title>
<g id="a_edge4_Node000004_Node000005"><a xlink:title=" ">
<path fill="none" stroke="#63b8ff" d="M179,-506.61C179,-498.61 179,-489.82 179,-480.83"/>
<polygon fill="none" stroke="#63b8ff" points="175.5,-506.58 179,-516.58 182.5,-506.58 175.5,-506.58"/>
</a>
</g>
</g>
</g>
</svg>
