<?xml version="1.0" encoding="UTF-8" standalone="no"?>
<!DOCTYPE svg PUBLIC "-//W3C//DTD SVG 1.1//EN"
 "http://www.w3.org/Graphics/SVG/1.1/DTD/svg11.dtd">
<!-- Generated by graphviz version 12.1.0 (20240811.2233)
 -->
<!-- Title: HurtBoxStompingAttack Pages: 1 -->
<svg width="161pt" height="292pt"
 viewBox="0.00 0.00 161.00 292.00" xmlns="http://www.w3.org/2000/svg" xmlns:xlink="http://www.w3.org/1999/xlink">
<g id="graph0" class="graph" transform="scale(1 1) rotate(0) translate(4 288)">
<title>HurtBoxStompingAttack</title>
<!-- Node1 -->
<g id="Node000001" class="node">
<title>Node1</title>
<g id="a_Node000001"><a xlink:title=" ">
<polygon fill="#999999" stroke="none" points="153,-196 0,-196 0,0 153,0 153,-196"/>
<text text-anchor="start" x="23.62" y="-182.5" font-family="Helvetica,sans-Serif" font-size="10.00">HurtBoxStompingAttack</text>
<text text-anchor="start" x="4" y="-166.5" font-family="Helvetica,sans-Serif" font-size="10.00">+</text>
<text text-anchor="start" x="14" y="-166.5" font-family="Helvetica,sans-Serif" font-size="10.00">Timer timer</text>
<text text-anchor="start" x="4" y="-150.5" font-family="Helvetica,sans-Serif" font-size="10.00">+</text>
<text text-anchor="start" x="14" y="-150.5" font-family="Helvetica,sans-Serif" font-size="10.00">override void _Ready()</text>
<text text-anchor="start" x="4" y="-134.5" font-family="Helvetica,sans-Serif" font-size="10.00">+</text>
<text text-anchor="start" x="14" y="-134.5" font-family="Helvetica,sans-Serif" font-size="10.00">override void _PhysicsProcess</text>
<text text-anchor="start" x="14" y="-122.5" font-family="Helvetica,sans-Serif" font-size="10.00">(double delta)</text>
<text text-anchor="start" x="4" y="-106.5" font-family="Helvetica,sans-Serif" font-size="10.00">+</text>
<text text-anchor="start" x="14" y="-106.5" font-family="Helvetica,sans-Serif" font-size="10.00">void OnAreaEntered</text>
<text text-anchor="start" x="14" y="-94.5" font-family="Helvetica,sans-Serif" font-size="10.00">(Area2D area)</text>
<text text-anchor="start" x="4" y="-78.5" font-family="Helvetica,sans-Serif" font-size="10.00">+</text>
<text text-anchor="start" x="14" y="-78.5" font-family="Helvetica,sans-Serif" font-size="10.00">void SetAttack(Attack</text>
<text text-anchor="start" x="14" y="-66.5" font-family="Helvetica,sans-Serif" font-size="10.00"> attack)</text>
<text text-anchor="start" x="4" y="-50.5" font-family="Helvetica,sans-Serif" font-size="10.00">+</text>
<text text-anchor="start" x="14" y="-50.5" font-family="Helvetica,sans-Serif" font-size="10.00">void StartAttack(Attack</text>
<text text-anchor="start" x="14" y="-38.5" font-family="Helvetica,sans-Serif" font-size="10.00"> attack, double delayTime)</text>
<text text-anchor="start" x="4" y="-22.5" font-family="Helvetica,sans-Serif" font-size="10.00">+</text>
<text text-anchor="start" x="14" y="-22.5" font-family="Helvetica,sans-Serif" font-size="10.00">void EndAttack()</text>
<text text-anchor="start" x="4" y="-6.5" font-family="Helvetica,sans-Serif" font-size="10.00">+</text>
<text text-anchor="start" x="14" y="-6.5" font-family="Helvetica,sans-Serif" font-size="10.00">void OnTimerTimeout()</text>
<polygon fill="#666666" stroke="#666666" points="0,-178 0,-178 153,-178 153,-178 0,-178"/>
<polygon fill="#666666" stroke="#666666" points="0,-162 0,-162 12,-162 12,-162 0,-162"/>
<polygon fill="#666666" stroke="#666666" points="12,-162 12,-162 153,-162 153,-162 12,-162"/>
<polygon fill="none" stroke="#666666" points="0,0 0,-196 153,-196 153,0 0,0"/>
</a>
</g>
</g>
<!-- Node2 -->
<g id="Node000002" class="node">
<title>Node2</title>
<g id="a_Node000002"><a xlink:href="../../dc/df8/class_area2_d.html" target="_top" xlink:title=" ">
<polygon fill="white" stroke="none" points="98,-284 55,-284 55,-232 98,-232 98,-284"/>
<text text-anchor="start" x="60" y="-270.5" font-family="Helvetica,sans-Serif" font-size="10.00">Area2D</text>
<text text-anchor="start" x="75" y="-254.5" font-family="Helvetica,sans-Serif" font-size="10.00"> </text>
<text text-anchor="start" x="75" y="-238.5" font-family="Helvetica,sans-Serif" font-size="10.00"> </text>
<polygon fill="#666666" stroke="#666666" points="55,-266 55,-266 98,-266 98,-266 55,-266"/>
<polygon fill="#666666" stroke="#666666" points="55,-250 55,-250 98,-250 98,-250 55,-250"/>
<polygon fill="none" stroke="#666666" points="55,-232 55,-284 98,-284 98,-232 55,-232"/>
</a>
</g>
</g>
<!-- Node2&#45;&gt;Node1 -->
<g id="edge1_Node000001_Node000002" class="edge">
<title>Node2&#45;&gt;Node1</title>
<g id="a_edge1_Node000001_Node000002"><a xlink:title=" ">
<path fill="none" stroke="#63b8ff" d="M76.5,-220.88C76.5,-213.15 76.5,-204.63 76.5,-195.8"/>
<polygon fill="none" stroke="#63b8ff" points="73,-220.8 76.5,-230.8 80,-220.8 73,-220.8"/>
</a>
</g>
</g>
</g>
</svg>
