<?xml version="1.0" encoding="UTF-8" standalone="no"?>
<!DOCTYPE svg PUBLIC "-//W3C//DTD SVG 1.1//EN"
 "http://www.w3.org/Graphics/SVG/1.1/DTD/svg11.dtd">
<!-- Generated by graphviz version 12.1.0 (20240811.2233)
 -->
<!-- Title: MainGame Pages: 1 -->
<svg width="174pt" height="380pt"
 viewBox="0.00 0.00 174.00 380.00" xmlns="http://www.w3.org/2000/svg" xmlns:xlink="http://www.w3.org/1999/xlink">

<svg id="main" version="1.1" xmlns="http://www.w3.org/2000/svg" xmlns:xlink="http://www.w3.org/1999/xlink" xml:space="preserve" onload="init(evt)">
<style type="text/css"><![CDATA[
.node, .edge {opacity: 0.7;}
.node.selected, .edge.selected {opacity: 1;}
.edge:hover path { stroke: red; }
.edge:hover polygon { stroke: red; fill: red; }
]]></style>
<script type="application/ecmascript" xlink:href="../../svg.min.js"/>
<svg id="graph" class="graph">
<g id="graph0" class="graph" transform="scale(1 1) rotate(0) translate(4 376)">
<title>MainGame</title>
<!-- Node1 -->
<g id="Node000001" class="node">
<title>Node1</title>
<g id="a_Node000001"><a xlink:title=" ">
<polygon fill="#999999" stroke="none" points="141,-80 25,-80 25,0 141,0 141,-80"/>
<text text-anchor="start" x="59.38" y="-66.5" font-family="Helvetica,sans-Serif" font-size="10.00">MainGame</text>
<text text-anchor="start" x="81.5" y="-50.5" font-family="Helvetica,sans-Serif" font-size="10.00"> </text>
<text text-anchor="start" x="29" y="-34.5" font-family="Helvetica,sans-Serif" font-size="10.00">+</text>
<text text-anchor="start" x="39" y="-34.5" font-family="Helvetica,sans-Serif" font-size="10.00">override void _Ready()</text>
<text text-anchor="start" x="29" y="-18.5" font-family="Helvetica,sans-Serif" font-size="10.00">+</text>
<text text-anchor="start" x="39" y="-18.5" font-family="Helvetica,sans-Serif" font-size="10.00">override void _Input</text>
<text text-anchor="start" x="39" y="-6.5" font-family="Helvetica,sans-Serif" font-size="10.00">(InputEvent @event)</text>
<polygon fill="#666666" stroke="#666666" points="25,-62 25,-62 141,-62 141,-62 25,-62"/>
<polygon fill="#666666" stroke="#666666" points="25,-46 25,-46 141,-46 141,-46 25,-46"/>
<polygon fill="none" stroke="#666666" points="25,0 25,-80 141,-80 141,0 25,0"/>
</a>
</g>
</g>
<!-- Node2 -->
<g id="Node000002" class="node">
<title>Node2</title>
<g id="a_Node000002"><a xlink:href="../../d9/dc5/class_base_menu.html" target="_top" xlink:title=" ">
<polygon fill="white" stroke="none" points="166,-284 0,-284 0,-116 166,-116 166,-284"/>
<text text-anchor="start" x="59.75" y="-270.5" font-family="Helvetica,sans-Serif" font-size="10.00">BaseMenu</text>
<text text-anchor="start" x="4" y="-254.5" font-family="Helvetica,sans-Serif" font-size="10.00">+</text>
<text text-anchor="start" x="14" y="-254.5" font-family="Helvetica,sans-Serif" font-size="10.00">MenuManager.MenuType</text>
<text text-anchor="start" x="14" y="-242.5" font-family="Helvetica,sans-Serif" font-size="10.00"> MenuType</text>
<text text-anchor="start" x="4.38" y="-226.5" font-family="Helvetica,sans-Serif" font-size="10.00">#</text>
<text text-anchor="start" x="14" y="-226.5" font-family="Helvetica,sans-Serif" font-size="10.00">MenuManager MenuManager</text>
<text text-anchor="start" x="4" y="-210.5" font-family="Helvetica,sans-Serif" font-size="10.00">+</text>
<text text-anchor="start" x="14" y="-210.5" font-family="Helvetica,sans-Serif" font-size="10.00">override void _Ready()</text>
<text text-anchor="start" x="4" y="-194.5" font-family="Helvetica,sans-Serif" font-size="10.00">+</text>
<text text-anchor="start" x="14" y="-194.5" font-family="Helvetica,sans-Serif" font-size="10.00">void PushMenu(MenuManager.</text>
<text text-anchor="start" x="14" y="-182.5" font-family="Helvetica,sans-Serif" font-size="10.00">MenuType newMenu)</text>
<text text-anchor="start" x="4" y="-166.5" font-family="Helvetica,sans-Serif" font-size="10.00">+</text>
<text text-anchor="start" x="14" y="-166.5" font-family="Helvetica,sans-Serif" font-size="10.00">void PopMenu()</text>
<text text-anchor="start" x="4" y="-150.5" font-family="Helvetica,sans-Serif" font-size="10.00">+</text>
<text text-anchor="start" x="14" y="-150.5" font-family="Helvetica,sans-Serif" font-size="10.00">void SetRootMenu(MenuManager.</text>
<text text-anchor="start" x="14" y="-138.5" font-family="Helvetica,sans-Serif" font-size="10.00">MenuType newMenu)</text>
<text text-anchor="start" x="4.38" y="-122.5" font-family="Helvetica,sans-Serif" font-size="10.00">#</text>
<text text-anchor="start" x="14" y="-122.5" font-family="Helvetica,sans-Serif" font-size="10.00">virtual void SetupMenu()</text>
<polygon fill="#666666" stroke="#666666" points="0,-266 0,-266 166,-266 166,-266 0,-266"/>
<polygon fill="#666666" stroke="#666666" points="0,-222 0,-222 12,-222 12,-222 0,-222"/>
<polygon fill="#666666" stroke="#666666" points="12,-222 12,-222 166,-222 166,-222 12,-222"/>
<polygon fill="none" stroke="#666666" points="0,-116 0,-284 166,-284 166,-116 0,-116"/>
</a>
</g>
</g>
<!-- Node2&#45;&gt;Node1 -->
<g id="edge1_Node000001_Node000002" class="edge">
<title>Node2&#45;&gt;Node1</title>
<g id="a_edge1_Node000001_Node000002"><a xlink:title=" ">
<path fill="none" stroke="#63b8ff" d="M83,-105.06C83,-96.27 83,-87.74 83,-79.92"/>
<polygon fill="none" stroke="#63b8ff" points="79.5,-104.78 83,-114.78 86.5,-104.78 79.5,-104.78"/>
</a>
</g>
</g>
<!-- Node3 -->
<g id="Node000003" class="node">
<title>Node3</title>
<g id="a_Node000003"><a xlink:href="../../d4/dc3/class_canvas_layer.html" target="_top" xlink:title=" ">
<polygon fill="white" stroke="none" points="116.5,-372 49.5,-372 49.5,-320 116.5,-320 116.5,-372"/>
<text text-anchor="start" x="54.12" y="-358.5" font-family="Helvetica,sans-Serif" font-size="10.00">CanvasLayer</text>
<text text-anchor="start" x="81.5" y="-342.5" font-family="Helvetica,sans-Serif" font-size="10.00"> </text>
<text text-anchor="start" x="81.5" y="-326.5" font-family="Helvetica,sans-Serif" font-size="10.00"> </text>
<polygon fill="#666666" stroke="#666666" points="49.5,-354 49.5,-354 116.5,-354 116.5,-354 49.5,-354"/>
<polygon fill="#666666" stroke="#666666" points="49.5,-338 49.5,-338 116.5,-338 116.5,-338 49.5,-338"/>
<polygon fill="none" stroke="#666666" points="49.5,-320 49.5,-372 116.5,-372 116.5,-320 49.5,-320"/>
</a>
</g>
</g>
<!-- Node3&#45;&gt;Node2 -->
<g id="edge2_Node000002_Node000003" class="edge">
<title>Node3&#45;&gt;Node2</title>
<g id="a_edge2_Node000002_Node000003"><a xlink:title=" ">
<path fill="none" stroke="#63b8ff" d="M83,-308.79C83,-301.07 83,-292.61 83,-283.94"/>
<polygon fill="none" stroke="#63b8ff" points="79.5,-308.73 83,-318.73 86.5,-308.73 79.5,-308.73"/>
</a>
</g>
</g>
</g>
</svg>
</svg>

<style type='text/css'>
<![CDATA[
[data-mouse-over-selected='false'] { opacity: 0.7; }
[data-mouse-over-selected='true']  { opacity: 1.0; }
]]>
</style>
<script type="application/ecmascript"><![CDATA[
document.addEventListener('DOMContentLoaded', (event) => {
  highlightEdges();
  highlightAdjacentNodes();
});
]]></script>
</svg>
