<?xml version="1.0" encoding="UTF-8" standalone="no"?>
<!DOCTYPE svg PUBLIC "-//W3C//DTD SVG 1.1//EN"
 "http://www.w3.org/Graphics/SVG/1.1/DTD/svg11.dtd">
<!-- Generated by graphviz version 12.1.0 (20240811.2233)
 -->
<!-- Title: Room1 Pages: 1 -->
<svg width="124pt" height="148pt"
 viewBox="0.00 0.00 124.00 148.00" xmlns="http://www.w3.org/2000/svg" xmlns:xlink="http://www.w3.org/1999/xlink">
<g id="graph0" class="graph" transform="scale(1 1) rotate(0) translate(4 144)">
<title>Room1</title>
<!-- Node1 -->
<g id="Node000001" class="node">
<title>Node1</title>
<g id="a_Node000001"><a xlink:title=" ">
<polygon fill="#999999" stroke="none" points="116,-52 0,-52 0,0 116,0 116,-52"/>
<text text-anchor="start" x="42.25" y="-38.5" font-family="Helvetica,sans-Serif" font-size="10.00">Room1</text>
<text text-anchor="start" x="56.5" y="-22.5" font-family="Helvetica,sans-Serif" font-size="10.00"> </text>
<text text-anchor="start" x="4" y="-6.5" font-family="Helvetica,sans-Serif" font-size="10.00">+</text>
<text text-anchor="start" x="14" y="-6.5" font-family="Helvetica,sans-Serif" font-size="10.00">override void _Ready()</text>
<polygon fill="#666666" stroke="#666666" points="0,-34 0,-34 116,-34 116,-34 0,-34"/>
<polygon fill="#666666" stroke="#666666" points="0,-18 0,-18 116,-18 116,-18 0,-18"/>
<polygon fill="none" stroke="#666666" points="0,0 0,-52 116,-52 116,0 0,0"/>
</a>
</g>
</g>
<!-- Node2 -->
<g id="Node000002" class="node">
<title>Node2</title>
<g id="a_Node000002"><a xlink:title=" ">
<polygon fill="white" stroke="none" points="81,-140 35,-140 35,-88 81,-88 81,-140"/>
<text text-anchor="start" x="40" y="-126.5" font-family="Helvetica,sans-Serif" font-size="10.00">Node2D</text>
<text text-anchor="start" x="56.5" y="-110.5" font-family="Helvetica,sans-Serif" font-size="10.00"> </text>
<text text-anchor="start" x="56.5" y="-94.5" font-family="Helvetica,sans-Serif" font-size="10.00"> </text>
<polygon fill="#666666" stroke="#666666" points="35,-122 35,-122 81,-122 81,-122 35,-122"/>
<polygon fill="#666666" stroke="#666666" points="35,-106 35,-106 81,-106 81,-106 35,-106"/>
<polygon fill="none" stroke="#666666" points="35,-88 35,-140 81,-140 81,-88 35,-88"/>
</a>
</g>
</g>
<!-- Node2&#45;&gt;Node1 -->
<g id="edge1_Node000001_Node000002" class="edge">
<title>Node2&#45;&gt;Node1</title>
<g id="a_edge1_Node000001_Node000002"><a xlink:title=" ">
<path fill="none" stroke="#63b8ff" d="M58,-76.66C58,-68.29 58,-59.57 58,-51.82"/>
<polygon fill="none" stroke="#63b8ff" points="54.5,-76.61 58,-86.61 61.5,-76.61 54.5,-76.61"/>
</a>
</g>
</g>
</g>
</svg>
