<?xml version="1.0" encoding="UTF-8" standalone="no"?>
<!DOCTYPE svg PUBLIC "-//W3C//DTD SVG 1.1//EN"
 "http://www.w3.org/Graphics/SVG/1.1/DTD/svg11.dtd">
<!-- Generated by graphviz version 12.1.0 (20240811.2233)
 -->
<!-- Title: UnicornChargeAttack Pages: 1 -->
<svg width="269pt" height="468pt"
 viewBox="0.00 0.00 269.22 468.00" xmlns="http://www.w3.org/2000/svg" xmlns:xlink="http://www.w3.org/1999/xlink">
<g id="graph0" class="graph" transform="scale(1 1) rotate(0) translate(4 464)">
<title>UnicornChargeAttack</title>
<!-- Node1 -->
<g id="Node000001" class="node">
<title>Node1</title>
<g id="a_Node000001"><a xlink:title=" ">
<polygon fill="#999999" stroke="none" points="209.5,-128 47.5,-128 47.5,0 209.5,0 209.5,-128"/>
<text text-anchor="start" x="81.62" y="-114.5" font-family="Helvetica,sans-Serif" font-size="10.00">UnicornChargeAttack</text>
<text text-anchor="start" x="127" y="-98.5" font-family="Helvetica,sans-Serif" font-size="10.00"> </text>
<text text-anchor="start" x="51.5" y="-82.5" font-family="Helvetica,sans-Serif" font-size="10.00">+</text>
<text text-anchor="start" x="61.5" y="-82.5" font-family="Helvetica,sans-Serif" font-size="10.00">override void _Ready()</text>
<text text-anchor="start" x="51.5" y="-66.5" font-family="Helvetica,sans-Serif" font-size="10.00">+</text>
<text text-anchor="start" x="61.5" y="-66.5" font-family="Helvetica,sans-Serif" font-size="10.00">override void Enter()</text>
<text text-anchor="start" x="51.5" y="-50.5" font-family="Helvetica,sans-Serif" font-size="10.00">+</text>
<text text-anchor="start" x="61.5" y="-50.5" font-family="Helvetica,sans-Serif" font-size="10.00">override void Exit()</text>
<text text-anchor="start" x="51.5" y="-34.5" font-family="Helvetica,sans-Serif" font-size="10.00">+</text>
<text text-anchor="start" x="61.5" y="-34.5" font-family="Helvetica,sans-Serif" font-size="10.00">override State ProcessPhysics</text>
<text text-anchor="start" x="61.5" y="-22.5" font-family="Helvetica,sans-Serif" font-size="10.00">(double delta)</text>
<text text-anchor="start" x="51.5" y="-6.5" font-family="Helvetica,sans-Serif" font-size="10.00">+</text>
<text text-anchor="start" x="61.5" y="-6.5" font-family="Helvetica,sans-Serif" font-size="10.00">override void UpdateAnimations()</text>
<polygon fill="#666666" stroke="#666666" points="47.5,-110 47.5,-110 209.5,-110 209.5,-110 47.5,-110"/>
<polygon fill="#666666" stroke="#666666" points="47.5,-94 47.5,-94 209.5,-94 209.5,-94 47.5,-94"/>
<polygon fill="none" stroke="#666666" points="47.5,0 47.5,-128 209.5,-128 209.5,0 47.5,0"/>
</a>
</g>
</g>
<!-- Node2 -->
<g id="Node000002" class="node">
<title>Node2</title>
<g id="a_Node000002"><a xlink:href="../../d0/d8b/class_state.html" target="_top" xlink:title=" ">
<polygon fill="white" stroke="none" points="172.5,-360 18.5,-360 18.5,-176 172.5,-176 172.5,-360"/>
<text text-anchor="start" x="83.88" y="-346.5" font-family="Helvetica,sans-Serif" font-size="10.00">State</text>
<text text-anchor="start" x="94" y="-330.5" font-family="Helvetica,sans-Serif" font-size="10.00"> </text>
<text text-anchor="start" x="22.5" y="-314.5" font-family="Helvetica,sans-Serif" font-size="10.00">+</text>
<text text-anchor="start" x="32.5" y="-314.5" font-family="Helvetica,sans-Serif" font-size="10.00">virtual bool CanEnter()</text>
<text text-anchor="start" x="22.5" y="-298.5" font-family="Helvetica,sans-Serif" font-size="10.00">+</text>
<text text-anchor="start" x="32.5" y="-298.5" font-family="Helvetica,sans-Serif" font-size="10.00">virtual void Enter()</text>
<text text-anchor="start" x="22.5" y="-282.5" font-family="Helvetica,sans-Serif" font-size="10.00">+</text>
<text text-anchor="start" x="32.5" y="-282.5" font-family="Helvetica,sans-Serif" font-size="10.00">virtual void Exit()</text>
<text text-anchor="start" x="22.5" y="-266.5" font-family="Helvetica,sans-Serif" font-size="10.00">+</text>
<text text-anchor="start" x="32.5" y="-266.5" font-family="Helvetica,sans-Serif" font-size="10.00">virtual State ProcessInput</text>
<text text-anchor="start" x="32.5" y="-254.5" font-family="Helvetica,sans-Serif" font-size="10.00">(InputEvent @event)</text>
<text text-anchor="start" x="22.5" y="-238.5" font-family="Helvetica,sans-Serif" font-size="10.00">+</text>
<text text-anchor="start" x="32.5" y="-238.5" font-family="Helvetica,sans-Serif" font-size="10.00">virtual State ProcessFrame</text>
<text text-anchor="start" x="32.5" y="-226.5" font-family="Helvetica,sans-Serif" font-size="10.00">(double delta)</text>
<text text-anchor="start" x="22.5" y="-210.5" font-family="Helvetica,sans-Serif" font-size="10.00">+</text>
<text text-anchor="start" x="32.5" y="-210.5" font-family="Helvetica,sans-Serif" font-size="10.00">virtual State ProcessPhysics</text>
<text text-anchor="start" x="32.5" y="-198.5" font-family="Helvetica,sans-Serif" font-size="10.00">(double delta)</text>
<text text-anchor="start" x="22.5" y="-182.5" font-family="Helvetica,sans-Serif" font-size="10.00">+</text>
<text text-anchor="start" x="32.5" y="-182.5" font-family="Helvetica,sans-Serif" font-size="10.00">virtual void UpdateAnimations()</text>
<polygon fill="#666666" stroke="#666666" points="18.5,-342 18.5,-342 172.5,-342 172.5,-342 18.5,-342"/>
<polygon fill="#666666" stroke="#666666" points="18.5,-326 18.5,-326 172.5,-326 172.5,-326 18.5,-326"/>
<polygon fill="none" stroke="#666666" points="18.5,-176 18.5,-360 172.5,-360 172.5,-176 18.5,-176"/>
</a>
</g>
</g>
<!-- Node2&#45;&gt;Node1 -->
<g id="edge1_Node000001_Node000002" class="edge">
<title>Node2&#45;&gt;Node1</title>
<g id="a_edge1_Node000001_Node000002"><a xlink:title=" ">
<path fill="none" stroke="#63b8ff" d="M106.41,-165.28C107.37,-158.74 108.41,-152.27 109.5,-146 110.54,-140.02 111.76,-133.83 113.05,-127.65"/>
<polygon fill="none" stroke="#63b8ff" points="102.99,-164.42 105.05,-174.82 109.92,-165.41 102.99,-164.42"/>
</a>
</g>
</g>
<!-- Node2&#45;&gt;Node1 -->
<g id="edge5_Node000001_Node000002" class="edge">
<title>Node2&#45;&gt;Node1</title>
<g id="a_edge5_Node000001_Node000002"><a xlink:title=" ">
<path fill="none" stroke="#63b8ff" d="M110.36,-176.05C112.3,-164.18 114.27,-152.12 116.16,-140.54"/>
<polygon fill="none" stroke="#63b8ff" points="116.18,-140.44 113.2,-133.87 118.11,-128.6 121.09,-135.16 116.18,-140.44"/>
</a>
</g>
<text text-anchor="middle" x="129.21" y="-148.5" font-family="Helvetica,sans-Serif" font-size="10.00" fill="grey"> +Wait</text>
</g>
<!-- Node3 -->
<g id="Node000003" class="node">
<title>Node3</title>
<g id="a_Node000003"><a xlink:href="../../dc/d8f/class_node.html" target="_top" xlink:title=" ">
<polygon fill="white" stroke="none" points="33,-460 0,-460 0,-408 33,-408 33,-460"/>
<text text-anchor="start" x="4.88" y="-446.5" font-family="Helvetica,sans-Serif" font-size="10.00">Node</text>
<text text-anchor="start" x="15" y="-430.5" font-family="Helvetica,sans-Serif" font-size="10.00"> </text>
<text text-anchor="start" x="15" y="-414.5" font-family="Helvetica,sans-Serif" font-size="10.00"> </text>
<polygon fill="#666666" stroke="#666666" points="0,-442 0,-442 33,-442 33,-442 0,-442"/>
<polygon fill="#666666" stroke="#666666" points="0,-426 0,-426 33,-426 33,-426 0,-426"/>
<polygon fill="none" stroke="#666666" points="0,-408 0,-460 33,-460 33,-408 0,-408"/>
</a>
</g>
</g>
<!-- Node3&#45;&gt;Node2 -->
<g id="edge2_Node000002_Node000003" class="edge">
<title>Node3&#45;&gt;Node2</title>
<g id="a_edge2_Node000002_Node000003"><a xlink:title=" ">
<path fill="none" stroke="#63b8ff" d="M33.45,-397.81C38.92,-386.46 45.25,-373.31 51.74,-359.84"/>
<polygon fill="none" stroke="#63b8ff" points="30.34,-396.2 29.16,-406.73 36.65,-399.24 30.34,-396.2"/>
</a>
</g>
</g>
<!-- Node4 -->
<g id="Node000004" class="node">
<title>Node4</title>
<g id="a_Node000004"><a xlink:title=" ">
<polygon fill="white" stroke="none" points="139.5,-460 51.5,-460 51.5,-408 139.5,-408 139.5,-460"/>
<text text-anchor="start" x="56.5" y="-446.5" font-family="Helvetica,sans-Serif" font-size="10.00">CharacterBody2D</text>
<text text-anchor="start" x="94" y="-430.5" font-family="Helvetica,sans-Serif" font-size="10.00"> </text>
<text text-anchor="start" x="94" y="-414.5" font-family="Helvetica,sans-Serif" font-size="10.00"> </text>
<polygon fill="#666666" stroke="#666666" points="51.5,-442 51.5,-442 139.5,-442 139.5,-442 51.5,-442"/>
<polygon fill="#666666" stroke="#666666" points="51.5,-426 51.5,-426 139.5,-426 139.5,-426 51.5,-426"/>
<polygon fill="none" stroke="#666666" points="51.5,-408 51.5,-460 139.5,-460 139.5,-408 51.5,-408"/>
</a>
</g>
</g>
<!-- Node4&#45;&gt;Node2 -->
<g id="edge3_Node000002_Node000004" class="edge">
<title>Node4&#45;&gt;Node2</title>
<g id="a_edge3_Node000002_Node000004"><a xlink:title=" ">
<path fill="none" stroke="#63b8ff" d="M95.5,-408.09C95.5,-398.04 95.5,-385.72 95.5,-372.61"/>
<polygon fill="none" stroke="#63b8ff" points="95.5,-372.74 91.5,-366.74 95.5,-360.74 99.5,-366.74 95.5,-372.74"/>
</a>
</g>
<text text-anchor="middle" x="114.25" y="-380.5" font-family="Helvetica,sans-Serif" font-size="10.00" fill="grey"> +Parent</text>
</g>
<!-- Node5 -->
<g id="Node000005" class="node">
<title>Node5</title>
<g id="a_Node000005"><a xlink:title=" ">
<polygon fill="white" stroke="none" points="239,-460 158,-460 158,-408 239,-408 239,-460"/>
<text text-anchor="start" x="162.88" y="-446.5" font-family="Helvetica,sans-Serif" font-size="10.00">AnimationPlayer</text>
<text text-anchor="start" x="197" y="-430.5" font-family="Helvetica,sans-Serif" font-size="10.00"> </text>
<text text-anchor="start" x="197" y="-414.5" font-family="Helvetica,sans-Serif" font-size="10.00"> </text>
<polygon fill="#666666" stroke="#666666" points="158,-442 158,-442 239,-442 239,-442 158,-442"/>
<polygon fill="#666666" stroke="#666666" points="158,-426 158,-426 239,-426 239,-426 158,-426"/>
<polygon fill="none" stroke="#666666" points="158,-408 158,-460 239,-460 239,-408 158,-408"/>
</a>
</g>
</g>
<!-- Node5&#45;&gt;Node2 -->
<g id="edge4_Node000002_Node000005" class="edge">
<title>Node5&#45;&gt;Node2</title>
<g id="a_edge4_Node000002_Node000005"><a xlink:title=" ">
<path fill="none" stroke="#63b8ff" d="M182.86,-408.09C176.22,-397.52 168,-384.44 159.29,-370.57"/>
<polygon fill="none" stroke="#63b8ff" points="159.41,-370.76 152.83,-367.81 153.03,-360.6 159.61,-363.55 159.41,-370.76"/>
</a>
</g>
<text text-anchor="middle" x="199.75" y="-380.5" font-family="Helvetica,sans-Serif" font-size="10.00" fill="grey"> +Animations</text>
</g>
<!-- Node6 -->
<g id="Node000006" class="node">
<title>Node6</title>
<g id="a_Node000006"><a xlink:title=" ">
<polygon fill="white" stroke="none" points="218.5,-294 190.5,-294 190.5,-242 218.5,-242 218.5,-294"/>
<text text-anchor="start" x="195.12" y="-280.5" font-family="Helvetica,sans-Serif" font-size="10.00">float</text>
<text text-anchor="start" x="203" y="-264.5" font-family="Helvetica,sans-Serif" font-size="10.00"> </text>
<text text-anchor="start" x="203" y="-248.5" font-family="Helvetica,sans-Serif" font-size="10.00"> </text>
<polygon fill="#666666" stroke="#666666" points="190.5,-276 190.5,-276 218.5,-276 218.5,-276 190.5,-276"/>
<polygon fill="#666666" stroke="#666666" points="190.5,-260 190.5,-260 218.5,-260 218.5,-260 190.5,-260"/>
<polygon fill="none" stroke="#666666" points="190.5,-242 190.5,-294 218.5,-294 218.5,-242 190.5,-242"/>
</a>
</g>
</g>
<!-- Node6&#45;&gt;Node1 -->
<g id="edge6_Node000001_Node000006" class="edge">
<title>Node6&#45;&gt;Node1</title>
<g id="a_edge6_Node000001_Node000006"><a xlink:title=" ">
<path fill="none" stroke="#63b8ff" d="M199.64,-242.27C195.66,-223.74 189.41,-197.92 181.5,-176 177.18,-164.02 171.99,-151.61 166.58,-139.6"/>
<polygon fill="none" stroke="#63b8ff" points="166.52,-139.48 160.38,-135.71 161.5,-128.58 167.64,-132.35 166.52,-139.48"/>
</a>
</g>
<text text-anchor="middle" x="217.72" y="-148.5" font-family="Helvetica,sans-Serif" font-size="10.00" fill="grey"> +CHARGESPEED</text>
</g>
</g>
</svg>
