<?xml version="1.0" encoding="UTF-8" standalone="no"?>
<!DOCTYPE svg PUBLIC "-//W3C//DTD SVG 1.1//EN"
 "http://www.w3.org/Graphics/SVG/1.1/DTD/svg11.dtd">
<!-- Generated by graphviz version 12.1.0 (20240811.2233)
 -->
<!-- Title: State Pages: 1 -->
<svg width="2485pt" height="524pt"
 viewBox="0.00 0.00 2485.00 524.00" xmlns="http://www.w3.org/2000/svg" xmlns:xlink="http://www.w3.org/1999/xlink">
<g id="graph0" class="graph" transform="scale(1 1) rotate(0) translate(4 520)">
<title>State</title>
<!-- Node1 -->
<g id="Node000001" class="node">
<title>Node1</title>
<g id="a_Node000001"><a xlink:title=" ">
<polygon fill="#999999" stroke="none" points="1303,-428 1149,-428 1149,-228 1303,-228 1303,-428"/>
<text text-anchor="start" x="1214.38" y="-414.5" font-family="Helvetica,sans-Serif" font-size="10.00">State</text>
<text text-anchor="start" x="1153" y="-398.5" font-family="Helvetica,sans-Serif" font-size="10.00">+</text>
<text text-anchor="start" x="1163" y="-398.5" font-family="Helvetica,sans-Serif" font-size="10.00">CharacterBody2D Parent</text>
<text text-anchor="start" x="1153" y="-382.5" font-family="Helvetica,sans-Serif" font-size="10.00">+</text>
<text text-anchor="start" x="1163" y="-382.5" font-family="Helvetica,sans-Serif" font-size="10.00">AnimationPlayer Animations</text>
<text text-anchor="start" x="1153" y="-366.5" font-family="Helvetica,sans-Serif" font-size="10.00">+</text>
<text text-anchor="start" x="1163" y="-366.5" font-family="Helvetica,sans-Serif" font-size="10.00">virtual bool CanEnter()</text>
<text text-anchor="start" x="1153" y="-350.5" font-family="Helvetica,sans-Serif" font-size="10.00">+</text>
<text text-anchor="start" x="1163" y="-350.5" font-family="Helvetica,sans-Serif" font-size="10.00">virtual void Enter()</text>
<text text-anchor="start" x="1153" y="-334.5" font-family="Helvetica,sans-Serif" font-size="10.00">+</text>
<text text-anchor="start" x="1163" y="-334.5" font-family="Helvetica,sans-Serif" font-size="10.00">virtual void Exit()</text>
<text text-anchor="start" x="1153" y="-318.5" font-family="Helvetica,sans-Serif" font-size="10.00">+</text>
<text text-anchor="start" x="1163" y="-318.5" font-family="Helvetica,sans-Serif" font-size="10.00">virtual State ProcessInput</text>
<text text-anchor="start" x="1163" y="-306.5" font-family="Helvetica,sans-Serif" font-size="10.00">(InputEvent @event)</text>
<text text-anchor="start" x="1153" y="-290.5" font-family="Helvetica,sans-Serif" font-size="10.00">+</text>
<text text-anchor="start" x="1163" y="-290.5" font-family="Helvetica,sans-Serif" font-size="10.00">virtual State ProcessFrame</text>
<text text-anchor="start" x="1163" y="-278.5" font-family="Helvetica,sans-Serif" font-size="10.00">(double delta)</text>
<text text-anchor="start" x="1153" y="-262.5" font-family="Helvetica,sans-Serif" font-size="10.00">+</text>
<text text-anchor="start" x="1163" y="-262.5" font-family="Helvetica,sans-Serif" font-size="10.00">virtual State ProcessPhysics</text>
<text text-anchor="start" x="1163" y="-250.5" font-family="Helvetica,sans-Serif" font-size="10.00">(double delta)</text>
<text text-anchor="start" x="1153" y="-234.5" font-family="Helvetica,sans-Serif" font-size="10.00">+</text>
<text text-anchor="start" x="1163" y="-234.5" font-family="Helvetica,sans-Serif" font-size="10.00">virtual void UpdateAnimations()</text>
<polygon fill="#666666" stroke="#666666" points="1149,-410 1149,-410 1303,-410 1303,-410 1149,-410"/>
<polygon fill="#666666" stroke="#666666" points="1149,-378 1149,-378 1161,-378 1161,-378 1149,-378"/>
<polygon fill="#666666" stroke="#666666" points="1161,-378 1161,-378 1303,-378 1303,-378 1161,-378"/>
<polygon fill="none" stroke="#666666" points="1149,-228 1149,-428 1303,-428 1303,-228 1149,-228"/>
</a>
</g>
</g>
<!-- Node3 -->
<g id="Node000003" class="node">
<title>Node3</title>
<g id="a_Node000003"><a xlink:href="../../d2/df1/class_player_dashing.html" target="_top" xlink:title=" ">
<polygon fill="white" stroke="none" points="162,-176 0,-176 0,-16 162,-16 162,-176"/>
<text text-anchor="start" x="49.12" y="-162.5" font-family="Helvetica,sans-Serif" font-size="10.00">PlayerDashing</text>
<text text-anchor="start" x="4" y="-146.5" font-family="Helvetica,sans-Serif" font-size="10.00">+</text>
<text text-anchor="start" x="14" y="-146.5" font-family="Helvetica,sans-Serif" font-size="10.00">CollisionShape2D HitBox</text>
<text text-anchor="start" x="4" y="-130.5" font-family="Helvetica,sans-Serif" font-size="10.00">+</text>
<text text-anchor="start" x="14" y="-130.5" font-family="Helvetica,sans-Serif" font-size="10.00">double SPEED</text>
<text text-anchor="start" x="4" y="-114.5" font-family="Helvetica,sans-Serif" font-size="10.00">+</text>
<text text-anchor="start" x="14" y="-114.5" font-family="Helvetica,sans-Serif" font-size="10.00">double DASH_TIME</text>
<text text-anchor="start" x="4" y="-98.5" font-family="Helvetica,sans-Serif" font-size="10.00">+</text>
<text text-anchor="start" x="14" y="-98.5" font-family="Helvetica,sans-Serif" font-size="10.00">State Idle</text>
<text text-anchor="start" x="4" y="-82.5" font-family="Helvetica,sans-Serif" font-size="10.00">+</text>
<text text-anchor="start" x="14" y="-82.5" font-family="Helvetica,sans-Serif" font-size="10.00">override void Enter()</text>
<text text-anchor="start" x="4" y="-66.5" font-family="Helvetica,sans-Serif" font-size="10.00">+</text>
<text text-anchor="start" x="14" y="-66.5" font-family="Helvetica,sans-Serif" font-size="10.00">override void Exit()</text>
<text text-anchor="start" x="4" y="-50.5" font-family="Helvetica,sans-Serif" font-size="10.00">+</text>
<text text-anchor="start" x="14" y="-50.5" font-family="Helvetica,sans-Serif" font-size="10.00">override State ProcessPhysics</text>
<text text-anchor="start" x="14" y="-38.5" font-family="Helvetica,sans-Serif" font-size="10.00">(double delta)</text>
<text text-anchor="start" x="4" y="-22.5" font-family="Helvetica,sans-Serif" font-size="10.00">+</text>
<text text-anchor="start" x="14" y="-22.5" font-family="Helvetica,sans-Serif" font-size="10.00">override void UpdateAnimations()</text>
<polygon fill="#666666" stroke="#666666" points="0,-158 0,-158 162,-158 162,-158 0,-158"/>
<polygon fill="#666666" stroke="#666666" points="0,-94 0,-94 12,-94 12,-94 0,-94"/>
<polygon fill="#666666" stroke="#666666" points="12,-94 12,-94 162,-94 162,-94 12,-94"/>
<polygon fill="none" stroke="#666666" points="0,-16 0,-176 162,-176 162,-16 0,-16"/>
</a>
</g>
</g>
<!-- Node1&#45;&gt;Node3 -->
<g id="edge2_Node000001_Node000003" class="edge">
<title>Node1&#45;&gt;Node3</title>
<g id="a_edge2_Node000001_Node000003"><a xlink:title=" ">
<path fill="none" stroke="#63b8ff" d="M1137.76,-323.29C915.78,-312.77 339.91,-277.77 171,-192 162.39,-187.63 154.16,-182.09 146.42,-175.89"/>
<polygon fill="none" stroke="#63b8ff" points="1137.35,-326.78 1147.5,-323.75 1137.67,-319.78 1137.35,-326.78"/>
</a>
</g>
</g>
<!-- Node4 -->
<g id="Node000004" class="node">
<title>Node4</title>
<g id="a_Node000004"><a xlink:href="../../dc/d4c/class_player_death.html" target="_top" xlink:title=" ">
<polygon fill="white" stroke="none" points="333.5,-136 180.5,-136 180.5,-56 333.5,-56 333.5,-136"/>
<text text-anchor="start" x="230" y="-122.5" font-family="Helvetica,sans-Serif" font-size="10.00">PlayerDeath</text>
<text text-anchor="start" x="184.5" y="-106.5" font-family="Helvetica,sans-Serif" font-size="10.00">+</text>
<text text-anchor="start" x="194.5" y="-106.5" font-family="Helvetica,sans-Serif" font-size="10.00">double DeathAnimationTime</text>
<text text-anchor="start" x="184.5" y="-90.5" font-family="Helvetica,sans-Serif" font-size="10.00">+</text>
<text text-anchor="start" x="194.5" y="-90.5" font-family="Helvetica,sans-Serif" font-size="10.00">override void Enter()</text>
<text text-anchor="start" x="184.5" y="-74.5" font-family="Helvetica,sans-Serif" font-size="10.00">+</text>
<text text-anchor="start" x="194.5" y="-74.5" font-family="Helvetica,sans-Serif" font-size="10.00">override State ProcessPhysics</text>
<text text-anchor="start" x="194.5" y="-62.5" font-family="Helvetica,sans-Serif" font-size="10.00">(double delta)</text>
<polygon fill="#666666" stroke="#666666" points="180.5,-118 180.5,-118 333.5,-118 333.5,-118 180.5,-118"/>
<polygon fill="#666666" stroke="#666666" points="180.5,-102 180.5,-102 192.5,-102 192.5,-102 180.5,-102"/>
<polygon fill="#666666" stroke="#666666" points="192.5,-102 192.5,-102 333.5,-102 333.5,-102 192.5,-102"/>
<polygon fill="none" stroke="#666666" points="180.5,-56 180.5,-136 333.5,-136 333.5,-56 180.5,-56"/>
</a>
</g>
</g>
<!-- Node1&#45;&gt;Node4 -->
<g id="edge3_Node000001_Node000004" class="edge">
<title>Node1&#45;&gt;Node4</title>
<g id="a_edge3_Node000001_Node000004"><a xlink:title=" ">
<path fill="none" stroke="#63b8ff" d="M1137.97,-321.11C942.49,-306.84 478.7,-266.01 342,-192 317.67,-178.83 296.84,-155.87 281.88,-135.82"/>
<polygon fill="none" stroke="#63b8ff" points="1137.59,-324.59 1147.82,-321.83 1138.1,-317.61 1137.59,-324.59"/>
</a>
</g>
</g>
<!-- Node5 -->
<g id="Node000005" class="node">
<title>Node5</title>
<g id="a_Node000005"><a xlink:href="../../d3/d9d/class_player_idle.html" target="_top" xlink:title=" ">
<polygon fill="white" stroke="none" points="504.5,-152 351.5,-152 351.5,-40 504.5,-40 504.5,-152"/>
<text text-anchor="start" x="406.25" y="-138.5" font-family="Helvetica,sans-Serif" font-size="10.00">PlayerIdle</text>
<text text-anchor="start" x="355.5" y="-122.5" font-family="Helvetica,sans-Serif" font-size="10.00">+</text>
<text text-anchor="start" x="365.5" y="-122.5" font-family="Helvetica,sans-Serif" font-size="10.00">State Moving</text>
<text text-anchor="start" x="355.5" y="-106.5" font-family="Helvetica,sans-Serif" font-size="10.00">+</text>
<text text-anchor="start" x="365.5" y="-106.5" font-family="Helvetica,sans-Serif" font-size="10.00">State Dashing</text>
<text text-anchor="start" x="355.5" y="-90.5" font-family="Helvetica,sans-Serif" font-size="10.00">+</text>
<text text-anchor="start" x="365.5" y="-90.5" font-family="Helvetica,sans-Serif" font-size="10.00">State SpellCasting</text>
<text text-anchor="start" x="355.5" y="-74.5" font-family="Helvetica,sans-Serif" font-size="10.00">+</text>
<text text-anchor="start" x="365.5" y="-74.5" font-family="Helvetica,sans-Serif" font-size="10.00">override void Enter()</text>
<text text-anchor="start" x="355.5" y="-58.5" font-family="Helvetica,sans-Serif" font-size="10.00">+</text>
<text text-anchor="start" x="365.5" y="-58.5" font-family="Helvetica,sans-Serif" font-size="10.00">override State ProcessPhysics</text>
<text text-anchor="start" x="365.5" y="-46.5" font-family="Helvetica,sans-Serif" font-size="10.00">(double delta)</text>
<polygon fill="#666666" stroke="#666666" points="351.5,-134 351.5,-134 504.5,-134 504.5,-134 351.5,-134"/>
<polygon fill="#666666" stroke="#666666" points="351.5,-86 351.5,-86 363.5,-86 363.5,-86 351.5,-86"/>
<polygon fill="#666666" stroke="#666666" points="363.5,-86 363.5,-86 504.5,-86 504.5,-86 363.5,-86"/>
<polygon fill="none" stroke="#666666" points="351.5,-40 351.5,-152 504.5,-152 504.5,-40 351.5,-40"/>
</a>
</g>
</g>
<!-- Node1&#45;&gt;Node5 -->
<g id="edge4_Node000001_Node000005" class="edge">
<title>Node1&#45;&gt;Node5</title>
<g id="a_edge4_Node000001_Node000005"><a xlink:title=" ">
<path fill="none" stroke="#63b8ff" d="M1137.9,-317.38C971.92,-298.12 620.06,-251.49 514,-192 496.15,-181.99 480.02,-166.9 466.68,-151.68"/>
<polygon fill="none" stroke="#63b8ff" points="1137.2,-320.82 1147.53,-318.49 1138,-313.87 1137.2,-320.82"/>
</a>
</g>
</g>
<!-- Node6 -->
<g id="Node000006" class="node">
<title>Node6</title>
<g id="a_Node000006"><a xlink:href="../../dc/d24/class_player_moving.html" target="_top" xlink:title=" ">
<polygon fill="white" stroke="none" points="685,-174 523,-174 523,-18 685,-18 685,-174"/>
<text text-anchor="start" x="574.38" y="-160.5" font-family="Helvetica,sans-Serif" font-size="10.00">PlayerMoving</text>
<text text-anchor="start" x="527" y="-144.5" font-family="Helvetica,sans-Serif" font-size="10.00">+</text>
<text text-anchor="start" x="537" y="-144.5" font-family="Helvetica,sans-Serif" font-size="10.00">double SPEED</text>
<text text-anchor="start" x="527" y="-128.5" font-family="Helvetica,sans-Serif" font-size="10.00">+</text>
<text text-anchor="start" x="537" y="-128.5" font-family="Helvetica,sans-Serif" font-size="10.00">State Idle</text>
<text text-anchor="start" x="527" y="-112.5" font-family="Helvetica,sans-Serif" font-size="10.00">+</text>
<text text-anchor="start" x="537" y="-112.5" font-family="Helvetica,sans-Serif" font-size="10.00">State Dashing</text>
<text text-anchor="start" x="527" y="-96.5" font-family="Helvetica,sans-Serif" font-size="10.00">+</text>
<text text-anchor="start" x="537" y="-96.5" font-family="Helvetica,sans-Serif" font-size="10.00">State SpellCasting</text>
<text text-anchor="start" x="527" y="-80.5" font-family="Helvetica,sans-Serif" font-size="10.00">+</text>
<text text-anchor="start" x="537" y="-80.5" font-family="Helvetica,sans-Serif" font-size="10.00">override State ProcessInput</text>
<text text-anchor="start" x="537" y="-68.5" font-family="Helvetica,sans-Serif" font-size="10.00">(InputEvent @event)</text>
<text text-anchor="start" x="527" y="-52.5" font-family="Helvetica,sans-Serif" font-size="10.00">+</text>
<text text-anchor="start" x="537" y="-52.5" font-family="Helvetica,sans-Serif" font-size="10.00">override State ProcessPhysics</text>
<text text-anchor="start" x="537" y="-40.5" font-family="Helvetica,sans-Serif" font-size="10.00">(double delta)</text>
<text text-anchor="start" x="527" y="-24.5" font-family="Helvetica,sans-Serif" font-size="10.00">+</text>
<text text-anchor="start" x="537" y="-24.5" font-family="Helvetica,sans-Serif" font-size="10.00">override void UpdateAnimations()</text>
<polygon fill="#666666" stroke="#666666" points="523,-156 523,-156 685,-156 685,-156 523,-156"/>
<polygon fill="#666666" stroke="#666666" points="523,-92 523,-92 535,-92 535,-92 523,-92"/>
<polygon fill="#666666" stroke="#666666" points="535,-92 535,-92 685,-92 685,-92 535,-92"/>
<polygon fill="none" stroke="#666666" points="523,-18 523,-174 685,-174 685,-18 523,-18"/>
</a>
</g>
</g>
<!-- Node1&#45;&gt;Node6 -->
<g id="edge5_Node000001_Node000006" class="edge">
<title>Node1&#45;&gt;Node6</title>
<g id="a_edge5_Node000001_Node000006"><a xlink:title=" ">
<path fill="none" stroke="#63b8ff" d="M1137.72,-319.75C1027.28,-307.42 835.5,-275 694,-192 685.28,-186.88 676.87,-180.68 668.93,-173.91"/>
<polygon fill="none" stroke="#63b8ff" points="1137.31,-323.23 1147.63,-320.82 1138.06,-316.27 1137.31,-323.23"/>
</a>
</g>
</g>
<!-- Node7 -->
<g id="Node000007" class="node">
<title>Node7</title>
<g id="a_Node000007"><a xlink:href="../../d4/d55/class_player_spell_casting.html" target="_top" xlink:title=" ">
<polygon fill="white" stroke="none" points="856.5,-144 703.5,-144 703.5,-48 856.5,-48 856.5,-144"/>
<text text-anchor="start" x="738.38" y="-130.5" font-family="Helvetica,sans-Serif" font-size="10.00">PlayerSpellCasting</text>
<text text-anchor="start" x="707.5" y="-114.5" font-family="Helvetica,sans-Serif" font-size="10.00">+</text>
<text text-anchor="start" x="717.5" y="-114.5" font-family="Helvetica,sans-Serif" font-size="10.00">State Idle</text>
<text text-anchor="start" x="707.5" y="-98.5" font-family="Helvetica,sans-Serif" font-size="10.00">+</text>
<text text-anchor="start" x="717.5" y="-98.5" font-family="Helvetica,sans-Serif" font-size="10.00">override void Enter()</text>
<text text-anchor="start" x="707.5" y="-82.5" font-family="Helvetica,sans-Serif" font-size="10.00">+</text>
<text text-anchor="start" x="717.5" y="-82.5" font-family="Helvetica,sans-Serif" font-size="10.00">override bool CanEnter()</text>
<text text-anchor="start" x="707.5" y="-66.5" font-family="Helvetica,sans-Serif" font-size="10.00">+</text>
<text text-anchor="start" x="717.5" y="-66.5" font-family="Helvetica,sans-Serif" font-size="10.00">override State ProcessPhysics</text>
<text text-anchor="start" x="717.5" y="-54.5" font-family="Helvetica,sans-Serif" font-size="10.00">(double delta)</text>
<polygon fill="#666666" stroke="#666666" points="703.5,-126 703.5,-126 856.5,-126 856.5,-126 703.5,-126"/>
<polygon fill="#666666" stroke="#666666" points="703.5,-110 703.5,-110 715.5,-110 715.5,-110 703.5,-110"/>
<polygon fill="#666666" stroke="#666666" points="715.5,-110 715.5,-110 856.5,-110 856.5,-110 715.5,-110"/>
<polygon fill="none" stroke="#666666" points="703.5,-48 703.5,-144 856.5,-144 856.5,-48 703.5,-48"/>
</a>
</g>
</g>
<!-- Node1&#45;&gt;Node7 -->
<g id="edge6_Node000001_Node000007" class="edge">
<title>Node1&#45;&gt;Node7</title>
<g id="a_edge6_Node000001_Node000007"><a xlink:title=" ">
<path fill="none" stroke="#63b8ff" d="M1138.33,-306.7C1061.83,-286.17 950.19,-249.22 866,-192 846.86,-178.99 829.08,-160.88 814.71,-143.95"/>
<polygon fill="none" stroke="#63b8ff" points="1137.33,-310.06 1147.89,-309.23 1139.12,-303.29 1137.33,-310.06"/>
</a>
</g>
</g>
<!-- Node8 -->
<g id="Node000008" class="node">
<title>Node8</title>
<g id="a_Node000008"><a xlink:href="../../dc/d44/class_slime_attacking.html" target="_top" xlink:title=" ">
<polygon fill="white" stroke="none" points="1037,-152 875,-152 875,-40 1037,-40 1037,-152"/>
<text text-anchor="start" x="923" y="-138.5" font-family="Helvetica,sans-Serif" font-size="10.00">SlimeAttacking</text>
<text text-anchor="start" x="879" y="-122.5" font-family="Helvetica,sans-Serif" font-size="10.00">+</text>
<text text-anchor="start" x="889" y="-122.5" font-family="Helvetica,sans-Serif" font-size="10.00">State Moving</text>
<text text-anchor="start" x="879" y="-106.5" font-family="Helvetica,sans-Serif" font-size="10.00">+</text>
<text text-anchor="start" x="889" y="-106.5" font-family="Helvetica,sans-Serif" font-size="10.00">override void _Ready()</text>
<text text-anchor="start" x="879" y="-90.5" font-family="Helvetica,sans-Serif" font-size="10.00">+</text>
<text text-anchor="start" x="889" y="-90.5" font-family="Helvetica,sans-Serif" font-size="10.00">override void Enter()</text>
<text text-anchor="start" x="879" y="-74.5" font-family="Helvetica,sans-Serif" font-size="10.00">+</text>
<text text-anchor="start" x="889" y="-74.5" font-family="Helvetica,sans-Serif" font-size="10.00">override State ProcessPhysics</text>
<text text-anchor="start" x="889" y="-62.5" font-family="Helvetica,sans-Serif" font-size="10.00">(double delta)</text>
<text text-anchor="start" x="879" y="-46.5" font-family="Helvetica,sans-Serif" font-size="10.00">+</text>
<text text-anchor="start" x="889" y="-46.5" font-family="Helvetica,sans-Serif" font-size="10.00">override void UpdateAnimations()</text>
<polygon fill="#666666" stroke="#666666" points="875,-134 875,-134 1037,-134 1037,-134 875,-134"/>
<polygon fill="#666666" stroke="#666666" points="875,-118 875,-118 887,-118 887,-118 875,-118"/>
<polygon fill="#666666" stroke="#666666" points="887,-118 887,-118 1037,-118 1037,-118 887,-118"/>
<polygon fill="none" stroke="#666666" points="875,-40 875,-152 1037,-152 1037,-40 875,-40"/>
</a>
</g>
</g>
<!-- Node1&#45;&gt;Node8 -->
<g id="edge7_Node000001_Node000008" class="edge">
<title>Node1&#45;&gt;Node8</title>
<g id="a_edge7_Node000001_Node000008"><a xlink:title=" ">
<path fill="none" stroke="#63b8ff" d="M1140.36,-267.35C1109.7,-244.81 1075.46,-218.26 1046,-192 1032.09,-179.6 1017.86,-165.4 1004.94,-151.82"/>
<polygon fill="none" stroke="#63b8ff" points="1137.97,-269.93 1148.11,-273 1142.1,-264.28 1137.97,-269.93"/>
</a>
</g>
</g>
<!-- Node9 -->
<g id="Node000009" class="node">
<title>Node9</title>
<g id="a_Node000009"><a xlink:href="../../db/d1c/class_slime_death.html" target="_top" xlink:title=" ">
<polygon fill="white" stroke="none" points="1217,-144 1055,-144 1055,-48 1217,-48 1217,-144"/>
<text text-anchor="start" x="1110.5" y="-130.5" font-family="Helvetica,sans-Serif" font-size="10.00">SlimeDeath</text>
<text text-anchor="start" x="1059" y="-114.5" font-family="Helvetica,sans-Serif" font-size="10.00">+</text>
<text text-anchor="start" x="1069" y="-114.5" font-family="Helvetica,sans-Serif" font-size="10.00">double DeathAnimationTime</text>
<text text-anchor="start" x="1059" y="-98.5" font-family="Helvetica,sans-Serif" font-size="10.00">+</text>
<text text-anchor="start" x="1069" y="-98.5" font-family="Helvetica,sans-Serif" font-size="10.00">override void Enter()</text>
<text text-anchor="start" x="1059" y="-82.5" font-family="Helvetica,sans-Serif" font-size="10.00">+</text>
<text text-anchor="start" x="1069" y="-82.5" font-family="Helvetica,sans-Serif" font-size="10.00">override State ProcessPhysics</text>
<text text-anchor="start" x="1069" y="-70.5" font-family="Helvetica,sans-Serif" font-size="10.00">(double delta)</text>
<text text-anchor="start" x="1059" y="-54.5" font-family="Helvetica,sans-Serif" font-size="10.00">+</text>
<text text-anchor="start" x="1069" y="-54.5" font-family="Helvetica,sans-Serif" font-size="10.00">override void UpdateAnimations()</text>
<polygon fill="#666666" stroke="#666666" points="1055,-126 1055,-126 1217,-126 1217,-126 1055,-126"/>
<polygon fill="#666666" stroke="#666666" points="1055,-110 1055,-110 1067,-110 1067,-110 1055,-110"/>
<polygon fill="#666666" stroke="#666666" points="1067,-110 1067,-110 1217,-110 1217,-110 1067,-110"/>
<polygon fill="none" stroke="#666666" points="1055,-48 1055,-144 1217,-144 1217,-48 1055,-48"/>
</a>
</g>
</g>
<!-- Node1&#45;&gt;Node9 -->
<g id="edge8_Node000001_Node000009" class="edge">
<title>Node1&#45;&gt;Node9</title>
<g id="a_edge8_Node000001_Node000009"><a xlink:title=" ">
<path fill="none" stroke="#63b8ff" d="M1183.14,-217.46C1173.01,-191.58 1162.73,-165.32 1154.38,-143.96"/>
<polygon fill="none" stroke="#63b8ff" points="1179.85,-218.68 1186.76,-226.72 1186.37,-216.13 1179.85,-218.68"/>
</a>
</g>
</g>
<!-- Node10 -->
<g id="Node000010" class="node">
<title>Node10</title>
<g id="a_Node000010"><a xlink:href="../../d2/d94/class_slime_idle.html" target="_top" xlink:title=" ">
<polygon fill="white" stroke="none" points="1397,-192 1235,-192 1235,0 1397,0 1397,-192"/>
<text text-anchor="start" x="1295.75" y="-178.5" font-family="Helvetica,sans-Serif" font-size="10.00">SlimeIdle</text>
<text text-anchor="start" x="1239" y="-162.5" font-family="Helvetica,sans-Serif" font-size="10.00">+</text>
<text text-anchor="start" x="1249" y="-162.5" font-family="Helvetica,sans-Serif" font-size="10.00">State Moving</text>
<text text-anchor="start" x="1239" y="-146.5" font-family="Helvetica,sans-Serif" font-size="10.00">+</text>
<text text-anchor="start" x="1249" y="-146.5" font-family="Helvetica,sans-Serif" font-size="10.00">State Attacking</text>
<text text-anchor="start" x="1239" y="-130.5" font-family="Helvetica,sans-Serif" font-size="10.00">+</text>
<text text-anchor="start" x="1249" y="-130.5" font-family="Helvetica,sans-Serif" font-size="10.00">float SPEED</text>
<text text-anchor="start" x="1239" y="-114.5" font-family="Helvetica,sans-Serif" font-size="10.00">+</text>
<text text-anchor="start" x="1249" y="-114.5" font-family="Helvetica,sans-Serif" font-size="10.00">double IdleAnimationDuration</text>
<text text-anchor="start" x="1239" y="-98.5" font-family="Helvetica,sans-Serif" font-size="10.00">+</text>
<text text-anchor="start" x="1249" y="-98.5" font-family="Helvetica,sans-Serif" font-size="10.00">double JumpAnimationDuration</text>
<text text-anchor="start" x="1239" y="-82.5" font-family="Helvetica,sans-Serif" font-size="10.00">+</text>
<text text-anchor="start" x="1249" y="-82.5" font-family="Helvetica,sans-Serif" font-size="10.00">override void _Ready()</text>
<text text-anchor="start" x="1239" y="-66.5" font-family="Helvetica,sans-Serif" font-size="10.00">+</text>
<text text-anchor="start" x="1249" y="-66.5" font-family="Helvetica,sans-Serif" font-size="10.00">override State ProcessPhysics</text>
<text text-anchor="start" x="1249" y="-54.5" font-family="Helvetica,sans-Serif" font-size="10.00">(double delta)</text>
<text text-anchor="start" x="1239" y="-38.5" font-family="Helvetica,sans-Serif" font-size="10.00">+</text>
<text text-anchor="start" x="1249" y="-38.5" font-family="Helvetica,sans-Serif" font-size="10.00">Vector2 ChangeRandomWalk()</text>
<text text-anchor="start" x="1239" y="-22.5" font-family="Helvetica,sans-Serif" font-size="10.00">+</text>
<text text-anchor="start" x="1249" y="-22.5" font-family="Helvetica,sans-Serif" font-size="10.00">override void UpdateAnimations()</text>
<text text-anchor="start" x="1239" y="-6.5" font-family="Helvetica,sans-Serif" font-size="10.00">+</text>
<text text-anchor="start" x="1249" y="-6.5" font-family="Helvetica,sans-Serif" font-size="10.00">void CreateRNG()</text>
<polygon fill="#666666" stroke="#666666" points="1235,-174 1235,-174 1397,-174 1397,-174 1235,-174"/>
<polygon fill="#666666" stroke="#666666" points="1235,-94 1235,-94 1247,-94 1247,-94 1235,-94"/>
<polygon fill="#666666" stroke="#666666" points="1247,-94 1247,-94 1397,-94 1397,-94 1247,-94"/>
<polygon fill="none" stroke="#666666" points="1235,0 1235,-192 1397,-192 1397,0 1235,0"/>
</a>
</g>
</g>
<!-- Node1&#45;&gt;Node10 -->
<g id="edge9_Node000001_Node000010" class="edge">
<title>Node1&#45;&gt;Node10</title>
<g id="a_edge9_Node000001_Node000010"><a xlink:title=" ">
<path fill="none" stroke="#63b8ff" d="M1268.8,-217.62C1272.18,-208.99 1275.57,-200.31 1278.91,-191.78"/>
<polygon fill="none" stroke="#63b8ff" points="1265.63,-216.13 1265.24,-226.72 1272.15,-218.68 1265.63,-216.13"/>
</a>
</g>
</g>
<!-- Node11 -->
<g id="Node000011" class="node">
<title>Node11</title>
<g id="a_Node000011"><a xlink:href="../../d9/dfb/class_slime_moving.html" target="_top" xlink:title=" ">
<polygon fill="white" stroke="none" points="1577,-168 1415,-168 1415,-24 1577,-24 1577,-168"/>
<text text-anchor="start" x="1467.88" y="-154.5" font-family="Helvetica,sans-Serif" font-size="10.00">SlimeMoving</text>
<text text-anchor="start" x="1419" y="-138.5" font-family="Helvetica,sans-Serif" font-size="10.00">+</text>
<text text-anchor="start" x="1429" y="-138.5" font-family="Helvetica,sans-Serif" font-size="10.00">State Idle</text>
<text text-anchor="start" x="1419" y="-122.5" font-family="Helvetica,sans-Serif" font-size="10.00">+</text>
<text text-anchor="start" x="1429" y="-122.5" font-family="Helvetica,sans-Serif" font-size="10.00">State Attacking</text>
<text text-anchor="start" x="1419" y="-106.5" font-family="Helvetica,sans-Serif" font-size="10.00">+</text>
<text text-anchor="start" x="1429" y="-106.5" font-family="Helvetica,sans-Serif" font-size="10.00">float SPEED</text>
<text text-anchor="start" x="1419" y="-90.5" font-family="Helvetica,sans-Serif" font-size="10.00">+</text>
<text text-anchor="start" x="1429" y="-90.5" font-family="Helvetica,sans-Serif" font-size="10.00">override void _Ready()</text>
<text text-anchor="start" x="1419" y="-74.5" font-family="Helvetica,sans-Serif" font-size="10.00">+</text>
<text text-anchor="start" x="1429" y="-74.5" font-family="Helvetica,sans-Serif" font-size="10.00">override void Enter()</text>
<text text-anchor="start" x="1419" y="-58.5" font-family="Helvetica,sans-Serif" font-size="10.00">+</text>
<text text-anchor="start" x="1429" y="-58.5" font-family="Helvetica,sans-Serif" font-size="10.00">override State ProcessPhysics</text>
<text text-anchor="start" x="1429" y="-46.5" font-family="Helvetica,sans-Serif" font-size="10.00">(double delta)</text>
<text text-anchor="start" x="1419" y="-30.5" font-family="Helvetica,sans-Serif" font-size="10.00">+</text>
<text text-anchor="start" x="1429" y="-30.5" font-family="Helvetica,sans-Serif" font-size="10.00">override void UpdateAnimations()</text>
<polygon fill="#666666" stroke="#666666" points="1415,-150 1415,-150 1577,-150 1577,-150 1415,-150"/>
<polygon fill="#666666" stroke="#666666" points="1415,-102 1415,-102 1427,-102 1427,-102 1415,-102"/>
<polygon fill="#666666" stroke="#666666" points="1427,-102 1427,-102 1577,-102 1577,-102 1427,-102"/>
<polygon fill="none" stroke="#666666" points="1415,-24 1415,-168 1577,-168 1577,-24 1415,-24"/>
</a>
</g>
</g>
<!-- Node1&#45;&gt;Node11 -->
<g id="edge10_Node000001_Node000011" class="edge">
<title>Node1&#45;&gt;Node11</title>
<g id="a_edge10_Node000001_Node000011"><a xlink:title=" ">
<path fill="none" stroke="#63b8ff" d="M1311.64,-267.35C1342.3,-244.81 1376.54,-218.26 1406,-192 1414.48,-184.44 1423.08,-176.21 1431.43,-167.86"/>
<polygon fill="none" stroke="#63b8ff" points="1309.9,-264.28 1303.89,-273 1314.03,-269.93 1309.9,-264.28"/>
</a>
</g>
</g>
<!-- Node12 -->
<g id="Node000012" class="node">
<title>Node12</title>
<g id="a_Node000012"><a xlink:href="../../d2/da1/class_unicorn_charge_attack.html" target="_top" xlink:title=" ">
<polygon fill="white" stroke="none" points="1757,-168 1595,-168 1595,-24 1757,-24 1757,-168"/>
<text text-anchor="start" x="1629.12" y="-154.5" font-family="Helvetica,sans-Serif" font-size="10.00">UnicornChargeAttack</text>
<text text-anchor="start" x="1599" y="-138.5" font-family="Helvetica,sans-Serif" font-size="10.00">+</text>
<text text-anchor="start" x="1609" y="-138.5" font-family="Helvetica,sans-Serif" font-size="10.00">State Wait</text>
<text text-anchor="start" x="1599" y="-122.5" font-family="Helvetica,sans-Serif" font-size="10.00">+</text>
<text text-anchor="start" x="1609" y="-122.5" font-family="Helvetica,sans-Serif" font-size="10.00">float CHARGESPEED</text>
<text text-anchor="start" x="1599" y="-106.5" font-family="Helvetica,sans-Serif" font-size="10.00">+</text>
<text text-anchor="start" x="1609" y="-106.5" font-family="Helvetica,sans-Serif" font-size="10.00">override void _Ready()</text>
<text text-anchor="start" x="1599" y="-90.5" font-family="Helvetica,sans-Serif" font-size="10.00">+</text>
<text text-anchor="start" x="1609" y="-90.5" font-family="Helvetica,sans-Serif" font-size="10.00">override void Enter()</text>
<text text-anchor="start" x="1599" y="-74.5" font-family="Helvetica,sans-Serif" font-size="10.00">+</text>
<text text-anchor="start" x="1609" y="-74.5" font-family="Helvetica,sans-Serif" font-size="10.00">override void Exit()</text>
<text text-anchor="start" x="1599" y="-58.5" font-family="Helvetica,sans-Serif" font-size="10.00">+</text>
<text text-anchor="start" x="1609" y="-58.5" font-family="Helvetica,sans-Serif" font-size="10.00">override State ProcessPhysics</text>
<text text-anchor="start" x="1609" y="-46.5" font-family="Helvetica,sans-Serif" font-size="10.00">(double delta)</text>
<text text-anchor="start" x="1599" y="-30.5" font-family="Helvetica,sans-Serif" font-size="10.00">+</text>
<text text-anchor="start" x="1609" y="-30.5" font-family="Helvetica,sans-Serif" font-size="10.00">override void UpdateAnimations()</text>
<polygon fill="#666666" stroke="#666666" points="1595,-150 1595,-150 1757,-150 1757,-150 1595,-150"/>
<polygon fill="#666666" stroke="#666666" points="1595,-118 1595,-118 1607,-118 1607,-118 1595,-118"/>
<polygon fill="#666666" stroke="#666666" points="1607,-118 1607,-118 1757,-118 1757,-118 1607,-118"/>
<polygon fill="none" stroke="#666666" points="1595,-24 1595,-168 1757,-168 1757,-24 1595,-24"/>
</a>
</g>
</g>
<!-- Node1&#45;&gt;Node12 -->
<g id="edge11_Node000001_Node000012" class="edge">
<title>Node1&#45;&gt;Node12</title>
<g id="a_edge11_Node000001_Node000012"><a xlink:title=" ">
<path fill="none" stroke="#63b8ff" d="M1313.71,-306.13C1390,-285.28 1501.3,-248.17 1586,-192 1596.41,-185.09 1606.51,-176.77 1615.94,-167.96"/>
<polygon fill="none" stroke="#63b8ff" points="1312.92,-302.72 1304.18,-308.7 1314.74,-309.48 1312.92,-302.72"/>
</a>
</g>
</g>
<!-- Node13 -->
<g id="Node000013" class="node">
<title>Node13</title>
<g id="a_Node000013"><a xlink:href="../../d0/d8c/class_unicorn_death.html" target="_top" xlink:title=" ">
<polygon fill="white" stroke="none" points="1937,-144 1775,-144 1775,-48 1937,-48 1937,-144"/>
<text text-anchor="start" x="1826" y="-130.5" font-family="Helvetica,sans-Serif" font-size="10.00">UnicornDeath</text>
<text text-anchor="start" x="1779" y="-114.5" font-family="Helvetica,sans-Serif" font-size="10.00">+</text>
<text text-anchor="start" x="1789" y="-114.5" font-family="Helvetica,sans-Serif" font-size="10.00">double DeathAnimationTime</text>
<text text-anchor="start" x="1779" y="-98.5" font-family="Helvetica,sans-Serif" font-size="10.00">+</text>
<text text-anchor="start" x="1789" y="-98.5" font-family="Helvetica,sans-Serif" font-size="10.00">override void Enter()</text>
<text text-anchor="start" x="1779" y="-82.5" font-family="Helvetica,sans-Serif" font-size="10.00">+</text>
<text text-anchor="start" x="1789" y="-82.5" font-family="Helvetica,sans-Serif" font-size="10.00">override State ProcessPhysics</text>
<text text-anchor="start" x="1789" y="-70.5" font-family="Helvetica,sans-Serif" font-size="10.00">(double delta)</text>
<text text-anchor="start" x="1779" y="-54.5" font-family="Helvetica,sans-Serif" font-size="10.00">+</text>
<text text-anchor="start" x="1789" y="-54.5" font-family="Helvetica,sans-Serif" font-size="10.00">override void UpdateAnimations()</text>
<polygon fill="#666666" stroke="#666666" points="1775,-126 1775,-126 1937,-126 1937,-126 1775,-126"/>
<polygon fill="#666666" stroke="#666666" points="1775,-110 1775,-110 1787,-110 1787,-110 1775,-110"/>
<polygon fill="#666666" stroke="#666666" points="1787,-110 1787,-110 1937,-110 1937,-110 1787,-110"/>
<polygon fill="none" stroke="#666666" points="1775,-48 1775,-144 1937,-144 1937,-48 1775,-48"/>
</a>
</g>
</g>
<!-- Node1&#45;&gt;Node13 -->
<g id="edge12_Node000001_Node000013" class="edge">
<title>Node1&#45;&gt;Node13</title>
<g id="a_edge12_Node000001_Node000013"><a xlink:title=" ">
<path fill="none" stroke="#63b8ff" d="M1313.85,-320.23C1425.66,-308.35 1621.6,-276.35 1766,-192 1786.99,-179.74 1806.16,-161.13 1821.36,-143.62"/>
<polygon fill="none" stroke="#63b8ff" points="1313.73,-316.73 1304.14,-321.23 1314.45,-323.69 1313.73,-316.73"/>
</a>
</g>
</g>
<!-- Node14 -->
<g id="Node000014" class="node">
<title>Node14</title>
<g id="a_Node000014"><a xlink:href="../../d2/df5/class_unicorn_shooting_attack.html" target="_top" xlink:title=" ">
<polygon fill="white" stroke="none" points="2117,-166 1955,-166 1955,-26 2117,-26 2117,-166"/>
<text text-anchor="start" x="1985.75" y="-152.5" font-family="Helvetica,sans-Serif" font-size="10.00">UnicornShootingAttack</text>
<text text-anchor="start" x="1959" y="-136.5" font-family="Helvetica,sans-Serif" font-size="10.00">+</text>
<text text-anchor="start" x="1969" y="-136.5" font-family="Helvetica,sans-Serif" font-size="10.00">State Wait</text>
<text text-anchor="start" x="1959" y="-120.5" font-family="Helvetica,sans-Serif" font-size="10.00">+</text>
<text text-anchor="start" x="1969" y="-120.5" font-family="Helvetica,sans-Serif" font-size="10.00">double ShootingAnimation</text>
<text text-anchor="start" x="1969" y="-108.5" font-family="Helvetica,sans-Serif" font-size="10.00">Duration</text>
<text text-anchor="start" x="1959" y="-92.5" font-family="Helvetica,sans-Serif" font-size="10.00">+</text>
<text text-anchor="start" x="1969" y="-92.5" font-family="Helvetica,sans-Serif" font-size="10.00">override void _Ready()</text>
<text text-anchor="start" x="1959" y="-76.5" font-family="Helvetica,sans-Serif" font-size="10.00">+</text>
<text text-anchor="start" x="1969" y="-76.5" font-family="Helvetica,sans-Serif" font-size="10.00">override void Enter()</text>
<text text-anchor="start" x="1959" y="-60.5" font-family="Helvetica,sans-Serif" font-size="10.00">+</text>
<text text-anchor="start" x="1969" y="-60.5" font-family="Helvetica,sans-Serif" font-size="10.00">override State ProcessPhysics</text>
<text text-anchor="start" x="1969" y="-48.5" font-family="Helvetica,sans-Serif" font-size="10.00">(double delta)</text>
<text text-anchor="start" x="1959" y="-32.5" font-family="Helvetica,sans-Serif" font-size="10.00">+</text>
<text text-anchor="start" x="1969" y="-32.5" font-family="Helvetica,sans-Serif" font-size="10.00">override void UpdateAnimations()</text>
<polygon fill="#666666" stroke="#666666" points="1955,-148 1955,-148 2117,-148 2117,-148 1955,-148"/>
<polygon fill="#666666" stroke="#666666" points="1955,-104 1955,-104 1967,-104 1967,-104 1955,-104"/>
<polygon fill="#666666" stroke="#666666" points="1967,-104 1967,-104 2117,-104 2117,-104 1967,-104"/>
<polygon fill="none" stroke="#666666" points="1955,-26 1955,-166 2117,-166 2117,-26 1955,-26"/>
</a>
</g>
</g>
<!-- Node1&#45;&gt;Node14 -->
<g id="edge13_Node000001_Node000014" class="edge">
<title>Node1&#45;&gt;Node14</title>
<g id="a_edge13_Node000001_Node000014"><a xlink:title=" ">
<path fill="none" stroke="#63b8ff" d="M1314.05,-327.58C1455.8,-324.91 1739.54,-304.49 1946,-192 1958.57,-185.15 1970.4,-175.92 1981.1,-165.89"/>
<polygon fill="none" stroke="#63b8ff" points="1314.31,-324.07 1304.37,-327.73 1314.42,-331.07 1314.31,-324.07"/>
</a>
</g>
</g>
<!-- Node15 -->
<g id="Node000015" class="node">
<title>Node15</title>
<g id="a_Node000015"><a xlink:href="../../d1/d6c/class_unicorn_stomping_attack.html" target="_top" xlink:title=" ">
<polygon fill="white" stroke="none" points="2297,-174 2135,-174 2135,-18 2297,-18 2297,-174"/>
<text text-anchor="start" x="2164.25" y="-160.5" font-family="Helvetica,sans-Serif" font-size="10.00">UnicornStompingAttack</text>
<text text-anchor="start" x="2139" y="-144.5" font-family="Helvetica,sans-Serif" font-size="10.00">+</text>
<text text-anchor="start" x="2149" y="-144.5" font-family="Helvetica,sans-Serif" font-size="10.00">State Wait</text>
<text text-anchor="start" x="2139" y="-128.5" font-family="Helvetica,sans-Serif" font-size="10.00">+</text>
<text text-anchor="start" x="2149" y="-128.5" font-family="Helvetica,sans-Serif" font-size="10.00">double StompingAnimation</text>
<text text-anchor="start" x="2149" y="-116.5" font-family="Helvetica,sans-Serif" font-size="10.00">Duration</text>
<text text-anchor="start" x="2139" y="-100.5" font-family="Helvetica,sans-Serif" font-size="10.00">+</text>
<text text-anchor="start" x="2149" y="-100.5" font-family="Helvetica,sans-Serif" font-size="10.00">double StompingDelayTime</text>
<text text-anchor="start" x="2139" y="-84.5" font-family="Helvetica,sans-Serif" font-size="10.00">+</text>
<text text-anchor="start" x="2149" y="-84.5" font-family="Helvetica,sans-Serif" font-size="10.00">override void _Ready()</text>
<text text-anchor="start" x="2139" y="-68.5" font-family="Helvetica,sans-Serif" font-size="10.00">+</text>
<text text-anchor="start" x="2149" y="-68.5" font-family="Helvetica,sans-Serif" font-size="10.00">override void Enter()</text>
<text text-anchor="start" x="2139" y="-52.5" font-family="Helvetica,sans-Serif" font-size="10.00">+</text>
<text text-anchor="start" x="2149" y="-52.5" font-family="Helvetica,sans-Serif" font-size="10.00">override State ProcessPhysics</text>
<text text-anchor="start" x="2149" y="-40.5" font-family="Helvetica,sans-Serif" font-size="10.00">(double delta)</text>
<text text-anchor="start" x="2139" y="-24.5" font-family="Helvetica,sans-Serif" font-size="10.00">+</text>
<text text-anchor="start" x="2149" y="-24.5" font-family="Helvetica,sans-Serif" font-size="10.00">override void UpdateAnimations()</text>
<polygon fill="#666666" stroke="#666666" points="2135,-156 2135,-156 2297,-156 2297,-156 2135,-156"/>
<polygon fill="#666666" stroke="#666666" points="2135,-96 2135,-96 2147,-96 2147,-96 2135,-96"/>
<polygon fill="#666666" stroke="#666666" points="2147,-96 2147,-96 2297,-96 2297,-96 2147,-96"/>
<polygon fill="none" stroke="#666666" points="2135,-18 2135,-174 2297,-174 2297,-18 2135,-18"/>
</a>
</g>
</g>
<!-- Node1&#45;&gt;Node15 -->
<g id="edge14_Node000001_Node000015" class="edge">
<title>Node1&#45;&gt;Node15</title>
<g id="a_edge14_Node000001_Node000015"><a xlink:title=" ">
<path fill="none" stroke="#63b8ff" d="M1314.08,-321.09C1511.96,-306.66 1985.39,-265.32 2126,-192 2135.37,-187.12 2144.3,-180.87 2152.65,-173.92"/>
<polygon fill="none" stroke="#63b8ff" points="1314.1,-317.58 1304.38,-321.79 1314.61,-324.56 1314.1,-317.58"/>
</a>
</g>
</g>
<!-- Node16 -->
<g id="Node000016" class="node">
<title>Node16</title>
<g id="a_Node000016"><a xlink:href="../../dd/d3c/class_unicorn_wait.html" target="_top" xlink:title=" ">
<polygon fill="white" stroke="none" points="2477,-192 2315,-192 2315,0 2477,0 2477,-192"/>
<text text-anchor="start" x="2369.38" y="-178.5" font-family="Helvetica,sans-Serif" font-size="10.00">UnicornWait</text>
<text text-anchor="start" x="2319" y="-162.5" font-family="Helvetica,sans-Serif" font-size="10.00">+</text>
<text text-anchor="start" x="2329" y="-162.5" font-family="Helvetica,sans-Serif" font-size="10.00">State ChargeAttack</text>
<text text-anchor="start" x="2319" y="-146.5" font-family="Helvetica,sans-Serif" font-size="10.00">+</text>
<text text-anchor="start" x="2329" y="-146.5" font-family="Helvetica,sans-Serif" font-size="10.00">State ShootingAttack</text>
<text text-anchor="start" x="2319" y="-130.5" font-family="Helvetica,sans-Serif" font-size="10.00">+</text>
<text text-anchor="start" x="2329" y="-130.5" font-family="Helvetica,sans-Serif" font-size="10.00">State StompingAttack</text>
<text text-anchor="start" x="2319" y="-114.5" font-family="Helvetica,sans-Serif" font-size="10.00">+</text>
<text text-anchor="start" x="2329" y="-114.5" font-family="Helvetica,sans-Serif" font-size="10.00">float SPEED</text>
<text text-anchor="start" x="2319" y="-98.5" font-family="Helvetica,sans-Serif" font-size="10.00">+</text>
<text text-anchor="start" x="2329" y="-98.5" font-family="Helvetica,sans-Serif" font-size="10.00">float WaitTime</text>
<text text-anchor="start" x="2319" y="-82.5" font-family="Helvetica,sans-Serif" font-size="10.00">+</text>
<text text-anchor="start" x="2329" y="-82.5" font-family="Helvetica,sans-Serif" font-size="10.00">override void _Ready()</text>
<text text-anchor="start" x="2319" y="-66.5" font-family="Helvetica,sans-Serif" font-size="10.00">+</text>
<text text-anchor="start" x="2329" y="-66.5" font-family="Helvetica,sans-Serif" font-size="10.00">override void Enter()</text>
<text text-anchor="start" x="2319" y="-50.5" font-family="Helvetica,sans-Serif" font-size="10.00">+</text>
<text text-anchor="start" x="2329" y="-50.5" font-family="Helvetica,sans-Serif" font-size="10.00">override void Exit()</text>
<text text-anchor="start" x="2319" y="-34.5" font-family="Helvetica,sans-Serif" font-size="10.00">+</text>
<text text-anchor="start" x="2329" y="-34.5" font-family="Helvetica,sans-Serif" font-size="10.00">override State ProcessPhysics</text>
<text text-anchor="start" x="2329" y="-22.5" font-family="Helvetica,sans-Serif" font-size="10.00">(double delta)</text>
<text text-anchor="start" x="2319" y="-6.5" font-family="Helvetica,sans-Serif" font-size="10.00">+</text>
<text text-anchor="start" x="2329" y="-6.5" font-family="Helvetica,sans-Serif" font-size="10.00">override void UpdateAnimations()</text>
<polygon fill="#666666" stroke="#666666" points="2315,-174 2315,-174 2477,-174 2477,-174 2315,-174"/>
<polygon fill="#666666" stroke="#666666" points="2315,-94 2315,-94 2327,-94 2327,-94 2315,-94"/>
<polygon fill="#666666" stroke="#666666" points="2327,-94 2327,-94 2477,-94 2477,-94 2327,-94"/>
<polygon fill="none" stroke="#666666" points="2315,0 2315,-192 2477,-192 2477,0 2315,0"/>
</a>
</g>
</g>
<!-- Node1&#45;&gt;Node16 -->
<g id="edge15_Node000001_Node000016" class="edge">
<title>Node1&#45;&gt;Node16</title>
<g id="a_edge15_Node000001_Node000016"><a xlink:title=" ">
<path fill="none" stroke="#63b8ff" d="M1314.3,-323.59C1540.01,-313.67 2132.51,-279.78 2306,-192 2309.14,-190.41 2312.23,-188.66 2315.27,-186.79"/>
<polygon fill="none" stroke="#63b8ff" points="1314.21,-320.09 1304.37,-324.02 1314.51,-327.08 1314.21,-320.09"/>
</a>
</g>
</g>
<!-- Node2 -->
<g id="Node000002" class="node">
<title>Node2</title>
<g id="a_Node000002"><a xlink:href="../../dc/d8f/class_node.html" target="_top" xlink:title=" ">
<polygon fill="white" stroke="none" points="1242.5,-516 1209.5,-516 1209.5,-464 1242.5,-464 1242.5,-516"/>
<text text-anchor="start" x="1214.38" y="-502.5" font-family="Helvetica,sans-Serif" font-size="10.00">Node</text>
<text text-anchor="start" x="1224.5" y="-486.5" font-family="Helvetica,sans-Serif" font-size="10.00"> </text>
<text text-anchor="start" x="1224.5" y="-470.5" font-family="Helvetica,sans-Serif" font-size="10.00"> </text>
<polygon fill="#666666" stroke="#666666" points="1209.5,-498 1209.5,-498 1242.5,-498 1242.5,-498 1209.5,-498"/>
<polygon fill="#666666" stroke="#666666" points="1209.5,-482 1209.5,-482 1242.5,-482 1242.5,-482 1209.5,-482"/>
<polygon fill="none" stroke="#666666" points="1209.5,-464 1209.5,-516 1242.5,-516 1242.5,-464 1209.5,-464"/>
</a>
</g>
</g>
<!-- Node2&#45;&gt;Node1 -->
<g id="edge1_Node000001_Node000002" class="edge">
<title>Node2&#45;&gt;Node1</title>
<g id="a_edge1_Node000001_Node000002"><a xlink:title=" ">
<path fill="none" stroke="#63b8ff" d="M1226,-452.63C1226,-444.94 1226,-436.49 1226,-427.71"/>
<polygon fill="none" stroke="#63b8ff" points="1222.5,-452.49 1226,-462.49 1229.5,-452.49 1222.5,-452.49"/>
</a>
</g>
</g>
</g>
</svg>
