<?xml version="1.0" encoding="UTF-8" standalone="no"?>
<!DOCTYPE svg PUBLIC "-//W3C//DTD SVG 1.1//EN"
 "http://www.w3.org/Graphics/SVG/1.1/DTD/svg11.dtd">
<!-- Generated by graphviz version 12.1.0 (20240811.2233)
 -->
<!-- Title: State Pages: 1 -->
<svg width="2485pt" height="548pt"
 viewBox="0.00 0.00 2485.00 548.00" xmlns="http://www.w3.org/2000/svg" xmlns:xlink="http://www.w3.org/1999/xlink">
<g id="graph0" class="graph" transform="scale(1 1) rotate(0) translate(4 544)">
<title>State</title>
<!-- Node1 -->
<g id="Node000001" class="node">
<title>Node1</title>
<g id="a_Node000001"><a xlink:title=" ">
<polygon fill="#999999" stroke="none" points="1303,-452 1149,-452 1149,-252 1303,-252 1303,-452"/>
<text text-anchor="start" x="1214.38" y="-438.5" font-family="Helvetica,sans-Serif" font-size="10.00">State</text>
<text text-anchor="start" x="1153" y="-422.5" font-family="Helvetica,sans-Serif" font-size="10.00">+</text>
<text text-anchor="start" x="1163" y="-422.5" font-family="Helvetica,sans-Serif" font-size="10.00">CharacterBody2D Parent</text>
<text text-anchor="start" x="1153" y="-406.5" font-family="Helvetica,sans-Serif" font-size="10.00">+</text>
<text text-anchor="start" x="1163" y="-406.5" font-family="Helvetica,sans-Serif" font-size="10.00">AnimationPlayer Animations</text>
<text text-anchor="start" x="1153" y="-390.5" font-family="Helvetica,sans-Serif" font-size="10.00">+</text>
<text text-anchor="start" x="1163" y="-390.5" font-family="Helvetica,sans-Serif" font-size="10.00">virtual bool CanEnter()</text>
<text text-anchor="start" x="1153" y="-374.5" font-family="Helvetica,sans-Serif" font-size="10.00">+</text>
<text text-anchor="start" x="1163" y="-374.5" font-family="Helvetica,sans-Serif" font-size="10.00">virtual void Enter()</text>
<text text-anchor="start" x="1153" y="-358.5" font-family="Helvetica,sans-Serif" font-size="10.00">+</text>
<text text-anchor="start" x="1163" y="-358.5" font-family="Helvetica,sans-Serif" font-size="10.00">virtual void Exit()</text>
<text text-anchor="start" x="1153" y="-342.5" font-family="Helvetica,sans-Serif" font-size="10.00">+</text>
<text text-anchor="start" x="1163" y="-342.5" font-family="Helvetica,sans-Serif" font-size="10.00">virtual State ProcessInput</text>
<text text-anchor="start" x="1163" y="-330.5" font-family="Helvetica,sans-Serif" font-size="10.00">(InputEvent @event)</text>
<text text-anchor="start" x="1153" y="-314.5" font-family="Helvetica,sans-Serif" font-size="10.00">+</text>
<text text-anchor="start" x="1163" y="-314.5" font-family="Helvetica,sans-Serif" font-size="10.00">virtual State ProcessFrame</text>
<text text-anchor="start" x="1163" y="-302.5" font-family="Helvetica,sans-Serif" font-size="10.00">(double delta)</text>
<text text-anchor="start" x="1153" y="-286.5" font-family="Helvetica,sans-Serif" font-size="10.00">+</text>
<text text-anchor="start" x="1163" y="-286.5" font-family="Helvetica,sans-Serif" font-size="10.00">virtual State ProcessPhysics</text>
<text text-anchor="start" x="1163" y="-274.5" font-family="Helvetica,sans-Serif" font-size="10.00">(double delta)</text>
<text text-anchor="start" x="1153" y="-258.5" font-family="Helvetica,sans-Serif" font-size="10.00">+</text>
<text text-anchor="start" x="1163" y="-258.5" font-family="Helvetica,sans-Serif" font-size="10.00">virtual void UpdateAnimations()</text>
<polygon fill="#666666" stroke="#666666" points="1149,-434 1149,-434 1303,-434 1303,-434 1149,-434"/>
<polygon fill="#666666" stroke="#666666" points="1149,-402 1149,-402 1161,-402 1161,-402 1149,-402"/>
<polygon fill="#666666" stroke="#666666" points="1161,-402 1161,-402 1303,-402 1303,-402 1161,-402"/>
<polygon fill="none" stroke="#666666" points="1149,-252 1149,-452 1303,-452 1303,-252 1149,-252"/>
</a>
</g>
</g>
<!-- Node3 -->
<g id="Node000003" class="node">
<title>Node3</title>
<g id="a_Node000003"><a xlink:href="../../d2/df1/class_player_dashing.html" target="_top" xlink:title=" ">
<polygon fill="white" stroke="none" points="162,-202 0,-202 0,-14 162,-14 162,-202"/>
<text text-anchor="start" x="49.12" y="-188.5" font-family="Helvetica,sans-Serif" font-size="10.00">PlayerDashing</text>
<text text-anchor="start" x="4" y="-172.5" font-family="Helvetica,sans-Serif" font-size="10.00">+</text>
<text text-anchor="start" x="14" y="-172.5" font-family="Helvetica,sans-Serif" font-size="10.00">AudioStreamPlayer2D</text>
<text text-anchor="start" x="14" y="-160.5" font-family="Helvetica,sans-Serif" font-size="10.00"> DashSound</text>
<text text-anchor="start" x="4" y="-144.5" font-family="Helvetica,sans-Serif" font-size="10.00">+</text>
<text text-anchor="start" x="14" y="-144.5" font-family="Helvetica,sans-Serif" font-size="10.00">CollisionShape2D HitBox</text>
<text text-anchor="start" x="4" y="-128.5" font-family="Helvetica,sans-Serif" font-size="10.00">+</text>
<text text-anchor="start" x="14" y="-128.5" font-family="Helvetica,sans-Serif" font-size="10.00">double SPEED</text>
<text text-anchor="start" x="4" y="-112.5" font-family="Helvetica,sans-Serif" font-size="10.00">+</text>
<text text-anchor="start" x="14" y="-112.5" font-family="Helvetica,sans-Serif" font-size="10.00">double DASH_TIME</text>
<text text-anchor="start" x="4" y="-96.5" font-family="Helvetica,sans-Serif" font-size="10.00">+</text>
<text text-anchor="start" x="14" y="-96.5" font-family="Helvetica,sans-Serif" font-size="10.00">State Idle</text>
<text text-anchor="start" x="4" y="-80.5" font-family="Helvetica,sans-Serif" font-size="10.00">+</text>
<text text-anchor="start" x="14" y="-80.5" font-family="Helvetica,sans-Serif" font-size="10.00">override void Enter()</text>
<text text-anchor="start" x="4" y="-64.5" font-family="Helvetica,sans-Serif" font-size="10.00">+</text>
<text text-anchor="start" x="14" y="-64.5" font-family="Helvetica,sans-Serif" font-size="10.00">override void Exit()</text>
<text text-anchor="start" x="4" y="-48.5" font-family="Helvetica,sans-Serif" font-size="10.00">+</text>
<text text-anchor="start" x="14" y="-48.5" font-family="Helvetica,sans-Serif" font-size="10.00">override State ProcessPhysics</text>
<text text-anchor="start" x="14" y="-36.5" font-family="Helvetica,sans-Serif" font-size="10.00">(double delta)</text>
<text text-anchor="start" x="4" y="-20.5" font-family="Helvetica,sans-Serif" font-size="10.00">+</text>
<text text-anchor="start" x="14" y="-20.5" font-family="Helvetica,sans-Serif" font-size="10.00">override void UpdateAnimations()</text>
<polygon fill="#666666" stroke="#666666" points="0,-184 0,-184 162,-184 162,-184 0,-184"/>
<polygon fill="#666666" stroke="#666666" points="0,-92 0,-92 12,-92 12,-92 0,-92"/>
<polygon fill="#666666" stroke="#666666" points="12,-92 12,-92 162,-92 162,-92 12,-92"/>
<polygon fill="none" stroke="#666666" points="0,-14 0,-202 162,-202 162,-14 0,-14"/>
</a>
</g>
</g>
<!-- Node1&#45;&gt;Node3 -->
<g id="edge2_Node000001_Node000003" class="edge">
<title>Node1&#45;&gt;Node3</title>
<g id="a_edge2_Node000001_Node000003"><a xlink:title=" ">
<path fill="none" stroke="#63b8ff" d="M1137.85,-347.89C915.44,-338.78 337.4,-306.77 171,-216 163.75,-212.05 156.85,-207.26 150.31,-201.92"/>
<polygon fill="none" stroke="#63b8ff" points="1137.48,-351.38 1147.61,-348.29 1137.76,-344.39 1137.48,-351.38"/>
</a>
</g>
</g>
<!-- Node4 -->
<g id="Node000004" class="node">
<title>Node4</title>
<g id="a_Node000004"><a xlink:href="../../dc/d4c/class_player_death.html" target="_top" xlink:title=" ">
<polygon fill="white" stroke="none" points="333.5,-148 180.5,-148 180.5,-68 333.5,-68 333.5,-148"/>
<text text-anchor="start" x="230" y="-134.5" font-family="Helvetica,sans-Serif" font-size="10.00">PlayerDeath</text>
<text text-anchor="start" x="184.5" y="-118.5" font-family="Helvetica,sans-Serif" font-size="10.00">+</text>
<text text-anchor="start" x="194.5" y="-118.5" font-family="Helvetica,sans-Serif" font-size="10.00">double DeathAnimationTime</text>
<text text-anchor="start" x="184.5" y="-102.5" font-family="Helvetica,sans-Serif" font-size="10.00">+</text>
<text text-anchor="start" x="194.5" y="-102.5" font-family="Helvetica,sans-Serif" font-size="10.00">override void Enter()</text>
<text text-anchor="start" x="184.5" y="-86.5" font-family="Helvetica,sans-Serif" font-size="10.00">+</text>
<text text-anchor="start" x="194.5" y="-86.5" font-family="Helvetica,sans-Serif" font-size="10.00">override State ProcessPhysics</text>
<text text-anchor="start" x="194.5" y="-74.5" font-family="Helvetica,sans-Serif" font-size="10.00">(double delta)</text>
<polygon fill="#666666" stroke="#666666" points="180.5,-130 180.5,-130 333.5,-130 333.5,-130 180.5,-130"/>
<polygon fill="#666666" stroke="#666666" points="180.5,-114 180.5,-114 192.5,-114 192.5,-114 180.5,-114"/>
<polygon fill="#666666" stroke="#666666" points="192.5,-114 192.5,-114 333.5,-114 333.5,-114 192.5,-114"/>
<polygon fill="none" stroke="#666666" points="180.5,-68 180.5,-148 333.5,-148 333.5,-68 180.5,-68"/>
</a>
</g>
</g>
<!-- Node1&#45;&gt;Node4 -->
<g id="edge3_Node000001_Node000004" class="edge">
<title>Node1&#45;&gt;Node4</title>
<g id="a_edge3_Node000001_Node000004"><a xlink:title=" ">
<path fill="none" stroke="#63b8ff" d="M1137.65,-345.68C941.52,-332.57 476.48,-293.98 342,-216 314.5,-200.05 292.5,-171.48 277.78,-147.88"/>
<polygon fill="none" stroke="#63b8ff" points="1137.33,-349.16 1147.54,-346.33 1137.79,-342.18 1137.33,-349.16"/>
</a>
</g>
</g>
<!-- Node5 -->
<g id="Node000005" class="node">
<title>Node5</title>
<g id="a_Node000005"><a xlink:href="../../d3/d9d/class_player_idle.html" target="_top" xlink:title=" ">
<polygon fill="white" stroke="none" points="504.5,-164 351.5,-164 351.5,-52 504.5,-52 504.5,-164"/>
<text text-anchor="start" x="406.25" y="-150.5" font-family="Helvetica,sans-Serif" font-size="10.00">PlayerIdle</text>
<text text-anchor="start" x="355.5" y="-134.5" font-family="Helvetica,sans-Serif" font-size="10.00">+</text>
<text text-anchor="start" x="365.5" y="-134.5" font-family="Helvetica,sans-Serif" font-size="10.00">State Moving</text>
<text text-anchor="start" x="355.5" y="-118.5" font-family="Helvetica,sans-Serif" font-size="10.00">+</text>
<text text-anchor="start" x="365.5" y="-118.5" font-family="Helvetica,sans-Serif" font-size="10.00">State Dashing</text>
<text text-anchor="start" x="355.5" y="-102.5" font-family="Helvetica,sans-Serif" font-size="10.00">+</text>
<text text-anchor="start" x="365.5" y="-102.5" font-family="Helvetica,sans-Serif" font-size="10.00">State SpellCasting</text>
<text text-anchor="start" x="355.5" y="-86.5" font-family="Helvetica,sans-Serif" font-size="10.00">+</text>
<text text-anchor="start" x="365.5" y="-86.5" font-family="Helvetica,sans-Serif" font-size="10.00">override void Enter()</text>
<text text-anchor="start" x="355.5" y="-70.5" font-family="Helvetica,sans-Serif" font-size="10.00">+</text>
<text text-anchor="start" x="365.5" y="-70.5" font-family="Helvetica,sans-Serif" font-size="10.00">override State ProcessPhysics</text>
<text text-anchor="start" x="365.5" y="-58.5" font-family="Helvetica,sans-Serif" font-size="10.00">(double delta)</text>
<polygon fill="#666666" stroke="#666666" points="351.5,-146 351.5,-146 504.5,-146 504.5,-146 351.5,-146"/>
<polygon fill="#666666" stroke="#666666" points="351.5,-98 351.5,-98 363.5,-98 363.5,-98 351.5,-98"/>
<polygon fill="#666666" stroke="#666666" points="363.5,-98 363.5,-98 504.5,-98 504.5,-98 363.5,-98"/>
<polygon fill="none" stroke="#666666" points="351.5,-52 351.5,-164 504.5,-164 504.5,-52 351.5,-52"/>
</a>
</g>
</g>
<!-- Node1&#45;&gt;Node5 -->
<g id="edge4_Node000001_Node000005" class="edge">
<title>Node1&#45;&gt;Node5</title>
<g id="a_edge4_Node000001_Node000005"><a xlink:title=" ">
<path fill="none" stroke="#63b8ff" d="M1137.89,-341.97C971.49,-323.68 618.33,-278.62 514,-216 492.75,-203.24 474.57,-183.19 460.48,-163.88"/>
<polygon fill="none" stroke="#63b8ff" points="1137.23,-345.42 1147.55,-343.02 1137.99,-338.46 1137.23,-345.42"/>
</a>
</g>
</g>
<!-- Node6 -->
<g id="Node000006" class="node">
<title>Node6</title>
<g id="a_Node000006"><a xlink:href="../../dc/d24/class_player_moving.html" target="_top" xlink:title=" ">
<polygon fill="white" stroke="none" points="685,-216 523,-216 523,0 685,0 685,-216"/>
<text text-anchor="start" x="574.38" y="-202.5" font-family="Helvetica,sans-Serif" font-size="10.00">PlayerMoving</text>
<text text-anchor="start" x="527" y="-186.5" font-family="Helvetica,sans-Serif" font-size="10.00">+</text>
<text text-anchor="start" x="537" y="-186.5" font-family="Helvetica,sans-Serif" font-size="10.00">double SPEED</text>
<text text-anchor="start" x="527" y="-170.5" font-family="Helvetica,sans-Serif" font-size="10.00">+</text>
<text text-anchor="start" x="537" y="-170.5" font-family="Helvetica,sans-Serif" font-size="10.00">AudioStreamPlayer2D</text>
<text text-anchor="start" x="537" y="-158.5" font-family="Helvetica,sans-Serif" font-size="10.00"> WalkingSound</text>
<text text-anchor="start" x="527" y="-142.5" font-family="Helvetica,sans-Serif" font-size="10.00">+</text>
<text text-anchor="start" x="537" y="-142.5" font-family="Helvetica,sans-Serif" font-size="10.00">State Idle</text>
<text text-anchor="start" x="527" y="-126.5" font-family="Helvetica,sans-Serif" font-size="10.00">+</text>
<text text-anchor="start" x="537" y="-126.5" font-family="Helvetica,sans-Serif" font-size="10.00">State Dashing</text>
<text text-anchor="start" x="527" y="-110.5" font-family="Helvetica,sans-Serif" font-size="10.00">+</text>
<text text-anchor="start" x="537" y="-110.5" font-family="Helvetica,sans-Serif" font-size="10.00">State SpellCasting</text>
<text text-anchor="start" x="527" y="-94.5" font-family="Helvetica,sans-Serif" font-size="10.00">+</text>
<text text-anchor="start" x="537" y="-94.5" font-family="Helvetica,sans-Serif" font-size="10.00">override State ProcessInput</text>
<text text-anchor="start" x="537" y="-82.5" font-family="Helvetica,sans-Serif" font-size="10.00">(InputEvent @event)</text>
<text text-anchor="start" x="527" y="-66.5" font-family="Helvetica,sans-Serif" font-size="10.00">+</text>
<text text-anchor="start" x="537" y="-66.5" font-family="Helvetica,sans-Serif" font-size="10.00">override State ProcessPhysics</text>
<text text-anchor="start" x="537" y="-54.5" font-family="Helvetica,sans-Serif" font-size="10.00">(double delta)</text>
<text text-anchor="start" x="527" y="-38.5" font-family="Helvetica,sans-Serif" font-size="10.00">+</text>
<text text-anchor="start" x="537" y="-38.5" font-family="Helvetica,sans-Serif" font-size="10.00">override void UpdateAnimations()</text>
<text text-anchor="start" x="527" y="-22.5" font-family="Helvetica,sans-Serif" font-size="10.00">+</text>
<text text-anchor="start" x="537" y="-22.5" font-family="Helvetica,sans-Serif" font-size="10.00">override void Enter()</text>
<text text-anchor="start" x="527" y="-6.5" font-family="Helvetica,sans-Serif" font-size="10.00">+</text>
<text text-anchor="start" x="537" y="-6.5" font-family="Helvetica,sans-Serif" font-size="10.00">override void Exit()</text>
<polygon fill="#666666" stroke="#666666" points="523,-198 523,-198 685,-198 685,-198 523,-198"/>
<polygon fill="#666666" stroke="#666666" points="523,-106 523,-106 535,-106 535,-106 523,-106"/>
<polygon fill="#666666" stroke="#666666" points="535,-106 535,-106 685,-106 685,-106 535,-106"/>
<polygon fill="none" stroke="#666666" points="523,0 523,-216 685,-216 685,0 523,0"/>
</a>
</g>
</g>
<!-- Node1&#45;&gt;Node6 -->
<g id="edge5_Node000001_Node000006" class="edge">
<title>Node1&#45;&gt;Node6</title>
<g id="a_edge5_Node000001_Node000006"><a xlink:title=" ">
<path fill="none" stroke="#63b8ff" d="M1138.18,-345.21C1027.11,-334.37 833.52,-303.47 694,-216 690.92,-214.07 687.88,-211.99 684.91,-209.8"/>
<polygon fill="none" stroke="#63b8ff" points="1137.54,-348.66 1147.82,-346.11 1138.19,-341.69 1137.54,-348.66"/>
</a>
</g>
</g>
<!-- Node7 -->
<g id="Node000007" class="node">
<title>Node7</title>
<g id="a_Node000007"><a xlink:href="../../d4/d55/class_player_spell_casting.html" target="_top" xlink:title=" ">
<polygon fill="white" stroke="none" points="856.5,-156 703.5,-156 703.5,-60 856.5,-60 856.5,-156"/>
<text text-anchor="start" x="738.38" y="-142.5" font-family="Helvetica,sans-Serif" font-size="10.00">PlayerSpellCasting</text>
<text text-anchor="start" x="707.5" y="-126.5" font-family="Helvetica,sans-Serif" font-size="10.00">+</text>
<text text-anchor="start" x="717.5" y="-126.5" font-family="Helvetica,sans-Serif" font-size="10.00">State Idle</text>
<text text-anchor="start" x="707.5" y="-110.5" font-family="Helvetica,sans-Serif" font-size="10.00">+</text>
<text text-anchor="start" x="717.5" y="-110.5" font-family="Helvetica,sans-Serif" font-size="10.00">override void Enter()</text>
<text text-anchor="start" x="707.5" y="-94.5" font-family="Helvetica,sans-Serif" font-size="10.00">+</text>
<text text-anchor="start" x="717.5" y="-94.5" font-family="Helvetica,sans-Serif" font-size="10.00">override bool CanEnter()</text>
<text text-anchor="start" x="707.5" y="-78.5" font-family="Helvetica,sans-Serif" font-size="10.00">+</text>
<text text-anchor="start" x="717.5" y="-78.5" font-family="Helvetica,sans-Serif" font-size="10.00">override State ProcessPhysics</text>
<text text-anchor="start" x="717.5" y="-66.5" font-family="Helvetica,sans-Serif" font-size="10.00">(double delta)</text>
<polygon fill="#666666" stroke="#666666" points="703.5,-138 703.5,-138 856.5,-138 856.5,-138 703.5,-138"/>
<polygon fill="#666666" stroke="#666666" points="703.5,-122 703.5,-122 715.5,-122 715.5,-122 703.5,-122"/>
<polygon fill="#666666" stroke="#666666" points="715.5,-122 715.5,-122 856.5,-122 856.5,-122 715.5,-122"/>
<polygon fill="none" stroke="#666666" points="703.5,-60 703.5,-156 856.5,-156 856.5,-60 703.5,-60"/>
</a>
</g>
</g>
<!-- Node1&#45;&gt;Node7 -->
<g id="edge6_Node000001_Node000007" class="edge">
<title>Node1&#45;&gt;Node7</title>
<g id="a_edge6_Node000001_Node000007"><a xlink:title=" ">
<path fill="none" stroke="#63b8ff" d="M1138.21,-332.09C1061.14,-312.38 948.73,-275.85 866,-216 843.7,-199.87 824.01,-176.51 809.13,-155.73"/>
<polygon fill="none" stroke="#63b8ff" points="1137.3,-335.47 1147.85,-334.5 1139,-328.68 1137.3,-335.47"/>
</a>
</g>
</g>
<!-- Node8 -->
<g id="Node000008" class="node">
<title>Node8</title>
<g id="a_Node000008"><a xlink:href="../../dc/d44/class_slime_attacking.html" target="_top" xlink:title=" ">
<polygon fill="white" stroke="none" points="1037,-164 875,-164 875,-52 1037,-52 1037,-164"/>
<text text-anchor="start" x="923" y="-150.5" font-family="Helvetica,sans-Serif" font-size="10.00">SlimeAttacking</text>
<text text-anchor="start" x="879" y="-134.5" font-family="Helvetica,sans-Serif" font-size="10.00">+</text>
<text text-anchor="start" x="889" y="-134.5" font-family="Helvetica,sans-Serif" font-size="10.00">State Moving</text>
<text text-anchor="start" x="879" y="-118.5" font-family="Helvetica,sans-Serif" font-size="10.00">+</text>
<text text-anchor="start" x="889" y="-118.5" font-family="Helvetica,sans-Serif" font-size="10.00">override void _Ready()</text>
<text text-anchor="start" x="879" y="-102.5" font-family="Helvetica,sans-Serif" font-size="10.00">+</text>
<text text-anchor="start" x="889" y="-102.5" font-family="Helvetica,sans-Serif" font-size="10.00">override void Enter()</text>
<text text-anchor="start" x="879" y="-86.5" font-family="Helvetica,sans-Serif" font-size="10.00">+</text>
<text text-anchor="start" x="889" y="-86.5" font-family="Helvetica,sans-Serif" font-size="10.00">override State ProcessPhysics</text>
<text text-anchor="start" x="889" y="-74.5" font-family="Helvetica,sans-Serif" font-size="10.00">(double delta)</text>
<text text-anchor="start" x="879" y="-58.5" font-family="Helvetica,sans-Serif" font-size="10.00">+</text>
<text text-anchor="start" x="889" y="-58.5" font-family="Helvetica,sans-Serif" font-size="10.00">override void UpdateAnimations()</text>
<polygon fill="#666666" stroke="#666666" points="875,-146 875,-146 1037,-146 1037,-146 875,-146"/>
<polygon fill="#666666" stroke="#666666" points="875,-130 875,-130 887,-130 887,-130 875,-130"/>
<polygon fill="#666666" stroke="#666666" points="887,-130 887,-130 1037,-130 1037,-130 887,-130"/>
<polygon fill="none" stroke="#666666" points="875,-52 875,-164 1037,-164 1037,-52 875,-52"/>
</a>
</g>
</g>
<!-- Node1&#45;&gt;Node8 -->
<g id="edge7_Node000001_Node000008" class="edge">
<title>Node1&#45;&gt;Node8</title>
<g id="a_edge7_Node000001_Node000008"><a xlink:title=" ">
<path fill="none" stroke="#63b8ff" d="M1140.33,-292.9C1109.36,-270.34 1074.93,-243.36 1046,-216 1029.25,-200.16 1012.53,-181.34 998.14,-163.93"/>
<polygon fill="none" stroke="#63b8ff" points="1138,-295.54 1148.16,-298.56 1142.1,-289.86 1138,-295.54"/>
</a>
</g>
</g>
<!-- Node9 -->
<g id="Node000009" class="node">
<title>Node9</title>
<g id="a_Node000009"><a xlink:href="../../db/d1c/class_slime_death.html" target="_top" xlink:title=" ">
<polygon fill="white" stroke="none" points="1217,-156 1055,-156 1055,-60 1217,-60 1217,-156"/>
<text text-anchor="start" x="1110.5" y="-142.5" font-family="Helvetica,sans-Serif" font-size="10.00">SlimeDeath</text>
<text text-anchor="start" x="1059" y="-126.5" font-family="Helvetica,sans-Serif" font-size="10.00">+</text>
<text text-anchor="start" x="1069" y="-126.5" font-family="Helvetica,sans-Serif" font-size="10.00">double DeathAnimationTime</text>
<text text-anchor="start" x="1059" y="-110.5" font-family="Helvetica,sans-Serif" font-size="10.00">+</text>
<text text-anchor="start" x="1069" y="-110.5" font-family="Helvetica,sans-Serif" font-size="10.00">override void Enter()</text>
<text text-anchor="start" x="1059" y="-94.5" font-family="Helvetica,sans-Serif" font-size="10.00">+</text>
<text text-anchor="start" x="1069" y="-94.5" font-family="Helvetica,sans-Serif" font-size="10.00">override State ProcessPhysics</text>
<text text-anchor="start" x="1069" y="-82.5" font-family="Helvetica,sans-Serif" font-size="10.00">(double delta)</text>
<text text-anchor="start" x="1059" y="-66.5" font-family="Helvetica,sans-Serif" font-size="10.00">+</text>
<text text-anchor="start" x="1069" y="-66.5" font-family="Helvetica,sans-Serif" font-size="10.00">override void UpdateAnimations()</text>
<polygon fill="#666666" stroke="#666666" points="1055,-138 1055,-138 1217,-138 1217,-138 1055,-138"/>
<polygon fill="#666666" stroke="#666666" points="1055,-122 1055,-122 1067,-122 1067,-122 1055,-122"/>
<polygon fill="#666666" stroke="#666666" points="1067,-122 1067,-122 1217,-122 1217,-122 1067,-122"/>
<polygon fill="none" stroke="#666666" points="1055,-60 1055,-156 1217,-156 1217,-60 1055,-60"/>
</a>
</g>
</g>
<!-- Node1&#45;&gt;Node9 -->
<g id="edge8_Node000001_Node000009" class="edge">
<title>Node1&#45;&gt;Node9</title>
<g id="a_edge8_Node000001_Node000009"><a xlink:title=" ">
<path fill="none" stroke="#63b8ff" d="M1185.32,-241.61C1174.11,-211.46 1162.53,-180.35 1153.42,-155.84"/>
<polygon fill="none" stroke="#63b8ff" points="1181.97,-242.65 1188.74,-250.8 1188.53,-240.21 1181.97,-242.65"/>
</a>
</g>
</g>
<!-- Node10 -->
<g id="Node000010" class="node">
<title>Node10</title>
<g id="a_Node000010"><a xlink:href="../../d2/d94/class_slime_idle.html" target="_top" xlink:title=" ">
<polygon fill="white" stroke="none" points="1397,-204 1235,-204 1235,-12 1397,-12 1397,-204"/>
<text text-anchor="start" x="1295.75" y="-190.5" font-family="Helvetica,sans-Serif" font-size="10.00">SlimeIdle</text>
<text text-anchor="start" x="1239" y="-174.5" font-family="Helvetica,sans-Serif" font-size="10.00">+</text>
<text text-anchor="start" x="1249" y="-174.5" font-family="Helvetica,sans-Serif" font-size="10.00">State Moving</text>
<text text-anchor="start" x="1239" y="-158.5" font-family="Helvetica,sans-Serif" font-size="10.00">+</text>
<text text-anchor="start" x="1249" y="-158.5" font-family="Helvetica,sans-Serif" font-size="10.00">State Attacking</text>
<text text-anchor="start" x="1239" y="-142.5" font-family="Helvetica,sans-Serif" font-size="10.00">+</text>
<text text-anchor="start" x="1249" y="-142.5" font-family="Helvetica,sans-Serif" font-size="10.00">float SPEED</text>
<text text-anchor="start" x="1239" y="-126.5" font-family="Helvetica,sans-Serif" font-size="10.00">+</text>
<text text-anchor="start" x="1249" y="-126.5" font-family="Helvetica,sans-Serif" font-size="10.00">double IdleAnimationDuration</text>
<text text-anchor="start" x="1239" y="-110.5" font-family="Helvetica,sans-Serif" font-size="10.00">+</text>
<text text-anchor="start" x="1249" y="-110.5" font-family="Helvetica,sans-Serif" font-size="10.00">double JumpAnimationDuration</text>
<text text-anchor="start" x="1239" y="-94.5" font-family="Helvetica,sans-Serif" font-size="10.00">+</text>
<text text-anchor="start" x="1249" y="-94.5" font-family="Helvetica,sans-Serif" font-size="10.00">override void _Ready()</text>
<text text-anchor="start" x="1239" y="-78.5" font-family="Helvetica,sans-Serif" font-size="10.00">+</text>
<text text-anchor="start" x="1249" y="-78.5" font-family="Helvetica,sans-Serif" font-size="10.00">override State ProcessPhysics</text>
<text text-anchor="start" x="1249" y="-66.5" font-family="Helvetica,sans-Serif" font-size="10.00">(double delta)</text>
<text text-anchor="start" x="1239" y="-50.5" font-family="Helvetica,sans-Serif" font-size="10.00">+</text>
<text text-anchor="start" x="1249" y="-50.5" font-family="Helvetica,sans-Serif" font-size="10.00">Vector2 ChangeRandomWalk()</text>
<text text-anchor="start" x="1239" y="-34.5" font-family="Helvetica,sans-Serif" font-size="10.00">+</text>
<text text-anchor="start" x="1249" y="-34.5" font-family="Helvetica,sans-Serif" font-size="10.00">override void UpdateAnimations()</text>
<text text-anchor="start" x="1239" y="-18.5" font-family="Helvetica,sans-Serif" font-size="10.00">+</text>
<text text-anchor="start" x="1249" y="-18.5" font-family="Helvetica,sans-Serif" font-size="10.00">void CreateRNG()</text>
<polygon fill="#666666" stroke="#666666" points="1235,-186 1235,-186 1397,-186 1397,-186 1235,-186"/>
<polygon fill="#666666" stroke="#666666" points="1235,-106 1235,-106 1247,-106 1247,-106 1235,-106"/>
<polygon fill="#666666" stroke="#666666" points="1247,-106 1247,-106 1397,-106 1397,-106 1247,-106"/>
<polygon fill="none" stroke="#666666" points="1235,-12 1235,-204 1397,-204 1397,-12 1235,-12"/>
</a>
</g>
</g>
<!-- Node1&#45;&gt;Node10 -->
<g id="edge9_Node000001_Node000010" class="edge">
<title>Node1&#45;&gt;Node10</title>
<g id="a_edge9_Node000001_Node000010"><a xlink:title=" ">
<path fill="none" stroke="#63b8ff" d="M1266.65,-241.69C1271.34,-229.1 1276.08,-216.33 1280.69,-203.95"/>
<polygon fill="none" stroke="#63b8ff" points="1263.47,-240.21 1263.26,-250.8 1270.03,-242.65 1263.47,-240.21"/>
</a>
</g>
</g>
<!-- Node11 -->
<g id="Node000011" class="node">
<title>Node11</title>
<g id="a_Node000011"><a xlink:href="../../d9/dfb/class_slime_moving.html" target="_top" xlink:title=" ">
<polygon fill="white" stroke="none" points="1577,-202 1415,-202 1415,-14 1577,-14 1577,-202"/>
<text text-anchor="start" x="1467.88" y="-188.5" font-family="Helvetica,sans-Serif" font-size="10.00">SlimeMoving</text>
<text text-anchor="start" x="1419" y="-172.5" font-family="Helvetica,sans-Serif" font-size="10.00">+</text>
<text text-anchor="start" x="1429" y="-172.5" font-family="Helvetica,sans-Serif" font-size="10.00">AudioStreamPlayer2D</text>
<text text-anchor="start" x="1429" y="-160.5" font-family="Helvetica,sans-Serif" font-size="10.00"> WalkingSound</text>
<text text-anchor="start" x="1419" y="-144.5" font-family="Helvetica,sans-Serif" font-size="10.00">+</text>
<text text-anchor="start" x="1429" y="-144.5" font-family="Helvetica,sans-Serif" font-size="10.00">State Idle</text>
<text text-anchor="start" x="1419" y="-128.5" font-family="Helvetica,sans-Serif" font-size="10.00">+</text>
<text text-anchor="start" x="1429" y="-128.5" font-family="Helvetica,sans-Serif" font-size="10.00">State Attacking</text>
<text text-anchor="start" x="1419" y="-112.5" font-family="Helvetica,sans-Serif" font-size="10.00">+</text>
<text text-anchor="start" x="1429" y="-112.5" font-family="Helvetica,sans-Serif" font-size="10.00">float SPEED</text>
<text text-anchor="start" x="1419" y="-96.5" font-family="Helvetica,sans-Serif" font-size="10.00">+</text>
<text text-anchor="start" x="1429" y="-96.5" font-family="Helvetica,sans-Serif" font-size="10.00">override void _Ready()</text>
<text text-anchor="start" x="1419" y="-80.5" font-family="Helvetica,sans-Serif" font-size="10.00">+</text>
<text text-anchor="start" x="1429" y="-80.5" font-family="Helvetica,sans-Serif" font-size="10.00">override void Enter()</text>
<text text-anchor="start" x="1419" y="-64.5" font-family="Helvetica,sans-Serif" font-size="10.00">+</text>
<text text-anchor="start" x="1429" y="-64.5" font-family="Helvetica,sans-Serif" font-size="10.00">override void Exit()</text>
<text text-anchor="start" x="1419" y="-48.5" font-family="Helvetica,sans-Serif" font-size="10.00">+</text>
<text text-anchor="start" x="1429" y="-48.5" font-family="Helvetica,sans-Serif" font-size="10.00">override State ProcessPhysics</text>
<text text-anchor="start" x="1429" y="-36.5" font-family="Helvetica,sans-Serif" font-size="10.00">(double delta)</text>
<text text-anchor="start" x="1419" y="-20.5" font-family="Helvetica,sans-Serif" font-size="10.00">+</text>
<text text-anchor="start" x="1429" y="-20.5" font-family="Helvetica,sans-Serif" font-size="10.00">override void UpdateAnimations()</text>
<polygon fill="#666666" stroke="#666666" points="1415,-184 1415,-184 1577,-184 1577,-184 1415,-184"/>
<polygon fill="#666666" stroke="#666666" points="1415,-108 1415,-108 1427,-108 1427,-108 1415,-108"/>
<polygon fill="#666666" stroke="#666666" points="1427,-108 1427,-108 1577,-108 1577,-108 1427,-108"/>
<polygon fill="none" stroke="#666666" points="1415,-14 1415,-202 1577,-202 1577,-14 1415,-14"/>
</a>
</g>
</g>
<!-- Node1&#45;&gt;Node11 -->
<g id="edge10_Node000001_Node000011" class="edge">
<title>Node1&#45;&gt;Node11</title>
<g id="a_edge10_Node000001_Node000011"><a xlink:title=" ">
<path fill="none" stroke="#63b8ff" d="M1311.67,-292.9C1342.64,-270.34 1377.07,-243.36 1406,-216 1410.76,-211.5 1415.52,-206.75 1420.22,-201.87"/>
<polygon fill="none" stroke="#63b8ff" points="1309.9,-289.86 1303.84,-298.56 1314,-295.54 1309.9,-289.86"/>
</a>
</g>
</g>
<!-- Node12 -->
<g id="Node000012" class="node">
<title>Node12</title>
<g id="a_Node000012"><a xlink:href="../../d2/da1/class_unicorn_charge_attack.html" target="_top" xlink:title=" ">
<polygon fill="white" stroke="none" points="1757,-180 1595,-180 1595,-36 1757,-36 1757,-180"/>
<text text-anchor="start" x="1629.12" y="-166.5" font-family="Helvetica,sans-Serif" font-size="10.00">UnicornChargeAttack</text>
<text text-anchor="start" x="1599" y="-150.5" font-family="Helvetica,sans-Serif" font-size="10.00">+</text>
<text text-anchor="start" x="1609" y="-150.5" font-family="Helvetica,sans-Serif" font-size="10.00">State Wait</text>
<text text-anchor="start" x="1599" y="-134.5" font-family="Helvetica,sans-Serif" font-size="10.00">+</text>
<text text-anchor="start" x="1609" y="-134.5" font-family="Helvetica,sans-Serif" font-size="10.00">float CHARGESPEED</text>
<text text-anchor="start" x="1599" y="-118.5" font-family="Helvetica,sans-Serif" font-size="10.00">+</text>
<text text-anchor="start" x="1609" y="-118.5" font-family="Helvetica,sans-Serif" font-size="10.00">override void _Ready()</text>
<text text-anchor="start" x="1599" y="-102.5" font-family="Helvetica,sans-Serif" font-size="10.00">+</text>
<text text-anchor="start" x="1609" y="-102.5" font-family="Helvetica,sans-Serif" font-size="10.00">override void Enter()</text>
<text text-anchor="start" x="1599" y="-86.5" font-family="Helvetica,sans-Serif" font-size="10.00">+</text>
<text text-anchor="start" x="1609" y="-86.5" font-family="Helvetica,sans-Serif" font-size="10.00">override void Exit()</text>
<text text-anchor="start" x="1599" y="-70.5" font-family="Helvetica,sans-Serif" font-size="10.00">+</text>
<text text-anchor="start" x="1609" y="-70.5" font-family="Helvetica,sans-Serif" font-size="10.00">override State ProcessPhysics</text>
<text text-anchor="start" x="1609" y="-58.5" font-family="Helvetica,sans-Serif" font-size="10.00">(double delta)</text>
<text text-anchor="start" x="1599" y="-42.5" font-family="Helvetica,sans-Serif" font-size="10.00">+</text>
<text text-anchor="start" x="1609" y="-42.5" font-family="Helvetica,sans-Serif" font-size="10.00">override void UpdateAnimations()</text>
<polygon fill="#666666" stroke="#666666" points="1595,-162 1595,-162 1757,-162 1757,-162 1595,-162"/>
<polygon fill="#666666" stroke="#666666" points="1595,-130 1595,-130 1607,-130 1607,-130 1595,-130"/>
<polygon fill="#666666" stroke="#666666" points="1607,-130 1607,-130 1757,-130 1757,-130 1607,-130"/>
<polygon fill="none" stroke="#666666" points="1595,-36 1595,-180 1757,-180 1757,-36 1595,-36"/>
</a>
</g>
</g>
<!-- Node1&#45;&gt;Node12 -->
<g id="edge11_Node000001_Node000012" class="edge">
<title>Node1&#45;&gt;Node12</title>
<g id="a_edge11_Node000001_Node000012"><a xlink:title=" ">
<path fill="none" stroke="#63b8ff" d="M1313.82,-331.54C1390.68,-311.52 1502.73,-274.83 1586,-216 1600.27,-205.91 1613.64,-193.04 1625.47,-179.74"/>
<polygon fill="none" stroke="#63b8ff" points="1313.04,-328.13 1304.22,-334 1314.77,-334.91 1313.04,-328.13"/>
</a>
</g>
</g>
<!-- Node13 -->
<g id="Node000013" class="node">
<title>Node13</title>
<g id="a_Node000013"><a xlink:href="../../d0/d8c/class_unicorn_death.html" target="_top" xlink:title=" ">
<polygon fill="white" stroke="none" points="1937,-156 1775,-156 1775,-60 1937,-60 1937,-156"/>
<text text-anchor="start" x="1826" y="-142.5" font-family="Helvetica,sans-Serif" font-size="10.00">UnicornDeath</text>
<text text-anchor="start" x="1779" y="-126.5" font-family="Helvetica,sans-Serif" font-size="10.00">+</text>
<text text-anchor="start" x="1789" y="-126.5" font-family="Helvetica,sans-Serif" font-size="10.00">double DeathAnimationTime</text>
<text text-anchor="start" x="1779" y="-110.5" font-family="Helvetica,sans-Serif" font-size="10.00">+</text>
<text text-anchor="start" x="1789" y="-110.5" font-family="Helvetica,sans-Serif" font-size="10.00">override void Enter()</text>
<text text-anchor="start" x="1779" y="-94.5" font-family="Helvetica,sans-Serif" font-size="10.00">+</text>
<text text-anchor="start" x="1789" y="-94.5" font-family="Helvetica,sans-Serif" font-size="10.00">override State ProcessPhysics</text>
<text text-anchor="start" x="1789" y="-82.5" font-family="Helvetica,sans-Serif" font-size="10.00">(double delta)</text>
<text text-anchor="start" x="1779" y="-66.5" font-family="Helvetica,sans-Serif" font-size="10.00">+</text>
<text text-anchor="start" x="1789" y="-66.5" font-family="Helvetica,sans-Serif" font-size="10.00">override void UpdateAnimations()</text>
<polygon fill="#666666" stroke="#666666" points="1775,-138 1775,-138 1937,-138 1937,-138 1775,-138"/>
<polygon fill="#666666" stroke="#666666" points="1775,-122 1775,-122 1787,-122 1787,-122 1775,-122"/>
<polygon fill="#666666" stroke="#666666" points="1787,-122 1787,-122 1937,-122 1937,-122 1787,-122"/>
<polygon fill="none" stroke="#666666" points="1775,-60 1775,-156 1937,-156 1937,-60 1775,-60"/>
</a>
</g>
</g>
<!-- Node1&#45;&gt;Node13 -->
<g id="edge12_Node000001_Node000013" class="edge">
<title>Node1&#45;&gt;Node13</title>
<g id="a_edge12_Node000001_Node000013"><a xlink:title=" ">
<path fill="none" stroke="#63b8ff" d="M1314.18,-345.61C1426.77,-335.18 1623.96,-304.7 1766,-216 1790.19,-200.89 1811.14,-177.11 1826.72,-155.8"/>
<polygon fill="none" stroke="#63b8ff" points="1314.05,-342.11 1304.4,-346.48 1314.67,-349.08 1314.05,-342.11"/>
</a>
</g>
</g>
<!-- Node14 -->
<g id="Node000014" class="node">
<title>Node14</title>
<g id="a_Node000014"><a xlink:href="../../d2/df5/class_unicorn_shooting_attack.html" target="_top" xlink:title=" ">
<polygon fill="white" stroke="none" points="2117,-178 1955,-178 1955,-38 2117,-38 2117,-178"/>
<text text-anchor="start" x="1985.75" y="-164.5" font-family="Helvetica,sans-Serif" font-size="10.00">UnicornShootingAttack</text>
<text text-anchor="start" x="1959" y="-148.5" font-family="Helvetica,sans-Serif" font-size="10.00">+</text>
<text text-anchor="start" x="1969" y="-148.5" font-family="Helvetica,sans-Serif" font-size="10.00">State Wait</text>
<text text-anchor="start" x="1959" y="-132.5" font-family="Helvetica,sans-Serif" font-size="10.00">+</text>
<text text-anchor="start" x="1969" y="-132.5" font-family="Helvetica,sans-Serif" font-size="10.00">double ShootingAnimation</text>
<text text-anchor="start" x="1969" y="-120.5" font-family="Helvetica,sans-Serif" font-size="10.00">Duration</text>
<text text-anchor="start" x="1959" y="-104.5" font-family="Helvetica,sans-Serif" font-size="10.00">+</text>
<text text-anchor="start" x="1969" y="-104.5" font-family="Helvetica,sans-Serif" font-size="10.00">override void _Ready()</text>
<text text-anchor="start" x="1959" y="-88.5" font-family="Helvetica,sans-Serif" font-size="10.00">+</text>
<text text-anchor="start" x="1969" y="-88.5" font-family="Helvetica,sans-Serif" font-size="10.00">override void Enter()</text>
<text text-anchor="start" x="1959" y="-72.5" font-family="Helvetica,sans-Serif" font-size="10.00">+</text>
<text text-anchor="start" x="1969" y="-72.5" font-family="Helvetica,sans-Serif" font-size="10.00">override State ProcessPhysics</text>
<text text-anchor="start" x="1969" y="-60.5" font-family="Helvetica,sans-Serif" font-size="10.00">(double delta)</text>
<text text-anchor="start" x="1959" y="-44.5" font-family="Helvetica,sans-Serif" font-size="10.00">+</text>
<text text-anchor="start" x="1969" y="-44.5" font-family="Helvetica,sans-Serif" font-size="10.00">override void UpdateAnimations()</text>
<polygon fill="#666666" stroke="#666666" points="1955,-160 1955,-160 2117,-160 2117,-160 1955,-160"/>
<polygon fill="#666666" stroke="#666666" points="1955,-116 1955,-116 1967,-116 1967,-116 1955,-116"/>
<polygon fill="#666666" stroke="#666666" points="1967,-116 1967,-116 2117,-116 2117,-116 1967,-116"/>
<polygon fill="none" stroke="#666666" points="1955,-38 1955,-178 2117,-178 2117,-38 1955,-38"/>
</a>
</g>
</g>
<!-- Node1&#45;&gt;Node14 -->
<g id="edge13_Node000001_Node000014" class="edge">
<title>Node1&#45;&gt;Node14</title>
<g id="a_edge13_Node000001_Node000014"><a xlink:title=" ">
<path fill="none" stroke="#63b8ff" d="M1314.02,-341.97C1481.66,-323.56 1839.57,-278.13 1946,-216 1962.56,-206.33 1977.47,-192.44 1990.17,-177.85"/>
<polygon fill="none" stroke="#63b8ff" points="1313.83,-338.47 1304.27,-343.03 1314.59,-345.42 1313.83,-338.47"/>
</a>
</g>
</g>
<!-- Node15 -->
<g id="Node000015" class="node">
<title>Node15</title>
<g id="a_Node000015"><a xlink:href="../../d1/d6c/class_unicorn_stomping_attack.html" target="_top" xlink:title=" ">
<polygon fill="white" stroke="none" points="2297,-186 2135,-186 2135,-30 2297,-30 2297,-186"/>
<text text-anchor="start" x="2164.25" y="-172.5" font-family="Helvetica,sans-Serif" font-size="10.00">UnicornStompingAttack</text>
<text text-anchor="start" x="2139" y="-156.5" font-family="Helvetica,sans-Serif" font-size="10.00">+</text>
<text text-anchor="start" x="2149" y="-156.5" font-family="Helvetica,sans-Serif" font-size="10.00">State Wait</text>
<text text-anchor="start" x="2139" y="-140.5" font-family="Helvetica,sans-Serif" font-size="10.00">+</text>
<text text-anchor="start" x="2149" y="-140.5" font-family="Helvetica,sans-Serif" font-size="10.00">double StompingAnimation</text>
<text text-anchor="start" x="2149" y="-128.5" font-family="Helvetica,sans-Serif" font-size="10.00">Duration</text>
<text text-anchor="start" x="2139" y="-112.5" font-family="Helvetica,sans-Serif" font-size="10.00">+</text>
<text text-anchor="start" x="2149" y="-112.5" font-family="Helvetica,sans-Serif" font-size="10.00">double StompingDelayTime</text>
<text text-anchor="start" x="2139" y="-96.5" font-family="Helvetica,sans-Serif" font-size="10.00">+</text>
<text text-anchor="start" x="2149" y="-96.5" font-family="Helvetica,sans-Serif" font-size="10.00">override void _Ready()</text>
<text text-anchor="start" x="2139" y="-80.5" font-family="Helvetica,sans-Serif" font-size="10.00">+</text>
<text text-anchor="start" x="2149" y="-80.5" font-family="Helvetica,sans-Serif" font-size="10.00">override void Enter()</text>
<text text-anchor="start" x="2139" y="-64.5" font-family="Helvetica,sans-Serif" font-size="10.00">+</text>
<text text-anchor="start" x="2149" y="-64.5" font-family="Helvetica,sans-Serif" font-size="10.00">override State ProcessPhysics</text>
<text text-anchor="start" x="2149" y="-52.5" font-family="Helvetica,sans-Serif" font-size="10.00">(double delta)</text>
<text text-anchor="start" x="2139" y="-36.5" font-family="Helvetica,sans-Serif" font-size="10.00">+</text>
<text text-anchor="start" x="2149" y="-36.5" font-family="Helvetica,sans-Serif" font-size="10.00">override void UpdateAnimations()</text>
<polygon fill="#666666" stroke="#666666" points="2135,-168 2135,-168 2297,-168 2297,-168 2135,-168"/>
<polygon fill="#666666" stroke="#666666" points="2135,-108 2135,-108 2147,-108 2147,-108 2135,-108"/>
<polygon fill="#666666" stroke="#666666" points="2147,-108 2147,-108 2297,-108 2297,-108 2147,-108"/>
<polygon fill="none" stroke="#666666" points="2135,-30 2135,-186 2297,-186 2297,-30 2135,-30"/>
</a>
</g>
</g>
<!-- Node1&#45;&gt;Node15 -->
<g id="edge14_Node000001_Node000015" class="edge">
<title>Node1&#45;&gt;Node15</title>
<g id="a_edge14_Node000001_Node000015"><a xlink:title=" ">
<path fill="none" stroke="#63b8ff" d="M1314.03,-345.69C1512.34,-332.48 1987.54,-293.48 2126,-216 2139.77,-208.29 2152.35,-197.6 2163.45,-185.94"/>
<polygon fill="none" stroke="#63b8ff" points="1314.06,-342.18 1304.31,-346.33 1314.52,-349.17 1314.06,-342.18"/>
</a>
</g>
</g>
<!-- Node16 -->
<g id="Node000016" class="node">
<title>Node16</title>
<g id="a_Node000016"><a xlink:href="../../dd/d3c/class_unicorn_wait.html" target="_top" xlink:title=" ">
<polygon fill="white" stroke="none" points="2477,-204 2315,-204 2315,-12 2477,-12 2477,-204"/>
<text text-anchor="start" x="2369.38" y="-190.5" font-family="Helvetica,sans-Serif" font-size="10.00">UnicornWait</text>
<text text-anchor="start" x="2319" y="-174.5" font-family="Helvetica,sans-Serif" font-size="10.00">+</text>
<text text-anchor="start" x="2329" y="-174.5" font-family="Helvetica,sans-Serif" font-size="10.00">State ChargeAttack</text>
<text text-anchor="start" x="2319" y="-158.5" font-family="Helvetica,sans-Serif" font-size="10.00">+</text>
<text text-anchor="start" x="2329" y="-158.5" font-family="Helvetica,sans-Serif" font-size="10.00">State ShootingAttack</text>
<text text-anchor="start" x="2319" y="-142.5" font-family="Helvetica,sans-Serif" font-size="10.00">+</text>
<text text-anchor="start" x="2329" y="-142.5" font-family="Helvetica,sans-Serif" font-size="10.00">State StompingAttack</text>
<text text-anchor="start" x="2319" y="-126.5" font-family="Helvetica,sans-Serif" font-size="10.00">+</text>
<text text-anchor="start" x="2329" y="-126.5" font-family="Helvetica,sans-Serif" font-size="10.00">float SPEED</text>
<text text-anchor="start" x="2319" y="-110.5" font-family="Helvetica,sans-Serif" font-size="10.00">+</text>
<text text-anchor="start" x="2329" y="-110.5" font-family="Helvetica,sans-Serif" font-size="10.00">float WaitTime</text>
<text text-anchor="start" x="2319" y="-94.5" font-family="Helvetica,sans-Serif" font-size="10.00">+</text>
<text text-anchor="start" x="2329" y="-94.5" font-family="Helvetica,sans-Serif" font-size="10.00">override void _Ready()</text>
<text text-anchor="start" x="2319" y="-78.5" font-family="Helvetica,sans-Serif" font-size="10.00">+</text>
<text text-anchor="start" x="2329" y="-78.5" font-family="Helvetica,sans-Serif" font-size="10.00">override void Enter()</text>
<text text-anchor="start" x="2319" y="-62.5" font-family="Helvetica,sans-Serif" font-size="10.00">+</text>
<text text-anchor="start" x="2329" y="-62.5" font-family="Helvetica,sans-Serif" font-size="10.00">override void Exit()</text>
<text text-anchor="start" x="2319" y="-46.5" font-family="Helvetica,sans-Serif" font-size="10.00">+</text>
<text text-anchor="start" x="2329" y="-46.5" font-family="Helvetica,sans-Serif" font-size="10.00">override State ProcessPhysics</text>
<text text-anchor="start" x="2329" y="-34.5" font-family="Helvetica,sans-Serif" font-size="10.00">(double delta)</text>
<text text-anchor="start" x="2319" y="-18.5" font-family="Helvetica,sans-Serif" font-size="10.00">+</text>
<text text-anchor="start" x="2329" y="-18.5" font-family="Helvetica,sans-Serif" font-size="10.00">override void UpdateAnimations()</text>
<polygon fill="#666666" stroke="#666666" points="2315,-186 2315,-186 2477,-186 2477,-186 2315,-186"/>
<polygon fill="#666666" stroke="#666666" points="2315,-106 2315,-106 2327,-106 2327,-106 2315,-106"/>
<polygon fill="#666666" stroke="#666666" points="2327,-106 2327,-106 2477,-106 2477,-106 2327,-106"/>
<polygon fill="none" stroke="#666666" points="2315,-12 2315,-204 2477,-204 2477,-12 2315,-12"/>
</a>
</g>
</g>
<!-- Node1&#45;&gt;Node16 -->
<g id="edge15_Node000001_Node000016" class="edge">
<title>Node1&#45;&gt;Node16</title>
<g id="a_edge15_Node000001_Node000016"><a xlink:title=" ">
<path fill="none" stroke="#63b8ff" d="M1314.2,-348.19C1540.34,-339.7 2135.07,-308.92 2306,-216 2312.4,-212.52 2318.53,-208.39 2324.38,-203.8"/>
<polygon fill="none" stroke="#63b8ff" points="1314.12,-344.69 1304.25,-348.56 1314.38,-351.69 1314.12,-344.69"/>
</a>
</g>
</g>
<!-- Node2 -->
<g id="Node000002" class="node">
<title>Node2</title>
<g id="a_Node000002"><a xlink:href="../../dc/d8f/class_node.html" target="_top" xlink:title=" ">
<polygon fill="white" stroke="none" points="1242.5,-540 1209.5,-540 1209.5,-488 1242.5,-488 1242.5,-540"/>
<text text-anchor="start" x="1214.38" y="-526.5" font-family="Helvetica,sans-Serif" font-size="10.00">Node</text>
<text text-anchor="start" x="1224.5" y="-510.5" font-family="Helvetica,sans-Serif" font-size="10.00"> </text>
<text text-anchor="start" x="1224.5" y="-494.5" font-family="Helvetica,sans-Serif" font-size="10.00"> </text>
<polygon fill="#666666" stroke="#666666" points="1209.5,-522 1209.5,-522 1242.5,-522 1242.5,-522 1209.5,-522"/>
<polygon fill="#666666" stroke="#666666" points="1209.5,-506 1209.5,-506 1242.5,-506 1242.5,-506 1209.5,-506"/>
<polygon fill="none" stroke="#666666" points="1209.5,-488 1209.5,-540 1242.5,-540 1242.5,-488 1209.5,-488"/>
</a>
</g>
</g>
<!-- Node2&#45;&gt;Node1 -->
<g id="edge1_Node000001_Node000002" class="edge">
<title>Node2&#45;&gt;Node1</title>
<g id="a_edge1_Node000001_Node000002"><a xlink:title=" ">
<path fill="none" stroke="#63b8ff" d="M1226,-476.63C1226,-468.94 1226,-460.49 1226,-451.71"/>
<polygon fill="none" stroke="#63b8ff" points="1222.5,-476.49 1226,-486.49 1229.5,-476.49 1222.5,-476.49"/>
</a>
</g>
</g>
</g>
</svg>
