<?xml version="1.0" encoding="UTF-8" standalone="no"?>
<!DOCTYPE svg PUBLIC "-//W3C//DTD SVG 1.1//EN"
 "http://www.w3.org/Graphics/SVG/1.1/DTD/svg11.dtd">
<!-- Generated by graphviz version 12.1.0 (20240811.2233)
 -->
<!-- Title: TheMagicApprentice/modules/entities Pages: 1 -->
<!--zoomable 128 -->

<svg id="main" version="1.1" xmlns="http://www.w3.org/2000/svg" xmlns:xlink="http://www.w3.org/1999/xlink" xml:space="preserve" onload="init(evt)">
<style type="text/css"><![CDATA[
.node, .edge {opacity: 0.7;}
.node.selected, .edge.selected {opacity: 1;}
.edge:hover path { stroke: red; }
.edge:hover polygon { stroke: red; fill: red; }
]]></style>

<defs>
  <circle id="rim" cx="0" cy="0" r="7"/>
  <circle id="rim2" cx="0" cy="0" r="3.5"/>
  <g id="zoomPlus">
    <use xlink:href="#rim" fill="#404040"><set attributeName="fill" to="#808080" begin="zoomplus.mouseover" end="zoomplus.mouseout"/></use>
    <path d="M-4,0h8M0,-4v8" fill="none" stroke="white" stroke-width="1.5" pointer-events="none"/>
  </g>
  <g id="zoomMin">
    <use xlink:href="#rim" fill="#404040"><set attributeName="fill" to="#808080" begin="zoomminus.mouseover" end="zoomminus.mouseout"/></use>
    <path d="M-4,0h8" fill="none" stroke="white" stroke-width="1.5" pointer-events="none"/>
  </g>
  <g id="arrowUp" transform="translate(30 24)">
    <use xlink:href="#rim"/>
    <path pointer-events="none" fill="none" stroke="white" stroke-width="1.5" d="M0,-3.0v7 M-2.5,-0.5L0,-3.0L2.5,-0.5"/>
  </g>
  <g id="arrowRight" transform="rotate(90) translate(36 -43)">
    <use xlink:href="#rim"/>
    <path pointer-events="none" fill="none" stroke="white" stroke-width="1.5" d="M0,-3.0v7 M-2.5,-0.5L0,-3.0L2.5,-0.5"/>
  </g>
  <g id="arrowDown" transform="rotate(180) translate(-30 -48)">
    <use xlink:href="#rim"/>
    <path pointer-events="none" fill="none" stroke="white" stroke-width="1.5" d="M0,-3.0v7 M-2.5,-0.5L0,-3.0L2.5,-0.5"/>
  </g>
  <g id="arrowLeft" transform="rotate(270) translate(-36 17)">
    <use xlink:href="#rim"/>
    <path pointer-events="none" fill="none" stroke="white" stroke-width="1.5" d="M0,-3.0v7 M-2.5,-0.5L0,-3.0L2.5,-0.5"/>
  </g>
  <g id="resetDef">
    <use xlink:href="#rim2" fill="#404040"><set attributeName="fill" to="#808080" begin="reset.mouseover" end="reset.mouseout"/></use>
  </g>
</defs>
<script type="application/ecmascript">
var viewWidth = 1657;
var viewHeight = 128;
var sectionId = 'dynsection-0';
</script>
<script type="application/ecmascript" xlink:href="svg.min.js"/>
<svg id="graph" class="graph">
<g id="viewport">
<title>TheMagicApprentice/modules/entities</title>
<g id="clust1" class="cluster">
<title>clusterdir_281a3971acf26abaafec632a279212ee</title>
<g id="a_clust1"><a xlink:href="dir_281a3971acf26abaafec632a279212ee.html" target="_top" xlink:title="modules">
<polygon fill="#edf0f7" stroke="#7f7f7f" stroke-dasharray="5,2" points="8,-8 8,-112 1641,-112 1641,-8 8,-8"/>
<text text-anchor="middle" x="824.5" y="-98.5" font-family="Helvetica,sans-Serif" font-size="10.00">modules</text>
</a>
</g>
</g>
<g id="clust2" class="cluster">
<title>clusterdir_990ac48b00bb3ee92e7a4c1dda9513a0</title>
<g id="a_clust2"><a xlink:href="dir_990ac48b00bb3ee92e7a4c1dda9513a0.html" target="_top">
<polygon fill="#edf0f7" stroke="#404040" stroke-width="2" points="16,-16 16,-84 1633,-84 1633,-16 16,-16"/>
</a>
</g>
</g>
<g id="clust3" class="cluster">
<title>clusterdir_1eb1008efe655e49678b128eaa251a23</title>
<g id="a_clust3"><a xlink:href="dir_1eb1008efe655e49678b128eaa251a23.html" target="_top">
<polygon fill="#e6eaf4" stroke="#404040" points="24,-24 24,-76 1032,-76 1032,-24 24,-24"/>
</a>
</g>
</g>
<g id="clust4" class="cluster">
<title>clusterdir_2ff82af1bff91d56946a9dd1dcb74b03</title>
<g id="a_clust4"><a xlink:href="dir_2ff82af1bff91d56946a9dd1dcb74b03.html" target="_top">
<polygon fill="#dfe5f1" stroke="#404040" points="32,-32 32,-68 240,-68 240,-32 32,-32"/>
</a>
</g>
</g>
<g id="clust5" class="cluster">
<title>clusterdir_0daf681459ec114ada4bbcabd0499c28</title>
<g id="a_clust5"><a xlink:href="dir_0daf681459ec114ada4bbcabd0499c28.html" target="_top">
<polygon fill="#dfe5f1" stroke="#404040" points="248,-32 248,-68 910,-68 910,-32 248,-32"/>
</a>
</g>
</g>
<g id="clust6" class="cluster">
<title>clusterdir_f9de24285a49fc94f10bddb37a744cdd</title>
<g id="a_clust6"><a xlink:href="dir_f9de24285a49fc94f10bddb37a744cdd.html" target="_top">
<polygon fill="#e6eaf4" stroke="#404040" points="1040,-32 1040,-68 1255,-68 1255,-32 1040,-32"/>
</a>
</g>
</g>
<g id="clust7" class="cluster">
<title>clusterdir_4fb2c7f8d5e3d0fd3f9f7230609d5cc1</title>
<g id="a_clust7"><a xlink:href="dir_4fb2c7f8d5e3d0fd3f9f7230609d5cc1.html" target="_top">
<polygon fill="#e6eaf4" stroke="#404040" points="1263,-32 1263,-68 1493,-68 1493,-32 1263,-32"/>
</a>
</g>
</g>
<!-- dir_990ac48b00bb3ee92e7a4c1dda9513a0 -->
<g id="node1" class="node">
<title>dir_990ac48b00bb3ee92e7a4c1dda9513a0</title>
<text text-anchor="middle" x="1527" y="-46.5" font-family="Helvetica,sans-Serif" font-size="10.00">entities</text>
</g>
<!-- dir_156164473666fa9dd456178ffedb568c -->
<g id="node2" class="node">
<title>dir_156164473666fa9dd456178ffedb568c</title>
<g id="a_node2"><a xlink:href="dir_156164473666fa9dd456178ffedb568c.html" target="_top" xlink:title="healthbar">
<polygon fill="#e6eaf4" stroke="#404040" points="1624.88,-60 1569.12,-60 1569.12,-40 1624.88,-40 1624.88,-60"/>
<text text-anchor="middle" x="1597" y="-46.5" font-family="Helvetica,sans-Serif" font-size="10.00">healthbar</text>
</a>
</g>
</g>
<!-- dir_1eb1008efe655e49678b128eaa251a23 -->
<g id="node3" class="node">
<title>dir_1eb1008efe655e49678b128eaa251a23</title>
<text text-anchor="middle" x="941" y="-46.5" font-family="Helvetica,sans-Serif" font-size="10.00">player</text>
</g>
<!-- dir_2ff82af1bff91d56946a9dd1dcb74b03 -->
<g id="node4" class="node">
<title>dir_2ff82af1bff91d56946a9dd1dcb74b03</title>
<text text-anchor="middle" x="68" y="-46.5" font-family="Helvetica,sans-Serif" font-size="10.00">inventory</text>
</g>
<!-- dir_c55a352f579b0a526b42016380cabf36 -->
<g id="node5" class="node">
<title>dir_c55a352f579b0a526b42016380cabf36</title>
<g id="a_node5"><a xlink:href="dir_c55a352f579b0a526b42016380cabf36.html" target="_top" xlink:title="augments">
<polygon fill="#d7deed" stroke="#404040" points="172.38,-60 113.62,-60 113.62,-40 172.38,-40 172.38,-60"/>
<text text-anchor="middle" x="143" y="-46.5" font-family="Helvetica,sans-Serif" font-size="10.00">augments</text>
</a>
</g>
</g>
<!-- dir_d9cb6bb8e85d238c8ec64a3b06dd5973 -->
<g id="node6" class="node">
<title>dir_d9cb6bb8e85d238c8ec64a3b06dd5973</title>
<g id="a_node6"><a xlink:href="dir_d9cb6bb8e85d238c8ec64a3b06dd5973.html" target="_top" xlink:title="spells">
<polygon fill="#d7deed" stroke="#404040" points="231.75,-60 190.25,-60 190.25,-40 231.75,-40 231.75,-60"/>
<text text-anchor="middle" x="211" y="-46.5" font-family="Helvetica,sans-Serif" font-size="10.00">spells</text>
</a>
</g>
</g>
<!-- dir_0daf681459ec114ada4bbcabd0499c28 -->
<g id="node7" class="node">
<title>dir_0daf681459ec114ada4bbcabd0499c28</title>
<text text-anchor="middle" x="277" y="-46.5" font-family="Helvetica,sans-Serif" font-size="10.00">spells</text>
</g>
<!-- dir_dcb226ae9805ff0c413e8f742896cdbb -->
<g id="node8" class="node">
<title>dir_dcb226ae9805ff0c413e8f742896cdbb</title>
<g id="a_node8"><a xlink:href="dir_dcb226ae9805ff0c413e8f742896cdbb.html" target="_top" xlink:title="basic_spell">
<polygon fill="#d7deed" stroke="#404040" points="380.38,-60 315.62,-60 315.62,-40 380.38,-40 380.38,-60"/>
<text text-anchor="middle" x="348" y="-46.5" font-family="Helvetica,sans-Serif" font-size="10.00">basic_spell</text>
</a>
</g>
</g>
<!-- dir_e365faeaf9537f4fe937f9f3b025f768 -->
<g id="node9" class="node">
<title>dir_e365faeaf9537f4fe937f9f3b025f768</title>
<g id="a_node9"><a xlink:href="dir_e365faeaf9537f4fe937f9f3b025f768.html" target="_top" xlink:title="black_hole">
<polygon fill="#d7deed" stroke="#404040" points="461.25,-60 398.75,-60 398.75,-40 461.25,-40 461.25,-60"/>
<text text-anchor="middle" x="430" y="-46.5" font-family="Helvetica,sans-Serif" font-size="10.00">black_hole</text>
</a>
</g>
</g>
<!-- dir_3a73279c96d703690e2452a3ed2d022e -->
<g id="node10" class="node">
<title>dir_3a73279c96d703690e2452a3ed2d022e</title>
<g id="a_node10"><a xlink:href="dir_3a73279c96d703690e2452a3ed2d022e.html" target="_top" xlink:title="dark_energy_wave">
<polygon fill="#d7deed" stroke="#404040" points="576.88,-60 479.12,-60 479.12,-40 576.88,-40 576.88,-60"/>
<text text-anchor="middle" x="528" y="-46.5" font-family="Helvetica,sans-Serif" font-size="10.00">dark_energy_wave</text>
</a>
</g>
</g>
<!-- dir_0fa159ff7026e1158a5381036bdc7e26 -->
<g id="node11" class="node">
<title>dir_0fa159ff7026e1158a5381036bdc7e26</title>
<g id="a_node11"><a xlink:href="dir_0fa159ff7026e1158a5381036bdc7e26.html" target="_top" xlink:title="moon_light">
<polygon fill="#d7deed" stroke="#404040" points="658.62,-60 595.38,-60 595.38,-40 658.62,-40 658.62,-60"/>
<text text-anchor="middle" x="627" y="-46.5" font-family="Helvetica,sans-Serif" font-size="10.00">moon_light</text>
</a>
</g>
</g>
<!-- dir_a953210f17038a53b414eab9d1a83c66 -->
<g id="node12" class="node">
<title>dir_a953210f17038a53b414eab9d1a83c66</title>
<g id="a_node12"><a xlink:href="dir_a953210f17038a53b414eab9d1a83c66.html" target="_top" xlink:title="star_rain">
<polygon fill="#d7deed" stroke="#404040" points="729.75,-60 676.25,-60 676.25,-40 729.75,-40 729.75,-60"/>
<text text-anchor="middle" x="703" y="-46.5" font-family="Helvetica,sans-Serif" font-size="10.00">star_rain</text>
</a>
</g>
</g>
<!-- dir_fe0ac6033bc2a6b5976edb9a50467bd2 -->
<g id="node13" class="node">
<title>dir_fe0ac6033bc2a6b5976edb9a50467bd2</title>
<g id="a_node13"><a xlink:href="dir_fe0ac6033bc2a6b5976edb9a50467bd2.html" target="_top" xlink:title="summon_sun">
<polygon fill="#d7deed" stroke="#404040" points="822.25,-60 747.75,-60 747.75,-40 822.25,-40 822.25,-60"/>
<text text-anchor="middle" x="785" y="-46.5" font-family="Helvetica,sans-Serif" font-size="10.00">summon_sun</text>
</a>
</g>
</g>
<!-- dir_a73b886afa8d653c9034f4dd7d83e4ab -->
<g id="node14" class="node">
<title>dir_a73b886afa8d653c9034f4dd7d83e4ab</title>
<g id="a_node14"><a xlink:href="dir_a73b886afa8d653c9034f4dd7d83e4ab.html" target="_top" xlink:title="sun_beam">
<polygon fill="#d7deed" stroke="#404040" points="901.5,-60 840.5,-60 840.5,-40 901.5,-40 901.5,-60"/>
<text text-anchor="middle" x="871" y="-46.5" font-family="Helvetica,sans-Serif" font-size="10.00">sun_beam</text>
</a>
</g>
</g>
<!-- dir_eda82a2787e8bddbc4b24bd987f8617c -->
<g id="node15" class="node">
<title>dir_eda82a2787e8bddbc4b24bd987f8617c</title>
<g id="a_node15"><a xlink:href="dir_eda82a2787e8bddbc4b24bd987f8617c.html" target="_top" xlink:title="states">
<polygon fill="#dfe5f1" stroke="#404040" points="1023.5,-60 980.5,-60 980.5,-40 1023.5,-40 1023.5,-60"/>
<text text-anchor="middle" x="1002" y="-46.5" font-family="Helvetica,sans-Serif" font-size="10.00">states</text>
</a>
</g>
</g>
<!-- dir_f9de24285a49fc94f10bddb37a744cdd -->
<g id="node16" class="node">
<title>dir_f9de24285a49fc94f10bddb37a744cdd</title>
<text text-anchor="middle" x="1070" y="-46.5" font-family="Helvetica,sans-Serif" font-size="10.00">slimes</text>
</g>
<!-- dir_0495c8aea2979c5f036682e5f99384c4 -->
<g id="node17" class="node">
<title>dir_0495c8aea2979c5f036682e5f99384c4</title>
<g id="a_node17"><a xlink:href="dir_0495c8aea2979c5f036682e5f99384c4.html" target="_top" xlink:title="slime&#45;attacks">
<polygon fill="#dfe5f1" stroke="#404040" points="1185.25,-60 1110.75,-60 1110.75,-40 1185.25,-40 1185.25,-60"/>
<text text-anchor="middle" x="1148" y="-46.5" font-family="Helvetica,sans-Serif" font-size="10.00">slime&#45;attacks</text>
</a>
</g>
</g>
<!-- dir_3bd5a531ff674e58b3c361af2e2db976 -->
<g id="node18" class="node">
<title>dir_3bd5a531ff674e58b3c361af2e2db976</title>
<g id="a_node18"><a xlink:href="dir_3bd5a531ff674e58b3c361af2e2db976.html" target="_top" xlink:title="states">
<polygon fill="#dfe5f1" stroke="#404040" points="1246.5,-60 1203.5,-60 1203.5,-40 1246.5,-40 1246.5,-60"/>
<text text-anchor="middle" x="1225" y="-46.5" font-family="Helvetica,sans-Serif" font-size="10.00">states</text>
</a>
</g>
</g>
<!-- dir_4fb2c7f8d5e3d0fd3f9f7230609d5cc1 -->
<g id="node19" class="node">
<title>dir_4fb2c7f8d5e3d0fd3f9f7230609d5cc1</title>
<text text-anchor="middle" x="1297" y="-46.5" font-family="Helvetica,sans-Serif" font-size="10.00">unicorns</text>
</g>
<!-- dir_bc3a9b89ce613ef864712371e4e9977f -->
<g id="node20" class="node">
<title>dir_bc3a9b89ce613ef864712371e4e9977f</title>
<g id="a_node20"><a xlink:href="dir_bc3a9b89ce613ef864712371e4e9977f.html" target="_top" xlink:title="states">
<polygon fill="#dfe5f1" stroke="#404040" points="1384.5,-60 1341.5,-60 1341.5,-40 1384.5,-40 1384.5,-60"/>
<text text-anchor="middle" x="1363" y="-46.5" font-family="Helvetica,sans-Serif" font-size="10.00">states</text>
</a>
</g>
</g>
<!-- dir_a99733535fab39a9c55ce96351976b69 -->
<g id="node21" class="node">
<title>dir_a99733535fab39a9c55ce96351976b69</title>
<g id="a_node21"><a xlink:href="dir_a99733535fab39a9c55ce96351976b69.html" target="_top" xlink:title="unicorn&#45;attacks">
<polygon fill="#dfe5f1" stroke="#404040" points="1485.38,-60 1402.62,-60 1402.62,-40 1485.38,-40 1485.38,-60"/>
<text text-anchor="middle" x="1444" y="-46.5" font-family="Helvetica,sans-Serif" font-size="10.00">unicorn&#45;attacks</text>
</a>
</g>
</g>
</g>
</svg>

<g id="navigator" transform="translate(0 0)" fill="#404254">
  <rect fill="#f2f5e9" fill-opacity="0.5" stroke="#606060" stroke-width=".5" x="0" y="0" width="60" height="60"/>
  <use id="zoomplus" xlink:href="#zoomPlus" x="17" y="9" onmousedown="handleZoom(evt,'in')"/>
  <use id="zoomminus" xlink:href="#zoomMin" x="42" y="9" onmousedown="handleZoom(evt,'out')"/>
  <use id="reset" xlink:href="#resetDef" x="30" y="36" onmousedown="handleReset()"/>
   <use id="arrowup" xlink:href="#arrowUp" x="0" y="0" onmousedown="handlePan(0,-1)"/>
  <use id="arrowright" xlink:href="#arrowRight" x="0" y="0" onmousedown="handlePan(1,0)"/>
  <use id="arrowdown" xlink:href="#arrowDown" x="0" y="0" onmousedown="handlePan(0,1)"/>
  <use id="arrowleft" xlink:href="#arrowLeft" x="0" y="0" onmousedown="handlePan(-1,0)"/>
</g>
<svg viewBox="0 0 15 15" width="100%" height="30px" preserveAspectRatio="xMaxYMin meet">
 <g id="arrow_out" transform="scale(0.3 0.3)">
  <a xlink:href="dir_990ac48b00bb3ee92e7a4c1dda9513a0_dep_org.svg" target="_base">
   <rect id="button" ry="5" rx="5" y="6" x="6" height="38" width="38"
        fill="#f2f5e9" fill-opacity="0.5" stroke="#606060" stroke-width="1.0"/>
   <path id="arrow"
     d="M 11.500037,31.436501 C 11.940474,20.09759 22.043105,11.32322 32.158766,21.979434 L 37.068811,17.246167 C 37.068811,17.246167 37.088388,32 37.088388,32 L 22.160133,31.978069 C 22.160133,31.978069 26.997745,27.140456 26.997745,27.140456 C 18.528582,18.264221 13.291696,25.230495 11.500037,31.436501 z"
     style="fill:#404040;"/>
  </a>
 </g>
</svg>

<style type='text/css'>
<![CDATA[
[data-mouse-over-selected='false'] { opacity: 0.7; }
[data-mouse-over-selected='true']  { opacity: 1.0; }
]]>
</style>
<script type="application/ecmascript"><![CDATA[
document.addEventListener('DOMContentLoaded', (event) => {
  highlightEdges();
  highlightAdjacentNodes();
});
]]></script>
</svg>
