<?xml version="1.0" encoding="UTF-8" standalone="no"?>
<!DOCTYPE svg PUBLIC "-//W3C//DTD SVG 1.1//EN"
 "http://www.w3.org/Graphics/SVG/1.1/DTD/svg11.dtd">
<!-- Generated by graphviz version 12.1.0 (20240811.2233)
 -->
<!-- Title: TheMagicApprentice/modules/entities/player Pages: 1 -->
<!--zoomable 112 -->

<svg id="main" version="1.1" xmlns="http://www.w3.org/2000/svg" xmlns:xlink="http://www.w3.org/1999/xlink" xml:space="preserve" onload="init(evt)">
<style type="text/css"><![CDATA[
.node, .edge {opacity: 0.7;}
.node.selected, .edge.selected {opacity: 1;}
.edge:hover path { stroke: red; }
.edge:hover polygon { stroke: red; fill: red; }
]]></style>

<defs>
  <circle id="rim" cx="0" cy="0" r="7"/>
  <circle id="rim2" cx="0" cy="0" r="3.5"/>
  <g id="zoomPlus">
    <use xlink:href="#rim" fill="#404040"><set attributeName="fill" to="#808080" begin="zoomplus.mouseover" end="zoomplus.mouseout"/></use>
    <path d="M-4,0h8M0,-4v8" fill="none" stroke="white" stroke-width="1.5" pointer-events="none"/>
  </g>
  <g id="zoomMin">
    <use xlink:href="#rim" fill="#404040"><set attributeName="fill" to="#808080" begin="zoomminus.mouseover" end="zoomminus.mouseout"/></use>
    <path d="M-4,0h8" fill="none" stroke="white" stroke-width="1.5" pointer-events="none"/>
  </g>
  <g id="arrowUp" transform="translate(30 24)">
    <use xlink:href="#rim"/>
    <path pointer-events="none" fill="none" stroke="white" stroke-width="1.5" d="M0,-3.0v7 M-2.5,-0.5L0,-3.0L2.5,-0.5"/>
  </g>
  <g id="arrowRight" transform="rotate(90) translate(36 -43)">
    <use xlink:href="#rim"/>
    <path pointer-events="none" fill="none" stroke="white" stroke-width="1.5" d="M0,-3.0v7 M-2.5,-0.5L0,-3.0L2.5,-0.5"/>
  </g>
  <g id="arrowDown" transform="rotate(180) translate(-30 -48)">
    <use xlink:href="#rim"/>
    <path pointer-events="none" fill="none" stroke="white" stroke-width="1.5" d="M0,-3.0v7 M-2.5,-0.5L0,-3.0L2.5,-0.5"/>
  </g>
  <g id="arrowLeft" transform="rotate(270) translate(-36 17)">
    <use xlink:href="#rim"/>
    <path pointer-events="none" fill="none" stroke="white" stroke-width="1.5" d="M0,-3.0v7 M-2.5,-0.5L0,-3.0L2.5,-0.5"/>
  </g>
  <g id="resetDef">
    <use xlink:href="#rim2" fill="#404040"><set attributeName="fill" to="#808080" begin="reset.mouseover" end="reset.mouseout"/></use>
  </g>
</defs>
<script type="application/ecmascript">
var viewWidth = 1048;
var viewHeight = 112;
var sectionId = 'dynsection-0';
</script>
<script type="application/ecmascript" xlink:href="svg.min.js"/>
<svg id="graph" class="graph">
<g id="viewport">
<title>TheMagicApprentice/modules/entities/player</title>
<g id="clust1" class="cluster">
<title>clusterdir_990ac48b00bb3ee92e7a4c1dda9513a0</title>
<g id="a_clust1"><a xlink:href="dir_990ac48b00bb3ee92e7a4c1dda9513a0.html" target="_top" xlink:title="entities">
<polygon fill="#edf0f7" stroke="#7f7f7f" stroke-dasharray="5,2" points="8,-8 8,-96 1032,-96 1032,-8 8,-8"/>
<text text-anchor="middle" x="520" y="-82.5" font-family="Helvetica,sans-Serif" font-size="10.00">entities</text>
</a>
</g>
</g>
<g id="clust2" class="cluster">
<title>clusterdir_1eb1008efe655e49678b128eaa251a23</title>
<g id="a_clust2"><a xlink:href="dir_1eb1008efe655e49678b128eaa251a23.html" target="_top">
<polygon fill="#edf0f7" stroke="#404040" stroke-width="2" points="16,-16 16,-68 1024,-68 1024,-16 16,-16"/>
</a>
</g>
</g>
<g id="clust3" class="cluster">
<title>clusterdir_2ff82af1bff91d56946a9dd1dcb74b03</title>
<g id="a_clust3"><a xlink:href="dir_2ff82af1bff91d56946a9dd1dcb74b03.html" target="_top">
<polygon fill="#e6eaf4" stroke="#404040" points="24,-24 24,-60 232,-60 232,-24 24,-24"/>
</a>
</g>
</g>
<g id="clust4" class="cluster">
<title>clusterdir_0daf681459ec114ada4bbcabd0499c28</title>
<g id="a_clust4"><a xlink:href="dir_0daf681459ec114ada4bbcabd0499c28.html" target="_top">
<polygon fill="#e6eaf4" stroke="#404040" points="240,-24 240,-60 902,-60 902,-24 240,-24"/>
</a>
</g>
</g>
<!-- dir_1eb1008efe655e49678b128eaa251a23 -->
<g id="node1" class="node">
<title>dir_1eb1008efe655e49678b128eaa251a23</title>
<text text-anchor="middle" x="933" y="-38.5" font-family="Helvetica,sans-Serif" font-size="10.00">player</text>
</g>
<!-- dir_2ff82af1bff91d56946a9dd1dcb74b03 -->
<g id="node2" class="node">
<title>dir_2ff82af1bff91d56946a9dd1dcb74b03</title>
<text text-anchor="middle" x="60" y="-38.5" font-family="Helvetica,sans-Serif" font-size="10.00">inventory</text>
</g>
<!-- dir_c55a352f579b0a526b42016380cabf36 -->
<g id="node3" class="node">
<title>dir_c55a352f579b0a526b42016380cabf36</title>
<g id="a_node3"><a xlink:href="dir_c55a352f579b0a526b42016380cabf36.html" target="_top" xlink:title="augments">
<polygon fill="#dfe5f1" stroke="#404040" points="164.38,-52 105.62,-52 105.62,-32 164.38,-32 164.38,-52"/>
<text text-anchor="middle" x="135" y="-38.5" font-family="Helvetica,sans-Serif" font-size="10.00">augments</text>
</a>
</g>
</g>
<!-- dir_d9cb6bb8e85d238c8ec64a3b06dd5973 -->
<g id="node4" class="node">
<title>dir_d9cb6bb8e85d238c8ec64a3b06dd5973</title>
<g id="a_node4"><a xlink:href="dir_d9cb6bb8e85d238c8ec64a3b06dd5973.html" target="_top" xlink:title="spells">
<polygon fill="#dfe5f1" stroke="#404040" points="223.75,-52 182.25,-52 182.25,-32 223.75,-32 223.75,-52"/>
<text text-anchor="middle" x="203" y="-38.5" font-family="Helvetica,sans-Serif" font-size="10.00">spells</text>
</a>
</g>
</g>
<!-- dir_0daf681459ec114ada4bbcabd0499c28 -->
<g id="node5" class="node">
<title>dir_0daf681459ec114ada4bbcabd0499c28</title>
<text text-anchor="middle" x="269" y="-38.5" font-family="Helvetica,sans-Serif" font-size="10.00">spells</text>
</g>
<!-- dir_dcb226ae9805ff0c413e8f742896cdbb -->
<g id="node6" class="node">
<title>dir_dcb226ae9805ff0c413e8f742896cdbb</title>
<g id="a_node6"><a xlink:href="dir_dcb226ae9805ff0c413e8f742896cdbb.html" target="_top" xlink:title="basic_spell">
<polygon fill="#dfe5f1" stroke="#404040" points="372.38,-52 307.62,-52 307.62,-32 372.38,-32 372.38,-52"/>
<text text-anchor="middle" x="340" y="-38.5" font-family="Helvetica,sans-Serif" font-size="10.00">basic_spell</text>
</a>
</g>
</g>
<!-- dir_e365faeaf9537f4fe937f9f3b025f768 -->
<g id="node7" class="node">
<title>dir_e365faeaf9537f4fe937f9f3b025f768</title>
<g id="a_node7"><a xlink:href="dir_e365faeaf9537f4fe937f9f3b025f768.html" target="_top" xlink:title="black_hole">
<polygon fill="#dfe5f1" stroke="#404040" points="453.25,-52 390.75,-52 390.75,-32 453.25,-32 453.25,-52"/>
<text text-anchor="middle" x="422" y="-38.5" font-family="Helvetica,sans-Serif" font-size="10.00">black_hole</text>
</a>
</g>
</g>
<!-- dir_3a73279c96d703690e2452a3ed2d022e -->
<g id="node8" class="node">
<title>dir_3a73279c96d703690e2452a3ed2d022e</title>
<g id="a_node8"><a xlink:href="dir_3a73279c96d703690e2452a3ed2d022e.html" target="_top" xlink:title="dark_energy_wave">
<polygon fill="#dfe5f1" stroke="#404040" points="568.88,-52 471.12,-52 471.12,-32 568.88,-32 568.88,-52"/>
<text text-anchor="middle" x="520" y="-38.5" font-family="Helvetica,sans-Serif" font-size="10.00">dark_energy_wave</text>
</a>
</g>
</g>
<!-- dir_0fa159ff7026e1158a5381036bdc7e26 -->
<g id="node9" class="node">
<title>dir_0fa159ff7026e1158a5381036bdc7e26</title>
<g id="a_node9"><a xlink:href="dir_0fa159ff7026e1158a5381036bdc7e26.html" target="_top" xlink:title="moon_light">
<polygon fill="#dfe5f1" stroke="#404040" points="650.62,-52 587.38,-52 587.38,-32 650.62,-32 650.62,-52"/>
<text text-anchor="middle" x="619" y="-38.5" font-family="Helvetica,sans-Serif" font-size="10.00">moon_light</text>
</a>
</g>
</g>
<!-- dir_a953210f17038a53b414eab9d1a83c66 -->
<g id="node10" class="node">
<title>dir_a953210f17038a53b414eab9d1a83c66</title>
<g id="a_node10"><a xlink:href="dir_a953210f17038a53b414eab9d1a83c66.html" target="_top" xlink:title="star_rain">
<polygon fill="#dfe5f1" stroke="#404040" points="721.75,-52 668.25,-52 668.25,-32 721.75,-32 721.75,-52"/>
<text text-anchor="middle" x="695" y="-38.5" font-family="Helvetica,sans-Serif" font-size="10.00">star_rain</text>
</a>
</g>
</g>
<!-- dir_fe0ac6033bc2a6b5976edb9a50467bd2 -->
<g id="node11" class="node">
<title>dir_fe0ac6033bc2a6b5976edb9a50467bd2</title>
<g id="a_node11"><a xlink:href="dir_fe0ac6033bc2a6b5976edb9a50467bd2.html" target="_top" xlink:title="summon_sun">
<polygon fill="#dfe5f1" stroke="#404040" points="814.25,-52 739.75,-52 739.75,-32 814.25,-32 814.25,-52"/>
<text text-anchor="middle" x="777" y="-38.5" font-family="Helvetica,sans-Serif" font-size="10.00">summon_sun</text>
</a>
</g>
</g>
<!-- dir_a73b886afa8d653c9034f4dd7d83e4ab -->
<g id="node12" class="node">
<title>dir_a73b886afa8d653c9034f4dd7d83e4ab</title>
<g id="a_node12"><a xlink:href="dir_a73b886afa8d653c9034f4dd7d83e4ab.html" target="_top" xlink:title="sun_beam">
<polygon fill="#dfe5f1" stroke="#404040" points="893.5,-52 832.5,-52 832.5,-32 893.5,-32 893.5,-52"/>
<text text-anchor="middle" x="863" y="-38.5" font-family="Helvetica,sans-Serif" font-size="10.00">sun_beam</text>
</a>
</g>
</g>
<!-- dir_eda82a2787e8bddbc4b24bd987f8617c -->
<g id="node13" class="node">
<title>dir_eda82a2787e8bddbc4b24bd987f8617c</title>
<g id="a_node13"><a xlink:href="dir_eda82a2787e8bddbc4b24bd987f8617c.html" target="_top" xlink:title="states">
<polygon fill="#e6eaf4" stroke="#404040" points="1015.5,-52 972.5,-52 972.5,-32 1015.5,-32 1015.5,-52"/>
<text text-anchor="middle" x="994" y="-38.5" font-family="Helvetica,sans-Serif" font-size="10.00">states</text>
</a>
</g>
</g>
</g>
</svg>

<g id="navigator" transform="translate(0 0)" fill="#404254">
  <rect fill="#f2f5e9" fill-opacity="0.5" stroke="#606060" stroke-width=".5" x="0" y="0" width="60" height="60"/>
  <use id="zoomplus" xlink:href="#zoomPlus" x="17" y="9" onmousedown="handleZoom(evt,'in')"/>
  <use id="zoomminus" xlink:href="#zoomMin" x="42" y="9" onmousedown="handleZoom(evt,'out')"/>
  <use id="reset" xlink:href="#resetDef" x="30" y="36" onmousedown="handleReset()"/>
   <use id="arrowup" xlink:href="#arrowUp" x="0" y="0" onmousedown="handlePan(0,-1)"/>
  <use id="arrowright" xlink:href="#arrowRight" x="0" y="0" onmousedown="handlePan(1,0)"/>
  <use id="arrowdown" xlink:href="#arrowDown" x="0" y="0" onmousedown="handlePan(0,1)"/>
  <use id="arrowleft" xlink:href="#arrowLeft" x="0" y="0" onmousedown="handlePan(-1,0)"/>
</g>
<svg viewBox="0 0 15 15" width="100%" height="30px" preserveAspectRatio="xMaxYMin meet">
 <g id="arrow_out" transform="scale(0.3 0.3)">
  <a xlink:href="dir_1eb1008efe655e49678b128eaa251a23_dep_org.svg" target="_base">
   <rect id="button" ry="5" rx="5" y="6" x="6" height="38" width="38"
        fill="#f2f5e9" fill-opacity="0.5" stroke="#606060" stroke-width="1.0"/>
   <path id="arrow"
     d="M 11.500037,31.436501 C 11.940474,20.09759 22.043105,11.32322 32.158766,21.979434 L 37.068811,17.246167 C 37.068811,17.246167 37.088388,32 37.088388,32 L 22.160133,31.978069 C 22.160133,31.978069 26.997745,27.140456 26.997745,27.140456 C 18.528582,18.264221 13.291696,25.230495 11.500037,31.436501 z"
     style="fill:#404040;"/>
  </a>
 </g>
</svg>

<style type='text/css'>
<![CDATA[
[data-mouse-over-selected='false'] { opacity: 0.7; }
[data-mouse-over-selected='true']  { opacity: 1.0; }
]]>
</style>
<script type="application/ecmascript"><![CDATA[
document.addEventListener('DOMContentLoaded', (event) => {
  highlightEdges();
  highlightAdjacentNodes();
});
]]></script>
</svg>
