<?xml version="1.0" encoding="UTF-8" standalone="no"?>
<!DOCTYPE svg PUBLIC "-//W3C//DTD SVG 1.1//EN"
 "http://www.w3.org/Graphics/SVG/1.1/DTD/svg11.dtd">
<!-- Generated by graphviz version 12.1.0 (20240811.2233)
 -->
<!-- Title: TheMagicApprentice/modules/ui Pages: 1 -->
<!--zoomable 96 -->

<svg id="main" version="1.1" xmlns="http://www.w3.org/2000/svg" xmlns:xlink="http://www.w3.org/1999/xlink" xml:space="preserve" onload="init(evt)">
<style type="text/css"><![CDATA[
.node, .edge {opacity: 0.7;}
.node.selected, .edge.selected {opacity: 1;}
.edge:hover path { stroke: red; }
.edge:hover polygon { stroke: red; fill: red; }
]]></style>

<defs>
  <circle id="rim" cx="0" cy="0" r="7"/>
  <circle id="rim2" cx="0" cy="0" r="3.5"/>
  <g id="zoomPlus">
    <use xlink:href="#rim" fill="#404040"><set attributeName="fill" to="#808080" begin="zoomplus.mouseover" end="zoomplus.mouseout"/></use>
    <path d="M-4,0h8M0,-4v8" fill="none" stroke="white" stroke-width="1.5" pointer-events="none"/>
  </g>
  <g id="zoomMin">
    <use xlink:href="#rim" fill="#404040"><set attributeName="fill" to="#808080" begin="zoomminus.mouseover" end="zoomminus.mouseout"/></use>
    <path d="M-4,0h8" fill="none" stroke="white" stroke-width="1.5" pointer-events="none"/>
  </g>
  <g id="arrowUp" transform="translate(30 24)">
    <use xlink:href="#rim"/>
    <path pointer-events="none" fill="none" stroke="white" stroke-width="1.5" d="M0,-3.0v7 M-2.5,-0.5L0,-3.0L2.5,-0.5"/>
  </g>
  <g id="arrowRight" transform="rotate(90) translate(36 -43)">
    <use xlink:href="#rim"/>
    <path pointer-events="none" fill="none" stroke="white" stroke-width="1.5" d="M0,-3.0v7 M-2.5,-0.5L0,-3.0L2.5,-0.5"/>
  </g>
  <g id="arrowDown" transform="rotate(180) translate(-30 -48)">
    <use xlink:href="#rim"/>
    <path pointer-events="none" fill="none" stroke="white" stroke-width="1.5" d="M0,-3.0v7 M-2.5,-0.5L0,-3.0L2.5,-0.5"/>
  </g>
  <g id="arrowLeft" transform="rotate(270) translate(-36 17)">
    <use xlink:href="#rim"/>
    <path pointer-events="none" fill="none" stroke="white" stroke-width="1.5" d="M0,-3.0v7 M-2.5,-0.5L0,-3.0L2.5,-0.5"/>
  </g>
  <g id="resetDef">
    <use xlink:href="#rim2" fill="#404040"><set attributeName="fill" to="#808080" begin="reset.mouseover" end="reset.mouseout"/></use>
  </g>
</defs>
<script type="application/ecmascript">
var viewWidth = 903;
var viewHeight = 96;
var sectionId = 'dynsection-0';
</script>
<script type="application/ecmascript" xlink:href="svg.min.js"/>
<svg id="graph" class="graph">
<g id="viewport">
<title>TheMagicApprentice/modules/ui</title>
<g id="clust1" class="cluster">
<title>clusterdir_281a3971acf26abaafec632a279212ee</title>
<g id="a_clust1"><a xlink:href="dir_281a3971acf26abaafec632a279212ee.html" target="_top" xlink:title="modules">
<polygon fill="#edf0f7" stroke="#7f7f7f" stroke-dasharray="5,2" points="8,-8 8,-80 887,-80 887,-8 8,-8"/>
<text text-anchor="middle" x="447.5" y="-66.5" font-family="Helvetica,sans-Serif" font-size="10.00">modules</text>
</a>
</g>
</g>
<g id="clust2" class="cluster">
<title>clusterdir_d78a5f95203ed07fde1d8067b38c2eea</title>
<g id="a_clust2"><a xlink:href="dir_d78a5f95203ed07fde1d8067b38c2eea.html" target="_top">
<polygon fill="#edf0f7" stroke="#404040" stroke-width="2" points="16,-16 16,-52 879,-52 879,-16 16,-16"/>
</a>
</g>
</g>
<!-- dir_d78a5f95203ed07fde1d8067b38c2eea -->
<g id="node1" class="node">
<title>dir_d78a5f95203ed07fde1d8067b38c2eea</title>
<text text-anchor="middle" x="38" y="-30.5" font-family="Helvetica,sans-Serif" font-size="10.00">ui</text>
</g>
<!-- dir_61b3eeccd522ba35b91b22523e49be57 -->
<g id="node2" class="node">
<title>dir_61b3eeccd522ba35b91b22523e49be57</title>
<g id="a_node2"><a xlink:href="dir_61b3eeccd522ba35b91b22523e49be57.html" target="_top" xlink:title="dungeon_clear_menu">
<polygon fill="#e6eaf4" stroke="#404040" points="179.12,-44 70.88,-44 70.88,-24 179.12,-24 179.12,-44"/>
<text text-anchor="middle" x="125" y="-30.5" font-family="Helvetica,sans-Serif" font-size="10.00">dungeon_clear_menu</text>
</a>
</g>
</g>
<!-- dir_0f2a1187c5bd052814d63e3cb13a5574 -->
<g id="node3" class="node">
<title>dir_0f2a1187c5bd052814d63e3cb13a5574</title>
<g id="a_node3"><a xlink:href="dir_0f2a1187c5bd052814d63e3cb13a5574.html" target="_top" xlink:title="dungeon_selection">
<polygon fill="#e6eaf4" stroke="#404040" points="294.5,-44 197.5,-44 197.5,-24 294.5,-24 294.5,-44"/>
<text text-anchor="middle" x="246" y="-30.5" font-family="Helvetica,sans-Serif" font-size="10.00">dungeon_selection</text>
</a>
</g>
</g>
<!-- dir_64d36a440f359ce47de67d9a3b19dbdf -->
<g id="node4" class="node">
<title>dir_64d36a440f359ce47de67d9a3b19dbdf</title>
<g id="a_node4"><a xlink:href="dir_64d36a440f359ce47de67d9a3b19dbdf.html" target="_top" xlink:title="main_hub">
<polygon fill="#e6eaf4" stroke="#404040" points="371,-44 313,-44 313,-24 371,-24 371,-44"/>
<text text-anchor="middle" x="342" y="-30.5" font-family="Helvetica,sans-Serif" font-size="10.00">main_hub</text>
</a>
</g>
</g>
<!-- dir_224c46c823ed12776acca442898b2af7 -->
<g id="node5" class="node">
<title>dir_224c46c823ed12776acca442898b2af7</title>
<g id="a_node5"><a xlink:href="dir_224c46c823ed12776acca442898b2af7.html" target="_top" xlink:title="main_menu">
<polygon fill="#e6eaf4" stroke="#404040" points="455.12,-44 388.88,-44 388.88,-24 455.12,-24 455.12,-44"/>
<text text-anchor="middle" x="422" y="-30.5" font-family="Helvetica,sans-Serif" font-size="10.00">main_menu</text>
</a>
</g>
</g>
<!-- dir_8942a8270a746728fc5a118e13209620 -->
<g id="node6" class="node">
<title>dir_8942a8270a746728fc5a118e13209620</title>
<g id="a_node6"><a xlink:href="dir_8942a8270a746728fc5a118e13209620.html" target="_top" xlink:title="new_game_menu">
<polygon fill="#e6eaf4" stroke="#404040" points="565.25,-44 472.75,-44 472.75,-24 565.25,-24 565.25,-44"/>
<text text-anchor="middle" x="519" y="-30.5" font-family="Helvetica,sans-Serif" font-size="10.00">new_game_menu</text>
</a>
</g>
</g>
<!-- dir_8f5ed07e4ddeafaaf8a5bb9bb68234d9 -->
<g id="node7" class="node">
<title>dir_8f5ed07e4ddeafaaf8a5bb9bb68234d9</title>
<g id="a_node7"><a xlink:href="dir_8f5ed07e4ddeafaaf8a5bb9bb68234d9.html" target="_top" xlink:title="pause_menu">
<polygon fill="#e6eaf4" stroke="#404040" points="654.75,-44 583.25,-44 583.25,-24 654.75,-24 654.75,-44"/>
<text text-anchor="middle" x="619" y="-30.5" font-family="Helvetica,sans-Serif" font-size="10.00">pause_menu</text>
</a>
</g>
</g>
<!-- dir_ca06c7c85d5855f5c574937b6e122329 -->
<g id="node8" class="node">
<title>dir_ca06c7c85d5855f5c574937b6e122329</title>
<g id="a_node8"><a xlink:href="dir_ca06c7c85d5855f5c574937b6e122329.html" target="_top" xlink:title="player_death_menu">
<polygon fill="#e6eaf4" stroke="#404040" points="773.38,-44 672.62,-44 672.62,-24 773.38,-24 773.38,-44"/>
<text text-anchor="middle" x="723" y="-30.5" font-family="Helvetica,sans-Serif" font-size="10.00">player_death_menu</text>
</a>
</g>
</g>
<!-- dir_ed38a89b33108fadab1ee4ea55ed80cd -->
<g id="node9" class="node">
<title>dir_ed38a89b33108fadab1ee4ea55ed80cd</title>
<g id="a_node9"><a xlink:href="dir_ed38a89b33108fadab1ee4ea55ed80cd.html" target="_top" xlink:title="settings_menu">
<polygon fill="#e6eaf4" stroke="#404040" points="870.88,-44 791.12,-44 791.12,-24 870.88,-24 870.88,-44"/>
<text text-anchor="middle" x="831" y="-30.5" font-family="Helvetica,sans-Serif" font-size="10.00">settings_menu</text>
</a>
</g>
</g>
</g>
</svg>

<g id="navigator" transform="translate(0 0)" fill="#404254">
  <rect fill="#f2f5e9" fill-opacity="0.5" stroke="#606060" stroke-width=".5" x="0" y="0" width="60" height="60"/>
  <use id="zoomplus" xlink:href="#zoomPlus" x="17" y="9" onmousedown="handleZoom(evt,'in')"/>
  <use id="zoomminus" xlink:href="#zoomMin" x="42" y="9" onmousedown="handleZoom(evt,'out')"/>
  <use id="reset" xlink:href="#resetDef" x="30" y="36" onmousedown="handleReset()"/>
   <use id="arrowup" xlink:href="#arrowUp" x="0" y="0" onmousedown="handlePan(0,-1)"/>
  <use id="arrowright" xlink:href="#arrowRight" x="0" y="0" onmousedown="handlePan(1,0)"/>
  <use id="arrowdown" xlink:href="#arrowDown" x="0" y="0" onmousedown="handlePan(0,1)"/>
  <use id="arrowleft" xlink:href="#arrowLeft" x="0" y="0" onmousedown="handlePan(-1,0)"/>
</g>
<svg viewBox="0 0 15 15" width="100%" height="30px" preserveAspectRatio="xMaxYMin meet">
 <g id="arrow_out" transform="scale(0.3 0.3)">
  <a xlink:href="dir_d78a5f95203ed07fde1d8067b38c2eea_dep_org.svg" target="_base">
   <rect id="button" ry="5" rx="5" y="6" x="6" height="38" width="38"
        fill="#f2f5e9" fill-opacity="0.5" stroke="#606060" stroke-width="1.0"/>
   <path id="arrow"
     d="M 11.500037,31.436501 C 11.940474,20.09759 22.043105,11.32322 32.158766,21.979434 L 37.068811,17.246167 C 37.068811,17.246167 37.088388,32 37.088388,32 L 22.160133,31.978069 C 22.160133,31.978069 26.997745,27.140456 26.997745,27.140456 C 18.528582,18.264221 13.291696,25.230495 11.500037,31.436501 z"
     style="fill:#404040;"/>
  </a>
 </g>
</svg>

<style type='text/css'>
<![CDATA[
[data-mouse-over-selected='false'] { opacity: 0.7; }
[data-mouse-over-selected='true']  { opacity: 1.0; }
]]>
</style>
<script type="application/ecmascript"><![CDATA[
document.addEventListener('DOMContentLoaded', (event) => {
  highlightEdges();
  highlightAdjacentNodes();
});
]]></script>
</svg>
