<?xml version="1.0" encoding="UTF-8" standalone="no"?>
<!DOCTYPE svg PUBLIC "-//W3C//DTD SVG 1.1//EN"
 "http://www.w3.org/Graphics/SVG/1.1/DTD/svg11.dtd">
<!-- Generated by graphviz version 12.1.0 (20240811.2233)
 -->
<!-- Title: TheMagicApprentice/modules/entities/player/spells Pages: 1 -->
<!--zoomable 96 -->

<svg id="main" version="1.1" xmlns="http://www.w3.org/2000/svg" xmlns:xlink="http://www.w3.org/1999/xlink" xml:space="preserve" onload="init(evt)">
<style type="text/css"><![CDATA[
.node, .edge {opacity: 0.7;}
.node.selected, .edge.selected {opacity: 1;}
.edge:hover path { stroke: red; }
.edge:hover polygon { stroke: red; fill: red; }
]]></style>

<defs>
  <circle id="rim" cx="0" cy="0" r="7"/>
  <circle id="rim2" cx="0" cy="0" r="3.5"/>
  <g id="zoomPlus">
    <use xlink:href="#rim" fill="#404040"><set attributeName="fill" to="#808080" begin="zoomplus.mouseover" end="zoomplus.mouseout"/></use>
    <path d="M-4,0h8M0,-4v8" fill="none" stroke="white" stroke-width="1.5" pointer-events="none"/>
  </g>
  <g id="zoomMin">
    <use xlink:href="#rim" fill="#404040"><set attributeName="fill" to="#808080" begin="zoomminus.mouseover" end="zoomminus.mouseout"/></use>
    <path d="M-4,0h8" fill="none" stroke="white" stroke-width="1.5" pointer-events="none"/>
  </g>
  <g id="arrowUp" transform="translate(30 24)">
    <use xlink:href="#rim"/>
    <path pointer-events="none" fill="none" stroke="white" stroke-width="1.5" d="M0,-3.0v7 M-2.5,-0.5L0,-3.0L2.5,-0.5"/>
  </g>
  <g id="arrowRight" transform="rotate(90) translate(36 -43)">
    <use xlink:href="#rim"/>
    <path pointer-events="none" fill="none" stroke="white" stroke-width="1.5" d="M0,-3.0v7 M-2.5,-0.5L0,-3.0L2.5,-0.5"/>
  </g>
  <g id="arrowDown" transform="rotate(180) translate(-30 -48)">
    <use xlink:href="#rim"/>
    <path pointer-events="none" fill="none" stroke="white" stroke-width="1.5" d="M0,-3.0v7 M-2.5,-0.5L0,-3.0L2.5,-0.5"/>
  </g>
  <g id="arrowLeft" transform="rotate(270) translate(-36 17)">
    <use xlink:href="#rim"/>
    <path pointer-events="none" fill="none" stroke="white" stroke-width="1.5" d="M0,-3.0v7 M-2.5,-0.5L0,-3.0L2.5,-0.5"/>
  </g>
  <g id="resetDef">
    <use xlink:href="#rim2" fill="#404040"><set attributeName="fill" to="#808080" begin="reset.mouseover" end="reset.mouseout"/></use>
  </g>
</defs>
<script type="application/ecmascript">
var viewWidth = 702;
var viewHeight = 96;
var sectionId = 'dynsection-0';
</script>
<script type="application/ecmascript" xlink:href="svg.min.js"/>
<svg id="graph" class="graph">
<g id="viewport">
<title>TheMagicApprentice/modules/entities/player/spells</title>
<g id="clust1" class="cluster">
<title>clusterdir_1eb1008efe655e49678b128eaa251a23</title>
<g id="a_clust1"><a xlink:href="dir_1eb1008efe655e49678b128eaa251a23.html" target="_top" xlink:title="player">
<polygon fill="#edf0f7" stroke="#7f7f7f" stroke-dasharray="5,2" points="8,-8 8,-80 686,-80 686,-8 8,-8"/>
<text text-anchor="middle" x="347" y="-66.5" font-family="Helvetica,sans-Serif" font-size="10.00">player</text>
</a>
</g>
</g>
<g id="clust2" class="cluster">
<title>clusterdir_0daf681459ec114ada4bbcabd0499c28</title>
<g id="a_clust2"><a xlink:href="dir_0daf681459ec114ada4bbcabd0499c28.html" target="_top">
<polygon fill="#edf0f7" stroke="#404040" stroke-width="2" points="16,-16 16,-52 678,-52 678,-16 16,-16"/>
</a>
</g>
</g>
<!-- dir_0daf681459ec114ada4bbcabd0499c28 -->
<g id="node1" class="node">
<title>dir_0daf681459ec114ada4bbcabd0499c28</title>
<text text-anchor="middle" x="45" y="-30.5" font-family="Helvetica,sans-Serif" font-size="10.00">spells</text>
</g>
<!-- dir_dcb226ae9805ff0c413e8f742896cdbb -->
<g id="node2" class="node">
<title>dir_dcb226ae9805ff0c413e8f742896cdbb</title>
<g id="a_node2"><a xlink:href="dir_dcb226ae9805ff0c413e8f742896cdbb.html" target="_top" xlink:title="basic_spell">
<polygon fill="#e6eaf4" stroke="#404040" points="148.38,-44 83.62,-44 83.62,-24 148.38,-24 148.38,-44"/>
<text text-anchor="middle" x="116" y="-30.5" font-family="Helvetica,sans-Serif" font-size="10.00">basic_spell</text>
</a>
</g>
</g>
<!-- dir_e365faeaf9537f4fe937f9f3b025f768 -->
<g id="node3" class="node">
<title>dir_e365faeaf9537f4fe937f9f3b025f768</title>
<g id="a_node3"><a xlink:href="dir_e365faeaf9537f4fe937f9f3b025f768.html" target="_top" xlink:title="black_hole">
<polygon fill="#e6eaf4" stroke="#404040" points="229.25,-44 166.75,-44 166.75,-24 229.25,-24 229.25,-44"/>
<text text-anchor="middle" x="198" y="-30.5" font-family="Helvetica,sans-Serif" font-size="10.00">black_hole</text>
</a>
</g>
</g>
<!-- dir_3a73279c96d703690e2452a3ed2d022e -->
<g id="node4" class="node">
<title>dir_3a73279c96d703690e2452a3ed2d022e</title>
<g id="a_node4"><a xlink:href="dir_3a73279c96d703690e2452a3ed2d022e.html" target="_top" xlink:title="dark_energy_wave">
<polygon fill="#e6eaf4" stroke="#404040" points="344.88,-44 247.12,-44 247.12,-24 344.88,-24 344.88,-44"/>
<text text-anchor="middle" x="296" y="-30.5" font-family="Helvetica,sans-Serif" font-size="10.00">dark_energy_wave</text>
</a>
</g>
</g>
<!-- dir_0fa159ff7026e1158a5381036bdc7e26 -->
<g id="node5" class="node">
<title>dir_0fa159ff7026e1158a5381036bdc7e26</title>
<g id="a_node5"><a xlink:href="dir_0fa159ff7026e1158a5381036bdc7e26.html" target="_top" xlink:title="moon_light">
<polygon fill="#e6eaf4" stroke="#404040" points="426.62,-44 363.38,-44 363.38,-24 426.62,-24 426.62,-44"/>
<text text-anchor="middle" x="395" y="-30.5" font-family="Helvetica,sans-Serif" font-size="10.00">moon_light</text>
</a>
</g>
</g>
<!-- dir_a953210f17038a53b414eab9d1a83c66 -->
<g id="node6" class="node">
<title>dir_a953210f17038a53b414eab9d1a83c66</title>
<g id="a_node6"><a xlink:href="dir_a953210f17038a53b414eab9d1a83c66.html" target="_top" xlink:title="star_rain">
<polygon fill="#e6eaf4" stroke="#404040" points="497.75,-44 444.25,-44 444.25,-24 497.75,-24 497.75,-44"/>
<text text-anchor="middle" x="471" y="-30.5" font-family="Helvetica,sans-Serif" font-size="10.00">star_rain</text>
</a>
</g>
</g>
<!-- dir_fe0ac6033bc2a6b5976edb9a50467bd2 -->
<g id="node7" class="node">
<title>dir_fe0ac6033bc2a6b5976edb9a50467bd2</title>
<g id="a_node7"><a xlink:href="dir_fe0ac6033bc2a6b5976edb9a50467bd2.html" target="_top" xlink:title="summon_sun">
<polygon fill="#e6eaf4" stroke="#404040" points="590.25,-44 515.75,-44 515.75,-24 590.25,-24 590.25,-44"/>
<text text-anchor="middle" x="553" y="-30.5" font-family="Helvetica,sans-Serif" font-size="10.00">summon_sun</text>
</a>
</g>
</g>
<!-- dir_a73b886afa8d653c9034f4dd7d83e4ab -->
<g id="node8" class="node">
<title>dir_a73b886afa8d653c9034f4dd7d83e4ab</title>
<g id="a_node8"><a xlink:href="dir_a73b886afa8d653c9034f4dd7d83e4ab.html" target="_top" xlink:title="sun_beam">
<polygon fill="#e6eaf4" stroke="#404040" points="669.5,-44 608.5,-44 608.5,-24 669.5,-24 669.5,-44"/>
<text text-anchor="middle" x="639" y="-30.5" font-family="Helvetica,sans-Serif" font-size="10.00">sun_beam</text>
</a>
</g>
</g>
</g>
</svg>

<g id="navigator" transform="translate(0 0)" fill="#404254">
  <rect fill="#f2f5e9" fill-opacity="0.5" stroke="#606060" stroke-width=".5" x="0" y="0" width="60" height="60"/>
  <use id="zoomplus" xlink:href="#zoomPlus" x="17" y="9" onmousedown="handleZoom(evt,'in')"/>
  <use id="zoomminus" xlink:href="#zoomMin" x="42" y="9" onmousedown="handleZoom(evt,'out')"/>
  <use id="reset" xlink:href="#resetDef" x="30" y="36" onmousedown="handleReset()"/>
   <use id="arrowup" xlink:href="#arrowUp" x="0" y="0" onmousedown="handlePan(0,-1)"/>
  <use id="arrowright" xlink:href="#arrowRight" x="0" y="0" onmousedown="handlePan(1,0)"/>
  <use id="arrowdown" xlink:href="#arrowDown" x="0" y="0" onmousedown="handlePan(0,1)"/>
  <use id="arrowleft" xlink:href="#arrowLeft" x="0" y="0" onmousedown="handlePan(-1,0)"/>
</g>
<svg viewBox="0 0 15 15" width="100%" height="30px" preserveAspectRatio="xMaxYMin meet">
 <g id="arrow_out" transform="scale(0.3 0.3)">
  <a xlink:href="dir_0daf681459ec114ada4bbcabd0499c28_dep_org.svg" target="_base">
   <rect id="button" ry="5" rx="5" y="6" x="6" height="38" width="38"
        fill="#f2f5e9" fill-opacity="0.5" stroke="#606060" stroke-width="1.0"/>
   <path id="arrow"
     d="M 11.500037,31.436501 C 11.940474,20.09759 22.043105,11.32322 32.158766,21.979434 L 37.068811,17.246167 C 37.068811,17.246167 37.088388,32 37.088388,32 L 22.160133,31.978069 C 22.160133,31.978069 26.997745,27.140456 26.997745,27.140456 C 18.528582,18.264221 13.291696,25.230495 11.500037,31.436501 z"
     style="fill:#404040;"/>
  </a>
 </g>
</svg>

<style type='text/css'>
<![CDATA[
[data-mouse-over-selected='false'] { opacity: 0.7; }
[data-mouse-over-selected='true']  { opacity: 1.0; }
]]>
</style>
<script type="application/ecmascript"><![CDATA[
document.addEventListener('DOMContentLoaded', (event) => {
  highlightEdges();
  highlightAdjacentNodes();
});
]]></script>
</svg>
