<?xml version="1.0" encoding="UTF-8" standalone="no"?>
<!DOCTYPE svg PUBLIC "-//W3C//DTD SVG 1.1//EN"
 "http://www.w3.org/Graphics/SVG/1.1/DTD/svg11.dtd">
<!-- Generated by graphviz version 12.1.0 (20240811.2233)
 -->
<!-- Title: Graphical Class Hierarchy Pages: 1 -->
<svg width="518pt" height="370pt"
 viewBox="0.00 0.00 517.50 370.00" xmlns="http://www.w3.org/2000/svg" xmlns:xlink="http://www.w3.org/1999/xlink">
<g id="graph0" class="graph" transform="scale(1 1) rotate(0) translate(4 366)">
<title>Graphical Class Hierarchy</title>
<!-- Node0 -->
<g id="Node000000" class="node">
<title>Node0</title>
<g id="a_Node000000"><a xlink:href="df/d00/class_resource.html" target="_top" xlink:title=" ">
<polygon fill="white" stroke="#666666" points="58,-210 0,-210 0,-190 58,-190 58,-210"/>
<text text-anchor="middle" x="29" y="-196.5" font-family="Helvetica,sans-Serif" font-size="10.00">Resource</text>
</a>
</g>
</g>
<!-- Node1 -->
<g id="Node000001" class="node">
<title>Node1</title>
<g id="a_Node000001"><a xlink:href="de/d8a/class_augment.html" target="_top" xlink:title=" ">
<polygon fill="white" stroke="#666666" points="161.75,-229 106.75,-229 106.75,-209 161.75,-209 161.75,-229"/>
<text text-anchor="middle" x="134.25" y="-215.5" font-family="Helvetica,sans-Serif" font-size="10.00">Augment</text>
</a>
</g>
</g>
<!-- Node0&#45;&gt;Node1 -->
<g id="edge67_Node000000_Node000001" class="edge">
<title>Node0&#45;&gt;Node1</title>
<g id="a_edge67_Node000000_Node000001"><a xlink:title=" ">
<path fill="none" stroke="#63b8ff" d="M69.81,-207.33C82.01,-209.57 95.14,-211.99 106.28,-214.04"/>
<polygon fill="#63b8ff" stroke="#63b8ff" points="70.44,-203.88 59.98,-205.52 69.18,-210.77 70.44,-203.88"/>
</a>
</g>
</g>
<!-- Node2 -->
<g id="Node000002" class="node">
<title>Node2</title>
<g id="a_Node000002"><a xlink:href="d5/d2b/class_augment_effect.html" target="_top" xlink:title=" ">
<polygon fill="white" stroke="#666666" points="174.5,-191 94,-191 94,-171 174.5,-171 174.5,-191"/>
<text text-anchor="middle" x="134.25" y="-177.5" font-family="Helvetica,sans-Serif" font-size="10.00">AugmentEffect</text>
</a>
</g>
</g>
<!-- Node0&#45;&gt;Node2 -->
<g id="edge68_Node000000_Node000002" class="edge">
<title>Node0&#45;&gt;Node2</title>
<g id="a_edge68_Node000000_Node000002"><a xlink:title=" ">
<path fill="none" stroke="#63b8ff" d="M69.65,-192.7C77.52,-191.26 85.78,-189.74 93.65,-188.29"/>
<polygon fill="#63b8ff" stroke="#63b8ff" points="69.18,-189.23 59.98,-194.48 70.44,-196.12 69.18,-189.23"/>
</a>
</g>
</g>
<!-- Node3 -->
<g id="Node000003" class="node">
<title>Node3</title>
<g id="a_Node000003"><a xlink:href="d3/df6/class_additional_stars.html" target="_top" xlink:title=" ">
<polygon fill="white" stroke="#666666" points="321.75,-362 239.75,-362 239.75,-342 321.75,-342 321.75,-362"/>
<text text-anchor="middle" x="280.75" y="-348.5" font-family="Helvetica,sans-Serif" font-size="10.00">AdditionalStars</text>
</a>
</g>
</g>
<!-- Node2&#45;&gt;Node3 -->
<g id="edge69_Node000002_Node000003" class="edge">
<title>Node2&#45;&gt;Node3</title>
<g id="a_edge69_Node000002_Node000003"><a xlink:title=" ">
<path fill="none" stroke="#63b8ff" d="M173.13,-198.46C173.61,-198.96 174.06,-199.47 174.5,-200 213.58,-247.15 167.27,-289.62 210.5,-333 218.24,-340.77 228.85,-345.44 239.43,-348.23"/>
<polygon fill="#63b8ff" stroke="#63b8ff" points="175.53,-195.89 165.52,-192.39 171.16,-201.36 175.53,-195.89"/>
</a>
</g>
</g>
<!-- Node4 -->
<g id="Node000004" class="node">
<title>Node4</title>
<g id="a_Node000004"><a xlink:href="d2/d5b/class_cast_additional_spell.html" target="_top" xlink:title=" ">
<polygon fill="white" stroke="#666666" points="331.5,-324 230,-324 230,-304 331.5,-304 331.5,-324"/>
<text text-anchor="middle" x="280.75" y="-310.5" font-family="Helvetica,sans-Serif" font-size="10.00">CastAdditionalSpell</text>
</a>
</g>
</g>
<!-- Node2&#45;&gt;Node4 -->
<g id="edge70_Node000002_Node000004" class="edge">
<title>Node2&#45;&gt;Node4</title>
<g id="a_edge70_Node000002_Node000004"><a xlink:title=" ">
<path fill="none" stroke="#63b8ff" d="M172.7,-198.17C173.32,-198.76 173.93,-199.37 174.5,-200 204.98,-233.31 177.1,-264.62 210.5,-295 215.94,-299.95 222.55,-303.63 229.51,-306.36"/>
<polygon fill="#63b8ff" stroke="#63b8ff" points="174.99,-195.51 164.87,-192.37 170.82,-201.13 174.99,-195.51"/>
</a>
</g>
</g>
<!-- Node5 -->
<g id="Node000005" class="node">
<title>Node5</title>
<g id="a_Node000005"><a xlink:href="d8/d35/class_extra_armor_of_all_types.html" target="_top" xlink:title=" ">
<polygon fill="white" stroke="#666666" points="337.5,-286 224,-286 224,-266 337.5,-266 337.5,-286"/>
<text text-anchor="middle" x="280.75" y="-272.5" font-family="Helvetica,sans-Serif" font-size="10.00">ExtraArmorOfAllTypes</text>
</a>
</g>
</g>
<!-- Node2&#45;&gt;Node5 -->
<g id="edge71_Node000002_Node000005" class="edge">
<title>Node2&#45;&gt;Node5</title>
<g id="a_edge71_Node000002_Node000005"><a xlink:title=" ">
<path fill="none" stroke="#63b8ff" d="M171.21,-197.3C172.35,-198.16 173.45,-199.06 174.5,-200 196.84,-219.96 186.42,-239.16 210.5,-257 215.11,-260.41 220.3,-263.21 225.71,-265.51"/>
<polygon fill="#63b8ff" stroke="#63b8ff" points="173.46,-194.58 163.14,-192.17 169.7,-200.49 173.46,-194.58"/>
</a>
</g>
</g>
<!-- Node6 -->
<g id="Node000006" class="node">
<title>Node6</title>
<g id="a_Node000006"><a xlink:href="df/deb/class_extra_armor_of_type.html" target="_top" xlink:title=" ">
<polygon fill="white" stroke="#666666" points="329.25,-248 232.25,-248 232.25,-228 329.25,-228 329.25,-248"/>
<text text-anchor="middle" x="280.75" y="-234.5" font-family="Helvetica,sans-Serif" font-size="10.00">ExtraArmorOfType</text>
</a>
</g>
</g>
<!-- Node2&#45;&gt;Node6 -->
<g id="edge72_Node000002_Node000006" class="edge">
<title>Node2&#45;&gt;Node6</title>
<g id="a_edge72_Node000002_Node000006"><a xlink:title=" ">
<path fill="none" stroke="#63b8ff" d="M167.12,-196.31C169.62,-197.55 172.11,-198.79 174.5,-200 190.64,-208.16 193.68,-212.34 210.5,-219 218.61,-222.21 227.47,-225.09 236.05,-227.57"/>
<polygon fill="#63b8ff" stroke="#63b8ff" points="168.79,-193.23 158.27,-191.98 165.72,-199.52 168.79,-193.23"/>
</a>
</g>
</g>
<!-- Node7 -->
<g id="Node000007" class="node">
<title>Node7</title>
<g id="a_Node000007"><a xlink:href="d9/d41/class_flat_damage_for_one_type.html" target="_top" xlink:title=" ">
<polygon fill="white" stroke="#666666" points="342,-210 219.5,-210 219.5,-190 342,-190 342,-210"/>
<text text-anchor="middle" x="280.75" y="-196.5" font-family="Helvetica,sans-Serif" font-size="10.00">FlatDamageForOneType</text>
</a>
</g>
</g>
<!-- Node2&#45;&gt;Node7 -->
<g id="edge73_Node000002_Node000007" class="edge">
<title>Node2&#45;&gt;Node7</title>
<g id="a_edge73_Node000002_Node000007"><a xlink:title=" ">
<path fill="none" stroke="#63b8ff" d="M186.03,-187.68C196.73,-189.08 208.13,-190.58 219.15,-192.03"/>
<polygon fill="#63b8ff" stroke="#63b8ff" points="186.61,-184.22 176.24,-186.39 185.69,-191.16 186.61,-184.22"/>
</a>
</g>
</g>
<!-- Node8 -->
<g id="Node000008" class="node">
<title>Node8</title>
<g id="a_Node000008"><a xlink:href="d4/d8f/class_flat_damage_for_spell_slot.html" target="_top" xlink:title=" ">
<polygon fill="white" stroke="#666666" points="342,-172 219.5,-172 219.5,-152 342,-152 342,-172"/>
<text text-anchor="middle" x="280.75" y="-158.5" font-family="Helvetica,sans-Serif" font-size="10.00">FlatDamageForSpellSlot</text>
</a>
</g>
</g>
<!-- Node2&#45;&gt;Node8 -->
<g id="edge74_Node000002_Node000008" class="edge">
<title>Node2&#45;&gt;Node8</title>
<g id="a_edge74_Node000002_Node000008"><a xlink:title=" ">
<path fill="none" stroke="#63b8ff" d="M186.03,-174.32C196.73,-172.92 208.13,-171.42 219.15,-169.97"/>
<polygon fill="#63b8ff" stroke="#63b8ff" points="185.69,-170.84 176.24,-175.61 186.61,-177.78 185.69,-170.84"/>
</a>
</g>
</g>
<!-- Node9 -->
<g id="Node000009" class="node">
<title>Node9</title>
<g id="a_Node000009"><a xlink:href="d1/d2e/class_h_p_increase_augment_effect.html" target="_top" xlink:title=" ">
<polygon fill="white" stroke="#666666" points="346.88,-134 214.62,-134 214.62,-114 346.88,-114 346.88,-134"/>
<text text-anchor="middle" x="280.75" y="-120.5" font-family="Helvetica,sans-Serif" font-size="10.00">HPIncreaseAugmentEffect</text>
</a>
</g>
</g>
<!-- Node2&#45;&gt;Node9 -->
<g id="edge75_Node000002_Node000009" class="edge">
<title>Node2&#45;&gt;Node9</title>
<g id="a_edge75_Node000002_Node000009"><a xlink:title=" ">
<path fill="none" stroke="#63b8ff" d="M163.25,-165.18C177.16,-157.76 194.39,-149.2 210.5,-143 218.76,-139.82 227.76,-136.94 236.47,-134.44"/>
<polygon fill="#63b8ff" stroke="#63b8ff" points="161.77,-162 154.67,-169.85 165.12,-168.14 161.77,-162"/>
</a>
</g>
</g>
<!-- Node10 -->
<g id="Node000010" class="node">
<title>Node10</title>
<g id="a_Node000010"><a xlink:href="d8/d16/class_on_cast_augment_effect.html" target="_top" xlink:title=" ">
<polygon fill="white" stroke="#666666" points="337.88,-96 223.62,-96 223.62,-76 337.88,-76 337.88,-96"/>
<text text-anchor="middle" x="280.75" y="-82.5" font-family="Helvetica,sans-Serif" font-size="10.00">OnCastAugmentEffect</text>
</a>
</g>
</g>
<!-- Node2&#45;&gt;Node10 -->
<g id="edge76_Node000002_Node000010" class="edge">
<title>Node2&#45;&gt;Node10</title>
<g id="a_edge76_Node000002_Node000010"><a xlink:title=" ">
<path fill="none" stroke="#63b8ff" d="M149.25,-161.99C162.99,-144.67 185.48,-119.63 210.5,-105 216.31,-101.6 222.75,-98.79 229.3,-96.47"/>
<polygon fill="#63b8ff" stroke="#63b8ff" points="146.8,-159.44 143.48,-169.51 152.35,-163.71 146.8,-159.44"/>
</a>
</g>
</g>
<!-- Node13 -->
<g id="Node000013" class="node">
<title>Node13</title>
<g id="a_Node000013"><a xlink:href="d1/d07/class_percent_damage_for_one_spell.html" target="_top" xlink:title=" ">
<polygon fill="white" stroke="#666666" points="351,-58 210.5,-58 210.5,-38 351,-38 351,-58"/>
<text text-anchor="middle" x="280.75" y="-44.5" font-family="Helvetica,sans-Serif" font-size="10.00">PercentDamageForOneSpell</text>
</a>
</g>
</g>
<!-- Node2&#45;&gt;Node13 -->
<g id="edge79_Node000002_Node000013" class="edge">
<title>Node2&#45;&gt;Node13</title>
<g id="a_edge79_Node000002_Node000013"><a xlink:title=" ">
<path fill="none" stroke="#63b8ff" d="M143.46,-160.22C154.71,-134.47 177.37,-91.03 210.5,-67 215.24,-63.56 220.58,-60.74 226.13,-58.43"/>
<polygon fill="#63b8ff" stroke="#63b8ff" points="140.3,-158.71 139.68,-169.29 146.76,-161.4 140.3,-158.71"/>
</a>
</g>
</g>
<!-- Node14 -->
<g id="Node000014" class="node">
<title>Node14</title>
<g id="a_Node000014"><a xlink:href="d1/dd0/class_percent_damage_for_one_type.html" target="_top" xlink:title=" ">
<polygon fill="white" stroke="#666666" points="350.62,-20 210.88,-20 210.88,0 350.62,0 350.62,-20"/>
<text text-anchor="middle" x="280.75" y="-6.5" font-family="Helvetica,sans-Serif" font-size="10.00">PercentDamageForOneType</text>
</a>
</g>
</g>
<!-- Node2&#45;&gt;Node14 -->
<g id="edge80_Node000002_Node000014" class="edge">
<title>Node2&#45;&gt;Node14</title>
<g id="a_edge80_Node000002_Node000014"><a xlink:title=" ">
<path fill="none" stroke="#63b8ff" d="M139.9,-159.63C148.21,-126.6 168.8,-63.38 210.5,-29 214.64,-25.59 219.34,-22.79 224.3,-20.49"/>
<polygon fill="#63b8ff" stroke="#63b8ff" points="136.53,-158.68 137.64,-169.21 143.34,-160.28 136.53,-158.68"/>
</a>
</g>
</g>
<!-- Node11 -->
<g id="Node000011" class="node">
<title>Node11</title>
<g id="a_Node000011"><a xlink:href="d0/d68/class_increase_duration_of_spell.html" target="_top" xlink:title=" ">
<polygon fill="white" stroke="#666666" points="509.5,-115 387,-115 387,-95 509.5,-95 509.5,-115"/>
<text text-anchor="middle" x="448.25" y="-101.5" font-family="Helvetica,sans-Serif" font-size="10.00">IncreaseDurationOfSpell</text>
</a>
</g>
</g>
<!-- Node10&#45;&gt;Node11 -->
<g id="edge77_Node000010_Node000011" class="edge">
<title>Node10&#45;&gt;Node11</title>
<g id="a_edge77_Node000010_Node000011"><a xlink:title=" ">
<path fill="none" stroke="#63b8ff" d="M349.44,-93.77C361.8,-95.19 374.63,-96.66 386.77,-98.06"/>
<polygon fill="#63b8ff" stroke="#63b8ff" points="350.08,-90.32 339.75,-92.66 349.28,-97.28 350.08,-90.32"/>
</a>
</g>
</g>
<!-- Node12 -->
<g id="Node000012" class="node">
<title>Node12</title>
<g id="a_Node000012"><a xlink:href="d5/d92/class_increased_radius_of_spell.html" target="_top" xlink:title=" ">
<polygon fill="white" stroke="#666666" points="509.12,-77 387.38,-77 387.38,-57 509.12,-57 509.12,-77"/>
<text text-anchor="middle" x="448.25" y="-63.5" font-family="Helvetica,sans-Serif" font-size="10.00">IncreasedRadiusOfSpell</text>
</a>
</g>
</g>
<!-- Node10&#45;&gt;Node12 -->
<g id="edge78_Node000010_Node000012" class="edge">
<title>Node10&#45;&gt;Node12</title>
<g id="a_edge78_Node000010_Node000012"><a xlink:title=" ">
<path fill="none" stroke="#63b8ff" d="M349.5,-78.22C361.94,-76.79 374.85,-75.31 387.05,-73.91"/>
<polygon fill="#63b8ff" stroke="#63b8ff" points="349.28,-74.72 339.75,-79.34 350.08,-81.68 349.28,-74.72"/>
</a>
</g>
</g>
</g>
</svg>
