<?xml version="1.0" encoding="UTF-8" standalone="no"?>
<!DOCTYPE svg PUBLIC "-//W3C//DTD SVG 1.1//EN"
 "http://www.w3.org/Graphics/SVG/1.1/DTD/svg11.dtd">
<!-- Generated by graphviz version 12.1.0 (20240811.2233)
 -->
<!-- Title: Graphical Class Hierarchy Pages: 1 -->
<svg width="362pt" height="902pt"
 viewBox="0.00 0.00 362.00 902.00" xmlns="http://www.w3.org/2000/svg" xmlns:xlink="http://www.w3.org/1999/xlink">
<g id="graph0" class="graph" transform="scale(1 1) rotate(0) translate(4 898)">
<title>Graphical Class Hierarchy</title>
<!-- Node0 -->
<g id="Node000000" class="node">
<title>Node0</title>
<g id="a_Node000000"><a xlink:href="dc/d8f/class_node.html" target="_top" xlink:title=" ">
<polygon fill="white" stroke="#666666" points="39.25,-533 0,-533 0,-513 39.25,-513 39.25,-533"/>
<text text-anchor="middle" x="19.62" y="-519.5" font-family="Helvetica,sans-Serif" font-size="10.00">Node</text>
</a>
</g>
</g>
<!-- Node1 -->
<g id="Node000001" class="node">
<title>Node1</title>
<g id="a_Node000001"><a xlink:href="d0/db4/class_augment_manager.html" target="_top" xlink:title=" ">
<polygon fill="white" stroke="#666666" points="183.12,-742 90.62,-742 90.62,-722 183.12,-722 183.12,-742"/>
<text text-anchor="middle" x="136.88" y="-728.5" font-family="Helvetica,sans-Serif" font-size="10.00">AugmentManager</text>
</a>
</g>
</g>
<!-- Node0&#45;&gt;Node1 -->
<g id="edge26_Node000000_Node000001" class="edge">
<title>Node0&#45;&gt;Node1</title>
<g id="a_edge26_Node000000_Node000001"><a xlink:title=" ">
<path fill="none" stroke="#63b8ff" d="M20.55,-544.78C21.63,-583.88 29.58,-666.23 75.25,-713 79.49,-717.34 84.7,-720.69 90.28,-723.28"/>
<polygon fill="#63b8ff" stroke="#63b8ff" points="24.05,-544.76 20.43,-534.81 17.05,-544.85 24.05,-544.76"/>
</a>
</g>
</g>
<!-- Node2 -->
<g id="Node000002" class="node">
<title>Node2</title>
<g id="a_Node000002"><a xlink:href="d9/dc5/class_base_menu.html" target="_top" xlink:title=" ">
<polygon fill="white" stroke="#666666" points="168.12,-704 105.62,-704 105.62,-684 168.12,-684 168.12,-704"/>
<text text-anchor="middle" x="136.88" y="-690.5" font-family="Helvetica,sans-Serif" font-size="10.00">BaseMenu</text>
</a>
</g>
</g>
<!-- Node0&#45;&gt;Node2 -->
<g id="edge27_Node000000_Node000002" class="edge">
<title>Node0&#45;&gt;Node2</title>
<g id="a_edge27_Node000000_Node000002"><a xlink:title=" ">
<path fill="none" stroke="#63b8ff" d="M22.4,-544.5C26.25,-577.24 38.28,-639.52 75.25,-675 83.37,-682.79 94.64,-687.39 105.27,-690.1"/>
<polygon fill="#63b8ff" stroke="#63b8ff" points="25.89,-544.26 21.41,-534.66 18.93,-544.96 25.89,-544.26"/>
</a>
</g>
</g>
<!-- Node12 -->
<g id="Node000012" class="node">
<title>Node12</title>
<g id="a_Node000012"><a xlink:href="de/d2d/class_curse_handler.html" target="_top" xlink:title=" ">
<polygon fill="white" stroke="#666666" points="174.88,-666 98.88,-666 98.88,-646 174.88,-646 174.88,-666"/>
<text text-anchor="middle" x="136.88" y="-652.5" font-family="Helvetica,sans-Serif" font-size="10.00">CurseHandler</text>
</a>
</g>
</g>
<!-- Node0&#45;&gt;Node12 -->
<g id="edge37_Node000000_Node000012" class="edge">
<title>Node0&#45;&gt;Node12</title>
<g id="a_edge37_Node000000_Node000012"><a xlink:title=" ">
<path fill="none" stroke="#63b8ff" d="M25.31,-544.22C32.04,-569.81 46.88,-612.43 75.25,-637 81.84,-642.71 90.13,-646.7 98.45,-649.49"/>
<polygon fill="#63b8ff" stroke="#63b8ff" points="28.75,-543.55 22.99,-534.66 21.94,-545.2 28.75,-543.55"/>
</a>
</g>
</g>
<!-- Node13 -->
<g id="Node000013" class="node">
<title>Node13</title>
<g id="a_Node000013"><a xlink:href="d4/d1d/class_dungeon_handler.html" target="_top" xlink:title="Manages the dungeon layout, room transitions, and player movement between rooms.">
<polygon fill="white" stroke="#666666" points="181.25,-628 92.5,-628 92.5,-608 181.25,-608 181.25,-628"/>
<text text-anchor="middle" x="136.88" y="-614.5" font-family="Helvetica,sans-Serif" font-size="10.00">DungeonHandler</text>
</a>
</g>
</g>
<!-- Node0&#45;&gt;Node13 -->
<g id="edge38_Node000000_Node000013" class="edge">
<title>Node0&#45;&gt;Node13</title>
<g id="a_edge38_Node000000_Node000013"><a xlink:title=" ">
<path fill="none" stroke="#63b8ff" d="M30.63,-543.64C39.94,-560.79 55.37,-584.64 75.25,-599 80.35,-602.68 86.18,-605.67 92.17,-608.08"/>
<polygon fill="#63b8ff" stroke="#63b8ff" points="33.79,-542.13 26.1,-534.84 27.57,-545.34 33.79,-542.13"/>
</a>
</g>
</g>
<!-- Node14 -->
<g id="Node000014" class="node">
<title>Node14</title>
<g id="a_Node000014"><a xlink:href="d7/d50/class_entity_type_component.html" target="_top" xlink:title=" ">
<polygon fill="white" stroke="#666666" points="193.25,-590 80.5,-590 80.5,-570 193.25,-570 193.25,-590"/>
<text text-anchor="middle" x="136.88" y="-576.5" font-family="Helvetica,sans-Serif" font-size="10.00">EntityTypeComponent</text>
</a>
</g>
</g>
<!-- Node0&#45;&gt;Node14 -->
<g id="edge39_Node000000_Node000014" class="edge">
<title>Node0&#45;&gt;Node14</title>
<g id="a_edge39_Node000000_Node000014"><a xlink:title=" ">
<path fill="none" stroke="#63b8ff" d="M41.87,-540.04C51.62,-547.25 63.58,-555.28 75.25,-561 81.89,-564.25 89.2,-567.1 96.38,-569.54"/>
<polygon fill="#63b8ff" stroke="#63b8ff" points="44.23,-537.44 34.16,-534.15 39.98,-543 44.23,-537.44"/>
</a>
</g>
</g>
<!-- Node15 -->
<g id="Node000015" class="node">
<title>Node15</title>
<g id="a_Node000015"><a xlink:href="d0/d1e/class_inventory_spell.html" target="_top" xlink:title=" ">
<polygon fill="white" stroke="#666666" points="176,-552 97.75,-552 97.75,-532 176,-532 176,-552"/>
<text text-anchor="middle" x="136.88" y="-538.5" font-family="Helvetica,sans-Serif" font-size="10.00">InventorySpell</text>
</a>
</g>
</g>
<!-- Node0&#45;&gt;Node15 -->
<g id="edge40_Node000000_Node000015" class="edge">
<title>Node0&#45;&gt;Node15</title>
<g id="a_edge40_Node000000_Node000015"><a xlink:title=" ">
<path fill="none" stroke="#63b8ff" d="M50.89,-527.99C65.21,-530.35 82.47,-533.2 97.68,-535.7"/>
<polygon fill="#63b8ff" stroke="#63b8ff" points="51.59,-524.56 41.15,-526.38 50.45,-531.46 51.59,-524.56"/>
</a>
</g>
</g>
<!-- Node17 -->
<g id="Node000017" class="node">
<title>Node17</title>
<g id="a_Node000017"><a xlink:href="d9/db2/class_menu_manager.html" target="_top" xlink:title=" ">
<polygon fill="white" stroke="#666666" points="175.62,-514 98.12,-514 98.12,-494 175.62,-494 175.62,-514"/>
<text text-anchor="middle" x="136.88" y="-500.5" font-family="Helvetica,sans-Serif" font-size="10.00">MenuManager</text>
</a>
</g>
</g>
<!-- Node0&#45;&gt;Node17 -->
<g id="edge42_Node000000_Node000017" class="edge">
<title>Node0&#45;&gt;Node17</title>
<g id="a_edge42_Node000000_Node000017"><a xlink:title=" ">
<path fill="none" stroke="#63b8ff" d="M50.89,-518.01C65.21,-515.65 82.47,-512.8 97.68,-510.3"/>
<polygon fill="#63b8ff" stroke="#63b8ff" points="50.45,-514.54 41.15,-519.62 51.59,-521.44 50.45,-514.54"/>
</a>
</g>
</g>
<!-- Node18 -->
<g id="Node000018" class="node">
<title>Node18</title>
<g id="a_Node000018"><a xlink:href="dc/d39/class_progress_manager.html" target="_top" xlink:title=" ">
<polygon fill="white" stroke="#666666" points="183.12,-476 90.62,-476 90.62,-456 183.12,-456 183.12,-476"/>
<text text-anchor="middle" x="136.88" y="-462.5" font-family="Helvetica,sans-Serif" font-size="10.00">ProgressManager</text>
</a>
</g>
</g>
<!-- Node0&#45;&gt;Node18 -->
<g id="edge43_Node000000_Node000018" class="edge">
<title>Node0&#45;&gt;Node18</title>
<g id="a_edge43_Node000000_Node000018"><a xlink:title=" ">
<path fill="none" stroke="#63b8ff" d="M41.87,-505.96C51.62,-498.75 63.58,-490.72 75.25,-485 81.89,-481.75 89.2,-478.9 96.38,-476.46"/>
<polygon fill="#63b8ff" stroke="#63b8ff" points="39.98,-503 34.16,-511.85 44.23,-508.56 39.98,-503"/>
</a>
</g>
</g>
<!-- Node19 -->
<g id="Node000019" class="node">
<title>Node19</title>
<g id="a_Node000019"><a xlink:href="d5/dc9/class_room_handler.html" target="_top" xlink:title=" ">
<polygon fill="white" stroke="#666666" points="174.88,-438 98.88,-438 98.88,-418 174.88,-418 174.88,-438"/>
<text text-anchor="middle" x="136.88" y="-424.5" font-family="Helvetica,sans-Serif" font-size="10.00">RoomHandler</text>
</a>
</g>
</g>
<!-- Node0&#45;&gt;Node19 -->
<g id="edge44_Node000000_Node000019" class="edge">
<title>Node0&#45;&gt;Node19</title>
<g id="a_edge44_Node000000_Node000019"><a xlink:title=" ">
<path fill="none" stroke="#63b8ff" d="M30.63,-502.36C39.94,-485.21 55.37,-461.36 75.25,-447 82.13,-442.03 90.36,-438.33 98.5,-435.58"/>
<polygon fill="#63b8ff" stroke="#63b8ff" points="27.57,-500.66 26.1,-511.16 33.79,-503.87 27.57,-500.66"/>
</a>
</g>
</g>
<!-- Node20 -->
<g id="Node000020" class="node">
<title>Node20</title>
<g id="a_Node000020"><a xlink:href="d7/d24/class_shooting_attack_projectile_handler.html" target="_top" xlink:title=" ">
<polygon fill="white" stroke="#666666" points="198.5,-400 75.25,-400 75.25,-368 198.5,-368 198.5,-400"/>
<text text-anchor="start" x="83.25" y="-386.5" font-family="Helvetica,sans-Serif" font-size="10.00">ShootingAttackProjectile</text>
<text text-anchor="middle" x="136.88" y="-374.5" font-family="Helvetica,sans-Serif" font-size="10.00">Handler</text>
</a>
</g>
</g>
<!-- Node0&#45;&gt;Node20 -->
<g id="edge45_Node000000_Node000020" class="edge">
<title>Node0&#45;&gt;Node20</title>
<g id="a_edge45_Node000000_Node000020"><a xlink:title=" ">
<path fill="none" stroke="#63b8ff" d="M25.78,-501.8C32.92,-476.57 48.12,-434.66 75.25,-409 78.64,-405.79 82.5,-402.97 86.59,-400.49"/>
<polygon fill="#63b8ff" stroke="#63b8ff" points="22.46,-500.67 23.29,-511.23 29.23,-502.46 22.46,-500.67"/>
</a>
</g>
</g>
<!-- Node21 -->
<g id="Node000021" class="node">
<title>Node21</title>
<g id="a_Node000021"><a xlink:href="d0/d8b/class_state.html" target="_top" xlink:title=" ">
<polygon fill="white" stroke="#666666" points="156.5,-305 117.25,-305 117.25,-285 156.5,-285 156.5,-305"/>
<text text-anchor="middle" x="136.88" y="-291.5" font-family="Helvetica,sans-Serif" font-size="10.00">State</text>
</a>
</g>
</g>
<!-- Node0&#45;&gt;Node21 -->
<g id="edge46_Node000000_Node000021" class="edge">
<title>Node0&#45;&gt;Node21</title>
<g id="a_edge46_Node000000_Node000021"><a xlink:title=" ">
<path fill="none" stroke="#63b8ff" d="M24.66,-501.48C31.43,-468.88 47.19,-405.81 75.25,-359 88.31,-337.21 109.92,-316.77 123.51,-305.09"/>
<polygon fill="#63b8ff" stroke="#63b8ff" points="21.23,-500.77 22.72,-511.26 28.1,-502.13 21.23,-500.77"/>
</a>
</g>
</g>
<!-- Node36 -->
<g id="Node000036" class="node">
<title>Node36</title>
<g id="a_Node000036"><a xlink:href="d4/dd0/class_state_machine.html" target="_top" xlink:title=" ">
<polygon fill="white" stroke="#666666" points="174.88,-267 98.88,-267 98.88,-247 174.88,-247 174.88,-267"/>
<text text-anchor="middle" x="136.88" y="-253.5" font-family="Helvetica,sans-Serif" font-size="10.00">StateMachine</text>
</a>
</g>
</g>
<!-- Node0&#45;&gt;Node36 -->
<g id="edge61_Node000000_Node000036" class="edge">
<title>Node0&#45;&gt;Node36</title>
<g id="a_edge61_Node000000_Node000036"><a xlink:title=" ">
<path fill="none" stroke="#63b8ff" d="M22.64,-501.49C28.09,-447.69 44.81,-309.18 75.25,-276 81.36,-269.34 89.78,-264.99 98.4,-262.16"/>
<polygon fill="#63b8ff" stroke="#63b8ff" points="19.18,-500.9 21.69,-511.2 26.14,-501.59 19.18,-500.9"/>
</a>
</g>
</g>
<!-- Node3 -->
<g id="Node000003" class="node">
<title>Node3</title>
<g id="a_Node000003"><a xlink:href="dc/db6/class_dungeon_clear_menu.html" target="_top" xlink:title=" ">
<polygon fill="white" stroke="#666666" points="345.38,-894 243.12,-894 243.12,-874 345.38,-874 345.38,-894"/>
<text text-anchor="middle" x="294.25" y="-880.5" font-family="Helvetica,sans-Serif" font-size="10.00">DungeonClearMenu</text>
</a>
</g>
</g>
<!-- Node2&#45;&gt;Node3 -->
<g id="edge28_Node000002_Node000003" class="edge">
<title>Node2&#45;&gt;Node3</title>
<g id="a_edge28_Node000002_Node000003"><a xlink:title=" ">
<path fill="none" stroke="#63b8ff" d="M179.34,-700.68C186.51,-703.48 193.31,-707.43 198.5,-713 245.81,-763.81 187.42,-813.98 234.5,-865 237.7,-868.47 241.53,-871.3 245.69,-873.62"/>
<polygon fill="#63b8ff" stroke="#63b8ff" points="180.38,-697.34 169.79,-697.71 178.3,-704.02 180.38,-697.34"/>
</a>
</g>
</g>
<!-- Node4 -->
<g id="Node000004" class="node">
<title>Node4</title>
<g id="a_Node000004"><a xlink:href="d3/da8/class_dungeon_selection.html" target="_top" xlink:title=" ">
<polygon fill="white" stroke="#666666" points="342,-856 246.5,-856 246.5,-836 342,-836 342,-856"/>
<text text-anchor="middle" x="294.25" y="-842.5" font-family="Helvetica,sans-Serif" font-size="10.00">DungeonSelection</text>
</a>
</g>
</g>
<!-- Node2&#45;&gt;Node4 -->
<g id="edge29_Node000002_Node000004" class="edge">
<title>Node2&#45;&gt;Node4</title>
<g id="a_edge29_Node000002_Node000004"><a xlink:title=" ">
<path fill="none" stroke="#63b8ff" d="M179.23,-701.07C186.35,-703.83 193.16,-707.67 198.5,-713 236.11,-750.53 197.06,-789.3 234.5,-827 237.9,-830.42 241.92,-833.23 246.24,-835.53"/>
<polygon fill="#63b8ff" stroke="#63b8ff" points="180.37,-697.76 169.78,-698.1 178.27,-704.44 180.37,-697.76"/>
</a>
</g>
</g>
<!-- Node5 -->
<g id="Node000005" class="node">
<title>Node5</title>
<g id="a_Node000005"><a xlink:href="df/d8a/class_main_game.html" target="_top" xlink:title=" ">
<polygon fill="white" stroke="#666666" points="325.88,-818 262.62,-818 262.62,-798 325.88,-798 325.88,-818"/>
<text text-anchor="middle" x="294.25" y="-804.5" font-family="Helvetica,sans-Serif" font-size="10.00">MainGame</text>
</a>
</g>
</g>
<!-- Node2&#45;&gt;Node5 -->
<g id="edge30_Node000002_Node000005" class="edge">
<title>Node2&#45;&gt;Node5</title>
<g id="a_edge30_Node000002_Node000005"><a xlink:title=" ">
<path fill="none" stroke="#63b8ff" d="M179.33,-701.93C186.26,-704.61 192.98,-708.2 198.5,-713 226.7,-737.53 206.42,-764.34 234.5,-789 242.23,-795.79 252.43,-800.16 262.15,-802.97"/>
<polygon fill="#63b8ff" stroke="#63b8ff" points="180.43,-698.61 169.83,-698.88 178.28,-705.27 180.43,-698.61"/>
</a>
</g>
</g>
<!-- Node6 -->
<g id="Node000006" class="node">
<title>Node6</title>
<g id="a_Node000006"><a xlink:href="d0/d9f/class_main_hub.html" target="_top" xlink:title=" ">
<polygon fill="white" stroke="#666666" points="321.75,-780 266.75,-780 266.75,-760 321.75,-760 321.75,-780"/>
<text text-anchor="middle" x="294.25" y="-766.5" font-family="Helvetica,sans-Serif" font-size="10.00">MainHub</text>
</a>
</g>
</g>
<!-- Node2&#45;&gt;Node6 -->
<g id="edge31_Node000002_Node000006" class="edge">
<title>Node2&#45;&gt;Node6</title>
<g id="a_edge31_Node000002_Node000006"><a xlink:title=" ">
<path fill="none" stroke="#63b8ff" d="M179.03,-703.76C185.8,-706.24 192.54,-709.28 198.5,-713 218.23,-725.32 214.82,-738.59 234.5,-751 244.11,-757.06 255.84,-761.36 266.28,-764.32"/>
<polygon fill="#63b8ff" stroke="#63b8ff" points="180.51,-700.56 169.92,-700.8 178.34,-707.22 180.51,-700.56"/>
</a>
</g>
</g>
<!-- Node7 -->
<g id="Node000007" class="node">
<title>Node7</title>
<g id="a_Node000007"><a xlink:href="d4/d04/class_main_menu.html" target="_top" xlink:title=" ">
<polygon fill="white" stroke="#666666" points="324.75,-742 263.75,-742 263.75,-722 324.75,-722 324.75,-742"/>
<text text-anchor="middle" x="294.25" y="-728.5" font-family="Helvetica,sans-Serif" font-size="10.00">MainMenu</text>
</a>
</g>
</g>
<!-- Node2&#45;&gt;Node7 -->
<g id="edge32_Node000002_Node000007" class="edge">
<title>Node2&#45;&gt;Node7</title>
<g id="a_edge32_Node000002_Node000007"><a xlink:title=" ">
<path fill="none" stroke="#63b8ff" d="M179.43,-704.16C205.9,-710.64 239.57,-718.87 263.41,-724.7"/>
<polygon fill="#63b8ff" stroke="#63b8ff" points="180.59,-700.84 170.04,-701.87 178.92,-707.64 180.59,-700.84"/>
</a>
</g>
</g>
<!-- Node8 -->
<g id="Node000008" class="node">
<title>Node8</title>
<g id="a_Node000008"><a xlink:href="dd/d8a/class_new_game_menu.html" target="_top" xlink:title=" ">
<polygon fill="white" stroke="#666666" points="337.5,-704 251,-704 251,-684 337.5,-684 337.5,-704"/>
<text text-anchor="middle" x="294.25" y="-690.5" font-family="Helvetica,sans-Serif" font-size="10.00">NewGameMenu</text>
</a>
</g>
</g>
<!-- Node2&#45;&gt;Node8 -->
<g id="edge33_Node000002_Node000008" class="edge">
<title>Node2&#45;&gt;Node8</title>
<g id="a_edge33_Node000002_Node000008"><a xlink:title=" ">
<path fill="none" stroke="#63b8ff" d="M179.86,-694C201.78,-694 228.54,-694 250.56,-694"/>
<polygon fill="#63b8ff" stroke="#63b8ff" points="180.09,-690.5 170.09,-694 180.09,-697.5 180.09,-690.5"/>
</a>
</g>
</g>
<!-- Node9 -->
<g id="Node000009" class="node">
<title>Node9</title>
<g id="a_Node000009"><a xlink:href="d4/de5/class_pause_menu.html" target="_top" xlink:title=" ">
<polygon fill="white" stroke="#666666" points="328.12,-666 260.38,-666 260.38,-646 328.12,-646 328.12,-666"/>
<text text-anchor="middle" x="294.25" y="-652.5" font-family="Helvetica,sans-Serif" font-size="10.00">PauseMenu</text>
</a>
</g>
</g>
<!-- Node2&#45;&gt;Node9 -->
<g id="edge34_Node000002_Node000009" class="edge">
<title>Node2&#45;&gt;Node9</title>
<g id="a_edge34_Node000002_Node000009"><a xlink:title=" ">
<path fill="none" stroke="#63b8ff" d="M179.63,-683.79C204.81,-677.63 236.44,-669.89 259.93,-664.15"/>
<polygon fill="#63b8ff" stroke="#63b8ff" points="178.92,-680.36 170.04,-686.13 180.59,-687.16 178.92,-680.36"/>
</a>
</g>
</g>
<!-- Node10 -->
<g id="Node000010" class="node">
<title>Node10</title>
<g id="a_Node000010"><a xlink:href="d6/de8/class_player_death_menu.html" target="_top" xlink:title=" ">
<polygon fill="white" stroke="#666666" points="341.25,-628 247.25,-628 247.25,-608 341.25,-608 341.25,-628"/>
<text text-anchor="middle" x="294.25" y="-614.5" font-family="Helvetica,sans-Serif" font-size="10.00">PlayerDeathMenu</text>
</a>
</g>
</g>
<!-- Node2&#45;&gt;Node10 -->
<g id="edge35_Node000002_Node000010" class="edge">
<title>Node2&#45;&gt;Node10</title>
<g id="a_edge35_Node000002_Node000010"><a xlink:title=" ">
<path fill="none" stroke="#63b8ff" d="M179.03,-684.24C185.8,-681.76 192.54,-678.72 198.5,-675 218.23,-662.68 214.82,-649.41 234.5,-637 239.85,-633.63 245.85,-630.8 251.93,-628.44"/>
<polygon fill="#63b8ff" stroke="#63b8ff" points="178.34,-680.78 169.92,-687.2 180.51,-687.44 178.34,-680.78"/>
</a>
</g>
</g>
<!-- Node11 -->
<g id="Node000011" class="node">
<title>Node11</title>
<g id="a_Node000011"><a xlink:href="d4/d94/class_settings_menu.html" target="_top" xlink:title=" ">
<polygon fill="white" stroke="#666666" points="332.25,-590 256.25,-590 256.25,-570 332.25,-570 332.25,-590"/>
<text text-anchor="middle" x="294.25" y="-576.5" font-family="Helvetica,sans-Serif" font-size="10.00">SettingsMenu</text>
</a>
</g>
</g>
<!-- Node2&#45;&gt;Node11 -->
<g id="edge36_Node000002_Node000011" class="edge">
<title>Node2&#45;&gt;Node11</title>
<g id="a_edge36_Node000002_Node000011"><a xlink:title=" ">
<path fill="none" stroke="#63b8ff" d="M179.33,-686.07C186.26,-683.39 192.98,-679.8 198.5,-675 226.7,-650.47 206.42,-623.66 234.5,-599 240.62,-593.62 248.29,-589.77 256.04,-587"/>
<polygon fill="#63b8ff" stroke="#63b8ff" points="178.28,-682.73 169.83,-689.12 180.43,-689.39 178.28,-682.73"/>
</a>
</g>
</g>
<!-- Node16 -->
<g id="Node000016" class="node">
<title>Node16</title>
<g id="a_Node000016"><a xlink:href="dd/ddc/class_inventory_star_rain.html" target="_top" xlink:title=" ">
<polygon fill="white" stroke="#666666" points="341.62,-552 246.88,-552 246.88,-532 341.62,-532 341.62,-552"/>
<text text-anchor="middle" x="294.25" y="-538.5" font-family="Helvetica,sans-Serif" font-size="10.00">InventoryStarRain</text>
</a>
</g>
</g>
<!-- Node15&#45;&gt;Node16 -->
<g id="edge41_Node000015_Node000016" class="edge">
<title>Node15&#45;&gt;Node16</title>
<g id="a_edge41_Node000015_Node000016"><a xlink:title=" ">
<path fill="none" stroke="#63b8ff" d="M187.64,-542C206.48,-542 227.85,-542 246.42,-542"/>
<polygon fill="#63b8ff" stroke="#63b8ff" points="187.8,-538.5 177.8,-542 187.8,-545.5 187.8,-538.5"/>
</a>
</g>
</g>
<!-- Node22 -->
<g id="Node000022" class="node">
<title>Node22</title>
<g id="a_Node000022"><a xlink:href="d2/df1/class_player_dashing.html" target="_top" xlink:title=" ">
<polygon fill="white" stroke="#666666" points="334.12,-514 254.38,-514 254.38,-494 334.12,-494 334.12,-514"/>
<text text-anchor="middle" x="294.25" y="-500.5" font-family="Helvetica,sans-Serif" font-size="10.00">PlayerDashing</text>
</a>
</g>
</g>
<!-- Node21&#45;&gt;Node22 -->
<g id="edge47_Node000021_Node000022" class="edge">
<title>Node21&#45;&gt;Node22</title>
<g id="a_edge47_Node000021_Node000022"><a xlink:title=" ">
<path fill="none" stroke="#63b8ff" d="M159.35,-312.81C172.39,-324.67 188.4,-341.28 198.5,-359 227.35,-409.59 194.03,-443.11 234.5,-485 239.86,-490.55 246.86,-494.48 254.14,-497.27"/>
<polygon fill="#63b8ff" stroke="#63b8ff" points="161.88,-310.37 152.06,-306.41 157.26,-315.63 161.88,-310.37"/>
</a>
</g>
</g>
<!-- Node23 -->
<g id="Node000023" class="node">
<title>Node23</title>
<g id="a_Node000023"><a xlink:href="dc/d4c/class_player_death.html" target="_top" xlink:title=" ">
<polygon fill="white" stroke="#666666" points="329.25,-476 259.25,-476 259.25,-456 329.25,-456 329.25,-476"/>
<text text-anchor="middle" x="294.25" y="-462.5" font-family="Helvetica,sans-Serif" font-size="10.00">PlayerDeath</text>
</a>
</g>
</g>
<!-- Node21&#45;&gt;Node23 -->
<g id="edge48_Node000021_Node000023" class="edge">
<title>Node21&#45;&gt;Node23</title>
<g id="a_edge48_Node000021_Node000023"><a xlink:title=" ">
<path fill="none" stroke="#63b8ff" d="M158.23,-312.78C171.08,-324.82 187.3,-341.66 198.5,-359 221.42,-394.5 203.51,-418.27 234.5,-447 241.26,-453.27 250.11,-457.47 258.88,-460.28"/>
<polygon fill="#63b8ff" stroke="#63b8ff" points="160.84,-310.42 151.09,-306.27 156.13,-315.6 160.84,-310.42"/>
</a>
</g>
</g>
<!-- Node24 -->
<g id="Node000024" class="node">
<title>Node24</title>
<g id="a_Node000024"><a xlink:href="d3/d9d/class_player_idle.html" target="_top" xlink:title=" ">
<polygon fill="white" stroke="#666666" points="324,-438 264.5,-438 264.5,-418 324,-418 324,-438"/>
<text text-anchor="middle" x="294.25" y="-424.5" font-family="Helvetica,sans-Serif" font-size="10.00">PlayerIdle</text>
</a>
</g>
</g>
<!-- Node21&#45;&gt;Node24 -->
<g id="edge49_Node000021_Node000024" class="edge">
<title>Node21&#45;&gt;Node24</title>
<g id="a_edge49_Node000021_Node000024"><a xlink:title=" ">
<path fill="none" stroke="#63b8ff" d="M156.47,-313.29C168.83,-325.78 185.18,-342.9 198.5,-359 215.96,-380.1 212.37,-392.87 234.5,-409 243.16,-415.31 254.02,-419.59 264.04,-422.47"/>
<polygon fill="#63b8ff" stroke="#63b8ff" points="159.25,-311.13 149.7,-306.54 154.3,-316.08 159.25,-311.13"/>
</a>
</g>
</g>
<!-- Node25 -->
<g id="Node000025" class="node">
<title>Node25</title>
<g id="a_Node000025"><a xlink:href="dc/d24/class_player_moving.html" target="_top" xlink:title=" ">
<polygon fill="white" stroke="#666666" points="331.88,-400 256.62,-400 256.62,-380 331.88,-380 331.88,-400"/>
<text text-anchor="middle" x="294.25" y="-386.5" font-family="Helvetica,sans-Serif" font-size="10.00">PlayerMoving</text>
</a>
</g>
</g>
<!-- Node21&#45;&gt;Node25 -->
<g id="edge50_Node000021_Node000025" class="edge">
<title>Node21&#45;&gt;Node25</title>
<g id="a_edge50_Node000021_Node000025"><a xlink:title=" ">
<path fill="none" stroke="#63b8ff" d="M156.64,-313.1C175.13,-330.1 204.85,-355.2 234.5,-371 241.31,-374.63 248.94,-377.72 256.38,-380.29"/>
<polygon fill="#63b8ff" stroke="#63b8ff" points="159.08,-310.59 149.39,-306.31 154.29,-315.7 159.08,-310.59"/>
</a>
</g>
</g>
<!-- Node26 -->
<g id="Node000026" class="node">
<title>Node26</title>
<g id="a_Node000026"><a xlink:href="d4/d55/class_player_spell_casting.html" target="_top" xlink:title=" ">
<polygon fill="white" stroke="#666666" points="343.88,-362 244.62,-362 244.62,-342 343.88,-342 343.88,-362"/>
<text text-anchor="middle" x="294.25" y="-348.5" font-family="Helvetica,sans-Serif" font-size="10.00">PlayerSpellCasting</text>
</a>
</g>
</g>
<!-- Node21&#45;&gt;Node26 -->
<g id="edge51_Node000021_Node000026" class="edge">
<title>Node21&#45;&gt;Node26</title>
<g id="a_edge51_Node000021_Node000026"><a xlink:title=" ">
<path fill="none" stroke="#63b8ff" d="M167.41,-307.16C186.45,-314.87 211.8,-324.87 234.5,-333 242.57,-335.89 251.34,-338.83 259.57,-341.5"/>
<polygon fill="#63b8ff" stroke="#63b8ff" points="168.98,-304.02 158.39,-303.49 166.34,-310.51 168.98,-304.02"/>
</a>
</g>
</g>
<!-- Node27 -->
<g id="Node000027" class="node">
<title>Node27</title>
<g id="a_Node000027"><a xlink:href="dc/d44/class_slime_attacking.html" target="_top" xlink:title=" ">
<polygon fill="white" stroke="#666666" points="335.25,-324 253.25,-324 253.25,-304 335.25,-304 335.25,-324"/>
<text text-anchor="middle" x="294.25" y="-310.5" font-family="Helvetica,sans-Serif" font-size="10.00">SlimeAttacking</text>
</a>
</g>
</g>
<!-- Node21&#45;&gt;Node27 -->
<g id="edge52_Node000021_Node000027" class="edge">
<title>Node21&#45;&gt;Node27</title>
<g id="a_edge52_Node000021_Node000027"><a xlink:title=" ">
<path fill="none" stroke="#63b8ff" d="M168.23,-298.71C192.37,-301.66 226.35,-305.82 252.79,-309.05"/>
<polygon fill="#63b8ff" stroke="#63b8ff" points="168.78,-295.25 158.43,-297.51 167.93,-302.2 168.78,-295.25"/>
</a>
</g>
</g>
<!-- Node28 -->
<g id="Node000028" class="node">
<title>Node28</title>
<g id="a_Node000028"><a xlink:href="db/d1c/class_slime_death.html" target="_top" xlink:title=" ">
<polygon fill="white" stroke="#666666" points="327.75,-286 260.75,-286 260.75,-266 327.75,-266 327.75,-286"/>
<text text-anchor="middle" x="294.25" y="-272.5" font-family="Helvetica,sans-Serif" font-size="10.00">SlimeDeath</text>
</a>
</g>
</g>
<!-- Node21&#45;&gt;Node28 -->
<g id="edge53_Node000021_Node000028" class="edge">
<title>Node21&#45;&gt;Node28</title>
<g id="a_edge53_Node000021_Node000028"><a xlink:title=" ">
<path fill="none" stroke="#63b8ff" d="M168.2,-291.29C194.74,-288.05 233.22,-283.34 260.47,-280.01"/>
<polygon fill="#63b8ff" stroke="#63b8ff" points="167.93,-287.8 158.43,-292.49 168.78,-294.75 167.93,-287.8"/>
</a>
</g>
</g>
<!-- Node29 -->
<g id="Node000029" class="node">
<title>Node29</title>
<g id="a_Node000029"><a xlink:href="d2/d94/class_slime_idle.html" target="_top" xlink:title=" ">
<polygon fill="white" stroke="#666666" points="322.5,-248 266,-248 266,-228 322.5,-228 322.5,-248"/>
<text text-anchor="middle" x="294.25" y="-234.5" font-family="Helvetica,sans-Serif" font-size="10.00">SlimeIdle</text>
</a>
</g>
</g>
<!-- Node21&#45;&gt;Node29 -->
<g id="edge54_Node000021_Node000029" class="edge">
<title>Node21&#45;&gt;Node29</title>
<g id="a_edge54_Node000021_Node000029"><a xlink:title=" ">
<path fill="none" stroke="#63b8ff" d="M167.77,-286.81C177.68,-283.79 188.69,-280.08 198.5,-276 215.2,-269.04 217.83,-264.03 234.5,-257 244.48,-252.79 255.72,-248.95 265.69,-245.83"/>
<polygon fill="#63b8ff" stroke="#63b8ff" points="166.83,-283.44 158.21,-289.61 168.79,-290.16 166.83,-283.44"/>
</a>
</g>
</g>
<!-- Node30 -->
<g id="Node000030" class="node">
<title>Node30</title>
<g id="a_Node000030"><a xlink:href="d9/dfb/class_slime_moving.html" target="_top" xlink:title=" ">
<polygon fill="white" stroke="#666666" points="330.38,-210 258.12,-210 258.12,-190 330.38,-190 330.38,-210"/>
<text text-anchor="middle" x="294.25" y="-196.5" font-family="Helvetica,sans-Serif" font-size="10.00">SlimeMoving</text>
</a>
</g>
</g>
<!-- Node21&#45;&gt;Node30 -->
<g id="edge55_Node000021_Node000030" class="edge">
<title>Node21&#45;&gt;Node30</title>
<g id="a_edge55_Node000021_Node000030"><a xlink:title=" ">
<path fill="none" stroke="#63b8ff" d="M168.15,-289.95C178.53,-287.12 189.73,-282.74 198.5,-276 222.25,-257.73 210.83,-237.37 234.5,-219 241.27,-213.74 249.55,-209.91 257.73,-207.14"/>
<polygon fill="#63b8ff" stroke="#63b8ff" points="167.39,-286.53 158.43,-292.19 168.96,-293.35 167.39,-286.53"/>
</a>
</g>
</g>
<!-- Node31 -->
<g id="Node000031" class="node">
<title>Node31</title>
<g id="a_Node000031"><a xlink:href="d2/da1/class_unicorn_charge_attack.html" target="_top" xlink:title=" ">
<polygon fill="white" stroke="#666666" points="349.12,-172 239.38,-172 239.38,-152 349.12,-152 349.12,-172"/>
<text text-anchor="middle" x="294.25" y="-158.5" font-family="Helvetica,sans-Serif" font-size="10.00">UnicornChargeAttack</text>
</a>
</g>
</g>
<!-- Node21&#45;&gt;Node31 -->
<g id="edge56_Node000021_Node000031" class="edge">
<title>Node21&#45;&gt;Node31</title>
<g id="a_edge56_Node000021_Node000031"><a xlink:title=" ">
<path fill="none" stroke="#63b8ff" d="M167.93,-291.15C178.69,-288.44 190.19,-283.84 198.5,-276 231.35,-245.02 201.79,-212.13 234.5,-181 238.15,-177.53 242.44,-174.69 247.01,-172.37"/>
<polygon fill="#63b8ff" stroke="#63b8ff" points="167.33,-287.7 158.22,-293.1 168.71,-294.56 167.33,-287.7"/>
</a>
</g>
</g>
<!-- Node32 -->
<g id="Node000032" class="node">
<title>Node32</title>
<g id="a_Node000032"><a xlink:href="d0/d8c/class_unicorn_death.html" target="_top" xlink:title=" ">
<polygon fill="white" stroke="#666666" points="332.25,-134 256.25,-134 256.25,-114 332.25,-114 332.25,-134"/>
<text text-anchor="middle" x="294.25" y="-120.5" font-family="Helvetica,sans-Serif" font-size="10.00">UnicornDeath</text>
</a>
</g>
</g>
<!-- Node21&#45;&gt;Node32 -->
<g id="edge57_Node000021_Node000032" class="edge">
<title>Node21&#45;&gt;Node32</title>
<g id="a_edge57_Node000021_Node000032"><a xlink:title=" ">
<path fill="none" stroke="#63b8ff" d="M167.77,-291.71C178.75,-289.08 190.44,-284.38 198.5,-276 240.94,-231.85 192.26,-187.34 234.5,-143 240.27,-136.95 247.97,-132.82 255.9,-130"/>
<polygon fill="#63b8ff" stroke="#63b8ff" points="167.45,-288.21 158.26,-293.49 168.74,-295.09 167.45,-288.21"/>
</a>
</g>
</g>
<!-- Node33 -->
<g id="Node000033" class="node">
<title>Node33</title>
<g id="a_Node000033"><a xlink:href="d2/df5/class_unicorn_shooting_attack.html" target="_top" xlink:title=" ">
<polygon fill="white" stroke="#666666" points="352.5,-96 236,-96 236,-76 352.5,-76 352.5,-96"/>
<text text-anchor="middle" x="294.25" y="-82.5" font-family="Helvetica,sans-Serif" font-size="10.00">UnicornShootingAttack</text>
</a>
</g>
</g>
<!-- Node21&#45;&gt;Node33 -->
<g id="edge58_Node000021_Node000033" class="edge">
<title>Node21&#45;&gt;Node33</title>
<g id="a_edge58_Node000021_Node000033"><a xlink:title=" ">
<path fill="none" stroke="#63b8ff" d="M168.02,-291.94C179.03,-289.35 190.68,-284.61 198.5,-276 250.71,-218.5 182.55,-162.73 234.5,-105 237.58,-101.57 241.29,-98.76 245.32,-96.46"/>
<polygon fill="#63b8ff" stroke="#63b8ff" points="167.67,-288.45 158.46,-293.68 168.92,-295.34 167.67,-288.45"/>
</a>
</g>
</g>
<!-- Node34 -->
<g id="Node000034" class="node">
<title>Node34</title>
<g id="a_Node000034"><a xlink:href="d1/d6c/class_unicorn_stomping_attack.html" target="_top" xlink:title=" ">
<polygon fill="white" stroke="#666666" points="354,-58 234.5,-58 234.5,-38 354,-38 354,-58"/>
<text text-anchor="middle" x="294.25" y="-44.5" font-family="Helvetica,sans-Serif" font-size="10.00">UnicornStompingAttack</text>
</a>
</g>
</g>
<!-- Node21&#45;&gt;Node34 -->
<g id="edge59_Node000021_Node000034" class="edge">
<title>Node21&#45;&gt;Node34</title>
<g id="a_edge59_Node000021_Node000034"><a xlink:title=" ">
<path fill="none" stroke="#63b8ff" d="M167.95,-292.15C179.05,-289.58 190.79,-284.81 198.5,-276 260.57,-205.06 172.75,-138.22 234.5,-67 237.52,-63.52 241.18,-60.67 245.19,-58.34"/>
<polygon fill="#63b8ff" stroke="#63b8ff" points="167.55,-288.66 158.3,-293.84 168.76,-295.56 167.55,-288.66"/>
</a>
</g>
</g>
<!-- Node35 -->
<g id="Node000035" class="node">
<title>Node35</title>
<g id="a_Node000035"><a xlink:href="dd/d3c/class_unicorn_wait.html" target="_top" xlink:title=" ">
<polygon fill="white" stroke="#666666" points="328.88,-20 259.62,-20 259.62,0 328.88,0 328.88,-20"/>
<text text-anchor="middle" x="294.25" y="-6.5" font-family="Helvetica,sans-Serif" font-size="10.00">UnicornWait</text>
</a>
</g>
</g>
<!-- Node21&#45;&gt;Node35 -->
<g id="edge60_Node000021_Node000035" class="edge">
<title>Node21&#45;&gt;Node35</title>
<g id="a_edge60_Node000021_Node000035"><a xlink:title=" ">
<path fill="none" stroke="#63b8ff" d="M168.07,-292.25C179.19,-289.7 190.91,-284.91 198.5,-276 270.47,-191.57 162.92,-113.75 234.5,-29 240.79,-21.55 250.04,-16.99 259.34,-14.22"/>
<polygon fill="#63b8ff" stroke="#63b8ff" points="167.65,-288.77 158.39,-293.92 168.84,-295.67 167.65,-288.77"/>
</a>
</g>
</g>
</g>
</svg>
