<?xml version="1.0" encoding="UTF-8" standalone="no"?>
<!DOCTYPE svg PUBLIC "-//W3C//DTD SVG 1.1//EN"
 "http://www.w3.org/Graphics/SVG/1.1/DTD/svg11.dtd">
<!-- Generated by graphviz version 12.1.0 (20240811.2233)
 -->
<!-- Title: Graphical Class Hierarchy Pages: 1 -->
<svg width="213pt" height="66pt"
 viewBox="0.00 0.00 213.25 66.00" xmlns="http://www.w3.org/2000/svg" xmlns:xlink="http://www.w3.org/1999/xlink">
<g id="graph0" class="graph" transform="scale(1 1) rotate(0) translate(4 62)">
<title>Graphical Class Hierarchy</title>
<!-- Node0 -->
<g id="Node000000" class="node">
<title>Node0</title>
<g id="a_Node000000"><a xlink:href="d4/dc3/class_canvas_layer.html" target="_top" xlink:title=" ">
<polygon fill="white" stroke="#666666" points="73.75,-39 0,-39 0,-19 73.75,-19 73.75,-39"/>
<text text-anchor="middle" x="36.88" y="-25.5" font-family="Helvetica,sans-Serif" font-size="10.00">CanvasLayer</text>
</a>
</g>
</g>
<!-- Node1 -->
<g id="Node000001" class="node">
<title>Node1</title>
<g id="a_Node000001"><a xlink:href="df/d7a/class_augment_inventory.html" target="_top" xlink:title=" ">
<polygon fill="white" stroke="#666666" points="205.25,-58 109.75,-58 109.75,-38 205.25,-38 205.25,-58"/>
<text text-anchor="middle" x="157.5" y="-44.5" font-family="Helvetica,sans-Serif" font-size="10.00">AugmentInventory</text>
</a>
</g>
</g>
<!-- Node0&#45;&gt;Node1 -->
<g id="edge17_Node000000_Node000001" class="edge">
<title>Node0&#45;&gt;Node1</title>
<g id="a_edge17_Node000000_Node000001"><a xlink:title=" ">
<path fill="none" stroke="#63b8ff" d="M85.46,-36.62C93.39,-37.89 101.62,-39.21 109.54,-40.48"/>
<polygon fill="#63b8ff" stroke="#63b8ff" points="86.03,-33.17 75.61,-35.04 84.93,-40.08 86.03,-33.17"/>
</a>
</g>
</g>
<!-- Node2 -->
<g id="Node000002" class="node">
<title>Node2</title>
<g id="a_Node000002"><a xlink:href="d9/dc8/class_skill_tree.html" target="_top" xlink:title=" ">
<polygon fill="white" stroke="#666666" points="184.62,-20 130.38,-20 130.38,0 184.62,0 184.62,-20"/>
<text text-anchor="middle" x="157.5" y="-6.5" font-family="Helvetica,sans-Serif" font-size="10.00">SkillTree</text>
</a>
</g>
</g>
<!-- Node0&#45;&gt;Node2 -->
<g id="edge18_Node000000_Node000002" class="edge">
<title>Node0&#45;&gt;Node2</title>
<g id="a_edge18_Node000000_Node000002"><a xlink:title=" ">
<path fill="none" stroke="#63b8ff" d="M85.42,-21.39C100.57,-18.96 116.78,-16.36 129.9,-14.26"/>
<polygon fill="#63b8ff" stroke="#63b8ff" points="84.93,-17.92 75.61,-22.96 86.03,-24.83 84.93,-17.92"/>
</a>
</g>
</g>
</g>
</svg>
