<?xml version="1.0" encoding="UTF-8" standalone="no"?>
<!DOCTYPE svg PUBLIC "-//W3C//DTD SVG 1.1//EN"
 "http://www.w3.org/Graphics/SVG/1.1/DTD/svg11.dtd">
<!-- Generated by graphviz version 12.1.0 (20240811.2233)
 -->
<!-- Title: Graphical Class Hierarchy Pages: 1 -->
<svg width="188pt" height="104pt"
 viewBox="0.00 0.00 187.75 104.00" xmlns="http://www.w3.org/2000/svg" xmlns:xlink="http://www.w3.org/1999/xlink">
<g id="graph0" class="graph" transform="scale(1 1) rotate(0) translate(4 100)">
<title>Graphical Class Hierarchy</title>
<!-- Node0 -->
<g id="Node000000" class="node">
<title>Node0</title>
<g id="a_Node000000"><a xlink:title=" ">
<polygon fill="#e0e0e0" stroke="#999999" points="94,-58 0,-58 0,-38 94,-38 94,-58"/>
<text text-anchor="middle" x="47" y="-44.5" font-family="Helvetica,sans-Serif" font-size="10.00">CharacterBody2D</text>
</a>
</g>
</g>
<!-- Node1 -->
<g id="Node000001" class="node">
<title>Node1</title>
<g id="a_Node000001"><a xlink:href="d8/d53/class_player.html" target="_top" xlink:title=" ">
<polygon fill="white" stroke="#666666" points="176.75,-96 133,-96 133,-76 176.75,-76 176.75,-96"/>
<text text-anchor="middle" x="154.88" y="-82.5" font-family="Helvetica,sans-Serif" font-size="10.00">Player</text>
</a>
</g>
</g>
<!-- Node0&#45;&gt;Node1 -->
<g id="edge24_Node000000_Node000001" class="edge">
<title>Node0&#45;&gt;Node1</title>
<g id="a_edge24_Node000000_Node000001"><a xlink:title=" ">
<path fill="none" stroke="#63b8ff" d="M87.97,-62.34C103.22,-67.82 120,-73.84 132.82,-78.44"/>
<polygon fill="#63b8ff" stroke="#63b8ff" points="89.23,-59.08 78.64,-59 86.87,-65.67 89.23,-59.08"/>
</a>
</g>
</g>
<!-- Node2 -->
<g id="Node000002" class="node">
<title>Node2</title>
<g id="a_Node000002"><a xlink:href="d3/db0/class_slime.html" target="_top" xlink:title=" ">
<polygon fill="white" stroke="#666666" points="175.25,-58 134.5,-58 134.5,-38 175.25,-38 175.25,-58"/>
<text text-anchor="middle" x="154.88" y="-44.5" font-family="Helvetica,sans-Serif" font-size="10.00">Slime</text>
</a>
</g>
</g>
<!-- Node0&#45;&gt;Node2 -->
<g id="edge25_Node000000_Node000002" class="edge">
<title>Node0&#45;&gt;Node2</title>
<g id="a_edge25_Node000000_Node000002"><a xlink:title=" ">
<path fill="none" stroke="#63b8ff" d="M105.89,-48C116.01,-48 125.89,-48 134.02,-48"/>
<polygon fill="#63b8ff" stroke="#63b8ff" points="105.95,-44.5 95.95,-48 105.95,-51.5 105.95,-44.5"/>
</a>
</g>
</g>
<!-- Node3 -->
<g id="Node000003" class="node">
<title>Node3</title>
<g id="a_Node000003"><a xlink:href="dc/d53/class_unicorn.html" target="_top" xlink:title=" ">
<polygon fill="white" stroke="#666666" points="179.75,-20 130,-20 130,0 179.75,0 179.75,-20"/>
<text text-anchor="middle" x="154.88" y="-6.5" font-family="Helvetica,sans-Serif" font-size="10.00">Unicorn</text>
</a>
</g>
</g>
<!-- Node0&#45;&gt;Node3 -->
<g id="edge26_Node000000_Node000003" class="edge">
<title>Node0&#45;&gt;Node3</title>
<g id="a_edge26_Node000000_Node000003"><a xlink:title=" ">
<path fill="none" stroke="#63b8ff" d="M87.69,-33.75C101.83,-28.68 117.32,-23.12 129.76,-18.66"/>
<polygon fill="#63b8ff" stroke="#63b8ff" points="86.87,-30.33 78.64,-37 89.23,-36.92 86.87,-30.33"/>
</a>
</g>
</g>
</g>
</svg>
