<?xml version="1.0" encoding="UTF-8" standalone="no"?>
<!DOCTYPE svg PUBLIC "-//W3C//DTD SVG 1.1//EN"
 "http://www.w3.org/Graphics/SVG/1.1/DTD/svg11.dtd">
<!-- Generated by graphviz version 12.1.0 (20240811.2233)
 -->
<!-- Title: Graphical Class Hierarchy Pages: 1 -->
<svg width="376pt" height="788pt"
 viewBox="0.00 0.00 375.50 788.00" xmlns="http://www.w3.org/2000/svg" xmlns:xlink="http://www.w3.org/1999/xlink">
<g id="graph0" class="graph" transform="scale(1 1) rotate(0) translate(4 784)">
<title>Graphical Class Hierarchy</title>
<!-- Node0 -->
<g id="Node000000" class="node">
<title>Node0</title>
<g id="a_Node000000"><a xlink:href="dc/d8f/class_node.html" target="_top" xlink:title=" ">
<polygon fill="white" stroke="#666666" points="39.25,-609 0,-609 0,-589 39.25,-589 39.25,-609"/>
<text text-anchor="middle" x="19.62" y="-595.5" font-family="Helvetica,sans-Serif" font-size="10.00">Node</text>
</a>
</g>
</g>
<!-- Node1 -->
<g id="Node000001" class="node">
<title>Node1</title>
<g id="a_Node000001"><a xlink:href="d0/db4/class_augment_manager.html" target="_top" xlink:title=" ">
<polygon fill="white" stroke="#666666" points="183.12,-780 90.62,-780 90.62,-760 183.12,-760 183.12,-780"/>
<text text-anchor="middle" x="136.88" y="-766.5" font-family="Helvetica,sans-Serif" font-size="10.00">AugmentManager</text>
</a>
</g>
</g>
<!-- Node0&#45;&gt;Node1 -->
<g id="edge30_Node000000_Node000001" class="edge">
<title>Node0&#45;&gt;Node1</title>
<g id="a_edge30_Node000000_Node000001"><a xlink:title=" ">
<path fill="none" stroke="#63b8ff" d="M22.4,-620.5C26.25,-653.24 38.28,-715.52 75.25,-751 79.55,-755.12 84.73,-758.35 90.23,-760.88"/>
<polygon fill="#63b8ff" stroke="#63b8ff" points="25.89,-620.26 21.41,-610.66 18.93,-620.96 25.89,-620.26"/>
</a>
</g>
</g>
<!-- Node2 -->
<g id="Node000002" class="node">
<title>Node2</title>
<g id="a_Node000002"><a xlink:href="de/d2d/class_curse_handler.html" target="_top" xlink:title=" ">
<polygon fill="white" stroke="#666666" points="174.88,-742 98.88,-742 98.88,-722 174.88,-722 174.88,-742"/>
<text text-anchor="middle" x="136.88" y="-728.5" font-family="Helvetica,sans-Serif" font-size="10.00">CurseHandler</text>
</a>
</g>
</g>
<!-- Node0&#45;&gt;Node2 -->
<g id="edge31_Node000000_Node000002" class="edge">
<title>Node0&#45;&gt;Node2</title>
<g id="a_edge31_Node000000_Node000002"><a xlink:title=" ">
<path fill="none" stroke="#63b8ff" d="M25.31,-620.22C32.04,-645.81 46.88,-688.43 75.25,-713 81.84,-718.71 90.13,-722.7 98.45,-725.49"/>
<polygon fill="#63b8ff" stroke="#63b8ff" points="28.75,-619.55 22.99,-610.66 21.94,-621.2 28.75,-619.55"/>
</a>
</g>
</g>
<!-- Node3 -->
<g id="Node000003" class="node">
<title>Node3</title>
<g id="a_Node000003"><a xlink:href="d4/d1d/class_dungeon_handler.html" target="_top" xlink:title="Manages the dungeon layout, room transitions, and player movement between rooms.">
<polygon fill="white" stroke="#666666" points="181.25,-704 92.5,-704 92.5,-684 181.25,-684 181.25,-704"/>
<text text-anchor="middle" x="136.88" y="-690.5" font-family="Helvetica,sans-Serif" font-size="10.00">DungeonHandler</text>
</a>
</g>
</g>
<!-- Node0&#45;&gt;Node3 -->
<g id="edge32_Node000000_Node000003" class="edge">
<title>Node0&#45;&gt;Node3</title>
<g id="a_edge32_Node000000_Node000003"><a xlink:title=" ">
<path fill="none" stroke="#63b8ff" d="M30.63,-619.64C39.94,-636.79 55.37,-660.64 75.25,-675 80.35,-678.68 86.18,-681.67 92.17,-684.08"/>
<polygon fill="#63b8ff" stroke="#63b8ff" points="33.79,-618.13 26.1,-610.84 27.57,-621.34 33.79,-618.13"/>
</a>
</g>
</g>
<!-- Node4 -->
<g id="Node000004" class="node">
<title>Node4</title>
<g id="a_Node000004"><a xlink:href="d7/d50/class_entity_type_component.html" target="_top" xlink:title=" ">
<polygon fill="white" stroke="#666666" points="193.25,-666 80.5,-666 80.5,-646 193.25,-646 193.25,-666"/>
<text text-anchor="middle" x="136.88" y="-652.5" font-family="Helvetica,sans-Serif" font-size="10.00">EntityTypeComponent</text>
</a>
</g>
</g>
<!-- Node0&#45;&gt;Node4 -->
<g id="edge33_Node000000_Node000004" class="edge">
<title>Node0&#45;&gt;Node4</title>
<g id="a_edge33_Node000000_Node000004"><a xlink:title=" ">
<path fill="none" stroke="#63b8ff" d="M41.87,-616.04C51.62,-623.25 63.58,-631.28 75.25,-637 81.89,-640.25 89.2,-643.1 96.38,-645.54"/>
<polygon fill="#63b8ff" stroke="#63b8ff" points="44.23,-613.44 34.16,-610.15 39.98,-619 44.23,-613.44"/>
</a>
</g>
</g>
<!-- Node5 -->
<g id="Node000005" class="node">
<title>Node5</title>
<g id="a_Node000005"><a xlink:href="d0/d1e/class_inventory_spell.html" target="_top" xlink:title=" ">
<polygon fill="white" stroke="#666666" points="176,-628 97.75,-628 97.75,-608 176,-608 176,-628"/>
<text text-anchor="middle" x="136.88" y="-614.5" font-family="Helvetica,sans-Serif" font-size="10.00">InventorySpell</text>
</a>
</g>
</g>
<!-- Node0&#45;&gt;Node5 -->
<g id="edge34_Node000000_Node000005" class="edge">
<title>Node0&#45;&gt;Node5</title>
<g id="a_edge34_Node000000_Node000005"><a xlink:title=" ">
<path fill="none" stroke="#63b8ff" d="M50.89,-603.99C65.21,-606.35 82.47,-609.2 97.68,-611.7"/>
<polygon fill="#63b8ff" stroke="#63b8ff" points="51.59,-600.56 41.15,-602.38 50.45,-607.46 51.59,-600.56"/>
</a>
</g>
</g>
<!-- Node13 -->
<g id="Node000013" class="node">
<title>Node13</title>
<g id="a_Node000013"><a xlink:href="d9/db2/class_menu_manager.html" target="_top" xlink:title=" ">
<polygon fill="white" stroke="#666666" points="175.62,-590 98.12,-590 98.12,-570 175.62,-570 175.62,-590"/>
<text text-anchor="middle" x="136.88" y="-576.5" font-family="Helvetica,sans-Serif" font-size="10.00">MenuManager</text>
</a>
</g>
</g>
<!-- Node0&#45;&gt;Node13 -->
<g id="edge42_Node000000_Node000013" class="edge">
<title>Node0&#45;&gt;Node13</title>
<g id="a_edge42_Node000000_Node000013"><a xlink:title=" ">
<path fill="none" stroke="#63b8ff" d="M50.89,-594.01C65.21,-591.65 82.47,-588.8 97.68,-586.3"/>
<polygon fill="#63b8ff" stroke="#63b8ff" points="50.45,-590.54 41.15,-595.62 51.59,-597.44 50.45,-590.54"/>
</a>
</g>
</g>
<!-- Node14 -->
<g id="Node000014" class="node">
<title>Node14</title>
<g id="a_Node000014"><a xlink:href="d5/dc9/class_room_handler.html" target="_top" xlink:title=" ">
<polygon fill="white" stroke="#666666" points="174.88,-552 98.88,-552 98.88,-532 174.88,-532 174.88,-552"/>
<text text-anchor="middle" x="136.88" y="-538.5" font-family="Helvetica,sans-Serif" font-size="10.00">RoomHandler</text>
</a>
</g>
</g>
<!-- Node0&#45;&gt;Node14 -->
<g id="edge43_Node000000_Node000014" class="edge">
<title>Node0&#45;&gt;Node14</title>
<g id="a_edge43_Node000000_Node000014"><a xlink:title=" ">
<path fill="none" stroke="#63b8ff" d="M41.87,-581.96C51.62,-574.75 63.58,-566.72 75.25,-561 82.58,-557.41 90.74,-554.3 98.63,-551.71"/>
<polygon fill="#63b8ff" stroke="#63b8ff" points="39.98,-579 34.16,-587.85 44.23,-584.56 39.98,-579"/>
</a>
</g>
</g>
<!-- Node15 -->
<g id="Node000015" class="node">
<title>Node15</title>
<g id="a_Node000015"><a xlink:href="d7/d24/class_shooting_attack_projectile_handler.html" target="_top" xlink:title=" ">
<polygon fill="white" stroke="#666666" points="198.5,-514 75.25,-514 75.25,-482 198.5,-482 198.5,-514"/>
<text text-anchor="start" x="83.25" y="-500.5" font-family="Helvetica,sans-Serif" font-size="10.00">ShootingAttackProjectile</text>
<text text-anchor="middle" x="136.88" y="-488.5" font-family="Helvetica,sans-Serif" font-size="10.00">Handler</text>
</a>
</g>
</g>
<!-- Node0&#45;&gt;Node15 -->
<g id="edge44_Node000000_Node000015" class="edge">
<title>Node0&#45;&gt;Node15</title>
<g id="a_edge44_Node000000_Node000015"><a xlink:title=" ">
<path fill="none" stroke="#63b8ff" d="M30.96,-578.79C40.47,-561.91 56.02,-538.22 75.25,-523 79.27,-519.82 83.75,-516.99 88.4,-514.48"/>
<polygon fill="#63b8ff" stroke="#63b8ff" points="27.97,-576.95 26.31,-587.42 34.14,-580.27 27.97,-576.95"/>
</a>
</g>
</g>
<!-- Node16 -->
<g id="Node000016" class="node">
<title>Node16</title>
<g id="a_Node000016"><a xlink:href="d0/d8b/class_state.html" target="_top" xlink:title=" ">
<polygon fill="white" stroke="#666666" points="156.5,-305 117.25,-305 117.25,-285 156.5,-285 156.5,-305"/>
<text text-anchor="middle" x="136.88" y="-291.5" font-family="Helvetica,sans-Serif" font-size="10.00">State</text>
</a>
</g>
</g>
<!-- Node0&#45;&gt;Node16 -->
<g id="edge45_Node000000_Node000016" class="edge">
<title>Node0&#45;&gt;Node16</title>
<g id="a_edge45_Node000000_Node000016"><a xlink:title=" ">
<path fill="none" stroke="#63b8ff" d="M28.67,-577.79C51.37,-517.91 115.37,-349.1 131.92,-305.42"/>
<polygon fill="#63b8ff" stroke="#63b8ff" points="25.4,-576.53 25.13,-587.12 31.95,-579.01 25.4,-576.53"/>
</a>
</g>
</g>
<!-- Node31 -->
<g id="Node000031" class="node">
<title>Node31</title>
<g id="a_Node000031"><a xlink:href="d4/dd0/class_state_machine.html" target="_top" xlink:title=" ">
<polygon fill="white" stroke="#666666" points="174.88,-267 98.88,-267 98.88,-247 174.88,-247 174.88,-267"/>
<text text-anchor="middle" x="136.88" y="-253.5" font-family="Helvetica,sans-Serif" font-size="10.00">StateMachine</text>
</a>
</g>
</g>
<!-- Node0&#45;&gt;Node31 -->
<g id="edge60_Node000000_Node000031" class="edge">
<title>Node0&#45;&gt;Node31</title>
<g id="a_edge60_Node000000_Node000031"><a xlink:title=" ">
<path fill="none" stroke="#63b8ff" d="M21.4,-577.57C24.18,-512.9 35.64,-321.4 75.25,-276 81.27,-269.1 89.76,-264.68 98.48,-261.85"/>
<polygon fill="#63b8ff" stroke="#63b8ff" points="17.92,-577.08 21.02,-587.22 24.92,-577.36 17.92,-577.08"/>
</a>
</g>
</g>
<!-- Node6 -->
<g id="Node000006" class="node">
<title>Node6</title>
<g id="a_Node000006"><a xlink:href="d8/d26/class_inventory_basic_spell.html" target="_top" xlink:title=" ">
<polygon fill="white" stroke="#666666" points="352.5,-780 249.5,-780 249.5,-760 352.5,-760 352.5,-780"/>
<text text-anchor="middle" x="301" y="-766.5" font-family="Helvetica,sans-Serif" font-size="10.00">InventoryBasicSpell</text>
</a>
</g>
</g>
<!-- Node5&#45;&gt;Node6 -->
<g id="edge35_Node000005_Node000006" class="edge">
<title>Node5&#45;&gt;Node6</title>
<g id="a_edge35_Node000005_Node000006"><a xlink:title=" ">
<path fill="none" stroke="#63b8ff" d="M186.71,-628.48C191.04,-630.78 195.07,-633.58 198.5,-637 236.11,-674.53 196.49,-713.87 234.5,-751 238.74,-755.14 243.81,-758.38 249.25,-760.93"/>
<polygon fill="#63b8ff" stroke="#63b8ff" points="188.17,-625.29 177.6,-624.57 185.41,-631.73 188.17,-625.29"/>
</a>
</g>
</g>
<!-- Node7 -->
<g id="Node000007" class="node">
<title>Node7</title>
<g id="a_Node000007"><a xlink:href="d6/d81/class_inventory_black_hole.html" target="_top" xlink:title=" ">
<polygon fill="white" stroke="#666666" points="351.75,-742 250.25,-742 250.25,-722 351.75,-722 351.75,-742"/>
<text text-anchor="middle" x="301" y="-728.5" font-family="Helvetica,sans-Serif" font-size="10.00">InventoryBlackHole</text>
</a>
</g>
</g>
<!-- Node5&#45;&gt;Node7 -->
<g id="edge36_Node000005_Node000007" class="edge">
<title>Node5&#45;&gt;Node7</title>
<g id="a_edge36_Node000005_Node000007"><a xlink:title=" ">
<path fill="none" stroke="#63b8ff" d="M186.59,-629.14C190.88,-631.31 194.94,-633.9 198.5,-637 226.7,-661.53 206.04,-688.77 234.5,-713 239.01,-716.84 244.25,-719.9 249.78,-722.35"/>
<polygon fill="#63b8ff" stroke="#63b8ff" points="188.23,-626.04 177.66,-625.4 185.52,-632.49 188.23,-626.04"/>
</a>
</g>
</g>
<!-- Node8 -->
<g id="Node000008" class="node">
<title>Node8</title>
<g id="a_Node000008"><a xlink:href="de/d1d/class_inventory_dark_energy_wave.html" target="_top" xlink:title=" ">
<polygon fill="white" stroke="#666666" points="367.5,-704 234.5,-704 234.5,-684 367.5,-684 367.5,-704"/>
<text text-anchor="middle" x="301" y="-690.5" font-family="Helvetica,sans-Serif" font-size="10.00">InventoryDarkEnergyWave</text>
</a>
</g>
</g>
<!-- Node5&#45;&gt;Node8 -->
<g id="edge37_Node000005_Node000008" class="edge">
<title>Node5&#45;&gt;Node8</title>
<g id="a_edge37_Node000005_Node000008"><a xlink:title=" ">
<path fill="none" stroke="#63b8ff" d="M187.08,-631.01C191.06,-632.78 194.92,-634.77 198.5,-637 218.23,-649.32 214.63,-662.89 234.5,-675 240.06,-678.39 246.26,-681.2 252.55,-683.52"/>
<polygon fill="#63b8ff" stroke="#63b8ff" points="188.37,-627.75 177.78,-627.37 185.82,-634.27 188.37,-627.75"/>
</a>
</g>
</g>
<!-- Node9 -->
<g id="Node000009" class="node">
<title>Node9</title>
<g id="a_Node000009"><a xlink:href="d4/d32/class_inventory_moon_light.html" target="_top" xlink:title=" ">
<polygon fill="white" stroke="#666666" points="351.75,-666 250.25,-666 250.25,-646 351.75,-646 351.75,-666"/>
<text text-anchor="middle" x="301" y="-652.5" font-family="Helvetica,sans-Serif" font-size="10.00">InventoryMoonLight</text>
</a>
</g>
</g>
<!-- Node5&#45;&gt;Node9 -->
<g id="edge38_Node000005_Node000009" class="edge">
<title>Node5&#45;&gt;Node9</title>
<g id="a_edge38_Node000005_Node000009"><a xlink:title=" ">
<path fill="none" stroke="#63b8ff" d="M187.25,-629.57C208.91,-634.65 234.15,-640.57 255.25,-645.51"/>
<polygon fill="#63b8ff" stroke="#63b8ff" points="188.3,-626.23 177.77,-627.35 186.71,-633.04 188.3,-626.23"/>
</a>
</g>
</g>
<!-- Node10 -->
<g id="Node000010" class="node">
<title>Node10</title>
<g id="a_Node000010"><a xlink:href="dd/ddc/class_inventory_star_rain.html" target="_top" xlink:title=" ">
<polygon fill="white" stroke="#666666" points="348.38,-628 253.62,-628 253.62,-608 348.38,-608 348.38,-628"/>
<text text-anchor="middle" x="301" y="-614.5" font-family="Helvetica,sans-Serif" font-size="10.00">InventoryStarRain</text>
</a>
</g>
</g>
<!-- Node5&#45;&gt;Node10 -->
<g id="edge39_Node000005_Node000010" class="edge">
<title>Node5&#45;&gt;Node10</title>
<g id="a_edge39_Node000005_Node000010"><a xlink:title=" ">
<path fill="none" stroke="#63b8ff" d="M187.52,-618C208.41,-618 232.6,-618 253.18,-618"/>
<polygon fill="#63b8ff" stroke="#63b8ff" points="187.81,-614.5 177.81,-618 187.81,-621.5 187.81,-614.5"/>
</a>
</g>
</g>
<!-- Node11 -->
<g id="Node000011" class="node">
<title>Node11</title>
<g id="a_Node000011"><a xlink:href="d5/d3e/class_inventory_summon_sun.html" target="_top" xlink:title=" ">
<polygon fill="white" stroke="#666666" points="357.38,-590 244.62,-590 244.62,-570 357.38,-570 357.38,-590"/>
<text text-anchor="middle" x="301" y="-576.5" font-family="Helvetica,sans-Serif" font-size="10.00">InventorySummonSun</text>
</a>
</g>
</g>
<!-- Node5&#45;&gt;Node11 -->
<g id="edge40_Node000005_Node000011" class="edge">
<title>Node5&#45;&gt;Node11</title>
<g id="a_edge40_Node000005_Node000011"><a xlink:title=" ">
<path fill="none" stroke="#63b8ff" d="M187.25,-606.43C208.91,-601.35 234.15,-595.43 255.25,-590.49"/>
<polygon fill="#63b8ff" stroke="#63b8ff" points="186.71,-602.96 177.77,-608.65 188.3,-609.77 186.71,-602.96"/>
</a>
</g>
</g>
<!-- Node12 -->
<g id="Node000012" class="node">
<title>Node12</title>
<g id="a_Node000012"><a xlink:href="d4/d43/class_inventory_sun_beam.html" target="_top" xlink:title=" ">
<polygon fill="white" stroke="#666666" points="350.62,-552 251.38,-552 251.38,-532 350.62,-532 350.62,-552"/>
<text text-anchor="middle" x="301" y="-538.5" font-family="Helvetica,sans-Serif" font-size="10.00">InventorySunBeam</text>
</a>
</g>
</g>
<!-- Node5&#45;&gt;Node12 -->
<g id="edge41_Node000005_Node000012" class="edge">
<title>Node5&#45;&gt;Node12</title>
<g id="a_edge41_Node000005_Node000012"><a xlink:title=" ">
<path fill="none" stroke="#63b8ff" d="M187.08,-604.99C191.06,-603.22 194.92,-601.23 198.5,-599 218.23,-586.68 214.63,-573.11 234.5,-561 240.06,-557.61 246.26,-554.8 252.55,-552.48"/>
<polygon fill="#63b8ff" stroke="#63b8ff" points="185.82,-601.73 177.78,-608.63 188.37,-608.25 185.82,-601.73"/>
</a>
</g>
</g>
<!-- Node17 -->
<g id="Node000017" class="node">
<title>Node17</title>
<g id="a_Node000017"><a xlink:href="d2/df1/class_player_dashing.html" target="_top" xlink:title=" ">
<polygon fill="white" stroke="#666666" points="340.88,-514 261.12,-514 261.12,-494 340.88,-494 340.88,-514"/>
<text text-anchor="middle" x="301" y="-500.5" font-family="Helvetica,sans-Serif" font-size="10.00">PlayerDashing</text>
</a>
</g>
</g>
<!-- Node16&#45;&gt;Node17 -->
<g id="edge46_Node000016_Node000017" class="edge">
<title>Node16&#45;&gt;Node17</title>
<g id="a_edge46_Node000016_Node000017"><a xlink:title=" ">
<path fill="none" stroke="#63b8ff" d="M142.82,-316.63C152.98,-356.09 179.96,-439.87 234.5,-485 241.98,-491.19 251.39,-495.36 260.72,-498.18"/>
<polygon fill="#63b8ff" stroke="#63b8ff" points="146.23,-315.83 140.46,-306.95 139.43,-317.49 146.23,-315.83"/>
</a>
</g>
</g>
<!-- Node18 -->
<g id="Node000018" class="node">
<title>Node18</title>
<g id="a_Node000018"><a xlink:href="dc/d4c/class_player_death.html" target="_top" xlink:title=" ">
<polygon fill="white" stroke="#666666" points="336,-476 266,-476 266,-456 336,-456 336,-476"/>
<text text-anchor="middle" x="301" y="-462.5" font-family="Helvetica,sans-Serif" font-size="10.00">PlayerDeath</text>
</a>
</g>
</g>
<!-- Node16&#45;&gt;Node18 -->
<g id="edge47_Node000016_Node000018" class="edge">
<title>Node16&#45;&gt;Node18</title>
<g id="a_edge47_Node000016_Node000018"><a xlink:title=" ">
<path fill="none" stroke="#63b8ff" d="M145.51,-315.92C158.57,-348.81 188.38,-412.41 234.5,-447 243.5,-453.75 254.84,-458.1 265.54,-460.91"/>
<polygon fill="#63b8ff" stroke="#63b8ff" points="148.83,-314.81 141.99,-306.72 142.29,-317.31 148.83,-314.81"/>
</a>
</g>
</g>
<!-- Node19 -->
<g id="Node000019" class="node">
<title>Node19</title>
<g id="a_Node000019"><a xlink:href="d3/d9d/class_player_idle.html" target="_top" xlink:title=" ">
<polygon fill="white" stroke="#666666" points="330.75,-438 271.25,-438 271.25,-418 330.75,-418 330.75,-438"/>
<text text-anchor="middle" x="301" y="-424.5" font-family="Helvetica,sans-Serif" font-size="10.00">PlayerIdle</text>
</a>
</g>
</g>
<!-- Node16&#45;&gt;Node19 -->
<g id="edge48_Node000016_Node000019" class="edge">
<title>Node16&#45;&gt;Node19</title>
<g id="a_edge48_Node000016_Node000019"><a xlink:title=" ">
<path fill="none" stroke="#63b8ff" d="M149.57,-314.98C165.55,-340.54 196.59,-384.43 234.5,-409 245.43,-416.08 259.06,-420.59 271.05,-423.42"/>
<polygon fill="#63b8ff" stroke="#63b8ff" points="152.64,-313.29 144.45,-306.56 146.65,-316.92 152.64,-313.29"/>
</a>
</g>
</g>
<!-- Node20 -->
<g id="Node000020" class="node">
<title>Node20</title>
<g id="a_Node000020"><a xlink:href="dc/d24/class_player_moving.html" target="_top" xlink:title=" ">
<polygon fill="white" stroke="#666666" points="338.62,-400 263.38,-400 263.38,-380 338.62,-380 338.62,-400"/>
<text text-anchor="middle" x="301" y="-386.5" font-family="Helvetica,sans-Serif" font-size="10.00">PlayerMoving</text>
</a>
</g>
</g>
<!-- Node16&#45;&gt;Node20 -->
<g id="edge49_Node000016_Node000020" class="edge">
<title>Node16&#45;&gt;Node20</title>
<g id="a_edge49_Node000016_Node000020"><a xlink:title=" ">
<path fill="none" stroke="#63b8ff" d="M156.53,-313.31C174.95,-330.45 204.62,-355.65 234.5,-371 243.35,-375.54 253.44,-379.15 263.01,-381.95"/>
<polygon fill="#63b8ff" stroke="#63b8ff" points="158.97,-310.79 149.31,-306.44 154.15,-315.87 158.97,-310.79"/>
</a>
</g>
</g>
<!-- Node21 -->
<g id="Node000021" class="node">
<title>Node21</title>
<g id="a_Node000021"><a xlink:href="d4/d55/class_player_spell_casting.html" target="_top" xlink:title=" ">
<polygon fill="white" stroke="#666666" points="350.62,-362 251.38,-362 251.38,-342 350.62,-342 350.62,-362"/>
<text text-anchor="middle" x="301" y="-348.5" font-family="Helvetica,sans-Serif" font-size="10.00">PlayerSpellCasting</text>
</a>
</g>
</g>
<!-- Node16&#45;&gt;Node21 -->
<g id="edge50_Node000016_Node000021" class="edge">
<title>Node16&#45;&gt;Node21</title>
<g id="a_edge50_Node000016_Node000021"><a xlink:title=" ">
<path fill="none" stroke="#63b8ff" d="M167.32,-307.4C186.33,-315.2 211.68,-325.22 234.5,-333 243.24,-335.98 252.74,-338.91 261.72,-341.54"/>
<polygon fill="#63b8ff" stroke="#63b8ff" points="168.91,-304.27 158.33,-303.68 166.23,-310.74 168.91,-304.27"/>
</a>
</g>
</g>
<!-- Node22 -->
<g id="Node000022" class="node">
<title>Node22</title>
<g id="a_Node000022"><a xlink:href="dc/d44/class_slime_attacking.html" target="_top" xlink:title=" ">
<polygon fill="white" stroke="#666666" points="342,-324 260,-324 260,-304 342,-304 342,-324"/>
<text text-anchor="middle" x="301" y="-310.5" font-family="Helvetica,sans-Serif" font-size="10.00">SlimeAttacking</text>
</a>
</g>
</g>
<!-- Node16&#45;&gt;Node22 -->
<g id="edge51_Node000016_Node000022" class="edge">
<title>Node16&#45;&gt;Node22</title>
<g id="a_edge51_Node000016_Node000022"><a xlink:title=" ">
<path fill="none" stroke="#63b8ff" d="M168.1,-298.54C193.89,-301.56 231.2,-305.94 259.56,-309.26"/>
<polygon fill="#63b8ff" stroke="#63b8ff" points="168.63,-295.08 158.29,-297.39 167.82,-302.03 168.63,-295.08"/>
</a>
</g>
</g>
<!-- Node23 -->
<g id="Node000023" class="node">
<title>Node23</title>
<g id="a_Node000023"><a xlink:href="db/d1c/class_slime_death.html" target="_top" xlink:title=" ">
<polygon fill="white" stroke="#666666" points="334.5,-286 267.5,-286 267.5,-266 334.5,-266 334.5,-286"/>
<text text-anchor="middle" x="301" y="-272.5" font-family="Helvetica,sans-Serif" font-size="10.00">SlimeDeath</text>
</a>
</g>
</g>
<!-- Node16&#45;&gt;Node23 -->
<g id="edge52_Node000016_Node000023" class="edge">
<title>Node16&#45;&gt;Node23</title>
<g id="a_edge52_Node000016_Node000023"><a xlink:title=" ">
<path fill="none" stroke="#63b8ff" d="M167.94,-291.48C196.13,-288.17 238.16,-283.25 267.2,-279.84"/>
<polygon fill="#63b8ff" stroke="#63b8ff" points="167.82,-287.97 158.29,-292.61 168.63,-294.92 167.82,-287.97"/>
</a>
</g>
</g>
<!-- Node24 -->
<g id="Node000024" class="node">
<title>Node24</title>
<g id="a_Node000024"><a xlink:href="d2/d94/class_slime_idle.html" target="_top" xlink:title=" ">
<polygon fill="white" stroke="#666666" points="329.25,-248 272.75,-248 272.75,-228 329.25,-228 329.25,-248"/>
<text text-anchor="middle" x="301" y="-234.5" font-family="Helvetica,sans-Serif" font-size="10.00">SlimeIdle</text>
</a>
</g>
</g>
<!-- Node16&#45;&gt;Node24 -->
<g id="edge53_Node000016_Node000024" class="edge">
<title>Node16&#45;&gt;Node24</title>
<g id="a_edge53_Node000016_Node000024"><a xlink:title=" ">
<path fill="none" stroke="#63b8ff" d="M167.77,-286.81C177.68,-283.79 188.69,-280.08 198.5,-276 215.2,-269.04 217.73,-263.78 234.5,-257 246.69,-252.08 260.62,-247.85 272.49,-244.64"/>
<polygon fill="#63b8ff" stroke="#63b8ff" points="166.83,-283.44 158.21,-289.61 168.79,-290.16 166.83,-283.44"/>
</a>
</g>
</g>
<!-- Node25 -->
<g id="Node000025" class="node">
<title>Node25</title>
<g id="a_Node000025"><a xlink:href="d9/dfb/class_slime_moving.html" target="_top" xlink:title=" ">
<polygon fill="white" stroke="#666666" points="337.12,-210 264.88,-210 264.88,-190 337.12,-190 337.12,-210"/>
<text text-anchor="middle" x="301" y="-196.5" font-family="Helvetica,sans-Serif" font-size="10.00">SlimeMoving</text>
</a>
</g>
</g>
<!-- Node16&#45;&gt;Node25 -->
<g id="edge54_Node000016_Node000025" class="edge">
<title>Node16&#45;&gt;Node25</title>
<g id="a_edge54_Node000016_Node000025"><a xlink:title=" ">
<path fill="none" stroke="#63b8ff" d="M168.15,-289.95C178.53,-287.12 189.73,-282.74 198.5,-276 222.25,-257.73 210.55,-237.01 234.5,-219 243.21,-212.45 254.11,-208.16 264.52,-205.34"/>
<polygon fill="#63b8ff" stroke="#63b8ff" points="167.39,-286.53 158.43,-292.19 168.96,-293.35 167.39,-286.53"/>
</a>
</g>
</g>
<!-- Node26 -->
<g id="Node000026" class="node">
<title>Node26</title>
<g id="a_Node000026"><a xlink:href="d2/da1/class_unicorn_charge_attack.html" target="_top" xlink:title=" ">
<polygon fill="white" stroke="#666666" points="355.88,-172 246.12,-172 246.12,-152 355.88,-152 355.88,-172"/>
<text text-anchor="middle" x="301" y="-158.5" font-family="Helvetica,sans-Serif" font-size="10.00">UnicornChargeAttack</text>
</a>
</g>
</g>
<!-- Node16&#45;&gt;Node26 -->
<g id="edge55_Node000016_Node000026" class="edge">
<title>Node16&#45;&gt;Node26</title>
<g id="a_edge55_Node000016_Node000026"><a xlink:title=" ">
<path fill="none" stroke="#63b8ff" d="M167.93,-291.15C178.69,-288.44 190.19,-283.84 198.5,-276 231.35,-245.02 201.32,-211.63 234.5,-181 238.24,-177.55 242.57,-174.72 247.19,-172.4"/>
<polygon fill="#63b8ff" stroke="#63b8ff" points="167.33,-287.7 158.22,-293.1 168.71,-294.56 167.33,-287.7"/>
</a>
</g>
</g>
<!-- Node27 -->
<g id="Node000027" class="node">
<title>Node27</title>
<g id="a_Node000027"><a xlink:href="d0/d8c/class_unicorn_death.html" target="_top" xlink:title=" ">
<polygon fill="white" stroke="#666666" points="339,-134 263,-134 263,-114 339,-114 339,-134"/>
<text text-anchor="middle" x="301" y="-120.5" font-family="Helvetica,sans-Serif" font-size="10.00">UnicornDeath</text>
</a>
</g>
</g>
<!-- Node16&#45;&gt;Node27 -->
<g id="edge56_Node000016_Node000027" class="edge">
<title>Node16&#45;&gt;Node27</title>
<g id="a_edge56_Node000016_Node000027"><a xlink:title=" ">
<path fill="none" stroke="#63b8ff" d="M167.77,-291.71C178.75,-289.08 190.44,-284.38 198.5,-276 240.94,-231.85 191.59,-186.69 234.5,-143 241.97,-135.4 252.28,-130.79 262.51,-128.02"/>
<polygon fill="#63b8ff" stroke="#63b8ff" points="167.45,-288.21 158.26,-293.49 168.74,-295.09 167.45,-288.21"/>
</a>
</g>
</g>
<!-- Node28 -->
<g id="Node000028" class="node">
<title>Node28</title>
<g id="a_Node000028"><a xlink:href="d2/df5/class_unicorn_shooting_attack.html" target="_top" xlink:title=" ">
<polygon fill="white" stroke="#666666" points="359.25,-96 242.75,-96 242.75,-76 359.25,-76 359.25,-96"/>
<text text-anchor="middle" x="301" y="-82.5" font-family="Helvetica,sans-Serif" font-size="10.00">UnicornShootingAttack</text>
</a>
</g>
</g>
<!-- Node16&#45;&gt;Node28 -->
<g id="edge57_Node000016_Node000028" class="edge">
<title>Node16&#45;&gt;Node28</title>
<g id="a_edge57_Node000016_Node000028"><a xlink:title=" ">
<path fill="none" stroke="#63b8ff" d="M168.02,-291.94C179.03,-289.35 190.68,-284.61 198.5,-276 250.71,-218.5 181.67,-161.93 234.5,-105 237.72,-101.53 241.54,-98.68 245.68,-96.34"/>
<polygon fill="#63b8ff" stroke="#63b8ff" points="167.67,-288.45 158.46,-293.68 168.92,-295.34 167.67,-288.45"/>
</a>
</g>
</g>
<!-- Node29 -->
<g id="Node000029" class="node">
<title>Node29</title>
<g id="a_Node000029"><a xlink:href="d1/d6c/class_unicorn_stomping_attack.html" target="_top" xlink:title=" ">
<polygon fill="white" stroke="#666666" points="360.75,-58 241.25,-58 241.25,-38 360.75,-38 360.75,-58"/>
<text text-anchor="middle" x="301" y="-44.5" font-family="Helvetica,sans-Serif" font-size="10.00">UnicornStompingAttack</text>
</a>
</g>
</g>
<!-- Node16&#45;&gt;Node29 -->
<g id="edge58_Node000016_Node000029" class="edge">
<title>Node16&#45;&gt;Node29</title>
<g id="a_edge58_Node000016_Node000029"><a xlink:title=" ">
<path fill="none" stroke="#63b8ff" d="M167.95,-292.15C179.05,-289.58 190.79,-284.81 198.5,-276 260.57,-205.06 171.68,-137.27 234.5,-67 237.58,-63.56 241.24,-60.72 245.23,-58.39"/>
<polygon fill="#63b8ff" stroke="#63b8ff" points="167.55,-288.66 158.3,-293.84 168.76,-295.56 167.55,-288.66"/>
</a>
</g>
</g>
<!-- Node30 -->
<g id="Node000030" class="node">
<title>Node30</title>
<g id="a_Node000030"><a xlink:href="dd/d3c/class_unicorn_wait.html" target="_top" xlink:title=" ">
<polygon fill="white" stroke="#666666" points="335.62,-20 266.38,-20 266.38,0 335.62,0 335.62,-20"/>
<text text-anchor="middle" x="301" y="-6.5" font-family="Helvetica,sans-Serif" font-size="10.00">UnicornWait</text>
</a>
</g>
</g>
<!-- Node16&#45;&gt;Node30 -->
<g id="edge59_Node000016_Node000030" class="edge">
<title>Node16&#45;&gt;Node30</title>
<g id="a_edge59_Node000016_Node000030"><a xlink:title=" ">
<path fill="none" stroke="#63b8ff" d="M168.07,-292.25C179.19,-289.7 190.91,-284.91 198.5,-276 270.47,-191.57 161.63,-112.65 234.5,-29 242.43,-19.89 254.44,-15.03 266.02,-12.47"/>
<polygon fill="#63b8ff" stroke="#63b8ff" points="167.65,-288.77 158.39,-293.92 168.84,-295.67 167.65,-288.77"/>
</a>
</g>
</g>
</g>
</svg>
