<?xml version="1.0" encoding="UTF-8" standalone="no"?>
<!DOCTYPE svg PUBLIC "-//W3C//DTD SVG 1.1//EN"
 "http://www.w3.org/Graphics/SVG/1.1/DTD/svg11.dtd">
<!-- Generated by graphviz version 12.1.0 (20240811.2233)
 -->
<!-- Title: Graphical Class Hierarchy Pages: 1 -->
<svg width="201pt" height="104pt"
 viewBox="0.00 0.00 200.50 104.00" xmlns="http://www.w3.org/2000/svg" xmlns:xlink="http://www.w3.org/1999/xlink">
<g id="graph0" class="graph" transform="scale(1 1) rotate(0) translate(4 100)">
<title>Graphical Class Hierarchy</title>
<!-- Node0 -->
<g id="Node000000" class="node">
<title>Node0</title>
<g id="a_Node000000"><a xlink:href="d3/dd2/class_panel_container.html" target="_top" xlink:title=" ">
<polygon fill="white" stroke="#666666" points="82.75,-58 0,-58 0,-38 82.75,-38 82.75,-58"/>
<text text-anchor="middle" x="41.38" y="-44.5" font-family="Helvetica,sans-Serif" font-size="10.00">PanelContainer</text>
</a>
</g>
</g>
<!-- Node1 -->
<g id="Node000001" class="node">
<title>Node1</title>
<g id="a_Node000001"><a xlink:href="d0/d7a/class_inventory_slot.html" target="_top" xlink:title=" ">
<polygon fill="white" stroke="#666666" points="192.5,-96 118.75,-96 118.75,-76 192.5,-76 192.5,-96"/>
<text text-anchor="middle" x="155.62" y="-82.5" font-family="Helvetica,sans-Serif" font-size="10.00">InventorySlot</text>
</a>
</g>
</g>
<!-- Node0&#45;&gt;Node1 -->
<g id="edge67_Node000000_Node000001" class="edge">
<title>Node0&#45;&gt;Node1</title>
<g id="a_edge67_Node000000_Node000001"><a xlink:title=" ">
<path fill="none" stroke="#63b8ff" d="M84.06,-62.11C97.21,-66.56 111.5,-71.4 123.76,-75.55"/>
<polygon fill="#63b8ff" stroke="#63b8ff" points="85.37,-58.86 74.78,-58.97 83.13,-65.49 85.37,-58.86"/>
</a>
</g>
</g>
<!-- Node2 -->
<g id="Node000002" class="node">
<title>Node2</title>
<g id="a_Node000002"><a xlink:href="dd/d2a/class_skill_slot.html" target="_top" xlink:title=" ">
<polygon fill="white" stroke="#666666" points="181.62,-58 129.62,-58 129.62,-38 181.62,-38 181.62,-58"/>
<text text-anchor="middle" x="155.62" y="-44.5" font-family="Helvetica,sans-Serif" font-size="10.00">SkillSlot</text>
</a>
</g>
</g>
<!-- Node0&#45;&gt;Node2 -->
<g id="edge68_Node000000_Node000002" class="edge">
<title>Node0&#45;&gt;Node2</title>
<g id="a_edge68_Node000000_Node000002"><a xlink:title=" ">
<path fill="none" stroke="#63b8ff" d="M94.64,-48C106.71,-48 119.02,-48 129.32,-48"/>
<polygon fill="#63b8ff" stroke="#63b8ff" points="94.73,-44.5 84.73,-48 94.73,-51.5 94.73,-44.5"/>
</a>
</g>
</g>
<!-- Node3 -->
<g id="Node000003" class="node">
<title>Node3</title>
<g id="a_Node000003"><a xlink:href="d5/de4/class_u_i_spell_slot.html" target="_top" xlink:title="Class for the Spell Box that shows the currently active spell.">
<polygon fill="white" stroke="#666666" points="188.38,-20 122.88,-20 122.88,0 188.38,0 188.38,-20"/>
<text text-anchor="middle" x="155.62" y="-6.5" font-family="Helvetica,sans-Serif" font-size="10.00">UISpellSlot</text>
</a>
</g>
</g>
<!-- Node0&#45;&gt;Node3 -->
<g id="edge69_Node000000_Node000003" class="edge">
<title>Node0&#45;&gt;Node3</title>
<g id="a_edge69_Node000000_Node000003"><a xlink:title=" ">
<path fill="none" stroke="#63b8ff" d="M84.06,-33.89C97.21,-29.44 111.5,-24.6 123.76,-20.45"/>
<polygon fill="#63b8ff" stroke="#63b8ff" points="83.13,-30.51 74.78,-37.03 85.37,-37.14 83.13,-30.51"/>
</a>
</g>
</g>
</g>
</svg>
