<?xml version="1.0" encoding="UTF-8" standalone="no"?>
<!DOCTYPE svg PUBLIC "-//W3C//DTD SVG 1.1//EN"
 "http://www.w3.org/Graphics/SVG/1.1/DTD/svg11.dtd">
<!-- Generated by graphviz version 12.1.0 (20240811.2233)
 -->
<!-- Title: Graphical Class Hierarchy Pages: 1 -->
<svg width="345pt" height="408pt"
 viewBox="0.00 0.00 344.75 408.00" xmlns="http://www.w3.org/2000/svg" xmlns:xlink="http://www.w3.org/1999/xlink">
<g id="graph0" class="graph" transform="scale(1 1) rotate(0) translate(4 404)">
<title>Graphical Class Hierarchy</title>
<!-- Node0 -->
<g id="Node000000" class="node">
<title>Node0</title>
<g id="a_Node000000"><a xlink:href="dc/df8/class_area2_d.html" target="_top" xlink:title=" ">
<polygon fill="white" stroke="#666666" points="49,-267 0,-267 0,-247 49,-247 49,-267"/>
<text text-anchor="middle" x="24.5" y="-253.5" font-family="Helvetica,sans-Serif" font-size="10.00">Area2D</text>
</a>
</g>
</g>
<!-- Node1 -->
<g id="Node000001" class="node">
<title>Node1</title>
<g id="a_Node000001"><a xlink:href="d1/da7/class_health_component.html" target="_top" xlink:title=" ">
<polygon fill="white" stroke="#666666" points="194,-400 99.25,-400 99.25,-380 194,-380 194,-400"/>
<text text-anchor="middle" x="146.62" y="-386.5" font-family="Helvetica,sans-Serif" font-size="10.00">HealthComponent</text>
</a>
</g>
</g>
<!-- Node0&#45;&gt;Node1 -->
<g id="edge1_Node000000_Node000001" class="edge">
<title>Node0&#45;&gt;Node1</title>
<g id="a_edge1_Node000000_Node000001"><a xlink:title=" ">
<path fill="none" stroke="#63b8ff" d="M31.14,-278.25C39.01,-303.86 55.72,-346.5 85,-371 89.15,-374.47 93.92,-377.3 98.94,-379.62"/>
<polygon fill="#63b8ff" stroke="#63b8ff" points="34.51,-277.3 28.39,-268.65 27.78,-279.23 34.51,-277.3"/>
</a>
</g>
</g>
<!-- Node2 -->
<g id="Node000002" class="node">
<title>Node2</title>
<g id="a_Node000002"><a xlink:href="d8/d3e/class_hurt_box_charge_attack.html" target="_top" xlink:title=" ">
<polygon fill="white" stroke="#666666" points="202.62,-362 90.62,-362 90.62,-342 202.62,-342 202.62,-362"/>
<text text-anchor="middle" x="146.62" y="-348.5" font-family="Helvetica,sans-Serif" font-size="10.00">HurtBoxChargeAttack</text>
</a>
</g>
</g>
<!-- Node0&#45;&gt;Node2 -->
<g id="edge2_Node000000_Node000002" class="edge">
<title>Node0&#45;&gt;Node2</title>
<g id="a_edge2_Node000000_Node000002"><a xlink:title=" ">
<path fill="none" stroke="#63b8ff" d="M36.53,-277.14C46.92,-294.32 64,-318.47 85,-333 89.9,-336.39 95.43,-339.19 101.1,-341.51"/>
<polygon fill="#63b8ff" stroke="#63b8ff" points="39.75,-275.71 31.71,-268.8 33.69,-279.21 39.75,-275.71"/>
</a>
</g>
</g>
<!-- Node3 -->
<g id="Node000003" class="node">
<title>Node3</title>
<g id="a_Node000003"><a xlink:href="dd/daa/class_hurt_box_stomping_attack.html" target="_top" xlink:title=" ">
<polygon fill="white" stroke="#666666" points="207.5,-324 85.75,-324 85.75,-304 207.5,-304 207.5,-324"/>
<text text-anchor="middle" x="146.62" y="-310.5" font-family="Helvetica,sans-Serif" font-size="10.00">HurtBoxStompingAttack</text>
</a>
</g>
</g>
<!-- Node0&#45;&gt;Node3 -->
<g id="edge3_Node000000_Node000003" class="edge">
<title>Node0&#45;&gt;Node3</title>
<g id="a_edge3_Node000000_Node000003"><a xlink:title=" ">
<path fill="none" stroke="#63b8ff" d="M48.94,-274.01C59.58,-281.18 72.54,-289.19 85,-295 91.9,-298.21 99.48,-301.08 106.88,-303.54"/>
<polygon fill="#63b8ff" stroke="#63b8ff" points="51.01,-271.18 40.8,-268.36 47.02,-276.93 51.01,-271.18"/>
</a>
</g>
</g>
<!-- Node4 -->
<g id="Node000004" class="node">
<title>Node4</title>
<g id="a_Node000004"><a xlink:href="dd/dff/class_melee_attack_hurt_box.html" target="_top" xlink:title=" ">
<polygon fill="white" stroke="#666666" points="200,-286 93.25,-286 93.25,-266 200,-266 200,-286"/>
<text text-anchor="middle" x="146.62" y="-272.5" font-family="Helvetica,sans-Serif" font-size="10.00">MeleeAttackHurtBox</text>
</a>
</g>
</g>
<!-- Node0&#45;&gt;Node4 -->
<g id="edge4_Node000000_Node000004" class="edge">
<title>Node0&#45;&gt;Node4</title>
<g id="a_edge4_Node000000_Node000004"><a xlink:title=" ">
<path fill="none" stroke="#63b8ff" d="M60.5,-262.54C70.63,-264.14 81.92,-265.92 92.87,-267.66"/>
<polygon fill="#63b8ff" stroke="#63b8ff" points="61.15,-259.1 50.73,-260.99 60.06,-266.01 61.15,-259.1"/>
</a>
</g>
</g>
<!-- Node5 -->
<g id="Node000005" class="node">
<title>Node5</title>
<g id="a_Node000005"><a xlink:href="d8/d29/class_ranged_attack.html" target="_top" xlink:title=" ">
<polygon fill="white" stroke="#666666" points="185.75,-248 107.5,-248 107.5,-228 185.75,-228 185.75,-248"/>
<text text-anchor="middle" x="146.62" y="-234.5" font-family="Helvetica,sans-Serif" font-size="10.00">RangedAttack</text>
</a>
</g>
</g>
<!-- Node0&#45;&gt;Node5 -->
<g id="edge5_Node000000_Node000005" class="edge">
<title>Node0&#45;&gt;Node5</title>
<g id="a_edge5_Node000000_Node000005"><a xlink:title=" ">
<path fill="none" stroke="#63b8ff" d="M60.4,-251.48C75.1,-249.16 92.24,-246.44 107.28,-244.06"/>
<polygon fill="#63b8ff" stroke="#63b8ff" points="60.06,-247.99 50.73,-253.01 61.15,-254.9 60.06,-247.99"/>
</a>
</g>
</g>
<!-- Node6 -->
<g id="Node000006" class="node">
<title>Node6</title>
<g id="a_Node000006"><a xlink:href="d7/d0c/class_room_exit.html" target="_top" xlink:title=" ">
<polygon fill="white" stroke="#666666" points="176.38,-210 116.88,-210 116.88,-190 176.38,-190 176.38,-210"/>
<text text-anchor="middle" x="146.62" y="-196.5" font-family="Helvetica,sans-Serif" font-size="10.00">RoomExit</text>
</a>
</g>
</g>
<!-- Node0&#45;&gt;Node6 -->
<g id="edge6_Node000000_Node000006" class="edge">
<title>Node0&#45;&gt;Node6</title>
<g id="a_edge6_Node000000_Node000006"><a xlink:title=" ">
<path fill="none" stroke="#63b8ff" d="M48.94,-239.99C59.58,-232.82 72.54,-224.81 85,-219 95,-214.34 106.44,-210.42 116.66,-207.38"/>
<polygon fill="#63b8ff" stroke="#63b8ff" points="47.02,-237.07 40.8,-245.64 51.01,-242.82 47.02,-237.07"/>
</a>
</g>
</g>
<!-- Node7 -->
<g id="Node000007" class="node">
<title>Node7</title>
<g id="a_Node000007"><a xlink:href="de/dbf/class_shooting_attack_projectile.html" target="_top" xlink:title=" ">
<polygon fill="white" stroke="#666666" points="208.25,-172 85,-172 85,-152 208.25,-152 208.25,-172"/>
<text text-anchor="middle" x="146.62" y="-158.5" font-family="Helvetica,sans-Serif" font-size="10.00">ShootingAttackProjectile</text>
</a>
</g>
</g>
<!-- Node0&#45;&gt;Node7 -->
<g id="edge7_Node000000_Node000007" class="edge">
<title>Node0&#45;&gt;Node7</title>
<g id="a_edge7_Node000000_Node000007"><a xlink:title=" ">
<path fill="none" stroke="#63b8ff" d="M36.53,-236.86C46.92,-219.68 64,-195.53 85,-181 89.9,-177.61 95.43,-174.81 101.1,-172.49"/>
<polygon fill="#63b8ff" stroke="#63b8ff" points="33.69,-234.79 31.71,-245.2 39.75,-238.29 33.69,-234.79"/>
</a>
</g>
</g>
<!-- Node8 -->
<g id="Node000008" class="node">
<title>Node8</title>
<g id="a_Node000008"><a xlink:href="d8/d0d/class_spell.html" target="_top" xlink:title=" ">
<polygon fill="white" stroke="#666666" points="165.5,-134 127.75,-134 127.75,-114 165.5,-114 165.5,-134"/>
<text text-anchor="middle" x="146.62" y="-120.5" font-family="Helvetica,sans-Serif" font-size="10.00">Spell</text>
</a>
</g>
</g>
<!-- Node0&#45;&gt;Node8 -->
<g id="edge8_Node000000_Node000008" class="edge">
<title>Node0&#45;&gt;Node8</title>
<g id="a_edge8_Node000000_Node000008"><a xlink:title=" ">
<path fill="none" stroke="#63b8ff" d="M31.14,-235.75C39.01,-210.14 55.72,-167.5 85,-143 97.01,-132.95 114.35,-128.2 127.41,-125.97"/>
<polygon fill="#63b8ff" stroke="#63b8ff" points="27.78,-234.77 28.39,-245.35 34.51,-236.7 27.78,-234.77"/>
</a>
</g>
</g>
<!-- Node9 -->
<g id="Node000009" class="node">
<title>Node9</title>
<g id="a_Node000009"><a xlink:href="d6/df9/class_basic_spell.html" target="_top" xlink:title=" ">
<polygon fill="white" stroke="#666666" points="321.75,-248 259.25,-248 259.25,-228 321.75,-228 321.75,-248"/>
<text text-anchor="middle" x="290.5" y="-234.5" font-family="Helvetica,sans-Serif" font-size="10.00">BasicSpell</text>
</a>
</g>
</g>
<!-- Node8&#45;&gt;Node9 -->
<g id="edge9_Node000008_Node000009" class="edge">
<title>Node8&#45;&gt;Node9</title>
<g id="a_edge9_Node000008_Node000009"><a xlink:title=" ">
<path fill="none" stroke="#63b8ff" d="M177.12,-128.15C187.91,-130.9 199.57,-135.45 208.25,-143 236.45,-167.53 217.24,-193.17 244.25,-219 248.44,-223 253.59,-226.22 258.91,-228.79"/>
<polygon fill="#63b8ff" stroke="#63b8ff" points="177.94,-124.75 167.44,-126.14 176.51,-131.6 177.94,-124.75"/>
</a>
</g>
</g>
<!-- Node10 -->
<g id="Node000010" class="node">
<title>Node10</title>
<g id="a_Node000010"><a xlink:href="db/d1b/class_black_hole.html" target="_top" xlink:title=" ">
<polygon fill="white" stroke="#666666" points="321,-210 260,-210 260,-190 321,-190 321,-210"/>
<text text-anchor="middle" x="290.5" y="-196.5" font-family="Helvetica,sans-Serif" font-size="10.00">BlackHole</text>
</a>
</g>
</g>
<!-- Node8&#45;&gt;Node10 -->
<g id="edge10_Node000008_Node000010" class="edge">
<title>Node8&#45;&gt;Node10</title>
<g id="a_edge10_Node000008_Node000010"><a xlink:title=" ">
<path fill="none" stroke="#63b8ff" d="M177,-129.97C187.37,-132.9 198.8,-137.1 208.25,-143 227.98,-155.32 225.11,-167.77 244.25,-181 249.02,-184.3 254.44,-187.18 259.84,-189.64"/>
<polygon fill="#63b8ff" stroke="#63b8ff" points="177.91,-126.59 167.36,-127.56 176.21,-133.38 177.91,-126.59"/>
</a>
</g>
</g>
<!-- Node11 -->
<g id="Node000011" class="node">
<title>Node11</title>
<g id="a_Node000011"><a xlink:href="d9/d51/class_dark_energy_wave.html" target="_top" xlink:title=" ">
<polygon fill="white" stroke="#666666" points="336.75,-172 244.25,-172 244.25,-152 336.75,-152 336.75,-172"/>
<text text-anchor="middle" x="290.5" y="-158.5" font-family="Helvetica,sans-Serif" font-size="10.00">DarkEnergyWave</text>
</a>
</g>
</g>
<!-- Node8&#45;&gt;Node11 -->
<g id="edge11_Node000008_Node000011" class="edge">
<title>Node8&#45;&gt;Node11</title>
<g id="a_edge11_Node000008_Node000011"><a xlink:title=" ">
<path fill="none" stroke="#63b8ff" d="M176.82,-131.82C198.1,-137.52 227.16,-145.3 250.44,-151.54"/>
<polygon fill="#63b8ff" stroke="#63b8ff" points="177.91,-128.49 167.34,-129.28 176.1,-135.25 177.91,-128.49"/>
</a>
</g>
</g>
<!-- Node12 -->
<g id="Node000012" class="node">
<title>Node12</title>
<g id="a_Node000012"><a xlink:href="df/d1e/class_moon_light.html" target="_top" xlink:title=" ">
<polygon fill="white" stroke="#666666" points="321,-134 260,-134 260,-114 321,-114 321,-134"/>
<text text-anchor="middle" x="290.5" y="-120.5" font-family="Helvetica,sans-Serif" font-size="10.00">MoonLight</text>
</a>
</g>
</g>
<!-- Node8&#45;&gt;Node12 -->
<g id="edge12_Node000008_Node000012" class="edge">
<title>Node8&#45;&gt;Node12</title>
<g id="a_edge12_Node000008_Node000012"><a xlink:title=" ">
<path fill="none" stroke="#63b8ff" d="M177.2,-124C201.39,-124 235.44,-124 259.69,-124"/>
<polygon fill="#63b8ff" stroke="#63b8ff" points="177.4,-120.5 167.4,-124 177.4,-127.5 177.4,-120.5"/>
</a>
</g>
</g>
<!-- Node13 -->
<g id="Node000013" class="node">
<title>Node13</title>
<g id="a_Node000013"><a xlink:href="d7/d8d/class_star.html" target="_top" xlink:title=" ">
<polygon fill="white" stroke="#666666" points="307.5,-96 273.5,-96 273.5,-76 307.5,-76 307.5,-96"/>
<text text-anchor="middle" x="290.5" y="-82.5" font-family="Helvetica,sans-Serif" font-size="10.00">Star</text>
</a>
</g>
</g>
<!-- Node8&#45;&gt;Node13 -->
<g id="edge13_Node000008_Node000013" class="edge">
<title>Node8&#45;&gt;Node13</title>
<g id="a_edge13_Node000008_Node000013"><a xlink:title=" ">
<path fill="none" stroke="#63b8ff" d="M177,-116.13C206.09,-108.34 249.6,-96.69 273.07,-90.4"/>
<polygon fill="#63b8ff" stroke="#63b8ff" points="176.1,-112.75 167.34,-118.72 177.91,-119.51 176.1,-112.75"/>
</a>
</g>
</g>
<!-- Node14 -->
<g id="Node000014" class="node">
<title>Node14</title>
<g id="a_Node000014"><a xlink:href="d6/d93/class_sun.html" target="_top" xlink:title=" ">
<polygon fill="white" stroke="#666666" points="307.12,-58 273.88,-58 273.88,-38 307.12,-38 307.12,-58"/>
<text text-anchor="middle" x="290.5" y="-44.5" font-family="Helvetica,sans-Serif" font-size="10.00">Sun</text>
</a>
</g>
</g>
<!-- Node8&#45;&gt;Node14 -->
<g id="edge14_Node000008_Node000014" class="edge">
<title>Node8&#45;&gt;Node14</title>
<g id="a_edge14_Node000008_Node000014"><a xlink:title=" ">
<path fill="none" stroke="#63b8ff" d="M173.17,-107.64C192.35,-95.68 219.46,-79.44 244.25,-67 253.84,-62.18 264.96,-57.51 273.77,-54"/>
<polygon fill="#63b8ff" stroke="#63b8ff" points="171.54,-104.53 164.94,-112.82 175.27,-110.46 171.54,-104.53"/>
</a>
</g>
</g>
<!-- Node15 -->
<g id="Node000015" class="node">
<title>Node15</title>
<g id="a_Node000015"><a xlink:href="d5/d00/class_sun_beam.html" target="_top" xlink:title=" ">
<polygon fill="white" stroke="#666666" points="319.88,-20 261.12,-20 261.12,0 319.88,0 319.88,-20"/>
<text text-anchor="middle" x="290.5" y="-6.5" font-family="Helvetica,sans-Serif" font-size="10.00">SunBeam</text>
</a>
</g>
</g>
<!-- Node8&#45;&gt;Node15 -->
<g id="edge15_Node000008_Node000015" class="edge">
<title>Node8&#45;&gt;Node15</title>
<g id="a_edge15_Node000008_Node000015"><a xlink:title=" ">
<path fill="none" stroke="#63b8ff" d="M163.12,-104.91C180.9,-84.01 211.81,-50.59 244.25,-29 249.36,-25.6 255.17,-22.61 260.89,-20.07"/>
<polygon fill="#63b8ff" stroke="#63b8ff" points="160.6,-102.47 156.88,-112.39 165.98,-106.95 160.6,-102.47"/>
</a>
</g>
</g>
</g>
</svg>
