<?xml version="1.0" encoding="UTF-8" standalone="no"?>
<!DOCTYPE svg PUBLIC "-//W3C//DTD SVG 1.1//EN"
 "http://www.w3.org/Graphics/SVG/1.1/DTD/svg11.dtd">
<!-- Generated by graphviz version 12.1.0 (20240811.2233)
 -->
<!-- Title: Graphical Class Hierarchy Pages: 1 -->
<svg width="177pt" height="142pt"
 viewBox="0.00 0.00 177.25 142.00" xmlns="http://www.w3.org/2000/svg" xmlns:xlink="http://www.w3.org/1999/xlink">
<g id="graph0" class="graph" transform="scale(1 1) rotate(0) translate(4 138)">
<title>Graphical Class Hierarchy</title>
<!-- Node0 -->
<g id="Node000000" class="node">
<title>Node0</title>
<g id="a_Node000000"><a xlink:title=" ">
<polygon fill="#e0e0e0" stroke="#999999" points="52,-77 0,-77 0,-57 52,-57 52,-77"/>
<text text-anchor="middle" x="26" y="-63.5" font-family="Helvetica,sans-Serif" font-size="10.00">Node2D</text>
</a>
</g>
</g>
<!-- Node1 -->
<g id="Node000001" class="node">
<title>Node1</title>
<g id="a_Node000001"><a xlink:href="d8/d1e/class_boss_room.html" target="_top" xlink:title=" ">
<polygon fill="white" stroke="#666666" points="161,-134 96.25,-134 96.25,-114 161,-114 161,-134"/>
<text text-anchor="middle" x="128.62" y="-120.5" font-family="Helvetica,sans-Serif" font-size="10.00">BossRoom</text>
</a>
</g>
</g>
<!-- Node0&#45;&gt;Node1 -->
<g id="edge62_Node000000_Node000001" class="edge">
<title>Node0&#45;&gt;Node1</title>
<g id="a_edge62_Node000000_Node000001"><a xlink:title=" ">
<path fill="none" stroke="#63b8ff" d="M52.41,-83.7C63.22,-90.58 76.07,-98.45 88,-105 93.35,-107.94 99.23,-110.89 104.78,-113.57"/>
<polygon fill="#63b8ff" stroke="#63b8ff" points="54.34,-80.78 44.04,-78.31 50.55,-86.67 54.34,-80.78"/>
</a>
</g>
</g>
<!-- Node2 -->
<g id="Node000002" class="node">
<title>Node2</title>
<g id="a_Node000002"><a xlink:href="d3/d03/class_enemy_spawn.html" target="_top" xlink:title=" ">
<polygon fill="white" stroke="#666666" points="167,-96 90.25,-96 90.25,-76 167,-76 167,-96"/>
<text text-anchor="middle" x="128.62" y="-82.5" font-family="Helvetica,sans-Serif" font-size="10.00">EnemySpawn</text>
</a>
</g>
</g>
<!-- Node0&#45;&gt;Node2 -->
<g id="edge63_Node000000_Node000002" class="edge">
<title>Node0&#45;&gt;Node2</title>
<g id="a_edge63_Node000000_Node000002"><a xlink:title=" ">
<path fill="none" stroke="#63b8ff" d="M63.66,-73.92C72.25,-75.54 81.43,-77.28 90.07,-78.91"/>
<polygon fill="#63b8ff" stroke="#63b8ff" points="64.35,-70.49 53.88,-72.08 63.06,-77.37 64.35,-70.49"/>
</a>
</g>
</g>
<!-- Node3 -->
<g id="Node000003" class="node">
<title>Node3</title>
<g id="a_Node000003"><a xlink:href="d2/df4/class_room1.html" target="_top" xlink:title=" ">
<polygon fill="white" stroke="#666666" points="152.38,-58 104.88,-58 104.88,-38 152.38,-38 152.38,-58"/>
<text text-anchor="middle" x="128.62" y="-44.5" font-family="Helvetica,sans-Serif" font-size="10.00">Room1</text>
</a>
</g>
</g>
<!-- Node0&#45;&gt;Node3 -->
<g id="edge64_Node000000_Node000003" class="edge">
<title>Node0&#45;&gt;Node3</title>
<g id="a_edge64_Node000000_Node000003"><a xlink:title=" ">
<path fill="none" stroke="#63b8ff" d="M63.49,-60.11C77.24,-57.51 92.48,-54.64 104.65,-52.34"/>
<polygon fill="#63b8ff" stroke="#63b8ff" points="63.06,-56.63 53.88,-61.92 64.35,-63.51 63.06,-56.63"/>
</a>
</g>
</g>
<!-- Node4 -->
<g id="Node000004" class="node">
<title>Node4</title>
<g id="a_Node000004"><a xlink:href="d9/dd3/class_room_entrance.html" target="_top" xlink:title=" ">
<polygon fill="white" stroke="#666666" points="169.25,-20 88,-20 88,0 169.25,0 169.25,-20"/>
<text text-anchor="middle" x="128.62" y="-6.5" font-family="Helvetica,sans-Serif" font-size="10.00">RoomEntrance</text>
</a>
</g>
</g>
<!-- Node0&#45;&gt;Node4 -->
<g id="edge65_Node000000_Node000004" class="edge">
<title>Node0&#45;&gt;Node4</title>
<g id="a_edge65_Node000000_Node000004"><a xlink:title=" ">
<path fill="none" stroke="#63b8ff" d="M52.41,-50.3C63.22,-43.42 76.07,-35.55 88,-29 93.35,-26.06 99.23,-23.11 104.78,-20.43"/>
<polygon fill="#63b8ff" stroke="#63b8ff" points="50.55,-47.33 44.04,-55.69 54.34,-53.22 50.55,-47.33"/>
</a>
</g>
</g>
</g>
</svg>
