<?xml version="1.0" encoding="UTF-8" standalone="no"?>
<!DOCTYPE svg PUBLIC "-//W3C//DTD SVG 1.1//EN"
 "http://www.w3.org/Graphics/SVG/1.1/DTD/svg11.dtd">
<!-- Generated by graphviz version 12.1.0 (20240811.2233)
 -->
<!-- Title: Graphical Class Hierarchy Pages: 1 -->
<svg width="201pt" height="66pt"
 viewBox="0.00 0.00 200.50 66.00" xmlns="http://www.w3.org/2000/svg" xmlns:xlink="http://www.w3.org/1999/xlink">
<g id="graph0" class="graph" transform="scale(1 1) rotate(0) translate(4 62)">
<title>Graphical Class Hierarchy</title>
<!-- Node0 -->
<g id="Node000000" class="node">
<title>Node0</title>
<g id="a_Node000000"><a xlink:href="d3/dd2/class_panel_container.html" target="_top" xlink:title=" ">
<polygon fill="white" stroke="#666666" points="82.75,-39 0,-39 0,-19 82.75,-19 82.75,-39"/>
<text text-anchor="middle" x="41.38" y="-25.5" font-family="Helvetica,sans-Serif" font-size="10.00">PanelContainer</text>
</a>
</g>
</g>
<!-- Node1 -->
<g id="Node000001" class="node">
<title>Node1</title>
<g id="a_Node000001"><a xlink:href="d0/d7a/class_inventory_slot.html" target="_top" xlink:title=" ">
<polygon fill="white" stroke="#666666" points="192.5,-58 118.75,-58 118.75,-38 192.5,-38 192.5,-58"/>
<text text-anchor="middle" x="155.62" y="-44.5" font-family="Helvetica,sans-Serif" font-size="10.00">InventorySlot</text>
</a>
</g>
</g>
<!-- Node0&#45;&gt;Node1 -->
<g id="edge65_Node000000_Node000001" class="edge">
<title>Node0&#45;&gt;Node1</title>
<g id="a_edge65_Node000000_Node000001"><a xlink:title=" ">
<path fill="none" stroke="#63b8ff" d="M94.52,-37.83C102.61,-39.2 110.82,-40.58 118.46,-41.88"/>
<polygon fill="#63b8ff" stroke="#63b8ff" points="95.15,-34.38 84.71,-36.17 93.99,-41.29 95.15,-34.38"/>
</a>
</g>
</g>
<!-- Node2 -->
<g id="Node000002" class="node">
<title>Node2</title>
<g id="a_Node000002"><a xlink:href="d5/de4/class_u_i_spell_slot.html" target="_top" xlink:title="Class for the Spell Box that shows the currently active spell.">
<polygon fill="white" stroke="#666666" points="188.38,-20 122.88,-20 122.88,0 188.38,0 188.38,-20"/>
<text text-anchor="middle" x="155.62" y="-6.5" font-family="Helvetica,sans-Serif" font-size="10.00">UISpellSlot</text>
</a>
</g>
</g>
<!-- Node0&#45;&gt;Node2 -->
<g id="edge66_Node000000_Node000002" class="edge">
<title>Node0&#45;&gt;Node2</title>
<g id="a_edge66_Node000000_Node000002"><a xlink:title=" ">
<path fill="none" stroke="#63b8ff" d="M94.32,-20.21C103.9,-18.59 113.65,-16.94 122.43,-15.45"/>
<polygon fill="#63b8ff" stroke="#63b8ff" points="93.99,-16.71 84.71,-21.83 95.15,-23.62 93.99,-16.71"/>
</a>
</g>
</g>
</g>
</svg>
