<?xml version="1.0" encoding="UTF-8" standalone="no"?>
<!DOCTYPE svg PUBLIC "-//W3C//DTD SVG 1.1//EN"
 "http://www.w3.org/Graphics/SVG/1.1/DTD/svg11.dtd">
<!-- Generated by graphviz version 12.1.0 (20240811.2233)
 -->
<!-- Title: Graphical Class Hierarchy Pages: 1 -->
<svg width="170pt" height="66pt"
 viewBox="0.00 0.00 169.75 66.00" xmlns="http://www.w3.org/2000/svg" xmlns:xlink="http://www.w3.org/1999/xlink">
<g id="graph0" class="graph" transform="scale(1 1) rotate(0) translate(4 62)">
<title>Graphical Class Hierarchy</title>
<!-- Node0 -->
<g id="Node000000" class="node">
<title>Node0</title>
<g id="a_Node000000"><a xlink:href="d7/d49/class_control.html" target="_top" xlink:title=" ">
<polygon fill="white" stroke="#666666" points="47.5,-39 0,-39 0,-19 47.5,-19 47.5,-39"/>
<text text-anchor="middle" x="23.75" y="-25.5" font-family="Helvetica,sans-Serif" font-size="10.00">Control</text>
</a>
</g>
</g>
<!-- Node1 -->
<g id="Node000001" class="node">
<title>Node1</title>
<g id="a_Node000001"><a xlink:href="dd/d5b/class_minimap.html" target="_top" xlink:title="A UI element that displays a minimap of the dungeon.">
<polygon fill="white" stroke="#666666" points="149,-58 96.25,-58 96.25,-38 149,-38 149,-58"/>
<text text-anchor="middle" x="122.62" y="-44.5" font-family="Helvetica,sans-Serif" font-size="10.00">Minimap</text>
</a>
</g>
</g>
<!-- Node0&#45;&gt;Node1 -->
<g id="edge27_Node000000_Node000001" class="edge">
<title>Node0&#45;&gt;Node1</title>
<g id="a_edge27_Node000000_Node000001"><a xlink:title=" ">
<path fill="none" stroke="#63b8ff" d="M58.83,-35.68C70.96,-38.06 84.42,-40.7 95.76,-42.93"/>
<polygon fill="#63b8ff" stroke="#63b8ff" points="59.68,-32.28 49.19,-33.79 58.33,-39.15 59.68,-32.28"/>
</a>
</g>
</g>
<!-- Node2 -->
<g id="Node000002" class="node">
<title>Node2</title>
<g id="a_Node000002"><a xlink:href="db/dbe/class_spell_inventory.html" target="_top" xlink:title=" ">
<polygon fill="white" stroke="#666666" points="161.75,-20 83.5,-20 83.5,0 161.75,0 161.75,-20"/>
<text text-anchor="middle" x="122.62" y="-6.5" font-family="Helvetica,sans-Serif" font-size="10.00">SpellInventory</text>
</a>
</g>
</g>
<!-- Node0&#45;&gt;Node2 -->
<g id="edge28_Node000000_Node000002" class="edge">
<title>Node0&#45;&gt;Node2</title>
<g id="a_edge28_Node000000_Node000002"><a xlink:title=" ">
<path fill="none" stroke="#63b8ff" d="M58.8,-22.32C66.72,-20.77 75.21,-19.1 83.3,-17.52"/>
<polygon fill="#63b8ff" stroke="#63b8ff" points="58.33,-18.85 49.19,-24.21 59.68,-25.72 58.33,-18.85"/>
</a>
</g>
</g>
</g>
</svg>
