<?xml version="1.0" encoding="UTF-8" standalone="no"?>
<!DOCTYPE svg PUBLIC "-//W3C//DTD SVG 1.1//EN"
 "http://www.w3.org/Graphics/SVG/1.1/DTD/svg11.dtd">
<!-- Generated by graphviz version 12.1.0 (20240811.2233)
 -->
<!-- Title: Graphical Class Hierarchy Pages: 1 -->
<svg width="325pt" height="180pt"
 viewBox="0.00 0.00 325.25 180.00" xmlns="http://www.w3.org/2000/svg" xmlns:xlink="http://www.w3.org/1999/xlink">
<g id="graph0" class="graph" transform="scale(1 1) rotate(0) translate(4 176)">
<title>Graphical Class Hierarchy</title>
<!-- Node0 -->
<g id="Node000000" class="node">
<title>Node0</title>
<g id="a_Node000000"><a xlink:href="d4/dc3/class_canvas_layer.html" target="_top" xlink:title=" ">
<polygon fill="white" stroke="#666666" points="73.75,-115 0,-115 0,-95 73.75,-95 73.75,-115"/>
<text text-anchor="middle" x="36.88" y="-101.5" font-family="Helvetica,sans-Serif" font-size="10.00">CanvasLayer</text>
</a>
</g>
</g>
<!-- Node1 -->
<g id="Node000001" class="node">
<title>Node1</title>
<g id="a_Node000001"><a xlink:href="df/d7a/class_augment_inventory.html" target="_top" xlink:title=" ">
<polygon fill="white" stroke="#666666" points="205.25,-134 109.75,-134 109.75,-114 205.25,-114 205.25,-134"/>
<text text-anchor="middle" x="157.5" y="-120.5" font-family="Helvetica,sans-Serif" font-size="10.00">AugmentInventory</text>
</a>
</g>
</g>
<!-- Node0&#45;&gt;Node1 -->
<g id="edge17_Node000000_Node000001" class="edge">
<title>Node0&#45;&gt;Node1</title>
<g id="a_edge17_Node000000_Node000001"><a xlink:title=" ">
<path fill="none" stroke="#63b8ff" d="M85.46,-112.62C93.39,-113.89 101.62,-115.21 109.54,-116.48"/>
<polygon fill="#63b8ff" stroke="#63b8ff" points="86.03,-109.17 75.61,-111.04 84.93,-116.08 86.03,-109.17"/>
</a>
</g>
</g>
<!-- Node2 -->
<g id="Node000002" class="node">
<title>Node2</title>
<g id="a_Node000002"><a xlink:href="d9/dc5/class_base_menu.html" target="_top" xlink:title=" ">
<polygon fill="white" stroke="#666666" points="188.75,-96 126.25,-96 126.25,-76 188.75,-76 188.75,-96"/>
<text text-anchor="middle" x="157.5" y="-82.5" font-family="Helvetica,sans-Serif" font-size="10.00">BaseMenu</text>
</a>
</g>
</g>
<!-- Node0&#45;&gt;Node2 -->
<g id="edge18_Node000000_Node000002" class="edge">
<title>Node0&#45;&gt;Node2</title>
<g id="a_edge18_Node000000_Node000002"><a xlink:title=" ">
<path fill="none" stroke="#63b8ff" d="M85.36,-97.39C99.09,-95.2 113.69,-92.86 126.08,-90.87"/>
<polygon fill="#63b8ff" stroke="#63b8ff" points="84.93,-93.92 75.61,-98.96 86.03,-100.83 84.93,-93.92"/>
</a>
</g>
</g>
<!-- Node3 -->
<g id="Node000003" class="node">
<title>Node3</title>
<g id="a_Node000003"><a xlink:href="df/d8a/class_main_game.html" target="_top" xlink:title=" ">
<polygon fill="white" stroke="#666666" points="310.88,-172 247.62,-172 247.62,-152 310.88,-152 310.88,-172"/>
<text text-anchor="middle" x="279.25" y="-158.5" font-family="Helvetica,sans-Serif" font-size="10.00">MainGame</text>
</a>
</g>
</g>
<!-- Node2&#45;&gt;Node3 -->
<g id="edge19_Node000002_Node000003" class="edge">
<title>Node2&#45;&gt;Node3</title>
<g id="a_edge19_Node000002_Node000003"><a xlink:title=" ">
<path fill="none" stroke="#63b8ff" d="M199.21,-101.27C201.3,-102.44 203.33,-103.69 205.25,-105 224.46,-118.12 222.64,-129.04 241.25,-143 245.53,-146.21 250.42,-149.15 255.22,-151.71"/>
<polygon fill="#63b8ff" stroke="#63b8ff" points="201.01,-98.25 190.5,-96.93 197.89,-104.52 201.01,-98.25"/>
</a>
</g>
</g>
<!-- Node4 -->
<g id="Node000004" class="node">
<title>Node4</title>
<g id="a_Node000004"><a xlink:href="d0/d9f/class_main_hub.html" target="_top" xlink:title=" ">
<polygon fill="white" stroke="#666666" points="306.75,-134 251.75,-134 251.75,-114 306.75,-114 306.75,-134"/>
<text text-anchor="middle" x="279.25" y="-120.5" font-family="Helvetica,sans-Serif" font-size="10.00">MainHub</text>
</a>
</g>
</g>
<!-- Node2&#45;&gt;Node4 -->
<g id="edge20_Node000002_Node000004" class="edge">
<title>Node2&#45;&gt;Node4</title>
<g id="a_edge20_Node000002_Node000004"><a xlink:title=" ">
<path fill="none" stroke="#63b8ff" d="M199.87,-99.13C216.95,-104.55 236.27,-110.68 251.45,-115.49"/>
<polygon fill="#63b8ff" stroke="#63b8ff" points="201.06,-95.83 190.47,-96.15 198.94,-102.51 201.06,-95.83"/>
</a>
</g>
</g>
<!-- Node5 -->
<g id="Node000005" class="node">
<title>Node5</title>
<g id="a_Node000005"><a xlink:href="d4/d04/class_main_menu.html" target="_top" xlink:title=" ">
<polygon fill="white" stroke="#666666" points="309.75,-96 248.75,-96 248.75,-76 309.75,-76 309.75,-96"/>
<text text-anchor="middle" x="279.25" y="-82.5" font-family="Helvetica,sans-Serif" font-size="10.00">MainMenu</text>
</a>
</g>
</g>
<!-- Node2&#45;&gt;Node5 -->
<g id="edge21_Node000002_Node000005" class="edge">
<title>Node2&#45;&gt;Node5</title>
<g id="a_edge21_Node000002_Node000005"><a xlink:title=" ">
<path fill="none" stroke="#63b8ff" d="M200.23,-86C216.17,-86 234.01,-86 248.61,-86"/>
<polygon fill="#63b8ff" stroke="#63b8ff" points="200.54,-82.5 190.54,-86 200.54,-89.5 200.54,-82.5"/>
</a>
</g>
</g>
<!-- Node6 -->
<g id="Node000006" class="node">
<title>Node6</title>
<g id="a_Node000006"><a xlink:href="d4/de5/class_pause_menu.html" target="_top" xlink:title=" ">
<polygon fill="white" stroke="#666666" points="313.12,-58 245.38,-58 245.38,-38 313.12,-38 313.12,-58"/>
<text text-anchor="middle" x="279.25" y="-44.5" font-family="Helvetica,sans-Serif" font-size="10.00">PauseMenu</text>
</a>
</g>
</g>
<!-- Node2&#45;&gt;Node6 -->
<g id="edge22_Node000002_Node000006" class="edge">
<title>Node2&#45;&gt;Node6</title>
<g id="a_edge22_Node000002_Node000006"><a xlink:title=" ">
<path fill="none" stroke="#63b8ff" d="M199.96,-72.84C214.77,-68.14 231.25,-62.91 245.26,-58.47"/>
<polygon fill="#63b8ff" stroke="#63b8ff" points="198.94,-69.49 190.47,-75.85 201.06,-76.17 198.94,-69.49"/>
</a>
</g>
</g>
<!-- Node7 -->
<g id="Node000007" class="node">
<title>Node7</title>
<g id="a_Node000007"><a xlink:href="d4/d94/class_settings_menu.html" target="_top" xlink:title=" ">
<polygon fill="white" stroke="#666666" points="317.25,-20 241.25,-20 241.25,0 317.25,0 317.25,-20"/>
<text text-anchor="middle" x="279.25" y="-6.5" font-family="Helvetica,sans-Serif" font-size="10.00">SettingsMenu</text>
</a>
</g>
</g>
<!-- Node2&#45;&gt;Node7 -->
<g id="edge23_Node000002_Node000007" class="edge">
<title>Node2&#45;&gt;Node7</title>
<g id="a_edge23_Node000002_Node000007"><a xlink:title=" ">
<path fill="none" stroke="#63b8ff" d="M181.76,-68.78C198.06,-57.02 220.54,-41.38 241.25,-29 246.21,-26.04 251.68,-23.07 256.86,-20.39"/>
<polygon fill="#63b8ff" stroke="#63b8ff" points="179.73,-65.93 173.71,-74.65 183.85,-71.59 179.73,-65.93"/>
</a>
</g>
</g>
</g>
</svg>
