<?xml version="1.0" encoding="UTF-8" standalone="no"?>
<!DOCTYPE svg PUBLIC "-//W3C//DTD SVG 1.1//EN"
 "http://www.w3.org/Graphics/SVG/1.1/DTD/svg11.dtd">
<!-- Generated by graphviz version 12.1.0 (20240811.2233)
 -->
<!-- Title: Graphical Class Hierarchy Pages: 1 -->
<svg width="177pt" height="104pt"
 viewBox="0.00 0.00 177.25 104.00" xmlns="http://www.w3.org/2000/svg" xmlns:xlink="http://www.w3.org/1999/xlink">
<g id="graph0" class="graph" transform="scale(1 1) rotate(0) translate(4 100)">
<title>Graphical Class Hierarchy</title>
<!-- Node0 -->
<g id="Node000000" class="node">
<title>Node0</title>
<g id="a_Node000000"><a xlink:title=" ">
<polygon fill="#e0e0e0" stroke="#999999" points="52,-58 0,-58 0,-38 52,-38 52,-58"/>
<text text-anchor="middle" x="26" y="-44.5" font-family="Helvetica,sans-Serif" font-size="10.00">Node2D</text>
</a>
</g>
</g>
<!-- Node1 -->
<g id="Node000001" class="node">
<title>Node1</title>
<g id="a_Node000001"><a xlink:href="d3/d03/class_enemy_spawn.html" target="_top" xlink:title=" ">
<polygon fill="white" stroke="#666666" points="167,-96 90.25,-96 90.25,-76 167,-76 167,-96"/>
<text text-anchor="middle" x="128.62" y="-82.5" font-family="Helvetica,sans-Serif" font-size="10.00">EnemySpawn</text>
</a>
</g>
</g>
<!-- Node0&#45;&gt;Node1 -->
<g id="edge61_Node000000_Node000001" class="edge">
<title>Node0&#45;&gt;Node1</title>
<g id="a_edge61_Node000000_Node000001"><a xlink:title=" ">
<path fill="none" stroke="#63b8ff" d="M63.15,-61.65C75.33,-66.25 88.72,-71.31 100.12,-75.61"/>
<polygon fill="#63b8ff" stroke="#63b8ff" points="64.4,-58.38 53.81,-58.12 61.93,-64.93 64.4,-58.38"/>
</a>
</g>
</g>
<!-- Node2 -->
<g id="Node000002" class="node">
<title>Node2</title>
<g id="a_Node000002"><a xlink:href="d2/df4/class_room1.html" target="_top" xlink:title=" ">
<polygon fill="white" stroke="#666666" points="152.38,-58 104.88,-58 104.88,-38 152.38,-38 152.38,-58"/>
<text text-anchor="middle" x="128.62" y="-44.5" font-family="Helvetica,sans-Serif" font-size="10.00">Room1</text>
</a>
</g>
</g>
<!-- Node0&#45;&gt;Node2 -->
<g id="edge62_Node000000_Node000002" class="edge">
<title>Node0&#45;&gt;Node2</title>
<g id="a_edge62_Node000000_Node000002"><a xlink:title=" ">
<path fill="none" stroke="#63b8ff" d="M63.9,-48C77.54,-48 92.6,-48 104.65,-48"/>
<polygon fill="#63b8ff" stroke="#63b8ff" points="63.91,-44.5 53.91,-48 63.91,-51.5 63.91,-44.5"/>
</a>
</g>
</g>
<!-- Node3 -->
<g id="Node000003" class="node">
<title>Node3</title>
<g id="a_Node000003"><a xlink:href="d9/dd3/class_room_entrance.html" target="_top" xlink:title=" ">
<polygon fill="white" stroke="#666666" points="169.25,-20 88,-20 88,0 169.25,0 169.25,-20"/>
<text text-anchor="middle" x="128.62" y="-6.5" font-family="Helvetica,sans-Serif" font-size="10.00">RoomEntrance</text>
</a>
</g>
</g>
<!-- Node0&#45;&gt;Node3 -->
<g id="edge63_Node000000_Node000003" class="edge">
<title>Node0&#45;&gt;Node3</title>
<g id="a_edge63_Node000000_Node000003"><a xlink:title=" ">
<path fill="none" stroke="#63b8ff" d="M63.15,-34.35C75.33,-29.75 88.72,-24.69 100.12,-20.39"/>
<polygon fill="#63b8ff" stroke="#63b8ff" points="61.93,-31.07 53.81,-37.88 64.4,-37.62 61.93,-31.07"/>
</a>
</g>
</g>
</g>
</svg>
