<?xml version="1.0" encoding="UTF-8" standalone="no"?>
<!DOCTYPE svg PUBLIC "-//W3C//DTD SVG 1.1//EN"
 "http://www.w3.org/Graphics/SVG/1.1/DTD/svg11.dtd">
<!-- Generated by graphviz version 12.1.0 (20240811.2233)
 -->
<!-- Title: InventoryDarkEnergyWave Pages: 1 -->
<svg width="200pt" height="484pt"
 viewBox="0.00 0.00 200.00 484.00" xmlns="http://www.w3.org/2000/svg" xmlns:xlink="http://www.w3.org/1999/xlink">
<g id="graph0" class="graph" transform="scale(1 1) rotate(0) translate(4 480)">
<title>InventoryDarkEnergyWave</title>
<!-- Node1 -->
<g id="Node000001" class="node">
<title>Node1</title>
<g id="a_Node000001"><a xlink:title=" ">
<polygon fill="#999999" stroke="none" points="159.5,-52 32.5,-52 32.5,0 159.5,0 159.5,-52"/>
<text text-anchor="start" x="37.5" y="-38.5" font-family="Helvetica,sans-Serif" font-size="10.00">InventoryDarkEnergyWave</text>
<text text-anchor="start" x="94.5" y="-22.5" font-family="Helvetica,sans-Serif" font-size="10.00"> </text>
<text text-anchor="start" x="39" y="-6.5" font-family="Helvetica,sans-Serif" font-size="10.00">+</text>
<text text-anchor="start" x="51.5" y="-6.5" font-family="Helvetica,sans-Serif" font-size="10.00">override void _Ready()</text>
<polygon fill="#666666" stroke="#666666" points="32.5,-34 32.5,-34 159.5,-34 159.5,-34 32.5,-34"/>
<polygon fill="#666666" stroke="#666666" points="32.5,-18 32.5,-18 159.5,-18 159.5,-18 32.5,-18"/>
<polygon fill="none" stroke="#666666" points="32.5,0 32.5,-52 159.5,-52 159.5,0 32.5,0"/>
</a>
</g>
</g>
<!-- Node2 -->
<g id="Node000002" class="node">
<title>Node2</title>
<g id="a_Node000002"><a xlink:href="../../d0/d1e/class_inventory_spell.html" target="_top" xlink:title=" ">
<polygon fill="white" stroke="none" points="192,-388 0,-388 0,-88 192,-88 192,-388"/>
<text text-anchor="start" x="64.88" y="-374.5" font-family="Helvetica,sans-Serif" font-size="10.00">InventorySpell</text>
<text text-anchor="start" x="4" y="-358.5" font-family="Helvetica,sans-Serif" font-size="10.00">+</text>
<text text-anchor="start" x="14" y="-358.5" font-family="Helvetica,sans-Serif" font-size="10.00">double CastTime</text>
<text text-anchor="start" x="4" y="-342.5" font-family="Helvetica,sans-Serif" font-size="10.00">+</text>
<text text-anchor="start" x="14" y="-342.5" font-family="Helvetica,sans-Serif" font-size="10.00">double CoolDown</text>
<text text-anchor="start" x="4" y="-326.5" font-family="Helvetica,sans-Serif" font-size="10.00">+</text>
<text text-anchor="start" x="14" y="-326.5" font-family="Helvetica,sans-Serif" font-size="10.00">double BaseDamage</text>
<text text-anchor="start" x="4" y="-310.5" font-family="Helvetica,sans-Serif" font-size="10.00">+</text>
<text text-anchor="start" x="14" y="-310.5" font-family="Helvetica,sans-Serif" font-size="10.00">double Damage</text>
<text text-anchor="start" x="4" y="-294.5" font-family="Helvetica,sans-Serif" font-size="10.00">+</text>
<text text-anchor="start" x="14" y="-294.5" font-family="Helvetica,sans-Serif" font-size="10.00">MagicType MagicType</text>
<text text-anchor="start" x="4.38" y="-278.5" font-family="Helvetica,sans-Serif" font-size="10.00">#</text>
<text text-anchor="start" x="14" y="-278.5" font-family="Helvetica,sans-Serif" font-size="10.00">HealthComponent _playerHealth</text>
<text text-anchor="start" x="14" y="-266.5" font-family="Helvetica,sans-Serif" font-size="10.00">Component</text>
<text text-anchor="start" x="4.38" y="-250.5" font-family="Helvetica,sans-Serif" font-size="10.00">#</text>
<text text-anchor="start" x="14" y="-250.5" font-family="Helvetica,sans-Serif" font-size="10.00">PackedScene _spellScene</text>
<text text-anchor="start" x="4" y="-234.5" font-family="Helvetica,sans-Serif" font-size="10.00">+</text>
<text text-anchor="start" x="14" y="-234.5" font-family="Helvetica,sans-Serif" font-size="10.00">override void _Ready()</text>
<text text-anchor="start" x="4" y="-218.5" font-family="Helvetica,sans-Serif" font-size="10.00">+</text>
<text text-anchor="start" x="14" y="-218.5" font-family="Helvetica,sans-Serif" font-size="10.00">virtual void Cast(Vector2</text>
<text text-anchor="start" x="14" y="-206.5" font-family="Helvetica,sans-Serif" font-size="10.00"> playerPosition, Vector2</text>
<text text-anchor="start" x="14" y="-194.5" font-family="Helvetica,sans-Serif" font-size="10.00"> targetPosition)</text>
<text text-anchor="start" x="4" y="-178.5" font-family="Helvetica,sans-Serif" font-size="10.00">+</text>
<text text-anchor="start" x="14" y="-178.5" font-family="Helvetica,sans-Serif" font-size="10.00">void ResetDamage()</text>
<text text-anchor="start" x="4" y="-162.5" font-family="Helvetica,sans-Serif" font-size="10.00">+</text>
<text text-anchor="start" x="14" y="-162.5" font-family="Helvetica,sans-Serif" font-size="10.00">void AddOnCastAugmentEffect</text>
<text text-anchor="start" x="14" y="-150.5" font-family="Helvetica,sans-Serif" font-size="10.00">(OnCastAugmentEffect onCastAugment</text>
<text text-anchor="start" x="14" y="-138.5" font-family="Helvetica,sans-Serif" font-size="10.00">Effect)</text>
<text text-anchor="start" x="4" y="-122.5" font-family="Helvetica,sans-Serif" font-size="10.00">+</text>
<text text-anchor="start" x="14" y="-122.5" font-family="Helvetica,sans-Serif" font-size="10.00">void ClearOnCastAugmentEffects()</text>
<text text-anchor="start" x="4" y="-106.5" font-family="Helvetica,sans-Serif" font-size="10.00">+</text>
<text text-anchor="start" x="14" y="-106.5" font-family="Helvetica,sans-Serif" font-size="10.00">List&lt; OnCastAugmentEffect</text>
<text text-anchor="start" x="14" y="-94.5" font-family="Helvetica,sans-Serif" font-size="10.00"> &gt; GetOnCastAugmentEffects()</text>
<polygon fill="#666666" stroke="#666666" points="0,-370 0,-370 192,-370 192,-370 0,-370"/>
<polygon fill="#666666" stroke="#666666" points="0,-246 0,-246 12,-246 12,-246 0,-246"/>
<polygon fill="#666666" stroke="#666666" points="12,-246 12,-246 192,-246 192,-246 12,-246"/>
<polygon fill="none" stroke="#666666" points="0,-88 0,-388 192,-388 192,-88 0,-88"/>
</a>
</g>
</g>
<!-- Node2&#45;&gt;Node1 -->
<g id="edge1_Node000001_Node000002" class="edge">
<title>Node2&#45;&gt;Node1</title>
<g id="a_edge1_Node000001_Node000002"><a xlink:title=" ">
<path fill="none" stroke="#63b8ff" d="M96,-76.79C96,-67.52 96,-59.05 96,-51.83"/>
<polygon fill="none" stroke="#63b8ff" points="92.5,-76.51 96,-86.51 99.5,-76.51 92.5,-76.51"/>
</a>
</g>
</g>
<!-- Node3 -->
<g id="Node000003" class="node">
<title>Node3</title>
<g id="a_Node000003"><a xlink:href="../../dc/d8f/class_node.html" target="_top" xlink:title=" ">
<polygon fill="white" stroke="none" points="112.5,-476 79.5,-476 79.5,-424 112.5,-424 112.5,-476"/>
<text text-anchor="start" x="84.38" y="-462.5" font-family="Helvetica,sans-Serif" font-size="10.00">Node</text>
<text text-anchor="start" x="94.5" y="-446.5" font-family="Helvetica,sans-Serif" font-size="10.00"> </text>
<text text-anchor="start" x="94.5" y="-430.5" font-family="Helvetica,sans-Serif" font-size="10.00"> </text>
<polygon fill="#666666" stroke="#666666" points="79.5,-458 79.5,-458 112.5,-458 112.5,-458 79.5,-458"/>
<polygon fill="#666666" stroke="#666666" points="79.5,-442 79.5,-442 112.5,-442 112.5,-442 79.5,-442"/>
<polygon fill="none" stroke="#666666" points="79.5,-424 79.5,-476 112.5,-476 112.5,-424 79.5,-424"/>
</a>
</g>
</g>
<!-- Node3&#45;&gt;Node2 -->
<g id="edge2_Node000002_Node000003" class="edge">
<title>Node3&#45;&gt;Node2</title>
<g id="a_edge2_Node000002_Node000003"><a xlink:title=" ">
<path fill="none" stroke="#63b8ff" d="M96,-412.58C96,-405.01 96,-396.6 96,-387.68"/>
<polygon fill="none" stroke="#63b8ff" points="92.5,-412.57 96,-422.57 99.5,-412.57 92.5,-412.57"/>
</a>
</g>
</g>
</g>
</svg>
