<?xml version="1.0" encoding="UTF-8" standalone="no"?>
<!DOCTYPE svg PUBLIC "-//W3C//DTD SVG 1.1//EN"
 "http://www.w3.org/Graphics/SVG/1.1/DTD/svg11.dtd">
<!-- Generated by graphviz version 12.1.0 (20240811.2233)
 -->
<!-- Title: MainMenu Pages: 1 -->
<svg width="274pt" height="550pt"
 viewBox="0.00 0.00 273.50 550.00" xmlns="http://www.w3.org/2000/svg" xmlns:xlink="http://www.w3.org/1999/xlink">
<g id="graph0" class="graph" transform="scale(1 1) rotate(0) translate(4 546)">
<title>MainMenu</title>
<!-- Node1 -->
<g id="Node000001" class="node">
<title>Node1</title>
<g id="a_Node000001"><a xlink:title=" ">
<polygon fill="#999999" stroke="none" points="141,-52 25,-52 25,0 141,0 141,-52"/>
<text text-anchor="start" x="60.5" y="-38.5" font-family="Helvetica,sans-Serif" font-size="10.00">MainMenu</text>
<text text-anchor="start" x="81.5" y="-22.5" font-family="Helvetica,sans-Serif" font-size="10.00"> </text>
<text text-anchor="start" x="29" y="-6.5" font-family="Helvetica,sans-Serif" font-size="10.00">+</text>
<text text-anchor="start" x="39" y="-6.5" font-family="Helvetica,sans-Serif" font-size="10.00">override void _Ready()</text>
<polygon fill="#666666" stroke="#666666" points="25,-34 25,-34 141,-34 141,-34 25,-34"/>
<polygon fill="#666666" stroke="#666666" points="25,-18 25,-18 141,-18 141,-18 25,-18"/>
<polygon fill="none" stroke="#666666" points="25,0 25,-52 141,-52 141,0 25,0"/>
</a>
</g>
</g>
<!-- Node2 -->
<g id="Node000002" class="node">
<title>Node2</title>
<g id="a_Node000002"><a xlink:href="../../d9/dc5/class_base_menu.html" target="_top" xlink:title=" ">
<polygon fill="white" stroke="none" points="166,-241 0,-241 0,-89 166,-89 166,-241"/>
<text text-anchor="start" x="59.75" y="-227.5" font-family="Helvetica,sans-Serif" font-size="10.00">BaseMenu</text>
<text text-anchor="start" x="4" y="-211.5" font-family="Helvetica,sans-Serif" font-size="10.00">+</text>
<text text-anchor="start" x="14" y="-211.5" font-family="Helvetica,sans-Serif" font-size="10.00">MenuManager.MenuType</text>
<text text-anchor="start" x="14" y="-199.5" font-family="Helvetica,sans-Serif" font-size="10.00"> MenuType</text>
<text text-anchor="start" x="4" y="-183.5" font-family="Helvetica,sans-Serif" font-size="10.00">+</text>
<text text-anchor="start" x="14" y="-183.5" font-family="Helvetica,sans-Serif" font-size="10.00">override void _Ready()</text>
<text text-anchor="start" x="4" y="-167.5" font-family="Helvetica,sans-Serif" font-size="10.00">+</text>
<text text-anchor="start" x="14" y="-167.5" font-family="Helvetica,sans-Serif" font-size="10.00">void PushMenu(MenuManager.</text>
<text text-anchor="start" x="14" y="-155.5" font-family="Helvetica,sans-Serif" font-size="10.00">MenuType newMenu)</text>
<text text-anchor="start" x="4" y="-139.5" font-family="Helvetica,sans-Serif" font-size="10.00">+</text>
<text text-anchor="start" x="14" y="-139.5" font-family="Helvetica,sans-Serif" font-size="10.00">void PopMenu()</text>
<text text-anchor="start" x="4" y="-123.5" font-family="Helvetica,sans-Serif" font-size="10.00">+</text>
<text text-anchor="start" x="14" y="-123.5" font-family="Helvetica,sans-Serif" font-size="10.00">void SetRootMenu(MenuManager.</text>
<text text-anchor="start" x="14" y="-111.5" font-family="Helvetica,sans-Serif" font-size="10.00">MenuType newMenu)</text>
<text text-anchor="start" x="4.38" y="-95.5" font-family="Helvetica,sans-Serif" font-size="10.00">#</text>
<text text-anchor="start" x="14" y="-95.5" font-family="Helvetica,sans-Serif" font-size="10.00">virtual void SetupMenu()</text>
<polygon fill="#666666" stroke="#666666" points="0,-223 0,-223 166,-223 166,-223 0,-223"/>
<polygon fill="#666666" stroke="#666666" points="0,-195 0,-195 12,-195 12,-195 0,-195"/>
<polygon fill="#666666" stroke="#666666" points="12,-195 12,-195 166,-195 166,-195 12,-195"/>
<polygon fill="none" stroke="#666666" points="0,-89 0,-241 166,-241 166,-89 0,-89"/>
</a>
</g>
</g>
<!-- Node2&#45;&gt;Node1 -->
<g id="edge1_Node000001_Node000002" class="edge">
<title>Node2&#45;&gt;Node1</title>
<g id="a_edge1_Node000001_Node000002"><a xlink:title=" ">
<path fill="none" stroke="#63b8ff" d="M83,-77.83C83,-68.39 83,-59.42 83,-51.73"/>
<polygon fill="none" stroke="#63b8ff" points="79.5,-77.57 83,-87.57 86.5,-77.57 79.5,-77.57"/>
</a>
</g>
</g>
<!-- Node3 -->
<g id="Node000003" class="node">
<title>Node3</title>
<g id="a_Node000003"><a xlink:href="../../d4/dc3/class_canvas_layer.html" target="_top" xlink:title=" ">
<polygon fill="white" stroke="none" points="74.5,-397 7.5,-397 7.5,-345 74.5,-345 74.5,-397"/>
<text text-anchor="start" x="12.12" y="-383.5" font-family="Helvetica,sans-Serif" font-size="10.00">CanvasLayer</text>
<text text-anchor="start" x="39.5" y="-367.5" font-family="Helvetica,sans-Serif" font-size="10.00"> </text>
<text text-anchor="start" x="39.5" y="-351.5" font-family="Helvetica,sans-Serif" font-size="10.00"> </text>
<polygon fill="#666666" stroke="#666666" points="7.5,-379 7.5,-379 74.5,-379 74.5,-379 7.5,-379"/>
<polygon fill="#666666" stroke="#666666" points="7.5,-363 7.5,-363 74.5,-363 74.5,-363 7.5,-363"/>
<polygon fill="none" stroke="#666666" points="7.5,-345 7.5,-397 74.5,-397 74.5,-345 7.5,-345"/>
</a>
</g>
</g>
<!-- Node3&#45;&gt;Node2 -->
<g id="edge2_Node000002_Node000003" class="edge">
<title>Node3&#45;&gt;Node2</title>
<g id="a_edge2_Node000002_Node000003"><a xlink:title=" ">
<path fill="none" stroke="#63b8ff" d="M48.35,-334.29C53.67,-308.48 61.03,-272.69 67.61,-240.74"/>
<polygon fill="none" stroke="#63b8ff" points="44.96,-333.41 46.37,-343.91 51.82,-334.82 44.96,-333.41"/>
</a>
</g>
</g>
<!-- Node4 -->
<g id="Node000004" class="node">
<title>Node4</title>
<g id="a_Node000004"><a xlink:href="../../d9/db2/class_menu_manager.html" target="_top" xlink:title=" ">
<polygon fill="white" stroke="none" points="265.5,-453 92.5,-453 92.5,-289 265.5,-289 265.5,-453"/>
<text text-anchor="start" x="148.25" y="-439.5" font-family="Helvetica,sans-Serif" font-size="10.00">MenuManager</text>
<text text-anchor="start" x="96.5" y="-423.5" font-family="Helvetica,sans-Serif" font-size="10.00">+</text>
<text text-anchor="start" x="106.5" y="-423.5" font-family="Helvetica,sans-Serif" font-size="10.00">MenuType CurrentMenu</text>
<text text-anchor="start" x="96.5" y="-407.5" font-family="Helvetica,sans-Serif" font-size="10.00">+</text>
<text text-anchor="start" x="106.5" y="-407.5" font-family="Helvetica,sans-Serif" font-size="10.00">delegate void MenuChanged</text>
<text text-anchor="start" x="106.5" y="-395.5" font-family="Helvetica,sans-Serif" font-size="10.00">EventHandler(MenuType newMenu,</text>
<text text-anchor="start" x="106.5" y="-383.5" font-family="Helvetica,sans-Serif" font-size="10.00"> bool isPush)</text>
<text text-anchor="start" x="96.5" y="-367.5" font-family="Helvetica,sans-Serif" font-size="10.00">+</text>
<text text-anchor="start" x="106.5" y="-367.5" font-family="Helvetica,sans-Serif" font-size="10.00">override void _Ready()</text>
<text text-anchor="start" x="96.5" y="-351.5" font-family="Helvetica,sans-Serif" font-size="10.00">+</text>
<text text-anchor="start" x="106.5" y="-351.5" font-family="Helvetica,sans-Serif" font-size="10.00">void PushMenu(MenuType</text>
<text text-anchor="start" x="106.5" y="-339.5" font-family="Helvetica,sans-Serif" font-size="10.00"> newMenu)</text>
<text text-anchor="start" x="96.5" y="-323.5" font-family="Helvetica,sans-Serif" font-size="10.00">+</text>
<text text-anchor="start" x="106.5" y="-323.5" font-family="Helvetica,sans-Serif" font-size="10.00">void PopMenu()</text>
<text text-anchor="start" x="96.5" y="-307.5" font-family="Helvetica,sans-Serif" font-size="10.00">+</text>
<text text-anchor="start" x="106.5" y="-307.5" font-family="Helvetica,sans-Serif" font-size="10.00">void SetRootMenu(MenuType</text>
<text text-anchor="start" x="106.5" y="-295.5" font-family="Helvetica,sans-Serif" font-size="10.00"> newMenu)</text>
<polygon fill="#666666" stroke="#666666" points="92.5,-435 92.5,-435 265.5,-435 265.5,-435 92.5,-435"/>
<polygon fill="#666666" stroke="#666666" points="92.5,-419 92.5,-419 104.5,-419 104.5,-419 92.5,-419"/>
<polygon fill="#666666" stroke="#666666" points="104.5,-419 104.5,-419 265.5,-419 265.5,-419 104.5,-419"/>
<polygon fill="none" stroke="#666666" points="92.5,-289 92.5,-453 265.5,-453 265.5,-289 92.5,-289"/>
</a>
</g>
</g>
<!-- Node4&#45;&gt;Node2 -->
<g id="edge3_Node000002_Node000004" class="edge">
<title>Node4&#45;&gt;Node2</title>
<g id="a_edge3_Node000002_Node000004"><a xlink:title=" ">
<path fill="none" stroke="#63b8ff" d="M140.92,-289.08C135.25,-277.03 129.38,-264.56 123.66,-252.4"/>
<polygon fill="none" stroke="#63b8ff" points="123.72,-252.53 117.54,-248.8 118.61,-241.67 124.78,-245.39 123.72,-252.53"/>
</a>
</g>
<text text-anchor="middle" x="165.88" y="-261.5" font-family="Helvetica,sans-Serif" font-size="10.00" fill="grey"> #MenuManager</text>
</g>
<!-- Node5 -->
<g id="Node000005" class="node">
<title>Node5</title>
<g id="a_Node000005"><a xlink:href="../../dc/d8f/class_node.html" target="_top" xlink:title=" ">
<polygon fill="white" stroke="none" points="195.5,-542 162.5,-542 162.5,-490 195.5,-490 195.5,-542"/>
<text text-anchor="start" x="167.38" y="-528.5" font-family="Helvetica,sans-Serif" font-size="10.00">Node</text>
<text text-anchor="start" x="177.5" y="-512.5" font-family="Helvetica,sans-Serif" font-size="10.00"> </text>
<text text-anchor="start" x="177.5" y="-496.5" font-family="Helvetica,sans-Serif" font-size="10.00"> </text>
<polygon fill="#666666" stroke="#666666" points="162.5,-524 162.5,-524 195.5,-524 195.5,-524 162.5,-524"/>
<polygon fill="#666666" stroke="#666666" points="162.5,-508 162.5,-508 195.5,-508 195.5,-508 162.5,-508"/>
<polygon fill="none" stroke="#666666" points="162.5,-490 162.5,-542 195.5,-542 195.5,-490 162.5,-490"/>
</a>
</g>
</g>
<!-- Node5&#45;&gt;Node4 -->
<g id="edge4_Node000004_Node000005" class="edge">
<title>Node5&#45;&gt;Node4</title>
<g id="a_edge4_Node000004_Node000005"><a xlink:title=" ">
<path fill="none" stroke="#63b8ff" d="M179,-478.61C179,-470.61 179,-461.82 179,-452.83"/>
<polygon fill="none" stroke="#63b8ff" points="175.5,-478.58 179,-488.58 182.5,-478.58 175.5,-478.58"/>
</a>
</g>
</g>
</g>
</svg>
