<?xml version="1.0" encoding="UTF-8" standalone="no"?>
<!DOCTYPE svg PUBLIC "-//W3C//DTD SVG 1.1//EN"
 "http://www.w3.org/Graphics/SVG/1.1/DTD/svg11.dtd">
<!-- Generated by graphviz version 12.1.0 (20240811.2233)
 -->
<!-- Title: InventoryItem Pages: 1 -->
<!--zoomable 573 -->

<svg id="main" version="1.1" xmlns="http://www.w3.org/2000/svg" xmlns:xlink="http://www.w3.org/1999/xlink" xml:space="preserve" onload="init(evt)">
<style type="text/css"><![CDATA[
.node, .edge {opacity: 0.7;}
.node.selected, .edge.selected {opacity: 1;}
.edge:hover path { stroke: red; }
.edge:hover polygon { stroke: red; fill: red; }
]]></style>

<defs>
  <circle id="rim" cx="0" cy="0" r="7"/>
  <circle id="rim2" cx="0" cy="0" r="3.5"/>
  <g id="zoomPlus">
    <use xlink:href="#rim" fill="#404040"><set attributeName="fill" to="#808080" begin="zoomplus.mouseover" end="zoomplus.mouseout"/></use>
    <path d="M-4,0h8M0,-4v8" fill="none" stroke="white" stroke-width="1.5" pointer-events="none"/>
  </g>
  <g id="zoomMin">
    <use xlink:href="#rim" fill="#404040"><set attributeName="fill" to="#808080" begin="zoomminus.mouseover" end="zoomminus.mouseout"/></use>
    <path d="M-4,0h8" fill="none" stroke="white" stroke-width="1.5" pointer-events="none"/>
  </g>
  <g id="arrowUp" transform="translate(30 24)">
    <use xlink:href="#rim"/>
    <path pointer-events="none" fill="none" stroke="white" stroke-width="1.5" d="M0,-3.0v7 M-2.5,-0.5L0,-3.0L2.5,-0.5"/>
  </g>
  <g id="arrowRight" transform="rotate(90) translate(36 -43)">
    <use xlink:href="#rim"/>
    <path pointer-events="none" fill="none" stroke="white" stroke-width="1.5" d="M0,-3.0v7 M-2.5,-0.5L0,-3.0L2.5,-0.5"/>
  </g>
  <g id="arrowDown" transform="rotate(180) translate(-30 -48)">
    <use xlink:href="#rim"/>
    <path pointer-events="none" fill="none" stroke="white" stroke-width="1.5" d="M0,-3.0v7 M-2.5,-0.5L0,-3.0L2.5,-0.5"/>
  </g>
  <g id="arrowLeft" transform="rotate(270) translate(-36 17)">
    <use xlink:href="#rim"/>
    <path pointer-events="none" fill="none" stroke="white" stroke-width="1.5" d="M0,-3.0v7 M-2.5,-0.5L0,-3.0L2.5,-0.5"/>
  </g>
  <g id="resetDef">
    <use xlink:href="#rim2" fill="#404040"><set attributeName="fill" to="#808080" begin="reset.mouseover" end="reset.mouseout"/></use>
  </g>
</defs>
<script type="application/ecmascript">
var viewWidth = 324;
var viewHeight = 573;
var sectionId = 'dynsection-1';
</script>
<script type="application/ecmascript" xlink:href="../../svg.min.js"/>
<svg id="graph" class="graph">
<g id="viewport">
<title>InventoryItem</title>
<!-- Node1 -->
<g id="Node000001" class="node">
<title>Node1</title>
<g id="a_Node000001"><a xlink:title=" ">
<polygon fill="#999999" stroke="none" points="130,-96 0,-96 0,0 130,0 130,-96"/>
<text text-anchor="start" x="35" y="-82.5" font-family="Helvetica,sans-Serif" font-size="10.00">InventoryItem</text>
<text text-anchor="start" x="63.5" y="-66.5" font-family="Helvetica,sans-Serif" font-size="10.00"> </text>
<text text-anchor="start" x="4" y="-50.5" font-family="Helvetica,sans-Serif" font-size="10.00">+</text>
<text text-anchor="start" x="14" y="-50.5" font-family="Helvetica,sans-Serif" font-size="10.00">override void _Ready()</text>
<text text-anchor="start" x="4" y="-34.5" font-family="Helvetica,sans-Serif" font-size="10.00">+</text>
<text text-anchor="start" x="14" y="-34.5" font-family="Helvetica,sans-Serif" font-size="10.00">override Variant _GetDrag</text>
<text text-anchor="start" x="14" y="-22.5" font-family="Helvetica,sans-Serif" font-size="10.00">Data(Vector2 atPosition)</text>
<text text-anchor="start" x="4" y="-6.5" font-family="Helvetica,sans-Serif" font-size="10.00">+</text>
<text text-anchor="start" x="14" y="-6.5" font-family="Helvetica,sans-Serif" font-size="10.00">void RebuildDescription()</text>
<polygon fill="#666666" stroke="#666666" points="0,-78 0,-78 130,-78 130,-78 0,-78"/>
<polygon fill="#666666" stroke="#666666" points="0,-62 0,-62 130,-62 130,-62 0,-62"/>
<polygon fill="none" stroke="#666666" points="0,0 0,-96 130,-96 130,0 0,0"/>
</a>
</g>
</g>
<!-- Node2 -->
<g id="Node000002" class="node">
<title>Node2</title>
<g id="a_Node000002"><a xlink:href="../../de/d15/class_texture_rect.html" target="_top" xlink:title=" ">
<polygon fill="white" stroke="none" points="80.5,-258 17.5,-258 17.5,-206 80.5,-206 80.5,-258"/>
<text text-anchor="start" x="22.38" y="-244.5" font-family="Helvetica,sans-Serif" font-size="10.00">TextureRect</text>
<text text-anchor="start" x="47.5" y="-228.5" font-family="Helvetica,sans-Serif" font-size="10.00"> </text>
<text text-anchor="start" x="47.5" y="-212.5" font-family="Helvetica,sans-Serif" font-size="10.00"> </text>
<polygon fill="#666666" stroke="#666666" points="17.5,-240 17.5,-240 80.5,-240 80.5,-240 17.5,-240"/>
<polygon fill="#666666" stroke="#666666" points="17.5,-224 17.5,-224 80.5,-224 80.5,-224 17.5,-224"/>
<polygon fill="none" stroke="#666666" points="17.5,-206 17.5,-258 80.5,-258 80.5,-206 17.5,-206"/>
</a>
</g>
</g>
<!-- Node2&#45;&gt;Node1 -->
<g id="edge1_Node000001_Node000002" class="edge">
<title>Node2&#45;&gt;Node1</title>
<g id="a_edge1_Node000001_Node000002"><a xlink:title=" ">
<path fill="none" stroke="#63b8ff" d="M52.2,-194.64C54.7,-166.21 58.19,-126.48 60.89,-95.7"/>
<polygon fill="none" stroke="#63b8ff" points="48.71,-194.3 51.32,-204.57 55.69,-194.91 48.71,-194.3"/>
</a>
</g>
</g>
<!-- Node3 -->
<g id="Node000003" class="node">
<title>Node3</title>
<g id="a_Node000003"><a xlink:href="../../de/d8a/class_augment.html" target="_top" xlink:title=" ">
<polygon fill="white" stroke="none" points="239,-320 99,-320 99,-144 239,-144 239,-320"/>
<text text-anchor="start" x="149.5" y="-306.5" font-family="Helvetica,sans-Serif" font-size="10.00">Augment</text>
<text text-anchor="start" x="167.5" y="-290.5" font-family="Helvetica,sans-Serif" font-size="10.00"> </text>
<text text-anchor="start" x="103" y="-274.5" font-family="Helvetica,sans-Serif" font-size="10.00">+</text>
<text text-anchor="start" x="113" y="-274.5" font-family="Helvetica,sans-Serif" font-size="10.00">void Equip(SceneTree</text>
<text text-anchor="start" x="113" y="-262.5" font-family="Helvetica,sans-Serif" font-size="10.00"> sceneTree)</text>
<text text-anchor="start" x="103" y="-246.5" font-family="Helvetica,sans-Serif" font-size="10.00">+</text>
<text text-anchor="start" x="113" y="-246.5" font-family="Helvetica,sans-Serif" font-size="10.00">void UnEquip(SceneTree</text>
<text text-anchor="start" x="113" y="-234.5" font-family="Helvetica,sans-Serif" font-size="10.00"> sceneTree)</text>
<text text-anchor="start" x="103" y="-218.5" font-family="Helvetica,sans-Serif" font-size="10.00">+</text>
<text text-anchor="start" x="113" y="-218.5" font-family="Helvetica,sans-Serif" font-size="10.00">void BuildDescription()</text>
<text text-anchor="start" x="103" y="-202.5" font-family="Helvetica,sans-Serif" font-size="10.00">+</text>
<text text-anchor="start" x="113" y="-202.5" font-family="Helvetica,sans-Serif" font-size="10.00">AugmentEffect GetAugment</text>
<text text-anchor="start" x="113" y="-190.5" font-family="Helvetica,sans-Serif" font-size="10.00">Effect(int index)</text>
<text text-anchor="start" x="103" y="-174.5" font-family="Helvetica,sans-Serif" font-size="10.00">+</text>
<text text-anchor="start" x="113" y="-174.5" font-family="Helvetica,sans-Serif" font-size="10.00">void SetAugmentEffect</text>
<text text-anchor="start" x="113" y="-162.5" font-family="Helvetica,sans-Serif" font-size="10.00">(int index, AugmentEffect</text>
<text text-anchor="start" x="113" y="-150.5" font-family="Helvetica,sans-Serif" font-size="10.00"> augmentEffect)</text>
<polygon fill="#666666" stroke="#666666" points="99,-302 99,-302 239,-302 239,-302 99,-302"/>
<polygon fill="#666666" stroke="#666666" points="99,-286 99,-286 239,-286 239,-286 99,-286"/>
<polygon fill="none" stroke="#666666" points="99,-144 99,-320 239,-320 239,-144 99,-144"/>
</a>
</g>
</g>
<!-- Node3&#45;&gt;Node1 -->
<g id="edge2_Node000001_Node000003" class="edge">
<title>Node3&#45;&gt;Node1</title>
<g id="a_edge2_Node000001_Node000003"><a xlink:title=" ">
<path fill="none" stroke="#63b8ff" d="M119.44,-144.26C112.22,-131.64 104.94,-118.9 98.16,-107.03"/>
<polygon fill="none" stroke="#63b8ff" points="98.23,-107.15 91.78,-103.92 92.27,-96.73 98.72,-99.95 98.23,-107.15"/>
</a>
</g>
<text text-anchor="middle" x="131.68" y="-116.5" font-family="Helvetica,sans-Serif" font-size="10.00" fill="grey"> +Augment</text>
</g>
<!-- Node4 -->
<g id="Node000004" class="node">
<title>Node4</title>
<g id="a_Node000004"><a xlink:href="../../df/d00/class_resource.html" target="_top" xlink:title=" ">
<polygon fill="white" stroke="none" points="117,-565 65,-565 65,-513 117,-513 117,-565"/>
<text text-anchor="start" x="70" y="-551.5" font-family="Helvetica,sans-Serif" font-size="10.00">Resource</text>
<text text-anchor="start" x="89.5" y="-535.5" font-family="Helvetica,sans-Serif" font-size="10.00"> </text>
<text text-anchor="start" x="89.5" y="-519.5" font-family="Helvetica,sans-Serif" font-size="10.00"> </text>
<polygon fill="#666666" stroke="#666666" points="65,-547 65,-547 117,-547 117,-547 65,-547"/>
<polygon fill="#666666" stroke="#666666" points="65,-531 65,-531 117,-531 117,-531 65,-531"/>
<polygon fill="none" stroke="#666666" points="65,-513 65,-565 117,-565 117,-513 65,-513"/>
</a>
</g>
</g>
<!-- Node4&#45;&gt;Node3 -->
<g id="edge3_Node000003_Node000004" class="edge">
<title>Node4&#45;&gt;Node3</title>
<g id="a_edge3_Node000003_Node000004"><a xlink:title=" ">
<path fill="none" stroke="#63b8ff" d="M87.97,-502.23C86.06,-467.35 85.87,-413.11 98,-368 102.37,-351.76 108.93,-335.27 116.34,-319.66"/>
<polygon fill="none" stroke="#63b8ff" points="84.45,-502.01 88.57,-511.77 91.43,-501.57 84.45,-502.01"/>
</a>
</g>
</g>
<!-- Node6 -->
<g id="Node000006" class="node">
<title>Node6</title>
<g id="a_Node000006"><a xlink:href="../../d5/d2b/class_augment_effect.html" target="_top" xlink:title=" ">
<polygon fill="white" stroke="none" points="236.5,-476 107.5,-476 107.5,-368 236.5,-368 236.5,-476"/>
<text text-anchor="start" x="139.75" y="-462.5" font-family="Helvetica,sans-Serif" font-size="10.00">AugmentEffect</text>
<text text-anchor="start" x="170.5" y="-446.5" font-family="Helvetica,sans-Serif" font-size="10.00"> </text>
<text text-anchor="start" x="111.5" y="-430.5" font-family="Helvetica,sans-Serif" font-size="10.00">+</text>
<text text-anchor="start" x="121.5" y="-430.5" font-family="Helvetica,sans-Serif" font-size="10.00">virtual void Equip</text>
<text text-anchor="start" x="121.5" y="-418.5" font-family="Helvetica,sans-Serif" font-size="10.00">(SceneTree sceneTree)</text>
<text text-anchor="start" x="111.5" y="-402.5" font-family="Helvetica,sans-Serif" font-size="10.00">+</text>
<text text-anchor="start" x="121.5" y="-402.5" font-family="Helvetica,sans-Serif" font-size="10.00">virtual void UnEquip</text>
<text text-anchor="start" x="121.5" y="-390.5" font-family="Helvetica,sans-Serif" font-size="10.00">(SceneTree sceneTree)</text>
<text text-anchor="start" x="111.5" y="-374.5" font-family="Helvetica,sans-Serif" font-size="10.00">+</text>
<text text-anchor="start" x="121.5" y="-374.5" font-family="Helvetica,sans-Serif" font-size="10.00">virtual string Description()</text>
<polygon fill="#666666" stroke="#666666" points="107.5,-458 107.5,-458 236.5,-458 236.5,-458 107.5,-458"/>
<polygon fill="#666666" stroke="#666666" points="107.5,-442 107.5,-442 236.5,-442 236.5,-442 107.5,-442"/>
<polygon fill="none" stroke="#666666" points="107.5,-368 107.5,-476 236.5,-476 236.5,-368 107.5,-368"/>
</a>
</g>
</g>
<!-- Node4&#45;&gt;Node6 -->
<g id="edge6_Node000006_Node000004" class="edge">
<title>Node4&#45;&gt;Node6</title>
<g id="a_edge6_Node000006_Node000004"><a xlink:title=" ">
<path fill="none" stroke="#63b8ff" d="M115.05,-503.86C121.27,-495.03 128.11,-485.31 134.84,-475.76"/>
<polygon fill="none" stroke="#63b8ff" points="112.34,-501.62 109.45,-511.81 118.07,-505.65 112.34,-501.62"/>
</a>
</g>
</g>
<!-- Node5 -->
<g id="Node000005" class="node">
<title>Node5</title>
<g id="a_Node000005"><a xlink:title=" ">
<polygon fill="white" stroke="none" points="292,-448 258,-448 258,-396 292,-396 292,-448"/>
<text text-anchor="start" x="263" y="-434.5" font-family="Helvetica,sans-Serif" font-size="10.00">string</text>
<text text-anchor="start" x="273.5" y="-418.5" font-family="Helvetica,sans-Serif" font-size="10.00"> </text>
<text text-anchor="start" x="273.5" y="-402.5" font-family="Helvetica,sans-Serif" font-size="10.00"> </text>
<polygon fill="#666666" stroke="#666666" points="258,-430 258,-430 292,-430 292,-430 258,-430"/>
<polygon fill="#666666" stroke="#666666" points="258,-414 258,-414 292,-414 292,-414 258,-414"/>
<polygon fill="none" stroke="#666666" points="258,-396 258,-448 292,-448 292,-396 258,-396"/>
</a>
</g>
</g>
<!-- Node5&#45;&gt;Node3 -->
<g id="edge4_Node000003_Node000005" class="edge">
<title>Node5&#45;&gt;Node3</title>
<g id="a_edge4_Node000003_Node000005"><a xlink:title=" ">
<path fill="none" stroke="#63b8ff" d="M271.19,-396.06C267.93,-379.05 262.26,-356.37 253,-338 250.76,-333.55 248.31,-329.12 245.7,-324.73"/>
<polygon fill="none" stroke="#63b8ff" points="245.77,-324.84 239.19,-321.88 239.39,-314.67 245.97,-317.63 245.77,-324.84"/>
</a>
</g>
<text text-anchor="middle" x="287.04" y="-340.5" font-family="Helvetica,sans-Serif" font-size="10.00" fill="grey"> +Description</text>
</g>
<!-- Node6&#45;&gt;Node3 -->
<g id="edge5_Node000003_Node000006" class="edge">
<title>Node6&#45;&gt;Node3</title>
<g id="a_edge5_Node000003_Node000006"><a xlink:title=" ">
<path fill="none" stroke="#63b8ff" d="M170.84,-368.27C170.72,-362.11 170.6,-355.92 170.5,-350 170.4,-344.36 170.31,-338.57 170.22,-332.73"/>
<polygon fill="none" stroke="#63b8ff" points="170.22,-332.79 166.14,-326.85 170.05,-320.8 174.14,-326.74 170.22,-332.79"/>
</a>
</g>
<text text-anchor="middle" x="211.75" y="-340.5" font-family="Helvetica,sans-Serif" font-size="10.00" fill="grey"> +_augmentEffects</text>
</g>
</g>
</svg>

<g id="navigator" transform="translate(0 0)" fill="#404254">
  <rect fill="#f2f5e9" fill-opacity="0.5" stroke="#606060" stroke-width=".5" x="0" y="0" width="60" height="60"/>
  <use id="zoomplus" xlink:href="#zoomPlus" x="17" y="9" onmousedown="handleZoom(evt,'in')"/>
  <use id="zoomminus" xlink:href="#zoomMin" x="42" y="9" onmousedown="handleZoom(evt,'out')"/>
  <use id="reset" xlink:href="#resetDef" x="30" y="36" onmousedown="handleReset()"/>
   <use id="arrowup" xlink:href="#arrowUp" x="0" y="0" onmousedown="handlePan(0,-1)"/>
  <use id="arrowright" xlink:href="#arrowRight" x="0" y="0" onmousedown="handlePan(1,0)"/>
  <use id="arrowdown" xlink:href="#arrowDown" x="0" y="0" onmousedown="handlePan(0,1)"/>
  <use id="arrowleft" xlink:href="#arrowLeft" x="0" y="0" onmousedown="handlePan(-1,0)"/>
</g>
<svg viewBox="0 0 15 15" width="100%" height="30px" preserveAspectRatio="xMaxYMin meet">
 <g id="arrow_out" transform="scale(0.3 0.3)">
  <a xlink:href="class_inventory_item__coll__graph_org.svg" target="_base">
   <rect id="button" ry="5" rx="5" y="6" x="6" height="38" width="38"
        fill="#f2f5e9" fill-opacity="0.5" stroke="#606060" stroke-width="1.0"/>
   <path id="arrow"
     d="M 11.500037,31.436501 C 11.940474,20.09759 22.043105,11.32322 32.158766,21.979434 L 37.068811,17.246167 C 37.068811,17.246167 37.088388,32 37.088388,32 L 22.160133,31.978069 C 22.160133,31.978069 26.997745,27.140456 26.997745,27.140456 C 18.528582,18.264221 13.291696,25.230495 11.500037,31.436501 z"
     style="fill:#404040;"/>
  </a>
 </g>
</svg>

<style type='text/css'>
<![CDATA[
[data-mouse-over-selected='false'] { opacity: 0.7; }
[data-mouse-over-selected='true']  { opacity: 1.0; }
]]>
</style>
<script type="application/ecmascript"><![CDATA[
document.addEventListener('DOMContentLoaded', (event) => {
  highlightEdges();
  highlightAdjacentNodes();
});
]]></script>
</svg>
