<?xml version="1.0" encoding="UTF-8" standalone="no"?>
<!DOCTYPE svg PUBLIC "-//W3C//DTD SVG 1.1//EN"
 "http://www.w3.org/Graphics/SVG/1.1/DTD/svg11.dtd">
<!-- Generated by graphviz version 12.1.0 (20240811.2233)
 -->
<!-- Title: OnCastAugmentEffect Pages: 1 -->
<svg width="137pt" height="328pt"
 viewBox="0.00 0.00 137.00 328.00" xmlns="http://www.w3.org/2000/svg" xmlns:xlink="http://www.w3.org/1999/xlink">
<g id="graph0" class="graph" transform="scale(1 1) rotate(0) translate(4 324)">
<title>OnCastAugmentEffect</title>
<!-- Node1 -->
<g id="Node000001" class="node">
<title>Node1</title>
<g id="a_Node000001"><a xlink:title=" ">
<polygon fill="#999999" stroke="none" points="125,-88 4,-88 4,0 125,0 125,-88"/>
<text text-anchor="start" x="15.38" y="-74.5" font-family="Helvetica,sans-Serif" font-size="10.00">OnCastAugmentEffect</text>
<text text-anchor="start" x="63" y="-58.5" font-family="Helvetica,sans-Serif" font-size="10.00"> </text>
<text text-anchor="start" x="8" y="-42.5" font-family="Helvetica,sans-Serif" font-size="10.00">+</text>
<text text-anchor="start" x="18" y="-42.5" font-family="Helvetica,sans-Serif" font-size="10.00">virtual void OnCast</text>
<text text-anchor="start" x="18" y="-30.5" font-family="Helvetica,sans-Serif" font-size="10.00">(Spell spell, Vector2</text>
<text text-anchor="start" x="18" y="-18.5" font-family="Helvetica,sans-Serif" font-size="10.00"> playerPosition, Vector2</text>
<text text-anchor="start" x="18" y="-6.5" font-family="Helvetica,sans-Serif" font-size="10.00"> targetPosition)</text>
<polygon fill="#666666" stroke="#666666" points="4,-70 4,-70 125,-70 125,-70 4,-70"/>
<polygon fill="#666666" stroke="#666666" points="4,-54 4,-54 125,-54 125,-54 4,-54"/>
<polygon fill="none" stroke="#666666" points="4,0 4,-88 125,-88 125,0 4,0"/>
</a>
</g>
</g>
<!-- Node2 -->
<g id="Node000002" class="node">
<title>Node2</title>
<g id="a_Node000002"><a xlink:href="../../d5/d2b/class_augment_effect.html" target="_top" xlink:title=" ">
<polygon fill="white" stroke="none" points="129,-232 0,-232 0,-124 129,-124 129,-232"/>
<text text-anchor="start" x="32.25" y="-218.5" font-family="Helvetica,sans-Serif" font-size="10.00">AugmentEffect</text>
<text text-anchor="start" x="63" y="-202.5" font-family="Helvetica,sans-Serif" font-size="10.00"> </text>
<text text-anchor="start" x="4" y="-186.5" font-family="Helvetica,sans-Serif" font-size="10.00">+</text>
<text text-anchor="start" x="14" y="-186.5" font-family="Helvetica,sans-Serif" font-size="10.00">virtual void Equip</text>
<text text-anchor="start" x="14" y="-174.5" font-family="Helvetica,sans-Serif" font-size="10.00">(SceneTree sceneTree)</text>
<text text-anchor="start" x="4" y="-158.5" font-family="Helvetica,sans-Serif" font-size="10.00">+</text>
<text text-anchor="start" x="14" y="-158.5" font-family="Helvetica,sans-Serif" font-size="10.00">virtual void UnEquip</text>
<text text-anchor="start" x="14" y="-146.5" font-family="Helvetica,sans-Serif" font-size="10.00">(SceneTree sceneTree)</text>
<text text-anchor="start" x="4" y="-130.5" font-family="Helvetica,sans-Serif" font-size="10.00">+</text>
<text text-anchor="start" x="14" y="-130.5" font-family="Helvetica,sans-Serif" font-size="10.00">virtual string Description()</text>
<polygon fill="#666666" stroke="#666666" points="0,-214 0,-214 129,-214 129,-214 0,-214"/>
<polygon fill="#666666" stroke="#666666" points="0,-198 0,-198 129,-198 129,-198 0,-198"/>
<polygon fill="none" stroke="#666666" points="0,-124 0,-232 129,-232 129,-124 0,-124"/>
</a>
</g>
</g>
<!-- Node2&#45;&gt;Node1 -->
<g id="edge1_Node000001_Node000002" class="edge">
<title>Node2&#45;&gt;Node1</title>
<g id="a_edge1_Node000001_Node000002"><a xlink:title=" ">
<path fill="none" stroke="#63b8ff" d="M64.5,-112.65C64.5,-104.22 64.5,-95.75 64.5,-87.8"/>
<polygon fill="none" stroke="#63b8ff" points="61,-112.56 64.5,-122.56 68,-112.56 61,-112.56"/>
</a>
</g>
</g>
<!-- Node3 -->
<g id="Node000003" class="node">
<title>Node3</title>
<g id="a_Node000003"><a xlink:href="../../df/d00/class_resource.html" target="_top" xlink:title=" ">
<polygon fill="white" stroke="none" points="90.5,-320 38.5,-320 38.5,-268 90.5,-268 90.5,-320"/>
<text text-anchor="start" x="43.5" y="-306.5" font-family="Helvetica,sans-Serif" font-size="10.00">Resource</text>
<text text-anchor="start" x="63" y="-290.5" font-family="Helvetica,sans-Serif" font-size="10.00"> </text>
<text text-anchor="start" x="63" y="-274.5" font-family="Helvetica,sans-Serif" font-size="10.00"> </text>
<polygon fill="#666666" stroke="#666666" points="38.5,-302 38.5,-302 90.5,-302 90.5,-302 38.5,-302"/>
<polygon fill="#666666" stroke="#666666" points="38.5,-286 38.5,-286 90.5,-286 90.5,-286 38.5,-286"/>
<polygon fill="none" stroke="#666666" points="38.5,-268 38.5,-320 90.5,-320 90.5,-268 38.5,-268"/>
</a>
</g>
</g>
<!-- Node3&#45;&gt;Node2 -->
<g id="edge2_Node000002_Node000003" class="edge">
<title>Node3&#45;&gt;Node2</title>
<g id="a_edge2_Node000002_Node000003"><a xlink:title=" ">
<path fill="none" stroke="#63b8ff" d="M64.5,-256.77C64.5,-248.81 64.5,-240.23 64.5,-231.77"/>
<polygon fill="none" stroke="#63b8ff" points="61,-256.75 64.5,-266.75 68,-256.75 61,-256.75"/>
</a>
</g>
</g>
</g>
</svg>
