<?xml version="1.0" encoding="UTF-8" standalone="no"?>
<!DOCTYPE svg PUBLIC "-//W3C//DTD SVG 1.1//EN"
 "http://www.w3.org/Graphics/SVG/1.1/DTD/svg11.dtd">
<!-- Generated by graphviz version 12.1.0 (20240811.2233)
 -->
<!-- Title: Resource Pages: 1 -->
<!--zoomable 612 -->

<svg id="main" version="1.1" xmlns="http://www.w3.org/2000/svg" xmlns:xlink="http://www.w3.org/1999/xlink" xml:space="preserve" onload="init(evt)">
<style type="text/css"><![CDATA[
.node, .edge {opacity: 0.7;}
.node.selected, .edge.selected {opacity: 1;}
.edge:hover path { stroke: red; }
.edge:hover polygon { stroke: red; fill: red; }
]]></style>

<defs>
  <circle id="rim" cx="0" cy="0" r="7"/>
  <circle id="rim2" cx="0" cy="0" r="3.5"/>
  <g id="zoomPlus">
    <use xlink:href="#rim" fill="#404040"><set attributeName="fill" to="#808080" begin="zoomplus.mouseover" end="zoomplus.mouseout"/></use>
    <path d="M-4,0h8M0,-4v8" fill="none" stroke="white" stroke-width="1.5" pointer-events="none"/>
  </g>
  <g id="zoomMin">
    <use xlink:href="#rim" fill="#404040"><set attributeName="fill" to="#808080" begin="zoomminus.mouseover" end="zoomminus.mouseout"/></use>
    <path d="M-4,0h8" fill="none" stroke="white" stroke-width="1.5" pointer-events="none"/>
  </g>
  <g id="arrowUp" transform="translate(30 24)">
    <use xlink:href="#rim"/>
    <path pointer-events="none" fill="none" stroke="white" stroke-width="1.5" d="M0,-3.0v7 M-2.5,-0.5L0,-3.0L2.5,-0.5"/>
  </g>
  <g id="arrowRight" transform="rotate(90) translate(36 -43)">
    <use xlink:href="#rim"/>
    <path pointer-events="none" fill="none" stroke="white" stroke-width="1.5" d="M0,-3.0v7 M-2.5,-0.5L0,-3.0L2.5,-0.5"/>
  </g>
  <g id="arrowDown" transform="rotate(180) translate(-30 -48)">
    <use xlink:href="#rim"/>
    <path pointer-events="none" fill="none" stroke="white" stroke-width="1.5" d="M0,-3.0v7 M-2.5,-0.5L0,-3.0L2.5,-0.5"/>
  </g>
  <g id="arrowLeft" transform="rotate(270) translate(-36 17)">
    <use xlink:href="#rim"/>
    <path pointer-events="none" fill="none" stroke="white" stroke-width="1.5" d="M0,-3.0v7 M-2.5,-0.5L0,-3.0L2.5,-0.5"/>
  </g>
  <g id="resetDef">
    <use xlink:href="#rim2" fill="#404040"><set attributeName="fill" to="#808080" begin="reset.mouseover" end="reset.mouseout"/></use>
  </g>
</defs>
<script type="application/ecmascript">
var viewWidth = 1534;
var viewHeight = 612;
var sectionId = 'dynsection-0';
</script>
<script type="application/ecmascript" xlink:href="../../svg.min.js"/>
<svg id="graph" class="graph">
<g id="viewport">
<title>Resource</title>
<!-- Node1 -->
<g id="Node000001" class="node">
<title>Node1</title>
<g id="a_Node000001"><a xlink:title=" ">
<polygon fill="#999999" stroke="none" points="720,-604 668,-604 668,-552 720,-552 720,-604"/>
<text text-anchor="start" x="673" y="-590.5" font-family="Helvetica,sans-Serif" font-size="10.00">Resource</text>
<text text-anchor="start" x="692.5" y="-574.5" font-family="Helvetica,sans-Serif" font-size="10.00"> </text>
<text text-anchor="start" x="692.5" y="-558.5" font-family="Helvetica,sans-Serif" font-size="10.00"> </text>
<polygon fill="#666666" stroke="#666666" points="668,-586 668,-586 720,-586 720,-586 668,-586"/>
<polygon fill="#666666" stroke="#666666" points="668,-570 668,-570 720,-570 720,-570 668,-570"/>
<polygon fill="none" stroke="#666666" points="668,-552 668,-604 720,-604 720,-552 668,-552"/>
</a>
</g>
</g>
<!-- Node2 -->
<g id="Node000002" class="node">
<title>Node2</title>
<g id="a_Node000002"><a xlink:href="../../de/d8a/class_augment.html" target="_top" xlink:title=" ">
<polygon fill="white" stroke="none" points="688,-516 548,-516 548,-312 688,-312 688,-516"/>
<text text-anchor="start" x="598.5" y="-502.5" font-family="Helvetica,sans-Serif" font-size="10.00">Augment</text>
<text text-anchor="start" x="552" y="-486.5" font-family="Helvetica,sans-Serif" font-size="10.00">+</text>
<text text-anchor="start" x="562" y="-486.5" font-family="Helvetica,sans-Serif" font-size="10.00">string Description</text>
<text text-anchor="start" x="552" y="-470.5" font-family="Helvetica,sans-Serif" font-size="10.00">+</text>
<text text-anchor="start" x="562" y="-470.5" font-family="Helvetica,sans-Serif" font-size="10.00">AugmentEffect[] _augment</text>
<text text-anchor="start" x="562" y="-458.5" font-family="Helvetica,sans-Serif" font-size="10.00">Effects</text>
<text text-anchor="start" x="552" y="-442.5" font-family="Helvetica,sans-Serif" font-size="10.00">+</text>
<text text-anchor="start" x="562" y="-442.5" font-family="Helvetica,sans-Serif" font-size="10.00">void Equip(SceneTree</text>
<text text-anchor="start" x="562" y="-430.5" font-family="Helvetica,sans-Serif" font-size="10.00"> sceneTree)</text>
<text text-anchor="start" x="552" y="-414.5" font-family="Helvetica,sans-Serif" font-size="10.00">+</text>
<text text-anchor="start" x="562" y="-414.5" font-family="Helvetica,sans-Serif" font-size="10.00">void UnEquip(SceneTree</text>
<text text-anchor="start" x="562" y="-402.5" font-family="Helvetica,sans-Serif" font-size="10.00"> sceneTree)</text>
<text text-anchor="start" x="552" y="-386.5" font-family="Helvetica,sans-Serif" font-size="10.00">+</text>
<text text-anchor="start" x="562" y="-386.5" font-family="Helvetica,sans-Serif" font-size="10.00">void BuildDescription()</text>
<text text-anchor="start" x="552" y="-370.5" font-family="Helvetica,sans-Serif" font-size="10.00">+</text>
<text text-anchor="start" x="562" y="-370.5" font-family="Helvetica,sans-Serif" font-size="10.00">AugmentEffect GetAugment</text>
<text text-anchor="start" x="562" y="-358.5" font-family="Helvetica,sans-Serif" font-size="10.00">Effect(int index)</text>
<text text-anchor="start" x="552" y="-342.5" font-family="Helvetica,sans-Serif" font-size="10.00">+</text>
<text text-anchor="start" x="562" y="-342.5" font-family="Helvetica,sans-Serif" font-size="10.00">void SetAugmentEffect</text>
<text text-anchor="start" x="562" y="-330.5" font-family="Helvetica,sans-Serif" font-size="10.00">(int index, AugmentEffect</text>
<text text-anchor="start" x="562" y="-318.5" font-family="Helvetica,sans-Serif" font-size="10.00"> augmentEffect)</text>
<polygon fill="#666666" stroke="#666666" points="548,-498 548,-498 688,-498 688,-498 548,-498"/>
<polygon fill="#666666" stroke="#666666" points="548,-454 548,-454 560,-454 560,-454 548,-454"/>
<polygon fill="#666666" stroke="#666666" points="560,-454 560,-454 688,-454 688,-454 560,-454"/>
<polygon fill="none" stroke="#666666" points="548,-312 548,-516 688,-516 688,-312 548,-312"/>
</a>
</g>
</g>
<!-- Node1&#45;&gt;Node2 -->
<g id="edge1_Node000001_Node000002" class="edge">
<title>Node1&#45;&gt;Node2</title>
<g id="a_edge1_Node000001_Node000002"><a xlink:title=" ">
<path fill="none" stroke="#63b8ff" d="M677.5,-541.84C673.79,-533.93 669.67,-525.14 665.38,-516"/>
<polygon fill="none" stroke="#63b8ff" points="674.23,-543.11 681.65,-550.67 680.57,-540.13 674.23,-543.11"/>
</a>
</g>
</g>
<!-- Node3 -->
<g id="Node000003" class="node">
<title>Node3</title>
<g id="a_Node000003"><a xlink:href="../../d5/d2b/class_augment_effect.html" target="_top" xlink:title=" ">
<polygon fill="white" stroke="none" points="835.5,-468 706.5,-468 706.5,-360 835.5,-360 835.5,-468"/>
<text text-anchor="start" x="738.75" y="-454.5" font-family="Helvetica,sans-Serif" font-size="10.00">AugmentEffect</text>
<text text-anchor="start" x="769.5" y="-438.5" font-family="Helvetica,sans-Serif" font-size="10.00"> </text>
<text text-anchor="start" x="710.5" y="-422.5" font-family="Helvetica,sans-Serif" font-size="10.00">+</text>
<text text-anchor="start" x="720.5" y="-422.5" font-family="Helvetica,sans-Serif" font-size="10.00">virtual void Equip</text>
<text text-anchor="start" x="720.5" y="-410.5" font-family="Helvetica,sans-Serif" font-size="10.00">(SceneTree sceneTree)</text>
<text text-anchor="start" x="710.5" y="-394.5" font-family="Helvetica,sans-Serif" font-size="10.00">+</text>
<text text-anchor="start" x="720.5" y="-394.5" font-family="Helvetica,sans-Serif" font-size="10.00">virtual void UnEquip</text>
<text text-anchor="start" x="720.5" y="-382.5" font-family="Helvetica,sans-Serif" font-size="10.00">(SceneTree sceneTree)</text>
<text text-anchor="start" x="710.5" y="-366.5" font-family="Helvetica,sans-Serif" font-size="10.00">+</text>
<text text-anchor="start" x="720.5" y="-366.5" font-family="Helvetica,sans-Serif" font-size="10.00">virtual string Description()</text>
<polygon fill="#666666" stroke="#666666" points="706.5,-450 706.5,-450 835.5,-450 835.5,-450 706.5,-450"/>
<polygon fill="#666666" stroke="#666666" points="706.5,-434 706.5,-434 835.5,-434 835.5,-434 706.5,-434"/>
<polygon fill="none" stroke="#666666" points="706.5,-360 706.5,-468 835.5,-468 835.5,-360 706.5,-360"/>
</a>
</g>
</g>
<!-- Node1&#45;&gt;Node3 -->
<g id="edge2_Node000001_Node000003" class="edge">
<title>Node1&#45;&gt;Node3</title>
<g id="a_edge2_Node000001_Node000003"><a xlink:title=" ">
<path fill="none" stroke="#63b8ff" d="M710.78,-541.69C721.05,-520.09 734.38,-492.04 745.89,-467.82"/>
<polygon fill="none" stroke="#63b8ff" points="707.64,-540.14 706.51,-550.68 713.97,-543.15 707.64,-540.14"/>
</a>
</g>
</g>
<!-- Node4 -->
<g id="Node000004" class="node">
<title>Node4</title>
<g id="a_Node000004"><a xlink:href="../../d3/df6/class_additional_stars.html" target="_top" xlink:title=" ">
<polygon fill="white" stroke="none" points="138,-276 0,-276 0,-168 138,-168 138,-276"/>
<text text-anchor="start" x="36" y="-262.5" font-family="Helvetica,sans-Serif" font-size="10.00">AdditionalStars</text>
<text text-anchor="start" x="67.5" y="-246.5" font-family="Helvetica,sans-Serif" font-size="10.00"> </text>
<text text-anchor="start" x="4" y="-230.5" font-family="Helvetica,sans-Serif" font-size="10.00">+</text>
<text text-anchor="start" x="14" y="-230.5" font-family="Helvetica,sans-Serif" font-size="10.00">override void Equip</text>
<text text-anchor="start" x="14" y="-218.5" font-family="Helvetica,sans-Serif" font-size="10.00">(SceneTree sceneTree)</text>
<text text-anchor="start" x="4" y="-202.5" font-family="Helvetica,sans-Serif" font-size="10.00">+</text>
<text text-anchor="start" x="14" y="-202.5" font-family="Helvetica,sans-Serif" font-size="10.00">override void UnEquip</text>
<text text-anchor="start" x="14" y="-190.5" font-family="Helvetica,sans-Serif" font-size="10.00">(SceneTree sceneTree)</text>
<text text-anchor="start" x="4" y="-174.5" font-family="Helvetica,sans-Serif" font-size="10.00">+</text>
<text text-anchor="start" x="14" y="-174.5" font-family="Helvetica,sans-Serif" font-size="10.00">override string Description()</text>
<polygon fill="#666666" stroke="#666666" points="0,-258 0,-258 138,-258 138,-258 0,-258"/>
<polygon fill="#666666" stroke="#666666" points="0,-242 0,-242 138,-242 138,-242 0,-242"/>
<polygon fill="none" stroke="#666666" points="0,-168 0,-276 138,-276 138,-168 0,-168"/>
</a>
</g>
</g>
<!-- Node3&#45;&gt;Node4 -->
<g id="edge3_Node000003_Node000004" class="edge">
<title>Node3&#45;&gt;Node4</title>
<g id="a_edge3_Node000003_Node000004"><a xlink:title=" ">
<path fill="none" stroke="#63b8ff" d="M738.64,-351.15C727.55,-335.8 713.65,-321.14 697,-312 589.62,-253.07 262.83,-315.82 147,-276 143.9,-274.94 140.81,-273.71 137.75,-272.37"/>
<polygon fill="none" stroke="#63b8ff" points="735.46,-352.7 743.99,-358.98 741.24,-348.75 735.46,-352.7"/>
</a>
</g>
</g>
<!-- Node5 -->
<g id="Node000005" class="node">
<title>Node5</title>
<g id="a_Node000005"><a xlink:href="../../d2/d5b/class_cast_additional_spell.html" target="_top" xlink:title=" ">
<polygon fill="white" stroke="none" points="294,-276 156,-276 156,-168 294,-168 294,-276"/>
<text text-anchor="start" x="182.25" y="-262.5" font-family="Helvetica,sans-Serif" font-size="10.00">CastAdditionalSpell</text>
<text text-anchor="start" x="223.5" y="-246.5" font-family="Helvetica,sans-Serif" font-size="10.00"> </text>
<text text-anchor="start" x="160" y="-230.5" font-family="Helvetica,sans-Serif" font-size="10.00">+</text>
<text text-anchor="start" x="170" y="-230.5" font-family="Helvetica,sans-Serif" font-size="10.00">override void Equip</text>
<text text-anchor="start" x="170" y="-218.5" font-family="Helvetica,sans-Serif" font-size="10.00">(SceneTree sceneTree)</text>
<text text-anchor="start" x="160" y="-202.5" font-family="Helvetica,sans-Serif" font-size="10.00">+</text>
<text text-anchor="start" x="170" y="-202.5" font-family="Helvetica,sans-Serif" font-size="10.00">override void UnEquip</text>
<text text-anchor="start" x="170" y="-190.5" font-family="Helvetica,sans-Serif" font-size="10.00">(SceneTree sceneTree)</text>
<text text-anchor="start" x="160" y="-174.5" font-family="Helvetica,sans-Serif" font-size="10.00">+</text>
<text text-anchor="start" x="170" y="-174.5" font-family="Helvetica,sans-Serif" font-size="10.00">override string Description()</text>
<polygon fill="#666666" stroke="#666666" points="156,-258 156,-258 294,-258 294,-258 156,-258"/>
<polygon fill="#666666" stroke="#666666" points="156,-242 156,-242 294,-242 294,-242 156,-242"/>
<polygon fill="none" stroke="#666666" points="156,-168 156,-276 294,-276 294,-168 156,-168"/>
</a>
</g>
</g>
<!-- Node3&#45;&gt;Node5 -->
<g id="edge4_Node000003_Node000005" class="edge">
<title>Node3&#45;&gt;Node5</title>
<g id="a_edge4_Node000003_Node000005"><a xlink:title=" ">
<path fill="none" stroke="#63b8ff" d="M738.02,-350.78C727,-335.66 713.29,-321.22 697,-312 543.95,-225.42 468.54,-335.3 303,-276 299.92,-274.9 296.84,-273.64 293.79,-272.26"/>
<polygon fill="none" stroke="#63b8ff" points="735.11,-352.74 743.67,-358.99 740.88,-348.77 735.11,-352.74"/>
</a>
</g>
</g>
<!-- Node6 -->
<g id="Node000006" class="node">
<title>Node6</title>
<g id="a_Node000006"><a xlink:href="../../d8/d35/class_extra_armor_of_all_types.html" target="_top" xlink:title=" ">
<polygon fill="white" stroke="none" points="450,-276 312,-276 312,-168 450,-168 450,-276"/>
<text text-anchor="start" x="332.25" y="-262.5" font-family="Helvetica,sans-Serif" font-size="10.00">ExtraArmorOfAllTypes</text>
<text text-anchor="start" x="379.5" y="-246.5" font-family="Helvetica,sans-Serif" font-size="10.00"> </text>
<text text-anchor="start" x="316" y="-230.5" font-family="Helvetica,sans-Serif" font-size="10.00">+</text>
<text text-anchor="start" x="326" y="-230.5" font-family="Helvetica,sans-Serif" font-size="10.00">override void Equip</text>
<text text-anchor="start" x="326" y="-218.5" font-family="Helvetica,sans-Serif" font-size="10.00">(SceneTree sceneTree)</text>
<text text-anchor="start" x="316" y="-202.5" font-family="Helvetica,sans-Serif" font-size="10.00">+</text>
<text text-anchor="start" x="326" y="-202.5" font-family="Helvetica,sans-Serif" font-size="10.00">override void UnEquip</text>
<text text-anchor="start" x="326" y="-190.5" font-family="Helvetica,sans-Serif" font-size="10.00">(SceneTree sceneTree)</text>
<text text-anchor="start" x="316" y="-174.5" font-family="Helvetica,sans-Serif" font-size="10.00">+</text>
<text text-anchor="start" x="326" y="-174.5" font-family="Helvetica,sans-Serif" font-size="10.00">override string Description()</text>
<polygon fill="#666666" stroke="#666666" points="312,-258 312,-258 450,-258 450,-258 312,-258"/>
<polygon fill="#666666" stroke="#666666" points="312,-242 312,-242 450,-242 450,-242 312,-242"/>
<polygon fill="none" stroke="#666666" points="312,-168 312,-276 450,-276 450,-168 312,-168"/>
</a>
</g>
</g>
<!-- Node3&#45;&gt;Node6 -->
<g id="edge5_Node000003_Node000006" class="edge">
<title>Node3&#45;&gt;Node6</title>
<g id="a_edge5_Node000003_Node000006"><a xlink:title=" ">
<path fill="none" stroke="#63b8ff" d="M737.17,-350.76C726.24,-335.88 712.78,-321.55 697,-312 605.48,-256.6 558.61,-315.03 459,-276 455.95,-274.81 452.9,-273.47 449.87,-272.03"/>
<polygon fill="none" stroke="#63b8ff" points="734.19,-352.61 742.78,-358.81 739.94,-348.61 734.19,-352.61"/>
</a>
</g>
</g>
<!-- Node7 -->
<g id="Node000007" class="node">
<title>Node7</title>
<g id="a_Node000007"><a xlink:href="../../df/deb/class_extra_armor_of_type.html" target="_top" xlink:title=" ">
<polygon fill="white" stroke="none" points="606,-276 468,-276 468,-168 606,-168 606,-276"/>
<text text-anchor="start" x="496.5" y="-262.5" font-family="Helvetica,sans-Serif" font-size="10.00">ExtraArmorOfType</text>
<text text-anchor="start" x="535.5" y="-246.5" font-family="Helvetica,sans-Serif" font-size="10.00"> </text>
<text text-anchor="start" x="472" y="-230.5" font-family="Helvetica,sans-Serif" font-size="10.00">+</text>
<text text-anchor="start" x="482" y="-230.5" font-family="Helvetica,sans-Serif" font-size="10.00">override void Equip</text>
<text text-anchor="start" x="482" y="-218.5" font-family="Helvetica,sans-Serif" font-size="10.00">(SceneTree sceneTree)</text>
<text text-anchor="start" x="472" y="-202.5" font-family="Helvetica,sans-Serif" font-size="10.00">+</text>
<text text-anchor="start" x="482" y="-202.5" font-family="Helvetica,sans-Serif" font-size="10.00">override void UnEquip</text>
<text text-anchor="start" x="482" y="-190.5" font-family="Helvetica,sans-Serif" font-size="10.00">(SceneTree sceneTree)</text>
<text text-anchor="start" x="472" y="-174.5" font-family="Helvetica,sans-Serif" font-size="10.00">+</text>
<text text-anchor="start" x="482" y="-174.5" font-family="Helvetica,sans-Serif" font-size="10.00">override string Description()</text>
<polygon fill="#666666" stroke="#666666" points="468,-258 468,-258 606,-258 606,-258 468,-258"/>
<polygon fill="#666666" stroke="#666666" points="468,-242 468,-242 606,-242 606,-242 468,-242"/>
<polygon fill="none" stroke="#666666" points="468,-168 468,-276 606,-276 606,-168 468,-168"/>
</a>
</g>
</g>
<!-- Node3&#45;&gt;Node7 -->
<g id="edge6_Node000003_Node000007" class="edge">
<title>Node3&#45;&gt;Node7</title>
<g id="a_edge6_Node000003_Node000007"><a xlink:title=" ">
<path fill="none" stroke="#63b8ff" d="M733.39,-350.84C722.87,-336.82 710.56,-322.88 697,-312 665.95,-287.09 649.83,-295.27 615,-276 611.99,-274.34 608.95,-272.59 605.91,-270.78"/>
<polygon fill="none" stroke="#63b8ff" points="730.46,-352.76 739.15,-358.82 736.13,-348.66 730.46,-352.76"/>
</a>
</g>
</g>
<!-- Node8 -->
<g id="Node000008" class="node">
<title>Node8</title>
<g id="a_Node000008"><a xlink:href="../../d9/d41/class_flat_damage_for_one_type.html" target="_top" xlink:title=" ">
<polygon fill="white" stroke="none" points="762,-262 624,-262 624,-182 762,-182 762,-262"/>
<text text-anchor="start" x="639.75" y="-248.5" font-family="Helvetica,sans-Serif" font-size="10.00">FlatDamageForOneType</text>
<text text-anchor="start" x="691.5" y="-232.5" font-family="Helvetica,sans-Serif" font-size="10.00"> </text>
<text text-anchor="start" x="628" y="-216.5" font-family="Helvetica,sans-Serif" font-size="10.00">+</text>
<text text-anchor="start" x="638" y="-216.5" font-family="Helvetica,sans-Serif" font-size="10.00">override void Equip</text>
<text text-anchor="start" x="638" y="-204.5" font-family="Helvetica,sans-Serif" font-size="10.00">(SceneTree sceneTree)</text>
<text text-anchor="start" x="628" y="-188.5" font-family="Helvetica,sans-Serif" font-size="10.00">+</text>
<text text-anchor="start" x="638" y="-188.5" font-family="Helvetica,sans-Serif" font-size="10.00">override string Description()</text>
<polygon fill="#666666" stroke="#666666" points="624,-244 624,-244 762,-244 762,-244 624,-244"/>
<polygon fill="#666666" stroke="#666666" points="624,-228 624,-228 762,-228 762,-228 624,-228"/>
<polygon fill="none" stroke="#666666" points="624,-182 624,-262 762,-262 762,-182 624,-182"/>
</a>
</g>
</g>
<!-- Node3&#45;&gt;Node8 -->
<g id="edge7_Node000003_Node000008" class="edge">
<title>Node3&#45;&gt;Node8</title>
<g id="a_edge7_Node000003_Node000008"><a xlink:title=" ">
<path fill="none" stroke="#63b8ff" d="M744.97,-349.59C733.04,-320.54 719.28,-287.03 708.92,-261.79"/>
<polygon fill="none" stroke="#63b8ff" points="741.66,-350.75 748.7,-358.67 748.14,-348.09 741.66,-350.75"/>
</a>
</g>
</g>
<!-- Node9 -->
<g id="Node000009" class="node">
<title>Node9</title>
<g id="a_Node000009"><a xlink:href="../../d4/d8f/class_flat_damage_for_spell_slot.html" target="_top" xlink:title=" ">
<polygon fill="white" stroke="none" points="918,-262 780,-262 780,-182 918,-182 918,-262"/>
<text text-anchor="start" x="795.75" y="-248.5" font-family="Helvetica,sans-Serif" font-size="10.00">FlatDamageForSpellSlot</text>
<text text-anchor="start" x="847.5" y="-232.5" font-family="Helvetica,sans-Serif" font-size="10.00"> </text>
<text text-anchor="start" x="784" y="-216.5" font-family="Helvetica,sans-Serif" font-size="10.00">+</text>
<text text-anchor="start" x="794" y="-216.5" font-family="Helvetica,sans-Serif" font-size="10.00">override void Equip</text>
<text text-anchor="start" x="794" y="-204.5" font-family="Helvetica,sans-Serif" font-size="10.00">(SceneTree sceneTree)</text>
<text text-anchor="start" x="784" y="-188.5" font-family="Helvetica,sans-Serif" font-size="10.00">+</text>
<text text-anchor="start" x="794" y="-188.5" font-family="Helvetica,sans-Serif" font-size="10.00">override string Description()</text>
<polygon fill="#666666" stroke="#666666" points="780,-244 780,-244 918,-244 918,-244 780,-244"/>
<polygon fill="#666666" stroke="#666666" points="780,-228 780,-228 918,-228 918,-228 780,-228"/>
<polygon fill="none" stroke="#666666" points="780,-182 780,-262 918,-262 918,-182 780,-182"/>
</a>
</g>
</g>
<!-- Node3&#45;&gt;Node9 -->
<g id="edge8_Node000003_Node000009" class="edge">
<title>Node3&#45;&gt;Node9</title>
<g id="a_edge8_Node000003_Node000009"><a xlink:title=" ">
<path fill="none" stroke="#63b8ff" d="M797.03,-349.59C808.96,-320.54 822.72,-287.03 833.08,-261.79"/>
<polygon fill="none" stroke="#63b8ff" points="793.86,-348.09 793.3,-358.67 800.34,-350.75 793.86,-348.09"/>
</a>
</g>
</g>
<!-- Node10 -->
<g id="Node000010" class="node">
<title>Node10</title>
<g id="a_Node000010"><a xlink:href="../../d1/d2e/class_h_p_increase_augment_effect.html" target="_top" xlink:title=" ">
<polygon fill="white" stroke="none" points="1074,-276 936,-276 936,-168 1074,-168 1074,-276"/>
<text text-anchor="start" x="946.88" y="-262.5" font-family="Helvetica,sans-Serif" font-size="10.00">HPIncreaseAugmentEffect</text>
<text text-anchor="start" x="1003.5" y="-246.5" font-family="Helvetica,sans-Serif" font-size="10.00"> </text>
<text text-anchor="start" x="940" y="-230.5" font-family="Helvetica,sans-Serif" font-size="10.00">+</text>
<text text-anchor="start" x="950" y="-230.5" font-family="Helvetica,sans-Serif" font-size="10.00">override void Equip</text>
<text text-anchor="start" x="950" y="-218.5" font-family="Helvetica,sans-Serif" font-size="10.00">(SceneTree sceneTree)</text>
<text text-anchor="start" x="940" y="-202.5" font-family="Helvetica,sans-Serif" font-size="10.00">+</text>
<text text-anchor="start" x="950" y="-202.5" font-family="Helvetica,sans-Serif" font-size="10.00">override void UnEquip</text>
<text text-anchor="start" x="950" y="-190.5" font-family="Helvetica,sans-Serif" font-size="10.00">(SceneTree sceneTree)</text>
<text text-anchor="start" x="940" y="-174.5" font-family="Helvetica,sans-Serif" font-size="10.00">+</text>
<text text-anchor="start" x="950" y="-174.5" font-family="Helvetica,sans-Serif" font-size="10.00">override string Description()</text>
<polygon fill="#666666" stroke="#666666" points="936,-258 936,-258 1074,-258 1074,-258 936,-258"/>
<polygon fill="#666666" stroke="#666666" points="936,-242 936,-242 1074,-242 1074,-242 936,-242"/>
<polygon fill="none" stroke="#666666" points="936,-168 936,-276 1074,-276 1074,-168 936,-168"/>
</a>
</g>
</g>
<!-- Node3&#45;&gt;Node10 -->
<g id="edge9_Node000003_Node000010" class="edge">
<title>Node3&#45;&gt;Node10</title>
<g id="a_edge9_Node000003_Node000010"><a xlink:title=" ">
<path fill="none" stroke="#63b8ff" d="M843.8,-353.89C874.6,-328.88 910.19,-299.98 940.08,-275.71"/>
<polygon fill="none" stroke="#63b8ff" points="841.98,-350.86 836.43,-359.88 846.4,-356.29 841.98,-350.86"/>
</a>
</g>
</g>
<!-- Node11 -->
<g id="Node000011" class="node">
<title>Node11</title>
<g id="a_Node000011"><a xlink:href="../../d8/d16/class_on_cast_augment_effect.html" target="_top" xlink:title=" ">
<polygon fill="white" stroke="none" points="1213.5,-266 1092.5,-266 1092.5,-178 1213.5,-178 1213.5,-266"/>
<text text-anchor="start" x="1103.88" y="-252.5" font-family="Helvetica,sans-Serif" font-size="10.00">OnCastAugmentEffect</text>
<text text-anchor="start" x="1151.5" y="-236.5" font-family="Helvetica,sans-Serif" font-size="10.00"> </text>
<text text-anchor="start" x="1096.5" y="-220.5" font-family="Helvetica,sans-Serif" font-size="10.00">+</text>
<text text-anchor="start" x="1106.5" y="-220.5" font-family="Helvetica,sans-Serif" font-size="10.00">virtual void OnCast</text>
<text text-anchor="start" x="1106.5" y="-208.5" font-family="Helvetica,sans-Serif" font-size="10.00">(Spell spell, Vector2</text>
<text text-anchor="start" x="1106.5" y="-196.5" font-family="Helvetica,sans-Serif" font-size="10.00"> playerPosition, Vector2</text>
<text text-anchor="start" x="1106.5" y="-184.5" font-family="Helvetica,sans-Serif" font-size="10.00"> targetPosition)</text>
<polygon fill="#666666" stroke="#666666" points="1092.5,-248 1092.5,-248 1213.5,-248 1213.5,-248 1092.5,-248"/>
<polygon fill="#666666" stroke="#666666" points="1092.5,-232 1092.5,-232 1213.5,-232 1213.5,-232 1092.5,-232"/>
<polygon fill="none" stroke="#666666" points="1092.5,-178 1092.5,-266 1213.5,-266 1213.5,-178 1092.5,-178"/>
</a>
</g>
</g>
<!-- Node3&#45;&gt;Node11 -->
<g id="edge10_Node000003_Node000011" class="edge">
<title>Node3&#45;&gt;Node11</title>
<g id="a_edge10_Node000003_Node000011"><a xlink:title=" ">
<path fill="none" stroke="#63b8ff" d="M845.81,-385.87C910.55,-361.06 1005.68,-321.4 1083,-276 1088.26,-272.91 1093.58,-269.5 1098.82,-265.93"/>
<polygon fill="none" stroke="#63b8ff" points="844.8,-382.51 836.7,-389.33 847.29,-389.05 844.8,-382.51"/>
</a>
</g>
</g>
<!-- Node14 -->
<g id="Node000014" class="node">
<title>Node14</title>
<g id="a_Node000014"><a xlink:href="../../d1/d07/class_percent_damage_for_one_spell.html" target="_top" xlink:title=" ">
<polygon fill="white" stroke="none" points="1370,-262 1232,-262 1232,-182 1370,-182 1370,-262"/>
<text text-anchor="start" x="1238.75" y="-248.5" font-family="Helvetica,sans-Serif" font-size="10.00">PercentDamageForOneSpell</text>
<text text-anchor="start" x="1299.5" y="-232.5" font-family="Helvetica,sans-Serif" font-size="10.00"> </text>
<text text-anchor="start" x="1236" y="-216.5" font-family="Helvetica,sans-Serif" font-size="10.00">+</text>
<text text-anchor="start" x="1246" y="-216.5" font-family="Helvetica,sans-Serif" font-size="10.00">override void Equip</text>
<text text-anchor="start" x="1246" y="-204.5" font-family="Helvetica,sans-Serif" font-size="10.00">(SceneTree sceneTree)</text>
<text text-anchor="start" x="1236" y="-188.5" font-family="Helvetica,sans-Serif" font-size="10.00">+</text>
<text text-anchor="start" x="1246" y="-188.5" font-family="Helvetica,sans-Serif" font-size="10.00">override string Description()</text>
<polygon fill="#666666" stroke="#666666" points="1232,-244 1232,-244 1370,-244 1370,-244 1232,-244"/>
<polygon fill="#666666" stroke="#666666" points="1232,-228 1232,-228 1370,-228 1370,-228 1232,-228"/>
<polygon fill="none" stroke="#666666" points="1232,-182 1232,-262 1370,-262 1370,-182 1232,-182"/>
</a>
</g>
</g>
<!-- Node3&#45;&gt;Node14 -->
<g id="edge13_Node000003_Node000014" class="edge">
<title>Node3&#45;&gt;Node14</title>
<g id="a_edge13_Node000003_Node000014"><a xlink:title=" ">
<path fill="none" stroke="#63b8ff" d="M846.53,-397.49C938.43,-376.96 1096.92,-336.21 1223,-276 1231.42,-271.98 1239.96,-267.12 1248.14,-262"/>
<polygon fill="none" stroke="#63b8ff" points="845.88,-394.05 836.87,-399.62 847.39,-400.88 845.88,-394.05"/>
</a>
</g>
</g>
<!-- Node15 -->
<g id="Node000015" class="node">
<title>Node15</title>
<g id="a_Node000015"><a xlink:href="../../d1/dd0/class_percent_damage_for_one_type.html" target="_top" xlink:title=" ">
<polygon fill="white" stroke="none" points="1526,-262 1388,-262 1388,-182 1526,-182 1526,-262"/>
<text text-anchor="start" x="1395.12" y="-248.5" font-family="Helvetica,sans-Serif" font-size="10.00">PercentDamageForOneType</text>
<text text-anchor="start" x="1455.5" y="-232.5" font-family="Helvetica,sans-Serif" font-size="10.00"> </text>
<text text-anchor="start" x="1392" y="-216.5" font-family="Helvetica,sans-Serif" font-size="10.00">+</text>
<text text-anchor="start" x="1402" y="-216.5" font-family="Helvetica,sans-Serif" font-size="10.00">override void Equip</text>
<text text-anchor="start" x="1402" y="-204.5" font-family="Helvetica,sans-Serif" font-size="10.00">(SceneTree sceneTree)</text>
<text text-anchor="start" x="1392" y="-188.5" font-family="Helvetica,sans-Serif" font-size="10.00">+</text>
<text text-anchor="start" x="1402" y="-188.5" font-family="Helvetica,sans-Serif" font-size="10.00">override string Description()</text>
<polygon fill="#666666" stroke="#666666" points="1388,-244 1388,-244 1526,-244 1526,-244 1388,-244"/>
<polygon fill="#666666" stroke="#666666" points="1388,-228 1388,-228 1526,-228 1526,-228 1388,-228"/>
<polygon fill="none" stroke="#666666" points="1388,-182 1388,-262 1526,-262 1526,-182 1388,-182"/>
</a>
</g>
</g>
<!-- Node3&#45;&gt;Node15 -->
<g id="edge14_Node000003_Node000015" class="edge">
<title>Node3&#45;&gt;Node15</title>
<g id="a_edge14_Node000003_Node000015"><a xlink:title=" ">
<path fill="none" stroke="#63b8ff" d="M846.51,-405.19C964.32,-391 1197.19,-354.85 1379,-276 1388.01,-272.09 1397.08,-267.1 1405.69,-261.76"/>
<polygon fill="none" stroke="#63b8ff" points="846.16,-401.71 836.64,-406.36 846.98,-408.66 846.16,-401.71"/>
</a>
</g>
</g>
<!-- Node12 -->
<g id="Node000012" class="node">
<title>Node12</title>
<g id="a_Node000012"><a xlink:href="../../d0/d68/class_increase_duration_of_spell.html" target="_top" xlink:title=" ">
<polygon fill="white" stroke="none" points="1144,-132 1006,-132 1006,0 1144,0 1144,-132"/>
<text text-anchor="start" x="1021.75" y="-118.5" font-family="Helvetica,sans-Serif" font-size="10.00">IncreaseDurationOfSpell</text>
<text text-anchor="start" x="1073.5" y="-102.5" font-family="Helvetica,sans-Serif" font-size="10.00"> </text>
<text text-anchor="start" x="1010" y="-86.5" font-family="Helvetica,sans-Serif" font-size="10.00">+</text>
<text text-anchor="start" x="1020" y="-86.5" font-family="Helvetica,sans-Serif" font-size="10.00">override void Equip</text>
<text text-anchor="start" x="1020" y="-74.5" font-family="Helvetica,sans-Serif" font-size="10.00">(SceneTree sceneTree)</text>
<text text-anchor="start" x="1010" y="-58.5" font-family="Helvetica,sans-Serif" font-size="10.00">+</text>
<text text-anchor="start" x="1020" y="-58.5" font-family="Helvetica,sans-Serif" font-size="10.00">override void OnCast</text>
<text text-anchor="start" x="1020" y="-46.5" font-family="Helvetica,sans-Serif" font-size="10.00">(Spell spell, Vector2</text>
<text text-anchor="start" x="1020" y="-34.5" font-family="Helvetica,sans-Serif" font-size="10.00"> playerPosition, Vector2</text>
<text text-anchor="start" x="1020" y="-22.5" font-family="Helvetica,sans-Serif" font-size="10.00"> targetPosition)</text>
<text text-anchor="start" x="1010" y="-6.5" font-family="Helvetica,sans-Serif" font-size="10.00">+</text>
<text text-anchor="start" x="1020" y="-6.5" font-family="Helvetica,sans-Serif" font-size="10.00">override string Description()</text>
<polygon fill="#666666" stroke="#666666" points="1006,-114 1006,-114 1144,-114 1144,-114 1006,-114"/>
<polygon fill="#666666" stroke="#666666" points="1006,-98 1006,-98 1144,-98 1144,-98 1006,-98"/>
<polygon fill="none" stroke="#666666" points="1006,0 1006,-132 1144,-132 1144,0 1006,0"/>
</a>
</g>
</g>
<!-- Node11&#45;&gt;Node12 -->
<g id="edge11_Node000011_Node000012" class="edge">
<title>Node11&#45;&gt;Node12</title>
<g id="a_edge11_Node000011_Node000012"><a xlink:title=" ">
<path fill="none" stroke="#63b8ff" d="M1126.2,-168.09C1120.29,-156.42 1113.97,-143.93 1107.85,-131.85"/>
<polygon fill="none" stroke="#63b8ff" points="1122.95,-169.41 1130.59,-176.75 1129.19,-166.25 1122.95,-169.41"/>
</a>
</g>
</g>
<!-- Node13 -->
<g id="Node000013" class="node">
<title>Node13</title>
<g id="a_Node000013"><a xlink:href="../../d5/d92/class_increased_radius_of_spell.html" target="_top" xlink:title=" ">
<polygon fill="white" stroke="none" points="1300,-132 1162,-132 1162,0 1300,0 1300,-132"/>
<text text-anchor="start" x="1178.12" y="-118.5" font-family="Helvetica,sans-Serif" font-size="10.00">IncreasedRadiusOfSpell</text>
<text text-anchor="start" x="1229.5" y="-102.5" font-family="Helvetica,sans-Serif" font-size="10.00"> </text>
<text text-anchor="start" x="1166" y="-86.5" font-family="Helvetica,sans-Serif" font-size="10.00">+</text>
<text text-anchor="start" x="1176" y="-86.5" font-family="Helvetica,sans-Serif" font-size="10.00">override void Equip</text>
<text text-anchor="start" x="1176" y="-74.5" font-family="Helvetica,sans-Serif" font-size="10.00">(SceneTree sceneTree)</text>
<text text-anchor="start" x="1166" y="-58.5" font-family="Helvetica,sans-Serif" font-size="10.00">+</text>
<text text-anchor="start" x="1176" y="-58.5" font-family="Helvetica,sans-Serif" font-size="10.00">override void OnCast</text>
<text text-anchor="start" x="1176" y="-46.5" font-family="Helvetica,sans-Serif" font-size="10.00">(Spell spell, Vector2</text>
<text text-anchor="start" x="1176" y="-34.5" font-family="Helvetica,sans-Serif" font-size="10.00"> playerPosition, Vector2</text>
<text text-anchor="start" x="1176" y="-22.5" font-family="Helvetica,sans-Serif" font-size="10.00"> targetPosition)</text>
<text text-anchor="start" x="1166" y="-6.5" font-family="Helvetica,sans-Serif" font-size="10.00">+</text>
<text text-anchor="start" x="1176" y="-6.5" font-family="Helvetica,sans-Serif" font-size="10.00">override string Description()</text>
<polygon fill="#666666" stroke="#666666" points="1162,-114 1162,-114 1300,-114 1300,-114 1162,-114"/>
<polygon fill="#666666" stroke="#666666" points="1162,-98 1162,-98 1300,-98 1300,-98 1162,-98"/>
<polygon fill="none" stroke="#666666" points="1162,0 1162,-132 1300,-132 1300,0 1162,0"/>
</a>
</g>
</g>
<!-- Node11&#45;&gt;Node13 -->
<g id="edge12_Node000011_Node000013" class="edge">
<title>Node11&#45;&gt;Node13</title>
<g id="a_edge12_Node000011_Node000013"><a xlink:title=" ">
<path fill="none" stroke="#63b8ff" d="M1179.8,-168.09C1185.71,-156.42 1192.03,-143.93 1198.15,-131.85"/>
<polygon fill="none" stroke="#63b8ff" points="1176.81,-166.25 1175.41,-176.75 1183.05,-169.41 1176.81,-166.25"/>
</a>
</g>
</g>
</g>
</svg>

<g id="navigator" transform="translate(0 0)" fill="#404254">
  <rect fill="#f2f5e9" fill-opacity="0.5" stroke="#606060" stroke-width=".5" x="0" y="0" width="60" height="60"/>
  <use id="zoomplus" xlink:href="#zoomPlus" x="17" y="9" onmousedown="handleZoom(evt,'in')"/>
  <use id="zoomminus" xlink:href="#zoomMin" x="42" y="9" onmousedown="handleZoom(evt,'out')"/>
  <use id="reset" xlink:href="#resetDef" x="30" y="36" onmousedown="handleReset()"/>
   <use id="arrowup" xlink:href="#arrowUp" x="0" y="0" onmousedown="handlePan(0,-1)"/>
  <use id="arrowright" xlink:href="#arrowRight" x="0" y="0" onmousedown="handlePan(1,0)"/>
  <use id="arrowdown" xlink:href="#arrowDown" x="0" y="0" onmousedown="handlePan(0,1)"/>
  <use id="arrowleft" xlink:href="#arrowLeft" x="0" y="0" onmousedown="handlePan(-1,0)"/>
</g>
<svg viewBox="0 0 15 15" width="100%" height="30px" preserveAspectRatio="xMaxYMin meet">
 <g id="arrow_out" transform="scale(0.3 0.3)">
  <a xlink:href="class_resource__inherit__graph_org.svg" target="_base">
   <rect id="button" ry="5" rx="5" y="6" x="6" height="38" width="38"
        fill="#f2f5e9" fill-opacity="0.5" stroke="#606060" stroke-width="1.0"/>
   <path id="arrow"
     d="M 11.500037,31.436501 C 11.940474,20.09759 22.043105,11.32322 32.158766,21.979434 L 37.068811,17.246167 C 37.068811,17.246167 37.088388,32 37.088388,32 L 22.160133,31.978069 C 22.160133,31.978069 26.997745,27.140456 26.997745,27.140456 C 18.528582,18.264221 13.291696,25.230495 11.500037,31.436501 z"
     style="fill:#404040;"/>
  </a>
 </g>
</svg>

<style type='text/css'>
<![CDATA[
[data-mouse-over-selected='false'] { opacity: 0.7; }
[data-mouse-over-selected='true']  { opacity: 1.0; }
]]>
</style>
<script type="application/ecmascript"><![CDATA[
document.addEventListener('DOMContentLoaded', (event) => {
  highlightEdges();
  highlightAdjacentNodes();
});
]]></script>
</svg>
