<?xml version="1.0" encoding="UTF-8" standalone="no"?>
<!DOCTYPE svg PUBLIC "-//W3C//DTD SVG 1.1//EN"
 "http://www.w3.org/Graphics/SVG/1.1/DTD/svg11.dtd">
<!-- Generated by graphviz version 12.1.0 (20240811.2233)
 -->
<!-- Title: Resource Pages: 1 -->
<svg width="1520pt" height="588pt"
 viewBox="0.00 0.00 1520.00 588.00" xmlns="http://www.w3.org/2000/svg" xmlns:xlink="http://www.w3.org/1999/xlink">
<g id="graph0" class="graph" transform="scale(1 1) rotate(0) translate(4 584)">
<title>Resource</title>
<!-- Node1 -->
<g id="Node000001" class="node">
<title>Node1</title>
<g id="a_Node000001"><a xlink:title=" ">
<polygon fill="#999999" stroke="none" points="720,-580 668,-580 668,-528 720,-528 720,-580"/>
<text text-anchor="start" x="673" y="-566.5" font-family="Helvetica,sans-Serif" font-size="10.00">Resource</text>
<text text-anchor="start" x="692.5" y="-550.5" font-family="Helvetica,sans-Serif" font-size="10.00"> </text>
<text text-anchor="start" x="692.5" y="-534.5" font-family="Helvetica,sans-Serif" font-size="10.00"> </text>
<polygon fill="#666666" stroke="#666666" points="668,-562 668,-562 720,-562 720,-562 668,-562"/>
<polygon fill="#666666" stroke="#666666" points="668,-546 668,-546 720,-546 720,-546 668,-546"/>
<polygon fill="none" stroke="#666666" points="668,-528 668,-580 720,-580 720,-528 668,-528"/>
</a>
</g>
</g>
<!-- Node2 -->
<g id="Node000002" class="node">
<title>Node2</title>
<g id="a_Node000002"><a xlink:href="../../de/d8a/class_augment.html" target="_top" xlink:title=" ">
<polygon fill="white" stroke="none" points="688,-492 548,-492 548,-288 688,-288 688,-492"/>
<text text-anchor="start" x="598.5" y="-478.5" font-family="Helvetica,sans-Serif" font-size="10.00">Augment</text>
<text text-anchor="start" x="552" y="-462.5" font-family="Helvetica,sans-Serif" font-size="10.00">+</text>
<text text-anchor="start" x="562" y="-462.5" font-family="Helvetica,sans-Serif" font-size="10.00">string Description</text>
<text text-anchor="start" x="552" y="-446.5" font-family="Helvetica,sans-Serif" font-size="10.00">+</text>
<text text-anchor="start" x="562" y="-446.5" font-family="Helvetica,sans-Serif" font-size="10.00">AugmentEffect[] _augment</text>
<text text-anchor="start" x="562" y="-434.5" font-family="Helvetica,sans-Serif" font-size="10.00">Effects</text>
<text text-anchor="start" x="552" y="-418.5" font-family="Helvetica,sans-Serif" font-size="10.00">+</text>
<text text-anchor="start" x="562" y="-418.5" font-family="Helvetica,sans-Serif" font-size="10.00">void Equip(SceneTree</text>
<text text-anchor="start" x="562" y="-406.5" font-family="Helvetica,sans-Serif" font-size="10.00"> sceneTree)</text>
<text text-anchor="start" x="552" y="-390.5" font-family="Helvetica,sans-Serif" font-size="10.00">+</text>
<text text-anchor="start" x="562" y="-390.5" font-family="Helvetica,sans-Serif" font-size="10.00">void UnEquip(SceneTree</text>
<text text-anchor="start" x="562" y="-378.5" font-family="Helvetica,sans-Serif" font-size="10.00"> sceneTree)</text>
<text text-anchor="start" x="552" y="-362.5" font-family="Helvetica,sans-Serif" font-size="10.00">+</text>
<text text-anchor="start" x="562" y="-362.5" font-family="Helvetica,sans-Serif" font-size="10.00">void BuildDescription()</text>
<text text-anchor="start" x="552" y="-346.5" font-family="Helvetica,sans-Serif" font-size="10.00">+</text>
<text text-anchor="start" x="562" y="-346.5" font-family="Helvetica,sans-Serif" font-size="10.00">AugmentEffect GetAugment</text>
<text text-anchor="start" x="562" y="-334.5" font-family="Helvetica,sans-Serif" font-size="10.00">Effect(int index)</text>
<text text-anchor="start" x="552" y="-318.5" font-family="Helvetica,sans-Serif" font-size="10.00">+</text>
<text text-anchor="start" x="562" y="-318.5" font-family="Helvetica,sans-Serif" font-size="10.00">void SetAugmentEffect</text>
<text text-anchor="start" x="562" y="-306.5" font-family="Helvetica,sans-Serif" font-size="10.00">(int index, AugmentEffect</text>
<text text-anchor="start" x="562" y="-294.5" font-family="Helvetica,sans-Serif" font-size="10.00"> augmentEffect)</text>
<polygon fill="#666666" stroke="#666666" points="548,-474 548,-474 688,-474 688,-474 548,-474"/>
<polygon fill="#666666" stroke="#666666" points="548,-430 548,-430 560,-430 560,-430 548,-430"/>
<polygon fill="#666666" stroke="#666666" points="560,-430 560,-430 688,-430 688,-430 560,-430"/>
<polygon fill="none" stroke="#666666" points="548,-288 548,-492 688,-492 688,-288 548,-288"/>
</a>
</g>
</g>
<!-- Node1&#45;&gt;Node2 -->
<g id="edge1_Node000001_Node000002" class="edge">
<title>Node1&#45;&gt;Node2</title>
<g id="a_edge1_Node000001_Node000002"><a xlink:title=" ">
<path fill="none" stroke="#63b8ff" d="M677.5,-517.84C673.79,-509.93 669.67,-501.14 665.38,-492"/>
<polygon fill="none" stroke="#63b8ff" points="674.23,-519.11 681.65,-526.67 680.57,-516.13 674.23,-519.11"/>
</a>
</g>
</g>
<!-- Node3 -->
<g id="Node000003" class="node">
<title>Node3</title>
<g id="a_Node000003"><a xlink:href="../../d5/d2b/class_augment_effect.html" target="_top" xlink:title=" ">
<polygon fill="white" stroke="none" points="835.5,-444 706.5,-444 706.5,-336 835.5,-336 835.5,-444"/>
<text text-anchor="start" x="738.75" y="-430.5" font-family="Helvetica,sans-Serif" font-size="10.00">AugmentEffect</text>
<text text-anchor="start" x="769.5" y="-414.5" font-family="Helvetica,sans-Serif" font-size="10.00"> </text>
<text text-anchor="start" x="710.5" y="-398.5" font-family="Helvetica,sans-Serif" font-size="10.00">+</text>
<text text-anchor="start" x="720.5" y="-398.5" font-family="Helvetica,sans-Serif" font-size="10.00">virtual void Equip</text>
<text text-anchor="start" x="720.5" y="-386.5" font-family="Helvetica,sans-Serif" font-size="10.00">(SceneTree sceneTree)</text>
<text text-anchor="start" x="710.5" y="-370.5" font-family="Helvetica,sans-Serif" font-size="10.00">+</text>
<text text-anchor="start" x="720.5" y="-370.5" font-family="Helvetica,sans-Serif" font-size="10.00">virtual void UnEquip</text>
<text text-anchor="start" x="720.5" y="-358.5" font-family="Helvetica,sans-Serif" font-size="10.00">(SceneTree sceneTree)</text>
<text text-anchor="start" x="710.5" y="-342.5" font-family="Helvetica,sans-Serif" font-size="10.00">+</text>
<text text-anchor="start" x="720.5" y="-342.5" font-family="Helvetica,sans-Serif" font-size="10.00">virtual string Description()</text>
<polygon fill="#666666" stroke="#666666" points="706.5,-426 706.5,-426 835.5,-426 835.5,-426 706.5,-426"/>
<polygon fill="#666666" stroke="#666666" points="706.5,-410 706.5,-410 835.5,-410 835.5,-410 706.5,-410"/>
<polygon fill="none" stroke="#666666" points="706.5,-336 706.5,-444 835.5,-444 835.5,-336 706.5,-336"/>
</a>
</g>
</g>
<!-- Node1&#45;&gt;Node3 -->
<g id="edge2_Node000001_Node000003" class="edge">
<title>Node1&#45;&gt;Node3</title>
<g id="a_edge2_Node000001_Node000003"><a xlink:title=" ">
<path fill="none" stroke="#63b8ff" d="M710.78,-517.69C721.05,-496.09 734.38,-468.04 745.89,-443.82"/>
<polygon fill="none" stroke="#63b8ff" points="707.64,-516.14 706.51,-526.68 713.97,-519.15 707.64,-516.14"/>
</a>
</g>
</g>
<!-- Node4 -->
<g id="Node000004" class="node">
<title>Node4</title>
<g id="a_Node000004"><a xlink:href="../../d3/df6/class_additional_stars.html" target="_top" xlink:title=" ">
<polygon fill="white" stroke="none" points="138,-252 0,-252 0,-144 138,-144 138,-252"/>
<text text-anchor="start" x="36" y="-238.5" font-family="Helvetica,sans-Serif" font-size="10.00">AdditionalStars</text>
<text text-anchor="start" x="67.5" y="-222.5" font-family="Helvetica,sans-Serif" font-size="10.00"> </text>
<text text-anchor="start" x="4" y="-206.5" font-family="Helvetica,sans-Serif" font-size="10.00">+</text>
<text text-anchor="start" x="14" y="-206.5" font-family="Helvetica,sans-Serif" font-size="10.00">override void Equip</text>
<text text-anchor="start" x="14" y="-194.5" font-family="Helvetica,sans-Serif" font-size="10.00">(SceneTree sceneTree)</text>
<text text-anchor="start" x="4" y="-178.5" font-family="Helvetica,sans-Serif" font-size="10.00">+</text>
<text text-anchor="start" x="14" y="-178.5" font-family="Helvetica,sans-Serif" font-size="10.00">override void UnEquip</text>
<text text-anchor="start" x="14" y="-166.5" font-family="Helvetica,sans-Serif" font-size="10.00">(SceneTree sceneTree)</text>
<text text-anchor="start" x="4" y="-150.5" font-family="Helvetica,sans-Serif" font-size="10.00">+</text>
<text text-anchor="start" x="14" y="-150.5" font-family="Helvetica,sans-Serif" font-size="10.00">override string Description()</text>
<polygon fill="#666666" stroke="#666666" points="0,-234 0,-234 138,-234 138,-234 0,-234"/>
<polygon fill="#666666" stroke="#666666" points="0,-218 0,-218 138,-218 138,-218 0,-218"/>
<polygon fill="none" stroke="#666666" points="0,-144 0,-252 138,-252 138,-144 0,-144"/>
</a>
</g>
</g>
<!-- Node3&#45;&gt;Node4 -->
<g id="edge3_Node000003_Node000004" class="edge">
<title>Node3&#45;&gt;Node4</title>
<g id="a_edge3_Node000003_Node000004"><a xlink:title=" ">
<path fill="none" stroke="#63b8ff" d="M738.64,-327.15C727.55,-311.8 713.65,-297.14 697,-288 589.62,-229.07 262.83,-291.82 147,-252 143.9,-250.94 140.81,-249.71 137.75,-248.37"/>
<polygon fill="none" stroke="#63b8ff" points="735.46,-328.7 743.99,-334.98 741.24,-324.75 735.46,-328.7"/>
</a>
</g>
</g>
<!-- Node5 -->
<g id="Node000005" class="node">
<title>Node5</title>
<g id="a_Node000005"><a xlink:href="../../d2/d5b/class_cast_additional_spell.html" target="_top" xlink:title=" ">
<polygon fill="white" stroke="none" points="294,-238 156,-238 156,-158 294,-158 294,-238"/>
<text text-anchor="start" x="182.25" y="-224.5" font-family="Helvetica,sans-Serif" font-size="10.00">CastAdditionalSpell</text>
<text text-anchor="start" x="223.5" y="-208.5" font-family="Helvetica,sans-Serif" font-size="10.00"> </text>
<text text-anchor="start" x="160" y="-192.5" font-family="Helvetica,sans-Serif" font-size="10.00">+</text>
<text text-anchor="start" x="170" y="-192.5" font-family="Helvetica,sans-Serif" font-size="10.00">override void Equip</text>
<text text-anchor="start" x="170" y="-180.5" font-family="Helvetica,sans-Serif" font-size="10.00">(SceneTree sceneTree)</text>
<text text-anchor="start" x="160" y="-164.5" font-family="Helvetica,sans-Serif" font-size="10.00">+</text>
<text text-anchor="start" x="170" y="-164.5" font-family="Helvetica,sans-Serif" font-size="10.00">override string Description()</text>
<polygon fill="#666666" stroke="#666666" points="156,-220 156,-220 294,-220 294,-220 156,-220"/>
<polygon fill="#666666" stroke="#666666" points="156,-204 156,-204 294,-204 294,-204 156,-204"/>
<polygon fill="none" stroke="#666666" points="156,-158 156,-238 294,-238 294,-158 156,-158"/>
</a>
</g>
</g>
<!-- Node3&#45;&gt;Node5 -->
<g id="edge4_Node000003_Node000005" class="edge">
<title>Node3&#45;&gt;Node5</title>
<g id="a_edge4_Node000003_Node000005"><a xlink:title=" ">
<path fill="none" stroke="#63b8ff" d="M738.02,-326.78C727,-311.66 713.29,-297.22 697,-288 543.95,-201.42 468.54,-311.3 303,-252 293.14,-248.47 283.33,-243.39 274.17,-237.76"/>
<polygon fill="none" stroke="#63b8ff" points="735.11,-328.74 743.67,-334.99 740.88,-324.77 735.11,-328.74"/>
</a>
</g>
</g>
<!-- Node6 -->
<g id="Node000006" class="node">
<title>Node6</title>
<g id="a_Node000006"><a xlink:href="../../d8/d35/class_extra_armor_of_all_types.html" target="_top" xlink:title=" ">
<polygon fill="white" stroke="none" points="450,-252 312,-252 312,-144 450,-144 450,-252"/>
<text text-anchor="start" x="332.25" y="-238.5" font-family="Helvetica,sans-Serif" font-size="10.00">ExtraArmorOfAllTypes</text>
<text text-anchor="start" x="379.5" y="-222.5" font-family="Helvetica,sans-Serif" font-size="10.00"> </text>
<text text-anchor="start" x="316" y="-206.5" font-family="Helvetica,sans-Serif" font-size="10.00">+</text>
<text text-anchor="start" x="326" y="-206.5" font-family="Helvetica,sans-Serif" font-size="10.00">override void Equip</text>
<text text-anchor="start" x="326" y="-194.5" font-family="Helvetica,sans-Serif" font-size="10.00">(SceneTree sceneTree)</text>
<text text-anchor="start" x="316" y="-178.5" font-family="Helvetica,sans-Serif" font-size="10.00">+</text>
<text text-anchor="start" x="326" y="-178.5" font-family="Helvetica,sans-Serif" font-size="10.00">override void UnEquip</text>
<text text-anchor="start" x="326" y="-166.5" font-family="Helvetica,sans-Serif" font-size="10.00">(SceneTree sceneTree)</text>
<text text-anchor="start" x="316" y="-150.5" font-family="Helvetica,sans-Serif" font-size="10.00">+</text>
<text text-anchor="start" x="326" y="-150.5" font-family="Helvetica,sans-Serif" font-size="10.00">override string Description()</text>
<polygon fill="#666666" stroke="#666666" points="312,-234 312,-234 450,-234 450,-234 312,-234"/>
<polygon fill="#666666" stroke="#666666" points="312,-218 312,-218 450,-218 450,-218 312,-218"/>
<polygon fill="none" stroke="#666666" points="312,-144 312,-252 450,-252 450,-144 312,-144"/>
</a>
</g>
</g>
<!-- Node3&#45;&gt;Node6 -->
<g id="edge5_Node000003_Node000006" class="edge">
<title>Node3&#45;&gt;Node6</title>
<g id="a_edge5_Node000003_Node000006"><a xlink:title=" ">
<path fill="none" stroke="#63b8ff" d="M737.17,-326.76C726.24,-311.88 712.78,-297.55 697,-288 605.48,-232.6 558.61,-291.03 459,-252 455.95,-250.81 452.9,-249.47 449.87,-248.03"/>
<polygon fill="none" stroke="#63b8ff" points="734.19,-328.61 742.78,-334.81 739.94,-324.61 734.19,-328.61"/>
</a>
</g>
</g>
<!-- Node7 -->
<g id="Node000007" class="node">
<title>Node7</title>
<g id="a_Node000007"><a xlink:href="../../df/deb/class_extra_armor_of_type.html" target="_top" xlink:title=" ">
<polygon fill="white" stroke="none" points="606,-252 468,-252 468,-144 606,-144 606,-252"/>
<text text-anchor="start" x="496.5" y="-238.5" font-family="Helvetica,sans-Serif" font-size="10.00">ExtraArmorOfType</text>
<text text-anchor="start" x="535.5" y="-222.5" font-family="Helvetica,sans-Serif" font-size="10.00"> </text>
<text text-anchor="start" x="472" y="-206.5" font-family="Helvetica,sans-Serif" font-size="10.00">+</text>
<text text-anchor="start" x="482" y="-206.5" font-family="Helvetica,sans-Serif" font-size="10.00">override void Equip</text>
<text text-anchor="start" x="482" y="-194.5" font-family="Helvetica,sans-Serif" font-size="10.00">(SceneTree sceneTree)</text>
<text text-anchor="start" x="472" y="-178.5" font-family="Helvetica,sans-Serif" font-size="10.00">+</text>
<text text-anchor="start" x="482" y="-178.5" font-family="Helvetica,sans-Serif" font-size="10.00">override void UnEquip</text>
<text text-anchor="start" x="482" y="-166.5" font-family="Helvetica,sans-Serif" font-size="10.00">(SceneTree sceneTree)</text>
<text text-anchor="start" x="472" y="-150.5" font-family="Helvetica,sans-Serif" font-size="10.00">+</text>
<text text-anchor="start" x="482" y="-150.5" font-family="Helvetica,sans-Serif" font-size="10.00">override string Description()</text>
<polygon fill="#666666" stroke="#666666" points="468,-234 468,-234 606,-234 606,-234 468,-234"/>
<polygon fill="#666666" stroke="#666666" points="468,-218 468,-218 606,-218 606,-218 468,-218"/>
<polygon fill="none" stroke="#666666" points="468,-144 468,-252 606,-252 606,-144 468,-144"/>
</a>
</g>
</g>
<!-- Node3&#45;&gt;Node7 -->
<g id="edge6_Node000003_Node000007" class="edge">
<title>Node3&#45;&gt;Node7</title>
<g id="a_edge6_Node000003_Node000007"><a xlink:title=" ">
<path fill="none" stroke="#63b8ff" d="M733.39,-326.84C722.87,-312.82 710.56,-298.88 697,-288 665.95,-263.09 649.83,-271.27 615,-252 611.99,-250.34 608.95,-248.59 605.91,-246.78"/>
<polygon fill="none" stroke="#63b8ff" points="730.46,-328.76 739.15,-334.82 736.13,-324.66 730.46,-328.76"/>
</a>
</g>
</g>
<!-- Node8 -->
<g id="Node000008" class="node">
<title>Node8</title>
<g id="a_Node000008"><a xlink:href="../../d9/d41/class_flat_damage_for_one_type.html" target="_top" xlink:title=" ">
<polygon fill="white" stroke="none" points="762,-238 624,-238 624,-158 762,-158 762,-238"/>
<text text-anchor="start" x="639.75" y="-224.5" font-family="Helvetica,sans-Serif" font-size="10.00">FlatDamageForOneType</text>
<text text-anchor="start" x="691.5" y="-208.5" font-family="Helvetica,sans-Serif" font-size="10.00"> </text>
<text text-anchor="start" x="628" y="-192.5" font-family="Helvetica,sans-Serif" font-size="10.00">+</text>
<text text-anchor="start" x="638" y="-192.5" font-family="Helvetica,sans-Serif" font-size="10.00">override void Equip</text>
<text text-anchor="start" x="638" y="-180.5" font-family="Helvetica,sans-Serif" font-size="10.00">(SceneTree sceneTree)</text>
<text text-anchor="start" x="628" y="-164.5" font-family="Helvetica,sans-Serif" font-size="10.00">+</text>
<text text-anchor="start" x="638" y="-164.5" font-family="Helvetica,sans-Serif" font-size="10.00">override string Description()</text>
<polygon fill="#666666" stroke="#666666" points="624,-220 624,-220 762,-220 762,-220 624,-220"/>
<polygon fill="#666666" stroke="#666666" points="624,-204 624,-204 762,-204 762,-204 624,-204"/>
<polygon fill="none" stroke="#666666" points="624,-158 624,-238 762,-238 762,-158 624,-158"/>
</a>
</g>
</g>
<!-- Node3&#45;&gt;Node8 -->
<g id="edge7_Node000003_Node000008" class="edge">
<title>Node3&#45;&gt;Node8</title>
<g id="a_edge7_Node000003_Node000008"><a xlink:title=" ">
<path fill="none" stroke="#63b8ff" d="M744.97,-325.59C733.04,-296.54 719.28,-263.03 708.92,-237.79"/>
<polygon fill="none" stroke="#63b8ff" points="741.66,-326.75 748.7,-334.67 748.14,-324.09 741.66,-326.75"/>
</a>
</g>
</g>
<!-- Node9 -->
<g id="Node000009" class="node">
<title>Node9</title>
<g id="a_Node000009"><a xlink:href="../../d4/d8f/class_flat_damage_for_spell_slot.html" target="_top" xlink:title=" ">
<polygon fill="white" stroke="none" points="918,-238 780,-238 780,-158 918,-158 918,-238"/>
<text text-anchor="start" x="795.75" y="-224.5" font-family="Helvetica,sans-Serif" font-size="10.00">FlatDamageForSpellSlot</text>
<text text-anchor="start" x="847.5" y="-208.5" font-family="Helvetica,sans-Serif" font-size="10.00"> </text>
<text text-anchor="start" x="784" y="-192.5" font-family="Helvetica,sans-Serif" font-size="10.00">+</text>
<text text-anchor="start" x="794" y="-192.5" font-family="Helvetica,sans-Serif" font-size="10.00">override void Equip</text>
<text text-anchor="start" x="794" y="-180.5" font-family="Helvetica,sans-Serif" font-size="10.00">(SceneTree sceneTree)</text>
<text text-anchor="start" x="784" y="-164.5" font-family="Helvetica,sans-Serif" font-size="10.00">+</text>
<text text-anchor="start" x="794" y="-164.5" font-family="Helvetica,sans-Serif" font-size="10.00">override string Description()</text>
<polygon fill="#666666" stroke="#666666" points="780,-220 780,-220 918,-220 918,-220 780,-220"/>
<polygon fill="#666666" stroke="#666666" points="780,-204 780,-204 918,-204 918,-204 780,-204"/>
<polygon fill="none" stroke="#666666" points="780,-158 780,-238 918,-238 918,-158 780,-158"/>
</a>
</g>
</g>
<!-- Node3&#45;&gt;Node9 -->
<g id="edge8_Node000003_Node000009" class="edge">
<title>Node3&#45;&gt;Node9</title>
<g id="a_edge8_Node000003_Node000009"><a xlink:title=" ">
<path fill="none" stroke="#63b8ff" d="M797.03,-325.59C808.96,-296.54 822.72,-263.03 833.08,-237.79"/>
<polygon fill="none" stroke="#63b8ff" points="793.86,-324.09 793.3,-334.67 800.34,-326.75 793.86,-324.09"/>
</a>
</g>
</g>
<!-- Node10 -->
<g id="Node000010" class="node">
<title>Node10</title>
<g id="a_Node000010"><a xlink:href="../../d1/d2e/class_h_p_increase_augment_effect.html" target="_top" xlink:title=" ">
<polygon fill="white" stroke="none" points="1074,-252 936,-252 936,-144 1074,-144 1074,-252"/>
<text text-anchor="start" x="946.88" y="-238.5" font-family="Helvetica,sans-Serif" font-size="10.00">HPIncreaseAugmentEffect</text>
<text text-anchor="start" x="1003.5" y="-222.5" font-family="Helvetica,sans-Serif" font-size="10.00"> </text>
<text text-anchor="start" x="940" y="-206.5" font-family="Helvetica,sans-Serif" font-size="10.00">+</text>
<text text-anchor="start" x="950" y="-206.5" font-family="Helvetica,sans-Serif" font-size="10.00">override void Equip</text>
<text text-anchor="start" x="950" y="-194.5" font-family="Helvetica,sans-Serif" font-size="10.00">(SceneTree sceneTree)</text>
<text text-anchor="start" x="940" y="-178.5" font-family="Helvetica,sans-Serif" font-size="10.00">+</text>
<text text-anchor="start" x="950" y="-178.5" font-family="Helvetica,sans-Serif" font-size="10.00">override void UnEquip</text>
<text text-anchor="start" x="950" y="-166.5" font-family="Helvetica,sans-Serif" font-size="10.00">(SceneTree sceneTree)</text>
<text text-anchor="start" x="940" y="-150.5" font-family="Helvetica,sans-Serif" font-size="10.00">+</text>
<text text-anchor="start" x="950" y="-150.5" font-family="Helvetica,sans-Serif" font-size="10.00">override string Description()</text>
<polygon fill="#666666" stroke="#666666" points="936,-234 936,-234 1074,-234 1074,-234 936,-234"/>
<polygon fill="#666666" stroke="#666666" points="936,-218 936,-218 1074,-218 1074,-218 936,-218"/>
<polygon fill="none" stroke="#666666" points="936,-144 936,-252 1074,-252 1074,-144 936,-144"/>
</a>
</g>
</g>
<!-- Node3&#45;&gt;Node10 -->
<g id="edge9_Node000003_Node000010" class="edge">
<title>Node3&#45;&gt;Node10</title>
<g id="a_edge9_Node000003_Node000010"><a xlink:title=" ">
<path fill="none" stroke="#63b8ff" d="M843.8,-329.89C874.6,-304.88 910.19,-275.98 940.08,-251.71"/>
<polygon fill="none" stroke="#63b8ff" points="841.98,-326.86 836.43,-335.88 846.4,-332.29 841.98,-326.86"/>
</a>
</g>
</g>
<!-- Node11 -->
<g id="Node000011" class="node">
<title>Node11</title>
<g id="a_Node000011"><a xlink:href="../../d8/d16/class_on_cast_augment_effect.html" target="_top" xlink:title=" ">
<polygon fill="white" stroke="none" points="1200,-230 1092,-230 1092,-166 1200,-166 1200,-230"/>
<text text-anchor="start" x="1096.88" y="-216.5" font-family="Helvetica,sans-Serif" font-size="10.00">OnCastAugmentEffect</text>
<text text-anchor="start" x="1144.5" y="-200.5" font-family="Helvetica,sans-Serif" font-size="10.00"> </text>
<text text-anchor="start" x="1097.5" y="-184.5" font-family="Helvetica,sans-Serif" font-size="10.00">+</text>
<text text-anchor="start" x="1109" y="-184.5" font-family="Helvetica,sans-Serif" font-size="10.00">virtual void OnCast</text>
<text text-anchor="start" x="1109" y="-172.5" font-family="Helvetica,sans-Serif" font-size="10.00">(Spell spell)</text>
<polygon fill="#666666" stroke="#666666" points="1092,-212 1092,-212 1200,-212 1200,-212 1092,-212"/>
<polygon fill="#666666" stroke="#666666" points="1092,-196 1092,-196 1200,-196 1200,-196 1092,-196"/>
<polygon fill="none" stroke="#666666" points="1092,-166 1092,-230 1200,-230 1200,-166 1092,-166"/>
</a>
</g>
</g>
<!-- Node3&#45;&gt;Node11 -->
<g id="edge10_Node000003_Node000011" class="edge">
<title>Node3&#45;&gt;Node11</title>
<g id="a_edge10_Node000003_Node000011"><a xlink:title=" ">
<path fill="none" stroke="#63b8ff" d="M845.79,-363.08C910.93,-338.91 1006.63,-299.52 1083,-252 1093.32,-245.58 1103.73,-237.58 1113.03,-229.76"/>
<polygon fill="none" stroke="#63b8ff" points="844.8,-359.71 836.63,-366.45 847.22,-366.28 844.8,-359.71"/>
</a>
</g>
</g>
<!-- Node14 -->
<g id="Node000014" class="node">
<title>Node14</title>
<g id="a_Node000014"><a xlink:href="../../d1/d07/class_percent_damage_for_one_spell.html" target="_top" xlink:title=" ">
<polygon fill="white" stroke="none" points="1356,-238 1218,-238 1218,-158 1356,-158 1356,-238"/>
<text text-anchor="start" x="1224.75" y="-224.5" font-family="Helvetica,sans-Serif" font-size="10.00">PercentDamageForOneSpell</text>
<text text-anchor="start" x="1285.5" y="-208.5" font-family="Helvetica,sans-Serif" font-size="10.00"> </text>
<text text-anchor="start" x="1222" y="-192.5" font-family="Helvetica,sans-Serif" font-size="10.00">+</text>
<text text-anchor="start" x="1232" y="-192.5" font-family="Helvetica,sans-Serif" font-size="10.00">override void Equip</text>
<text text-anchor="start" x="1232" y="-180.5" font-family="Helvetica,sans-Serif" font-size="10.00">(SceneTree sceneTree)</text>
<text text-anchor="start" x="1222" y="-164.5" font-family="Helvetica,sans-Serif" font-size="10.00">+</text>
<text text-anchor="start" x="1232" y="-164.5" font-family="Helvetica,sans-Serif" font-size="10.00">override string Description()</text>
<polygon fill="#666666" stroke="#666666" points="1218,-220 1218,-220 1356,-220 1356,-220 1218,-220"/>
<polygon fill="#666666" stroke="#666666" points="1218,-204 1218,-204 1356,-204 1356,-204 1218,-204"/>
<polygon fill="none" stroke="#666666" points="1218,-158 1218,-238 1356,-238 1356,-158 1218,-158"/>
</a>
</g>
</g>
<!-- Node3&#45;&gt;Node14 -->
<g id="edge13_Node000003_Node000014" class="edge">
<title>Node3&#45;&gt;Node14</title>
<g id="a_edge13_Node000003_Node000014"><a xlink:title=" ">
<path fill="none" stroke="#63b8ff" d="M846.33,-372.59C935.67,-351.52 1087.74,-310.57 1209,-252 1217.4,-247.94 1225.93,-243.06 1234.11,-237.93"/>
<polygon fill="none" stroke="#63b8ff" points="845.64,-369.15 836.7,-374.84 847.23,-375.97 845.64,-369.15"/>
</a>
</g>
</g>
<!-- Node15 -->
<g id="Node000015" class="node">
<title>Node15</title>
<g id="a_Node000015"><a xlink:href="../../d1/dd0/class_percent_damage_for_one_type.html" target="_top" xlink:title=" ">
<polygon fill="white" stroke="none" points="1512,-238 1374,-238 1374,-158 1512,-158 1512,-238"/>
<text text-anchor="start" x="1381.12" y="-224.5" font-family="Helvetica,sans-Serif" font-size="10.00">PercentDamageForOneType</text>
<text text-anchor="start" x="1441.5" y="-208.5" font-family="Helvetica,sans-Serif" font-size="10.00"> </text>
<text text-anchor="start" x="1378" y="-192.5" font-family="Helvetica,sans-Serif" font-size="10.00">+</text>
<text text-anchor="start" x="1388" y="-192.5" font-family="Helvetica,sans-Serif" font-size="10.00">override void Equip</text>
<text text-anchor="start" x="1388" y="-180.5" font-family="Helvetica,sans-Serif" font-size="10.00">(SceneTree sceneTree)</text>
<text text-anchor="start" x="1378" y="-164.5" font-family="Helvetica,sans-Serif" font-size="10.00">+</text>
<text text-anchor="start" x="1388" y="-164.5" font-family="Helvetica,sans-Serif" font-size="10.00">override string Description()</text>
<polygon fill="#666666" stroke="#666666" points="1374,-220 1374,-220 1512,-220 1512,-220 1374,-220"/>
<polygon fill="#666666" stroke="#666666" points="1374,-204 1374,-204 1512,-204 1512,-204 1374,-204"/>
<polygon fill="none" stroke="#666666" points="1374,-158 1374,-238 1512,-238 1512,-158 1374,-158"/>
</a>
</g>
</g>
<!-- Node3&#45;&gt;Node15 -->
<g id="edge14_Node000003_Node000015" class="edge">
<title>Node3&#45;&gt;Node15</title>
<g id="a_edge14_Node000003_Node000015"><a xlink:title=" ">
<path fill="none" stroke="#63b8ff" d="M846.61,-380.64C962.27,-365.88 1188.31,-329.16 1365,-252 1373.85,-248.13 1382.77,-243.24 1391.25,-237.98"/>
<polygon fill="none" stroke="#63b8ff" points="846.41,-377.14 836.93,-381.86 847.29,-384.09 846.41,-377.14"/>
</a>
</g>
</g>
<!-- Node12 -->
<g id="Node000012" class="node">
<title>Node12</title>
<g id="a_Node000012"><a xlink:href="../../d0/d68/class_increase_duration_of_spell.html" target="_top" xlink:title=" ">
<polygon fill="white" stroke="none" points="1137,-108 999,-108 999,0 1137,0 1137,-108"/>
<text text-anchor="start" x="1014.75" y="-94.5" font-family="Helvetica,sans-Serif" font-size="10.00">IncreaseDurationOfSpell</text>
<text text-anchor="start" x="1066.5" y="-78.5" font-family="Helvetica,sans-Serif" font-size="10.00"> </text>
<text text-anchor="start" x="1003" y="-62.5" font-family="Helvetica,sans-Serif" font-size="10.00">+</text>
<text text-anchor="start" x="1013" y="-62.5" font-family="Helvetica,sans-Serif" font-size="10.00">override void Equip</text>
<text text-anchor="start" x="1013" y="-50.5" font-family="Helvetica,sans-Serif" font-size="10.00">(SceneTree sceneTree)</text>
<text text-anchor="start" x="1003" y="-34.5" font-family="Helvetica,sans-Serif" font-size="10.00">+</text>
<text text-anchor="start" x="1013" y="-34.5" font-family="Helvetica,sans-Serif" font-size="10.00">override void OnCast</text>
<text text-anchor="start" x="1013" y="-22.5" font-family="Helvetica,sans-Serif" font-size="10.00">(Spell spell)</text>
<text text-anchor="start" x="1003" y="-6.5" font-family="Helvetica,sans-Serif" font-size="10.00">+</text>
<text text-anchor="start" x="1013" y="-6.5" font-family="Helvetica,sans-Serif" font-size="10.00">override string Description()</text>
<polygon fill="#666666" stroke="#666666" points="999,-90 999,-90 1137,-90 1137,-90 999,-90"/>
<polygon fill="#666666" stroke="#666666" points="999,-74 999,-74 1137,-74 1137,-74 999,-74"/>
<polygon fill="none" stroke="#666666" points="999,0 999,-108 1137,-108 1137,0 999,0"/>
</a>
</g>
</g>
<!-- Node11&#45;&gt;Node12 -->
<g id="edge11_Node000011_Node000012" class="edge">
<title>Node11&#45;&gt;Node12</title>
<g id="a_edge11_Node000011_Node000012"><a xlink:title=" ">
<path fill="none" stroke="#63b8ff" d="M1123.56,-156.16C1115.29,-141.09 1105.79,-123.8 1097.01,-107.82"/>
<polygon fill="none" stroke="#63b8ff" points="1120.46,-157.78 1128.35,-164.86 1126.6,-154.41 1120.46,-157.78"/>
</a>
</g>
</g>
<!-- Node13 -->
<g id="Node000013" class="node">
<title>Node13</title>
<g id="a_Node000013"><a xlink:href="../../d5/d92/class_increased_radius_of_spell.html" target="_top" xlink:title=" ">
<polygon fill="white" stroke="none" points="1293,-108 1155,-108 1155,0 1293,0 1293,-108"/>
<text text-anchor="start" x="1171.12" y="-94.5" font-family="Helvetica,sans-Serif" font-size="10.00">IncreasedRadiusOfSpell</text>
<text text-anchor="start" x="1222.5" y="-78.5" font-family="Helvetica,sans-Serif" font-size="10.00"> </text>
<text text-anchor="start" x="1159" y="-62.5" font-family="Helvetica,sans-Serif" font-size="10.00">+</text>
<text text-anchor="start" x="1169" y="-62.5" font-family="Helvetica,sans-Serif" font-size="10.00">override void Equip</text>
<text text-anchor="start" x="1169" y="-50.5" font-family="Helvetica,sans-Serif" font-size="10.00">(SceneTree sceneTree)</text>
<text text-anchor="start" x="1159" y="-34.5" font-family="Helvetica,sans-Serif" font-size="10.00">+</text>
<text text-anchor="start" x="1169" y="-34.5" font-family="Helvetica,sans-Serif" font-size="10.00">override void OnCast</text>
<text text-anchor="start" x="1169" y="-22.5" font-family="Helvetica,sans-Serif" font-size="10.00">(Spell spell)</text>
<text text-anchor="start" x="1159" y="-6.5" font-family="Helvetica,sans-Serif" font-size="10.00">+</text>
<text text-anchor="start" x="1169" y="-6.5" font-family="Helvetica,sans-Serif" font-size="10.00">override string Description()</text>
<polygon fill="#666666" stroke="#666666" points="1155,-90 1155,-90 1293,-90 1293,-90 1155,-90"/>
<polygon fill="#666666" stroke="#666666" points="1155,-74 1155,-74 1293,-74 1293,-74 1155,-74"/>
<polygon fill="none" stroke="#666666" points="1155,0 1155,-108 1293,-108 1293,0 1155,0"/>
</a>
</g>
</g>
<!-- Node11&#45;&gt;Node13 -->
<g id="edge12_Node000011_Node000013" class="edge">
<title>Node11&#45;&gt;Node13</title>
<g id="a_edge12_Node000011_Node000013"><a xlink:title=" ">
<path fill="none" stroke="#63b8ff" d="M1168.44,-156.16C1176.71,-141.09 1186.21,-123.8 1194.99,-107.82"/>
<polygon fill="none" stroke="#63b8ff" points="1165.4,-154.41 1163.65,-164.86 1171.54,-157.78 1165.4,-154.41"/>
</a>
</g>
</g>
</g>
</svg>
