<?xml version="1.0" encoding="UTF-8" standalone="no"?>
<!DOCTYPE svg PUBLIC "-//W3C//DTD SVG 1.1//EN"
 "http://www.w3.org/Graphics/SVG/1.1/DTD/svg11.dtd">
<!-- Generated by graphviz version 12.1.0 (20240811.2233)
 -->
<!-- Title: PlayerSpellCasting Pages: 1 -->
<svg width="247pt" height="436pt"
 viewBox="0.00 0.00 247.00 436.00" xmlns="http://www.w3.org/2000/svg" xmlns:xlink="http://www.w3.org/1999/xlink">
<g id="graph0" class="graph" transform="scale(1 1) rotate(0) translate(4 432)">
<title>PlayerSpellCasting</title>
<!-- Node1 -->
<g id="Node000001" class="node">
<title>Node1</title>
<g id="a_Node000001"><a xlink:title=" ">
<polygon fill="#999999" stroke="none" points="172,-96 19,-96 19,0 172,0 172,-96"/>
<text text-anchor="start" x="53.88" y="-82.5" font-family="Helvetica,sans-Serif" font-size="10.00">PlayerSpellCasting</text>
<text text-anchor="start" x="94" y="-66.5" font-family="Helvetica,sans-Serif" font-size="10.00"> </text>
<text text-anchor="start" x="23" y="-50.5" font-family="Helvetica,sans-Serif" font-size="10.00">+</text>
<text text-anchor="start" x="33" y="-50.5" font-family="Helvetica,sans-Serif" font-size="10.00">override void Enter()</text>
<text text-anchor="start" x="23" y="-34.5" font-family="Helvetica,sans-Serif" font-size="10.00">+</text>
<text text-anchor="start" x="33" y="-34.5" font-family="Helvetica,sans-Serif" font-size="10.00">override bool CanEnter()</text>
<text text-anchor="start" x="23" y="-18.5" font-family="Helvetica,sans-Serif" font-size="10.00">+</text>
<text text-anchor="start" x="33" y="-18.5" font-family="Helvetica,sans-Serif" font-size="10.00">override State ProcessPhysics</text>
<text text-anchor="start" x="33" y="-6.5" font-family="Helvetica,sans-Serif" font-size="10.00">(double delta)</text>
<polygon fill="#666666" stroke="#666666" points="19,-78 19,-78 172,-78 172,-78 19,-78"/>
<polygon fill="#666666" stroke="#666666" points="19,-62 19,-62 172,-62 172,-62 19,-62"/>
<polygon fill="none" stroke="#666666" points="19,0 19,-96 172,-96 172,0 19,0"/>
</a>
</g>
</g>
<!-- Node2 -->
<g id="Node000002" class="node">
<title>Node2</title>
<g id="a_Node000002"><a xlink:href="../../d0/d8b/class_state.html" target="_top" xlink:title=" ">
<polygon fill="white" stroke="none" points="172.5,-328 18.5,-328 18.5,-144 172.5,-144 172.5,-328"/>
<text text-anchor="start" x="83.88" y="-314.5" font-family="Helvetica,sans-Serif" font-size="10.00">State</text>
<text text-anchor="start" x="94" y="-298.5" font-family="Helvetica,sans-Serif" font-size="10.00"> </text>
<text text-anchor="start" x="22.5" y="-282.5" font-family="Helvetica,sans-Serif" font-size="10.00">+</text>
<text text-anchor="start" x="32.5" y="-282.5" font-family="Helvetica,sans-Serif" font-size="10.00">virtual bool CanEnter()</text>
<text text-anchor="start" x="22.5" y="-266.5" font-family="Helvetica,sans-Serif" font-size="10.00">+</text>
<text text-anchor="start" x="32.5" y="-266.5" font-family="Helvetica,sans-Serif" font-size="10.00">virtual void Enter()</text>
<text text-anchor="start" x="22.5" y="-250.5" font-family="Helvetica,sans-Serif" font-size="10.00">+</text>
<text text-anchor="start" x="32.5" y="-250.5" font-family="Helvetica,sans-Serif" font-size="10.00">virtual void Exit()</text>
<text text-anchor="start" x="22.5" y="-234.5" font-family="Helvetica,sans-Serif" font-size="10.00">+</text>
<text text-anchor="start" x="32.5" y="-234.5" font-family="Helvetica,sans-Serif" font-size="10.00">virtual State ProcessInput</text>
<text text-anchor="start" x="32.5" y="-222.5" font-family="Helvetica,sans-Serif" font-size="10.00">(InputEvent @event)</text>
<text text-anchor="start" x="22.5" y="-206.5" font-family="Helvetica,sans-Serif" font-size="10.00">+</text>
<text text-anchor="start" x="32.5" y="-206.5" font-family="Helvetica,sans-Serif" font-size="10.00">virtual State ProcessFrame</text>
<text text-anchor="start" x="32.5" y="-194.5" font-family="Helvetica,sans-Serif" font-size="10.00">(double delta)</text>
<text text-anchor="start" x="22.5" y="-178.5" font-family="Helvetica,sans-Serif" font-size="10.00">+</text>
<text text-anchor="start" x="32.5" y="-178.5" font-family="Helvetica,sans-Serif" font-size="10.00">virtual State ProcessPhysics</text>
<text text-anchor="start" x="32.5" y="-166.5" font-family="Helvetica,sans-Serif" font-size="10.00">(double delta)</text>
<text text-anchor="start" x="22.5" y="-150.5" font-family="Helvetica,sans-Serif" font-size="10.00">+</text>
<text text-anchor="start" x="32.5" y="-150.5" font-family="Helvetica,sans-Serif" font-size="10.00">virtual void UpdateAnimations()</text>
<polygon fill="#666666" stroke="#666666" points="18.5,-310 18.5,-310 172.5,-310 172.5,-310 18.5,-310"/>
<polygon fill="#666666" stroke="#666666" points="18.5,-294 18.5,-294 172.5,-294 172.5,-294 18.5,-294"/>
<polygon fill="none" stroke="#666666" points="18.5,-144 18.5,-328 172.5,-328 172.5,-144 18.5,-144"/>
</a>
</g>
</g>
<!-- Node2&#45;&gt;Node1 -->
<g id="edge1_Node000001_Node000002" class="edge">
<title>Node2&#45;&gt;Node1</title>
<g id="a_edge1_Node000001_Node000002"><a xlink:title=" ">
<path fill="none" stroke="#63b8ff" d="M93.35,-132.72C93.36,-126.38 93.41,-120.11 93.5,-114 93.59,-108.13 93.73,-101.96 93.89,-95.86"/>
<polygon fill="none" stroke="#63b8ff" points="89.85,-132.65 93.37,-142.64 96.85,-132.63 89.85,-132.65"/>
</a>
</g>
</g>
<!-- Node2&#45;&gt;Node1 -->
<g id="edge5_Node000001_Node000002" class="edge">
<title>Node2&#45;&gt;Node1</title>
<g id="a_edge5_Node000001_Node000002"><a xlink:title=" ">
<path fill="none" stroke="#63b8ff" d="M95.5,-144.18C95.5,-132.12 95.5,-120 95.5,-108.66"/>
<polygon fill="none" stroke="#63b8ff" points="95.5,-108.63 91.5,-102.63 95.5,-96.63 99.5,-102.63 95.5,-108.63"/>
</a>
</g>
<text text-anchor="middle" x="107.88" y="-116.5" font-family="Helvetica,sans-Serif" font-size="10.00" fill="grey"> +Idle</text>
</g>
<!-- Node3 -->
<g id="Node000003" class="node">
<title>Node3</title>
<g id="a_Node000003"><a xlink:href="../../dc/d8f/class_node.html" target="_top" xlink:title=" ">
<polygon fill="white" stroke="none" points="33,-428 0,-428 0,-376 33,-376 33,-428"/>
<text text-anchor="start" x="4.88" y="-414.5" font-family="Helvetica,sans-Serif" font-size="10.00">Node</text>
<text text-anchor="start" x="15" y="-398.5" font-family="Helvetica,sans-Serif" font-size="10.00"> </text>
<text text-anchor="start" x="15" y="-382.5" font-family="Helvetica,sans-Serif" font-size="10.00"> </text>
<polygon fill="#666666" stroke="#666666" points="0,-410 0,-410 33,-410 33,-410 0,-410"/>
<polygon fill="#666666" stroke="#666666" points="0,-394 0,-394 33,-394 33,-394 0,-394"/>
<polygon fill="none" stroke="#666666" points="0,-376 0,-428 33,-428 33,-376 0,-376"/>
</a>
</g>
</g>
<!-- Node3&#45;&gt;Node2 -->
<g id="edge2_Node000002_Node000003" class="edge">
<title>Node3&#45;&gt;Node2</title>
<g id="a_edge2_Node000002_Node000003"><a xlink:title=" ">
<path fill="none" stroke="#63b8ff" d="M33.45,-365.81C38.92,-354.46 45.25,-341.31 51.74,-327.84"/>
<polygon fill="none" stroke="#63b8ff" points="30.34,-364.2 29.16,-374.73 36.65,-367.24 30.34,-364.2"/>
</a>
</g>
</g>
<!-- Node4 -->
<g id="Node000004" class="node">
<title>Node4</title>
<g id="a_Node000004"><a xlink:title=" ">
<polygon fill="white" stroke="none" points="139.5,-428 51.5,-428 51.5,-376 139.5,-376 139.5,-428"/>
<text text-anchor="start" x="56.5" y="-414.5" font-family="Helvetica,sans-Serif" font-size="10.00">CharacterBody2D</text>
<text text-anchor="start" x="94" y="-398.5" font-family="Helvetica,sans-Serif" font-size="10.00"> </text>
<text text-anchor="start" x="94" y="-382.5" font-family="Helvetica,sans-Serif" font-size="10.00"> </text>
<polygon fill="#666666" stroke="#666666" points="51.5,-410 51.5,-410 139.5,-410 139.5,-410 51.5,-410"/>
<polygon fill="#666666" stroke="#666666" points="51.5,-394 51.5,-394 139.5,-394 139.5,-394 51.5,-394"/>
<polygon fill="none" stroke="#666666" points="51.5,-376 51.5,-428 139.5,-428 139.5,-376 51.5,-376"/>
</a>
</g>
</g>
<!-- Node4&#45;&gt;Node2 -->
<g id="edge3_Node000002_Node000004" class="edge">
<title>Node4&#45;&gt;Node2</title>
<g id="a_edge3_Node000002_Node000004"><a xlink:title=" ">
<path fill="none" stroke="#63b8ff" d="M95.5,-376.09C95.5,-366.04 95.5,-353.72 95.5,-340.61"/>
<polygon fill="none" stroke="#63b8ff" points="95.5,-340.74 91.5,-334.74 95.5,-328.74 99.5,-334.74 95.5,-340.74"/>
</a>
</g>
<text text-anchor="middle" x="114.25" y="-348.5" font-family="Helvetica,sans-Serif" font-size="10.00" fill="grey"> +Parent</text>
</g>
<!-- Node5 -->
<g id="Node000005" class="node">
<title>Node5</title>
<g id="a_Node000005"><a xlink:title=" ">
<polygon fill="white" stroke="none" points="239,-428 158,-428 158,-376 239,-376 239,-428"/>
<text text-anchor="start" x="162.88" y="-414.5" font-family="Helvetica,sans-Serif" font-size="10.00">AnimationPlayer</text>
<text text-anchor="start" x="197" y="-398.5" font-family="Helvetica,sans-Serif" font-size="10.00"> </text>
<text text-anchor="start" x="197" y="-382.5" font-family="Helvetica,sans-Serif" font-size="10.00"> </text>
<polygon fill="#666666" stroke="#666666" points="158,-410 158,-410 239,-410 239,-410 158,-410"/>
<polygon fill="#666666" stroke="#666666" points="158,-394 158,-394 239,-394 239,-394 158,-394"/>
<polygon fill="none" stroke="#666666" points="158,-376 158,-428 239,-428 239,-376 158,-376"/>
</a>
</g>
</g>
<!-- Node5&#45;&gt;Node2 -->
<g id="edge4_Node000002_Node000005" class="edge">
<title>Node5&#45;&gt;Node2</title>
<g id="a_edge4_Node000002_Node000005"><a xlink:title=" ">
<path fill="none" stroke="#63b8ff" d="M182.86,-376.09C176.22,-365.52 168,-352.44 159.29,-338.57"/>
<polygon fill="none" stroke="#63b8ff" points="159.41,-338.76 152.83,-335.81 153.03,-328.6 159.61,-331.55 159.41,-338.76"/>
</a>
</g>
<text text-anchor="middle" x="199.75" y="-348.5" font-family="Helvetica,sans-Serif" font-size="10.00" fill="grey"> +Animations</text>
</g>
</g>
</svg>
