<?xml version="1.0" encoding="UTF-8" standalone="no"?>
<!DOCTYPE svg PUBLIC "-//W3C//DTD SVG 1.1//EN"
 "http://www.w3.org/Graphics/SVG/1.1/DTD/svg11.dtd">
<!-- Generated by graphviz version 12.1.0 (20240811.2233)
 -->
<!-- Title: Minimap Pages: 1 -->
<svg width="125pt" height="192pt"
 viewBox="0.00 0.00 125.00 192.00" xmlns="http://www.w3.org/2000/svg" xmlns:xlink="http://www.w3.org/1999/xlink">
<g id="graph0" class="graph" transform="scale(1 1) rotate(0) translate(4 188)">
<title>Minimap</title>
<!-- Node1 -->
<g id="Node000001" class="node">
<title>Node1</title>
<g id="a_Node000001"><a xlink:title="A UI element that displays a minimap of the dungeon.">
<polygon fill="#999999" stroke="none" points="117,-96 0,-96 0,0 117,0 117,-96"/>
<text text-anchor="start" x="40.12" y="-82.5" font-family="Helvetica,sans-Serif" font-size="10.00">Minimap</text>
<text text-anchor="start" x="4" y="-66.5" font-family="Helvetica,sans-Serif" font-size="10.00">+</text>
<text text-anchor="start" x="14" y="-66.5" font-family="Helvetica,sans-Serif" font-size="10.00">Vector2I CellSize</text>
<text text-anchor="start" x="4" y="-50.5" font-family="Helvetica,sans-Serif" font-size="10.00">+</text>
<text text-anchor="start" x="14" y="-50.5" font-family="Helvetica,sans-Serif" font-size="10.00">override void _Ready()</text>
<text text-anchor="start" x="4" y="-34.5" font-family="Helvetica,sans-Serif" font-size="10.00">+</text>
<text text-anchor="start" x="14" y="-34.5" font-family="Helvetica,sans-Serif" font-size="10.00">override void _Process</text>
<text text-anchor="start" x="14" y="-22.5" font-family="Helvetica,sans-Serif" font-size="10.00">(double delta)</text>
<text text-anchor="start" x="4" y="-6.5" font-family="Helvetica,sans-Serif" font-size="10.00">+</text>
<text text-anchor="start" x="14" y="-6.5" font-family="Helvetica,sans-Serif" font-size="10.00">override void _Draw()</text>
<polygon fill="#666666" stroke="#666666" points="0,-78 0,-78 117,-78 117,-78 0,-78"/>
<polygon fill="#666666" stroke="#666666" points="0,-62 0,-62 12,-62 12,-62 0,-62"/>
<polygon fill="#666666" stroke="#666666" points="12,-62 12,-62 117,-62 117,-62 12,-62"/>
<polygon fill="none" stroke="#666666" points="0,0 0,-96 117,-96 117,0 0,0"/>
</a>
</g>
</g>
<!-- Node2 -->
<g id="Node000002" class="node">
<title>Node2</title>
<g id="a_Node000002"><a xlink:href="../../d7/d49/class_control.html" target="_top" xlink:title=" ">
<polygon fill="white" stroke="none" points="79,-184 38,-184 38,-132 79,-132 79,-184"/>
<text text-anchor="start" x="42.75" y="-170.5" font-family="Helvetica,sans-Serif" font-size="10.00">Control</text>
<text text-anchor="start" x="57" y="-154.5" font-family="Helvetica,sans-Serif" font-size="10.00"> </text>
<text text-anchor="start" x="57" y="-138.5" font-family="Helvetica,sans-Serif" font-size="10.00"> </text>
<polygon fill="#666666" stroke="#666666" points="38,-166 38,-166 79,-166 79,-166 38,-166"/>
<polygon fill="#666666" stroke="#666666" points="38,-150 38,-150 79,-150 79,-150 38,-150"/>
<polygon fill="none" stroke="#666666" points="38,-132 38,-184 79,-184 79,-132 38,-132"/>
</a>
</g>
</g>
<!-- Node2&#45;&gt;Node1 -->
<g id="edge1_Node000001_Node000002" class="edge">
<title>Node2&#45;&gt;Node1</title>
<g id="a_edge1_Node000001_Node000002"><a xlink:title=" ">
<path fill="none" stroke="#63b8ff" d="M58.5,-120.93C58.5,-112.86 58.5,-104.19 58.5,-95.75"/>
<polygon fill="none" stroke="#63b8ff" points="55,-120.71 58.5,-130.71 62,-120.71 55,-120.71"/>
</a>
</g>
</g>
</g>
</svg>
