<?xml version="1.0" encoding="UTF-8" standalone="no"?>
<!DOCTYPE svg PUBLIC "-//W3C//DTD SVG 1.1//EN"
 "http://www.w3.org/Graphics/SVG/1.1/DTD/svg11.dtd">
<!-- Generated by graphviz version 12.1.0 (20240811.2233)
 -->
<!-- Title: Area2D Pages: 1 -->
<svg width="1858pt" height="568pt"
 viewBox="0.00 0.00 1857.50 568.00" xmlns="http://www.w3.org/2000/svg" xmlns:xlink="http://www.w3.org/1999/xlink">
<g id="graph0" class="graph" transform="scale(1 1) rotate(0) translate(4 564)">
<title>Area2D</title>
<!-- Node1 -->
<g id="Node000001" class="node">
<title>Node1</title>
<g id="a_Node000001"><a xlink:title=" ">
<polygon fill="#999999" stroke="none" points="725.5,-560 682.5,-560 682.5,-508 725.5,-508 725.5,-560"/>
<text text-anchor="start" x="687.5" y="-546.5" font-family="Helvetica,sans-Serif" font-size="10.00">Area2D</text>
<text text-anchor="start" x="702.5" y="-530.5" font-family="Helvetica,sans-Serif" font-size="10.00"> </text>
<text text-anchor="start" x="702.5" y="-514.5" font-family="Helvetica,sans-Serif" font-size="10.00"> </text>
<polygon fill="#666666" stroke="#666666" points="682.5,-542 682.5,-542 725.5,-542 725.5,-542 682.5,-542"/>
<polygon fill="#666666" stroke="#666666" points="682.5,-526 682.5,-526 725.5,-526 725.5,-526 682.5,-526"/>
<polygon fill="none" stroke="#666666" points="682.5,-508 682.5,-560 725.5,-560 725.5,-508 682.5,-508"/>
</a>
</g>
</g>
<!-- Node2 -->
<g id="Node000002" class="node">
<title>Node2</title>
<g id="a_Node000002"><a xlink:href="../../d1/da7/class_health_component.html" target="_top" xlink:title=" ">
<polygon fill="white" stroke="none" points="182,-472 0,-472 0,-208 182,-208 182,-472"/>
<text text-anchor="start" x="51.62" y="-458.5" font-family="Helvetica,sans-Serif" font-size="10.00">HealthComponent</text>
<text text-anchor="start" x="4" y="-442.5" font-family="Helvetica,sans-Serif" font-size="10.00">+</text>
<text text-anchor="start" x="14" y="-442.5" font-family="Helvetica,sans-Serif" font-size="10.00">Healthbar healthbar</text>
<text text-anchor="start" x="4" y="-426.5" font-family="Helvetica,sans-Serif" font-size="10.00">+</text>
<text text-anchor="start" x="14" y="-426.5" font-family="Helvetica,sans-Serif" font-size="10.00">delegate void DeathEvent</text>
<text text-anchor="start" x="14" y="-414.5" font-family="Helvetica,sans-Serif" font-size="10.00">Handler()</text>
<text text-anchor="start" x="4" y="-398.5" font-family="Helvetica,sans-Serif" font-size="10.00">+</text>
<text text-anchor="start" x="14" y="-398.5" font-family="Helvetica,sans-Serif" font-size="10.00">override void _Ready()</text>
<text text-anchor="start" x="4" y="-382.5" font-family="Helvetica,sans-Serif" font-size="10.00">+</text>
<text text-anchor="start" x="14" y="-382.5" font-family="Helvetica,sans-Serif" font-size="10.00">void TakeDamage(Attack</text>
<text text-anchor="start" x="14" y="-370.5" font-family="Helvetica,sans-Serif" font-size="10.00"> attack)</text>
<text text-anchor="start" x="4" y="-354.5" font-family="Helvetica,sans-Serif" font-size="10.00">+</text>
<text text-anchor="start" x="14" y="-354.5" font-family="Helvetica,sans-Serif" font-size="10.00">void SetMaxHP(double</text>
<text text-anchor="start" x="14" y="-342.5" font-family="Helvetica,sans-Serif" font-size="10.00"> newMaxHP)</text>
<text text-anchor="start" x="4" y="-326.5" font-family="Helvetica,sans-Serif" font-size="10.00">+</text>
<text text-anchor="start" x="14" y="-326.5" font-family="Helvetica,sans-Serif" font-size="10.00">double GetMaxHP()</text>
<text text-anchor="start" x="4" y="-310.5" font-family="Helvetica,sans-Serif" font-size="10.00">+</text>
<text text-anchor="start" x="14" y="-310.5" font-family="Helvetica,sans-Serif" font-size="10.00">void SetArmor(double</text>
<text text-anchor="start" x="14" y="-298.5" font-family="Helvetica,sans-Serif" font-size="10.00"> armorSun, double armorCosmic,</text>
<text text-anchor="start" x="14" y="-286.5" font-family="Helvetica,sans-Serif" font-size="10.00"> double armorDark)</text>
<text text-anchor="start" x="4" y="-270.5" font-family="Helvetica,sans-Serif" font-size="10.00">+</text>
<text text-anchor="start" x="14" y="-270.5" font-family="Helvetica,sans-Serif" font-size="10.00">double GetCurrentHP()</text>
<text text-anchor="start" x="4" y="-254.5" font-family="Helvetica,sans-Serif" font-size="10.00">+</text>
<text text-anchor="start" x="14" y="-254.5" font-family="Helvetica,sans-Serif" font-size="10.00">double GetArmorOfType</text>
<text text-anchor="start" x="14" y="-242.5" font-family="Helvetica,sans-Serif" font-size="10.00">(MagicType type)</text>
<text text-anchor="start" x="4" y="-226.5" font-family="Helvetica,sans-Serif" font-size="10.00">+</text>
<text text-anchor="start" x="14" y="-226.5" font-family="Helvetica,sans-Serif" font-size="10.00">void ModifyArmor(MagicType</text>
<text text-anchor="start" x="14" y="-214.5" font-family="Helvetica,sans-Serif" font-size="10.00"> magicType, double flatArmorChange)</text>
<polygon fill="#666666" stroke="#666666" points="0,-454 0,-454 182,-454 182,-454 0,-454"/>
<polygon fill="#666666" stroke="#666666" points="0,-438 0,-438 12,-438 12,-438 0,-438"/>
<polygon fill="#666666" stroke="#666666" points="12,-438 12,-438 182,-438 182,-438 12,-438"/>
<polygon fill="none" stroke="#666666" points="0,-208 0,-472 182,-472 182,-208 0,-208"/>
</a>
</g>
</g>
<!-- Node1&#45;&gt;Node2 -->
<g id="edge1_Node000001_Node000002" class="edge">
<title>Node1&#45;&gt;Node2</title>
<g id="a_edge1_Node000001_Node000002"><a xlink:title=" ">
<path fill="none" stroke="#63b8ff" d="M671.35,-532.37C571.92,-529.95 274.58,-518.88 192,-472 188.5,-470.02 185.09,-467.86 181.75,-465.55"/>
<polygon fill="none" stroke="#63b8ff" points="671.14,-535.87 681.22,-532.59 671.3,-528.87 671.14,-535.87"/>
</a>
</g>
</g>
<!-- Node3 -->
<g id="Node000003" class="node">
<title>Node3</title>
<g id="a_Node000003"><a xlink:href="../../d8/d3e/class_hurt_box_charge_attack.html" target="_top" xlink:title=" ">
<polygon fill="white" stroke="none" points="353.5,-430 200.5,-430 200.5,-250 353.5,-250 353.5,-430"/>
<text text-anchor="start" x="229" y="-416.5" font-family="Helvetica,sans-Serif" font-size="10.00">HurtBoxChargeAttack</text>
<text text-anchor="start" x="275.5" y="-400.5" font-family="Helvetica,sans-Serif" font-size="10.00"> </text>
<text text-anchor="start" x="204.5" y="-384.5" font-family="Helvetica,sans-Serif" font-size="10.00">+</text>
<text text-anchor="start" x="214.5" y="-384.5" font-family="Helvetica,sans-Serif" font-size="10.00">override void _Ready()</text>
<text text-anchor="start" x="204.5" y="-368.5" font-family="Helvetica,sans-Serif" font-size="10.00">+</text>
<text text-anchor="start" x="214.5" y="-368.5" font-family="Helvetica,sans-Serif" font-size="10.00">override void _PhysicsProcess</text>
<text text-anchor="start" x="214.5" y="-356.5" font-family="Helvetica,sans-Serif" font-size="10.00">(double delta)</text>
<text text-anchor="start" x="204.5" y="-340.5" font-family="Helvetica,sans-Serif" font-size="10.00">+</text>
<text text-anchor="start" x="214.5" y="-340.5" font-family="Helvetica,sans-Serif" font-size="10.00">void OnAreaEntered</text>
<text text-anchor="start" x="214.5" y="-328.5" font-family="Helvetica,sans-Serif" font-size="10.00">(Area2D area)</text>
<text text-anchor="start" x="204.5" y="-312.5" font-family="Helvetica,sans-Serif" font-size="10.00">+</text>
<text text-anchor="start" x="214.5" y="-312.5" font-family="Helvetica,sans-Serif" font-size="10.00">void SetAttack(Attack</text>
<text text-anchor="start" x="214.5" y="-300.5" font-family="Helvetica,sans-Serif" font-size="10.00"> attack)</text>
<text text-anchor="start" x="204.5" y="-284.5" font-family="Helvetica,sans-Serif" font-size="10.00">+</text>
<text text-anchor="start" x="214.5" y="-284.5" font-family="Helvetica,sans-Serif" font-size="10.00">void StartAttack(Attack</text>
<text text-anchor="start" x="214.5" y="-272.5" font-family="Helvetica,sans-Serif" font-size="10.00"> attack, double timeLeft)</text>
<text text-anchor="start" x="204.5" y="-256.5" font-family="Helvetica,sans-Serif" font-size="10.00">+</text>
<text text-anchor="start" x="214.5" y="-256.5" font-family="Helvetica,sans-Serif" font-size="10.00">void EndAttack()</text>
<polygon fill="#666666" stroke="#666666" points="200.5,-412 200.5,-412 353.5,-412 353.5,-412 200.5,-412"/>
<polygon fill="#666666" stroke="#666666" points="200.5,-396 200.5,-396 353.5,-396 353.5,-396 200.5,-396"/>
<polygon fill="none" stroke="#666666" points="200.5,-250 200.5,-430 353.5,-430 353.5,-250 200.5,-250"/>
</a>
</g>
</g>
<!-- Node1&#45;&gt;Node3 -->
<g id="edge2_Node000001_Node000003" class="edge">
<title>Node1&#45;&gt;Node3</title>
<g id="a_edge2_Node000001_Node000003"><a xlink:title=" ">
<path fill="none" stroke="#63b8ff" d="M671.85,-530.49C597.03,-524.13 413.74,-505.49 363,-472 346.54,-461.13 332.5,-445.92 320.84,-429.68"/>
<polygon fill="none" stroke="#63b8ff" points="671.13,-533.94 681.39,-531.28 671.71,-526.96 671.13,-533.94"/>
</a>
</g>
</g>
<!-- Node4 -->
<g id="Node000004" class="node">
<title>Node4</title>
<g id="a_Node000004"><a xlink:href="../../dd/daa/class_hurt_box_stomping_attack.html" target="_top" xlink:title=" ">
<polygon fill="white" stroke="none" points="524.5,-438 371.5,-438 371.5,-242 524.5,-242 524.5,-438"/>
<text text-anchor="start" x="395.12" y="-424.5" font-family="Helvetica,sans-Serif" font-size="10.00">HurtBoxStompingAttack</text>
<text text-anchor="start" x="375.5" y="-408.5" font-family="Helvetica,sans-Serif" font-size="10.00">+</text>
<text text-anchor="start" x="385.5" y="-408.5" font-family="Helvetica,sans-Serif" font-size="10.00">Timer timer</text>
<text text-anchor="start" x="375.5" y="-392.5" font-family="Helvetica,sans-Serif" font-size="10.00">+</text>
<text text-anchor="start" x="385.5" y="-392.5" font-family="Helvetica,sans-Serif" font-size="10.00">override void _Ready()</text>
<text text-anchor="start" x="375.5" y="-376.5" font-family="Helvetica,sans-Serif" font-size="10.00">+</text>
<text text-anchor="start" x="385.5" y="-376.5" font-family="Helvetica,sans-Serif" font-size="10.00">override void _PhysicsProcess</text>
<text text-anchor="start" x="385.5" y="-364.5" font-family="Helvetica,sans-Serif" font-size="10.00">(double delta)</text>
<text text-anchor="start" x="375.5" y="-348.5" font-family="Helvetica,sans-Serif" font-size="10.00">+</text>
<text text-anchor="start" x="385.5" y="-348.5" font-family="Helvetica,sans-Serif" font-size="10.00">void OnAreaEntered</text>
<text text-anchor="start" x="385.5" y="-336.5" font-family="Helvetica,sans-Serif" font-size="10.00">(Area2D area)</text>
<text text-anchor="start" x="375.5" y="-320.5" font-family="Helvetica,sans-Serif" font-size="10.00">+</text>
<text text-anchor="start" x="385.5" y="-320.5" font-family="Helvetica,sans-Serif" font-size="10.00">void SetAttack(Attack</text>
<text text-anchor="start" x="385.5" y="-308.5" font-family="Helvetica,sans-Serif" font-size="10.00"> attack)</text>
<text text-anchor="start" x="375.5" y="-292.5" font-family="Helvetica,sans-Serif" font-size="10.00">+</text>
<text text-anchor="start" x="385.5" y="-292.5" font-family="Helvetica,sans-Serif" font-size="10.00">void StartAttack(Attack</text>
<text text-anchor="start" x="385.5" y="-280.5" font-family="Helvetica,sans-Serif" font-size="10.00"> attack, double delayTime)</text>
<text text-anchor="start" x="375.5" y="-264.5" font-family="Helvetica,sans-Serif" font-size="10.00">+</text>
<text text-anchor="start" x="385.5" y="-264.5" font-family="Helvetica,sans-Serif" font-size="10.00">void EndAttack()</text>
<text text-anchor="start" x="375.5" y="-248.5" font-family="Helvetica,sans-Serif" font-size="10.00">+</text>
<text text-anchor="start" x="385.5" y="-248.5" font-family="Helvetica,sans-Serif" font-size="10.00">void OnTimerTimeout()</text>
<polygon fill="#666666" stroke="#666666" points="371.5,-420 371.5,-420 524.5,-420 524.5,-420 371.5,-420"/>
<polygon fill="#666666" stroke="#666666" points="371.5,-404 371.5,-404 383.5,-404 383.5,-404 371.5,-404"/>
<polygon fill="#666666" stroke="#666666" points="383.5,-404 383.5,-404 524.5,-404 524.5,-404 383.5,-404"/>
<polygon fill="none" stroke="#666666" points="371.5,-242 371.5,-438 524.5,-438 524.5,-242 371.5,-242"/>
</a>
</g>
</g>
<!-- Node1&#45;&gt;Node4 -->
<g id="edge3_Node000001_Node000004" class="edge">
<title>Node1&#45;&gt;Node4</title>
<g id="a_edge3_Node000001_Node000004"><a xlink:title=" ">
<path fill="none" stroke="#63b8ff" d="M671.52,-527.75C634.9,-520.48 575.12,-504.39 534,-472 521.71,-462.32 510.6,-450.38 500.77,-437.68"/>
<polygon fill="none" stroke="#63b8ff" points="670.58,-531.13 681.05,-529.53 671.87,-524.25 670.58,-531.13"/>
</a>
</g>
</g>
<!-- Node5 -->
<g id="Node000005" class="node">
<title>Node5</title>
<g id="a_Node000005"><a xlink:href="../../dd/dff/class_melee_attack_hurt_box.html" target="_top" xlink:title=" ">
<polygon fill="white" stroke="none" points="695.5,-430 542.5,-430 542.5,-250 695.5,-250 695.5,-430"/>
<text text-anchor="start" x="573.62" y="-416.5" font-family="Helvetica,sans-Serif" font-size="10.00">MeleeAttackHurtBox</text>
<text text-anchor="start" x="617.5" y="-400.5" font-family="Helvetica,sans-Serif" font-size="10.00"> </text>
<text text-anchor="start" x="546.5" y="-384.5" font-family="Helvetica,sans-Serif" font-size="10.00">+</text>
<text text-anchor="start" x="556.5" y="-384.5" font-family="Helvetica,sans-Serif" font-size="10.00">override void _Ready()</text>
<text text-anchor="start" x="546.5" y="-368.5" font-family="Helvetica,sans-Serif" font-size="10.00">+</text>
<text text-anchor="start" x="556.5" y="-368.5" font-family="Helvetica,sans-Serif" font-size="10.00">override void _PhysicsProcess</text>
<text text-anchor="start" x="556.5" y="-356.5" font-family="Helvetica,sans-Serif" font-size="10.00">(double delta)</text>
<text text-anchor="start" x="546.5" y="-340.5" font-family="Helvetica,sans-Serif" font-size="10.00">+</text>
<text text-anchor="start" x="556.5" y="-340.5" font-family="Helvetica,sans-Serif" font-size="10.00">void OnAreaEntered</text>
<text text-anchor="start" x="556.5" y="-328.5" font-family="Helvetica,sans-Serif" font-size="10.00">(Area2D area)</text>
<text text-anchor="start" x="546.5" y="-312.5" font-family="Helvetica,sans-Serif" font-size="10.00">+</text>
<text text-anchor="start" x="556.5" y="-312.5" font-family="Helvetica,sans-Serif" font-size="10.00">void SetAttack(Attack</text>
<text text-anchor="start" x="556.5" y="-300.5" font-family="Helvetica,sans-Serif" font-size="10.00"> attack)</text>
<text text-anchor="start" x="546.5" y="-284.5" font-family="Helvetica,sans-Serif" font-size="10.00">+</text>
<text text-anchor="start" x="556.5" y="-284.5" font-family="Helvetica,sans-Serif" font-size="10.00">void StartAttack(Attack</text>
<text text-anchor="start" x="556.5" y="-272.5" font-family="Helvetica,sans-Serif" font-size="10.00"> attack, double timeLeft)</text>
<text text-anchor="start" x="546.5" y="-256.5" font-family="Helvetica,sans-Serif" font-size="10.00">+</text>
<text text-anchor="start" x="556.5" y="-256.5" font-family="Helvetica,sans-Serif" font-size="10.00">void EndAttack()</text>
<polygon fill="#666666" stroke="#666666" points="542.5,-412 542.5,-412 695.5,-412 695.5,-412 542.5,-412"/>
<polygon fill="#666666" stroke="#666666" points="542.5,-396 542.5,-396 695.5,-396 695.5,-396 542.5,-396"/>
<polygon fill="none" stroke="#666666" points="542.5,-250 542.5,-430 695.5,-430 695.5,-250 542.5,-250"/>
</a>
</g>
</g>
<!-- Node1&#45;&gt;Node5 -->
<g id="edge4_Node000001_Node000005" class="edge">
<title>Node1&#45;&gt;Node5</title>
<g id="a_edge4_Node000001_Node000005"><a xlink:title=" ">
<path fill="none" stroke="#63b8ff" d="M688.49,-497.97C680,-478.79 669.06,-454.08 658.38,-429.96"/>
<polygon fill="none" stroke="#63b8ff" points="685.2,-499.18 692.45,-506.91 691.6,-496.35 685.2,-499.18"/>
</a>
</g>
</g>
<!-- Node6 -->
<g id="Node000006" class="node">
<title>Node6</title>
<g id="a_Node000006"><a xlink:href="../../d8/d29/class_ranged_attack.html" target="_top" xlink:title=" ">
<polygon fill="white" stroke="none" points="866.5,-422 713.5,-422 713.5,-258 866.5,-258 866.5,-422"/>
<text text-anchor="start" x="758.88" y="-408.5" font-family="Helvetica,sans-Serif" font-size="10.00">RangedAttack</text>
<text text-anchor="start" x="717.5" y="-392.5" font-family="Helvetica,sans-Serif" font-size="10.00">+</text>
<text text-anchor="start" x="727.5" y="-392.5" font-family="Helvetica,sans-Serif" font-size="10.00">float SPEED</text>
<text text-anchor="start" x="717.5" y="-376.5" font-family="Helvetica,sans-Serif" font-size="10.00">+</text>
<text text-anchor="start" x="727.5" y="-376.5" font-family="Helvetica,sans-Serif" font-size="10.00">double MaxLifeTimeInSeconds</text>
<text text-anchor="start" x="717.5" y="-360.5" font-family="Helvetica,sans-Serif" font-size="10.00">+</text>
<text text-anchor="start" x="727.5" y="-360.5" font-family="Helvetica,sans-Serif" font-size="10.00">void Init(Attack attack,</text>
<text text-anchor="start" x="727.5" y="-348.5" font-family="Helvetica,sans-Serif" font-size="10.00"> Vector2 direction)</text>
<text text-anchor="start" x="717.5" y="-332.5" font-family="Helvetica,sans-Serif" font-size="10.00">+</text>
<text text-anchor="start" x="727.5" y="-332.5" font-family="Helvetica,sans-Serif" font-size="10.00">override void _PhysicsProcess</text>
<text text-anchor="start" x="727.5" y="-320.5" font-family="Helvetica,sans-Serif" font-size="10.00">(double delta)</text>
<text text-anchor="start" x="717.5" y="-304.5" font-family="Helvetica,sans-Serif" font-size="10.00">+</text>
<text text-anchor="start" x="727.5" y="-304.5" font-family="Helvetica,sans-Serif" font-size="10.00">void OnAreaEntered</text>
<text text-anchor="start" x="727.5" y="-292.5" font-family="Helvetica,sans-Serif" font-size="10.00">(Area2D area)</text>
<text text-anchor="start" x="717.5" y="-276.5" font-family="Helvetica,sans-Serif" font-size="10.00">+</text>
<text text-anchor="start" x="727.5" y="-276.5" font-family="Helvetica,sans-Serif" font-size="10.00">void OnBodyEntered</text>
<text text-anchor="start" x="727.5" y="-264.5" font-family="Helvetica,sans-Serif" font-size="10.00">(Node2D body)</text>
<polygon fill="#666666" stroke="#666666" points="713.5,-404 713.5,-404 866.5,-404 866.5,-404 713.5,-404"/>
<polygon fill="#666666" stroke="#666666" points="713.5,-372 713.5,-372 725.5,-372 725.5,-372 713.5,-372"/>
<polygon fill="#666666" stroke="#666666" points="725.5,-372 725.5,-372 866.5,-372 866.5,-372 725.5,-372"/>
<polygon fill="none" stroke="#666666" points="713.5,-258 713.5,-422 866.5,-422 866.5,-258 713.5,-258"/>
</a>
</g>
</g>
<!-- Node1&#45;&gt;Node6 -->
<g id="edge5_Node000001_Node000006" class="edge">
<title>Node1&#45;&gt;Node6</title>
<g id="a_edge5_Node000001_Node000006"><a xlink:title=" ">
<path fill="none" stroke="#63b8ff" d="M719.77,-497.79C729.33,-476.45 741.95,-448.29 753.84,-421.72"/>
<polygon fill="none" stroke="#63b8ff" points="716.58,-496.35 715.69,-506.91 722.97,-499.22 716.58,-496.35"/>
</a>
</g>
</g>
<!-- Node7 -->
<g id="Node000007" class="node">
<title>Node7</title>
<g id="a_Node000007"><a xlink:href="../../d7/d0c/class_room_exit.html" target="_top" xlink:title=" ">
<polygon fill="white" stroke="none" points="1025,-402 885,-402 885,-278 1025,-278 1025,-402"/>
<text text-anchor="start" x="933.25" y="-388.5" font-family="Helvetica,sans-Serif" font-size="10.00">RoomExit</text>
<text text-anchor="start" x="889" y="-372.5" font-family="Helvetica,sans-Serif" font-size="10.00">+</text>
<text text-anchor="start" x="899" y="-372.5" font-family="Helvetica,sans-Serif" font-size="10.00">Direction Direction</text>
<text text-anchor="start" x="889" y="-356.5" font-family="Helvetica,sans-Serif" font-size="10.00">+</text>
<text text-anchor="start" x="899" y="-356.5" font-family="Helvetica,sans-Serif" font-size="10.00">delegate void PlayerEntered</text>
<text text-anchor="start" x="899" y="-344.5" font-family="Helvetica,sans-Serif" font-size="10.00">DoorEventHandler(Direction</text>
<text text-anchor="start" x="899" y="-332.5" font-family="Helvetica,sans-Serif" font-size="10.00"> direction)</text>
<text text-anchor="start" x="889" y="-316.5" font-family="Helvetica,sans-Serif" font-size="10.00">+</text>
<text text-anchor="start" x="899" y="-316.5" font-family="Helvetica,sans-Serif" font-size="10.00">override void _Ready()</text>
<text text-anchor="start" x="889" y="-300.5" font-family="Helvetica,sans-Serif" font-size="10.00">+</text>
<text text-anchor="start" x="899" y="-300.5" font-family="Helvetica,sans-Serif" font-size="10.00">void RegisterExit()</text>
<text text-anchor="start" x="889" y="-284.5" font-family="Helvetica,sans-Serif" font-size="10.00">+</text>
<text text-anchor="start" x="899" y="-284.5" font-family="Helvetica,sans-Serif" font-size="10.00">void UnregisterExit()</text>
<polygon fill="#666666" stroke="#666666" points="885,-384 885,-384 1025,-384 1025,-384 885,-384"/>
<polygon fill="#666666" stroke="#666666" points="885,-368 885,-368 897,-368 897,-368 885,-368"/>
<polygon fill="#666666" stroke="#666666" points="897,-368 897,-368 1025,-368 1025,-368 897,-368"/>
<polygon fill="none" stroke="#666666" points="885,-278 885,-402 1025,-402 1025,-278 885,-278"/>
</a>
</g>
</g>
<!-- Node1&#45;&gt;Node7 -->
<g id="edge6_Node000001_Node000007" class="edge">
<title>Node1&#45;&gt;Node7</title>
<g id="a_edge6_Node000001_Node000007"><a xlink:title=" ">
<path fill="none" stroke="#63b8ff" d="M736.49,-528.24C773.69,-521.38 834.8,-505.62 876,-472 898.74,-453.44 916.56,-426.5 929.48,-401.87"/>
<polygon fill="none" stroke="#63b8ff" points="736.06,-524.76 726.8,-529.91 737.25,-531.66 736.06,-524.76"/>
</a>
</g>
</g>
<!-- Node8 -->
<g id="Node000008" class="node">
<title>Node8</title>
<g id="a_Node000008"><a xlink:href="../../de/dbf/class_shooting_attack_projectile.html" target="_top" xlink:title=" ">
<polygon fill="white" stroke="none" points="1196.5,-432 1043.5,-432 1043.5,-248 1196.5,-248 1196.5,-432"/>
<text text-anchor="start" x="1066.38" y="-418.5" font-family="Helvetica,sans-Serif" font-size="10.00">ShootingAttackProjectile</text>
<text text-anchor="start" x="1047.5" y="-402.5" font-family="Helvetica,sans-Serif" font-size="10.00">+</text>
<text text-anchor="start" x="1057.5" y="-402.5" font-family="Helvetica,sans-Serif" font-size="10.00">float SPEED</text>
<text text-anchor="start" x="1047.5" y="-386.5" font-family="Helvetica,sans-Serif" font-size="10.00">+</text>
<text text-anchor="start" x="1057.5" y="-386.5" font-family="Helvetica,sans-Serif" font-size="10.00">double MaxLifeTimeInSeconds</text>
<text text-anchor="start" x="1047.5" y="-370.5" font-family="Helvetica,sans-Serif" font-size="10.00">+</text>
<text text-anchor="start" x="1057.5" y="-370.5" font-family="Helvetica,sans-Serif" font-size="10.00">double HomingTimer</text>
<text text-anchor="start" x="1047.5" y="-354.5" font-family="Helvetica,sans-Serif" font-size="10.00">+</text>
<text text-anchor="start" x="1057.5" y="-354.5" font-family="Helvetica,sans-Serif" font-size="10.00">override void _Ready()</text>
<text text-anchor="start" x="1047.5" y="-338.5" font-family="Helvetica,sans-Serif" font-size="10.00">+</text>
<text text-anchor="start" x="1057.5" y="-338.5" font-family="Helvetica,sans-Serif" font-size="10.00">void Init(Attack attack)</text>
<text text-anchor="start" x="1047.5" y="-322.5" font-family="Helvetica,sans-Serif" font-size="10.00">+</text>
<text text-anchor="start" x="1057.5" y="-322.5" font-family="Helvetica,sans-Serif" font-size="10.00">override void _PhysicsProcess</text>
<text text-anchor="start" x="1057.5" y="-310.5" font-family="Helvetica,sans-Serif" font-size="10.00">(double delta)</text>
<text text-anchor="start" x="1047.5" y="-294.5" font-family="Helvetica,sans-Serif" font-size="10.00">+</text>
<text text-anchor="start" x="1057.5" y="-294.5" font-family="Helvetica,sans-Serif" font-size="10.00">void OnAreaEntered</text>
<text text-anchor="start" x="1057.5" y="-282.5" font-family="Helvetica,sans-Serif" font-size="10.00">(Area2D area)</text>
<text text-anchor="start" x="1047.5" y="-266.5" font-family="Helvetica,sans-Serif" font-size="10.00">+</text>
<text text-anchor="start" x="1057.5" y="-266.5" font-family="Helvetica,sans-Serif" font-size="10.00">void OnBodyEntered</text>
<text text-anchor="start" x="1057.5" y="-254.5" font-family="Helvetica,sans-Serif" font-size="10.00">(Node2D body)</text>
<polygon fill="#666666" stroke="#666666" points="1043.5,-414 1043.5,-414 1196.5,-414 1196.5,-414 1043.5,-414"/>
<polygon fill="#666666" stroke="#666666" points="1043.5,-366 1043.5,-366 1055.5,-366 1055.5,-366 1043.5,-366"/>
<polygon fill="#666666" stroke="#666666" points="1055.5,-366 1055.5,-366 1196.5,-366 1196.5,-366 1055.5,-366"/>
<polygon fill="none" stroke="#666666" points="1043.5,-248 1043.5,-432 1196.5,-432 1196.5,-248 1043.5,-248"/>
</a>
</g>
</g>
<!-- Node1&#45;&gt;Node8 -->
<g id="edge7_Node000001_Node000008" class="edge">
<title>Node1&#45;&gt;Node8</title>
<g id="a_edge7_Node000001_Node000008"><a xlink:title=" ">
<path fill="none" stroke="#63b8ff" d="M736.59,-530.23C809.92,-523.49 985.27,-504.37 1034,-472 1049.64,-461.61 1063.09,-447.31 1074.41,-431.95"/>
<polygon fill="none" stroke="#63b8ff" points="736.49,-526.73 726.84,-531.11 737.12,-533.7 736.49,-526.73"/>
</a>
</g>
</g>
<!-- Node9 -->
<g id="Node000009" class="node">
<title>Node9</title>
<g id="a_Node000009"><a xlink:href="../../d8/d0d/class_spell.html" target="_top" xlink:title=" ">
<polygon fill="white" stroke="none" points="1369,-438 1215,-438 1215,-242 1369,-242 1369,-438"/>
<text text-anchor="start" x="1281.12" y="-424.5" font-family="Helvetica,sans-Serif" font-size="10.00">Spell</text>
<text text-anchor="start" x="1219" y="-408.5" font-family="Helvetica,sans-Serif" font-size="10.00">+</text>
<text text-anchor="start" x="1229" y="-408.5" font-family="Helvetica,sans-Serif" font-size="10.00">double MaxLifeTimeInSeconds</text>
<text text-anchor="start" x="1219" y="-392.5" font-family="Helvetica,sans-Serif" font-size="10.00">+</text>
<text text-anchor="start" x="1229" y="-392.5" font-family="Helvetica,sans-Serif" font-size="10.00">double _timeLeftUntilDeletion</text>
<text text-anchor="start" x="1219.38" y="-376.5" font-family="Helvetica,sans-Serif" font-size="10.00">#</text>
<text text-anchor="start" x="1229" y="-376.5" font-family="Helvetica,sans-Serif" font-size="10.00">Attack _attack</text>
<text text-anchor="start" x="1219" y="-360.5" font-family="Helvetica,sans-Serif" font-size="10.00">+</text>
<text text-anchor="start" x="1229" y="-360.5" font-family="Helvetica,sans-Serif" font-size="10.00">override void _Ready()</text>
<text text-anchor="start" x="1219" y="-344.5" font-family="Helvetica,sans-Serif" font-size="10.00">+</text>
<text text-anchor="start" x="1229" y="-344.5" font-family="Helvetica,sans-Serif" font-size="10.00">virtual void Init(Attack</text>
<text text-anchor="start" x="1229" y="-332.5" font-family="Helvetica,sans-Serif" font-size="10.00"> attack, Vector2 playerPosition,</text>
<text text-anchor="start" x="1229" y="-320.5" font-family="Helvetica,sans-Serif" font-size="10.00"> Vector2 targetPosition)</text>
<text text-anchor="start" x="1219" y="-304.5" font-family="Helvetica,sans-Serif" font-size="10.00">+</text>
<text text-anchor="start" x="1229" y="-304.5" font-family="Helvetica,sans-Serif" font-size="10.00">override void _PhysicsProcess</text>
<text text-anchor="start" x="1229" y="-292.5" font-family="Helvetica,sans-Serif" font-size="10.00">(double delta)</text>
<text text-anchor="start" x="1219" y="-276.5" font-family="Helvetica,sans-Serif" font-size="10.00">+</text>
<text text-anchor="start" x="1229" y="-276.5" font-family="Helvetica,sans-Serif" font-size="10.00">virtual void OnAreaEntered</text>
<text text-anchor="start" x="1229" y="-264.5" font-family="Helvetica,sans-Serif" font-size="10.00">(Area2D area)</text>
<text text-anchor="start" x="1219" y="-248.5" font-family="Helvetica,sans-Serif" font-size="10.00">+</text>
<text text-anchor="start" x="1229" y="-248.5" font-family="Helvetica,sans-Serif" font-size="10.00">double GetTimeUntilDeleteion()</text>
<polygon fill="#666666" stroke="#666666" points="1215,-420 1215,-420 1369,-420 1369,-420 1215,-420"/>
<polygon fill="#666666" stroke="#666666" points="1215,-372 1215,-372 1227,-372 1227,-372 1215,-372"/>
<polygon fill="#666666" stroke="#666666" points="1227,-372 1227,-372 1369,-372 1369,-372 1227,-372"/>
<polygon fill="none" stroke="#666666" points="1215,-242 1215,-438 1369,-438 1369,-242 1215,-242"/>
</a>
</g>
</g>
<!-- Node1&#45;&gt;Node9 -->
<g id="edge8_Node000001_Node000009" class="edge">
<title>Node1&#45;&gt;Node9</title>
<g id="a_edge8_Node000001_Node000009"><a xlink:title=" ">
<path fill="none" stroke="#63b8ff" d="M736.51,-532.56C834.8,-530.69 1126.96,-521.05 1206,-472 1220.1,-463.25 1232.37,-451.23 1242.87,-438"/>
<polygon fill="none" stroke="#63b8ff" points="736.7,-529.06 726.76,-532.73 736.82,-536.05 736.7,-529.06"/>
</a>
</g>
</g>
<!-- Node10 -->
<g id="Node000010" class="node">
<title>Node10</title>
<g id="a_Node000010"><a xlink:href="../../d6/df9/class_basic_spell.html" target="_top" xlink:title=" ">
<polygon fill="white" stroke="none" points="903.5,-172 750.5,-172 750.5,0 903.5,0 903.5,-172"/>
<text text-anchor="start" x="803.75" y="-158.5" font-family="Helvetica,sans-Serif" font-size="10.00">BasicSpell</text>
<text text-anchor="start" x="754.5" y="-142.5" font-family="Helvetica,sans-Serif" font-size="10.00">+</text>
<text text-anchor="start" x="764.5" y="-142.5" font-family="Helvetica,sans-Serif" font-size="10.00">float SPEED</text>
<text text-anchor="start" x="754.5" y="-126.5" font-family="Helvetica,sans-Serif" font-size="10.00">+</text>
<text text-anchor="start" x="764.5" y="-126.5" font-family="Helvetica,sans-Serif" font-size="10.00">override void Init</text>
<text text-anchor="start" x="764.5" y="-114.5" font-family="Helvetica,sans-Serif" font-size="10.00">(Attack attack, Vector2</text>
<text text-anchor="start" x="764.5" y="-102.5" font-family="Helvetica,sans-Serif" font-size="10.00"> playerPosition, Vector2</text>
<text text-anchor="start" x="764.5" y="-90.5" font-family="Helvetica,sans-Serif" font-size="10.00"> targetPosition)</text>
<text text-anchor="start" x="754.5" y="-74.5" font-family="Helvetica,sans-Serif" font-size="10.00">+</text>
<text text-anchor="start" x="764.5" y="-74.5" font-family="Helvetica,sans-Serif" font-size="10.00">override void _PhysicsProcess</text>
<text text-anchor="start" x="764.5" y="-62.5" font-family="Helvetica,sans-Serif" font-size="10.00">(double delta)</text>
<text text-anchor="start" x="754.5" y="-46.5" font-family="Helvetica,sans-Serif" font-size="10.00">+</text>
<text text-anchor="start" x="764.5" y="-46.5" font-family="Helvetica,sans-Serif" font-size="10.00">override void OnAreaEntered</text>
<text text-anchor="start" x="764.5" y="-34.5" font-family="Helvetica,sans-Serif" font-size="10.00">(Area2D area)</text>
<text text-anchor="start" x="754.5" y="-18.5" font-family="Helvetica,sans-Serif" font-size="10.00">+</text>
<text text-anchor="start" x="764.5" y="-18.5" font-family="Helvetica,sans-Serif" font-size="10.00">void OnBodyEntered</text>
<text text-anchor="start" x="764.5" y="-6.5" font-family="Helvetica,sans-Serif" font-size="10.00">(Node2D body)</text>
<polygon fill="#666666" stroke="#666666" points="750.5,-154 750.5,-154 903.5,-154 903.5,-154 750.5,-154"/>
<polygon fill="#666666" stroke="#666666" points="750.5,-138 750.5,-138 762.5,-138 762.5,-138 750.5,-138"/>
<polygon fill="#666666" stroke="#666666" points="762.5,-138 762.5,-138 903.5,-138 903.5,-138 762.5,-138"/>
<polygon fill="none" stroke="#666666" points="750.5,0 750.5,-172 903.5,-172 903.5,0 750.5,0"/>
</a>
</g>
</g>
<!-- Node9&#45;&gt;Node10 -->
<g id="edge9_Node000009_Node000010" class="edge">
<title>Node9&#45;&gt;Node10</title>
<g id="a_edge9_Node000009_Node000010"><a xlink:title=" ">
<path fill="none" stroke="#63b8ff" d="M1235.45,-233.23C1226.71,-223.5 1216.9,-214.78 1206,-208 1094.57,-138.75 1031.09,-229.17 913,-172 909.69,-170.4 906.44,-168.62 903.24,-166.69"/>
<polygon fill="none" stroke="#63b8ff" points="1232.76,-235.47 1241.88,-240.86 1238.11,-230.96 1232.76,-235.47"/>
</a>
</g>
</g>
<!-- Node11 -->
<g id="Node000011" class="node">
<title>Node11</title>
<g id="a_Node000011"><a xlink:href="../../db/d1b/class_black_hole.html" target="_top" xlink:title=" ">
<polygon fill="white" stroke="none" points="1042.5,-130 921.5,-130 921.5,-42 1042.5,-42 1042.5,-130"/>
<text text-anchor="start" x="959.5" y="-116.5" font-family="Helvetica,sans-Serif" font-size="10.00">BlackHole</text>
<text text-anchor="start" x="980.5" y="-100.5" font-family="Helvetica,sans-Serif" font-size="10.00"> </text>
<text text-anchor="start" x="925.5" y="-84.5" font-family="Helvetica,sans-Serif" font-size="10.00">+</text>
<text text-anchor="start" x="935.5" y="-84.5" font-family="Helvetica,sans-Serif" font-size="10.00">override void Init</text>
<text text-anchor="start" x="935.5" y="-72.5" font-family="Helvetica,sans-Serif" font-size="10.00">(Attack attack, Vector2</text>
<text text-anchor="start" x="935.5" y="-60.5" font-family="Helvetica,sans-Serif" font-size="10.00"> playerPosition, Vector2</text>
<text text-anchor="start" x="935.5" y="-48.5" font-family="Helvetica,sans-Serif" font-size="10.00"> targetPosition)</text>
<polygon fill="#666666" stroke="#666666" points="921.5,-112 921.5,-112 1042.5,-112 1042.5,-112 921.5,-112"/>
<polygon fill="#666666" stroke="#666666" points="921.5,-96 921.5,-96 1042.5,-96 1042.5,-96 921.5,-96"/>
<polygon fill="none" stroke="#666666" points="921.5,-42 921.5,-130 1042.5,-130 1042.5,-42 921.5,-42"/>
</a>
</g>
</g>
<!-- Node9&#45;&gt;Node11 -->
<g id="edge10_Node000009_Node000011" class="edge">
<title>Node9&#45;&gt;Node11</title>
<g id="a_edge10_Node000009_Node000011"><a xlink:title=" ">
<path fill="none" stroke="#63b8ff" d="M1234.05,-233.65C1225.62,-224 1216.26,-215.17 1206,-208 1148.38,-167.75 1111.71,-209.08 1052,-172 1034.95,-161.41 1020.11,-145.21 1008.53,-129.78"/>
<polygon fill="none" stroke="#63b8ff" points="1231.2,-235.69 1240.27,-241.16 1236.59,-231.22 1231.2,-235.69"/>
</a>
</g>
</g>
<!-- Node12 -->
<g id="Node000012" class="node">
<title>Node12</title>
<g id="a_Node000012"><a xlink:href="../../d9/d51/class_dark_energy_wave.html" target="_top" xlink:title=" ">
<polygon fill="white" stroke="none" points="1213.5,-158 1060.5,-158 1060.5,-14 1213.5,-14 1213.5,-158"/>
<text text-anchor="start" x="1098.75" y="-144.5" font-family="Helvetica,sans-Serif" font-size="10.00">DarkEnergyWave</text>
<text text-anchor="start" x="1135.5" y="-128.5" font-family="Helvetica,sans-Serif" font-size="10.00"> </text>
<text text-anchor="start" x="1064.5" y="-112.5" font-family="Helvetica,sans-Serif" font-size="10.00">+</text>
<text text-anchor="start" x="1074.5" y="-112.5" font-family="Helvetica,sans-Serif" font-size="10.00">override void Init</text>
<text text-anchor="start" x="1074.5" y="-100.5" font-family="Helvetica,sans-Serif" font-size="10.00">(Attack attack, Vector2</text>
<text text-anchor="start" x="1074.5" y="-88.5" font-family="Helvetica,sans-Serif" font-size="10.00"> playerPosition, Vector2</text>
<text text-anchor="start" x="1074.5" y="-76.5" font-family="Helvetica,sans-Serif" font-size="10.00"> targetPosition)</text>
<text text-anchor="start" x="1064.5" y="-60.5" font-family="Helvetica,sans-Serif" font-size="10.00">+</text>
<text text-anchor="start" x="1074.5" y="-60.5" font-family="Helvetica,sans-Serif" font-size="10.00">override void _PhysicsProcess</text>
<text text-anchor="start" x="1074.5" y="-48.5" font-family="Helvetica,sans-Serif" font-size="10.00">(double delta)</text>
<text text-anchor="start" x="1064.5" y="-32.5" font-family="Helvetica,sans-Serif" font-size="10.00">+</text>
<text text-anchor="start" x="1074.5" y="-32.5" font-family="Helvetica,sans-Serif" font-size="10.00">override void OnAreaEntered</text>
<text text-anchor="start" x="1074.5" y="-20.5" font-family="Helvetica,sans-Serif" font-size="10.00">(Area2D area)</text>
<polygon fill="#666666" stroke="#666666" points="1060.5,-140 1060.5,-140 1213.5,-140 1213.5,-140 1060.5,-140"/>
<polygon fill="#666666" stroke="#666666" points="1060.5,-124 1060.5,-124 1213.5,-124 1213.5,-124 1060.5,-124"/>
<polygon fill="none" stroke="#666666" points="1060.5,-14 1060.5,-158 1213.5,-158 1213.5,-14 1060.5,-14"/>
</a>
</g>
</g>
<!-- Node9&#45;&gt;Node12 -->
<g id="edge11_Node000009_Node000012" class="edge">
<title>Node9&#45;&gt;Node12</title>
<g id="a_edge11_Node000009_Node000012"><a xlink:title=" ">
<path fill="none" stroke="#63b8ff" d="M1226.58,-232.64C1211,-207.31 1194.75,-180.9 1180.44,-157.63"/>
<polygon fill="none" stroke="#63b8ff" points="1223.5,-234.32 1231.72,-241 1229.47,-230.65 1223.5,-234.32"/>
</a>
</g>
</g>
<!-- Node13 -->
<g id="Node000013" class="node">
<title>Node13</title>
<g id="a_Node000013"><a xlink:href="../../df/d1e/class_moon_light.html" target="_top" xlink:title=" ">
<polygon fill="white" stroke="none" points="1352.5,-130 1231.5,-130 1231.5,-42 1352.5,-42 1352.5,-130"/>
<text text-anchor="start" x="1269.5" y="-116.5" font-family="Helvetica,sans-Serif" font-size="10.00">MoonLight</text>
<text text-anchor="start" x="1235.5" y="-100.5" font-family="Helvetica,sans-Serif" font-size="10.00">+</text>
<text text-anchor="start" x="1245.5" y="-100.5" font-family="Helvetica,sans-Serif" font-size="10.00">double boost</text>
<text text-anchor="start" x="1235.5" y="-84.5" font-family="Helvetica,sans-Serif" font-size="10.00">+</text>
<text text-anchor="start" x="1245.5" y="-84.5" font-family="Helvetica,sans-Serif" font-size="10.00">override void Init</text>
<text text-anchor="start" x="1245.5" y="-72.5" font-family="Helvetica,sans-Serif" font-size="10.00">(Attack attack, Vector2</text>
<text text-anchor="start" x="1245.5" y="-60.5" font-family="Helvetica,sans-Serif" font-size="10.00"> playerPosition, Vector2</text>
<text text-anchor="start" x="1245.5" y="-48.5" font-family="Helvetica,sans-Serif" font-size="10.00"> targetPosition)</text>
<polygon fill="#666666" stroke="#666666" points="1231.5,-112 1231.5,-112 1352.5,-112 1352.5,-112 1231.5,-112"/>
<polygon fill="#666666" stroke="#666666" points="1231.5,-96 1231.5,-96 1243.5,-96 1243.5,-96 1231.5,-96"/>
<polygon fill="#666666" stroke="#666666" points="1243.5,-96 1243.5,-96 1352.5,-96 1352.5,-96 1243.5,-96"/>
<polygon fill="none" stroke="#666666" points="1231.5,-42 1231.5,-130 1352.5,-130 1352.5,-42 1231.5,-42"/>
</a>
</g>
</g>
<!-- Node9&#45;&gt;Node13 -->
<g id="edge12_Node000009_Node000013" class="edge">
<title>Node9&#45;&gt;Node13</title>
<g id="a_edge12_Node000009_Node000013"><a xlink:title=" ">
<path fill="none" stroke="#63b8ff" d="M1292,-230.81C1292,-195.18 1292,-157.62 1292,-129.82"/>
<polygon fill="none" stroke="#63b8ff" points="1288.5,-230.78 1292,-240.78 1295.5,-230.78 1288.5,-230.78"/>
</a>
</g>
</g>
<!-- Node14 -->
<g id="Node000014" class="node">
<title>Node14</title>
<g id="a_Node000014"><a xlink:href="../../d7/d8d/class_star.html" target="_top" xlink:title=" ">
<polygon fill="white" stroke="none" points="1523.5,-172 1370.5,-172 1370.5,0 1523.5,0 1523.5,-172"/>
<text text-anchor="start" x="1438" y="-158.5" font-family="Helvetica,sans-Serif" font-size="10.00">Star</text>
<text text-anchor="start" x="1374.5" y="-142.5" font-family="Helvetica,sans-Serif" font-size="10.00">+</text>
<text text-anchor="start" x="1384.5" y="-142.5" font-family="Helvetica,sans-Serif" font-size="10.00">float SPEED</text>
<text text-anchor="start" x="1374.5" y="-126.5" font-family="Helvetica,sans-Serif" font-size="10.00">+</text>
<text text-anchor="start" x="1384.5" y="-126.5" font-family="Helvetica,sans-Serif" font-size="10.00">override void Init</text>
<text text-anchor="start" x="1384.5" y="-114.5" font-family="Helvetica,sans-Serif" font-size="10.00">(Attack attack, Vector2</text>
<text text-anchor="start" x="1384.5" y="-102.5" font-family="Helvetica,sans-Serif" font-size="10.00"> playerPosition, Vector2</text>
<text text-anchor="start" x="1384.5" y="-90.5" font-family="Helvetica,sans-Serif" font-size="10.00"> targetPosition)</text>
<text text-anchor="start" x="1374.5" y="-74.5" font-family="Helvetica,sans-Serif" font-size="10.00">+</text>
<text text-anchor="start" x="1384.5" y="-74.5" font-family="Helvetica,sans-Serif" font-size="10.00">override void _PhysicsProcess</text>
<text text-anchor="start" x="1384.5" y="-62.5" font-family="Helvetica,sans-Serif" font-size="10.00">(double delta)</text>
<text text-anchor="start" x="1374.5" y="-46.5" font-family="Helvetica,sans-Serif" font-size="10.00">+</text>
<text text-anchor="start" x="1384.5" y="-46.5" font-family="Helvetica,sans-Serif" font-size="10.00">override void OnAreaEntered</text>
<text text-anchor="start" x="1384.5" y="-34.5" font-family="Helvetica,sans-Serif" font-size="10.00">(Area2D area)</text>
<text text-anchor="start" x="1374.5" y="-18.5" font-family="Helvetica,sans-Serif" font-size="10.00">+</text>
<text text-anchor="start" x="1384.5" y="-18.5" font-family="Helvetica,sans-Serif" font-size="10.00">void OnBodyEntered</text>
<text text-anchor="start" x="1384.5" y="-6.5" font-family="Helvetica,sans-Serif" font-size="10.00">(Node2D body)</text>
<polygon fill="#666666" stroke="#666666" points="1370.5,-154 1370.5,-154 1523.5,-154 1523.5,-154 1370.5,-154"/>
<polygon fill="#666666" stroke="#666666" points="1370.5,-138 1370.5,-138 1382.5,-138 1382.5,-138 1370.5,-138"/>
<polygon fill="#666666" stroke="#666666" points="1382.5,-138 1382.5,-138 1523.5,-138 1523.5,-138 1382.5,-138"/>
<polygon fill="none" stroke="#666666" points="1370.5,0 1370.5,-172 1523.5,-172 1523.5,0 1370.5,0"/>
</a>
</g>
</g>
<!-- Node9&#45;&gt;Node14 -->
<g id="edge13_Node000009_Node000014" class="edge">
<title>Node9&#45;&gt;Node14</title>
<g id="a_edge13_Node000009_Node000014"><a xlink:title=" ">
<path fill="none" stroke="#63b8ff" d="M1357.37,-232.71C1369.85,-212.43 1382.76,-191.44 1394.76,-171.93"/>
<polygon fill="none" stroke="#63b8ff" points="1354.53,-230.65 1352.28,-241 1360.5,-234.32 1354.53,-230.65"/>
</a>
</g>
</g>
<!-- Node15 -->
<g id="Node000015" class="node">
<title>Node15</title>
<g id="a_Node000015"><a xlink:href="../../d6/d93/class_sun.html" target="_top" xlink:title=" ">
<polygon fill="white" stroke="none" points="1710.5,-172 1541.5,-172 1541.5,0 1710.5,0 1710.5,-172"/>
<text text-anchor="start" x="1617.38" y="-158.5" font-family="Helvetica,sans-Serif" font-size="10.00">Sun</text>
<text text-anchor="start" x="1624.5" y="-142.5" font-family="Helvetica,sans-Serif" font-size="10.00"> </text>
<text text-anchor="start" x="1545.5" y="-126.5" font-family="Helvetica,sans-Serif" font-size="10.00">+</text>
<text text-anchor="start" x="1555.5" y="-126.5" font-family="Helvetica,sans-Serif" font-size="10.00">override void Init</text>
<text text-anchor="start" x="1555.5" y="-114.5" font-family="Helvetica,sans-Serif" font-size="10.00">(Attack attack, Vector2</text>
<text text-anchor="start" x="1555.5" y="-102.5" font-family="Helvetica,sans-Serif" font-size="10.00"> playerPosition, Vector2</text>
<text text-anchor="start" x="1555.5" y="-90.5" font-family="Helvetica,sans-Serif" font-size="10.00"> targetPosition)</text>
<text text-anchor="start" x="1545.5" y="-74.5" font-family="Helvetica,sans-Serif" font-size="10.00">+</text>
<text text-anchor="start" x="1555.5" y="-74.5" font-family="Helvetica,sans-Serif" font-size="10.00">override void _PhysicsProcess</text>
<text text-anchor="start" x="1555.5" y="-62.5" font-family="Helvetica,sans-Serif" font-size="10.00">(double delta)</text>
<text text-anchor="start" x="1545.5" y="-46.5" font-family="Helvetica,sans-Serif" font-size="10.00">+</text>
<text text-anchor="start" x="1555.5" y="-46.5" font-family="Helvetica,sans-Serif" font-size="10.00">Attack CalculateAttack</text>
<text text-anchor="start" x="1555.5" y="-34.5" font-family="Helvetica,sans-Serif" font-size="10.00">(double distanceToEnemySquared)</text>
<text text-anchor="start" x="1545.5" y="-18.5" font-family="Helvetica,sans-Serif" font-size="10.00">+</text>
<text text-anchor="start" x="1555.5" y="-18.5" font-family="Helvetica,sans-Serif" font-size="10.00">override void OnAreaEntered</text>
<text text-anchor="start" x="1555.5" y="-6.5" font-family="Helvetica,sans-Serif" font-size="10.00">(Area2D area)</text>
<polygon fill="#666666" stroke="#666666" points="1541.5,-154 1541.5,-154 1710.5,-154 1710.5,-154 1541.5,-154"/>
<polygon fill="#666666" stroke="#666666" points="1541.5,-138 1541.5,-138 1710.5,-138 1710.5,-138 1541.5,-138"/>
<polygon fill="none" stroke="#666666" points="1541.5,0 1541.5,-172 1710.5,-172 1710.5,0 1541.5,0"/>
</a>
</g>
</g>
<!-- Node9&#45;&gt;Node15 -->
<g id="edge14_Node000009_Node000015" class="edge">
<title>Node9&#45;&gt;Node15</title>
<g id="a_edge14_Node000009_Node000015"><a xlink:title=" ">
<path fill="none" stroke="#63b8ff" d="M1378.3,-283.3C1425.17,-252.05 1483.48,-211.49 1533,-172 1535.82,-169.75 1538.67,-167.44 1541.52,-165.08"/>
<polygon fill="none" stroke="#63b8ff" points="1376.44,-280.34 1370.05,-288.79 1380.31,-286.17 1376.44,-280.34"/>
</a>
</g>
</g>
<!-- Node16 -->
<g id="Node000016" class="node">
<title>Node16</title>
<g id="a_Node000016"><a xlink:href="../../d5/d00/class_sun_beam.html" target="_top" xlink:title=" ">
<polygon fill="white" stroke="none" points="1849.5,-130 1728.5,-130 1728.5,-42 1849.5,-42 1849.5,-130"/>
<text text-anchor="start" x="1767.62" y="-116.5" font-family="Helvetica,sans-Serif" font-size="10.00">SunBeam</text>
<text text-anchor="start" x="1787.5" y="-100.5" font-family="Helvetica,sans-Serif" font-size="10.00"> </text>
<text text-anchor="start" x="1732.5" y="-84.5" font-family="Helvetica,sans-Serif" font-size="10.00">+</text>
<text text-anchor="start" x="1742.5" y="-84.5" font-family="Helvetica,sans-Serif" font-size="10.00">override void Init</text>
<text text-anchor="start" x="1742.5" y="-72.5" font-family="Helvetica,sans-Serif" font-size="10.00">(Attack attack, Vector2</text>
<text text-anchor="start" x="1742.5" y="-60.5" font-family="Helvetica,sans-Serif" font-size="10.00"> playerPosition, Vector2</text>
<text text-anchor="start" x="1742.5" y="-48.5" font-family="Helvetica,sans-Serif" font-size="10.00"> targetPosition)</text>
<polygon fill="#666666" stroke="#666666" points="1728.5,-112 1728.5,-112 1849.5,-112 1849.5,-112 1728.5,-112"/>
<polygon fill="#666666" stroke="#666666" points="1728.5,-96 1728.5,-96 1849.5,-96 1849.5,-96 1728.5,-96"/>
<polygon fill="none" stroke="#666666" points="1728.5,-42 1728.5,-130 1849.5,-130 1849.5,-42 1728.5,-42"/>
</a>
</g>
</g>
<!-- Node9&#45;&gt;Node16 -->
<g id="edge15_Node000009_Node000016" class="edge">
<title>Node9&#45;&gt;Node16</title>
<g id="a_edge15_Node000009_Node000016"><a xlink:title=" ">
<path fill="none" stroke="#63b8ff" d="M1379.85,-318.97C1471.25,-295.05 1615.37,-248.36 1720,-172 1735.66,-160.57 1749.79,-144.76 1761.13,-129.86"/>
<polygon fill="none" stroke="#63b8ff" points="1379.25,-315.52 1370.44,-321.4 1380.99,-322.29 1379.25,-315.52"/>
</a>
</g>
</g>
</g>
</svg>
