<?xml version="1.0" encoding="UTF-8" standalone="no"?>
<!DOCTYPE svg PUBLIC "-//W3C//DTD SVG 1.1//EN"
 "http://www.w3.org/Graphics/SVG/1.1/DTD/svg11.dtd">
<!-- Generated by graphviz version 12.1.0 (20240811.2233)
 -->
<!-- Title: DungeonClearMenu Pages: 1 -->
<svg width="277pt" height="622pt"
 viewBox="0.00 0.00 276.50 622.00" xmlns="http://www.w3.org/2000/svg" xmlns:xlink="http://www.w3.org/1999/xlink">
<g id="graph0" class="graph" transform="scale(1 1) rotate(0) translate(4 618)">
<title>DungeonClearMenu</title>
<!-- Node1 -->
<g id="Node000001" class="node">
<title>Node1</title>
<g id="a_Node000001"><a xlink:title=" ">
<polygon fill="#999999" stroke="none" points="152.5,-68 13.5,-68 13.5,0 152.5,0 152.5,-68"/>
<text text-anchor="start" x="39.88" y="-54.5" font-family="Helvetica,sans-Serif" font-size="10.00">DungeonClearMenu</text>
<text text-anchor="start" x="81.5" y="-38.5" font-family="Helvetica,sans-Serif" font-size="10.00"> </text>
<text text-anchor="start" x="17.5" y="-22.5" font-family="Helvetica,sans-Serif" font-size="10.00">+</text>
<text text-anchor="start" x="27.5" y="-22.5" font-family="Helvetica,sans-Serif" font-size="10.00">override void _Ready()</text>
<text text-anchor="start" x="17.5" y="-6.5" font-family="Helvetica,sans-Serif" font-size="10.00">+</text>
<text text-anchor="start" x="27.5" y="-6.5" font-family="Helvetica,sans-Serif" font-size="10.00">void OnExitButtonPressed()</text>
<polygon fill="#666666" stroke="#666666" points="13.5,-50 13.5,-50 152.5,-50 152.5,-50 13.5,-50"/>
<polygon fill="#666666" stroke="#666666" points="13.5,-34 13.5,-34 152.5,-34 152.5,-34 13.5,-34"/>
<polygon fill="none" stroke="#666666" points="13.5,0 13.5,-68 152.5,-68 152.5,0 13.5,0"/>
</a>
</g>
</g>
<!-- Node2 -->
<g id="Node000002" class="node">
<title>Node2</title>
<g id="a_Node000002"><a xlink:href="../../d9/dc5/class_base_menu.html" target="_top" xlink:title=" ">
<polygon fill="white" stroke="none" points="166,-257 0,-257 0,-105 166,-105 166,-257"/>
<text text-anchor="start" x="59.75" y="-243.5" font-family="Helvetica,sans-Serif" font-size="10.00">BaseMenu</text>
<text text-anchor="start" x="4" y="-227.5" font-family="Helvetica,sans-Serif" font-size="10.00">+</text>
<text text-anchor="start" x="14" y="-227.5" font-family="Helvetica,sans-Serif" font-size="10.00">MenuManager.MenuType</text>
<text text-anchor="start" x="14" y="-215.5" font-family="Helvetica,sans-Serif" font-size="10.00"> MenuType</text>
<text text-anchor="start" x="4" y="-199.5" font-family="Helvetica,sans-Serif" font-size="10.00">+</text>
<text text-anchor="start" x="14" y="-199.5" font-family="Helvetica,sans-Serif" font-size="10.00">override void _Ready()</text>
<text text-anchor="start" x="4" y="-183.5" font-family="Helvetica,sans-Serif" font-size="10.00">+</text>
<text text-anchor="start" x="14" y="-183.5" font-family="Helvetica,sans-Serif" font-size="10.00">void PushMenu(MenuManager.</text>
<text text-anchor="start" x="14" y="-171.5" font-family="Helvetica,sans-Serif" font-size="10.00">MenuType newMenu)</text>
<text text-anchor="start" x="4" y="-155.5" font-family="Helvetica,sans-Serif" font-size="10.00">+</text>
<text text-anchor="start" x="14" y="-155.5" font-family="Helvetica,sans-Serif" font-size="10.00">void PopMenu()</text>
<text text-anchor="start" x="4" y="-139.5" font-family="Helvetica,sans-Serif" font-size="10.00">+</text>
<text text-anchor="start" x="14" y="-139.5" font-family="Helvetica,sans-Serif" font-size="10.00">void SetRootMenu(MenuManager.</text>
<text text-anchor="start" x="14" y="-127.5" font-family="Helvetica,sans-Serif" font-size="10.00">MenuType newMenu)</text>
<text text-anchor="start" x="4.38" y="-111.5" font-family="Helvetica,sans-Serif" font-size="10.00">#</text>
<text text-anchor="start" x="14" y="-111.5" font-family="Helvetica,sans-Serif" font-size="10.00">virtual void SetupMenu()</text>
<polygon fill="#666666" stroke="#666666" points="0,-239 0,-239 166,-239 166,-239 0,-239"/>
<polygon fill="#666666" stroke="#666666" points="0,-211 0,-211 12,-211 12,-211 0,-211"/>
<polygon fill="#666666" stroke="#666666" points="12,-211 12,-211 166,-211 166,-211 12,-211"/>
<polygon fill="none" stroke="#666666" points="0,-105 0,-257 166,-257 166,-105 0,-105"/>
</a>
</g>
</g>
<!-- Node2&#45;&gt;Node1 -->
<g id="edge1_Node000001_Node000002" class="edge">
<title>Node2&#45;&gt;Node1</title>
<g id="a_edge1_Node000001_Node000002"><a xlink:title=" ">
<path fill="none" stroke="#63b8ff" d="M83,-94.01C83,-84.78 83,-75.85 83,-67.85"/>
<polygon fill="none" stroke="#63b8ff" points="79.5,-93.86 83,-103.86 86.5,-93.86 79.5,-93.86"/>
</a>
</g>
</g>
<!-- Node3 -->
<g id="Node000003" class="node">
<title>Node3</title>
<g id="a_Node000003"><a xlink:href="../../dc/d8f/class_node.html" target="_top" xlink:title=" ">
<polygon fill="white" stroke="none" points="95.5,-614 62.5,-614 62.5,-562 95.5,-562 95.5,-614"/>
<text text-anchor="start" x="67.38" y="-600.5" font-family="Helvetica,sans-Serif" font-size="10.00">Node</text>
<text text-anchor="start" x="77.5" y="-584.5" font-family="Helvetica,sans-Serif" font-size="10.00"> </text>
<text text-anchor="start" x="77.5" y="-568.5" font-family="Helvetica,sans-Serif" font-size="10.00"> </text>
<polygon fill="#666666" stroke="#666666" points="62.5,-596 62.5,-596 95.5,-596 95.5,-596 62.5,-596"/>
<polygon fill="#666666" stroke="#666666" points="62.5,-580 62.5,-580 95.5,-580 95.5,-580 62.5,-580"/>
<polygon fill="none" stroke="#666666" points="62.5,-562 62.5,-614 95.5,-614 95.5,-562 62.5,-562"/>
</a>
</g>
</g>
<!-- Node3&#45;&gt;Node2 -->
<g id="edge2_Node000002_Node000003" class="edge">
<title>Node3&#45;&gt;Node2</title>
<g id="a_edge2_Node000002_Node000003"><a xlink:title=" ">
<path fill="none" stroke="#63b8ff" d="M79.36,-550.88C80.01,-485.03 81.4,-344.2 82.26,-256.86"/>
<polygon fill="none" stroke="#63b8ff" points="75.86,-550.73 79.26,-560.76 82.86,-550.8 75.86,-550.73"/>
</a>
</g>
</g>
<!-- Node4 -->
<g id="Node000004" class="node">
<title>Node4</title>
<g id="a_Node000004"><a xlink:href="../../d9/db2/class_menu_manager.html" target="_top" xlink:title=" ">
<polygon fill="white" stroke="none" points="268.5,-525 95.5,-525 95.5,-305 268.5,-305 268.5,-525"/>
<text text-anchor="start" x="151.25" y="-511.5" font-family="Helvetica,sans-Serif" font-size="10.00">MenuManager</text>
<text text-anchor="start" x="99.5" y="-495.5" font-family="Helvetica,sans-Serif" font-size="10.00">+</text>
<text text-anchor="start" x="109.5" y="-495.5" font-family="Helvetica,sans-Serif" font-size="10.00">MenuType CurrentMenu</text>
<text text-anchor="start" x="99.5" y="-479.5" font-family="Helvetica,sans-Serif" font-size="10.00">+</text>
<text text-anchor="start" x="109.5" y="-479.5" font-family="Helvetica,sans-Serif" font-size="10.00">delegate void MenuChanged</text>
<text text-anchor="start" x="109.5" y="-467.5" font-family="Helvetica,sans-Serif" font-size="10.00">EventHandler(MenuType newMenu,</text>
<text text-anchor="start" x="109.5" y="-455.5" font-family="Helvetica,sans-Serif" font-size="10.00"> bool isPush)</text>
<text text-anchor="start" x="99.5" y="-439.5" font-family="Helvetica,sans-Serif" font-size="10.00">+</text>
<text text-anchor="start" x="109.5" y="-439.5" font-family="Helvetica,sans-Serif" font-size="10.00">delegate void MenuLeftEvent</text>
<text text-anchor="start" x="109.5" y="-427.5" font-family="Helvetica,sans-Serif" font-size="10.00">Handler(MenuType leftMenu)</text>
<text text-anchor="start" x="99.5" y="-411.5" font-family="Helvetica,sans-Serif" font-size="10.00">+</text>
<text text-anchor="start" x="109.5" y="-411.5" font-family="Helvetica,sans-Serif" font-size="10.00">override void _EnterTree()</text>
<text text-anchor="start" x="99.5" y="-395.5" font-family="Helvetica,sans-Serif" font-size="10.00">+</text>
<text text-anchor="start" x="109.5" y="-395.5" font-family="Helvetica,sans-Serif" font-size="10.00">void PushMenu(MenuType</text>
<text text-anchor="start" x="109.5" y="-383.5" font-family="Helvetica,sans-Serif" font-size="10.00"> newMenu)</text>
<text text-anchor="start" x="99.5" y="-367.5" font-family="Helvetica,sans-Serif" font-size="10.00">+</text>
<text text-anchor="start" x="109.5" y="-367.5" font-family="Helvetica,sans-Serif" font-size="10.00">void PopMenu()</text>
<text text-anchor="start" x="99.5" y="-351.5" font-family="Helvetica,sans-Serif" font-size="10.00">+</text>
<text text-anchor="start" x="109.5" y="-351.5" font-family="Helvetica,sans-Serif" font-size="10.00">void SetRootMenu(MenuType</text>
<text text-anchor="start" x="109.5" y="-339.5" font-family="Helvetica,sans-Serif" font-size="10.00"> newMenu)</text>
<text text-anchor="start" x="99.5" y="-323.5" font-family="Helvetica,sans-Serif" font-size="10.00">+</text>
<text text-anchor="start" x="109.5" y="-323.5" font-family="Helvetica,sans-Serif" font-size="10.00">void RequestRootMenu</text>
<text text-anchor="start" x="109.5" y="-311.5" font-family="Helvetica,sans-Serif" font-size="10.00">(BaseMenu menu)</text>
<polygon fill="#666666" stroke="#666666" points="95.5,-507 95.5,-507 268.5,-507 268.5,-507 95.5,-507"/>
<polygon fill="#666666" stroke="#666666" points="95.5,-491 95.5,-491 107.5,-491 107.5,-491 95.5,-491"/>
<polygon fill="#666666" stroke="#666666" points="107.5,-491 107.5,-491 268.5,-491 268.5,-491 107.5,-491"/>
<polygon fill="none" stroke="#666666" points="95.5,-305 95.5,-525 268.5,-525 268.5,-305 95.5,-305"/>
</a>
</g>
</g>
<!-- Node3&#45;&gt;Node4 -->
<g id="edge4_Node000004_Node000003" class="edge">
<title>Node3&#45;&gt;Node4</title>
<g id="a_edge4_Node000004_Node000003"><a xlink:title=" ">
<path fill="none" stroke="#63b8ff" d="M99.8,-552.47C104.84,-544.1 110.5,-534.7 116.43,-524.85"/>
<polygon fill="none" stroke="#63b8ff" points="96.92,-550.47 94.76,-560.84 102.92,-554.08 96.92,-550.47"/>
</a>
</g>
</g>
<!-- Node4&#45;&gt;Node2 -->
<g id="edge3_Node000002_Node000004" class="edge">
<title>Node4&#45;&gt;Node2</title>
<g id="a_edge3_Node000002_Node000004"><a xlink:title=" ">
<path fill="none" stroke="#63b8ff" d="M135.54,-305.13C130.31,-292.86 125.02,-280.48 119.93,-268.54"/>
<polygon fill="none" stroke="#63b8ff" points="119.97,-268.65 113.94,-264.7 115.26,-257.61 121.3,-261.56 119.97,-268.65"/>
</a>
</g>
<text text-anchor="middle" x="161.45" y="-277.5" font-family="Helvetica,sans-Serif" font-size="10.00" fill="grey"> #MenuManager</text>
</g>
</g>
</svg>
