<?xml version="1.0" encoding="UTF-8" standalone="no"?>
<!DOCTYPE svg PUBLIC "-//W3C//DTD SVG 1.1//EN"
 "http://www.w3.org/Graphics/SVG/1.1/DTD/svg11.dtd">
<!-- Generated by graphviz version 12.1.0 (20240811.2233)
 -->
<!-- Title: Sun Pages: 1 -->
<svg width="416pt" height="1122pt"
 viewBox="0.00 0.00 415.50 1122.00" xmlns="http://www.w3.org/2000/svg" xmlns:xlink="http://www.w3.org/1999/xlink">
<g id="graph0" class="graph" transform="scale(1 1) rotate(0) translate(4 1118)">
<title>Sun</title>
<!-- Node1 -->
<g id="Node000001" class="node">
<title>Node1</title>
<g id="a_Node000001"><a xlink:title=" ">
<polygon fill="#999999" stroke="none" points="169,-172 0,-172 0,0 169,0 169,-172"/>
<text text-anchor="start" x="75.88" y="-158.5" font-family="Helvetica,sans-Serif" font-size="10.00">Sun</text>
<text text-anchor="start" x="83" y="-142.5" font-family="Helvetica,sans-Serif" font-size="10.00"> </text>
<text text-anchor="start" x="4" y="-126.5" font-family="Helvetica,sans-Serif" font-size="10.00">+</text>
<text text-anchor="start" x="14" y="-126.5" font-family="Helvetica,sans-Serif" font-size="10.00">override void Init</text>
<text text-anchor="start" x="14" y="-114.5" font-family="Helvetica,sans-Serif" font-size="10.00">(Attack attack, Vector2</text>
<text text-anchor="start" x="14" y="-102.5" font-family="Helvetica,sans-Serif" font-size="10.00"> playerPosition, Vector2</text>
<text text-anchor="start" x="14" y="-90.5" font-family="Helvetica,sans-Serif" font-size="10.00"> targetPosition)</text>
<text text-anchor="start" x="4" y="-74.5" font-family="Helvetica,sans-Serif" font-size="10.00">+</text>
<text text-anchor="start" x="14" y="-74.5" font-family="Helvetica,sans-Serif" font-size="10.00">override void _PhysicsProcess</text>
<text text-anchor="start" x="14" y="-62.5" font-family="Helvetica,sans-Serif" font-size="10.00">(double delta)</text>
<text text-anchor="start" x="4" y="-46.5" font-family="Helvetica,sans-Serif" font-size="10.00">+</text>
<text text-anchor="start" x="14" y="-46.5" font-family="Helvetica,sans-Serif" font-size="10.00">Attack CalculateAttack</text>
<text text-anchor="start" x="14" y="-34.5" font-family="Helvetica,sans-Serif" font-size="10.00">(double distanceToEnemySquared)</text>
<text text-anchor="start" x="4" y="-18.5" font-family="Helvetica,sans-Serif" font-size="10.00">+</text>
<text text-anchor="start" x="14" y="-18.5" font-family="Helvetica,sans-Serif" font-size="10.00">override void OnAreaEntered</text>
<text text-anchor="start" x="14" y="-6.5" font-family="Helvetica,sans-Serif" font-size="10.00">(Area2D area)</text>
<polygon fill="#666666" stroke="#666666" points="0,-154 0,-154 169,-154 169,-154 0,-154"/>
<polygon fill="#666666" stroke="#666666" points="0,-138 0,-138 169,-138 169,-138 0,-138"/>
<polygon fill="none" stroke="#666666" points="0,0 0,-172 169,-172 169,0 0,0"/>
</a>
</g>
</g>
<!-- Node2 -->
<g id="Node000002" class="node">
<title>Node2</title>
<g id="a_Node000002"><a xlink:href="../../d8/d0d/class_spell.html" target="_top" xlink:title=" ">
<polygon fill="white" stroke="none" points="161.5,-373 7.5,-373 7.5,-209 161.5,-209 161.5,-373"/>
<text text-anchor="start" x="73.62" y="-359.5" font-family="Helvetica,sans-Serif" font-size="10.00">Spell</text>
<text text-anchor="start" x="83" y="-343.5" font-family="Helvetica,sans-Serif" font-size="10.00"> </text>
<text text-anchor="start" x="11.5" y="-327.5" font-family="Helvetica,sans-Serif" font-size="10.00">+</text>
<text text-anchor="start" x="21.5" y="-327.5" font-family="Helvetica,sans-Serif" font-size="10.00">override void _Ready()</text>
<text text-anchor="start" x="11.5" y="-311.5" font-family="Helvetica,sans-Serif" font-size="10.00">+</text>
<text text-anchor="start" x="21.5" y="-311.5" font-family="Helvetica,sans-Serif" font-size="10.00">virtual void Init(Attack</text>
<text text-anchor="start" x="21.5" y="-299.5" font-family="Helvetica,sans-Serif" font-size="10.00"> attack, Vector2 playerPosition,</text>
<text text-anchor="start" x="21.5" y="-287.5" font-family="Helvetica,sans-Serif" font-size="10.00"> Vector2 targetPosition)</text>
<text text-anchor="start" x="11.5" y="-271.5" font-family="Helvetica,sans-Serif" font-size="10.00">+</text>
<text text-anchor="start" x="21.5" y="-271.5" font-family="Helvetica,sans-Serif" font-size="10.00">override void _PhysicsProcess</text>
<text text-anchor="start" x="21.5" y="-259.5" font-family="Helvetica,sans-Serif" font-size="10.00">(double delta)</text>
<text text-anchor="start" x="11.5" y="-243.5" font-family="Helvetica,sans-Serif" font-size="10.00">+</text>
<text text-anchor="start" x="21.5" y="-243.5" font-family="Helvetica,sans-Serif" font-size="10.00">virtual void OnAreaEntered</text>
<text text-anchor="start" x="21.5" y="-231.5" font-family="Helvetica,sans-Serif" font-size="10.00">(Area2D area)</text>
<text text-anchor="start" x="11.5" y="-215.5" font-family="Helvetica,sans-Serif" font-size="10.00">+</text>
<text text-anchor="start" x="21.5" y="-215.5" font-family="Helvetica,sans-Serif" font-size="10.00">double GetTimeUntilDeleteion()</text>
<polygon fill="#666666" stroke="#666666" points="7.5,-355 7.5,-355 161.5,-355 161.5,-355 7.5,-355"/>
<polygon fill="#666666" stroke="#666666" points="7.5,-339 7.5,-339 161.5,-339 161.5,-339 7.5,-339"/>
<polygon fill="none" stroke="#666666" points="7.5,-209 7.5,-373 161.5,-373 161.5,-209 7.5,-209"/>
</a>
</g>
</g>
<!-- Node2&#45;&gt;Node1 -->
<g id="edge1_Node000001_Node000002" class="edge">
<title>Node2&#45;&gt;Node1</title>
<g id="a_edge1_Node000001_Node000002"><a xlink:title=" ">
<path fill="none" stroke="#63b8ff" d="M84.5,-197.87C84.5,-189.21 84.5,-180.45 84.5,-171.86"/>
<polygon fill="none" stroke="#63b8ff" points="81,-197.67 84.5,-207.67 88,-197.67 81,-197.67"/>
</a>
</g>
</g>
<!-- Node3 -->
<g id="Node000003" class="node">
<title>Node3</title>
<g id="a_Node000003"><a xlink:href="../../dc/df8/class_area2_d.html" target="_top" xlink:title=" ">
<polygon fill="white" stroke="none" points="158,-975 115,-975 115,-923 158,-923 158,-975"/>
<text text-anchor="start" x="120" y="-961.5" font-family="Helvetica,sans-Serif" font-size="10.00">Area2D</text>
<text text-anchor="start" x="135" y="-945.5" font-family="Helvetica,sans-Serif" font-size="10.00"> </text>
<text text-anchor="start" x="135" y="-929.5" font-family="Helvetica,sans-Serif" font-size="10.00"> </text>
<polygon fill="#666666" stroke="#666666" points="115,-957 115,-957 158,-957 158,-957 115,-957"/>
<polygon fill="#666666" stroke="#666666" points="115,-941 115,-941 158,-941 158,-941 115,-941"/>
<polygon fill="none" stroke="#666666" points="115,-923 115,-975 158,-975 158,-923 115,-923"/>
</a>
</g>
</g>
<!-- Node3&#45;&gt;Node2 -->
<g id="edge2_Node000002_Node000003" class="edge">
<title>Node3&#45;&gt;Node2</title>
<g id="a_edge2_Node000002_Node000003"><a xlink:title=" ">
<path fill="none" stroke="#63b8ff" d="M115.07,-913.31C101.63,-889.45 85.56,-856.51 78.5,-825 43.31,-667.87 58.73,-478.11 72.22,-372.66"/>
<polygon fill="none" stroke="#63b8ff" points="112.03,-915.05 120.06,-921.96 118.09,-911.55 112.03,-915.05"/>
</a>
</g>
</g>
<!-- Node7 -->
<g id="Node000007" class="node">
<title>Node7</title>
<g id="a_Node000007"><a xlink:href="../../d1/da7/class_health_component.html" target="_top" xlink:title=" ">
<polygon fill="white" stroke="none" points="407.5,-825 225.5,-825 225.5,-561 407.5,-561 407.5,-825"/>
<text text-anchor="start" x="277.12" y="-811.5" font-family="Helvetica,sans-Serif" font-size="10.00">HealthComponent</text>
<text text-anchor="start" x="315" y="-795.5" font-family="Helvetica,sans-Serif" font-size="10.00"> </text>
<text text-anchor="start" x="229.5" y="-779.5" font-family="Helvetica,sans-Serif" font-size="10.00">+</text>
<text text-anchor="start" x="239.5" y="-779.5" font-family="Helvetica,sans-Serif" font-size="10.00">delegate void DeathEvent</text>
<text text-anchor="start" x="239.5" y="-767.5" font-family="Helvetica,sans-Serif" font-size="10.00">Handler()</text>
<text text-anchor="start" x="229.5" y="-751.5" font-family="Helvetica,sans-Serif" font-size="10.00">+</text>
<text text-anchor="start" x="239.5" y="-751.5" font-family="Helvetica,sans-Serif" font-size="10.00">override void _Ready()</text>
<text text-anchor="start" x="229.5" y="-735.5" font-family="Helvetica,sans-Serif" font-size="10.00">+</text>
<text text-anchor="start" x="239.5" y="-735.5" font-family="Helvetica,sans-Serif" font-size="10.00">void TakeDamage(Attack</text>
<text text-anchor="start" x="239.5" y="-723.5" font-family="Helvetica,sans-Serif" font-size="10.00"> attack)</text>
<text text-anchor="start" x="229.5" y="-707.5" font-family="Helvetica,sans-Serif" font-size="10.00">+</text>
<text text-anchor="start" x="239.5" y="-707.5" font-family="Helvetica,sans-Serif" font-size="10.00">void SetMaxHP(double</text>
<text text-anchor="start" x="239.5" y="-695.5" font-family="Helvetica,sans-Serif" font-size="10.00"> newMaxHP)</text>
<text text-anchor="start" x="229.5" y="-679.5" font-family="Helvetica,sans-Serif" font-size="10.00">+</text>
<text text-anchor="start" x="239.5" y="-679.5" font-family="Helvetica,sans-Serif" font-size="10.00">double GetMaxHP()</text>
<text text-anchor="start" x="229.5" y="-663.5" font-family="Helvetica,sans-Serif" font-size="10.00">+</text>
<text text-anchor="start" x="239.5" y="-663.5" font-family="Helvetica,sans-Serif" font-size="10.00">void SetArmor(double</text>
<text text-anchor="start" x="239.5" y="-651.5" font-family="Helvetica,sans-Serif" font-size="10.00"> armorSun, double armorCosmic,</text>
<text text-anchor="start" x="239.5" y="-639.5" font-family="Helvetica,sans-Serif" font-size="10.00"> double armorDark)</text>
<text text-anchor="start" x="229.5" y="-623.5" font-family="Helvetica,sans-Serif" font-size="10.00">+</text>
<text text-anchor="start" x="239.5" y="-623.5" font-family="Helvetica,sans-Serif" font-size="10.00">double GetCurrentHP()</text>
<text text-anchor="start" x="229.5" y="-607.5" font-family="Helvetica,sans-Serif" font-size="10.00">+</text>
<text text-anchor="start" x="239.5" y="-607.5" font-family="Helvetica,sans-Serif" font-size="10.00">double GetArmorOfType</text>
<text text-anchor="start" x="239.5" y="-595.5" font-family="Helvetica,sans-Serif" font-size="10.00">(MagicType type)</text>
<text text-anchor="start" x="229.5" y="-579.5" font-family="Helvetica,sans-Serif" font-size="10.00">+</text>
<text text-anchor="start" x="239.5" y="-579.5" font-family="Helvetica,sans-Serif" font-size="10.00">void ModifyArmor(MagicType</text>
<text text-anchor="start" x="239.5" y="-567.5" font-family="Helvetica,sans-Serif" font-size="10.00"> magicType, double flatArmorChange)</text>
<polygon fill="#666666" stroke="#666666" points="225.5,-807 225.5,-807 407.5,-807 407.5,-807 225.5,-807"/>
<polygon fill="#666666" stroke="#666666" points="225.5,-791 225.5,-791 407.5,-791 407.5,-791 225.5,-791"/>
<polygon fill="none" stroke="#666666" points="225.5,-561 225.5,-825 407.5,-825 407.5,-561 225.5,-561"/>
</a>
</g>
</g>
<!-- Node3&#45;&gt;Node7 -->
<g id="edge7_Node000007_Node000003" class="edge">
<title>Node3&#45;&gt;Node7</title>
<g id="a_edge7_Node000007_Node000003"><a xlink:title=" ">
<path fill="none" stroke="#63b8ff" d="M160.7,-913.85C177.7,-889.86 201.6,-856.13 225.59,-822.28"/>
<polygon fill="none" stroke="#63b8ff" points="157.89,-911.77 154.96,-921.95 163.6,-915.81 157.89,-911.77"/>
</a>
</g>
</g>
<!-- Node4 -->
<g id="Node000004" class="node">
<title>Node4</title>
<g id="a_Node000004"><a xlink:href="../../d9/db7/class_attack.html" target="_top" xlink:title=" ">
<polygon fill="white" stroke="none" points="388.5,-513 214.5,-513 214.5,-421 388.5,-421 388.5,-513"/>
<text text-anchor="start" x="287.25" y="-499.5" font-family="Helvetica,sans-Serif" font-size="10.00">Attack</text>
<text text-anchor="start" x="300" y="-483.5" font-family="Helvetica,sans-Serif" font-size="10.00"> </text>
<text text-anchor="start" x="218.5" y="-467.5" font-family="Helvetica,sans-Serif" font-size="10.00">+</text>
<text text-anchor="start" x="228.5" y="-467.5" font-family="Helvetica,sans-Serif" font-size="10.00">Attack(double damageValue,</text>
<text text-anchor="start" x="228.5" y="-455.5" font-family="Helvetica,sans-Serif" font-size="10.00"> MagicType type, HealthComponent</text>
<text text-anchor="start" x="228.5" y="-443.5" font-family="Helvetica,sans-Serif" font-size="10.00"> attackerNode)</text>
<text text-anchor="start" x="218.5" y="-427.5" font-family="Helvetica,sans-Serif" font-size="10.00">+</text>
<text text-anchor="start" x="228.5" y="-427.5" font-family="Helvetica,sans-Serif" font-size="10.00">Attack(Attack attack)</text>
<polygon fill="#666666" stroke="#666666" points="214.5,-495 214.5,-495 388.5,-495 388.5,-495 214.5,-495"/>
<polygon fill="#666666" stroke="#666666" points="214.5,-479 214.5,-479 388.5,-479 388.5,-479 214.5,-479"/>
<polygon fill="none" stroke="#666666" points="214.5,-421 214.5,-513 388.5,-513 388.5,-421 214.5,-421"/>
</a>
</g>
</g>
<!-- Node4&#45;&gt;Node2 -->
<g id="edge3_Node000002_Node000004" class="edge">
<title>Node4&#45;&gt;Node2</title>
<g id="a_edge3_Node000002_Node000004"><a xlink:title=" ">
<path fill="none" stroke="#63b8ff" d="M245.62,-421.19C223,-403.06 196.36,-381.7 171.33,-361.62"/>
<polygon fill="none" stroke="#63b8ff" points="171.52,-361.78 164.34,-361.14 162.16,-354.27 169.34,-354.9 171.52,-361.78"/>
</a>
</g>
<text text-anchor="middle" x="239.07" y="-393.5" font-family="Helvetica,sans-Serif" font-size="10.00" fill="grey"> #_attack</text>
</g>
<!-- Node5 -->
<g id="Node000005" class="node">
<title>Node5</title>
<g id="a_Node000005"><a xlink:title=" ">
<polygon fill="white" stroke="none" points="125.5,-719 87.5,-719 87.5,-667 125.5,-667 125.5,-719"/>
<text text-anchor="start" x="92.25" y="-705.5" font-family="Helvetica,sans-Serif" font-size="10.00">double</text>
<text text-anchor="start" x="105" y="-689.5" font-family="Helvetica,sans-Serif" font-size="10.00"> </text>
<text text-anchor="start" x="105" y="-673.5" font-family="Helvetica,sans-Serif" font-size="10.00"> </text>
<polygon fill="#666666" stroke="#666666" points="87.5,-701 87.5,-701 125.5,-701 125.5,-701 87.5,-701"/>
<polygon fill="#666666" stroke="#666666" points="87.5,-685 87.5,-685 125.5,-685 125.5,-685 87.5,-685"/>
<polygon fill="none" stroke="#666666" points="87.5,-667 87.5,-719 125.5,-719 125.5,-667 87.5,-667"/>
</a>
</g>
</g>
<!-- Node5&#45;&gt;Node2 -->
<g id="edge10_Node000002_Node000005" class="edge">
<title>Node5&#45;&gt;Node2</title>
<g id="a_edge10_Node000002_Node000005"><a xlink:title=" ">
<path fill="none" stroke="#63b8ff" d="M104.5,-667.11C101.77,-632.55 96.86,-568.06 93.75,-513 91.39,-471.23 89.36,-424.99 87.81,-385.64"/>
<polygon fill="none" stroke="#63b8ff" points="87.82,-385.74 83.59,-379.9 87.35,-373.75 91.58,-379.59 87.82,-385.74"/>
</a>
</g>
<text text-anchor="middle" x="149.62" y="-469.5" font-family="Helvetica,sans-Serif" font-size="10.00" fill="grey"> +MaxLifeTimeInSeconds</text>
<text text-anchor="middle" x="149.62" y="-457.5" font-family="Helvetica,sans-Serif" font-size="10.00" fill="grey">+_timeLeftUntilDeletion</text>
</g>
<!-- Node5&#45;&gt;Node4 -->
<g id="edge4_Node000004_Node000005" class="edge">
<title>Node5&#45;&gt;Node4</title>
<g id="a_edge4_Node000004_Node000005"><a xlink:title=" ">
<path fill="none" stroke="#63b8ff" d="M107.97,-667C110.69,-639 118.43,-593.3 140.5,-561 149.42,-547.94 175.1,-531.25 203.41,-515.63"/>
<polygon fill="none" stroke="#63b8ff" points="203.44,-515.61 206.81,-509.24 213.99,-509.9 210.62,-516.27 203.44,-515.61"/>
</a>
</g>
<text text-anchor="middle" x="195.31" y="-533.5" font-family="Helvetica,sans-Serif" font-size="10.00" fill="grey"> +damage</text>
</g>
<!-- Node6 -->
<g id="Node000006" class="node">
<title>Node6</title>
<g id="a_Node000006"><a xlink:title=" ">
<polygon fill="white" stroke="none" points="207,-719 150,-719 150,-667 207,-667 207,-719"/>
<text text-anchor="start" x="154.88" y="-705.5" font-family="Helvetica,sans-Serif" font-size="10.00">MagicType</text>
<text text-anchor="start" x="177" y="-689.5" font-family="Helvetica,sans-Serif" font-size="10.00"> </text>
<text text-anchor="start" x="177" y="-673.5" font-family="Helvetica,sans-Serif" font-size="10.00"> </text>
<polygon fill="#666666" stroke="#666666" points="150,-701 150,-701 207,-701 207,-701 150,-701"/>
<polygon fill="#666666" stroke="#666666" points="150,-685 150,-685 207,-685 207,-685 150,-685"/>
<polygon fill="none" stroke="#666666" points="150,-667 150,-719 207,-719 207,-667 150,-667"/>
</a>
</g>
</g>
<!-- Node6&#45;&gt;Node4 -->
<g id="edge5_Node000004_Node000006" class="edge">
<title>Node6&#45;&gt;Node4</title>
<g id="a_edge5_Node000004_Node000006"><a xlink:title=" ">
<path fill="none" stroke="#63b8ff" d="M182.24,-667.03C187.12,-639.64 197.38,-595.07 216.5,-561 224.03,-547.59 233.83,-534.53 244.09,-522.64"/>
<polygon fill="none" stroke="#63b8ff" points="244.17,-522.55 245.2,-515.41 252.18,-513.61 251.16,-520.75 244.17,-522.55"/>
</a>
</g>
<text text-anchor="middle" x="263.99" y="-533.5" font-family="Helvetica,sans-Serif" font-size="10.00" fill="grey"> +magicType</text>
</g>
<!-- Node7&#45;&gt;Node4 -->
<g id="edge6_Node000004_Node000007" class="edge">
<title>Node7&#45;&gt;Node4</title>
<g id="a_edge6_Node000004_Node000007"><a xlink:title=" ">
<path fill="none" stroke="#63b8ff" d="M307.73,-561.05C306.91,-548.8 306.11,-536.86 305.37,-525.84"/>
<polygon fill="none" stroke="#63b8ff" points="305.37,-525.77 300.98,-520.05 304.57,-513.8 308.96,-519.52 305.37,-525.77"/>
</a>
</g>
<text text-anchor="middle" x="328.48" y="-533.5" font-family="Helvetica,sans-Serif" font-size="10.00" fill="grey"> +attacker</text>
</g>
<!-- Node8 -->
<g id="Node000008" class="node">
<title>Node8</title>
<g id="a_Node000008"><a xlink:href="../../d7/dca/class_healthbar.html" target="_top" xlink:title=" ">
<polygon fill="white" stroke="none" points="375,-1025 258,-1025 258,-873 375,-873 375,-1025"/>
<text text-anchor="start" x="295.5" y="-1011.5" font-family="Helvetica,sans-Serif" font-size="10.00">Healthbar</text>
<text text-anchor="start" x="315" y="-995.5" font-family="Helvetica,sans-Serif" font-size="10.00"> </text>
<text text-anchor="start" x="262" y="-979.5" font-family="Helvetica,sans-Serif" font-size="10.00">+</text>
<text text-anchor="start" x="272" y="-979.5" font-family="Helvetica,sans-Serif" font-size="10.00">override void _Ready()</text>
<text text-anchor="start" x="262" y="-963.5" font-family="Helvetica,sans-Serif" font-size="10.00">+</text>
<text text-anchor="start" x="272" y="-963.5" font-family="Helvetica,sans-Serif" font-size="10.00">override void _Process</text>
<text text-anchor="start" x="272" y="-951.5" font-family="Helvetica,sans-Serif" font-size="10.00">(double delta)</text>
<text text-anchor="start" x="262" y="-935.5" font-family="Helvetica,sans-Serif" font-size="10.00">+</text>
<text text-anchor="start" x="272" y="-935.5" font-family="Helvetica,sans-Serif" font-size="10.00">void InitHealthbar</text>
<text text-anchor="start" x="272" y="-923.5" font-family="Helvetica,sans-Serif" font-size="10.00">(double health)</text>
<text text-anchor="start" x="262" y="-907.5" font-family="Helvetica,sans-Serif" font-size="10.00">+</text>
<text text-anchor="start" x="272" y="-907.5" font-family="Helvetica,sans-Serif" font-size="10.00">void SetHealthPoints</text>
<text text-anchor="start" x="272" y="-895.5" font-family="Helvetica,sans-Serif" font-size="10.00">(double newHealth)</text>
<text text-anchor="start" x="262" y="-879.5" font-family="Helvetica,sans-Serif" font-size="10.00">+</text>
<text text-anchor="start" x="272" y="-879.5" font-family="Helvetica,sans-Serif" font-size="10.00">void OnTimerTimeout()</text>
<polygon fill="#666666" stroke="#666666" points="258,-1007 258,-1007 375,-1007 375,-1007 258,-1007"/>
<polygon fill="#666666" stroke="#666666" points="258,-991 258,-991 375,-991 375,-991 258,-991"/>
<polygon fill="none" stroke="#666666" points="258,-873 258,-1025 375,-1025 375,-873 258,-873"/>
</a>
</g>
</g>
<!-- Node8&#45;&gt;Node7 -->
<g id="edge8_Node000007_Node000008" class="edge">
<title>Node8&#45;&gt;Node7</title>
<g id="a_edge8_Node000007_Node000008"><a xlink:title=" ">
<path fill="none" stroke="#63b8ff" d="M316.5,-873.17C316.5,-861.87 316.5,-849.91 316.5,-837.74"/>
<polygon fill="none" stroke="#63b8ff" points="316.5,-837.9 312.5,-831.9 316.5,-825.9 320.5,-831.9 316.5,-837.9"/>
</a>
</g>
<text text-anchor="middle" x="340.88" y="-845.5" font-family="Helvetica,sans-Serif" font-size="10.00" fill="grey"> +healthbar</text>
</g>
<!-- Node9 -->
<g id="Node000009" class="node">
<title>Node9</title>
<g id="a_Node000009"><a xlink:title=" ">
<polygon fill="white" stroke="none" points="364.5,-1114 268.5,-1114 268.5,-1062 364.5,-1062 364.5,-1114"/>
<text text-anchor="start" x="273.38" y="-1100.5" font-family="Helvetica,sans-Serif" font-size="10.00">TextureProgressBar</text>
<text text-anchor="start" x="315" y="-1084.5" font-family="Helvetica,sans-Serif" font-size="10.00"> </text>
<text text-anchor="start" x="315" y="-1068.5" font-family="Helvetica,sans-Serif" font-size="10.00"> </text>
<polygon fill="#666666" stroke="#666666" points="268.5,-1096 268.5,-1096 364.5,-1096 364.5,-1096 268.5,-1096"/>
<polygon fill="#666666" stroke="#666666" points="268.5,-1080 268.5,-1080 364.5,-1080 364.5,-1080 268.5,-1080"/>
<polygon fill="none" stroke="#666666" points="268.5,-1062 268.5,-1114 364.5,-1114 364.5,-1062 268.5,-1062"/>
</a>
</g>
</g>
<!-- Node9&#45;&gt;Node8 -->
<g id="edge9_Node000008_Node000009" class="edge">
<title>Node9&#45;&gt;Node8</title>
<g id="a_edge9_Node000008_Node000009"><a xlink:title=" ">
<path fill="none" stroke="#63b8ff" d="M316.5,-1050.92C316.5,-1042.8 316.5,-1033.88 316.5,-1024.81"/>
<polygon fill="none" stroke="#63b8ff" points="313,-1050.68 316.5,-1060.68 320,-1050.68 313,-1050.68"/>
</a>
</g>
</g>
</g>
</svg>
