<?xml version="1.0" encoding="UTF-8" standalone="no"?>
<!DOCTYPE svg PUBLIC "-//W3C//DTD SVG 1.1//EN"
 "http://www.w3.org/Graphics/SVG/1.1/DTD/svg11.dtd">
<!-- Generated by graphviz version 12.1.0 (20240811.2233)
 -->
<!-- Title: PanelContainer Pages: 1 -->
<svg width="344pt" height="284pt"
 viewBox="0.00 0.00 343.50 284.00" xmlns="http://www.w3.org/2000/svg" xmlns:xlink="http://www.w3.org/1999/xlink">
<g id="graph0" class="graph" transform="scale(1 1) rotate(0) translate(4 280)">
<title>PanelContainer</title>
<!-- Node1 -->
<g id="Node000001" class="node">
<title>Node1</title>
<g id="a_Node000001"><a xlink:title=" ">
<polygon fill="#999999" stroke="none" points="206.5,-276 130.5,-276 130.5,-224 206.5,-224 206.5,-276"/>
<text text-anchor="start" x="135.12" y="-262.5" font-family="Helvetica,sans-Serif" font-size="10.00">PanelContainer</text>
<text text-anchor="start" x="167" y="-246.5" font-family="Helvetica,sans-Serif" font-size="10.00"> </text>
<text text-anchor="start" x="167" y="-230.5" font-family="Helvetica,sans-Serif" font-size="10.00"> </text>
<polygon fill="#666666" stroke="#666666" points="130.5,-258 130.5,-258 206.5,-258 206.5,-258 130.5,-258"/>
<polygon fill="#666666" stroke="#666666" points="130.5,-242 130.5,-242 206.5,-242 206.5,-242 130.5,-242"/>
<polygon fill="none" stroke="#666666" points="130.5,-224 130.5,-276 206.5,-276 206.5,-224 130.5,-224"/>
</a>
</g>
</g>
<!-- Node2 -->
<g id="Node000002" class="node">
<title>Node2</title>
<g id="a_Node000002"><a xlink:href="../../d0/d7a/class_inventory_slot.html" target="_top" xlink:title=" ">
<polygon fill="white" stroke="none" points="161,-188 0,-188 0,0 161,0 161,-188"/>
<text text-anchor="start" x="51.62" y="-174.5" font-family="Helvetica,sans-Serif" font-size="10.00">InventorySlot</text>
<text text-anchor="start" x="79" y="-158.5" font-family="Helvetica,sans-Serif" font-size="10.00"> </text>
<text text-anchor="start" x="4" y="-142.5" font-family="Helvetica,sans-Serif" font-size="10.00">+</text>
<text text-anchor="start" x="14" y="-142.5" font-family="Helvetica,sans-Serif" font-size="10.00">delegate void EquipAugment</text>
<text text-anchor="start" x="14" y="-130.5" font-family="Helvetica,sans-Serif" font-size="10.00">InSlotEventHandler(Augment</text>
<text text-anchor="start" x="14" y="-118.5" font-family="Helvetica,sans-Serif" font-size="10.00"> augment, int slotIndex)</text>
<text text-anchor="start" x="4" y="-102.5" font-family="Helvetica,sans-Serif" font-size="10.00">+</text>
<text text-anchor="start" x="14" y="-102.5" font-family="Helvetica,sans-Serif" font-size="10.00">void Init(Vector2 minSize,</text>
<text text-anchor="start" x="14" y="-90.5" font-family="Helvetica,sans-Serif" font-size="10.00"> int activeSlot)</text>
<text text-anchor="start" x="4" y="-74.5" font-family="Helvetica,sans-Serif" font-size="10.00">+</text>
<text text-anchor="start" x="14" y="-74.5" font-family="Helvetica,sans-Serif" font-size="10.00">override bool _CanDropData</text>
<text text-anchor="start" x="14" y="-62.5" font-family="Helvetica,sans-Serif" font-size="10.00">(Vector2 atPosition, Variant data)</text>
<text text-anchor="start" x="4" y="-46.5" font-family="Helvetica,sans-Serif" font-size="10.00">+</text>
<text text-anchor="start" x="14" y="-46.5" font-family="Helvetica,sans-Serif" font-size="10.00">override void _DropData</text>
<text text-anchor="start" x="14" y="-34.5" font-family="Helvetica,sans-Serif" font-size="10.00">(Vector2 atPosition, Variant data)</text>
<text text-anchor="start" x="4" y="-18.5" font-family="Helvetica,sans-Serif" font-size="10.00">+</text>
<text text-anchor="start" x="14" y="-18.5" font-family="Helvetica,sans-Serif" font-size="10.00">void EquipAugment(Inventory</text>
<text text-anchor="start" x="14" y="-6.5" font-family="Helvetica,sans-Serif" font-size="10.00">Item augmentItem)</text>
<polygon fill="#666666" stroke="#666666" points="0,-170 0,-170 161,-170 161,-170 0,-170"/>
<polygon fill="#666666" stroke="#666666" points="0,-154 0,-154 161,-154 161,-154 0,-154"/>
<polygon fill="none" stroke="#666666" points="0,0 0,-188 161,-188 161,0 0,0"/>
</a>
</g>
</g>
<!-- Node1&#45;&gt;Node2 -->
<g id="edge1_Node000001_Node000002" class="edge">
<title>Node1&#45;&gt;Node2</title>
<g id="a_edge1_Node000001_Node000002"><a xlink:title=" ">
<path fill="none" stroke="#63b8ff" d="M148.75,-214.43C144.07,-206.24 138.86,-197.13 133.46,-187.68"/>
<polygon fill="none" stroke="#63b8ff" points="145.61,-216 153.61,-222.94 151.69,-212.52 145.61,-216"/>
</a>
</g>
</g>
<!-- Node3 -->
<g id="Node000003" class="node">
<title>Node3</title>
<g id="a_Node000003"><a xlink:href="../../d5/de4/class_u_i_spell_slot.html" target="_top" xlink:title="Class for the Spell Box that shows the currently active spell.">
<polygon fill="white" stroke="none" points="335.5,-178 179.5,-178 179.5,-10 335.5,-10 335.5,-178"/>
<text text-anchor="start" x="232.75" y="-164.5" font-family="Helvetica,sans-Serif" font-size="10.00">UISpellSlot</text>
<text text-anchor="start" x="183.5" y="-148.5" font-family="Helvetica,sans-Serif" font-size="10.00">+</text>
<text text-anchor="start" x="193.5" y="-148.5" font-family="Helvetica,sans-Serif" font-size="10.00">Texture2D StartingTexture</text>
<text text-anchor="start" x="183.5" y="-132.5" font-family="Helvetica,sans-Serif" font-size="10.00">+</text>
<text text-anchor="start" x="193.5" y="-132.5" font-family="Helvetica,sans-Serif" font-size="10.00">override void _Ready()</text>
<text text-anchor="start" x="183.5" y="-116.5" font-family="Helvetica,sans-Serif" font-size="10.00">+</text>
<text text-anchor="start" x="193.5" y="-116.5" font-family="Helvetica,sans-Serif" font-size="10.00">void SetSpell(Texture2D</text>
<text text-anchor="start" x="193.5" y="-104.5" font-family="Helvetica,sans-Serif" font-size="10.00"> icon)</text>
<text text-anchor="start" x="183.5" y="-88.5" font-family="Helvetica,sans-Serif" font-size="10.00">+</text>
<text text-anchor="start" x="193.5" y="-88.5" font-family="Helvetica,sans-Serif" font-size="10.00">override void _PhysicsProcess</text>
<text text-anchor="start" x="193.5" y="-76.5" font-family="Helvetica,sans-Serif" font-size="10.00">(double delta)</text>
<text text-anchor="start" x="183.5" y="-60.5" font-family="Helvetica,sans-Serif" font-size="10.00">+</text>
<text text-anchor="start" x="193.5" y="-60.5" font-family="Helvetica,sans-Serif" font-size="10.00">void Cast(double cooldown)</text>
<text text-anchor="start" x="183.5" y="-44.5" font-family="Helvetica,sans-Serif" font-size="10.00">+</text>
<text text-anchor="start" x="193.5" y="-44.5" font-family="Helvetica,sans-Serif" font-size="10.00">bool IsOnCooldown()</text>
<text text-anchor="start" x="183.5" y="-28.5" font-family="Helvetica,sans-Serif" font-size="10.00">+</text>
<text text-anchor="start" x="193.5" y="-28.5" font-family="Helvetica,sans-Serif" font-size="10.00">static string ConvertTime</text>
<text text-anchor="start" x="193.5" y="-16.5" font-family="Helvetica,sans-Serif" font-size="10.00">ToStringInSeconds(double time)</text>
<polygon fill="#666666" stroke="#666666" points="179.5,-160 179.5,-160 335.5,-160 335.5,-160 179.5,-160"/>
<polygon fill="#666666" stroke="#666666" points="179.5,-144 179.5,-144 191.5,-144 191.5,-144 179.5,-144"/>
<polygon fill="#666666" stroke="#666666" points="191.5,-144 191.5,-144 335.5,-144 335.5,-144 191.5,-144"/>
<polygon fill="none" stroke="#666666" points="179.5,-10 179.5,-178 335.5,-178 335.5,-10 179.5,-10"/>
</a>
</g>
</g>
<!-- Node1&#45;&gt;Node3 -->
<g id="edge2_Node000001_Node000003" class="edge">
<title>Node1&#45;&gt;Node3</title>
<g id="a_edge2_Node000001_Node000003"><a xlink:title=" ">
<path fill="none" stroke="#63b8ff" d="M188.38,-214.6C194.79,-203.51 202.19,-190.7 209.72,-177.68"/>
<polygon fill="none" stroke="#63b8ff" points="185.53,-212.54 183.56,-222.95 191.59,-216.04 185.53,-212.54"/>
</a>
</g>
</g>
</g>
</svg>
