<?xml version="1.0" encoding="UTF-8" standalone="no"?>
<!DOCTYPE svg PUBLIC "-//W3C//DTD SVG 1.1//EN"
 "http://www.w3.org/Graphics/SVG/1.1/DTD/svg11.dtd">
<!-- Generated by graphviz version 12.1.0 (20240811.2233)
 -->
<!-- Title: UnicornShootingAttack Pages: 1 -->
<svg width="308pt" height="452pt"
 viewBox="0.00 0.00 308.14 452.00" xmlns="http://www.w3.org/2000/svg" xmlns:xlink="http://www.w3.org/1999/xlink">
<g id="graph0" class="graph" transform="scale(1 1) rotate(0) translate(4 448)">
<title>UnicornShootingAttack</title>
<!-- Node1 -->
<g id="Node000001" class="node">
<title>Node1</title>
<g id="a_Node000001"><a xlink:title=" ">
<polygon fill="#999999" stroke="none" points="209.5,-112 47.5,-112 47.5,0 209.5,0 209.5,-112"/>
<text text-anchor="start" x="78.25" y="-98.5" font-family="Helvetica,sans-Serif" font-size="10.00">UnicornShootingAttack</text>
<text text-anchor="start" x="127" y="-82.5" font-family="Helvetica,sans-Serif" font-size="10.00"> </text>
<text text-anchor="start" x="51.5" y="-66.5" font-family="Helvetica,sans-Serif" font-size="10.00">+</text>
<text text-anchor="start" x="61.5" y="-66.5" font-family="Helvetica,sans-Serif" font-size="10.00">override void _Ready()</text>
<text text-anchor="start" x="51.5" y="-50.5" font-family="Helvetica,sans-Serif" font-size="10.00">+</text>
<text text-anchor="start" x="61.5" y="-50.5" font-family="Helvetica,sans-Serif" font-size="10.00">override void Enter()</text>
<text text-anchor="start" x="51.5" y="-34.5" font-family="Helvetica,sans-Serif" font-size="10.00">+</text>
<text text-anchor="start" x="61.5" y="-34.5" font-family="Helvetica,sans-Serif" font-size="10.00">override State ProcessPhysics</text>
<text text-anchor="start" x="61.5" y="-22.5" font-family="Helvetica,sans-Serif" font-size="10.00">(double delta)</text>
<text text-anchor="start" x="51.5" y="-6.5" font-family="Helvetica,sans-Serif" font-size="10.00">+</text>
<text text-anchor="start" x="61.5" y="-6.5" font-family="Helvetica,sans-Serif" font-size="10.00">override void UpdateAnimations()</text>
<polygon fill="#666666" stroke="#666666" points="47.5,-94 47.5,-94 209.5,-94 209.5,-94 47.5,-94"/>
<polygon fill="#666666" stroke="#666666" points="47.5,-78 47.5,-78 209.5,-78 209.5,-78 47.5,-78"/>
<polygon fill="none" stroke="#666666" points="47.5,0 47.5,-112 209.5,-112 209.5,0 47.5,0"/>
</a>
</g>
</g>
<!-- Node2 -->
<g id="Node000002" class="node">
<title>Node2</title>
<g id="a_Node000002"><a xlink:href="../../d0/d8b/class_state.html" target="_top" xlink:title=" ">
<polygon fill="white" stroke="none" points="172.5,-344 18.5,-344 18.5,-160 172.5,-160 172.5,-344"/>
<text text-anchor="start" x="83.88" y="-330.5" font-family="Helvetica,sans-Serif" font-size="10.00">State</text>
<text text-anchor="start" x="94" y="-314.5" font-family="Helvetica,sans-Serif" font-size="10.00"> </text>
<text text-anchor="start" x="22.5" y="-298.5" font-family="Helvetica,sans-Serif" font-size="10.00">+</text>
<text text-anchor="start" x="32.5" y="-298.5" font-family="Helvetica,sans-Serif" font-size="10.00">virtual bool CanEnter()</text>
<text text-anchor="start" x="22.5" y="-282.5" font-family="Helvetica,sans-Serif" font-size="10.00">+</text>
<text text-anchor="start" x="32.5" y="-282.5" font-family="Helvetica,sans-Serif" font-size="10.00">virtual void Enter()</text>
<text text-anchor="start" x="22.5" y="-266.5" font-family="Helvetica,sans-Serif" font-size="10.00">+</text>
<text text-anchor="start" x="32.5" y="-266.5" font-family="Helvetica,sans-Serif" font-size="10.00">virtual void Exit()</text>
<text text-anchor="start" x="22.5" y="-250.5" font-family="Helvetica,sans-Serif" font-size="10.00">+</text>
<text text-anchor="start" x="32.5" y="-250.5" font-family="Helvetica,sans-Serif" font-size="10.00">virtual State ProcessInput</text>
<text text-anchor="start" x="32.5" y="-238.5" font-family="Helvetica,sans-Serif" font-size="10.00">(InputEvent @event)</text>
<text text-anchor="start" x="22.5" y="-222.5" font-family="Helvetica,sans-Serif" font-size="10.00">+</text>
<text text-anchor="start" x="32.5" y="-222.5" font-family="Helvetica,sans-Serif" font-size="10.00">virtual State ProcessFrame</text>
<text text-anchor="start" x="32.5" y="-210.5" font-family="Helvetica,sans-Serif" font-size="10.00">(double delta)</text>
<text text-anchor="start" x="22.5" y="-194.5" font-family="Helvetica,sans-Serif" font-size="10.00">+</text>
<text text-anchor="start" x="32.5" y="-194.5" font-family="Helvetica,sans-Serif" font-size="10.00">virtual State ProcessPhysics</text>
<text text-anchor="start" x="32.5" y="-182.5" font-family="Helvetica,sans-Serif" font-size="10.00">(double delta)</text>
<text text-anchor="start" x="22.5" y="-166.5" font-family="Helvetica,sans-Serif" font-size="10.00">+</text>
<text text-anchor="start" x="32.5" y="-166.5" font-family="Helvetica,sans-Serif" font-size="10.00">virtual void UpdateAnimations()</text>
<polygon fill="#666666" stroke="#666666" points="18.5,-326 18.5,-326 172.5,-326 172.5,-326 18.5,-326"/>
<polygon fill="#666666" stroke="#666666" points="18.5,-310 18.5,-310 172.5,-310 172.5,-310 18.5,-310"/>
<polygon fill="none" stroke="#666666" points="18.5,-160 18.5,-344 172.5,-344 172.5,-160 18.5,-160"/>
</a>
</g>
</g>
<!-- Node2&#45;&gt;Node1 -->
<g id="edge1_Node000001_Node000002" class="edge">
<title>Node2&#45;&gt;Node1</title>
<g id="a_edge1_Node000001_Node000002"><a xlink:title=" ">
<path fill="none" stroke="#63b8ff" d="M106.23,-149.25C107.24,-142.72 108.33,-136.26 109.5,-130 110.61,-124.08 111.93,-117.93 113.36,-111.82"/>
<polygon fill="none" stroke="#63b8ff" points="102.82,-148.37 104.82,-158.78 109.75,-149.39 102.82,-148.37"/>
</a>
</g>
</g>
<!-- Node2&#45;&gt;Node1 -->
<g id="edge5_Node000001_Node000002" class="edge">
<title>Node2&#45;&gt;Node1</title>
<g id="a_edge5_Node000001_Node000002"><a xlink:title=" ">
<path fill="none" stroke="#63b8ff" d="M110.94,-160.25C112.98,-148.21 115.05,-136.05 117.02,-124.5"/>
<polygon fill="none" stroke="#63b8ff" points="117.02,-124.48 114.08,-117.89 119.03,-112.65 121.97,-119.23 117.02,-124.48"/>
</a>
</g>
<text text-anchor="middle" x="130.18" y="-132.5" font-family="Helvetica,sans-Serif" font-size="10.00" fill="grey"> +Wait</text>
</g>
<!-- Node3 -->
<g id="Node000003" class="node">
<title>Node3</title>
<g id="a_Node000003"><a xlink:href="../../dc/d8f/class_node.html" target="_top" xlink:title=" ">
<polygon fill="white" stroke="none" points="33,-444 0,-444 0,-392 33,-392 33,-444"/>
<text text-anchor="start" x="4.88" y="-430.5" font-family="Helvetica,sans-Serif" font-size="10.00">Node</text>
<text text-anchor="start" x="15" y="-414.5" font-family="Helvetica,sans-Serif" font-size="10.00"> </text>
<text text-anchor="start" x="15" y="-398.5" font-family="Helvetica,sans-Serif" font-size="10.00"> </text>
<polygon fill="#666666" stroke="#666666" points="0,-426 0,-426 33,-426 33,-426 0,-426"/>
<polygon fill="#666666" stroke="#666666" points="0,-410 0,-410 33,-410 33,-410 0,-410"/>
<polygon fill="none" stroke="#666666" points="0,-392 0,-444 33,-444 33,-392 0,-392"/>
</a>
</g>
</g>
<!-- Node3&#45;&gt;Node2 -->
<g id="edge2_Node000002_Node000003" class="edge">
<title>Node3&#45;&gt;Node2</title>
<g id="a_edge2_Node000002_Node000003"><a xlink:title=" ">
<path fill="none" stroke="#63b8ff" d="M33.45,-381.81C38.92,-370.46 45.25,-357.31 51.74,-343.84"/>
<polygon fill="none" stroke="#63b8ff" points="30.34,-380.2 29.16,-390.73 36.65,-383.24 30.34,-380.2"/>
</a>
</g>
</g>
<!-- Node4 -->
<g id="Node000004" class="node">
<title>Node4</title>
<g id="a_Node000004"><a xlink:title=" ">
<polygon fill="white" stroke="none" points="139.5,-444 51.5,-444 51.5,-392 139.5,-392 139.5,-444"/>
<text text-anchor="start" x="56.5" y="-430.5" font-family="Helvetica,sans-Serif" font-size="10.00">CharacterBody2D</text>
<text text-anchor="start" x="94" y="-414.5" font-family="Helvetica,sans-Serif" font-size="10.00"> </text>
<text text-anchor="start" x="94" y="-398.5" font-family="Helvetica,sans-Serif" font-size="10.00"> </text>
<polygon fill="#666666" stroke="#666666" points="51.5,-426 51.5,-426 139.5,-426 139.5,-426 51.5,-426"/>
<polygon fill="#666666" stroke="#666666" points="51.5,-410 51.5,-410 139.5,-410 139.5,-410 51.5,-410"/>
<polygon fill="none" stroke="#666666" points="51.5,-392 51.5,-444 139.5,-444 139.5,-392 51.5,-392"/>
</a>
</g>
</g>
<!-- Node4&#45;&gt;Node2 -->
<g id="edge3_Node000002_Node000004" class="edge">
<title>Node4&#45;&gt;Node2</title>
<g id="a_edge3_Node000002_Node000004"><a xlink:title=" ">
<path fill="none" stroke="#63b8ff" d="M95.5,-392.09C95.5,-382.04 95.5,-369.72 95.5,-356.61"/>
<polygon fill="none" stroke="#63b8ff" points="95.5,-356.74 91.5,-350.74 95.5,-344.74 99.5,-350.74 95.5,-356.74"/>
</a>
</g>
<text text-anchor="middle" x="114.25" y="-364.5" font-family="Helvetica,sans-Serif" font-size="10.00" fill="grey"> +Parent</text>
</g>
<!-- Node5 -->
<g id="Node000005" class="node">
<title>Node5</title>
<g id="a_Node000005"><a xlink:title=" ">
<polygon fill="white" stroke="none" points="239,-444 158,-444 158,-392 239,-392 239,-444"/>
<text text-anchor="start" x="162.88" y="-430.5" font-family="Helvetica,sans-Serif" font-size="10.00">AnimationPlayer</text>
<text text-anchor="start" x="197" y="-414.5" font-family="Helvetica,sans-Serif" font-size="10.00"> </text>
<text text-anchor="start" x="197" y="-398.5" font-family="Helvetica,sans-Serif" font-size="10.00"> </text>
<polygon fill="#666666" stroke="#666666" points="158,-426 158,-426 239,-426 239,-426 158,-426"/>
<polygon fill="#666666" stroke="#666666" points="158,-410 158,-410 239,-410 239,-410 158,-410"/>
<polygon fill="none" stroke="#666666" points="158,-392 158,-444 239,-444 239,-392 158,-392"/>
</a>
</g>
</g>
<!-- Node5&#45;&gt;Node2 -->
<g id="edge4_Node000002_Node000005" class="edge">
<title>Node5&#45;&gt;Node2</title>
<g id="a_edge4_Node000002_Node000005"><a xlink:title=" ">
<path fill="none" stroke="#63b8ff" d="M182.86,-392.09C176.22,-381.52 168,-368.44 159.29,-354.57"/>
<polygon fill="none" stroke="#63b8ff" points="159.41,-354.76 152.83,-351.81 153.03,-344.6 159.61,-347.55 159.41,-354.76"/>
</a>
</g>
<text text-anchor="middle" x="199.75" y="-364.5" font-family="Helvetica,sans-Serif" font-size="10.00" fill="grey"> +Animations</text>
</g>
<!-- Node6 -->
<g id="Node000006" class="node">
<title>Node6</title>
<g id="a_Node000006"><a xlink:title=" ">
<polygon fill="white" stroke="none" points="228.5,-278 190.5,-278 190.5,-226 228.5,-226 228.5,-278"/>
<text text-anchor="start" x="195.25" y="-264.5" font-family="Helvetica,sans-Serif" font-size="10.00">double</text>
<text text-anchor="start" x="208" y="-248.5" font-family="Helvetica,sans-Serif" font-size="10.00"> </text>
<text text-anchor="start" x="208" y="-232.5" font-family="Helvetica,sans-Serif" font-size="10.00"> </text>
<polygon fill="#666666" stroke="#666666" points="190.5,-260 190.5,-260 228.5,-260 228.5,-260 190.5,-260"/>
<polygon fill="#666666" stroke="#666666" points="190.5,-244 190.5,-244 228.5,-244 228.5,-244 190.5,-244"/>
<polygon fill="none" stroke="#666666" points="190.5,-226 190.5,-278 228.5,-278 228.5,-226 190.5,-226"/>
</a>
</g>
</g>
<!-- Node6&#45;&gt;Node1 -->
<g id="edge6_Node000001_Node000006" class="edge">
<title>Node6&#45;&gt;Node1</title>
<g id="a_edge6_Node000001_Node000006"><a xlink:title=" ">
<path fill="none" stroke="#63b8ff" d="M203.16,-226.26C198.11,-207.72 190.42,-181.89 181.5,-160 176.56,-147.86 170.69,-135.23 164.7,-123.14"/>
<polygon fill="none" stroke="#63b8ff" points="164.76,-123.26 158.49,-119.71 159.35,-112.55 165.63,-116.1 164.76,-123.26"/>
</a>
</g>
<text text-anchor="middle" x="236.39" y="-132.5" font-family="Helvetica,sans-Serif" font-size="10.00" fill="grey"> +ShootingAnimationDuration</text>
</g>
</g>
</svg>
