<?xml version="1.0" encoding="UTF-8" standalone="no"?>
<!DOCTYPE svg PUBLIC "-//W3C//DTD SVG 1.1//EN"
 "http://www.w3.org/Graphics/SVG/1.1/DTD/svg11.dtd">
<!-- Generated by graphviz version 12.1.0 (20240811.2233)
 -->
<!-- Title: InventoryStarRain Pages: 1 -->
<svg width="481pt" height="994pt"
 viewBox="0.00 0.00 481.00 994.00" xmlns="http://www.w3.org/2000/svg" xmlns:xlink="http://www.w3.org/1999/xlink">
<g id="graph0" class="graph" transform="scale(1 1) rotate(0) translate(4 990)">
<title>InventoryStarRain</title>
<!-- Node1 -->
<g id="Node000001" class="node">
<title>Node1</title>
<g id="a_Node000001"><a xlink:title=" ">
<polygon fill="#999999" stroke="none" points="153,-120 0,-120 0,0 153,0 153,-120"/>
<text text-anchor="start" x="37.12" y="-106.5" font-family="Helvetica,sans-Serif" font-size="10.00">InventoryStarRain</text>
<text text-anchor="start" x="75" y="-90.5" font-family="Helvetica,sans-Serif" font-size="10.00"> </text>
<text text-anchor="start" x="4" y="-74.5" font-family="Helvetica,sans-Serif" font-size="10.00">+</text>
<text text-anchor="start" x="14" y="-74.5" font-family="Helvetica,sans-Serif" font-size="10.00">override void _Ready()</text>
<text text-anchor="start" x="4" y="-58.5" font-family="Helvetica,sans-Serif" font-size="10.00">+</text>
<text text-anchor="start" x="14" y="-58.5" font-family="Helvetica,sans-Serif" font-size="10.00">override void Cast</text>
<text text-anchor="start" x="14" y="-46.5" font-family="Helvetica,sans-Serif" font-size="10.00">(Vector2 playerPosition,</text>
<text text-anchor="start" x="14" y="-34.5" font-family="Helvetica,sans-Serif" font-size="10.00"> Vector2 targetPosition)</text>
<text text-anchor="start" x="4" y="-18.5" font-family="Helvetica,sans-Serif" font-size="10.00">+</text>
<text text-anchor="start" x="14" y="-18.5" font-family="Helvetica,sans-Serif" font-size="10.00">override void _PhysicsProcess</text>
<text text-anchor="start" x="14" y="-6.5" font-family="Helvetica,sans-Serif" font-size="10.00">(double delta)</text>
<polygon fill="#666666" stroke="#666666" points="0,-102 0,-102 153,-102 153,-102 0,-102"/>
<polygon fill="#666666" stroke="#666666" points="0,-86 0,-86 153,-86 153,-86 0,-86"/>
<polygon fill="none" stroke="#666666" points="0,0 0,-120 153,-120 153,0 0,0"/>
</a>
</g>
</g>
<!-- Node2 -->
<g id="Node000002" class="node">
<title>Node2</title>
<g id="a_Node000002"><a xlink:href="../../d0/d1e/class_inventory_spell.html" target="_top" xlink:title=" ">
<polygon fill="white" stroke="none" points="332.5,-349 140.5,-349 140.5,-157 332.5,-157 332.5,-349"/>
<text text-anchor="start" x="205.38" y="-335.5" font-family="Helvetica,sans-Serif" font-size="10.00">InventorySpell</text>
<text text-anchor="start" x="235" y="-319.5" font-family="Helvetica,sans-Serif" font-size="10.00"> </text>
<text text-anchor="start" x="144.5" y="-303.5" font-family="Helvetica,sans-Serif" font-size="10.00">+</text>
<text text-anchor="start" x="154.5" y="-303.5" font-family="Helvetica,sans-Serif" font-size="10.00">override void _Ready()</text>
<text text-anchor="start" x="144.5" y="-287.5" font-family="Helvetica,sans-Serif" font-size="10.00">+</text>
<text text-anchor="start" x="154.5" y="-287.5" font-family="Helvetica,sans-Serif" font-size="10.00">virtual void Cast(Vector2</text>
<text text-anchor="start" x="154.5" y="-275.5" font-family="Helvetica,sans-Serif" font-size="10.00"> playerPosition, Vector2</text>
<text text-anchor="start" x="154.5" y="-263.5" font-family="Helvetica,sans-Serif" font-size="10.00"> targetPosition)</text>
<text text-anchor="start" x="144.5" y="-247.5" font-family="Helvetica,sans-Serif" font-size="10.00">+</text>
<text text-anchor="start" x="154.5" y="-247.5" font-family="Helvetica,sans-Serif" font-size="10.00">void ResetDamage()</text>
<text text-anchor="start" x="144.5" y="-231.5" font-family="Helvetica,sans-Serif" font-size="10.00">+</text>
<text text-anchor="start" x="154.5" y="-231.5" font-family="Helvetica,sans-Serif" font-size="10.00">void AddOnCastAugmentEffect</text>
<text text-anchor="start" x="154.5" y="-219.5" font-family="Helvetica,sans-Serif" font-size="10.00">(OnCastAugmentEffect onCastAugment</text>
<text text-anchor="start" x="154.5" y="-207.5" font-family="Helvetica,sans-Serif" font-size="10.00">Effect)</text>
<text text-anchor="start" x="144.5" y="-191.5" font-family="Helvetica,sans-Serif" font-size="10.00">+</text>
<text text-anchor="start" x="154.5" y="-191.5" font-family="Helvetica,sans-Serif" font-size="10.00">void ClearOnCastAugmentEffects()</text>
<text text-anchor="start" x="144.5" y="-175.5" font-family="Helvetica,sans-Serif" font-size="10.00">+</text>
<text text-anchor="start" x="154.5" y="-175.5" font-family="Helvetica,sans-Serif" font-size="10.00">List&lt; OnCastAugmentEffect</text>
<text text-anchor="start" x="154.5" y="-163.5" font-family="Helvetica,sans-Serif" font-size="10.00"> &gt; GetOnCastAugmentEffects()</text>
<polygon fill="#666666" stroke="#666666" points="140.5,-331 140.5,-331 332.5,-331 332.5,-331 140.5,-331"/>
<polygon fill="#666666" stroke="#666666" points="140.5,-315 140.5,-315 332.5,-315 332.5,-315 140.5,-315"/>
<polygon fill="none" stroke="#666666" points="140.5,-157 140.5,-349 332.5,-349 332.5,-157 140.5,-157"/>
</a>
</g>
</g>
<!-- Node2&#45;&gt;Node1 -->
<g id="edge1_Node000001_Node000002" class="edge">
<title>Node2&#45;&gt;Node1</title>
<g id="a_edge1_Node000001_Node000002"><a xlink:title=" ">
<path fill="none" stroke="#63b8ff" d="M149.78,-148.48C141.62,-138.73 133.55,-129.1 125.91,-119.99"/>
<polygon fill="none" stroke="#63b8ff" points="146.89,-150.48 156,-155.9 152.26,-145.99 146.89,-150.48"/>
</a>
</g>
</g>
<!-- Node3 -->
<g id="Node000003" class="node">
<title>Node3</title>
<g id="a_Node000003"><a xlink:href="../../dc/d8f/class_node.html" target="_top" xlink:title=" ">
<polygon fill="white" stroke="none" points="473,-591 440,-591 440,-539 473,-539 473,-591"/>
<text text-anchor="start" x="444.88" y="-577.5" font-family="Helvetica,sans-Serif" font-size="10.00">Node</text>
<text text-anchor="start" x="455" y="-561.5" font-family="Helvetica,sans-Serif" font-size="10.00"> </text>
<text text-anchor="start" x="455" y="-545.5" font-family="Helvetica,sans-Serif" font-size="10.00"> </text>
<polygon fill="#666666" stroke="#666666" points="440,-573 440,-573 473,-573 473,-573 440,-573"/>
<polygon fill="#666666" stroke="#666666" points="440,-557 440,-557 473,-557 473,-557 440,-557"/>
<polygon fill="none" stroke="#666666" points="440,-539 440,-591 473,-591 473,-539 440,-539"/>
</a>
</g>
</g>
<!-- Node3&#45;&gt;Node2 -->
<g id="edge2_Node000002_Node000003" class="edge">
<title>Node3&#45;&gt;Node2</title>
<g id="a_edge2_Node000002_Node000003"><a xlink:title=" ">
<path fill="none" stroke="#63b8ff" d="M462.89,-527.89C468.34,-485.74 470.98,-415.63 439.5,-367 414.68,-328.65 372.09,-302.12 332.31,-284.45"/>
<polygon fill="none" stroke="#63b8ff" points="459.43,-527.35 461.48,-537.75 466.36,-528.35 459.43,-527.35"/>
</a>
</g>
</g>
<!-- Node4 -->
<g id="Node000004" class="node">
<title>Node4</title>
<g id="a_Node000004"><a xlink:title=" ">
<polygon fill="white" stroke="none" points="43.5,-591 5.5,-591 5.5,-539 43.5,-539 43.5,-591"/>
<text text-anchor="start" x="10.25" y="-577.5" font-family="Helvetica,sans-Serif" font-size="10.00">double</text>
<text text-anchor="start" x="23" y="-561.5" font-family="Helvetica,sans-Serif" font-size="10.00"> </text>
<text text-anchor="start" x="23" y="-545.5" font-family="Helvetica,sans-Serif" font-size="10.00"> </text>
<polygon fill="#666666" stroke="#666666" points="5.5,-573 5.5,-573 43.5,-573 43.5,-573 5.5,-573"/>
<polygon fill="#666666" stroke="#666666" points="5.5,-557 5.5,-557 43.5,-557 43.5,-557 5.5,-557"/>
<polygon fill="none" stroke="#666666" points="5.5,-539 5.5,-591 43.5,-591 43.5,-539 5.5,-539"/>
</a>
</g>
</g>
<!-- Node4&#45;&gt;Node1 -->
<g id="edge10_Node000001_Node000004" class="edge">
<title>Node4&#45;&gt;Node1</title>
<g id="a_edge10_Node000001_Node000004"><a xlink:title=" ">
<path fill="none" stroke="#63b8ff" d="M20.41,-539.17C10.68,-474.82 -10.48,-297.81 25,-157 27.15,-148.46 30.22,-139.85 33.81,-131.48"/>
<polygon fill="none" stroke="#63b8ff" points="33.78,-131.55 32.66,-124.43 38.8,-120.66 39.92,-127.78 33.78,-131.55"/>
</a>
</g>
<text text-anchor="middle" x="78.25" y="-249.5" font-family="Helvetica,sans-Serif" font-size="10.00" fill="grey"> +AmountStarsToSpawn</text>
</g>
<!-- Node4&#45;&gt;Node2 -->
<g id="edge3_Node000002_Node000004" class="edge">
<title>Node4&#45;&gt;Node2</title>
<g id="a_edge3_Node000002_Node000004"><a xlink:title=" ">
<path fill="none" stroke="#63b8ff" d="M23.49,-539.02C23.22,-497.81 28.76,-415.36 73.25,-367 90.16,-348.61 104.81,-361.4 126.5,-349 127.53,-348.41 128.56,-347.81 129.59,-347.2"/>
<polygon fill="none" stroke="#63b8ff" points="129.62,-347.18 132.58,-340.6 139.79,-340.81 136.83,-347.38 129.62,-347.18"/>
</a>
</g>
<text text-anchor="middle" x="107.38" y="-405.5" font-family="Helvetica,sans-Serif" font-size="10.00" fill="grey"> +BaseDamage</text>
<text text-anchor="middle" x="107.38" y="-393.5" font-family="Helvetica,sans-Serif" font-size="10.00" fill="grey">+CastTime</text>
<text text-anchor="middle" x="107.38" y="-381.5" font-family="Helvetica,sans-Serif" font-size="10.00" fill="grey">+CoolDown</text>
<text text-anchor="middle" x="107.38" y="-369.5" font-family="Helvetica,sans-Serif" font-size="10.00" fill="grey">+Damage</text>
</g>
<!-- Node5 -->
<g id="Node000005" class="node">
<title>Node5</title>
<g id="a_Node000005"><a xlink:title=" ">
<polygon fill="white" stroke="none" points="127,-591 70,-591 70,-539 127,-539 127,-591"/>
<text text-anchor="start" x="74.88" y="-577.5" font-family="Helvetica,sans-Serif" font-size="10.00">MagicType</text>
<text text-anchor="start" x="97" y="-561.5" font-family="Helvetica,sans-Serif" font-size="10.00"> </text>
<text text-anchor="start" x="97" y="-545.5" font-family="Helvetica,sans-Serif" font-size="10.00"> </text>
<polygon fill="#666666" stroke="#666666" points="70,-573 70,-573 127,-573 127,-573 70,-573"/>
<polygon fill="#666666" stroke="#666666" points="70,-557 70,-557 127,-557 127,-557 70,-557"/>
<polygon fill="none" stroke="#666666" points="70,-539 70,-591 127,-591 127,-539 70,-539"/>
</a>
</g>
</g>
<!-- Node5&#45;&gt;Node2 -->
<g id="edge4_Node000002_Node000005" class="edge">
<title>Node5&#45;&gt;Node2</title>
<g id="a_edge4_Node000002_Node000005"><a xlink:title=" ">
<path fill="none" stroke="#63b8ff" d="M103.89,-539.29C110.14,-512.52 121.52,-468.83 136.5,-433 146.65,-408.73 159.27,-383.55 172.09,-360.01"/>
<polygon fill="none" stroke="#63b8ff" points="172.16,-359.9 171.55,-352.71 177.96,-349.39 178.56,-356.58 172.16,-359.9"/>
</a>
</g>
<text text-anchor="middle" x="196.4" y="-387.5" font-family="Helvetica,sans-Serif" font-size="10.00" fill="grey"> +MagicType</text>
</g>
<!-- Node6 -->
<g id="Node000006" class="node">
<title>Node6</title>
<g id="a_Node000006"><a xlink:href="../../d1/da7/class_health_component.html" target="_top" xlink:title=" ">
<polygon fill="white" stroke="none" points="327.5,-697 145.5,-697 145.5,-433 327.5,-433 327.5,-697"/>
<text text-anchor="start" x="197.12" y="-683.5" font-family="Helvetica,sans-Serif" font-size="10.00">HealthComponent</text>
<text text-anchor="start" x="235" y="-667.5" font-family="Helvetica,sans-Serif" font-size="10.00"> </text>
<text text-anchor="start" x="149.5" y="-651.5" font-family="Helvetica,sans-Serif" font-size="10.00">+</text>
<text text-anchor="start" x="159.5" y="-651.5" font-family="Helvetica,sans-Serif" font-size="10.00">delegate void DeathEvent</text>
<text text-anchor="start" x="159.5" y="-639.5" font-family="Helvetica,sans-Serif" font-size="10.00">Handler()</text>
<text text-anchor="start" x="149.5" y="-623.5" font-family="Helvetica,sans-Serif" font-size="10.00">+</text>
<text text-anchor="start" x="159.5" y="-623.5" font-family="Helvetica,sans-Serif" font-size="10.00">override void _Ready()</text>
<text text-anchor="start" x="149.5" y="-607.5" font-family="Helvetica,sans-Serif" font-size="10.00">+</text>
<text text-anchor="start" x="159.5" y="-607.5" font-family="Helvetica,sans-Serif" font-size="10.00">void TakeDamage(Attack</text>
<text text-anchor="start" x="159.5" y="-595.5" font-family="Helvetica,sans-Serif" font-size="10.00"> attack)</text>
<text text-anchor="start" x="149.5" y="-579.5" font-family="Helvetica,sans-Serif" font-size="10.00">+</text>
<text text-anchor="start" x="159.5" y="-579.5" font-family="Helvetica,sans-Serif" font-size="10.00">void SetMaxHP(double</text>
<text text-anchor="start" x="159.5" y="-567.5" font-family="Helvetica,sans-Serif" font-size="10.00"> newMaxHP)</text>
<text text-anchor="start" x="149.5" y="-551.5" font-family="Helvetica,sans-Serif" font-size="10.00">+</text>
<text text-anchor="start" x="159.5" y="-551.5" font-family="Helvetica,sans-Serif" font-size="10.00">double GetMaxHP()</text>
<text text-anchor="start" x="149.5" y="-535.5" font-family="Helvetica,sans-Serif" font-size="10.00">+</text>
<text text-anchor="start" x="159.5" y="-535.5" font-family="Helvetica,sans-Serif" font-size="10.00">void SetArmor(double</text>
<text text-anchor="start" x="159.5" y="-523.5" font-family="Helvetica,sans-Serif" font-size="10.00"> armorSun, double armorCosmic,</text>
<text text-anchor="start" x="159.5" y="-511.5" font-family="Helvetica,sans-Serif" font-size="10.00"> double armorDark)</text>
<text text-anchor="start" x="149.5" y="-495.5" font-family="Helvetica,sans-Serif" font-size="10.00">+</text>
<text text-anchor="start" x="159.5" y="-495.5" font-family="Helvetica,sans-Serif" font-size="10.00">double GetCurrentHP()</text>
<text text-anchor="start" x="149.5" y="-479.5" font-family="Helvetica,sans-Serif" font-size="10.00">+</text>
<text text-anchor="start" x="159.5" y="-479.5" font-family="Helvetica,sans-Serif" font-size="10.00">double GetArmorOfType</text>
<text text-anchor="start" x="159.5" y="-467.5" font-family="Helvetica,sans-Serif" font-size="10.00">(MagicType type)</text>
<text text-anchor="start" x="149.5" y="-451.5" font-family="Helvetica,sans-Serif" font-size="10.00">+</text>
<text text-anchor="start" x="159.5" y="-451.5" font-family="Helvetica,sans-Serif" font-size="10.00">void ModifyArmor(MagicType</text>
<text text-anchor="start" x="159.5" y="-439.5" font-family="Helvetica,sans-Serif" font-size="10.00"> magicType, double flatArmorChange)</text>
<polygon fill="#666666" stroke="#666666" points="145.5,-679 145.5,-679 327.5,-679 327.5,-679 145.5,-679"/>
<polygon fill="#666666" stroke="#666666" points="145.5,-663 145.5,-663 327.5,-663 327.5,-663 145.5,-663"/>
<polygon fill="none" stroke="#666666" points="145.5,-433 145.5,-697 327.5,-697 327.5,-433 145.5,-433"/>
</a>
</g>
</g>
<!-- Node6&#45;&gt;Node2 -->
<g id="edge5_Node000002_Node000006" class="edge">
<title>Node6&#45;&gt;Node2</title>
<g id="a_edge5_Node000002_Node000006"><a xlink:title=" ">
<path fill="none" stroke="#63b8ff" d="M236.5,-433.43C236.5,-409.42 236.5,-384.6 236.5,-361.37"/>
<polygon fill="none" stroke="#63b8ff" points="236.5,-361.54 232.5,-355.54 236.5,-349.54 240.5,-355.54 236.5,-361.54"/>
</a>
</g>
<text text-anchor="middle" x="295.75" y="-387.5" font-family="Helvetica,sans-Serif" font-size="10.00" fill="grey"> #_playerHealthComponent</text>
</g>
<!-- Node7 -->
<g id="Node000007" class="node">
<title>Node7</title>
<g id="a_Node000007"><a xlink:href="../../dc/df8/class_area2_d.html" target="_top" xlink:title=" ">
<polygon fill="white" stroke="none" points="225,-847 182,-847 182,-795 225,-795 225,-847"/>
<text text-anchor="start" x="187" y="-833.5" font-family="Helvetica,sans-Serif" font-size="10.00">Area2D</text>
<text text-anchor="start" x="202" y="-817.5" font-family="Helvetica,sans-Serif" font-size="10.00"> </text>
<text text-anchor="start" x="202" y="-801.5" font-family="Helvetica,sans-Serif" font-size="10.00"> </text>
<polygon fill="#666666" stroke="#666666" points="182,-829 182,-829 225,-829 225,-829 182,-829"/>
<polygon fill="#666666" stroke="#666666" points="182,-813 182,-813 225,-813 225,-813 182,-813"/>
<polygon fill="none" stroke="#666666" points="182,-795 182,-847 225,-847 225,-795 182,-795"/>
</a>
</g>
</g>
<!-- Node7&#45;&gt;Node6 -->
<g id="edge6_Node000006_Node000007" class="edge">
<title>Node7&#45;&gt;Node6</title>
<g id="a_edge6_Node000006_Node000007"><a xlink:title=" ">
<path fill="none" stroke="#63b8ff" d="M208.19,-783.87C211.21,-760.68 215.32,-729 219.48,-696.98"/>
<polygon fill="none" stroke="#63b8ff" points="204.74,-783.31 206.92,-793.68 211.68,-784.22 204.74,-783.31"/>
</a>
</g>
</g>
<!-- Node8 -->
<g id="Node000008" class="node">
<title>Node8</title>
<g id="a_Node000008"><a xlink:href="../../d7/dca/class_healthbar.html" target="_top" xlink:title=" ">
<polygon fill="white" stroke="none" points="360,-897 243,-897 243,-745 360,-745 360,-897"/>
<text text-anchor="start" x="280.5" y="-883.5" font-family="Helvetica,sans-Serif" font-size="10.00">Healthbar</text>
<text text-anchor="start" x="300" y="-867.5" font-family="Helvetica,sans-Serif" font-size="10.00"> </text>
<text text-anchor="start" x="247" y="-851.5" font-family="Helvetica,sans-Serif" font-size="10.00">+</text>
<text text-anchor="start" x="257" y="-851.5" font-family="Helvetica,sans-Serif" font-size="10.00">override void _Ready()</text>
<text text-anchor="start" x="247" y="-835.5" font-family="Helvetica,sans-Serif" font-size="10.00">+</text>
<text text-anchor="start" x="257" y="-835.5" font-family="Helvetica,sans-Serif" font-size="10.00">override void _Process</text>
<text text-anchor="start" x="257" y="-823.5" font-family="Helvetica,sans-Serif" font-size="10.00">(double delta)</text>
<text text-anchor="start" x="247" y="-807.5" font-family="Helvetica,sans-Serif" font-size="10.00">+</text>
<text text-anchor="start" x="257" y="-807.5" font-family="Helvetica,sans-Serif" font-size="10.00">void InitHealthbar</text>
<text text-anchor="start" x="257" y="-795.5" font-family="Helvetica,sans-Serif" font-size="10.00">(double health)</text>
<text text-anchor="start" x="247" y="-779.5" font-family="Helvetica,sans-Serif" font-size="10.00">+</text>
<text text-anchor="start" x="257" y="-779.5" font-family="Helvetica,sans-Serif" font-size="10.00">void SetHealthPoints</text>
<text text-anchor="start" x="257" y="-767.5" font-family="Helvetica,sans-Serif" font-size="10.00">(double newHealth)</text>
<text text-anchor="start" x="247" y="-751.5" font-family="Helvetica,sans-Serif" font-size="10.00">+</text>
<text text-anchor="start" x="257" y="-751.5" font-family="Helvetica,sans-Serif" font-size="10.00">void OnTimerTimeout()</text>
<polygon fill="#666666" stroke="#666666" points="243,-879 243,-879 360,-879 360,-879 243,-879"/>
<polygon fill="#666666" stroke="#666666" points="243,-863 243,-863 360,-863 360,-863 243,-863"/>
<polygon fill="none" stroke="#666666" points="243,-745 243,-897 360,-897 360,-745 243,-745"/>
</a>
</g>
</g>
<!-- Node8&#45;&gt;Node6 -->
<g id="edge7_Node000006_Node000008" class="edge">
<title>Node8&#45;&gt;Node6</title>
<g id="a_edge7_Node000006_Node000008"><a xlink:title=" ">
<path fill="none" stroke="#63b8ff" d="M282.35,-745.17C279.43,-733.75 276.33,-721.66 273.19,-709.35"/>
<polygon fill="none" stroke="#63b8ff" points="273.22,-709.5 267.86,-704.68 270.25,-697.87 275.61,-702.69 273.22,-709.5"/>
</a>
</g>
<text text-anchor="middle" x="301.11" y="-717.5" font-family="Helvetica,sans-Serif" font-size="10.00" fill="grey"> +healthbar</text>
</g>
<!-- Node9 -->
<g id="Node000009" class="node">
<title>Node9</title>
<g id="a_Node000009"><a xlink:title=" ">
<polygon fill="white" stroke="none" points="349.5,-986 253.5,-986 253.5,-934 349.5,-934 349.5,-986"/>
<text text-anchor="start" x="258.38" y="-972.5" font-family="Helvetica,sans-Serif" font-size="10.00">TextureProgressBar</text>
<text text-anchor="start" x="300" y="-956.5" font-family="Helvetica,sans-Serif" font-size="10.00"> </text>
<text text-anchor="start" x="300" y="-940.5" font-family="Helvetica,sans-Serif" font-size="10.00"> </text>
<polygon fill="#666666" stroke="#666666" points="253.5,-968 253.5,-968 349.5,-968 349.5,-968 253.5,-968"/>
<polygon fill="#666666" stroke="#666666" points="253.5,-952 253.5,-952 349.5,-952 349.5,-952 253.5,-952"/>
<polygon fill="none" stroke="#666666" points="253.5,-934 253.5,-986 349.5,-986 349.5,-934 253.5,-934"/>
</a>
</g>
</g>
<!-- Node9&#45;&gt;Node8 -->
<g id="edge8_Node000008_Node000009" class="edge">
<title>Node9&#45;&gt;Node8</title>
<g id="a_edge8_Node000008_Node000009"><a xlink:title=" ">
<path fill="none" stroke="#63b8ff" d="M301.5,-922.92C301.5,-914.8 301.5,-905.88 301.5,-896.81"/>
<polygon fill="none" stroke="#63b8ff" points="298,-922.68 301.5,-932.68 305,-922.68 298,-922.68"/>
</a>
</g>
</g>
<!-- Node10 -->
<g id="Node000010" class="node">
<title>Node10</title>
<g id="a_Node000010"><a xlink:title=" ">
<polygon fill="white" stroke="none" points="415.5,-591 345.5,-591 345.5,-539 415.5,-539 415.5,-591"/>
<text text-anchor="start" x="350.12" y="-577.5" font-family="Helvetica,sans-Serif" font-size="10.00">PackedScene</text>
<text text-anchor="start" x="379" y="-561.5" font-family="Helvetica,sans-Serif" font-size="10.00"> </text>
<text text-anchor="start" x="379" y="-545.5" font-family="Helvetica,sans-Serif" font-size="10.00"> </text>
<polygon fill="#666666" stroke="#666666" points="345.5,-573 345.5,-573 415.5,-573 415.5,-573 345.5,-573"/>
<polygon fill="#666666" stroke="#666666" points="345.5,-557 345.5,-557 415.5,-557 415.5,-557 345.5,-557"/>
<polygon fill="none" stroke="#666666" points="345.5,-539 345.5,-591 415.5,-591 415.5,-539 345.5,-539"/>
</a>
</g>
</g>
<!-- Node10&#45;&gt;Node2 -->
<g id="edge9_Node000002_Node000010" class="edge">
<title>Node10&#45;&gt;Node2</title>
<g id="a_edge9_Node000002_Node000010"><a xlink:title=" ">
<path fill="none" stroke="#63b8ff" d="M382.87,-539.12C385.46,-500.16 386,-423.39 357.5,-367 352.8,-357.7 347,-348.77 340.52,-340.28"/>
<polygon fill="none" stroke="#63b8ff" points="340.43,-340.17 333.54,-338.04 332.86,-330.86 339.75,-332.99 340.43,-340.17"/>
</a>
</g>
<text text-anchor="middle" x="404.65" y="-387.5" font-family="Helvetica,sans-Serif" font-size="10.00" fill="grey"> #_spellScene</text>
</g>
</g>
</svg>
