<?xml version="1.0" encoding="UTF-8" standalone="no"?>
<!DOCTYPE svg PUBLIC "-//W3C//DTD SVG 1.1//EN"
 "http://www.w3.org/Graphics/SVG/1.1/DTD/svg11.dtd">
<!-- Generated by graphviz version 12.1.0 (20240811.2233)
 -->
<!-- Title: InventoryStarRain Pages: 1 -->
<!--zoomable 994 -->

<svg id="main" version="1.1" xmlns="http://www.w3.org/2000/svg" xmlns:xlink="http://www.w3.org/1999/xlink" xml:space="preserve" onload="init(evt)">
<style type="text/css"><![CDATA[
.node, .edge {opacity: 0.7;}
.node.selected, .edge.selected {opacity: 1;}
.edge:hover path { stroke: red; }
.edge:hover polygon { stroke: red; fill: red; }
]]></style>

<defs>
  <circle id="rim" cx="0" cy="0" r="7"/>
  <circle id="rim2" cx="0" cy="0" r="3.5"/>
  <g id="zoomPlus">
    <use xlink:href="#rim" fill="#404040"><set attributeName="fill" to="#808080" begin="zoomplus.mouseover" end="zoomplus.mouseout"/></use>
    <path d="M-4,0h8M0,-4v8" fill="none" stroke="white" stroke-width="1.5" pointer-events="none"/>
  </g>
  <g id="zoomMin">
    <use xlink:href="#rim" fill="#404040"><set attributeName="fill" to="#808080" begin="zoomminus.mouseover" end="zoomminus.mouseout"/></use>
    <path d="M-4,0h8" fill="none" stroke="white" stroke-width="1.5" pointer-events="none"/>
  </g>
  <g id="arrowUp" transform="translate(30 24)">
    <use xlink:href="#rim"/>
    <path pointer-events="none" fill="none" stroke="white" stroke-width="1.5" d="M0,-3.0v7 M-2.5,-0.5L0,-3.0L2.5,-0.5"/>
  </g>
  <g id="arrowRight" transform="rotate(90) translate(36 -43)">
    <use xlink:href="#rim"/>
    <path pointer-events="none" fill="none" stroke="white" stroke-width="1.5" d="M0,-3.0v7 M-2.5,-0.5L0,-3.0L2.5,-0.5"/>
  </g>
  <g id="arrowDown" transform="rotate(180) translate(-30 -48)">
    <use xlink:href="#rim"/>
    <path pointer-events="none" fill="none" stroke="white" stroke-width="1.5" d="M0,-3.0v7 M-2.5,-0.5L0,-3.0L2.5,-0.5"/>
  </g>
  <g id="arrowLeft" transform="rotate(270) translate(-36 17)">
    <use xlink:href="#rim"/>
    <path pointer-events="none" fill="none" stroke="white" stroke-width="1.5" d="M0,-3.0v7 M-2.5,-0.5L0,-3.0L2.5,-0.5"/>
  </g>
  <g id="resetDef">
    <use xlink:href="#rim2" fill="#404040"><set attributeName="fill" to="#808080" begin="reset.mouseover" end="reset.mouseout"/></use>
  </g>
</defs>
<script type="application/ecmascript">
var viewWidth = 594;
var viewHeight = 994;
var sectionId = 'dynsection-1';
</script>
<script type="application/ecmascript" xlink:href="../../svg.min.js"/>
<svg id="graph" class="graph">
<g id="viewport">
<title>InventoryStarRain</title>
<!-- Node1 -->
<g id="Node000001" class="node">
<title>Node1</title>
<g id="a_Node000001"><a xlink:title=" ">
<polygon fill="#999999" stroke="none" points="153,-120 0,-120 0,0 153,0 153,-120"/>
<text text-anchor="start" x="37.12" y="-106.5" font-family="Helvetica,sans-Serif" font-size="10.00">InventoryStarRain</text>
<text text-anchor="start" x="75" y="-90.5" font-family="Helvetica,sans-Serif" font-size="10.00"> </text>
<text text-anchor="start" x="4" y="-74.5" font-family="Helvetica,sans-Serif" font-size="10.00">+</text>
<text text-anchor="start" x="14" y="-74.5" font-family="Helvetica,sans-Serif" font-size="10.00">override void _Ready()</text>
<text text-anchor="start" x="4" y="-58.5" font-family="Helvetica,sans-Serif" font-size="10.00">+</text>
<text text-anchor="start" x="14" y="-58.5" font-family="Helvetica,sans-Serif" font-size="10.00">override void Cast</text>
<text text-anchor="start" x="14" y="-46.5" font-family="Helvetica,sans-Serif" font-size="10.00">(Vector2 playerPosition,</text>
<text text-anchor="start" x="14" y="-34.5" font-family="Helvetica,sans-Serif" font-size="10.00"> Vector2 targetPosition)</text>
<text text-anchor="start" x="4" y="-18.5" font-family="Helvetica,sans-Serif" font-size="10.00">+</text>
<text text-anchor="start" x="14" y="-18.5" font-family="Helvetica,sans-Serif" font-size="10.00">override void _PhysicsProcess</text>
<text text-anchor="start" x="14" y="-6.5" font-family="Helvetica,sans-Serif" font-size="10.00">(double delta)</text>
<polygon fill="#666666" stroke="#666666" points="0,-102 0,-102 153,-102 153,-102 0,-102"/>
<polygon fill="#666666" stroke="#666666" points="0,-86 0,-86 153,-86 153,-86 0,-86"/>
<polygon fill="none" stroke="#666666" points="0,0 0,-120 153,-120 153,0 0,0"/>
</a>
</g>
</g>
<!-- Node2 -->
<g id="Node000002" class="node">
<title>Node2</title>
<g id="a_Node000002"><a xlink:href="../../d0/d1e/class_inventory_spell.html" target="_top" xlink:title=" ">
<polygon fill="white" stroke="none" points="332.5,-349 140.5,-349 140.5,-157 332.5,-157 332.5,-349"/>
<text text-anchor="start" x="205.38" y="-335.5" font-family="Helvetica,sans-Serif" font-size="10.00">InventorySpell</text>
<text text-anchor="start" x="235" y="-319.5" font-family="Helvetica,sans-Serif" font-size="10.00"> </text>
<text text-anchor="start" x="144.5" y="-303.5" font-family="Helvetica,sans-Serif" font-size="10.00">+</text>
<text text-anchor="start" x="154.5" y="-303.5" font-family="Helvetica,sans-Serif" font-size="10.00">override void _Ready()</text>
<text text-anchor="start" x="144.5" y="-287.5" font-family="Helvetica,sans-Serif" font-size="10.00">+</text>
<text text-anchor="start" x="154.5" y="-287.5" font-family="Helvetica,sans-Serif" font-size="10.00">virtual void Cast(Vector2</text>
<text text-anchor="start" x="154.5" y="-275.5" font-family="Helvetica,sans-Serif" font-size="10.00"> playerPosition, Vector2</text>
<text text-anchor="start" x="154.5" y="-263.5" font-family="Helvetica,sans-Serif" font-size="10.00"> targetPosition)</text>
<text text-anchor="start" x="144.5" y="-247.5" font-family="Helvetica,sans-Serif" font-size="10.00">+</text>
<text text-anchor="start" x="154.5" y="-247.5" font-family="Helvetica,sans-Serif" font-size="10.00">void ResetDamage()</text>
<text text-anchor="start" x="144.5" y="-231.5" font-family="Helvetica,sans-Serif" font-size="10.00">+</text>
<text text-anchor="start" x="154.5" y="-231.5" font-family="Helvetica,sans-Serif" font-size="10.00">void AddOnCastAugmentEffect</text>
<text text-anchor="start" x="154.5" y="-219.5" font-family="Helvetica,sans-Serif" font-size="10.00">(OnCastAugmentEffect onCastAugment</text>
<text text-anchor="start" x="154.5" y="-207.5" font-family="Helvetica,sans-Serif" font-size="10.00">Effect)</text>
<text text-anchor="start" x="144.5" y="-191.5" font-family="Helvetica,sans-Serif" font-size="10.00">+</text>
<text text-anchor="start" x="154.5" y="-191.5" font-family="Helvetica,sans-Serif" font-size="10.00">void ClearOnCastAugmentEffects()</text>
<text text-anchor="start" x="144.5" y="-175.5" font-family="Helvetica,sans-Serif" font-size="10.00">+</text>
<text text-anchor="start" x="154.5" y="-175.5" font-family="Helvetica,sans-Serif" font-size="10.00">List&lt; OnCastAugmentEffect</text>
<text text-anchor="start" x="154.5" y="-163.5" font-family="Helvetica,sans-Serif" font-size="10.00"> &gt; GetOnCastAugmentEffects()</text>
<polygon fill="#666666" stroke="#666666" points="140.5,-331 140.5,-331 332.5,-331 332.5,-331 140.5,-331"/>
<polygon fill="#666666" stroke="#666666" points="140.5,-315 140.5,-315 332.5,-315 332.5,-315 140.5,-315"/>
<polygon fill="none" stroke="#666666" points="140.5,-157 140.5,-349 332.5,-349 332.5,-157 140.5,-157"/>
</a>
</g>
</g>
<!-- Node2&#45;&gt;Node1 -->
<g id="edge1_Node000001_Node000002" class="edge">
<title>Node2&#45;&gt;Node1</title>
<g id="a_edge1_Node000001_Node000002"><a xlink:title=" ">
<path fill="none" stroke="#63b8ff" d="M149.78,-148.48C141.62,-138.73 133.55,-129.1 125.91,-119.99"/>
<polygon fill="none" stroke="#63b8ff" points="146.89,-150.48 156,-155.9 152.26,-145.99 146.89,-150.48"/>
</a>
</g>
</g>
<!-- Node3 -->
<g id="Node000003" class="node">
<title>Node3</title>
<g id="a_Node000003"><a xlink:href="../../dc/d8f/class_node.html" target="_top" xlink:title=" ">
<polygon fill="white" stroke="none" points="586,-591 553,-591 553,-539 586,-539 586,-591"/>
<text text-anchor="start" x="557.88" y="-577.5" font-family="Helvetica,sans-Serif" font-size="10.00">Node</text>
<text text-anchor="start" x="568" y="-561.5" font-family="Helvetica,sans-Serif" font-size="10.00"> </text>
<text text-anchor="start" x="568" y="-545.5" font-family="Helvetica,sans-Serif" font-size="10.00"> </text>
<polygon fill="#666666" stroke="#666666" points="553,-573 553,-573 586,-573 586,-573 553,-573"/>
<polygon fill="#666666" stroke="#666666" points="553,-557 553,-557 586,-557 586,-557 553,-557"/>
<polygon fill="none" stroke="#666666" points="553,-539 553,-591 586,-591 586,-539 553,-539"/>
</a>
</g>
</g>
<!-- Node3&#45;&gt;Node2 -->
<g id="edge2_Node000002_Node000003" class="edge">
<title>Node3&#45;&gt;Node2</title>
<g id="a_edge2_Node000002_Node000003"><a xlink:title=" ">
<path fill="none" stroke="#63b8ff" d="M571.51,-527.93C571.94,-484.69 566.14,-412.39 527.5,-367 478.58,-309.53 396.78,-281.15 332.34,-267.21"/>
<polygon fill="none" stroke="#63b8ff" points="568.01,-527.71 571.28,-537.79 575.01,-527.88 568.01,-527.71"/>
</a>
</g>
</g>
<!-- Node4 -->
<g id="Node000004" class="node">
<title>Node4</title>
<g id="a_Node000004"><a xlink:title=" ">
<polygon fill="white" stroke="none" points="51.5,-591 13.5,-591 13.5,-539 51.5,-539 51.5,-591"/>
<text text-anchor="start" x="18.25" y="-577.5" font-family="Helvetica,sans-Serif" font-size="10.00">double</text>
<text text-anchor="start" x="31" y="-561.5" font-family="Helvetica,sans-Serif" font-size="10.00"> </text>
<text text-anchor="start" x="31" y="-545.5" font-family="Helvetica,sans-Serif" font-size="10.00"> </text>
<polygon fill="#666666" stroke="#666666" points="13.5,-573 13.5,-573 51.5,-573 51.5,-573 13.5,-573"/>
<polygon fill="#666666" stroke="#666666" points="13.5,-557 13.5,-557 51.5,-557 51.5,-557 13.5,-557"/>
<polygon fill="none" stroke="#666666" points="13.5,-539 13.5,-591 51.5,-591 51.5,-539 13.5,-539"/>
</a>
</g>
</g>
<!-- Node4&#45;&gt;Node1 -->
<g id="edge12_Node000001_Node000004" class="edge">
<title>Node4&#45;&gt;Node1</title>
<g id="a_edge12_Node000001_Node000004"><a xlink:title=" ">
<path fill="none" stroke="#63b8ff" d="M27.61,-539.18C15.87,-474.83 -10.39,-297.85 25,-157 27.15,-148.46 30.22,-139.85 33.8,-131.48"/>
<polygon fill="none" stroke="#63b8ff" points="33.77,-131.55 32.65,-124.43 38.79,-120.66 39.91,-127.78 33.77,-131.55"/>
</a>
</g>
<text text-anchor="middle" x="78.25" y="-249.5" font-family="Helvetica,sans-Serif" font-size="10.00" fill="grey"> +AmountStarsToSpawn</text>
</g>
<!-- Node4&#45;&gt;Node2 -->
<g id="edge3_Node000002_Node000004" class="edge">
<title>Node4&#45;&gt;Node2</title>
<g id="a_edge3_Node000002_Node000004"><a xlink:title=" ">
<path fill="none" stroke="#63b8ff" d="M31.78,-539.27C31.92,-498.44 38.05,-416.51 81.25,-367 95.48,-350.69 108,-360.23 126.5,-349 127.69,-348.28 128.87,-347.55 130.06,-346.8"/>
<polygon fill="none" stroke="#63b8ff" points="129.92,-346.89 132.73,-340.25 139.94,-340.29 137.13,-346.93 129.92,-346.89"/>
</a>
</g>
<text text-anchor="middle" x="115.38" y="-405.5" font-family="Helvetica,sans-Serif" font-size="10.00" fill="grey"> +BaseDamage</text>
<text text-anchor="middle" x="115.38" y="-393.5" font-family="Helvetica,sans-Serif" font-size="10.00" fill="grey">+CastTime</text>
<text text-anchor="middle" x="115.38" y="-381.5" font-family="Helvetica,sans-Serif" font-size="10.00" fill="grey">+CoolDown</text>
<text text-anchor="middle" x="115.38" y="-369.5" font-family="Helvetica,sans-Serif" font-size="10.00" fill="grey">+Damage</text>
</g>
<!-- Node5 -->
<g id="Node000005" class="node">
<title>Node5</title>
<g id="a_Node000005"><a xlink:title=" ">
<polygon fill="white" stroke="none" points="168,-591 111,-591 111,-539 168,-539 168,-591"/>
<text text-anchor="start" x="115.88" y="-577.5" font-family="Helvetica,sans-Serif" font-size="10.00">MagicType</text>
<text text-anchor="start" x="138" y="-561.5" font-family="Helvetica,sans-Serif" font-size="10.00"> </text>
<text text-anchor="start" x="138" y="-545.5" font-family="Helvetica,sans-Serif" font-size="10.00"> </text>
<polygon fill="#666666" stroke="#666666" points="111,-573 111,-573 168,-573 168,-573 111,-573"/>
<polygon fill="#666666" stroke="#666666" points="111,-557 111,-557 168,-557 168,-557 111,-557"/>
<polygon fill="none" stroke="#666666" points="111,-539 111,-591 168,-591 168,-539 111,-539"/>
</a>
</g>
</g>
<!-- Node5&#45;&gt;Node2 -->
<g id="edge4_Node000002_Node000005" class="edge">
<title>Node5&#45;&gt;Node2</title>
<g id="a_edge4_Node000002_Node000005"><a xlink:title=" ">
<path fill="none" stroke="#63b8ff" d="M139.57,-539.26C140.4,-501.15 144.91,-426.27 166.25,-367 167,-364.91 167.8,-362.81 168.63,-360.72"/>
<polygon fill="none" stroke="#63b8ff" points="168.68,-360.6 167.39,-353.51 173.44,-349.59 174.74,-356.68 168.68,-360.6"/>
</a>
</g>
<text text-anchor="middle" x="194.38" y="-387.5" font-family="Helvetica,sans-Serif" font-size="10.00" fill="grey"> +MagicType</text>
</g>
<!-- Node6 -->
<g id="Node000006" class="node">
<title>Node6</title>
<g id="a_Node000006"><a xlink:title=" ">
<polygon fill="white" stroke="none" points="244.5,-591 186.5,-591 186.5,-539 244.5,-539 244.5,-591"/>
<text text-anchor="start" x="191.5" y="-577.5" font-family="Helvetica,sans-Serif" font-size="10.00">SpellName</text>
<text text-anchor="start" x="214" y="-561.5" font-family="Helvetica,sans-Serif" font-size="10.00"> </text>
<text text-anchor="start" x="214" y="-545.5" font-family="Helvetica,sans-Serif" font-size="10.00"> </text>
<polygon fill="#666666" stroke="#666666" points="186.5,-573 186.5,-573 244.5,-573 244.5,-573 186.5,-573"/>
<polygon fill="#666666" stroke="#666666" points="186.5,-557 186.5,-557 244.5,-557 244.5,-557 186.5,-557"/>
<polygon fill="none" stroke="#666666" points="186.5,-539 186.5,-591 244.5,-591 244.5,-539 186.5,-539"/>
</a>
</g>
</g>
<!-- Node6&#45;&gt;Node2 -->
<g id="edge5_Node000002_Node000006" class="edge">
<title>Node6&#45;&gt;Node2</title>
<g id="a_edge5_Node000002_Node000006"><a xlink:title=" ">
<path fill="none" stroke="#63b8ff" d="M217.18,-539.16C219.77,-500.91 224.89,-425.37 229.21,-361.64"/>
<polygon fill="none" stroke="#63b8ff" points="229.22,-361.53 225.63,-355.27 230.03,-349.56 233.61,-355.81 229.22,-361.53"/>
</a>
</g>
<text text-anchor="middle" x="258.87" y="-387.5" font-family="Helvetica,sans-Serif" font-size="10.00" fill="grey"> +_spellName</text>
</g>
<!-- Node7 -->
<g id="Node000007" class="node">
<title>Node7</title>
<g id="a_Node000007"><a xlink:href="../../d1/da7/class_health_component.html" target="_top" xlink:title=" ">
<polygon fill="white" stroke="none" points="444.5,-697 262.5,-697 262.5,-433 444.5,-433 444.5,-697"/>
<text text-anchor="start" x="314.12" y="-683.5" font-family="Helvetica,sans-Serif" font-size="10.00">HealthComponent</text>
<text text-anchor="start" x="352" y="-667.5" font-family="Helvetica,sans-Serif" font-size="10.00"> </text>
<text text-anchor="start" x="266.5" y="-651.5" font-family="Helvetica,sans-Serif" font-size="10.00">+</text>
<text text-anchor="start" x="276.5" y="-651.5" font-family="Helvetica,sans-Serif" font-size="10.00">delegate void DeathEvent</text>
<text text-anchor="start" x="276.5" y="-639.5" font-family="Helvetica,sans-Serif" font-size="10.00">Handler()</text>
<text text-anchor="start" x="266.5" y="-623.5" font-family="Helvetica,sans-Serif" font-size="10.00">+</text>
<text text-anchor="start" x="276.5" y="-623.5" font-family="Helvetica,sans-Serif" font-size="10.00">override void _Ready()</text>
<text text-anchor="start" x="266.5" y="-607.5" font-family="Helvetica,sans-Serif" font-size="10.00">+</text>
<text text-anchor="start" x="276.5" y="-607.5" font-family="Helvetica,sans-Serif" font-size="10.00">void TakeDamage(Attack</text>
<text text-anchor="start" x="276.5" y="-595.5" font-family="Helvetica,sans-Serif" font-size="10.00"> attack)</text>
<text text-anchor="start" x="266.5" y="-579.5" font-family="Helvetica,sans-Serif" font-size="10.00">+</text>
<text text-anchor="start" x="276.5" y="-579.5" font-family="Helvetica,sans-Serif" font-size="10.00">void SetMaxHP(double</text>
<text text-anchor="start" x="276.5" y="-567.5" font-family="Helvetica,sans-Serif" font-size="10.00"> newMaxHP)</text>
<text text-anchor="start" x="266.5" y="-551.5" font-family="Helvetica,sans-Serif" font-size="10.00">+</text>
<text text-anchor="start" x="276.5" y="-551.5" font-family="Helvetica,sans-Serif" font-size="10.00">double GetMaxHP()</text>
<text text-anchor="start" x="266.5" y="-535.5" font-family="Helvetica,sans-Serif" font-size="10.00">+</text>
<text text-anchor="start" x="276.5" y="-535.5" font-family="Helvetica,sans-Serif" font-size="10.00">void SetArmor(double</text>
<text text-anchor="start" x="276.5" y="-523.5" font-family="Helvetica,sans-Serif" font-size="10.00"> armorSun, double armorCosmic,</text>
<text text-anchor="start" x="276.5" y="-511.5" font-family="Helvetica,sans-Serif" font-size="10.00"> double armorDark)</text>
<text text-anchor="start" x="266.5" y="-495.5" font-family="Helvetica,sans-Serif" font-size="10.00">+</text>
<text text-anchor="start" x="276.5" y="-495.5" font-family="Helvetica,sans-Serif" font-size="10.00">double GetCurrentHP()</text>
<text text-anchor="start" x="266.5" y="-479.5" font-family="Helvetica,sans-Serif" font-size="10.00">+</text>
<text text-anchor="start" x="276.5" y="-479.5" font-family="Helvetica,sans-Serif" font-size="10.00">double GetArmorOfType</text>
<text text-anchor="start" x="276.5" y="-467.5" font-family="Helvetica,sans-Serif" font-size="10.00">(MagicType type)</text>
<text text-anchor="start" x="266.5" y="-451.5" font-family="Helvetica,sans-Serif" font-size="10.00">+</text>
<text text-anchor="start" x="276.5" y="-451.5" font-family="Helvetica,sans-Serif" font-size="10.00">void ModifyArmor(MagicType</text>
<text text-anchor="start" x="276.5" y="-439.5" font-family="Helvetica,sans-Serif" font-size="10.00"> magicType, double flatArmorChange)</text>
<polygon fill="#666666" stroke="#666666" points="262.5,-679 262.5,-679 444.5,-679 444.5,-679 262.5,-679"/>
<polygon fill="#666666" stroke="#666666" points="262.5,-663 262.5,-663 444.5,-663 444.5,-663 262.5,-663"/>
<polygon fill="none" stroke="#666666" points="262.5,-433 262.5,-697 444.5,-697 444.5,-433 262.5,-433"/>
</a>
</g>
</g>
<!-- Node7&#45;&gt;Node2 -->
<g id="edge6_Node000002_Node000007" class="edge">
<title>Node7&#45;&gt;Node2</title>
<g id="a_edge6_Node000002_Node000007"><a xlink:title=" ">
<path fill="none" stroke="#63b8ff" d="M317.08,-433.09C309.9,-410.81 301.95,-388.07 293.5,-367 292.63,-364.84 291.74,-362.66 290.82,-360.47"/>
<polygon fill="none" stroke="#63b8ff" points="290.86,-360.56 284.81,-356.64 286.1,-349.54 292.15,-353.46 290.86,-360.56"/>
</a>
</g>
<text text-anchor="middle" x="370.25" y="-387.5" font-family="Helvetica,sans-Serif" font-size="10.00" fill="grey"> #_playerHealthComponent</text>
</g>
<!-- Node8 -->
<g id="Node000008" class="node">
<title>Node8</title>
<g id="a_Node000008"><a xlink:href="../../dc/df8/class_area2_d.html" target="_top" xlink:title=" ">
<polygon fill="white" stroke="none" points="282,-847 239,-847 239,-795 282,-795 282,-847"/>
<text text-anchor="start" x="244" y="-833.5" font-family="Helvetica,sans-Serif" font-size="10.00">Area2D</text>
<text text-anchor="start" x="259" y="-817.5" font-family="Helvetica,sans-Serif" font-size="10.00"> </text>
<text text-anchor="start" x="259" y="-801.5" font-family="Helvetica,sans-Serif" font-size="10.00"> </text>
<polygon fill="#666666" stroke="#666666" points="239,-829 239,-829 282,-829 282,-829 239,-829"/>
<polygon fill="#666666" stroke="#666666" points="239,-813 239,-813 282,-813 282,-813 239,-813"/>
<polygon fill="none" stroke="#666666" points="239,-795 239,-847 282,-847 282,-795 239,-795"/>
</a>
</g>
</g>
<!-- Node8&#45;&gt;Node7 -->
<g id="edge7_Node000007_Node000008" class="edge">
<title>Node8&#45;&gt;Node7</title>
<g id="a_edge7_Node000007_Node000008"><a xlink:title=" ">
<path fill="none" stroke="#63b8ff" d="M273.49,-784.51C282.01,-761.26 293.71,-729.29 305.54,-696.98"/>
<polygon fill="none" stroke="#63b8ff" points="270.26,-783.17 270.11,-793.76 276.83,-785.57 270.26,-783.17"/>
</a>
</g>
</g>
<!-- Node9 -->
<g id="Node000009" class="node">
<title>Node9</title>
<g id="a_Node000009"><a xlink:title=" ">
<polygon fill="white" stroke="none" points="406.5,-847 300.5,-847 300.5,-795 406.5,-795 406.5,-847"/>
<text text-anchor="start" x="305.12" y="-833.5" font-family="Helvetica,sans-Serif" font-size="10.00">AudioStreamPlayer2D</text>
<text text-anchor="start" x="352" y="-817.5" font-family="Helvetica,sans-Serif" font-size="10.00"> </text>
<text text-anchor="start" x="352" y="-801.5" font-family="Helvetica,sans-Serif" font-size="10.00"> </text>
<polygon fill="#666666" stroke="#666666" points="300.5,-829 300.5,-829 406.5,-829 406.5,-829 300.5,-829"/>
<polygon fill="#666666" stroke="#666666" points="300.5,-813 300.5,-813 406.5,-813 406.5,-813 300.5,-813"/>
<polygon fill="none" stroke="#666666" points="300.5,-795 300.5,-847 406.5,-847 406.5,-795 300.5,-795"/>
</a>
</g>
</g>
<!-- Node9&#45;&gt;Node7 -->
<g id="edge8_Node000007_Node000009" class="edge">
<title>Node9&#45;&gt;Node7</title>
<g id="a_edge8_Node000007_Node000009"><a xlink:title=" ">
<path fill="none" stroke="#63b8ff" d="M353.5,-795.18C353.5,-774.37 353.5,-742.82 353.5,-709.72"/>
<polygon fill="none" stroke="#63b8ff" points="353.5,-709.88 349.5,-703.88 353.5,-697.88 357.5,-703.88 353.5,-709.88"/>
</a>
</g>
<text text-anchor="middle" x="378.25" y="-717.5" font-family="Helvetica,sans-Serif" font-size="10.00" fill="grey"> +HitSound</text>
</g>
<!-- Node10 -->
<g id="Node000010" class="node">
<title>Node10</title>
<g id="a_Node000010"><a xlink:href="../../d7/dca/class_healthbar.html" target="_top" xlink:title=" ">
<polygon fill="white" stroke="none" points="542,-897 425,-897 425,-745 542,-745 542,-897"/>
<text text-anchor="start" x="462.5" y="-883.5" font-family="Helvetica,sans-Serif" font-size="10.00">Healthbar</text>
<text text-anchor="start" x="482" y="-867.5" font-family="Helvetica,sans-Serif" font-size="10.00"> </text>
<text text-anchor="start" x="429" y="-851.5" font-family="Helvetica,sans-Serif" font-size="10.00">+</text>
<text text-anchor="start" x="439" y="-851.5" font-family="Helvetica,sans-Serif" font-size="10.00">override void _Ready()</text>
<text text-anchor="start" x="429" y="-835.5" font-family="Helvetica,sans-Serif" font-size="10.00">+</text>
<text text-anchor="start" x="439" y="-835.5" font-family="Helvetica,sans-Serif" font-size="10.00">override void _Process</text>
<text text-anchor="start" x="439" y="-823.5" font-family="Helvetica,sans-Serif" font-size="10.00">(double delta)</text>
<text text-anchor="start" x="429" y="-807.5" font-family="Helvetica,sans-Serif" font-size="10.00">+</text>
<text text-anchor="start" x="439" y="-807.5" font-family="Helvetica,sans-Serif" font-size="10.00">void InitHealthbar</text>
<text text-anchor="start" x="439" y="-795.5" font-family="Helvetica,sans-Serif" font-size="10.00">(double health)</text>
<text text-anchor="start" x="429" y="-779.5" font-family="Helvetica,sans-Serif" font-size="10.00">+</text>
<text text-anchor="start" x="439" y="-779.5" font-family="Helvetica,sans-Serif" font-size="10.00">void SetHealthPoints</text>
<text text-anchor="start" x="439" y="-767.5" font-family="Helvetica,sans-Serif" font-size="10.00">(double newHealth)</text>
<text text-anchor="start" x="429" y="-751.5" font-family="Helvetica,sans-Serif" font-size="10.00">+</text>
<text text-anchor="start" x="439" y="-751.5" font-family="Helvetica,sans-Serif" font-size="10.00">void OnTimerTimeout()</text>
<polygon fill="#666666" stroke="#666666" points="425,-879 425,-879 542,-879 542,-879 425,-879"/>
<polygon fill="#666666" stroke="#666666" points="425,-863 425,-863 542,-863 542,-863 425,-863"/>
<polygon fill="none" stroke="#666666" points="425,-745 425,-897 542,-897 542,-745 425,-745"/>
</a>
</g>
</g>
<!-- Node10&#45;&gt;Node7 -->
<g id="edge9_Node000007_Node000010" class="edge">
<title>Node10&#45;&gt;Node7</title>
<g id="a_edge9_Node000007_Node000010"><a xlink:title=" ">
<path fill="none" stroke="#63b8ff" d="M445.2,-745.17C439.24,-733.51 432.91,-721.15 426.48,-708.58"/>
<polygon fill="none" stroke="#63b8ff" points="426.42,-708.48 420.13,-704.97 420.96,-697.8 427.25,-701.32 426.42,-708.48"/>
</a>
</g>
<text text-anchor="middle" x="458.34" y="-717.5" font-family="Helvetica,sans-Serif" font-size="10.00" fill="grey"> +healthbar</text>
</g>
<!-- Node11 -->
<g id="Node000011" class="node">
<title>Node11</title>
<g id="a_Node000011"><a xlink:title=" ">
<polygon fill="white" stroke="none" points="531.5,-986 435.5,-986 435.5,-934 531.5,-934 531.5,-986"/>
<text text-anchor="start" x="440.38" y="-972.5" font-family="Helvetica,sans-Serif" font-size="10.00">TextureProgressBar</text>
<text text-anchor="start" x="482" y="-956.5" font-family="Helvetica,sans-Serif" font-size="10.00"> </text>
<text text-anchor="start" x="482" y="-940.5" font-family="Helvetica,sans-Serif" font-size="10.00"> </text>
<polygon fill="#666666" stroke="#666666" points="435.5,-968 435.5,-968 531.5,-968 531.5,-968 435.5,-968"/>
<polygon fill="#666666" stroke="#666666" points="435.5,-952 435.5,-952 531.5,-952 531.5,-952 435.5,-952"/>
<polygon fill="none" stroke="#666666" points="435.5,-934 435.5,-986 531.5,-986 531.5,-934 435.5,-934"/>
</a>
</g>
</g>
<!-- Node11&#45;&gt;Node10 -->
<g id="edge10_Node000010_Node000011" class="edge">
<title>Node11&#45;&gt;Node10</title>
<g id="a_edge10_Node000010_Node000011"><a xlink:title=" ">
<path fill="none" stroke="#63b8ff" d="M483.5,-922.92C483.5,-914.8 483.5,-905.88 483.5,-896.81"/>
<polygon fill="none" stroke="#63b8ff" points="480,-922.68 483.5,-932.68 487,-922.68 480,-922.68"/>
</a>
</g>
</g>
<!-- Node12 -->
<g id="Node000012" class="node">
<title>Node12</title>
<g id="a_Node000012"><a xlink:title=" ">
<polygon fill="white" stroke="none" points="532.5,-591 462.5,-591 462.5,-539 532.5,-539 532.5,-591"/>
<text text-anchor="start" x="467.12" y="-577.5" font-family="Helvetica,sans-Serif" font-size="10.00">PackedScene</text>
<text text-anchor="start" x="496" y="-561.5" font-family="Helvetica,sans-Serif" font-size="10.00"> </text>
<text text-anchor="start" x="496" y="-545.5" font-family="Helvetica,sans-Serif" font-size="10.00"> </text>
<polygon fill="#666666" stroke="#666666" points="462.5,-573 462.5,-573 532.5,-573 532.5,-573 462.5,-573"/>
<polygon fill="#666666" stroke="#666666" points="462.5,-557 462.5,-557 532.5,-557 532.5,-557 462.5,-557"/>
<polygon fill="none" stroke="#666666" points="462.5,-539 462.5,-591 532.5,-591 532.5,-539 462.5,-539"/>
</a>
</g>
</g>
<!-- Node12&#45;&gt;Node2 -->
<g id="edge11_Node000002_Node000012" class="edge">
<title>Node12&#45;&gt;Node2</title>
<g id="a_edge11_Node000002_Node000012"><a xlink:title=" ">
<path fill="none" stroke="#63b8ff" d="M495.18,-539.19C490.27,-498.96 475.55,-418.78 433.5,-367 409.77,-337.77 376.33,-314.63 343.73,-297.09"/>
<polygon fill="none" stroke="#63b8ff" points="343.69,-297.08 336.53,-297.86 333.05,-291.54 340.22,-290.76 343.69,-297.08"/>
</a>
</g>
<text text-anchor="middle" x="493.19" y="-387.5" font-family="Helvetica,sans-Serif" font-size="10.00" fill="grey"> #_spellScene</text>
</g>
</g>
</svg>

<g id="navigator" transform="translate(0 0)" fill="#404254">
  <rect fill="#f2f5e9" fill-opacity="0.5" stroke="#606060" stroke-width=".5" x="0" y="0" width="60" height="60"/>
  <use id="zoomplus" xlink:href="#zoomPlus" x="17" y="9" onmousedown="handleZoom(evt,'in')"/>
  <use id="zoomminus" xlink:href="#zoomMin" x="42" y="9" onmousedown="handleZoom(evt,'out')"/>
  <use id="reset" xlink:href="#resetDef" x="30" y="36" onmousedown="handleReset()"/>
   <use id="arrowup" xlink:href="#arrowUp" x="0" y="0" onmousedown="handlePan(0,-1)"/>
  <use id="arrowright" xlink:href="#arrowRight" x="0" y="0" onmousedown="handlePan(1,0)"/>
  <use id="arrowdown" xlink:href="#arrowDown" x="0" y="0" onmousedown="handlePan(0,1)"/>
  <use id="arrowleft" xlink:href="#arrowLeft" x="0" y="0" onmousedown="handlePan(-1,0)"/>
</g>
<svg viewBox="0 0 15 15" width="100%" height="30px" preserveAspectRatio="xMaxYMin meet">
 <g id="arrow_out" transform="scale(0.3 0.3)">
  <a xlink:href="class_inventory_star_rain__coll__graph_org.svg" target="_base">
   <rect id="button" ry="5" rx="5" y="6" x="6" height="38" width="38"
        fill="#f2f5e9" fill-opacity="0.5" stroke="#606060" stroke-width="1.0"/>
   <path id="arrow"
     d="M 11.500037,31.436501 C 11.940474,20.09759 22.043105,11.32322 32.158766,21.979434 L 37.068811,17.246167 C 37.068811,17.246167 37.088388,32 37.088388,32 L 22.160133,31.978069 C 22.160133,31.978069 26.997745,27.140456 26.997745,27.140456 C 18.528582,18.264221 13.291696,25.230495 11.500037,31.436501 z"
     style="fill:#404040;"/>
  </a>
 </g>
</svg>

<style type='text/css'>
<![CDATA[
[data-mouse-over-selected='false'] { opacity: 0.7; }
[data-mouse-over-selected='true']  { opacity: 1.0; }
]]>
</style>
<script type="application/ecmascript"><![CDATA[
document.addEventListener('DOMContentLoaded', (event) => {
  highlightEdges();
  highlightAdjacentNodes();
});
]]></script>
</svg>
