<?xml version="1.0" encoding="UTF-8" standalone="no"?>
<!DOCTYPE svg PUBLIC "-//W3C//DTD SVG 1.1//EN"
 "http://www.w3.org/Graphics/SVG/1.1/DTD/svg11.dtd">
<!-- Generated by graphviz version 12.1.0 (20240811.2233)
 -->
<!-- Title: GdUnit4CSharpApi Pages: 1 -->
<svg width="187pt" height="272pt"
 viewBox="0.00 0.00 187.00 272.00" xmlns="http://www.w3.org/2000/svg" xmlns:xlink="http://www.w3.org/1999/xlink">
<g id="graph0" class="graph" transform="scale(1 1) rotate(0) translate(4 268)">
<title>GdUnit4CSharpApi</title>
<!-- Node1 -->
<g id="Node000001" class="node">
<title>Node1</title>
<g id="a_Node000001"><a xlink:title=" ">
<polygon fill="#999999" stroke="none" points="179,-176 0,-176 0,0 179,0 179,-176"/>
<text text-anchor="start" x="47.88" y="-162.5" font-family="Helvetica,sans-Serif" font-size="10.00">GdUnit4CSharpApi</text>
<text text-anchor="start" x="88" y="-146.5" font-family="Helvetica,sans-Serif" font-size="10.00"> </text>
<text text-anchor="start" x="4" y="-130.5" font-family="Helvetica,sans-Serif" font-size="10.00">+</text>
<text text-anchor="start" x="14" y="-130.5" font-family="Helvetica,sans-Serif" font-size="10.00">static string Version()</text>
<text text-anchor="start" x="4" y="-114.5" font-family="Helvetica,sans-Serif" font-size="10.00">+</text>
<text text-anchor="start" x="14" y="-114.5" font-family="Helvetica,sans-Serif" font-size="10.00">static bool IsTestSuite</text>
<text text-anchor="start" x="14" y="-102.5" font-family="Helvetica,sans-Serif" font-size="10.00">(string classPath)</text>
<text text-anchor="start" x="4" y="-86.5" font-family="Helvetica,sans-Serif" font-size="10.00">+</text>
<text text-anchor="start" x="14" y="-86.5" font-family="Helvetica,sans-Serif" font-size="10.00">static RefCounted Executor</text>
<text text-anchor="start" x="14" y="-74.5" font-family="Helvetica,sans-Serif" font-size="10.00">(Node listener)</text>
<text text-anchor="start" x="4" y="-58.5" font-family="Helvetica,sans-Serif" font-size="10.00">+</text>
<text text-anchor="start" x="14" y="-58.5" font-family="Helvetica,sans-Serif" font-size="10.00">static ? CsNode ParseTest</text>
<text text-anchor="start" x="14" y="-46.5" font-family="Helvetica,sans-Serif" font-size="10.00">Suite(string classPath)</text>
<text text-anchor="start" x="4" y="-30.5" font-family="Helvetica,sans-Serif" font-size="10.00">+</text>
<text text-anchor="start" x="14" y="-30.5" font-family="Helvetica,sans-Serif" font-size="10.00">static Dictionary Create</text>
<text text-anchor="start" x="14" y="-18.5" font-family="Helvetica,sans-Serif" font-size="10.00">TestSuite(string sourcePath,</text>
<text text-anchor="start" x="14" y="-6.5" font-family="Helvetica,sans-Serif" font-size="10.00"> int lineNumber, string testSuitePath)</text>
<polygon fill="#666666" stroke="#666666" points="0,-158 0,-158 179,-158 179,-158 0,-158"/>
<polygon fill="#666666" stroke="#666666" points="0,-142 0,-142 179,-142 179,-142 0,-142"/>
<polygon fill="none" stroke="#666666" points="0,0 0,-176 179,-176 179,0 0,0"/>
</a>
</g>
</g>
<!-- Node2 -->
<g id="Node000002" class="node">
<title>Node2</title>
<g id="a_Node000002"><a xlink:title=" ">
<polygon fill="white" stroke="none" points="138,-264 41,-264 41,-212 138,-212 138,-264"/>
<text text-anchor="start" x="46" y="-250.5" font-family="Helvetica,sans-Serif" font-size="10.00">Godot::GodotObject</text>
<text text-anchor="start" x="88" y="-234.5" font-family="Helvetica,sans-Serif" font-size="10.00"> </text>
<text text-anchor="start" x="88" y="-218.5" font-family="Helvetica,sans-Serif" font-size="10.00"> </text>
<polygon fill="#666666" stroke="#666666" points="41,-246 41,-246 138,-246 138,-246 41,-246"/>
<polygon fill="#666666" stroke="#666666" points="41,-230 41,-230 138,-230 138,-230 41,-230"/>
<polygon fill="none" stroke="#666666" points="41,-212 41,-264 138,-264 138,-212 41,-212"/>
</a>
</g>
</g>
<!-- Node2&#45;&gt;Node1 -->
<g id="edge1_Node000001_Node000002" class="edge">
<title>Node2&#45;&gt;Node1</title>
<g id="a_edge1_Node000001_Node000002"><a xlink:title=" ">
<path fill="none" stroke="#63b8ff" d="M89.5,-200.77C89.5,-193.04 89.5,-184.56 89.5,-175.83"/>
<polygon fill="none" stroke="#63b8ff" points="86,-200.71 89.5,-210.71 93,-200.71 86,-200.71"/>
</a>
</g>
</g>
</g>
</svg>
