<?xml version="1.0" encoding="UTF-8" standalone="no"?>
<!DOCTYPE svg PUBLIC "-//W3C//DTD SVG 1.1//EN"
 "http://www.w3.org/Graphics/SVG/1.1/DTD/svg11.dtd">
<!-- Generated by graphviz version 12.1.0 (20240811.2233)
 -->
<!-- Title: AugmentInventory Pages: 1 -->
<svg width="189pt" height="372pt"
 viewBox="0.00 0.00 189.00 372.00" xmlns="http://www.w3.org/2000/svg" xmlns:xlink="http://www.w3.org/1999/xlink">
<g id="graph0" class="graph" transform="scale(1 1) rotate(0) translate(4 368)">
<title>AugmentInventory</title>
<!-- Node1 -->
<g id="Node000001" class="node">
<title>Node1</title>
<g id="a_Node000001"><a xlink:title=" ">
<polygon fill="#999999" stroke="none" points="181,-276 0,-276 0,0 181,0 181,-276"/>
<text text-anchor="start" x="50.75" y="-262.5" font-family="Helvetica,sans-Serif" font-size="10.00">AugmentInventory</text>
<text text-anchor="start" x="89" y="-246.5" font-family="Helvetica,sans-Serif" font-size="10.00"> </text>
<text text-anchor="start" x="4" y="-230.5" font-family="Helvetica,sans-Serif" font-size="10.00">+</text>
<text text-anchor="start" x="14" y="-230.5" font-family="Helvetica,sans-Serif" font-size="10.00">override void _Ready()</text>
<text text-anchor="start" x="4" y="-214.5" font-family="Helvetica,sans-Serif" font-size="10.00">+</text>
<text text-anchor="start" x="14" y="-214.5" font-family="Helvetica,sans-Serif" font-size="10.00">override void _Unhandled</text>
<text text-anchor="start" x="14" y="-202.5" font-family="Helvetica,sans-Serif" font-size="10.00">Input(InputEvent @event)</text>
<text text-anchor="start" x="4" y="-186.5" font-family="Helvetica,sans-Serif" font-size="10.00">+</text>
<text text-anchor="start" x="14" y="-186.5" font-family="Helvetica,sans-Serif" font-size="10.00">void SetVisibility</text>
<text text-anchor="start" x="14" y="-174.5" font-family="Helvetica,sans-Serif" font-size="10.00">(bool isVisible)</text>
<text text-anchor="start" x="4" y="-158.5" font-family="Helvetica,sans-Serif" font-size="10.00">+</text>
<text text-anchor="start" x="14" y="-158.5" font-family="Helvetica,sans-Serif" font-size="10.00">void AddAugmentToInventory</text>
<text text-anchor="start" x="14" y="-146.5" font-family="Helvetica,sans-Serif" font-size="10.00">(Augment augment)</text>
<text text-anchor="start" x="4" y="-130.5" font-family="Helvetica,sans-Serif" font-size="10.00">+</text>
<text text-anchor="start" x="14" y="-130.5" font-family="Helvetica,sans-Serif" font-size="10.00">void SwitchToFuseAugments()</text>
<text text-anchor="start" x="4" y="-114.5" font-family="Helvetica,sans-Serif" font-size="10.00">+</text>
<text text-anchor="start" x="14" y="-114.5" font-family="Helvetica,sans-Serif" font-size="10.00">void SwitchToAugmentInventory()</text>
<text text-anchor="start" x="4" y="-98.5" font-family="Helvetica,sans-Serif" font-size="10.00">+</text>
<text text-anchor="start" x="14" y="-98.5" font-family="Helvetica,sans-Serif" font-size="10.00">void LeftButtonPressed()</text>
<text text-anchor="start" x="4" y="-82.5" font-family="Helvetica,sans-Serif" font-size="10.00">+</text>
<text text-anchor="start" x="14" y="-82.5" font-family="Helvetica,sans-Serif" font-size="10.00">void RightButtonPressed()</text>
<text text-anchor="start" x="4" y="-66.5" font-family="Helvetica,sans-Serif" font-size="10.00">+</text>
<text text-anchor="start" x="14" y="-66.5" font-family="Helvetica,sans-Serif" font-size="10.00">void FuseSelectedAugments()</text>
<text text-anchor="start" x="4" y="-50.5" font-family="Helvetica,sans-Serif" font-size="10.00">+</text>
<text text-anchor="start" x="14" y="-50.5" font-family="Helvetica,sans-Serif" font-size="10.00">void AddRandomAugment()</text>
<text text-anchor="start" x="4" y="-34.5" font-family="Helvetica,sans-Serif" font-size="10.00">+</text>
<text text-anchor="start" x="14" y="-34.5" font-family="Helvetica,sans-Serif" font-size="10.00">GridContainer GetInactive</text>
<text text-anchor="start" x="14" y="-22.5" font-family="Helvetica,sans-Serif" font-size="10.00">Augments()</text>
<text text-anchor="start" x="4" y="-6.5" font-family="Helvetica,sans-Serif" font-size="10.00">+</text>
<text text-anchor="start" x="14" y="-6.5" font-family="Helvetica,sans-Serif" font-size="10.00">HBoxContainer GetActiveAugments()</text>
<polygon fill="#666666" stroke="#666666" points="0,-258 0,-258 181,-258 181,-258 0,-258"/>
<polygon fill="#666666" stroke="#666666" points="0,-242 0,-242 181,-242 181,-242 0,-242"/>
<polygon fill="none" stroke="#666666" points="0,0 0,-276 181,-276 181,0 0,0"/>
</a>
</g>
</g>
<!-- Node2 -->
<g id="Node000002" class="node">
<title>Node2</title>
<g id="a_Node000002"><a xlink:href="../../d4/dc3/class_canvas_layer.html" target="_top" xlink:title=" ">
<polygon fill="white" stroke="none" points="124,-364 57,-364 57,-312 124,-312 124,-364"/>
<text text-anchor="start" x="61.62" y="-350.5" font-family="Helvetica,sans-Serif" font-size="10.00">CanvasLayer</text>
<text text-anchor="start" x="89" y="-334.5" font-family="Helvetica,sans-Serif" font-size="10.00"> </text>
<text text-anchor="start" x="89" y="-318.5" font-family="Helvetica,sans-Serif" font-size="10.00"> </text>
<polygon fill="#666666" stroke="#666666" points="57,-346 57,-346 124,-346 124,-346 57,-346"/>
<polygon fill="#666666" stroke="#666666" points="57,-330 57,-330 124,-330 124,-330 57,-330"/>
<polygon fill="none" stroke="#666666" points="57,-312 57,-364 124,-364 124,-312 57,-312"/>
</a>
</g>
</g>
<!-- Node2&#45;&gt;Node1 -->
<g id="edge1_Node000001_Node000002" class="edge">
<title>Node2&#45;&gt;Node1</title>
<g id="a_edge1_Node000001_Node000002"><a xlink:title=" ">
<path fill="none" stroke="#63b8ff" d="M90.5,-301.03C90.5,-293.35 90.5,-284.81 90.5,-275.78"/>
<polygon fill="none" stroke="#63b8ff" points="87,-300.81 90.5,-310.81 94,-300.81 87,-300.81"/>
</a>
</g>
</g>
</g>
</svg>
