<?xml version="1.0" encoding="UTF-8" standalone="no"?>
<!DOCTYPE svg PUBLIC "-//W3C//DTD SVG 1.1//EN"
 "http://www.w3.org/Graphics/SVG/1.1/DTD/svg11.dtd">
<!-- Generated by graphviz version 12.1.0 (20240811.2233)
 -->
<!-- Title: Attack Pages: 1 -->
<svg width="357pt" height="701pt"
 viewBox="0.00 0.00 356.50 701.00" xmlns="http://www.w3.org/2000/svg" xmlns:xlink="http://www.w3.org/1999/xlink">
<g id="graph0" class="graph" transform="scale(1 1) rotate(0) translate(4 697)">
<title>Attack</title>
<!-- Node1 -->
<g id="Node000001" class="node">
<title>Node1</title>
<g id="a_Node000001"><a xlink:title=" ">
<polygon fill="#999999" stroke="none" points="174,-92 0,-92 0,0 174,0 174,-92"/>
<text text-anchor="start" x="72.75" y="-78.5" font-family="Helvetica,sans-Serif" font-size="10.00">Attack</text>
<text text-anchor="start" x="85.5" y="-62.5" font-family="Helvetica,sans-Serif" font-size="10.00"> </text>
<text text-anchor="start" x="4" y="-46.5" font-family="Helvetica,sans-Serif" font-size="10.00">+</text>
<text text-anchor="start" x="14" y="-46.5" font-family="Helvetica,sans-Serif" font-size="10.00">Attack(double damageValue,</text>
<text text-anchor="start" x="14" y="-34.5" font-family="Helvetica,sans-Serif" font-size="10.00"> MagicType type, HealthComponent</text>
<text text-anchor="start" x="14" y="-22.5" font-family="Helvetica,sans-Serif" font-size="10.00"> attackerNode)</text>
<text text-anchor="start" x="4" y="-6.5" font-family="Helvetica,sans-Serif" font-size="10.00">+</text>
<text text-anchor="start" x="14" y="-6.5" font-family="Helvetica,sans-Serif" font-size="10.00">Attack(Attack attack)</text>
<polygon fill="#666666" stroke="#666666" points="0,-74 0,-74 174,-74 174,-74 0,-74"/>
<polygon fill="#666666" stroke="#666666" points="0,-58 0,-58 174,-58 174,-58 0,-58"/>
<polygon fill="none" stroke="#666666" points="0,0 0,-92 174,-92 174,0 0,0"/>
</a>
</g>
</g>
<!-- Node2 -->
<g id="Node000002" class="node">
<title>Node2</title>
<g id="a_Node000002"><a xlink:title=" ">
<polygon fill="white" stroke="none" points="39,-298 1,-298 1,-246 39,-246 39,-298"/>
<text text-anchor="start" x="5.75" y="-284.5" font-family="Helvetica,sans-Serif" font-size="10.00">double</text>
<text text-anchor="start" x="18.5" y="-268.5" font-family="Helvetica,sans-Serif" font-size="10.00"> </text>
<text text-anchor="start" x="18.5" y="-252.5" font-family="Helvetica,sans-Serif" font-size="10.00"> </text>
<polygon fill="#666666" stroke="#666666" points="1,-280 1,-280 39,-280 39,-280 1,-280"/>
<polygon fill="#666666" stroke="#666666" points="1,-264 1,-264 39,-264 39,-264 1,-264"/>
<polygon fill="none" stroke="#666666" points="1,-246 1,-298 39,-298 39,-246 1,-246"/>
</a>
</g>
</g>
<!-- Node2&#45;&gt;Node1 -->
<g id="edge1_Node000001_Node000002" class="edge">
<title>Node2&#45;&gt;Node1</title>
<g id="a_edge1_Node000001_Node000002"><a xlink:title=" ">
<path fill="none" stroke="#63b8ff" d="M19.08,-246.01C18.75,-213.49 21.18,-155.44 39.5,-110 40.44,-107.67 41.49,-105.34 42.63,-103.04"/>
<polygon fill="none" stroke="#63b8ff" points="42.66,-103 42.11,-95.81 48.54,-92.53 49.08,-99.73 42.66,-103"/>
</a>
</g>
<text text-anchor="middle" x="61.25" y="-112.5" font-family="Helvetica,sans-Serif" font-size="10.00" fill="grey"> +damage</text>
</g>
<!-- Node3 -->
<g id="Node000003" class="node">
<title>Node3</title>
<g id="a_Node000003"><a xlink:title=" ">
<polygon fill="white" stroke="none" points="115.5,-298 58.5,-298 58.5,-246 115.5,-246 115.5,-298"/>
<text text-anchor="start" x="63.38" y="-284.5" font-family="Helvetica,sans-Serif" font-size="10.00">MagicType</text>
<text text-anchor="start" x="85.5" y="-268.5" font-family="Helvetica,sans-Serif" font-size="10.00"> </text>
<text text-anchor="start" x="85.5" y="-252.5" font-family="Helvetica,sans-Serif" font-size="10.00"> </text>
<polygon fill="#666666" stroke="#666666" points="58.5,-280 58.5,-280 115.5,-280 115.5,-280 58.5,-280"/>
<polygon fill="#666666" stroke="#666666" points="58.5,-264 58.5,-264 115.5,-264 115.5,-264 58.5,-264"/>
<polygon fill="none" stroke="#666666" points="58.5,-246 58.5,-298 115.5,-298 115.5,-246 58.5,-246"/>
</a>
</g>
</g>
<!-- Node3&#45;&gt;Node1 -->
<g id="edge2_Node000001_Node000003" class="edge">
<title>Node3&#45;&gt;Node1</title>
<g id="a_edge2_Node000001_Node000003"><a xlink:title=" ">
<path fill="none" stroke="#63b8ff" d="M87,-246.17C87,-212.2 87,-150.22 87,-104.39"/>
<polygon fill="none" stroke="#63b8ff" points="87,-104.53 83,-98.53 87,-92.53 91,-98.53 87,-104.53"/>
</a>
</g>
<text text-anchor="middle" x="115.12" y="-112.5" font-family="Helvetica,sans-Serif" font-size="10.00" fill="grey"> +magicType</text>
</g>
<!-- Node4 -->
<g id="Node000004" class="node">
<title>Node4</title>
<g id="a_Node000004"><a xlink:href="../../d1/da7/class_health_component.html" target="_top" xlink:title=" ">
<polygon fill="white" stroke="none" points="316,-404 134,-404 134,-140 316,-140 316,-404"/>
<text text-anchor="start" x="185.62" y="-390.5" font-family="Helvetica,sans-Serif" font-size="10.00">HealthComponent</text>
<text text-anchor="start" x="223.5" y="-374.5" font-family="Helvetica,sans-Serif" font-size="10.00"> </text>
<text text-anchor="start" x="138" y="-358.5" font-family="Helvetica,sans-Serif" font-size="10.00">+</text>
<text text-anchor="start" x="148" y="-358.5" font-family="Helvetica,sans-Serif" font-size="10.00">delegate void DeathEvent</text>
<text text-anchor="start" x="148" y="-346.5" font-family="Helvetica,sans-Serif" font-size="10.00">Handler()</text>
<text text-anchor="start" x="138" y="-330.5" font-family="Helvetica,sans-Serif" font-size="10.00">+</text>
<text text-anchor="start" x="148" y="-330.5" font-family="Helvetica,sans-Serif" font-size="10.00">override void _Ready()</text>
<text text-anchor="start" x="138" y="-314.5" font-family="Helvetica,sans-Serif" font-size="10.00">+</text>
<text text-anchor="start" x="148" y="-314.5" font-family="Helvetica,sans-Serif" font-size="10.00">void TakeDamage(Attack</text>
<text text-anchor="start" x="148" y="-302.5" font-family="Helvetica,sans-Serif" font-size="10.00"> attack)</text>
<text text-anchor="start" x="138" y="-286.5" font-family="Helvetica,sans-Serif" font-size="10.00">+</text>
<text text-anchor="start" x="148" y="-286.5" font-family="Helvetica,sans-Serif" font-size="10.00">void SetMaxHP(double</text>
<text text-anchor="start" x="148" y="-274.5" font-family="Helvetica,sans-Serif" font-size="10.00"> newMaxHP)</text>
<text text-anchor="start" x="138" y="-258.5" font-family="Helvetica,sans-Serif" font-size="10.00">+</text>
<text text-anchor="start" x="148" y="-258.5" font-family="Helvetica,sans-Serif" font-size="10.00">double GetMaxHP()</text>
<text text-anchor="start" x="138" y="-242.5" font-family="Helvetica,sans-Serif" font-size="10.00">+</text>
<text text-anchor="start" x="148" y="-242.5" font-family="Helvetica,sans-Serif" font-size="10.00">void SetArmor(double</text>
<text text-anchor="start" x="148" y="-230.5" font-family="Helvetica,sans-Serif" font-size="10.00"> armorSun, double armorCosmic,</text>
<text text-anchor="start" x="148" y="-218.5" font-family="Helvetica,sans-Serif" font-size="10.00"> double armorDark)</text>
<text text-anchor="start" x="138" y="-202.5" font-family="Helvetica,sans-Serif" font-size="10.00">+</text>
<text text-anchor="start" x="148" y="-202.5" font-family="Helvetica,sans-Serif" font-size="10.00">double GetCurrentHP()</text>
<text text-anchor="start" x="138" y="-186.5" font-family="Helvetica,sans-Serif" font-size="10.00">+</text>
<text text-anchor="start" x="148" y="-186.5" font-family="Helvetica,sans-Serif" font-size="10.00">double GetArmorOfType</text>
<text text-anchor="start" x="148" y="-174.5" font-family="Helvetica,sans-Serif" font-size="10.00">(MagicType type)</text>
<text text-anchor="start" x="138" y="-158.5" font-family="Helvetica,sans-Serif" font-size="10.00">+</text>
<text text-anchor="start" x="148" y="-158.5" font-family="Helvetica,sans-Serif" font-size="10.00">void ModifyArmor(MagicType</text>
<text text-anchor="start" x="148" y="-146.5" font-family="Helvetica,sans-Serif" font-size="10.00"> magicType, double flatArmorChange)</text>
<polygon fill="#666666" stroke="#666666" points="134,-386 134,-386 316,-386 316,-386 134,-386"/>
<polygon fill="#666666" stroke="#666666" points="134,-370 134,-370 316,-370 316,-370 134,-370"/>
<polygon fill="none" stroke="#666666" points="134,-140 134,-404 316,-404 316,-140 134,-140"/>
</a>
</g>
</g>
<!-- Node4&#45;&gt;Node1 -->
<g id="edge3_Node000001_Node000004" class="edge">
<title>Node4&#45;&gt;Node1</title>
<g id="a_edge3_Node000001_Node000004"><a xlink:title=" ">
<path fill="none" stroke="#63b8ff" d="M166.03,-140.27C160,-129.8 153.63,-119.57 147,-110 145.05,-107.19 142.98,-104.38 140.81,-101.6"/>
<polygon fill="none" stroke="#63b8ff" points="140.85,-101.65 133.96,-99.54 133.24,-92.37 140.14,-94.47 140.85,-101.65"/>
</a>
</g>
<text text-anchor="middle" x="174.5" y="-112.5" font-family="Helvetica,sans-Serif" font-size="10.00" fill="grey"> +attacker</text>
</g>
<!-- Node5 -->
<g id="Node000005" class="node">
<title>Node5</title>
<g id="a_Node000005"><a xlink:href="../../dc/df8/class_area2_d.html" target="_top" xlink:title=" ">
<polygon fill="white" stroke="none" points="213.5,-554 170.5,-554 170.5,-502 213.5,-502 213.5,-554"/>
<text text-anchor="start" x="175.5" y="-540.5" font-family="Helvetica,sans-Serif" font-size="10.00">Area2D</text>
<text text-anchor="start" x="190.5" y="-524.5" font-family="Helvetica,sans-Serif" font-size="10.00"> </text>
<text text-anchor="start" x="190.5" y="-508.5" font-family="Helvetica,sans-Serif" font-size="10.00"> </text>
<polygon fill="#666666" stroke="#666666" points="170.5,-536 170.5,-536 213.5,-536 213.5,-536 170.5,-536"/>
<polygon fill="#666666" stroke="#666666" points="170.5,-520 170.5,-520 213.5,-520 213.5,-520 170.5,-520"/>
<polygon fill="none" stroke="#666666" points="170.5,-502 170.5,-554 213.5,-554 213.5,-502 170.5,-502"/>
</a>
</g>
</g>
<!-- Node5&#45;&gt;Node4 -->
<g id="edge4_Node000004_Node000005" class="edge">
<title>Node5&#45;&gt;Node4</title>
<g id="a_edge4_Node000004_Node000005"><a xlink:title=" ">
<path fill="none" stroke="#63b8ff" d="M196.69,-490.87C199.71,-467.68 203.82,-436 207.98,-403.98"/>
<polygon fill="none" stroke="#63b8ff" points="193.24,-490.31 195.42,-500.68 200.18,-491.22 193.24,-490.31"/>
</a>
</g>
</g>
<!-- Node6 -->
<g id="Node000006" class="node">
<title>Node6</title>
<g id="a_Node000006"><a xlink:href="../../d7/dca/class_healthbar.html" target="_top" xlink:title=" ">
<polygon fill="white" stroke="none" points="348.5,-604 231.5,-604 231.5,-452 348.5,-452 348.5,-604"/>
<text text-anchor="start" x="269" y="-590.5" font-family="Helvetica,sans-Serif" font-size="10.00">Healthbar</text>
<text text-anchor="start" x="288.5" y="-574.5" font-family="Helvetica,sans-Serif" font-size="10.00"> </text>
<text text-anchor="start" x="235.5" y="-558.5" font-family="Helvetica,sans-Serif" font-size="10.00">+</text>
<text text-anchor="start" x="245.5" y="-558.5" font-family="Helvetica,sans-Serif" font-size="10.00">override void _Ready()</text>
<text text-anchor="start" x="235.5" y="-542.5" font-family="Helvetica,sans-Serif" font-size="10.00">+</text>
<text text-anchor="start" x="245.5" y="-542.5" font-family="Helvetica,sans-Serif" font-size="10.00">override void _Process</text>
<text text-anchor="start" x="245.5" y="-530.5" font-family="Helvetica,sans-Serif" font-size="10.00">(double delta)</text>
<text text-anchor="start" x="235.5" y="-514.5" font-family="Helvetica,sans-Serif" font-size="10.00">+</text>
<text text-anchor="start" x="245.5" y="-514.5" font-family="Helvetica,sans-Serif" font-size="10.00">void InitHealthbar</text>
<text text-anchor="start" x="245.5" y="-502.5" font-family="Helvetica,sans-Serif" font-size="10.00">(double health)</text>
<text text-anchor="start" x="235.5" y="-486.5" font-family="Helvetica,sans-Serif" font-size="10.00">+</text>
<text text-anchor="start" x="245.5" y="-486.5" font-family="Helvetica,sans-Serif" font-size="10.00">void SetHealthPoints</text>
<text text-anchor="start" x="245.5" y="-474.5" font-family="Helvetica,sans-Serif" font-size="10.00">(double newHealth)</text>
<text text-anchor="start" x="235.5" y="-458.5" font-family="Helvetica,sans-Serif" font-size="10.00">+</text>
<text text-anchor="start" x="245.5" y="-458.5" font-family="Helvetica,sans-Serif" font-size="10.00">void OnTimerTimeout()</text>
<polygon fill="#666666" stroke="#666666" points="231.5,-586 231.5,-586 348.5,-586 348.5,-586 231.5,-586"/>
<polygon fill="#666666" stroke="#666666" points="231.5,-570 231.5,-570 348.5,-570 348.5,-570 231.5,-570"/>
<polygon fill="none" stroke="#666666" points="231.5,-452 231.5,-604 348.5,-604 348.5,-452 231.5,-452"/>
</a>
</g>
</g>
<!-- Node6&#45;&gt;Node4 -->
<g id="edge5_Node000004_Node000006" class="edge">
<title>Node6&#45;&gt;Node4</title>
<g id="a_edge5_Node000004_Node000006"><a xlink:title=" ">
<path fill="none" stroke="#63b8ff" d="M270.85,-452.17C267.93,-440.75 264.83,-428.66 261.69,-416.35"/>
<polygon fill="none" stroke="#63b8ff" points="261.72,-416.5 256.36,-411.68 258.75,-404.87 264.11,-409.69 261.72,-416.5"/>
</a>
</g>
<text text-anchor="middle" x="289.61" y="-424.5" font-family="Helvetica,sans-Serif" font-size="10.00" fill="grey"> +healthbar</text>
</g>
<!-- Node7 -->
<g id="Node000007" class="node">
<title>Node7</title>
<g id="a_Node000007"><a xlink:title=" ">
<polygon fill="white" stroke="none" points="338,-693 242,-693 242,-641 338,-641 338,-693"/>
<text text-anchor="start" x="246.88" y="-679.5" font-family="Helvetica,sans-Serif" font-size="10.00">TextureProgressBar</text>
<text text-anchor="start" x="288.5" y="-663.5" font-family="Helvetica,sans-Serif" font-size="10.00"> </text>
<text text-anchor="start" x="288.5" y="-647.5" font-family="Helvetica,sans-Serif" font-size="10.00"> </text>
<polygon fill="#666666" stroke="#666666" points="242,-675 242,-675 338,-675 338,-675 242,-675"/>
<polygon fill="#666666" stroke="#666666" points="242,-659 242,-659 338,-659 338,-659 242,-659"/>
<polygon fill="none" stroke="#666666" points="242,-641 242,-693 338,-693 338,-641 242,-641"/>
</a>
</g>
</g>
<!-- Node7&#45;&gt;Node6 -->
<g id="edge6_Node000006_Node000007" class="edge">
<title>Node7&#45;&gt;Node6</title>
<g id="a_edge6_Node000006_Node000007"><a xlink:title=" ">
<path fill="none" stroke="#63b8ff" d="M290,-629.92C290,-621.8 290,-612.88 290,-603.81"/>
<polygon fill="none" stroke="#63b8ff" points="286.5,-629.68 290,-639.68 293.5,-629.68 286.5,-629.68"/>
</a>
</g>
</g>
</g>
</svg>
