<?xml version="1.0" encoding="UTF-8" standalone="no"?>
<!DOCTYPE svg PUBLIC "-//W3C//DTD SVG 1.1//EN"
 "http://www.w3.org/Graphics/SVG/1.1/DTD/svg11.dtd">
<!-- Generated by graphviz version 12.1.0 (20240811.2233)
 -->
<!-- Title: RangedAttack Pages: 1 -->
<svg width="246pt" height="256pt"
 viewBox="0.00 0.00 246.39 256.00" xmlns="http://www.w3.org/2000/svg" xmlns:xlink="http://www.w3.org/1999/xlink">

<svg id="main" version="1.1" xmlns="http://www.w3.org/2000/svg" xmlns:xlink="http://www.w3.org/1999/xlink" xml:space="preserve" onload="init(evt)">
<style type="text/css"><![CDATA[
.node, .edge {opacity: 0.7;}
.node.selected, .edge.selected {opacity: 1;}
.edge:hover path { stroke: red; }
.edge:hover polygon { stroke: red; fill: red; }
]]></style>
<script type="application/ecmascript" xlink:href="../../svg.min.js"/>
<svg id="graph" class="graph">
<g id="graph0" class="graph" transform="scale(1 1) rotate(0) translate(4 252)">
<title>RangedAttack</title>
<!-- Node1 -->
<g id="Node000001" class="node">
<title>Node1</title>
<g id="a_Node000001"><a xlink:title=" ">
<polygon fill="#999999" stroke="none" points="153,-148 0,-148 0,0 153,0 153,-148"/>
<text text-anchor="start" x="45.38" y="-134.5" font-family="Helvetica,sans-Serif" font-size="10.00">RangedAttack</text>
<text text-anchor="start" x="75" y="-118.5" font-family="Helvetica,sans-Serif" font-size="10.00"> </text>
<text text-anchor="start" x="4" y="-102.5" font-family="Helvetica,sans-Serif" font-size="10.00">+</text>
<text text-anchor="start" x="14" y="-102.5" font-family="Helvetica,sans-Serif" font-size="10.00">void Init(Attack attack,</text>
<text text-anchor="start" x="14" y="-90.5" font-family="Helvetica,sans-Serif" font-size="10.00"> Vector2 direction)</text>
<text text-anchor="start" x="4" y="-74.5" font-family="Helvetica,sans-Serif" font-size="10.00">+</text>
<text text-anchor="start" x="14" y="-74.5" font-family="Helvetica,sans-Serif" font-size="10.00">override void _PhysicsProcess</text>
<text text-anchor="start" x="14" y="-62.5" font-family="Helvetica,sans-Serif" font-size="10.00">(double delta)</text>
<text text-anchor="start" x="4" y="-46.5" font-family="Helvetica,sans-Serif" font-size="10.00">+</text>
<text text-anchor="start" x="14" y="-46.5" font-family="Helvetica,sans-Serif" font-size="10.00">void OnAreaEntered</text>
<text text-anchor="start" x="14" y="-34.5" font-family="Helvetica,sans-Serif" font-size="10.00">(Area2D area)</text>
<text text-anchor="start" x="4" y="-18.5" font-family="Helvetica,sans-Serif" font-size="10.00">+</text>
<text text-anchor="start" x="14" y="-18.5" font-family="Helvetica,sans-Serif" font-size="10.00">void OnBodyEntered</text>
<text text-anchor="start" x="14" y="-6.5" font-family="Helvetica,sans-Serif" font-size="10.00">(Node2D body)</text>
<polygon fill="#666666" stroke="#666666" points="0,-130 0,-130 153,-130 153,-130 0,-130"/>
<polygon fill="#666666" stroke="#666666" points="0,-114 0,-114 153,-114 153,-114 0,-114"/>
<polygon fill="none" stroke="#666666" points="0,0 0,-148 153,-148 153,0 0,0"/>
</a>
</g>
</g>
<!-- Node2 -->
<g id="Node000002" class="node">
<title>Node2</title>
<g id="a_Node000002"><a xlink:href="../../dc/df8/class_area2_d.html" target="_top" xlink:title=" ">
<polygon fill="white" stroke="none" points="44,-248 1,-248 1,-196 44,-196 44,-248"/>
<text text-anchor="start" x="6" y="-234.5" font-family="Helvetica,sans-Serif" font-size="10.00">Area2D</text>
<text text-anchor="start" x="21" y="-218.5" font-family="Helvetica,sans-Serif" font-size="10.00"> </text>
<text text-anchor="start" x="21" y="-202.5" font-family="Helvetica,sans-Serif" font-size="10.00"> </text>
<polygon fill="#666666" stroke="#666666" points="1,-230 1,-230 44,-230 44,-230 1,-230"/>
<polygon fill="#666666" stroke="#666666" points="1,-214 1,-214 44,-214 44,-214 1,-214"/>
<polygon fill="none" stroke="#666666" points="1,-196 1,-248 44,-248 44,-196 1,-196"/>
</a>
</g>
</g>
<!-- Node2&#45;&gt;Node1 -->
<g id="edge1_Node000001_Node000002" class="edge">
<title>Node2&#45;&gt;Node1</title>
<g id="a_edge1_Node000001_Node000002"><a xlink:title=" ">
<path fill="none" stroke="#63b8ff" d="M35.53,-185.78C39.79,-174.26 44.69,-161 49.59,-147.76"/>
<polygon fill="none" stroke="#63b8ff" points="32.37,-184.22 32.19,-194.81 38.94,-186.65 32.37,-184.22"/>
</a>
</g>
</g>
<!-- Node3 -->
<g id="Node000003" class="node">
<title>Node3</title>
<g id="a_Node000003"><a xlink:title=" ">
<polygon fill="white" stroke="none" points="90.5,-248 62.5,-248 62.5,-196 90.5,-196 90.5,-248"/>
<text text-anchor="start" x="67.12" y="-234.5" font-family="Helvetica,sans-Serif" font-size="10.00">float</text>
<text text-anchor="start" x="75" y="-218.5" font-family="Helvetica,sans-Serif" font-size="10.00"> </text>
<text text-anchor="start" x="75" y="-202.5" font-family="Helvetica,sans-Serif" font-size="10.00"> </text>
<polygon fill="#666666" stroke="#666666" points="62.5,-230 62.5,-230 90.5,-230 90.5,-230 62.5,-230"/>
<polygon fill="#666666" stroke="#666666" points="62.5,-214 62.5,-214 90.5,-214 90.5,-214 62.5,-214"/>
<polygon fill="none" stroke="#666666" points="62.5,-196 62.5,-248 90.5,-248 90.5,-196 62.5,-196"/>
</a>
</g>
</g>
<!-- Node3&#45;&gt;Node1 -->
<g id="edge2_Node000001_Node000003" class="edge">
<title>Node3&#45;&gt;Node1</title>
<g id="a_edge2_Node000001_Node000003"><a xlink:title=" ">
<path fill="none" stroke="#63b8ff" d="M76.5,-196.23C76.5,-186.1 76.5,-173.73 76.5,-160.81"/>
<polygon fill="none" stroke="#63b8ff" points="76.5,-160.66 72.5,-154.66 76.5,-148.66 80.5,-154.66 76.5,-160.66"/>
</a>
</g>
<text text-anchor="middle" x="98.25" y="-168.5" font-family="Helvetica,sans-Serif" font-size="10.00" fill="grey"> +SPEED</text>
</g>
<!-- Node4 -->
<g id="Node000004" class="node">
<title>Node4</title>
<g id="a_Node000004"><a xlink:title=" ">
<polygon fill="white" stroke="none" points="162.5,-248 124.5,-248 124.5,-196 162.5,-196 162.5,-248"/>
<text text-anchor="start" x="129.25" y="-234.5" font-family="Helvetica,sans-Serif" font-size="10.00">double</text>
<text text-anchor="start" x="142" y="-218.5" font-family="Helvetica,sans-Serif" font-size="10.00"> </text>
<text text-anchor="start" x="142" y="-202.5" font-family="Helvetica,sans-Serif" font-size="10.00"> </text>
<polygon fill="#666666" stroke="#666666" points="124.5,-230 124.5,-230 162.5,-230 162.5,-230 124.5,-230"/>
<polygon fill="#666666" stroke="#666666" points="124.5,-214 124.5,-214 162.5,-214 162.5,-214 124.5,-214"/>
<polygon fill="none" stroke="#666666" points="124.5,-196 124.5,-248 162.5,-248 162.5,-196 124.5,-196"/>
</a>
</g>
</g>
<!-- Node4&#45;&gt;Node1 -->
<g id="edge3_Node000001_Node000004" class="edge">
<title>Node4&#45;&gt;Node1</title>
<g id="a_edge3_Node000001_Node000004"><a xlink:title=" ">
<path fill="none" stroke="#63b8ff" d="M134.05,-196.19C130.31,-186.67 125.86,-175.77 121.5,-166 120.54,-163.86 119.57,-161.7 118.57,-159.52"/>
<polygon fill="none" stroke="#63b8ff" points="118.55,-159.47 112.4,-155.72 113.5,-148.59 119.65,-152.35 118.55,-159.47"/>
</a>
</g>
<text text-anchor="middle" x="182.52" y="-168.5" font-family="Helvetica,sans-Serif" font-size="10.00" fill="grey"> +MaxLifeTimeInSeconds</text>
</g>
</g>
</svg>
</svg>

<style type='text/css'>
<![CDATA[
[data-mouse-over-selected='false'] { opacity: 0.7; }
[data-mouse-over-selected='true']  { opacity: 1.0; }
]]>
</style>
<script type="application/ecmascript"><![CDATA[
document.addEventListener('DOMContentLoaded', (event) => {
  highlightEdges();
  highlightAdjacentNodes();
});
]]></script>
</svg>
