<?xml version="1.0" encoding="UTF-8" standalone="no"?>
<!DOCTYPE svg PUBLIC "-//W3C//DTD SVG 1.1//EN"
 "http://www.w3.org/Graphics/SVG/1.1/DTD/svg11.dtd">
<!-- Generated by graphviz version 12.1.0 (20240811.2233)
 -->
<!-- Title: PlayerDashing Pages: 1 -->
<svg width="352pt" height="464pt"
 viewBox="0.00 0.00 351.61 464.00" xmlns="http://www.w3.org/2000/svg" xmlns:xlink="http://www.w3.org/1999/xlink">
<g id="graph0" class="graph" transform="scale(1 1) rotate(0) translate(4 460)">
<title>PlayerDashing</title>
<!-- Node1 -->
<g id="Node000001" class="node">
<title>Node1</title>
<g id="a_Node000001"><a xlink:title=" ">
<polygon fill="#999999" stroke="none" points="284.5,-112 122.5,-112 122.5,0 284.5,0 284.5,-112"/>
<text text-anchor="start" x="171.62" y="-98.5" font-family="Helvetica,sans-Serif" font-size="10.00">PlayerDashing</text>
<text text-anchor="start" x="202" y="-82.5" font-family="Helvetica,sans-Serif" font-size="10.00"> </text>
<text text-anchor="start" x="126.5" y="-66.5" font-family="Helvetica,sans-Serif" font-size="10.00">+</text>
<text text-anchor="start" x="136.5" y="-66.5" font-family="Helvetica,sans-Serif" font-size="10.00">override void Enter()</text>
<text text-anchor="start" x="126.5" y="-50.5" font-family="Helvetica,sans-Serif" font-size="10.00">+</text>
<text text-anchor="start" x="136.5" y="-50.5" font-family="Helvetica,sans-Serif" font-size="10.00">override void Exit()</text>
<text text-anchor="start" x="126.5" y="-34.5" font-family="Helvetica,sans-Serif" font-size="10.00">+</text>
<text text-anchor="start" x="136.5" y="-34.5" font-family="Helvetica,sans-Serif" font-size="10.00">override State ProcessPhysics</text>
<text text-anchor="start" x="136.5" y="-22.5" font-family="Helvetica,sans-Serif" font-size="10.00">(double delta)</text>
<text text-anchor="start" x="126.5" y="-6.5" font-family="Helvetica,sans-Serif" font-size="10.00">+</text>
<text text-anchor="start" x="136.5" y="-6.5" font-family="Helvetica,sans-Serif" font-size="10.00">override void UpdateAnimations()</text>
<polygon fill="#666666" stroke="#666666" points="122.5,-94 122.5,-94 284.5,-94 284.5,-94 122.5,-94"/>
<polygon fill="#666666" stroke="#666666" points="122.5,-78 122.5,-78 284.5,-78 284.5,-78 122.5,-78"/>
<polygon fill="none" stroke="#666666" points="122.5,0 122.5,-112 284.5,-112 284.5,0 122.5,0"/>
</a>
</g>
</g>
<!-- Node2 -->
<g id="Node000002" class="node">
<title>Node2</title>
<g id="a_Node000002"><a xlink:href="../../d0/d8b/class_state.html" target="_top" xlink:title=" ">
<polygon fill="white" stroke="none" points="172.5,-356 18.5,-356 18.5,-172 172.5,-172 172.5,-356"/>
<text text-anchor="start" x="83.88" y="-342.5" font-family="Helvetica,sans-Serif" font-size="10.00">State</text>
<text text-anchor="start" x="94" y="-326.5" font-family="Helvetica,sans-Serif" font-size="10.00"> </text>
<text text-anchor="start" x="22.5" y="-310.5" font-family="Helvetica,sans-Serif" font-size="10.00">+</text>
<text text-anchor="start" x="32.5" y="-310.5" font-family="Helvetica,sans-Serif" font-size="10.00">virtual bool CanEnter()</text>
<text text-anchor="start" x="22.5" y="-294.5" font-family="Helvetica,sans-Serif" font-size="10.00">+</text>
<text text-anchor="start" x="32.5" y="-294.5" font-family="Helvetica,sans-Serif" font-size="10.00">virtual void Enter()</text>
<text text-anchor="start" x="22.5" y="-278.5" font-family="Helvetica,sans-Serif" font-size="10.00">+</text>
<text text-anchor="start" x="32.5" y="-278.5" font-family="Helvetica,sans-Serif" font-size="10.00">virtual void Exit()</text>
<text text-anchor="start" x="22.5" y="-262.5" font-family="Helvetica,sans-Serif" font-size="10.00">+</text>
<text text-anchor="start" x="32.5" y="-262.5" font-family="Helvetica,sans-Serif" font-size="10.00">virtual State ProcessInput</text>
<text text-anchor="start" x="32.5" y="-250.5" font-family="Helvetica,sans-Serif" font-size="10.00">(InputEvent @event)</text>
<text text-anchor="start" x="22.5" y="-234.5" font-family="Helvetica,sans-Serif" font-size="10.00">+</text>
<text text-anchor="start" x="32.5" y="-234.5" font-family="Helvetica,sans-Serif" font-size="10.00">virtual State ProcessFrame</text>
<text text-anchor="start" x="32.5" y="-222.5" font-family="Helvetica,sans-Serif" font-size="10.00">(double delta)</text>
<text text-anchor="start" x="22.5" y="-206.5" font-family="Helvetica,sans-Serif" font-size="10.00">+</text>
<text text-anchor="start" x="32.5" y="-206.5" font-family="Helvetica,sans-Serif" font-size="10.00">virtual State ProcessPhysics</text>
<text text-anchor="start" x="32.5" y="-194.5" font-family="Helvetica,sans-Serif" font-size="10.00">(double delta)</text>
<text text-anchor="start" x="22.5" y="-178.5" font-family="Helvetica,sans-Serif" font-size="10.00">+</text>
<text text-anchor="start" x="32.5" y="-178.5" font-family="Helvetica,sans-Serif" font-size="10.00">virtual void UpdateAnimations()</text>
<polygon fill="#666666" stroke="#666666" points="18.5,-338 18.5,-338 172.5,-338 172.5,-338 18.5,-338"/>
<polygon fill="#666666" stroke="#666666" points="18.5,-322 18.5,-322 172.5,-322 172.5,-322 18.5,-322"/>
<polygon fill="none" stroke="#666666" points="18.5,-172 18.5,-356 172.5,-356 172.5,-172 18.5,-172"/>
</a>
</g>
</g>
<!-- Node2&#45;&gt;Node1 -->
<g id="edge1_Node000001_Node000002" class="edge">
<title>Node2&#45;&gt;Node1</title>
<g id="a_edge1_Node000001_Node000002"><a xlink:title=" ">
<path fill="none" stroke="#63b8ff" d="M134.41,-161.75C139.46,-150.86 144.86,-140.08 150.5,-130 153.86,-123.99 157.64,-117.88 161.58,-111.9"/>
<polygon fill="none" stroke="#63b8ff" points="131.23,-160.28 130.29,-170.83 137.61,-163.17 131.23,-160.28"/>
</a>
</g>
</g>
<!-- Node2&#45;&gt;Node1 -->
<g id="edge7_Node000001_Node000002" class="edge">
<title>Node2&#45;&gt;Node1</title>
<g id="a_edge7_Node000001_Node000002"><a xlink:title=" ">
<path fill="none" stroke="#63b8ff" d="M143.18,-172.05C151.74,-155.73 160.51,-139 168.62,-123.53"/>
<polygon fill="none" stroke="#63b8ff" points="168.69,-123.4 167.93,-116.23 174.26,-112.77 175.02,-119.95 168.69,-123.4"/>
</a>
</g>
<text text-anchor="middle" x="174.72" y="-138.5" font-family="Helvetica,sans-Serif" font-size="10.00" fill="grey"> +Idle</text>
</g>
<!-- Node3 -->
<g id="Node000003" class="node">
<title>Node3</title>
<g id="a_Node000003"><a xlink:href="../../dc/d8f/class_node.html" target="_top" xlink:title=" ">
<polygon fill="white" stroke="none" points="33,-456 0,-456 0,-404 33,-404 33,-456"/>
<text text-anchor="start" x="4.88" y="-442.5" font-family="Helvetica,sans-Serif" font-size="10.00">Node</text>
<text text-anchor="start" x="15" y="-426.5" font-family="Helvetica,sans-Serif" font-size="10.00"> </text>
<text text-anchor="start" x="15" y="-410.5" font-family="Helvetica,sans-Serif" font-size="10.00"> </text>
<polygon fill="#666666" stroke="#666666" points="0,-438 0,-438 33,-438 33,-438 0,-438"/>
<polygon fill="#666666" stroke="#666666" points="0,-422 0,-422 33,-422 33,-422 0,-422"/>
<polygon fill="none" stroke="#666666" points="0,-404 0,-456 33,-456 33,-404 0,-404"/>
</a>
</g>
</g>
<!-- Node3&#45;&gt;Node2 -->
<g id="edge2_Node000002_Node000003" class="edge">
<title>Node3&#45;&gt;Node2</title>
<g id="a_edge2_Node000002_Node000003"><a xlink:title=" ">
<path fill="none" stroke="#63b8ff" d="M33.45,-393.81C38.92,-382.46 45.25,-369.31 51.74,-355.84"/>
<polygon fill="none" stroke="#63b8ff" points="30.34,-392.2 29.16,-402.73 36.65,-395.24 30.34,-392.2"/>
</a>
</g>
</g>
<!-- Node4 -->
<g id="Node000004" class="node">
<title>Node4</title>
<g id="a_Node000004"><a xlink:title=" ">
<polygon fill="white" stroke="none" points="139.5,-456 51.5,-456 51.5,-404 139.5,-404 139.5,-456"/>
<text text-anchor="start" x="56.5" y="-442.5" font-family="Helvetica,sans-Serif" font-size="10.00">CharacterBody2D</text>
<text text-anchor="start" x="94" y="-426.5" font-family="Helvetica,sans-Serif" font-size="10.00"> </text>
<text text-anchor="start" x="94" y="-410.5" font-family="Helvetica,sans-Serif" font-size="10.00"> </text>
<polygon fill="#666666" stroke="#666666" points="51.5,-438 51.5,-438 139.5,-438 139.5,-438 51.5,-438"/>
<polygon fill="#666666" stroke="#666666" points="51.5,-422 51.5,-422 139.5,-422 139.5,-422 51.5,-422"/>
<polygon fill="none" stroke="#666666" points="51.5,-404 51.5,-456 139.5,-456 139.5,-404 51.5,-404"/>
</a>
</g>
</g>
<!-- Node4&#45;&gt;Node2 -->
<g id="edge3_Node000002_Node000004" class="edge">
<title>Node4&#45;&gt;Node2</title>
<g id="a_edge3_Node000002_Node000004"><a xlink:title=" ">
<path fill="none" stroke="#63b8ff" d="M95.5,-404.09C95.5,-394.04 95.5,-381.72 95.5,-368.61"/>
<polygon fill="none" stroke="#63b8ff" points="95.5,-368.74 91.5,-362.74 95.5,-356.74 99.5,-362.74 95.5,-368.74"/>
</a>
</g>
<text text-anchor="middle" x="114.25" y="-376.5" font-family="Helvetica,sans-Serif" font-size="10.00" fill="grey"> +Parent</text>
</g>
<!-- Node5 -->
<g id="Node000005" class="node">
<title>Node5</title>
<g id="a_Node000005"><a xlink:title=" ">
<polygon fill="white" stroke="none" points="239,-456 158,-456 158,-404 239,-404 239,-456"/>
<text text-anchor="start" x="162.88" y="-442.5" font-family="Helvetica,sans-Serif" font-size="10.00">AnimationPlayer</text>
<text text-anchor="start" x="197" y="-426.5" font-family="Helvetica,sans-Serif" font-size="10.00"> </text>
<text text-anchor="start" x="197" y="-410.5" font-family="Helvetica,sans-Serif" font-size="10.00"> </text>
<polygon fill="#666666" stroke="#666666" points="158,-438 158,-438 239,-438 239,-438 158,-438"/>
<polygon fill="#666666" stroke="#666666" points="158,-422 158,-422 239,-422 239,-422 158,-422"/>
<polygon fill="none" stroke="#666666" points="158,-404 158,-456 239,-456 239,-404 158,-404"/>
</a>
</g>
</g>
<!-- Node5&#45;&gt;Node2 -->
<g id="edge4_Node000002_Node000005" class="edge">
<title>Node5&#45;&gt;Node2</title>
<g id="a_edge4_Node000002_Node000005"><a xlink:title=" ">
<path fill="none" stroke="#63b8ff" d="M182.86,-404.09C176.22,-393.52 168,-380.44 159.29,-366.57"/>
<polygon fill="none" stroke="#63b8ff" points="159.41,-366.76 152.83,-363.81 153.03,-356.6 159.61,-359.55 159.41,-366.76"/>
</a>
</g>
<text text-anchor="middle" x="199.75" y="-376.5" font-family="Helvetica,sans-Serif" font-size="10.00" fill="grey"> +Animations</text>
</g>
<!-- Node6 -->
<g id="Node000006" class="node">
<title>Node6</title>
<g id="a_Node000006"><a xlink:title=" ">
<polygon fill="white" stroke="none" points="278.5,-290 190.5,-290 190.5,-238 278.5,-238 278.5,-290"/>
<text text-anchor="start" x="195.5" y="-276.5" font-family="Helvetica,sans-Serif" font-size="10.00">CollisionShape2D</text>
<text text-anchor="start" x="233" y="-260.5" font-family="Helvetica,sans-Serif" font-size="10.00"> </text>
<text text-anchor="start" x="233" y="-244.5" font-family="Helvetica,sans-Serif" font-size="10.00"> </text>
<polygon fill="#666666" stroke="#666666" points="190.5,-272 190.5,-272 278.5,-272 278.5,-272 190.5,-272"/>
<polygon fill="#666666" stroke="#666666" points="190.5,-256 190.5,-256 278.5,-256 278.5,-256 190.5,-256"/>
<polygon fill="none" stroke="#666666" points="190.5,-238 190.5,-290 278.5,-290 278.5,-238 190.5,-238"/>
</a>
</g>
</g>
<!-- Node6&#45;&gt;Node1 -->
<g id="edge5_Node000001_Node000006" class="edge">
<title>Node6&#45;&gt;Node1</title>
<g id="a_edge5_Node000001_Node000006"><a xlink:title=" ">
<path fill="none" stroke="#63b8ff" d="M230.76,-238.15C226.55,-210.17 219.53,-163.53 213.67,-124.59"/>
<polygon fill="none" stroke="#63b8ff" points="213.65,-124.47 208.8,-119.13 211.87,-112.6 216.72,-117.94 213.65,-124.47"/>
</a>
</g>
<text text-anchor="middle" x="237.57" y="-138.5" font-family="Helvetica,sans-Serif" font-size="10.00" fill="grey"> +HitBox</text>
</g>
<!-- Node7 -->
<g id="Node000007" class="node">
<title>Node7</title>
<g id="a_Node000007"><a xlink:title=" ">
<polygon fill="white" stroke="none" points="334.5,-290 296.5,-290 296.5,-238 334.5,-238 334.5,-290"/>
<text text-anchor="start" x="301.25" y="-276.5" font-family="Helvetica,sans-Serif" font-size="10.00">double</text>
<text text-anchor="start" x="314" y="-260.5" font-family="Helvetica,sans-Serif" font-size="10.00"> </text>
<text text-anchor="start" x="314" y="-244.5" font-family="Helvetica,sans-Serif" font-size="10.00"> </text>
<polygon fill="#666666" stroke="#666666" points="296.5,-272 296.5,-272 334.5,-272 334.5,-272 296.5,-272"/>
<polygon fill="#666666" stroke="#666666" points="296.5,-256 296.5,-256 334.5,-256 334.5,-256 296.5,-256"/>
<polygon fill="none" stroke="#666666" points="296.5,-238 296.5,-290 334.5,-290 334.5,-238 296.5,-238"/>
</a>
</g>
</g>
<!-- Node7&#45;&gt;Node1 -->
<g id="edge6_Node000001_Node000007" class="edge">
<title>Node7&#45;&gt;Node1</title>
<g id="a_edge6_Node000001_Node000007"><a xlink:title=" ">
<path fill="none" stroke="#63b8ff" d="M309.66,-238.04C304.87,-219.39 297.28,-193.52 287.5,-172 279.73,-154.9 269.18,-137.82 258.17,-122.26"/>
<polygon fill="none" stroke="#63b8ff" points="258.11,-122.17 251.34,-119.68 251.04,-112.47 257.81,-114.96 258.11,-122.17"/>
</a>
</g>
<text text-anchor="middle" x="310.24" y="-144.5" font-family="Helvetica,sans-Serif" font-size="10.00" fill="grey"> +DASH_TIME</text>
<text text-anchor="middle" x="310.24" y="-132.5" font-family="Helvetica,sans-Serif" font-size="10.00" fill="grey">+SPEED</text>
</g>
</g>
</svg>
