<?xml version="1.0" encoding="UTF-8" standalone="no"?>
<!DOCTYPE svg PUBLIC "-//W3C//DTD SVG 1.1//EN"
 "http://www.w3.org/Graphics/SVG/1.1/DTD/svg11.dtd">
<!-- Generated by graphviz version 12.1.0 (20240811.2233)
 -->
<!-- Title: TextureButton Pages: 1 -->
<svg width="188pt" height="192pt"
 viewBox="0.00 0.00 188.00 192.00" xmlns="http://www.w3.org/2000/svg" xmlns:xlink="http://www.w3.org/1999/xlink">

<svg id="main" version="1.1" xmlns="http://www.w3.org/2000/svg" xmlns:xlink="http://www.w3.org/1999/xlink" xml:space="preserve" onload="init(evt)">
<style type="text/css"><![CDATA[
.node, .edge {opacity: 0.7;}
.node.selected, .edge.selected {opacity: 1;}
.edge:hover path { stroke: red; }
.edge:hover polygon { stroke: red; fill: red; }
]]></style>
<script type="application/ecmascript" xlink:href="../../svg.min.js"/>
<svg id="graph" class="graph">
<g id="graph0" class="graph" transform="scale(1 1) rotate(0) translate(4 188)">
<title>TextureButton</title>
<!-- Node1 -->
<g id="Node000001" class="node">
<title>Node1</title>
<g id="a_Node000001"><a xlink:title=" ">
<polygon fill="#999999" stroke="none" points="125,-184 55,-184 55,-132 125,-132 125,-184"/>
<text text-anchor="start" x="59.62" y="-170.5" font-family="Helvetica,sans-Serif" font-size="10.00">TextureButton</text>
<text text-anchor="start" x="88.5" y="-154.5" font-family="Helvetica,sans-Serif" font-size="10.00"> </text>
<text text-anchor="start" x="88.5" y="-138.5" font-family="Helvetica,sans-Serif" font-size="10.00"> </text>
<polygon fill="#666666" stroke="#666666" points="55,-166 55,-166 125,-166 125,-166 55,-166"/>
<polygon fill="#666666" stroke="#666666" points="55,-150 55,-150 125,-150 125,-150 55,-150"/>
<polygon fill="none" stroke="#666666" points="55,-132 55,-184 125,-184 125,-132 55,-132"/>
</a>
</g>
</g>
<!-- Node2 -->
<g id="Node000002" class="node">
<title>Node2</title>
<g id="a_Node000002"><a xlink:href="../../d6/d09/class_magic_type_selection_button.html" target="_top" xlink:title=" ">
<polygon fill="white" stroke="none" points="180,-96 0,-96 0,0 180,0 180,-96"/>
<text text-anchor="start" x="31.88" y="-82.5" font-family="Helvetica,sans-Serif" font-size="10.00">MagicTypeSelectionButton</text>
<text text-anchor="start" x="4" y="-66.5" font-family="Helvetica,sans-Serif" font-size="10.00">+</text>
<text text-anchor="start" x="14" y="-66.5" font-family="Helvetica,sans-Serif" font-size="10.00">MagicType MagicType</text>
<text text-anchor="start" x="4" y="-50.5" font-family="Helvetica,sans-Serif" font-size="10.00">+</text>
<text text-anchor="start" x="14" y="-50.5" font-family="Helvetica,sans-Serif" font-size="10.00">SpellName SpellName</text>
<text text-anchor="start" x="4" y="-34.5" font-family="Helvetica,sans-Serif" font-size="10.00">+</text>
<text text-anchor="start" x="14" y="-34.5" font-family="Helvetica,sans-Serif" font-size="10.00">delegate void MagicTypeSelected</text>
<text text-anchor="start" x="14" y="-22.5" font-family="Helvetica,sans-Serif" font-size="10.00">EventHandler(MagicType magicType)</text>
<text text-anchor="start" x="4" y="-6.5" font-family="Helvetica,sans-Serif" font-size="10.00">+</text>
<text text-anchor="start" x="14" y="-6.5" font-family="Helvetica,sans-Serif" font-size="10.00">override void _Ready()</text>
<polygon fill="#666666" stroke="#666666" points="0,-78 0,-78 180,-78 180,-78 0,-78"/>
<polygon fill="#666666" stroke="#666666" points="0,-46 0,-46 12,-46 12,-46 0,-46"/>
<polygon fill="#666666" stroke="#666666" points="12,-46 12,-46 180,-46 180,-46 12,-46"/>
<polygon fill="none" stroke="#666666" points="0,0 0,-96 180,-96 180,0 0,0"/>
</a>
</g>
</g>
<!-- Node1&#45;&gt;Node2 -->
<g id="edge1_Node000001_Node000002" class="edge">
<title>Node1&#45;&gt;Node2</title>
<g id="a_edge1_Node000001_Node000002"><a xlink:title=" ">
<path fill="none" stroke="#63b8ff" d="M90,-120.93C90,-112.86 90,-104.19 90,-95.75"/>
<polygon fill="none" stroke="#63b8ff" points="86.5,-120.71 90,-130.71 93.5,-120.71 86.5,-120.71"/>
</a>
</g>
</g>
</g>
</svg>
</svg>

<style type='text/css'>
<![CDATA[
[data-mouse-over-selected='false'] { opacity: 0.7; }
[data-mouse-over-selected='true']  { opacity: 1.0; }
]]>
</style>
<script type="application/ecmascript"><![CDATA[
document.addEventListener('DOMContentLoaded', (event) => {
  highlightEdges();
  highlightAdjacentNodes();
});
]]></script>
</svg>
