<?xml version="1.0" encoding="UTF-8" standalone="no"?>
<!DOCTYPE svg PUBLIC "-//W3C//DTD SVG 1.1//EN"
 "http://www.w3.org/Graphics/SVG/1.1/DTD/svg11.dtd">
<!-- Generated by graphviz version 12.1.0 (20240811.2233)
 -->
<!-- Title: Slime Pages: 1 -->
<!--zoomable 932 -->

<svg id="main" version="1.1" xmlns="http://www.w3.org/2000/svg" xmlns:xlink="http://www.w3.org/1999/xlink" xml:space="preserve" onload="init(evt)">
<style type="text/css"><![CDATA[
.node, .edge {opacity: 0.7;}
.node.selected, .edge.selected {opacity: 1;}
.edge:hover path { stroke: red; }
.edge:hover polygon { stroke: red; fill: red; }
]]></style>

<defs>
  <circle id="rim" cx="0" cy="0" r="7"/>
  <circle id="rim2" cx="0" cy="0" r="3.5"/>
  <g id="zoomPlus">
    <use xlink:href="#rim" fill="#404040"><set attributeName="fill" to="#808080" begin="zoomplus.mouseover" end="zoomplus.mouseout"/></use>
    <path d="M-4,0h8M0,-4v8" fill="none" stroke="white" stroke-width="1.5" pointer-events="none"/>
  </g>
  <g id="zoomMin">
    <use xlink:href="#rim" fill="#404040"><set attributeName="fill" to="#808080" begin="zoomminus.mouseover" end="zoomminus.mouseout"/></use>
    <path d="M-4,0h8" fill="none" stroke="white" stroke-width="1.5" pointer-events="none"/>
  </g>
  <g id="arrowUp" transform="translate(30 24)">
    <use xlink:href="#rim"/>
    <path pointer-events="none" fill="none" stroke="white" stroke-width="1.5" d="M0,-3.0v7 M-2.5,-0.5L0,-3.0L2.5,-0.5"/>
  </g>
  <g id="arrowRight" transform="rotate(90) translate(36 -43)">
    <use xlink:href="#rim"/>
    <path pointer-events="none" fill="none" stroke="white" stroke-width="1.5" d="M0,-3.0v7 M-2.5,-0.5L0,-3.0L2.5,-0.5"/>
  </g>
  <g id="arrowDown" transform="rotate(180) translate(-30 -48)">
    <use xlink:href="#rim"/>
    <path pointer-events="none" fill="none" stroke="white" stroke-width="1.5" d="M0,-3.0v7 M-2.5,-0.5L0,-3.0L2.5,-0.5"/>
  </g>
  <g id="arrowLeft" transform="rotate(270) translate(-36 17)">
    <use xlink:href="#rim"/>
    <path pointer-events="none" fill="none" stroke="white" stroke-width="1.5" d="M0,-3.0v7 M-2.5,-0.5L0,-3.0L2.5,-0.5"/>
  </g>
  <g id="resetDef">
    <use xlink:href="#rim2" fill="#404040"><set attributeName="fill" to="#808080" begin="reset.mouseover" end="reset.mouseout"/></use>
  </g>
</defs>
<script type="application/ecmascript">
var viewWidth = 455;
var viewHeight = 932;
var sectionId = 'dynsection-1';
</script>
<script type="application/ecmascript" xlink:href="../../svg.min.js"/>
<svg id="graph" class="graph">
<g id="viewport">
<title>Slime</title>
<!-- Node1 -->
<g id="Node000001" class="node">
<title>Node1</title>
<g id="a_Node000001"><a xlink:title=" ">
<polygon fill="#999999" stroke="none" points="364,-280 194,-280 194,0 364,0 364,-280"/>
<text text-anchor="start" x="266.62" y="-266.5" font-family="Helvetica,sans-Serif" font-size="10.00">Slime</text>
<text text-anchor="start" x="277.5" y="-250.5" font-family="Helvetica,sans-Serif" font-size="10.00"> </text>
<text text-anchor="start" x="198" y="-234.5" font-family="Helvetica,sans-Serif" font-size="10.00">+</text>
<text text-anchor="start" x="208" y="-234.5" font-family="Helvetica,sans-Serif" font-size="10.00">override void _Ready()</text>
<text text-anchor="start" x="198" y="-218.5" font-family="Helvetica,sans-Serif" font-size="10.00">+</text>
<text text-anchor="start" x="208" y="-218.5" font-family="Helvetica,sans-Serif" font-size="10.00">override void _Process</text>
<text text-anchor="start" x="208" y="-206.5" font-family="Helvetica,sans-Serif" font-size="10.00">(double delta)</text>
<text text-anchor="start" x="198" y="-190.5" font-family="Helvetica,sans-Serif" font-size="10.00">+</text>
<text text-anchor="start" x="208" y="-190.5" font-family="Helvetica,sans-Serif" font-size="10.00">override void _PhysicsProcess</text>
<text text-anchor="start" x="208" y="-178.5" font-family="Helvetica,sans-Serif" font-size="10.00">(double delta)</text>
<text text-anchor="start" x="198" y="-162.5" font-family="Helvetica,sans-Serif" font-size="10.00">+</text>
<text text-anchor="start" x="208" y="-162.5" font-family="Helvetica,sans-Serif" font-size="10.00">void SetSlimeProperties</text>
<text text-anchor="start" x="208" y="-150.5" font-family="Helvetica,sans-Serif" font-size="10.00">(MagicType magicType,</text>
<text text-anchor="start" x="208" y="-138.5" font-family="Helvetica,sans-Serif" font-size="10.00"> SlimeSize slimeSize, SlimeAttack</text>
<text text-anchor="start" x="208" y="-126.5" font-family="Helvetica,sans-Serif" font-size="10.00">Range slimeAttackRange, Vector2</text>
<text text-anchor="start" x="208" y="-114.5" font-family="Helvetica,sans-Serif" font-size="10.00"> slimePosition)</text>
<text text-anchor="start" x="198" y="-98.5" font-family="Helvetica,sans-Serif" font-size="10.00">+</text>
<text text-anchor="start" x="208" y="-98.5" font-family="Helvetica,sans-Serif" font-size="10.00">MagicType GetMagicType()</text>
<text text-anchor="start" x="198" y="-82.5" font-family="Helvetica,sans-Serif" font-size="10.00">+</text>
<text text-anchor="start" x="208" y="-82.5" font-family="Helvetica,sans-Serif" font-size="10.00">SlimeAttackRange GetSlime</text>
<text text-anchor="start" x="208" y="-70.5" font-family="Helvetica,sans-Serif" font-size="10.00">AttackRange()</text>
<text text-anchor="start" x="198" y="-54.5" font-family="Helvetica,sans-Serif" font-size="10.00">+</text>
<text text-anchor="start" x="208" y="-54.5" font-family="Helvetica,sans-Serif" font-size="10.00">SlimeSize GetSlimeSize()</text>
<text text-anchor="start" x="198" y="-38.5" font-family="Helvetica,sans-Serif" font-size="10.00">+</text>
<text text-anchor="start" x="208" y="-38.5" font-family="Helvetica,sans-Serif" font-size="10.00">float GetViewRange()</text>
<text text-anchor="start" x="198" y="-22.5" font-family="Helvetica,sans-Serif" font-size="10.00">+</text>
<text text-anchor="start" x="208" y="-22.5" font-family="Helvetica,sans-Serif" font-size="10.00">float GetAttackRangeValue()</text>
<text text-anchor="start" x="198" y="-6.5" font-family="Helvetica,sans-Serif" font-size="10.00">+</text>
<text text-anchor="start" x="208" y="-6.5" font-family="Helvetica,sans-Serif" font-size="10.00">float GetDamageValue()</text>
<polygon fill="#666666" stroke="#666666" points="194,-262 194,-262 364,-262 364,-262 194,-262"/>
<polygon fill="#666666" stroke="#666666" points="194,-246 194,-246 364,-246 364,-246 194,-246"/>
<polygon fill="none" stroke="#666666" points="194,0 194,-280 364,-280 364,0 194,0"/>
</a>
</g>
</g>
<!-- Node2 -->
<g id="Node000002" class="node">
<title>Node2</title>
<g id="a_Node000002"><a xlink:title=" ">
<polygon fill="white" stroke="none" points="88,-924 0,-924 0,-872 88,-872 88,-924"/>
<text text-anchor="start" x="5" y="-910.5" font-family="Helvetica,sans-Serif" font-size="10.00">CharacterBody2D</text>
<text text-anchor="start" x="42.5" y="-894.5" font-family="Helvetica,sans-Serif" font-size="10.00"> </text>
<text text-anchor="start" x="42.5" y="-878.5" font-family="Helvetica,sans-Serif" font-size="10.00"> </text>
<polygon fill="#666666" stroke="#666666" points="0,-906 0,-906 88,-906 88,-906 0,-906"/>
<polygon fill="#666666" stroke="#666666" points="0,-890 0,-890 88,-890 88,-890 0,-890"/>
<polygon fill="none" stroke="#666666" points="0,-872 0,-924 88,-924 88,-872 0,-872"/>
</a>
</g>
</g>
<!-- Node2&#45;&gt;Node1 -->
<g id="edge1_Node000001_Node000002" class="edge">
<title>Node2&#45;&gt;Node1</title>
<g id="a_edge1_Node000001_Node000002"><a xlink:title=" ">
<path fill="none" stroke="#63b8ff" d="M46,-860.75C51.62,-775.71 71.48,-557.72 134,-388 149.34,-346.36 171.61,-303.73 194.11,-265.86"/>
<polygon fill="none" stroke="#63b8ff" points="42.51,-860.37 45.38,-870.57 49.5,-860.81 42.51,-860.37"/>
</a>
</g>
</g>
<!-- Node5 -->
<g id="Node000005" class="node">
<title>Node5</title>
<g id="a_Node000005"><a xlink:href="../../d0/d8b/class_state.html" target="_top" xlink:title=" ">
<polygon fill="white" stroke="none" points="294,-824 140,-824 140,-640 294,-640 294,-824"/>
<text text-anchor="start" x="205.38" y="-810.5" font-family="Helvetica,sans-Serif" font-size="10.00">State</text>
<text text-anchor="start" x="215.5" y="-794.5" font-family="Helvetica,sans-Serif" font-size="10.00"> </text>
<text text-anchor="start" x="144" y="-778.5" font-family="Helvetica,sans-Serif" font-size="10.00">+</text>
<text text-anchor="start" x="154" y="-778.5" font-family="Helvetica,sans-Serif" font-size="10.00">virtual bool CanEnter()</text>
<text text-anchor="start" x="144" y="-762.5" font-family="Helvetica,sans-Serif" font-size="10.00">+</text>
<text text-anchor="start" x="154" y="-762.5" font-family="Helvetica,sans-Serif" font-size="10.00">virtual void Enter()</text>
<text text-anchor="start" x="144" y="-746.5" font-family="Helvetica,sans-Serif" font-size="10.00">+</text>
<text text-anchor="start" x="154" y="-746.5" font-family="Helvetica,sans-Serif" font-size="10.00">virtual void Exit()</text>
<text text-anchor="start" x="144" y="-730.5" font-family="Helvetica,sans-Serif" font-size="10.00">+</text>
<text text-anchor="start" x="154" y="-730.5" font-family="Helvetica,sans-Serif" font-size="10.00">virtual State ProcessInput</text>
<text text-anchor="start" x="154" y="-718.5" font-family="Helvetica,sans-Serif" font-size="10.00">(InputEvent @event)</text>
<text text-anchor="start" x="144" y="-702.5" font-family="Helvetica,sans-Serif" font-size="10.00">+</text>
<text text-anchor="start" x="154" y="-702.5" font-family="Helvetica,sans-Serif" font-size="10.00">virtual State ProcessFrame</text>
<text text-anchor="start" x="154" y="-690.5" font-family="Helvetica,sans-Serif" font-size="10.00">(double delta)</text>
<text text-anchor="start" x="144" y="-674.5" font-family="Helvetica,sans-Serif" font-size="10.00">+</text>
<text text-anchor="start" x="154" y="-674.5" font-family="Helvetica,sans-Serif" font-size="10.00">virtual State ProcessPhysics</text>
<text text-anchor="start" x="154" y="-662.5" font-family="Helvetica,sans-Serif" font-size="10.00">(double delta)</text>
<text text-anchor="start" x="144" y="-646.5" font-family="Helvetica,sans-Serif" font-size="10.00">+</text>
<text text-anchor="start" x="154" y="-646.5" font-family="Helvetica,sans-Serif" font-size="10.00">virtual void UpdateAnimations()</text>
<polygon fill="#666666" stroke="#666666" points="140,-806 140,-806 294,-806 294,-806 140,-806"/>
<polygon fill="#666666" stroke="#666666" points="140,-790 140,-790 294,-790 294,-790 140,-790"/>
<polygon fill="none" stroke="#666666" points="140,-640 140,-824 294,-824 294,-640 140,-640"/>
</a>
</g>
</g>
<!-- Node2&#45;&gt;Node5 -->
<g id="edge6_Node000005_Node000002" class="edge">
<title>Node2&#45;&gt;Node5</title>
<g id="a_edge6_Node000005_Node000002"><a xlink:title=" ">
<path fill="none" stroke="#63b8ff" d="M70.27,-872.09C86.65,-856.57 108.74,-835.62 130.81,-814.7"/>
<polygon fill="none" stroke="#63b8ff" points="130.89,-814.63 132.49,-807.6 139.6,-806.38 137.99,-813.41 130.89,-814.63"/>
</a>
</g>
<text text-anchor="middle" x="118.71" y="-844.5" font-family="Helvetica,sans-Serif" font-size="10.00" fill="grey"> +Parent</text>
</g>
<!-- Node3 -->
<g id="Node000003" class="node">
<title>Node3</title>
<g id="a_Node000003"><a xlink:href="../../d4/dd0/class_state_machine.html" target="_top" xlink:title=" ">
<polygon fill="white" stroke="none" points="290.5,-580 143.5,-580 143.5,-388 290.5,-388 290.5,-580"/>
<text text-anchor="start" x="187" y="-566.5" font-family="Helvetica,sans-Serif" font-size="10.00">StateMachine</text>
<text text-anchor="start" x="215.5" y="-550.5" font-family="Helvetica,sans-Serif" font-size="10.00"> </text>
<text text-anchor="start" x="147.5" y="-534.5" font-family="Helvetica,sans-Serif" font-size="10.00">+</text>
<text text-anchor="start" x="157.5" y="-534.5" font-family="Helvetica,sans-Serif" font-size="10.00">void Init(CharacterBody2</text>
<text text-anchor="start" x="157.5" y="-522.5" font-family="Helvetica,sans-Serif" font-size="10.00">D parent, AnimationPlayer</text>
<text text-anchor="start" x="157.5" y="-510.5" font-family="Helvetica,sans-Serif" font-size="10.00"> animationPlayer)</text>
<text text-anchor="start" x="147.5" y="-494.5" font-family="Helvetica,sans-Serif" font-size="10.00">+</text>
<text text-anchor="start" x="157.5" y="-494.5" font-family="Helvetica,sans-Serif" font-size="10.00">void ProcessInput(InputEvent</text>
<text text-anchor="start" x="157.5" y="-482.5" font-family="Helvetica,sans-Serif" font-size="10.00"> @event)</text>
<text text-anchor="start" x="147.5" y="-466.5" font-family="Helvetica,sans-Serif" font-size="10.00">+</text>
<text text-anchor="start" x="157.5" y="-466.5" font-family="Helvetica,sans-Serif" font-size="10.00">void ProcessFrame(double</text>
<text text-anchor="start" x="157.5" y="-454.5" font-family="Helvetica,sans-Serif" font-size="10.00"> delta)</text>
<text text-anchor="start" x="147.5" y="-438.5" font-family="Helvetica,sans-Serif" font-size="10.00">+</text>
<text text-anchor="start" x="157.5" y="-438.5" font-family="Helvetica,sans-Serif" font-size="10.00">void ProcessPhysics</text>
<text text-anchor="start" x="157.5" y="-426.5" font-family="Helvetica,sans-Serif" font-size="10.00">(double delta)</text>
<text text-anchor="start" x="147.5" y="-410.5" font-family="Helvetica,sans-Serif" font-size="10.00">+</text>
<text text-anchor="start" x="157.5" y="-410.5" font-family="Helvetica,sans-Serif" font-size="10.00">State GetState()</text>
<text text-anchor="start" x="147.5" y="-394.5" font-family="Helvetica,sans-Serif" font-size="10.00">+</text>
<text text-anchor="start" x="157.5" y="-394.5" font-family="Helvetica,sans-Serif" font-size="10.00">void OnDeath()</text>
<polygon fill="#666666" stroke="#666666" points="143.5,-562 143.5,-562 290.5,-562 290.5,-562 143.5,-562"/>
<polygon fill="#666666" stroke="#666666" points="143.5,-546 143.5,-546 290.5,-546 290.5,-546 143.5,-546"/>
<polygon fill="none" stroke="#666666" points="143.5,-388 143.5,-580 290.5,-580 290.5,-388 143.5,-388"/>
</a>
</g>
</g>
<!-- Node3&#45;&gt;Node1 -->
<g id="edge2_Node000001_Node000003" class="edge">
<title>Node3&#45;&gt;Node1</title>
<g id="a_edge2_Node000001_Node000003"><a xlink:title=" ">
<path fill="none" stroke="#63b8ff" d="M225.87,-388.05C229.23,-359.03 233.59,-327.1 239,-298 239.33,-296.23 239.67,-294.46 240.01,-292.68"/>
<polygon fill="none" stroke="#63b8ff" points="240.04,-292.55 237.3,-285.87 242.41,-280.78 245.14,-287.45 240.04,-292.55"/>
</a>
</g>
<text text-anchor="middle" x="273.5" y="-330.5" font-family="Helvetica,sans-Serif" font-size="10.00" fill="grey"> +StateMachine</text>
</g>
<!-- Node4 -->
<g id="Node000004" class="node">
<title>Node4</title>
<g id="a_Node000004"><a xlink:href="../../dc/d8f/class_node.html" target="_top" xlink:title=" ">
<polygon fill="white" stroke="none" points="142.5,-924 109.5,-924 109.5,-872 142.5,-872 142.5,-924"/>
<text text-anchor="start" x="114.38" y="-910.5" font-family="Helvetica,sans-Serif" font-size="10.00">Node</text>
<text text-anchor="start" x="124.5" y="-894.5" font-family="Helvetica,sans-Serif" font-size="10.00"> </text>
<text text-anchor="start" x="124.5" y="-878.5" font-family="Helvetica,sans-Serif" font-size="10.00"> </text>
<polygon fill="#666666" stroke="#666666" points="109.5,-906 109.5,-906 142.5,-906 142.5,-906 109.5,-906"/>
<polygon fill="#666666" stroke="#666666" points="109.5,-890 109.5,-890 142.5,-890 142.5,-890 109.5,-890"/>
<polygon fill="none" stroke="#666666" points="109.5,-872 109.5,-924 142.5,-924 142.5,-872 109.5,-872"/>
</a>
</g>
</g>
<!-- Node4&#45;&gt;Node3 -->
<g id="edge3_Node000003_Node000004" class="edge">
<title>Node4&#45;&gt;Node3</title>
<g id="a_edge3_Node000003_Node000004"><a xlink:title=" ">
<path fill="none" stroke="#63b8ff" d="M121.34,-861.11C115.98,-810.73 110.38,-716.6 131,-640 136.48,-619.64 145.19,-599.08 155,-579.89"/>
<polygon fill="none" stroke="#63b8ff" points="117.84,-861.31 122.43,-870.85 124.79,-860.52 117.84,-861.31"/>
</a>
</g>
</g>
<!-- Node4&#45;&gt;Node5 -->
<g id="edge5_Node000005_Node000004" class="edge">
<title>Node4&#45;&gt;Node5</title>
<g id="a_edge5_Node000005_Node000004"><a xlink:title=" ">
<path fill="none" stroke="#63b8ff" d="M145.33,-862.16C151.67,-850.73 159.04,-837.45 166.6,-823.84"/>
<polygon fill="none" stroke="#63b8ff" points="142.35,-860.33 140.56,-870.77 148.47,-863.72 142.35,-860.33"/>
</a>
</g>
</g>
<!-- Node5&#45;&gt;Node3 -->
<g id="edge4_Node000003_Node000005" class="edge">
<title>Node5&#45;&gt;Node3</title>
<g id="a_edge4_Node000003_Node000005"><a xlink:title=" ">
<path fill="none" stroke="#63b8ff" d="M217,-640.1C217,-624.55 217,-608.26 217,-592.33"/>
<polygon fill="none" stroke="#63b8ff" points="217,-592.55 213,-586.55 217,-580.55 221,-586.55 217,-592.55"/>
</a>
</g>
<text text-anchor="middle" x="248.5" y="-612.5" font-family="Helvetica,sans-Serif" font-size="10.00" fill="grey"> +DeathState</text>
<text text-anchor="middle" x="248.5" y="-600.5" font-family="Helvetica,sans-Serif" font-size="10.00" fill="grey">+StartingState</text>
</g>
<!-- Node6 -->
<g id="Node000006" class="node">
<title>Node6</title>
<g id="a_Node000006"><a xlink:title=" ">
<polygon fill="white" stroke="none" points="309.5,-924 228.5,-924 228.5,-872 309.5,-872 309.5,-924"/>
<text text-anchor="start" x="233.38" y="-910.5" font-family="Helvetica,sans-Serif" font-size="10.00">AnimationPlayer</text>
<text text-anchor="start" x="267.5" y="-894.5" font-family="Helvetica,sans-Serif" font-size="10.00"> </text>
<text text-anchor="start" x="267.5" y="-878.5" font-family="Helvetica,sans-Serif" font-size="10.00"> </text>
<polygon fill="#666666" stroke="#666666" points="228.5,-906 228.5,-906 309.5,-906 309.5,-906 228.5,-906"/>
<polygon fill="#666666" stroke="#666666" points="228.5,-890 228.5,-890 309.5,-890 309.5,-890 228.5,-890"/>
<polygon fill="none" stroke="#666666" points="228.5,-872 228.5,-924 309.5,-924 309.5,-872 228.5,-872"/>
</a>
</g>
</g>
<!-- Node6&#45;&gt;Node1 -->
<g id="edge8_Node000001_Node000006" class="edge">
<title>Node6&#45;&gt;Node1</title>
<g id="a_edge8_Node000001_Node000006"><a xlink:title=" ">
<path fill="none" stroke="#63b8ff" d="M296.82,-872.31C301.39,-866.78 305.46,-860.58 308,-854 352.49,-738.73 319.27,-421.04 308,-298 307.84,-296.24 307.67,-294.47 307.49,-292.69"/>
<polygon fill="none" stroke="#63b8ff" points="307.49,-292.75 302.85,-287.23 306.15,-280.82 310.8,-286.34 307.49,-292.75"/>
</a>
</g>
<text text-anchor="middle" x="370.23" y="-606.5" font-family="Helvetica,sans-Serif" font-size="10.00" fill="grey"> +AnimationPlayer</text>
</g>
<!-- Node6&#45;&gt;Node5 -->
<g id="edge7_Node000005_Node000006" class="edge">
<title>Node6&#45;&gt;Node5</title>
<g id="a_edge7_Node000005_Node000006"><a xlink:title=" ">
<path fill="none" stroke="#63b8ff" d="M257.48,-872.23C254.93,-866.32 252.37,-859.99 250.25,-854 248.22,-848.27 246.25,-842.35 244.33,-836.35"/>
<polygon fill="none" stroke="#63b8ff" points="244.31,-836.28 238.71,-831.74 240.75,-824.82 246.34,-829.36 244.31,-836.28"/>
</a>
</g>
<text text-anchor="middle" x="279.12" y="-844.5" font-family="Helvetica,sans-Serif" font-size="10.00" fill="grey"> +Animations</text>
</g>
<!-- Node7 -->
<g id="Node000007" class="node">
<title>Node7</title>
<g id="a_Node000007"><a xlink:title=" ">
<polygon fill="white" stroke="none" points="378,-510 350,-510 350,-458 378,-458 378,-510"/>
<text text-anchor="start" x="354.62" y="-496.5" font-family="Helvetica,sans-Serif" font-size="10.00">float</text>
<text text-anchor="start" x="362.5" y="-480.5" font-family="Helvetica,sans-Serif" font-size="10.00"> </text>
<text text-anchor="start" x="362.5" y="-464.5" font-family="Helvetica,sans-Serif" font-size="10.00"> </text>
<polygon fill="#666666" stroke="#666666" points="350,-492 350,-492 378,-492 378,-492 350,-492"/>
<polygon fill="#666666" stroke="#666666" points="350,-476 350,-476 378,-476 378,-476 350,-476"/>
<polygon fill="none" stroke="#666666" points="350,-458 350,-510 378,-510 378,-458 350,-458"/>
</a>
</g>
</g>
<!-- Node7&#45;&gt;Node1 -->
<g id="edge9_Node000001_Node000007" class="edge">
<title>Node7&#45;&gt;Node1</title>
<g id="a_edge9_Node000001_Node000007"><a xlink:title=" ">
<path fill="none" stroke="#63b8ff" d="M361.82,-458.15C358.32,-422.35 350.34,-354.35 336,-298 335.5,-296.02 334.98,-294.03 334.44,-292.02"/>
<polygon fill="none" stroke="#63b8ff" points="334.46,-292.08 328.99,-287.38 331.23,-280.52 336.7,-285.23 334.46,-292.08"/>
</a>
</g>
<text text-anchor="middle" x="398.66" y="-360.5" font-family="Helvetica,sans-Serif" font-size="10.00" fill="grey"> +AttackRangeMelee</text>
<text text-anchor="middle" x="398.66" y="-348.5" font-family="Helvetica,sans-Serif" font-size="10.00" fill="grey">+AttackRangeRanged</text>
<text text-anchor="middle" x="398.66" y="-336.5" font-family="Helvetica,sans-Serif" font-size="10.00" fill="grey">+BaseDamage</text>
<text text-anchor="middle" x="398.66" y="-324.5" font-family="Helvetica,sans-Serif" font-size="10.00" fill="grey">+HealthLarge</text>
<text text-anchor="middle" x="398.66" y="-312.5" font-family="Helvetica,sans-Serif" font-size="10.00" fill="grey">+HealthSmall</text>
<text text-anchor="middle" x="398.66" y="-300.5" font-family="Helvetica,sans-Serif" font-size="10.00" fill="grey">+ViewRange</text>
</g>
</g>
</svg>

<g id="navigator" transform="translate(0 0)" fill="#404254">
  <rect fill="#f2f5e9" fill-opacity="0.5" stroke="#606060" stroke-width=".5" x="0" y="0" width="60" height="60"/>
  <use id="zoomplus" xlink:href="#zoomPlus" x="17" y="9" onmousedown="handleZoom(evt,'in')"/>
  <use id="zoomminus" xlink:href="#zoomMin" x="42" y="9" onmousedown="handleZoom(evt,'out')"/>
  <use id="reset" xlink:href="#resetDef" x="30" y="36" onmousedown="handleReset()"/>
   <use id="arrowup" xlink:href="#arrowUp" x="0" y="0" onmousedown="handlePan(0,-1)"/>
  <use id="arrowright" xlink:href="#arrowRight" x="0" y="0" onmousedown="handlePan(1,0)"/>
  <use id="arrowdown" xlink:href="#arrowDown" x="0" y="0" onmousedown="handlePan(0,1)"/>
  <use id="arrowleft" xlink:href="#arrowLeft" x="0" y="0" onmousedown="handlePan(-1,0)"/>
</g>
<svg viewBox="0 0 15 15" width="100%" height="30px" preserveAspectRatio="xMaxYMin meet">
 <g id="arrow_out" transform="scale(0.3 0.3)">
  <a xlink:href="class_slime__coll__graph_org.svg" target="_base">
   <rect id="button" ry="5" rx="5" y="6" x="6" height="38" width="38"
        fill="#f2f5e9" fill-opacity="0.5" stroke="#606060" stroke-width="1.0"/>
   <path id="arrow"
     d="M 11.500037,31.436501 C 11.940474,20.09759 22.043105,11.32322 32.158766,21.979434 L 37.068811,17.246167 C 37.068811,17.246167 37.088388,32 37.088388,32 L 22.160133,31.978069 C 22.160133,31.978069 26.997745,27.140456 26.997745,27.140456 C 18.528582,18.264221 13.291696,25.230495 11.500037,31.436501 z"
     style="fill:#404040;"/>
  </a>
 </g>
</svg>

<style type='text/css'>
<![CDATA[
[data-mouse-over-selected='false'] { opacity: 0.7; }
[data-mouse-over-selected='true']  { opacity: 1.0; }
]]>
</style>
<script type="application/ecmascript"><![CDATA[
document.addEventListener('DOMContentLoaded', (event) => {
  highlightEdges();
  highlightAdjacentNodes();
});
]]></script>
</svg>
