<?xml version="1.0" encoding="UTF-8" standalone="no"?>
<!DOCTYPE svg PUBLIC "-//W3C//DTD SVG 1.1//EN"
 "http://www.w3.org/Graphics/SVG/1.1/DTD/svg11.dtd">
<!-- Generated by graphviz version 12.1.0 (20240811.2233)
 -->
<!-- Title: PlayerMoving Pages: 1 -->
<svg width="247pt" height="472pt"
 viewBox="0.00 0.00 247.00 472.00" xmlns="http://www.w3.org/2000/svg" xmlns:xlink="http://www.w3.org/1999/xlink">
<g id="graph0" class="graph" transform="scale(1 1) rotate(0) translate(4 468)">
<title>PlayerMoving</title>
<!-- Node1 -->
<g id="Node000001" class="node">
<title>Node1</title>
<g id="a_Node000001"><a xlink:title=" ">
<polygon fill="#999999" stroke="none" points="207.5,-108 45.5,-108 45.5,0 207.5,0 207.5,-108"/>
<text text-anchor="start" x="96.88" y="-94.5" font-family="Helvetica,sans-Serif" font-size="10.00">PlayerMoving</text>
<text text-anchor="start" x="125" y="-78.5" font-family="Helvetica,sans-Serif" font-size="10.00"> </text>
<text text-anchor="start" x="49.5" y="-62.5" font-family="Helvetica,sans-Serif" font-size="10.00">+</text>
<text text-anchor="start" x="59.5" y="-62.5" font-family="Helvetica,sans-Serif" font-size="10.00">override State ProcessInput</text>
<text text-anchor="start" x="59.5" y="-50.5" font-family="Helvetica,sans-Serif" font-size="10.00">(InputEvent @event)</text>
<text text-anchor="start" x="49.5" y="-34.5" font-family="Helvetica,sans-Serif" font-size="10.00">+</text>
<text text-anchor="start" x="59.5" y="-34.5" font-family="Helvetica,sans-Serif" font-size="10.00">override State ProcessPhysics</text>
<text text-anchor="start" x="59.5" y="-22.5" font-family="Helvetica,sans-Serif" font-size="10.00">(double delta)</text>
<text text-anchor="start" x="49.5" y="-6.5" font-family="Helvetica,sans-Serif" font-size="10.00">+</text>
<text text-anchor="start" x="59.5" y="-6.5" font-family="Helvetica,sans-Serif" font-size="10.00">override void UpdateAnimations()</text>
<polygon fill="#666666" stroke="#666666" points="45.5,-90 45.5,-90 207.5,-90 207.5,-90 45.5,-90"/>
<polygon fill="#666666" stroke="#666666" points="45.5,-74 45.5,-74 207.5,-74 207.5,-74 45.5,-74"/>
<polygon fill="none" stroke="#666666" points="45.5,0 45.5,-108 207.5,-108 207.5,0 45.5,0"/>
</a>
</g>
</g>
<!-- Node2 -->
<g id="Node000002" class="node">
<title>Node2</title>
<g id="a_Node000002"><a xlink:href="../../d0/d8b/class_state.html" target="_top" xlink:title=" ">
<polygon fill="white" stroke="none" points="172.5,-364 18.5,-364 18.5,-180 172.5,-180 172.5,-364"/>
<text text-anchor="start" x="83.88" y="-350.5" font-family="Helvetica,sans-Serif" font-size="10.00">State</text>
<text text-anchor="start" x="94" y="-334.5" font-family="Helvetica,sans-Serif" font-size="10.00"> </text>
<text text-anchor="start" x="22.5" y="-318.5" font-family="Helvetica,sans-Serif" font-size="10.00">+</text>
<text text-anchor="start" x="32.5" y="-318.5" font-family="Helvetica,sans-Serif" font-size="10.00">virtual bool CanEnter()</text>
<text text-anchor="start" x="22.5" y="-302.5" font-family="Helvetica,sans-Serif" font-size="10.00">+</text>
<text text-anchor="start" x="32.5" y="-302.5" font-family="Helvetica,sans-Serif" font-size="10.00">virtual void Enter()</text>
<text text-anchor="start" x="22.5" y="-286.5" font-family="Helvetica,sans-Serif" font-size="10.00">+</text>
<text text-anchor="start" x="32.5" y="-286.5" font-family="Helvetica,sans-Serif" font-size="10.00">virtual void Exit()</text>
<text text-anchor="start" x="22.5" y="-270.5" font-family="Helvetica,sans-Serif" font-size="10.00">+</text>
<text text-anchor="start" x="32.5" y="-270.5" font-family="Helvetica,sans-Serif" font-size="10.00">virtual State ProcessInput</text>
<text text-anchor="start" x="32.5" y="-258.5" font-family="Helvetica,sans-Serif" font-size="10.00">(InputEvent @event)</text>
<text text-anchor="start" x="22.5" y="-242.5" font-family="Helvetica,sans-Serif" font-size="10.00">+</text>
<text text-anchor="start" x="32.5" y="-242.5" font-family="Helvetica,sans-Serif" font-size="10.00">virtual State ProcessFrame</text>
<text text-anchor="start" x="32.5" y="-230.5" font-family="Helvetica,sans-Serif" font-size="10.00">(double delta)</text>
<text text-anchor="start" x="22.5" y="-214.5" font-family="Helvetica,sans-Serif" font-size="10.00">+</text>
<text text-anchor="start" x="32.5" y="-214.5" font-family="Helvetica,sans-Serif" font-size="10.00">virtual State ProcessPhysics</text>
<text text-anchor="start" x="32.5" y="-202.5" font-family="Helvetica,sans-Serif" font-size="10.00">(double delta)</text>
<text text-anchor="start" x="22.5" y="-186.5" font-family="Helvetica,sans-Serif" font-size="10.00">+</text>
<text text-anchor="start" x="32.5" y="-186.5" font-family="Helvetica,sans-Serif" font-size="10.00">virtual void UpdateAnimations()</text>
<polygon fill="#666666" stroke="#666666" points="18.5,-346 18.5,-346 172.5,-346 172.5,-346 18.5,-346"/>
<polygon fill="#666666" stroke="#666666" points="18.5,-330 18.5,-330 172.5,-330 172.5,-330 18.5,-330"/>
<polygon fill="none" stroke="#666666" points="18.5,-180 18.5,-364 172.5,-364 172.5,-180 18.5,-180"/>
</a>
</g>
</g>
<!-- Node2&#45;&gt;Node1 -->
<g id="edge1_Node000001_Node000002" class="edge">
<title>Node2&#45;&gt;Node1</title>
<g id="a_edge1_Node000001_Node000002"><a xlink:title=" ">
<path fill="none" stroke="#63b8ff" d="M101.61,-169.13C103.16,-154.6 105.09,-139.88 107.5,-126 108.53,-120.09 109.82,-113.96 111.24,-107.88"/>
<polygon fill="none" stroke="#63b8ff" points="98.17,-168.38 100.66,-178.68 105.14,-169.08 98.17,-168.38"/>
</a>
</g>
</g>
<!-- Node2&#45;&gt;Node1 -->
<g id="edge6_Node000001_Node000002" class="edge">
<title>Node2&#45;&gt;Node1</title>
<g id="a_edge6_Node000001_Node000002"><a xlink:title=" ">
<path fill="none" stroke="#63b8ff" d="M108.56,-180.02C111.41,-160.17 114.37,-139.52 117.05,-120.86"/>
<polygon fill="none" stroke="#63b8ff" points="117.06,-120.76 113.96,-114.25 118.77,-108.88 121.87,-115.39 117.06,-120.76"/>
</a>
</g>
<text text-anchor="middle" x="146.34" y="-152.5" font-family="Helvetica,sans-Serif" font-size="10.00" fill="grey"> +Dashing</text>
<text text-anchor="middle" x="146.34" y="-140.5" font-family="Helvetica,sans-Serif" font-size="10.00" fill="grey">+Idle</text>
<text text-anchor="middle" x="146.34" y="-128.5" font-family="Helvetica,sans-Serif" font-size="10.00" fill="grey">+SpellCasting</text>
</g>
<!-- Node3 -->
<g id="Node000003" class="node">
<title>Node3</title>
<g id="a_Node000003"><a xlink:href="../../dc/d8f/class_node.html" target="_top" xlink:title=" ">
<polygon fill="white" stroke="none" points="33,-464 0,-464 0,-412 33,-412 33,-464"/>
<text text-anchor="start" x="4.88" y="-450.5" font-family="Helvetica,sans-Serif" font-size="10.00">Node</text>
<text text-anchor="start" x="15" y="-434.5" font-family="Helvetica,sans-Serif" font-size="10.00"> </text>
<text text-anchor="start" x="15" y="-418.5" font-family="Helvetica,sans-Serif" font-size="10.00"> </text>
<polygon fill="#666666" stroke="#666666" points="0,-446 0,-446 33,-446 33,-446 0,-446"/>
<polygon fill="#666666" stroke="#666666" points="0,-430 0,-430 33,-430 33,-430 0,-430"/>
<polygon fill="none" stroke="#666666" points="0,-412 0,-464 33,-464 33,-412 0,-412"/>
</a>
</g>
</g>
<!-- Node3&#45;&gt;Node2 -->
<g id="edge2_Node000002_Node000003" class="edge">
<title>Node3&#45;&gt;Node2</title>
<g id="a_edge2_Node000002_Node000003"><a xlink:title=" ">
<path fill="none" stroke="#63b8ff" d="M33.45,-401.81C38.92,-390.46 45.25,-377.31 51.74,-363.84"/>
<polygon fill="none" stroke="#63b8ff" points="30.34,-400.2 29.16,-410.73 36.65,-403.24 30.34,-400.2"/>
</a>
</g>
</g>
<!-- Node4 -->
<g id="Node000004" class="node">
<title>Node4</title>
<g id="a_Node000004"><a xlink:title=" ">
<polygon fill="white" stroke="none" points="139.5,-464 51.5,-464 51.5,-412 139.5,-412 139.5,-464"/>
<text text-anchor="start" x="56.5" y="-450.5" font-family="Helvetica,sans-Serif" font-size="10.00">CharacterBody2D</text>
<text text-anchor="start" x="94" y="-434.5" font-family="Helvetica,sans-Serif" font-size="10.00"> </text>
<text text-anchor="start" x="94" y="-418.5" font-family="Helvetica,sans-Serif" font-size="10.00"> </text>
<polygon fill="#666666" stroke="#666666" points="51.5,-446 51.5,-446 139.5,-446 139.5,-446 51.5,-446"/>
<polygon fill="#666666" stroke="#666666" points="51.5,-430 51.5,-430 139.5,-430 139.5,-430 51.5,-430"/>
<polygon fill="none" stroke="#666666" points="51.5,-412 51.5,-464 139.5,-464 139.5,-412 51.5,-412"/>
</a>
</g>
</g>
<!-- Node4&#45;&gt;Node2 -->
<g id="edge3_Node000002_Node000004" class="edge">
<title>Node4&#45;&gt;Node2</title>
<g id="a_edge3_Node000002_Node000004"><a xlink:title=" ">
<path fill="none" stroke="#63b8ff" d="M95.5,-412.09C95.5,-402.04 95.5,-389.72 95.5,-376.61"/>
<polygon fill="none" stroke="#63b8ff" points="95.5,-376.74 91.5,-370.74 95.5,-364.74 99.5,-370.74 95.5,-376.74"/>
</a>
</g>
<text text-anchor="middle" x="114.25" y="-384.5" font-family="Helvetica,sans-Serif" font-size="10.00" fill="grey"> +Parent</text>
</g>
<!-- Node5 -->
<g id="Node000005" class="node">
<title>Node5</title>
<g id="a_Node000005"><a xlink:title=" ">
<polygon fill="white" stroke="none" points="239,-464 158,-464 158,-412 239,-412 239,-464"/>
<text text-anchor="start" x="162.88" y="-450.5" font-family="Helvetica,sans-Serif" font-size="10.00">AnimationPlayer</text>
<text text-anchor="start" x="197" y="-434.5" font-family="Helvetica,sans-Serif" font-size="10.00"> </text>
<text text-anchor="start" x="197" y="-418.5" font-family="Helvetica,sans-Serif" font-size="10.00"> </text>
<polygon fill="#666666" stroke="#666666" points="158,-446 158,-446 239,-446 239,-446 158,-446"/>
<polygon fill="#666666" stroke="#666666" points="158,-430 158,-430 239,-430 239,-430 158,-430"/>
<polygon fill="none" stroke="#666666" points="158,-412 158,-464 239,-464 239,-412 158,-412"/>
</a>
</g>
</g>
<!-- Node5&#45;&gt;Node2 -->
<g id="edge4_Node000002_Node000005" class="edge">
<title>Node5&#45;&gt;Node2</title>
<g id="a_edge4_Node000002_Node000005"><a xlink:title=" ">
<path fill="none" stroke="#63b8ff" d="M182.86,-412.09C176.22,-401.52 168,-388.44 159.29,-374.57"/>
<polygon fill="none" stroke="#63b8ff" points="159.41,-374.76 152.83,-371.81 153.03,-364.6 159.61,-367.55 159.41,-374.76"/>
</a>
</g>
<text text-anchor="middle" x="199.75" y="-384.5" font-family="Helvetica,sans-Serif" font-size="10.00" fill="grey"> +Animations</text>
</g>
<!-- Node6 -->
<g id="Node000006" class="node">
<title>Node6</title>
<g id="a_Node000006"><a xlink:title=" ">
<polygon fill="white" stroke="none" points="230.5,-298 192.5,-298 192.5,-246 230.5,-246 230.5,-298"/>
<text text-anchor="start" x="197.25" y="-284.5" font-family="Helvetica,sans-Serif" font-size="10.00">double</text>
<text text-anchor="start" x="210" y="-268.5" font-family="Helvetica,sans-Serif" font-size="10.00"> </text>
<text text-anchor="start" x="210" y="-252.5" font-family="Helvetica,sans-Serif" font-size="10.00"> </text>
<polygon fill="#666666" stroke="#666666" points="192.5,-280 192.5,-280 230.5,-280 230.5,-280 192.5,-280"/>
<polygon fill="#666666" stroke="#666666" points="192.5,-264 192.5,-264 230.5,-264 230.5,-264 192.5,-264"/>
<polygon fill="none" stroke="#666666" points="192.5,-246 192.5,-298 230.5,-298 230.5,-246 192.5,-246"/>
</a>
</g>
</g>
<!-- Node6&#45;&gt;Node1 -->
<g id="edge5_Node000001_Node000006" class="edge">
<title>Node6&#45;&gt;Node1</title>
<g id="a_edge5_Node000001_Node000006"><a xlink:title=" ">
<path fill="none" stroke="#63b8ff" d="M209.78,-246.08C206.97,-216.31 199.73,-165.58 181.5,-126 180.38,-123.57 179.16,-121.14 177.86,-118.73"/>
<polygon fill="none" stroke="#63b8ff" points="177.85,-118.71 171.35,-115.58 171.74,-108.38 178.24,-111.51 177.85,-118.71"/>
</a>
</g>
<text text-anchor="middle" x="215.81" y="-140.5" font-family="Helvetica,sans-Serif" font-size="10.00" fill="grey"> +SPEED</text>
</g>
</g>
</svg>
