<?xml version="1.0" encoding="UTF-8" standalone="no"?>
<!DOCTYPE svg PUBLIC "-//W3C//DTD SVG 1.1//EN"
 "http://www.w3.org/Graphics/SVG/1.1/DTD/svg11.dtd">
<!-- Generated by graphviz version 12.1.0 (20240811.2233)
 -->
<!-- Title: PlayerMoving Pages: 1 -->
<svg width="363pt" height="504pt"
 viewBox="0.00 0.00 362.50 504.00" xmlns="http://www.w3.org/2000/svg" xmlns:xlink="http://www.w3.org/1999/xlink">
<g id="graph0" class="graph" transform="scale(1 1) rotate(0) translate(4 500)">
<title>PlayerMoving</title>
<!-- Node1 -->
<g id="Node000001" class="node">
<title>Node1</title>
<g id="a_Node000001"><a xlink:title=" ">
<polygon fill="#999999" stroke="none" points="249.5,-140 87.5,-140 87.5,0 249.5,0 249.5,-140"/>
<text text-anchor="start" x="138.88" y="-126.5" font-family="Helvetica,sans-Serif" font-size="10.00">PlayerMoving</text>
<text text-anchor="start" x="167" y="-110.5" font-family="Helvetica,sans-Serif" font-size="10.00"> </text>
<text text-anchor="start" x="91.5" y="-94.5" font-family="Helvetica,sans-Serif" font-size="10.00">+</text>
<text text-anchor="start" x="101.5" y="-94.5" font-family="Helvetica,sans-Serif" font-size="10.00">override State ProcessInput</text>
<text text-anchor="start" x="101.5" y="-82.5" font-family="Helvetica,sans-Serif" font-size="10.00">(InputEvent @event)</text>
<text text-anchor="start" x="91.5" y="-66.5" font-family="Helvetica,sans-Serif" font-size="10.00">+</text>
<text text-anchor="start" x="101.5" y="-66.5" font-family="Helvetica,sans-Serif" font-size="10.00">override State ProcessPhysics</text>
<text text-anchor="start" x="101.5" y="-54.5" font-family="Helvetica,sans-Serif" font-size="10.00">(double delta)</text>
<text text-anchor="start" x="91.5" y="-38.5" font-family="Helvetica,sans-Serif" font-size="10.00">+</text>
<text text-anchor="start" x="101.5" y="-38.5" font-family="Helvetica,sans-Serif" font-size="10.00">override void UpdateAnimations()</text>
<text text-anchor="start" x="91.5" y="-22.5" font-family="Helvetica,sans-Serif" font-size="10.00">+</text>
<text text-anchor="start" x="101.5" y="-22.5" font-family="Helvetica,sans-Serif" font-size="10.00">override void Enter()</text>
<text text-anchor="start" x="91.5" y="-6.5" font-family="Helvetica,sans-Serif" font-size="10.00">+</text>
<text text-anchor="start" x="101.5" y="-6.5" font-family="Helvetica,sans-Serif" font-size="10.00">override void Exit()</text>
<polygon fill="#666666" stroke="#666666" points="87.5,-122 87.5,-122 249.5,-122 249.5,-122 87.5,-122"/>
<polygon fill="#666666" stroke="#666666" points="87.5,-106 87.5,-106 249.5,-106 249.5,-106 87.5,-106"/>
<polygon fill="none" stroke="#666666" points="87.5,0 87.5,-140 249.5,-140 249.5,0 87.5,0"/>
</a>
</g>
</g>
<!-- Node2 -->
<g id="Node000002" class="node">
<title>Node2</title>
<g id="a_Node000002"><a xlink:href="../../d0/d8b/class_state.html" target="_top" xlink:title=" ">
<polygon fill="white" stroke="none" points="172.5,-396 18.5,-396 18.5,-212 172.5,-212 172.5,-396"/>
<text text-anchor="start" x="83.88" y="-382.5" font-family="Helvetica,sans-Serif" font-size="10.00">State</text>
<text text-anchor="start" x="94" y="-366.5" font-family="Helvetica,sans-Serif" font-size="10.00"> </text>
<text text-anchor="start" x="22.5" y="-350.5" font-family="Helvetica,sans-Serif" font-size="10.00">+</text>
<text text-anchor="start" x="32.5" y="-350.5" font-family="Helvetica,sans-Serif" font-size="10.00">virtual bool CanEnter()</text>
<text text-anchor="start" x="22.5" y="-334.5" font-family="Helvetica,sans-Serif" font-size="10.00">+</text>
<text text-anchor="start" x="32.5" y="-334.5" font-family="Helvetica,sans-Serif" font-size="10.00">virtual void Enter()</text>
<text text-anchor="start" x="22.5" y="-318.5" font-family="Helvetica,sans-Serif" font-size="10.00">+</text>
<text text-anchor="start" x="32.5" y="-318.5" font-family="Helvetica,sans-Serif" font-size="10.00">virtual void Exit()</text>
<text text-anchor="start" x="22.5" y="-302.5" font-family="Helvetica,sans-Serif" font-size="10.00">+</text>
<text text-anchor="start" x="32.5" y="-302.5" font-family="Helvetica,sans-Serif" font-size="10.00">virtual State ProcessInput</text>
<text text-anchor="start" x="32.5" y="-290.5" font-family="Helvetica,sans-Serif" font-size="10.00">(InputEvent @event)</text>
<text text-anchor="start" x="22.5" y="-274.5" font-family="Helvetica,sans-Serif" font-size="10.00">+</text>
<text text-anchor="start" x="32.5" y="-274.5" font-family="Helvetica,sans-Serif" font-size="10.00">virtual State ProcessFrame</text>
<text text-anchor="start" x="32.5" y="-262.5" font-family="Helvetica,sans-Serif" font-size="10.00">(double delta)</text>
<text text-anchor="start" x="22.5" y="-246.5" font-family="Helvetica,sans-Serif" font-size="10.00">+</text>
<text text-anchor="start" x="32.5" y="-246.5" font-family="Helvetica,sans-Serif" font-size="10.00">virtual State ProcessPhysics</text>
<text text-anchor="start" x="32.5" y="-234.5" font-family="Helvetica,sans-Serif" font-size="10.00">(double delta)</text>
<text text-anchor="start" x="22.5" y="-218.5" font-family="Helvetica,sans-Serif" font-size="10.00">+</text>
<text text-anchor="start" x="32.5" y="-218.5" font-family="Helvetica,sans-Serif" font-size="10.00">virtual void UpdateAnimations()</text>
<polygon fill="#666666" stroke="#666666" points="18.5,-378 18.5,-378 172.5,-378 172.5,-378 18.5,-378"/>
<polygon fill="#666666" stroke="#666666" points="18.5,-362 18.5,-362 172.5,-362 172.5,-362 18.5,-362"/>
<polygon fill="none" stroke="#666666" points="18.5,-212 18.5,-396 172.5,-396 172.5,-212 18.5,-212"/>
</a>
</g>
</g>
<!-- Node2&#45;&gt;Node1 -->
<g id="edge1_Node000001_Node000002" class="edge">
<title>Node2&#45;&gt;Node1</title>
<g id="a_edge1_Node000001_Node000002"><a xlink:title=" ">
<path fill="none" stroke="#63b8ff" d="M97.11,-200.89C99.29,-186.23 102.61,-171.53 107.5,-158 109.7,-151.93 112.43,-145.89 115.52,-139.99"/>
<polygon fill="none" stroke="#63b8ff" points="93.67,-200.21 95.84,-210.58 100.61,-201.12 93.67,-200.21"/>
</a>
</g>
</g>
<!-- Node2&#45;&gt;Node1 -->
<g id="edge7_Node000001_Node000002" class="edge">
<title>Node2&#45;&gt;Node1</title>
<g id="a_edge7_Node000001_Node000002"><a xlink:title=" ">
<path fill="none" stroke="#63b8ff" d="M109.3,-212.24C113.19,-194.03 118.04,-175.21 124,-158 124.76,-155.81 125.56,-153.61 126.41,-151.4"/>
<polygon fill="none" stroke="#63b8ff" points="126.36,-151.51 124.93,-144.44 130.9,-140.4 132.33,-147.47 126.36,-151.51"/>
</a>
</g>
<text text-anchor="middle" x="154.75" y="-184.5" font-family="Helvetica,sans-Serif" font-size="10.00" fill="grey"> +Dashing</text>
<text text-anchor="middle" x="154.75" y="-172.5" font-family="Helvetica,sans-Serif" font-size="10.00" fill="grey">+Idle</text>
<text text-anchor="middle" x="154.75" y="-160.5" font-family="Helvetica,sans-Serif" font-size="10.00" fill="grey">+SpellCasting</text>
</g>
<!-- Node3 -->
<g id="Node000003" class="node">
<title>Node3</title>
<g id="a_Node000003"><a xlink:href="../../dc/d8f/class_node.html" target="_top" xlink:title=" ">
<polygon fill="white" stroke="none" points="33,-496 0,-496 0,-444 33,-444 33,-496"/>
<text text-anchor="start" x="4.88" y="-482.5" font-family="Helvetica,sans-Serif" font-size="10.00">Node</text>
<text text-anchor="start" x="15" y="-466.5" font-family="Helvetica,sans-Serif" font-size="10.00"> </text>
<text text-anchor="start" x="15" y="-450.5" font-family="Helvetica,sans-Serif" font-size="10.00"> </text>
<polygon fill="#666666" stroke="#666666" points="0,-478 0,-478 33,-478 33,-478 0,-478"/>
<polygon fill="#666666" stroke="#666666" points="0,-462 0,-462 33,-462 33,-462 0,-462"/>
<polygon fill="none" stroke="#666666" points="0,-444 0,-496 33,-496 33,-444 0,-444"/>
</a>
</g>
</g>
<!-- Node3&#45;&gt;Node2 -->
<g id="edge2_Node000002_Node000003" class="edge">
<title>Node3&#45;&gt;Node2</title>
<g id="a_edge2_Node000002_Node000003"><a xlink:title=" ">
<path fill="none" stroke="#63b8ff" d="M33.45,-433.81C38.92,-422.46 45.25,-409.31 51.74,-395.84"/>
<polygon fill="none" stroke="#63b8ff" points="30.34,-432.2 29.16,-442.73 36.65,-435.24 30.34,-432.2"/>
</a>
</g>
</g>
<!-- Node4 -->
<g id="Node000004" class="node">
<title>Node4</title>
<g id="a_Node000004"><a xlink:title=" ">
<polygon fill="white" stroke="none" points="139.5,-496 51.5,-496 51.5,-444 139.5,-444 139.5,-496"/>
<text text-anchor="start" x="56.5" y="-482.5" font-family="Helvetica,sans-Serif" font-size="10.00">CharacterBody2D</text>
<text text-anchor="start" x="94" y="-466.5" font-family="Helvetica,sans-Serif" font-size="10.00"> </text>
<text text-anchor="start" x="94" y="-450.5" font-family="Helvetica,sans-Serif" font-size="10.00"> </text>
<polygon fill="#666666" stroke="#666666" points="51.5,-478 51.5,-478 139.5,-478 139.5,-478 51.5,-478"/>
<polygon fill="#666666" stroke="#666666" points="51.5,-462 51.5,-462 139.5,-462 139.5,-462 51.5,-462"/>
<polygon fill="none" stroke="#666666" points="51.5,-444 51.5,-496 139.5,-496 139.5,-444 51.5,-444"/>
</a>
</g>
</g>
<!-- Node4&#45;&gt;Node2 -->
<g id="edge3_Node000002_Node000004" class="edge">
<title>Node4&#45;&gt;Node2</title>
<g id="a_edge3_Node000002_Node000004"><a xlink:title=" ">
<path fill="none" stroke="#63b8ff" d="M95.5,-444.09C95.5,-434.04 95.5,-421.72 95.5,-408.61"/>
<polygon fill="none" stroke="#63b8ff" points="95.5,-408.74 91.5,-402.74 95.5,-396.74 99.5,-402.74 95.5,-408.74"/>
</a>
</g>
<text text-anchor="middle" x="114.25" y="-416.5" font-family="Helvetica,sans-Serif" font-size="10.00" fill="grey"> +Parent</text>
</g>
<!-- Node5 -->
<g id="Node000005" class="node">
<title>Node5</title>
<g id="a_Node000005"><a xlink:title=" ">
<polygon fill="white" stroke="none" points="239,-496 158,-496 158,-444 239,-444 239,-496"/>
<text text-anchor="start" x="162.88" y="-482.5" font-family="Helvetica,sans-Serif" font-size="10.00">AnimationPlayer</text>
<text text-anchor="start" x="197" y="-466.5" font-family="Helvetica,sans-Serif" font-size="10.00"> </text>
<text text-anchor="start" x="197" y="-450.5" font-family="Helvetica,sans-Serif" font-size="10.00"> </text>
<polygon fill="#666666" stroke="#666666" points="158,-478 158,-478 239,-478 239,-478 158,-478"/>
<polygon fill="#666666" stroke="#666666" points="158,-462 158,-462 239,-462 239,-462 158,-462"/>
<polygon fill="none" stroke="#666666" points="158,-444 158,-496 239,-496 239,-444 158,-444"/>
</a>
</g>
</g>
<!-- Node5&#45;&gt;Node2 -->
<g id="edge4_Node000002_Node000005" class="edge">
<title>Node5&#45;&gt;Node2</title>
<g id="a_edge4_Node000002_Node000005"><a xlink:title=" ">
<path fill="none" stroke="#63b8ff" d="M182.86,-444.09C176.22,-433.52 168,-420.44 159.29,-406.57"/>
<polygon fill="none" stroke="#63b8ff" points="159.41,-406.76 152.83,-403.81 153.03,-396.6 159.61,-399.55 159.41,-406.76"/>
</a>
</g>
<text text-anchor="middle" x="199.75" y="-416.5" font-family="Helvetica,sans-Serif" font-size="10.00" fill="grey"> +Animations</text>
</g>
<!-- Node6 -->
<g id="Node000006" class="node">
<title>Node6</title>
<g id="a_Node000006"><a xlink:title=" ">
<polygon fill="white" stroke="none" points="230.5,-330 192.5,-330 192.5,-278 230.5,-278 230.5,-330"/>
<text text-anchor="start" x="197.25" y="-316.5" font-family="Helvetica,sans-Serif" font-size="10.00">double</text>
<text text-anchor="start" x="210" y="-300.5" font-family="Helvetica,sans-Serif" font-size="10.00"> </text>
<text text-anchor="start" x="210" y="-284.5" font-family="Helvetica,sans-Serif" font-size="10.00"> </text>
<polygon fill="#666666" stroke="#666666" points="192.5,-312 192.5,-312 230.5,-312 230.5,-312 192.5,-312"/>
<polygon fill="#666666" stroke="#666666" points="192.5,-296 192.5,-296 230.5,-296 230.5,-296 192.5,-296"/>
<polygon fill="none" stroke="#666666" points="192.5,-278 192.5,-330 230.5,-330 230.5,-278 192.5,-278"/>
</a>
</g>
</g>
<!-- Node6&#45;&gt;Node1 -->
<g id="edge5_Node000001_Node000006" class="edge">
<title>Node6&#45;&gt;Node1</title>
<g id="a_edge5_Node000001_Node000006"><a xlink:title=" ">
<path fill="none" stroke="#63b8ff" d="M208.41,-278.26C204.64,-249.3 197.73,-199.98 189.5,-158 189.14,-156.14 188.76,-154.26 188.37,-152.37"/>
<polygon fill="none" stroke="#63b8ff" points="188.37,-152.36 183.2,-147.32 185.86,-140.62 191.03,-145.65 188.37,-152.36"/>
</a>
</g>
<text text-anchor="middle" x="217.69" y="-172.5" font-family="Helvetica,sans-Serif" font-size="10.00" fill="grey"> +SPEED</text>
</g>
<!-- Node7 -->
<g id="Node000007" class="node">
<title>Node7</title>
<g id="a_Node000007"><a xlink:title=" ">
<polygon fill="white" stroke="none" points="354.5,-330 248.5,-330 248.5,-278 354.5,-278 354.5,-330"/>
<text text-anchor="start" x="253.12" y="-316.5" font-family="Helvetica,sans-Serif" font-size="10.00">AudioStreamPlayer2D</text>
<text text-anchor="start" x="300" y="-300.5" font-family="Helvetica,sans-Serif" font-size="10.00"> </text>
<text text-anchor="start" x="300" y="-284.5" font-family="Helvetica,sans-Serif" font-size="10.00"> </text>
<polygon fill="#666666" stroke="#666666" points="248.5,-312 248.5,-312 354.5,-312 354.5,-312 248.5,-312"/>
<polygon fill="#666666" stroke="#666666" points="248.5,-296 248.5,-296 354.5,-296 354.5,-296 248.5,-296"/>
<polygon fill="none" stroke="#666666" points="248.5,-278 248.5,-330 354.5,-330 354.5,-278 248.5,-278"/>
</a>
</g>
</g>
<!-- Node7&#45;&gt;Node1 -->
<g id="edge6_Node000001_Node000007" class="edge">
<title>Node7&#45;&gt;Node1</title>
<g id="a_edge6_Node000001_Node000007"><a xlink:title=" ">
<path fill="none" stroke="#63b8ff" d="M294.36,-278.24C285.16,-248.41 267.43,-197.39 243.5,-158 242.01,-155.54 240.44,-153.09 238.82,-150.64"/>
<polygon fill="none" stroke="#63b8ff" points="238.77,-150.56 232.06,-147.93 231.91,-140.72 238.62,-143.35 238.77,-150.56"/>
</a>
</g>
<text text-anchor="middle" x="297.17" y="-172.5" font-family="Helvetica,sans-Serif" font-size="10.00" fill="grey"> +WalkingSound</text>
</g>
</g>
</svg>
