<?xml version="1.0" encoding="UTF-8" standalone="no"?>
<!DOCTYPE svg PUBLIC "-//W3C//DTD SVG 1.1//EN"
 "http://www.w3.org/Graphics/SVG/1.1/DTD/svg11.dtd">
<!-- Generated by graphviz version 12.1.0 (20240811.2233)
 -->
<!-- Title: PlayerMoving Pages: 1 -->
<!--zoomable 472 -->

<svg id="main" version="1.1" xmlns="http://www.w3.org/2000/svg" xmlns:xlink="http://www.w3.org/1999/xlink" xml:space="preserve" onload="init(evt)">
<style type="text/css"><![CDATA[
.node, .edge {opacity: 0.7;}
.node.selected, .edge.selected {opacity: 1;}
.edge:hover path { stroke: red; }
.edge:hover polygon { stroke: red; fill: red; }
]]></style>

<defs>
  <circle id="rim" cx="0" cy="0" r="7"/>
  <circle id="rim2" cx="0" cy="0" r="3.5"/>
  <g id="zoomPlus">
    <use xlink:href="#rim" fill="#404040"><set attributeName="fill" to="#808080" begin="zoomplus.mouseover" end="zoomplus.mouseout"/></use>
    <path d="M-4,0h8M0,-4v8" fill="none" stroke="white" stroke-width="1.5" pointer-events="none"/>
  </g>
  <g id="zoomMin">
    <use xlink:href="#rim" fill="#404040"><set attributeName="fill" to="#808080" begin="zoomminus.mouseover" end="zoomminus.mouseout"/></use>
    <path d="M-4,0h8" fill="none" stroke="white" stroke-width="1.5" pointer-events="none"/>
  </g>
  <g id="arrowUp" transform="translate(30 24)">
    <use xlink:href="#rim"/>
    <path pointer-events="none" fill="none" stroke="white" stroke-width="1.5" d="M0,-3.0v7 M-2.5,-0.5L0,-3.0L2.5,-0.5"/>
  </g>
  <g id="arrowRight" transform="rotate(90) translate(36 -43)">
    <use xlink:href="#rim"/>
    <path pointer-events="none" fill="none" stroke="white" stroke-width="1.5" d="M0,-3.0v7 M-2.5,-0.5L0,-3.0L2.5,-0.5"/>
  </g>
  <g id="arrowDown" transform="rotate(180) translate(-30 -48)">
    <use xlink:href="#rim"/>
    <path pointer-events="none" fill="none" stroke="white" stroke-width="1.5" d="M0,-3.0v7 M-2.5,-0.5L0,-3.0L2.5,-0.5"/>
  </g>
  <g id="arrowLeft" transform="rotate(270) translate(-36 17)">
    <use xlink:href="#rim"/>
    <path pointer-events="none" fill="none" stroke="white" stroke-width="1.5" d="M0,-3.0v7 M-2.5,-0.5L0,-3.0L2.5,-0.5"/>
  </g>
  <g id="resetDef">
    <use xlink:href="#rim2" fill="#404040"><set attributeName="fill" to="#808080" begin="reset.mouseover" end="reset.mouseout"/></use>
  </g>
</defs>
<script type="application/ecmascript">
var viewWidth = 247;
var viewHeight = 472;
var sectionId = 'dynsection-1';
</script>
<script type="application/ecmascript" xlink:href="../../svg.min.js"/>
<svg id="graph" class="graph">
<g id="viewport">
<title>PlayerMoving</title>
<!-- Node1 -->
<g id="Node000001" class="node">
<title>Node1</title>
<g id="a_Node000001"><a xlink:title=" ">
<polygon fill="#999999" stroke="none" points="207.5,-108 45.5,-108 45.5,0 207.5,0 207.5,-108"/>
<text text-anchor="start" x="96.88" y="-94.5" font-family="Helvetica,sans-Serif" font-size="10.00">PlayerMoving</text>
<text text-anchor="start" x="125" y="-78.5" font-family="Helvetica,sans-Serif" font-size="10.00"> </text>
<text text-anchor="start" x="49.5" y="-62.5" font-family="Helvetica,sans-Serif" font-size="10.00">+</text>
<text text-anchor="start" x="59.5" y="-62.5" font-family="Helvetica,sans-Serif" font-size="10.00">override State ProcessInput</text>
<text text-anchor="start" x="59.5" y="-50.5" font-family="Helvetica,sans-Serif" font-size="10.00">(InputEvent @event)</text>
<text text-anchor="start" x="49.5" y="-34.5" font-family="Helvetica,sans-Serif" font-size="10.00">+</text>
<text text-anchor="start" x="59.5" y="-34.5" font-family="Helvetica,sans-Serif" font-size="10.00">override State ProcessPhysics</text>
<text text-anchor="start" x="59.5" y="-22.5" font-family="Helvetica,sans-Serif" font-size="10.00">(double delta)</text>
<text text-anchor="start" x="49.5" y="-6.5" font-family="Helvetica,sans-Serif" font-size="10.00">+</text>
<text text-anchor="start" x="59.5" y="-6.5" font-family="Helvetica,sans-Serif" font-size="10.00">override void UpdateAnimations()</text>
<polygon fill="#666666" stroke="#666666" points="45.5,-90 45.5,-90 207.5,-90 207.5,-90 45.5,-90"/>
<polygon fill="#666666" stroke="#666666" points="45.5,-74 45.5,-74 207.5,-74 207.5,-74 45.5,-74"/>
<polygon fill="none" stroke="#666666" points="45.5,0 45.5,-108 207.5,-108 207.5,0 45.5,0"/>
</a>
</g>
</g>
<!-- Node2 -->
<g id="Node000002" class="node">
<title>Node2</title>
<g id="a_Node000002"><a xlink:href="../../d0/d8b/class_state.html" target="_top" xlink:title=" ">
<polygon fill="white" stroke="none" points="172.5,-364 18.5,-364 18.5,-180 172.5,-180 172.5,-364"/>
<text text-anchor="start" x="83.88" y="-350.5" font-family="Helvetica,sans-Serif" font-size="10.00">State</text>
<text text-anchor="start" x="94" y="-334.5" font-family="Helvetica,sans-Serif" font-size="10.00"> </text>
<text text-anchor="start" x="22.5" y="-318.5" font-family="Helvetica,sans-Serif" font-size="10.00">+</text>
<text text-anchor="start" x="32.5" y="-318.5" font-family="Helvetica,sans-Serif" font-size="10.00">virtual bool CanEnter()</text>
<text text-anchor="start" x="22.5" y="-302.5" font-family="Helvetica,sans-Serif" font-size="10.00">+</text>
<text text-anchor="start" x="32.5" y="-302.5" font-family="Helvetica,sans-Serif" font-size="10.00">virtual void Enter()</text>
<text text-anchor="start" x="22.5" y="-286.5" font-family="Helvetica,sans-Serif" font-size="10.00">+</text>
<text text-anchor="start" x="32.5" y="-286.5" font-family="Helvetica,sans-Serif" font-size="10.00">virtual void Exit()</text>
<text text-anchor="start" x="22.5" y="-270.5" font-family="Helvetica,sans-Serif" font-size="10.00">+</text>
<text text-anchor="start" x="32.5" y="-270.5" font-family="Helvetica,sans-Serif" font-size="10.00">virtual State ProcessInput</text>
<text text-anchor="start" x="32.5" y="-258.5" font-family="Helvetica,sans-Serif" font-size="10.00">(InputEvent @event)</text>
<text text-anchor="start" x="22.5" y="-242.5" font-family="Helvetica,sans-Serif" font-size="10.00">+</text>
<text text-anchor="start" x="32.5" y="-242.5" font-family="Helvetica,sans-Serif" font-size="10.00">virtual State ProcessFrame</text>
<text text-anchor="start" x="32.5" y="-230.5" font-family="Helvetica,sans-Serif" font-size="10.00">(double delta)</text>
<text text-anchor="start" x="22.5" y="-214.5" font-family="Helvetica,sans-Serif" font-size="10.00">+</text>
<text text-anchor="start" x="32.5" y="-214.5" font-family="Helvetica,sans-Serif" font-size="10.00">virtual State ProcessPhysics</text>
<text text-anchor="start" x="32.5" y="-202.5" font-family="Helvetica,sans-Serif" font-size="10.00">(double delta)</text>
<text text-anchor="start" x="22.5" y="-186.5" font-family="Helvetica,sans-Serif" font-size="10.00">+</text>
<text text-anchor="start" x="32.5" y="-186.5" font-family="Helvetica,sans-Serif" font-size="10.00">virtual void UpdateAnimations()</text>
<polygon fill="#666666" stroke="#666666" points="18.5,-346 18.5,-346 172.5,-346 172.5,-346 18.5,-346"/>
<polygon fill="#666666" stroke="#666666" points="18.5,-330 18.5,-330 172.5,-330 172.5,-330 18.5,-330"/>
<polygon fill="none" stroke="#666666" points="18.5,-180 18.5,-364 172.5,-364 172.5,-180 18.5,-180"/>
</a>
</g>
</g>
<!-- Node2&#45;&gt;Node1 -->
<g id="edge1_Node000001_Node000002" class="edge">
<title>Node2&#45;&gt;Node1</title>
<g id="a_edge1_Node000001_Node000002"><a xlink:title=" ">
<path fill="none" stroke="#63b8ff" d="M101.61,-169.13C103.16,-154.6 105.09,-139.88 107.5,-126 108.53,-120.09 109.82,-113.96 111.24,-107.88"/>
<polygon fill="none" stroke="#63b8ff" points="98.17,-168.38 100.66,-178.68 105.14,-169.08 98.17,-168.38"/>
</a>
</g>
</g>
<!-- Node2&#45;&gt;Node1 -->
<g id="edge6_Node000001_Node000002" class="edge">
<title>Node2&#45;&gt;Node1</title>
<g id="a_edge6_Node000001_Node000002"><a xlink:title=" ">
<path fill="none" stroke="#63b8ff" d="M108.56,-180.02C111.41,-160.17 114.37,-139.52 117.05,-120.86"/>
<polygon fill="none" stroke="#63b8ff" points="117.06,-120.76 113.96,-114.25 118.77,-108.88 121.87,-115.39 117.06,-120.76"/>
</a>
</g>
<text text-anchor="middle" x="146.34" y="-152.5" font-family="Helvetica,sans-Serif" font-size="10.00" fill="grey"> +Dashing</text>
<text text-anchor="middle" x="146.34" y="-140.5" font-family="Helvetica,sans-Serif" font-size="10.00" fill="grey">+Idle</text>
<text text-anchor="middle" x="146.34" y="-128.5" font-family="Helvetica,sans-Serif" font-size="10.00" fill="grey">+SpellCasting</text>
</g>
<!-- Node3 -->
<g id="Node000003" class="node">
<title>Node3</title>
<g id="a_Node000003"><a xlink:href="../../dc/d8f/class_node.html" target="_top" xlink:title=" ">
<polygon fill="white" stroke="none" points="33,-464 0,-464 0,-412 33,-412 33,-464"/>
<text text-anchor="start" x="4.88" y="-450.5" font-family="Helvetica,sans-Serif" font-size="10.00">Node</text>
<text text-anchor="start" x="15" y="-434.5" font-family="Helvetica,sans-Serif" font-size="10.00"> </text>
<text text-anchor="start" x="15" y="-418.5" font-family="Helvetica,sans-Serif" font-size="10.00"> </text>
<polygon fill="#666666" stroke="#666666" points="0,-446 0,-446 33,-446 33,-446 0,-446"/>
<polygon fill="#666666" stroke="#666666" points="0,-430 0,-430 33,-430 33,-430 0,-430"/>
<polygon fill="none" stroke="#666666" points="0,-412 0,-464 33,-464 33,-412 0,-412"/>
</a>
</g>
</g>
<!-- Node3&#45;&gt;Node2 -->
<g id="edge2_Node000002_Node000003" class="edge">
<title>Node3&#45;&gt;Node2</title>
<g id="a_edge2_Node000002_Node000003"><a xlink:title=" ">
<path fill="none" stroke="#63b8ff" d="M33.45,-401.81C38.92,-390.46 45.25,-377.31 51.74,-363.84"/>
<polygon fill="none" stroke="#63b8ff" points="30.34,-400.2 29.16,-410.73 36.65,-403.24 30.34,-400.2"/>
</a>
</g>
</g>
<!-- Node4 -->
<g id="Node000004" class="node">
<title>Node4</title>
<g id="a_Node000004"><a xlink:title=" ">
<polygon fill="white" stroke="none" points="139.5,-464 51.5,-464 51.5,-412 139.5,-412 139.5,-464"/>
<text text-anchor="start" x="56.5" y="-450.5" font-family="Helvetica,sans-Serif" font-size="10.00">CharacterBody2D</text>
<text text-anchor="start" x="94" y="-434.5" font-family="Helvetica,sans-Serif" font-size="10.00"> </text>
<text text-anchor="start" x="94" y="-418.5" font-family="Helvetica,sans-Serif" font-size="10.00"> </text>
<polygon fill="#666666" stroke="#666666" points="51.5,-446 51.5,-446 139.5,-446 139.5,-446 51.5,-446"/>
<polygon fill="#666666" stroke="#666666" points="51.5,-430 51.5,-430 139.5,-430 139.5,-430 51.5,-430"/>
<polygon fill="none" stroke="#666666" points="51.5,-412 51.5,-464 139.5,-464 139.5,-412 51.5,-412"/>
</a>
</g>
</g>
<!-- Node4&#45;&gt;Node2 -->
<g id="edge3_Node000002_Node000004" class="edge">
<title>Node4&#45;&gt;Node2</title>
<g id="a_edge3_Node000002_Node000004"><a xlink:title=" ">
<path fill="none" stroke="#63b8ff" d="M95.5,-412.09C95.5,-402.04 95.5,-389.72 95.5,-376.61"/>
<polygon fill="none" stroke="#63b8ff" points="95.5,-376.74 91.5,-370.74 95.5,-364.74 99.5,-370.74 95.5,-376.74"/>
</a>
</g>
<text text-anchor="middle" x="114.25" y="-384.5" font-family="Helvetica,sans-Serif" font-size="10.00" fill="grey"> +Parent</text>
</g>
<!-- Node5 -->
<g id="Node000005" class="node">
<title>Node5</title>
<g id="a_Node000005"><a xlink:title=" ">
<polygon fill="white" stroke="none" points="239,-464 158,-464 158,-412 239,-412 239,-464"/>
<text text-anchor="start" x="162.88" y="-450.5" font-family="Helvetica,sans-Serif" font-size="10.00">AnimationPlayer</text>
<text text-anchor="start" x="197" y="-434.5" font-family="Helvetica,sans-Serif" font-size="10.00"> </text>
<text text-anchor="start" x="197" y="-418.5" font-family="Helvetica,sans-Serif" font-size="10.00"> </text>
<polygon fill="#666666" stroke="#666666" points="158,-446 158,-446 239,-446 239,-446 158,-446"/>
<polygon fill="#666666" stroke="#666666" points="158,-430 158,-430 239,-430 239,-430 158,-430"/>
<polygon fill="none" stroke="#666666" points="158,-412 158,-464 239,-464 239,-412 158,-412"/>
</a>
</g>
</g>
<!-- Node5&#45;&gt;Node2 -->
<g id="edge4_Node000002_Node000005" class="edge">
<title>Node5&#45;&gt;Node2</title>
<g id="a_edge4_Node000002_Node000005"><a xlink:title=" ">
<path fill="none" stroke="#63b8ff" d="M182.86,-412.09C176.22,-401.52 168,-388.44 159.29,-374.57"/>
<polygon fill="none" stroke="#63b8ff" points="159.41,-374.76 152.83,-371.81 153.03,-364.6 159.61,-367.55 159.41,-374.76"/>
</a>
</g>
<text text-anchor="middle" x="199.75" y="-384.5" font-family="Helvetica,sans-Serif" font-size="10.00" fill="grey"> +Animations</text>
</g>
<!-- Node6 -->
<g id="Node000006" class="node">
<title>Node6</title>
<g id="a_Node000006"><a xlink:title=" ">
<polygon fill="white" stroke="none" points="230.5,-298 192.5,-298 192.5,-246 230.5,-246 230.5,-298"/>
<text text-anchor="start" x="197.25" y="-284.5" font-family="Helvetica,sans-Serif" font-size="10.00">double</text>
<text text-anchor="start" x="210" y="-268.5" font-family="Helvetica,sans-Serif" font-size="10.00"> </text>
<text text-anchor="start" x="210" y="-252.5" font-family="Helvetica,sans-Serif" font-size="10.00"> </text>
<polygon fill="#666666" stroke="#666666" points="192.5,-280 192.5,-280 230.5,-280 230.5,-280 192.5,-280"/>
<polygon fill="#666666" stroke="#666666" points="192.5,-264 192.5,-264 230.5,-264 230.5,-264 192.5,-264"/>
<polygon fill="none" stroke="#666666" points="192.5,-246 192.5,-298 230.5,-298 230.5,-246 192.5,-246"/>
</a>
</g>
</g>
<!-- Node6&#45;&gt;Node1 -->
<g id="edge5_Node000001_Node000006" class="edge">
<title>Node6&#45;&gt;Node1</title>
<g id="a_edge5_Node000001_Node000006"><a xlink:title=" ">
<path fill="none" stroke="#63b8ff" d="M209.78,-246.08C206.97,-216.31 199.73,-165.58 181.5,-126 180.38,-123.57 179.16,-121.14 177.86,-118.73"/>
<polygon fill="none" stroke="#63b8ff" points="177.85,-118.71 171.35,-115.58 171.74,-108.38 178.24,-111.51 177.85,-118.71"/>
</a>
</g>
<text text-anchor="middle" x="215.81" y="-140.5" font-family="Helvetica,sans-Serif" font-size="10.00" fill="grey"> +SPEED</text>
</g>
</g>
</svg>

<g id="navigator" transform="translate(0 0)" fill="#404254">
  <rect fill="#f2f5e9" fill-opacity="0.5" stroke="#606060" stroke-width=".5" x="0" y="0" width="60" height="60"/>
  <use id="zoomplus" xlink:href="#zoomPlus" x="17" y="9" onmousedown="handleZoom(evt,'in')"/>
  <use id="zoomminus" xlink:href="#zoomMin" x="42" y="9" onmousedown="handleZoom(evt,'out')"/>
  <use id="reset" xlink:href="#resetDef" x="30" y="36" onmousedown="handleReset()"/>
   <use id="arrowup" xlink:href="#arrowUp" x="0" y="0" onmousedown="handlePan(0,-1)"/>
  <use id="arrowright" xlink:href="#arrowRight" x="0" y="0" onmousedown="handlePan(1,0)"/>
  <use id="arrowdown" xlink:href="#arrowDown" x="0" y="0" onmousedown="handlePan(0,1)"/>
  <use id="arrowleft" xlink:href="#arrowLeft" x="0" y="0" onmousedown="handlePan(-1,0)"/>
</g>
<svg viewBox="0 0 15 15" width="100%" height="30px" preserveAspectRatio="xMaxYMin meet">
 <g id="arrow_out" transform="scale(0.3 0.3)">
  <a xlink:href="class_player_moving__coll__graph_org.svg" target="_base">
   <rect id="button" ry="5" rx="5" y="6" x="6" height="38" width="38"
        fill="#f2f5e9" fill-opacity="0.5" stroke="#606060" stroke-width="1.0"/>
   <path id="arrow"
     d="M 11.500037,31.436501 C 11.940474,20.09759 22.043105,11.32322 32.158766,21.979434 L 37.068811,17.246167 C 37.068811,17.246167 37.088388,32 37.088388,32 L 22.160133,31.978069 C 22.160133,31.978069 26.997745,27.140456 26.997745,27.140456 C 18.528582,18.264221 13.291696,25.230495 11.500037,31.436501 z"
     style="fill:#404040;"/>
  </a>
 </g>
</svg>

<style type='text/css'>
<![CDATA[
[data-mouse-over-selected='false'] { opacity: 0.7; }
[data-mouse-over-selected='true']  { opacity: 1.0; }
]]>
</style>
<script type="application/ecmascript"><![CDATA[
document.addEventListener('DOMContentLoaded', (event) => {
  highlightEdges();
  highlightAdjacentNodes();
});
]]></script>
</svg>
