<?xml version="1.0" encoding="UTF-8" standalone="no"?>
<!DOCTYPE svg PUBLIC "-//W3C//DTD SVG 1.1//EN"
 "http://www.w3.org/Graphics/SVG/1.1/DTD/svg11.dtd">
<!-- Generated by graphviz version 12.1.0 (20240811.2233)
 -->
<!-- Title: PauseMenu Pages: 1 -->
<svg width="277pt" height="634pt"
 viewBox="0.00 0.00 276.50 634.00" xmlns="http://www.w3.org/2000/svg" xmlns:xlink="http://www.w3.org/1999/xlink">
<g id="graph0" class="graph" transform="scale(1 1) rotate(0) translate(4 630)">
<title>PauseMenu</title>
<!-- Node1 -->
<g id="Node000001" class="node">
<title>Node1</title>
<g id="a_Node000001"><a xlink:title=" ">
<polygon fill="#999999" stroke="none" points="141,-80 25,-80 25,0 141,0 141,-80"/>
<text text-anchor="start" x="57.12" y="-66.5" font-family="Helvetica,sans-Serif" font-size="10.00">PauseMenu</text>
<text text-anchor="start" x="81.5" y="-50.5" font-family="Helvetica,sans-Serif" font-size="10.00"> </text>
<text text-anchor="start" x="29" y="-34.5" font-family="Helvetica,sans-Serif" font-size="10.00">+</text>
<text text-anchor="start" x="39" y="-34.5" font-family="Helvetica,sans-Serif" font-size="10.00">override void _Ready()</text>
<text text-anchor="start" x="29" y="-18.5" font-family="Helvetica,sans-Serif" font-size="10.00">+</text>
<text text-anchor="start" x="39" y="-18.5" font-family="Helvetica,sans-Serif" font-size="10.00">override void _Input</text>
<text text-anchor="start" x="39" y="-6.5" font-family="Helvetica,sans-Serif" font-size="10.00">(InputEvent @event)</text>
<polygon fill="#666666" stroke="#666666" points="25,-62 25,-62 141,-62 141,-62 25,-62"/>
<polygon fill="#666666" stroke="#666666" points="25,-46 25,-46 141,-46 141,-46 25,-46"/>
<polygon fill="none" stroke="#666666" points="25,0 25,-80 141,-80 141,0 25,0"/>
</a>
</g>
</g>
<!-- Node2 -->
<g id="Node000002" class="node">
<title>Node2</title>
<g id="a_Node000002"><a xlink:href="../../d9/dc5/class_base_menu.html" target="_top" xlink:title=" ">
<polygon fill="white" stroke="none" points="166,-269 0,-269 0,-117 166,-117 166,-269"/>
<text text-anchor="start" x="59.75" y="-255.5" font-family="Helvetica,sans-Serif" font-size="10.00">BaseMenu</text>
<text text-anchor="start" x="4" y="-239.5" font-family="Helvetica,sans-Serif" font-size="10.00">+</text>
<text text-anchor="start" x="14" y="-239.5" font-family="Helvetica,sans-Serif" font-size="10.00">MenuManager.MenuType</text>
<text text-anchor="start" x="14" y="-227.5" font-family="Helvetica,sans-Serif" font-size="10.00"> MenuType</text>
<text text-anchor="start" x="4" y="-211.5" font-family="Helvetica,sans-Serif" font-size="10.00">+</text>
<text text-anchor="start" x="14" y="-211.5" font-family="Helvetica,sans-Serif" font-size="10.00">override void _Ready()</text>
<text text-anchor="start" x="4" y="-195.5" font-family="Helvetica,sans-Serif" font-size="10.00">+</text>
<text text-anchor="start" x="14" y="-195.5" font-family="Helvetica,sans-Serif" font-size="10.00">void PushMenu(MenuManager.</text>
<text text-anchor="start" x="14" y="-183.5" font-family="Helvetica,sans-Serif" font-size="10.00">MenuType newMenu)</text>
<text text-anchor="start" x="4" y="-167.5" font-family="Helvetica,sans-Serif" font-size="10.00">+</text>
<text text-anchor="start" x="14" y="-167.5" font-family="Helvetica,sans-Serif" font-size="10.00">void PopMenu()</text>
<text text-anchor="start" x="4" y="-151.5" font-family="Helvetica,sans-Serif" font-size="10.00">+</text>
<text text-anchor="start" x="14" y="-151.5" font-family="Helvetica,sans-Serif" font-size="10.00">void SetRootMenu(MenuManager.</text>
<text text-anchor="start" x="14" y="-139.5" font-family="Helvetica,sans-Serif" font-size="10.00">MenuType newMenu)</text>
<text text-anchor="start" x="4.38" y="-123.5" font-family="Helvetica,sans-Serif" font-size="10.00">#</text>
<text text-anchor="start" x="14" y="-123.5" font-family="Helvetica,sans-Serif" font-size="10.00">virtual void SetupMenu()</text>
<polygon fill="#666666" stroke="#666666" points="0,-251 0,-251 166,-251 166,-251 0,-251"/>
<polygon fill="#666666" stroke="#666666" points="0,-223 0,-223 12,-223 12,-223 0,-223"/>
<polygon fill="#666666" stroke="#666666" points="12,-223 12,-223 166,-223 166,-223 12,-223"/>
<polygon fill="none" stroke="#666666" points="0,-117 0,-269 166,-269 166,-117 0,-117"/>
</a>
</g>
</g>
<!-- Node2&#45;&gt;Node1 -->
<g id="edge1_Node000001_Node000002" class="edge">
<title>Node2&#45;&gt;Node1</title>
<g id="a_edge1_Node000001_Node000002"><a xlink:title=" ">
<path fill="none" stroke="#63b8ff" d="M83,-106.07C83,-96.86 83,-87.85 83,-79.62"/>
<polygon fill="none" stroke="#63b8ff" points="79.5,-105.87 83,-115.87 86.5,-105.87 79.5,-105.87"/>
</a>
</g>
</g>
<!-- Node3 -->
<g id="Node000003" class="node">
<title>Node3</title>
<g id="a_Node000003"><a xlink:href="../../dc/d8f/class_node.html" target="_top" xlink:title=" ">
<polygon fill="white" stroke="none" points="95.5,-626 62.5,-626 62.5,-574 95.5,-574 95.5,-626"/>
<text text-anchor="start" x="67.38" y="-612.5" font-family="Helvetica,sans-Serif" font-size="10.00">Node</text>
<text text-anchor="start" x="77.5" y="-596.5" font-family="Helvetica,sans-Serif" font-size="10.00"> </text>
<text text-anchor="start" x="77.5" y="-580.5" font-family="Helvetica,sans-Serif" font-size="10.00"> </text>
<polygon fill="#666666" stroke="#666666" points="62.5,-608 62.5,-608 95.5,-608 95.5,-608 62.5,-608"/>
<polygon fill="#666666" stroke="#666666" points="62.5,-592 62.5,-592 95.5,-592 95.5,-592 62.5,-592"/>
<polygon fill="none" stroke="#666666" points="62.5,-574 62.5,-626 95.5,-626 95.5,-574 62.5,-574"/>
</a>
</g>
</g>
<!-- Node3&#45;&gt;Node2 -->
<g id="edge2_Node000002_Node000003" class="edge">
<title>Node3&#45;&gt;Node2</title>
<g id="a_edge2_Node000002_Node000003"><a xlink:title=" ">
<path fill="none" stroke="#63b8ff" d="M79.36,-562.88C80.01,-497.03 81.4,-356.2 82.26,-268.86"/>
<polygon fill="none" stroke="#63b8ff" points="75.86,-562.73 79.26,-572.76 82.86,-562.8 75.86,-562.73"/>
</a>
</g>
</g>
<!-- Node4 -->
<g id="Node000004" class="node">
<title>Node4</title>
<g id="a_Node000004"><a xlink:href="../../d9/db2/class_menu_manager.html" target="_top" xlink:title=" ">
<polygon fill="white" stroke="none" points="268.5,-537 95.5,-537 95.5,-317 268.5,-317 268.5,-537"/>
<text text-anchor="start" x="151.25" y="-523.5" font-family="Helvetica,sans-Serif" font-size="10.00">MenuManager</text>
<text text-anchor="start" x="99.5" y="-507.5" font-family="Helvetica,sans-Serif" font-size="10.00">+</text>
<text text-anchor="start" x="109.5" y="-507.5" font-family="Helvetica,sans-Serif" font-size="10.00">MenuType CurrentMenu</text>
<text text-anchor="start" x="99.5" y="-491.5" font-family="Helvetica,sans-Serif" font-size="10.00">+</text>
<text text-anchor="start" x="109.5" y="-491.5" font-family="Helvetica,sans-Serif" font-size="10.00">delegate void MenuChanged</text>
<text text-anchor="start" x="109.5" y="-479.5" font-family="Helvetica,sans-Serif" font-size="10.00">EventHandler(MenuType newMenu,</text>
<text text-anchor="start" x="109.5" y="-467.5" font-family="Helvetica,sans-Serif" font-size="10.00"> bool isPush)</text>
<text text-anchor="start" x="99.5" y="-451.5" font-family="Helvetica,sans-Serif" font-size="10.00">+</text>
<text text-anchor="start" x="109.5" y="-451.5" font-family="Helvetica,sans-Serif" font-size="10.00">delegate void MenuLeftEvent</text>
<text text-anchor="start" x="109.5" y="-439.5" font-family="Helvetica,sans-Serif" font-size="10.00">Handler(MenuType leftMenu)</text>
<text text-anchor="start" x="99.5" y="-423.5" font-family="Helvetica,sans-Serif" font-size="10.00">+</text>
<text text-anchor="start" x="109.5" y="-423.5" font-family="Helvetica,sans-Serif" font-size="10.00">override void _EnterTree()</text>
<text text-anchor="start" x="99.5" y="-407.5" font-family="Helvetica,sans-Serif" font-size="10.00">+</text>
<text text-anchor="start" x="109.5" y="-407.5" font-family="Helvetica,sans-Serif" font-size="10.00">void PushMenu(MenuType</text>
<text text-anchor="start" x="109.5" y="-395.5" font-family="Helvetica,sans-Serif" font-size="10.00"> newMenu)</text>
<text text-anchor="start" x="99.5" y="-379.5" font-family="Helvetica,sans-Serif" font-size="10.00">+</text>
<text text-anchor="start" x="109.5" y="-379.5" font-family="Helvetica,sans-Serif" font-size="10.00">void PopMenu()</text>
<text text-anchor="start" x="99.5" y="-363.5" font-family="Helvetica,sans-Serif" font-size="10.00">+</text>
<text text-anchor="start" x="109.5" y="-363.5" font-family="Helvetica,sans-Serif" font-size="10.00">void SetRootMenu(MenuType</text>
<text text-anchor="start" x="109.5" y="-351.5" font-family="Helvetica,sans-Serif" font-size="10.00"> newMenu)</text>
<text text-anchor="start" x="99.5" y="-335.5" font-family="Helvetica,sans-Serif" font-size="10.00">+</text>
<text text-anchor="start" x="109.5" y="-335.5" font-family="Helvetica,sans-Serif" font-size="10.00">void RequestRootMenu</text>
<text text-anchor="start" x="109.5" y="-323.5" font-family="Helvetica,sans-Serif" font-size="10.00">(BaseMenu menu)</text>
<polygon fill="#666666" stroke="#666666" points="95.5,-519 95.5,-519 268.5,-519 268.5,-519 95.5,-519"/>
<polygon fill="#666666" stroke="#666666" points="95.5,-503 95.5,-503 107.5,-503 107.5,-503 95.5,-503"/>
<polygon fill="#666666" stroke="#666666" points="107.5,-503 107.5,-503 268.5,-503 268.5,-503 107.5,-503"/>
<polygon fill="none" stroke="#666666" points="95.5,-317 95.5,-537 268.5,-537 268.5,-317 95.5,-317"/>
</a>
</g>
</g>
<!-- Node3&#45;&gt;Node4 -->
<g id="edge4_Node000004_Node000003" class="edge">
<title>Node3&#45;&gt;Node4</title>
<g id="a_edge4_Node000004_Node000003"><a xlink:title=" ">
<path fill="none" stroke="#63b8ff" d="M99.8,-564.47C104.84,-556.1 110.5,-546.7 116.43,-536.85"/>
<polygon fill="none" stroke="#63b8ff" points="96.92,-562.47 94.76,-572.84 102.92,-566.08 96.92,-562.47"/>
</a>
</g>
</g>
<!-- Node4&#45;&gt;Node2 -->
<g id="edge3_Node000002_Node000004" class="edge">
<title>Node4&#45;&gt;Node2</title>
<g id="a_edge3_Node000002_Node000004"><a xlink:title=" ">
<path fill="none" stroke="#63b8ff" d="M135.54,-317.13C130.31,-304.86 125.02,-292.48 119.93,-280.54"/>
<polygon fill="none" stroke="#63b8ff" points="119.97,-280.65 113.94,-276.7 115.26,-269.61 121.3,-273.56 119.97,-280.65"/>
</a>
</g>
<text text-anchor="middle" x="161.45" y="-289.5" font-family="Helvetica,sans-Serif" font-size="10.00" fill="grey"> #MenuManager</text>
</g>
</g>
</svg>
