<?xml version="1.0" encoding="UTF-8" standalone="no"?>
<!DOCTYPE svg PUBLIC "-//W3C//DTD SVG 1.1//EN"
 "http://www.w3.org/Graphics/SVG/1.1/DTD/svg11.dtd">
<!-- Generated by graphviz version 12.1.0 (20240811.2233)
 -->
<!-- Title: DungeonHandler Pages: 1 -->
<svg width="180pt" height="276pt"
 viewBox="0.00 0.00 180.00 276.00" xmlns="http://www.w3.org/2000/svg" xmlns:xlink="http://www.w3.org/1999/xlink">

<svg id="main" version="1.1" xmlns="http://www.w3.org/2000/svg" xmlns:xlink="http://www.w3.org/1999/xlink" xml:space="preserve" onload="init(evt)">
<style type="text/css"><![CDATA[
.node, .edge {opacity: 0.7;}
.node.selected, .edge.selected {opacity: 1;}
.edge:hover path { stroke: red; }
.edge:hover polygon { stroke: red; fill: red; }
]]></style>
<script type="application/ecmascript" xlink:href="../../svg.min.js"/>
<svg id="graph" class="graph">
<g id="graph0" class="graph" transform="scale(1 1) rotate(0) translate(4 272)">
<title>DungeonHandler</title>
<!-- Node1 -->
<g id="Node000001" class="node">
<title>Node1</title>
<g id="a_Node000001"><a xlink:title="Manages the dungeon layout, room transitions, and player movement between rooms.">
<polygon fill="#999999" stroke="none" points="172,-156 0,-156 0,0 172,0 172,-156"/>
<text text-anchor="start" x="49.62" y="-142.5" font-family="Helvetica,sans-Serif" font-size="10.00">DungeonHandler</text>
<text text-anchor="start" x="84.5" y="-126.5" font-family="Helvetica,sans-Serif" font-size="10.00"> </text>
<text text-anchor="start" x="4" y="-110.5" font-family="Helvetica,sans-Serif" font-size="10.00">+</text>
<text text-anchor="start" x="14" y="-110.5" font-family="Helvetica,sans-Serif" font-size="10.00">override void _Ready()</text>
<text text-anchor="start" x="4" y="-94.5" font-family="Helvetica,sans-Serif" font-size="10.00">+</text>
<text text-anchor="start" x="14" y="-94.5" font-family="Helvetica,sans-Serif" font-size="10.00">void LoadDungeon(Dungeon</text>
<text text-anchor="start" x="14" y="-82.5" font-family="Helvetica,sans-Serif" font-size="10.00"> dungeon)</text>
<text text-anchor="start" x="4" y="-66.5" font-family="Helvetica,sans-Serif" font-size="10.00">+</text>
<text text-anchor="start" x="14" y="-66.5" font-family="Helvetica,sans-Serif" font-size="10.00">Vector2I GetCurrentRoomPosition()</text>
<text text-anchor="start" x="4" y="-50.5" font-family="Helvetica,sans-Serif" font-size="10.00">+</text>
<text text-anchor="start" x="14" y="-50.5" font-family="Helvetica,sans-Serif" font-size="10.00">Vector2 GetGridSize()</text>
<text text-anchor="start" x="4" y="-34.5" font-family="Helvetica,sans-Serif" font-size="10.00">+</text>
<text text-anchor="start" x="14" y="-34.5" font-family="Helvetica,sans-Serif" font-size="10.00">Dictionary&lt; Vector2I,</text>
<text text-anchor="start" x="14" y="-22.5" font-family="Helvetica,sans-Serif" font-size="10.00"> Room &gt; GetDungeonLayout()</text>
<text text-anchor="start" x="4" y="-6.5" font-family="Helvetica,sans-Serif" font-size="10.00">+</text>
<text text-anchor="start" x="14" y="-6.5" font-family="Helvetica,sans-Serif" font-size="10.00">MagicType GetMagicType()</text>
<polygon fill="#666666" stroke="#666666" points="0,-138 0,-138 172,-138 172,-138 0,-138"/>
<polygon fill="#666666" stroke="#666666" points="0,-122 0,-122 172,-122 172,-122 0,-122"/>
<polygon fill="none" stroke="#666666" points="0,0 0,-156 172,-156 172,0 0,0"/>
</a>
</g>
</g>
<!-- Node2 -->
<g id="Node000002" class="node">
<title>Node2</title>
<g id="a_Node000002"><a xlink:href="../../dc/d8f/class_node.html" target="_top" xlink:title=" ">
<polygon fill="white" stroke="none" points="80.5,-268 47.5,-268 47.5,-216 80.5,-216 80.5,-268"/>
<text text-anchor="start" x="52.38" y="-254.5" font-family="Helvetica,sans-Serif" font-size="10.00">Node</text>
<text text-anchor="start" x="62.5" y="-238.5" font-family="Helvetica,sans-Serif" font-size="10.00"> </text>
<text text-anchor="start" x="62.5" y="-222.5" font-family="Helvetica,sans-Serif" font-size="10.00"> </text>
<polygon fill="#666666" stroke="#666666" points="47.5,-250 47.5,-250 80.5,-250 80.5,-250 47.5,-250"/>
<polygon fill="#666666" stroke="#666666" points="47.5,-234 47.5,-234 80.5,-234 80.5,-234 47.5,-234"/>
<polygon fill="none" stroke="#666666" points="47.5,-216 47.5,-268 80.5,-268 80.5,-216 47.5,-216"/>
</a>
</g>
</g>
<!-- Node2&#45;&gt;Node1 -->
<g id="edge1_Node000001_Node000002" class="edge">
<title>Node2&#45;&gt;Node1</title>
<g id="a_edge1_Node000001_Node000002"><a xlink:title=" ">
<path fill="none" stroke="#63b8ff" d="M68.88,-205.04C70.86,-190.48 73.22,-173.07 75.55,-155.92"/>
<polygon fill="none" stroke="#63b8ff" points="65.47,-204.16 67.59,-214.54 72.41,-205.1 65.47,-204.16"/>
</a>
</g>
</g>
<!-- Node3 -->
<g id="Node000003" class="node">
<title>Node3</title>
<g id="a_Node000003"><a xlink:title=" ">
<polygon fill="white" stroke="none" points="119,-268 99,-268 99,-216 119,-216 119,-268"/>
<text text-anchor="start" x="103.75" y="-254.5" font-family="Helvetica,sans-Serif" font-size="10.00">int</text>
<text text-anchor="start" x="107.5" y="-238.5" font-family="Helvetica,sans-Serif" font-size="10.00"> </text>
<text text-anchor="start" x="107.5" y="-222.5" font-family="Helvetica,sans-Serif" font-size="10.00"> </text>
<polygon fill="#666666" stroke="#666666" points="99,-250 99,-250 119,-250 119,-250 99,-250"/>
<polygon fill="#666666" stroke="#666666" points="99,-234 99,-234 119,-234 119,-234 99,-234"/>
<polygon fill="none" stroke="#666666" points="99,-216 99,-268 119,-268 119,-216 99,-216"/>
</a>
</g>
</g>
<!-- Node3&#45;&gt;Node1 -->
<g id="edge2_Node000001_Node000003" class="edge">
<title>Node3&#45;&gt;Node1</title>
<g id="a_edge2_Node000001_Node000003"><a xlink:title=" ">
<path fill="none" stroke="#63b8ff" d="M105.46,-216.04C103.6,-202.97 101.2,-186.08 98.73,-168.66"/>
<polygon fill="none" stroke="#63b8ff" points="98.73,-168.69 93.93,-163.31 97.05,-156.81 101.85,-162.19 98.73,-168.69"/>
</a>
</g>
<text text-anchor="middle" x="132.46" y="-188.5" font-family="Helvetica,sans-Serif" font-size="10.00" fill="grey"> +MaxRooms</text>
<text text-anchor="middle" x="132.46" y="-176.5" font-family="Helvetica,sans-Serif" font-size="10.00" fill="grey">+MinRooms</text>
</g>
</g>
</svg>
</svg>

<style type='text/css'>
<![CDATA[
[data-mouse-over-selected='false'] { opacity: 0.7; }
[data-mouse-over-selected='true']  { opacity: 1.0; }
]]>
</style>
<script type="application/ecmascript"><![CDATA[
document.addEventListener('DOMContentLoaded', (event) => {
  highlightEdges();
  highlightAdjacentNodes();
});
]]></script>
</svg>
