<?xml version="1.0" encoding="UTF-8" standalone="no"?>
<!DOCTYPE svg PUBLIC "-//W3C//DTD SVG 1.1//EN"
 "http://www.w3.org/Graphics/SVG/1.1/DTD/svg11.dtd">
<!-- Generated by graphviz version 12.1.0 (20240811.2233)
 -->
<!-- Title: InventorySpell Pages: 1 -->
<!--zoomable 837 -->

<svg id="main" version="1.1" xmlns="http://www.w3.org/2000/svg" xmlns:xlink="http://www.w3.org/1999/xlink" xml:space="preserve" onload="init(evt)">
<style type="text/css"><![CDATA[
.node, .edge {opacity: 0.7;}
.node.selected, .edge.selected {opacity: 1;}
.edge:hover path { stroke: red; }
.edge:hover polygon { stroke: red; fill: red; }
]]></style>

<defs>
  <circle id="rim" cx="0" cy="0" r="7"/>
  <circle id="rim2" cx="0" cy="0" r="3.5"/>
  <g id="zoomPlus">
    <use xlink:href="#rim" fill="#404040"><set attributeName="fill" to="#808080" begin="zoomplus.mouseover" end="zoomplus.mouseout"/></use>
    <path d="M-4,0h8M0,-4v8" fill="none" stroke="white" stroke-width="1.5" pointer-events="none"/>
  </g>
  <g id="zoomMin">
    <use xlink:href="#rim" fill="#404040"><set attributeName="fill" to="#808080" begin="zoomminus.mouseover" end="zoomminus.mouseout"/></use>
    <path d="M-4,0h8" fill="none" stroke="white" stroke-width="1.5" pointer-events="none"/>
  </g>
  <g id="arrowUp" transform="translate(30 24)">
    <use xlink:href="#rim"/>
    <path pointer-events="none" fill="none" stroke="white" stroke-width="1.5" d="M0,-3.0v7 M-2.5,-0.5L0,-3.0L2.5,-0.5"/>
  </g>
  <g id="arrowRight" transform="rotate(90) translate(36 -43)">
    <use xlink:href="#rim"/>
    <path pointer-events="none" fill="none" stroke="white" stroke-width="1.5" d="M0,-3.0v7 M-2.5,-0.5L0,-3.0L2.5,-0.5"/>
  </g>
  <g id="arrowDown" transform="rotate(180) translate(-30 -48)">
    <use xlink:href="#rim"/>
    <path pointer-events="none" fill="none" stroke="white" stroke-width="1.5" d="M0,-3.0v7 M-2.5,-0.5L0,-3.0L2.5,-0.5"/>
  </g>
  <g id="arrowLeft" transform="rotate(270) translate(-36 17)">
    <use xlink:href="#rim"/>
    <path pointer-events="none" fill="none" stroke="white" stroke-width="1.5" d="M0,-3.0v7 M-2.5,-0.5L0,-3.0L2.5,-0.5"/>
  </g>
  <g id="resetDef">
    <use xlink:href="#rim2" fill="#404040"><set attributeName="fill" to="#808080" begin="reset.mouseover" end="reset.mouseout"/></use>
  </g>
</defs>
<script type="application/ecmascript">
var viewWidth = 474;
var viewHeight = 837;
var sectionId = 'dynsection-1';
</script>
<script type="application/ecmascript" xlink:href="../../svg.min.js"/>
<svg id="graph" class="graph">
<g id="viewport">
<title>InventorySpell</title>
<!-- Node1 -->
<g id="Node000001" class="node">
<title>Node1</title>
<g id="a_Node000001"><a xlink:title=" ">
<polygon fill="#999999" stroke="none" points="257.5,-192 65.5,-192 65.5,0 257.5,0 257.5,-192"/>
<text text-anchor="start" x="130.38" y="-178.5" font-family="Helvetica,sans-Serif" font-size="10.00">InventorySpell</text>
<text text-anchor="start" x="160" y="-162.5" font-family="Helvetica,sans-Serif" font-size="10.00"> </text>
<text text-anchor="start" x="69.5" y="-146.5" font-family="Helvetica,sans-Serif" font-size="10.00">+</text>
<text text-anchor="start" x="79.5" y="-146.5" font-family="Helvetica,sans-Serif" font-size="10.00">override void _Ready()</text>
<text text-anchor="start" x="69.5" y="-130.5" font-family="Helvetica,sans-Serif" font-size="10.00">+</text>
<text text-anchor="start" x="79.5" y="-130.5" font-family="Helvetica,sans-Serif" font-size="10.00">virtual void Cast(Vector2</text>
<text text-anchor="start" x="79.5" y="-118.5" font-family="Helvetica,sans-Serif" font-size="10.00"> playerPosition, Vector2</text>
<text text-anchor="start" x="79.5" y="-106.5" font-family="Helvetica,sans-Serif" font-size="10.00"> targetPosition)</text>
<text text-anchor="start" x="69.5" y="-90.5" font-family="Helvetica,sans-Serif" font-size="10.00">+</text>
<text text-anchor="start" x="79.5" y="-90.5" font-family="Helvetica,sans-Serif" font-size="10.00">void ResetDamage()</text>
<text text-anchor="start" x="69.5" y="-74.5" font-family="Helvetica,sans-Serif" font-size="10.00">+</text>
<text text-anchor="start" x="79.5" y="-74.5" font-family="Helvetica,sans-Serif" font-size="10.00">void AddOnCastAugmentEffect</text>
<text text-anchor="start" x="79.5" y="-62.5" font-family="Helvetica,sans-Serif" font-size="10.00">(OnCastAugmentEffect onCastAugment</text>
<text text-anchor="start" x="79.5" y="-50.5" font-family="Helvetica,sans-Serif" font-size="10.00">Effect)</text>
<text text-anchor="start" x="69.5" y="-34.5" font-family="Helvetica,sans-Serif" font-size="10.00">+</text>
<text text-anchor="start" x="79.5" y="-34.5" font-family="Helvetica,sans-Serif" font-size="10.00">void ClearOnCastAugmentEffects()</text>
<text text-anchor="start" x="69.5" y="-18.5" font-family="Helvetica,sans-Serif" font-size="10.00">+</text>
<text text-anchor="start" x="79.5" y="-18.5" font-family="Helvetica,sans-Serif" font-size="10.00">List&lt; OnCastAugmentEffect</text>
<text text-anchor="start" x="79.5" y="-6.5" font-family="Helvetica,sans-Serif" font-size="10.00"> &gt; GetOnCastAugmentEffects()</text>
<polygon fill="#666666" stroke="#666666" points="65.5,-174 65.5,-174 257.5,-174 257.5,-174 65.5,-174"/>
<polygon fill="#666666" stroke="#666666" points="65.5,-158 65.5,-158 257.5,-158 257.5,-158 65.5,-158"/>
<polygon fill="none" stroke="#666666" points="65.5,0 65.5,-192 257.5,-192 257.5,0 65.5,0"/>
</a>
</g>
</g>
<!-- Node2 -->
<g id="Node000002" class="node">
<title>Node2</title>
<g id="a_Node000002"><a xlink:href="../../dc/d8f/class_node.html" target="_top" xlink:title=" ">
<polygon fill="white" stroke="none" points="33,-434 0,-434 0,-382 33,-382 33,-434"/>
<text text-anchor="start" x="4.88" y="-420.5" font-family="Helvetica,sans-Serif" font-size="10.00">Node</text>
<text text-anchor="start" x="15" y="-404.5" font-family="Helvetica,sans-Serif" font-size="10.00"> </text>
<text text-anchor="start" x="15" y="-388.5" font-family="Helvetica,sans-Serif" font-size="10.00"> </text>
<polygon fill="#666666" stroke="#666666" points="0,-416 0,-416 33,-416 33,-416 0,-416"/>
<polygon fill="#666666" stroke="#666666" points="0,-400 0,-400 33,-400 33,-400 0,-400"/>
<polygon fill="none" stroke="#666666" points="0,-382 0,-434 33,-434 33,-382 0,-382"/>
</a>
</g>
</g>
<!-- Node2&#45;&gt;Node1 -->
<g id="edge1_Node000001_Node000002" class="edge">
<title>Node2&#45;&gt;Node1</title>
<g id="a_edge1_Node000001_Node000002"><a xlink:title=" ">
<path fill="none" stroke="#63b8ff" d="M19.93,-370.61C25.13,-329.28 37.77,-260.97 67.5,-210 71.04,-203.94 74.9,-197.87 78.97,-191.88"/>
<polygon fill="none" stroke="#63b8ff" points="16.45,-370.18 18.77,-380.52 23.41,-370.99 16.45,-370.18"/>
</a>
</g>
</g>
<!-- Node3 -->
<g id="Node000003" class="node">
<title>Node3</title>
<g id="a_Node000003"><a xlink:title=" ">
<polygon fill="white" stroke="none" points="89.5,-434 51.5,-434 51.5,-382 89.5,-382 89.5,-434"/>
<text text-anchor="start" x="56.25" y="-420.5" font-family="Helvetica,sans-Serif" font-size="10.00">double</text>
<text text-anchor="start" x="69" y="-404.5" font-family="Helvetica,sans-Serif" font-size="10.00"> </text>
<text text-anchor="start" x="69" y="-388.5" font-family="Helvetica,sans-Serif" font-size="10.00"> </text>
<polygon fill="#666666" stroke="#666666" points="51.5,-416 51.5,-416 89.5,-416 89.5,-416 51.5,-416"/>
<polygon fill="#666666" stroke="#666666" points="51.5,-400 51.5,-400 89.5,-400 89.5,-400 51.5,-400"/>
<polygon fill="none" stroke="#666666" points="51.5,-382 51.5,-434 89.5,-434 89.5,-382 51.5,-382"/>
</a>
</g>
</g>
<!-- Node3&#45;&gt;Node1 -->
<g id="edge2_Node000001_Node000003" class="edge">
<title>Node3&#45;&gt;Node1</title>
<g id="a_edge2_Node000001_Node000003"><a xlink:title=" ">
<path fill="none" stroke="#63b8ff" d="M67.96,-382.21C64.96,-344.04 62.68,-269.07 83.25,-210 83.98,-207.91 84.76,-205.82 85.58,-203.74"/>
<polygon fill="none" stroke="#63b8ff" points="85.59,-203.71 84.33,-196.61 90.4,-192.71 91.66,-199.81 85.59,-203.71"/>
</a>
</g>
<text text-anchor="middle" x="117.38" y="-248.5" font-family="Helvetica,sans-Serif" font-size="10.00" fill="grey"> +BaseDamage</text>
<text text-anchor="middle" x="117.38" y="-236.5" font-family="Helvetica,sans-Serif" font-size="10.00" fill="grey">+CastTime</text>
<text text-anchor="middle" x="117.38" y="-224.5" font-family="Helvetica,sans-Serif" font-size="10.00" fill="grey">+CoolDown</text>
<text text-anchor="middle" x="117.38" y="-212.5" font-family="Helvetica,sans-Serif" font-size="10.00" fill="grey">+Damage</text>
</g>
<!-- Node4 -->
<g id="Node000004" class="node">
<title>Node4</title>
<g id="a_Node000004"><a xlink:title=" ">
<polygon fill="white" stroke="none" points="177,-434 120,-434 120,-382 177,-382 177,-434"/>
<text text-anchor="start" x="124.88" y="-420.5" font-family="Helvetica,sans-Serif" font-size="10.00">MagicType</text>
<text text-anchor="start" x="147" y="-404.5" font-family="Helvetica,sans-Serif" font-size="10.00"> </text>
<text text-anchor="start" x="147" y="-388.5" font-family="Helvetica,sans-Serif" font-size="10.00"> </text>
<polygon fill="#666666" stroke="#666666" points="120,-416 120,-416 177,-416 177,-416 120,-416"/>
<polygon fill="#666666" stroke="#666666" points="120,-400 120,-400 177,-400 177,-400 120,-400"/>
<polygon fill="none" stroke="#666666" points="120,-382 120,-434 177,-434 177,-382 120,-382"/>
</a>
</g>
</g>
<!-- Node4&#45;&gt;Node1 -->
<g id="edge3_Node000001_Node000004" class="edge">
<title>Node4&#45;&gt;Node1</title>
<g id="a_edge3_Node000001_Node000004"><a xlink:title=" ">
<path fill="none" stroke="#63b8ff" d="M149.54,-382.16C151.15,-343.91 154.31,-268.37 156.99,-204.64"/>
<polygon fill="none" stroke="#63b8ff" points="156.99,-204.55 153.24,-198.38 157.49,-192.56 161.24,-198.72 156.99,-204.55"/>
</a>
</g>
<text text-anchor="middle" x="184.67" y="-230.5" font-family="Helvetica,sans-Serif" font-size="10.00" fill="grey"> +MagicType</text>
</g>
<!-- Node5 -->
<g id="Node000005" class="node">
<title>Node5</title>
<g id="a_Node000005"><a xlink:href="../../d1/da7/class_health_component.html" target="_top" xlink:title=" ">
<polygon fill="white" stroke="none" points="377.5,-540 195.5,-540 195.5,-276 377.5,-276 377.5,-540"/>
<text text-anchor="start" x="247.12" y="-526.5" font-family="Helvetica,sans-Serif" font-size="10.00">HealthComponent</text>
<text text-anchor="start" x="285" y="-510.5" font-family="Helvetica,sans-Serif" font-size="10.00"> </text>
<text text-anchor="start" x="199.5" y="-494.5" font-family="Helvetica,sans-Serif" font-size="10.00">+</text>
<text text-anchor="start" x="209.5" y="-494.5" font-family="Helvetica,sans-Serif" font-size="10.00">delegate void DeathEvent</text>
<text text-anchor="start" x="209.5" y="-482.5" font-family="Helvetica,sans-Serif" font-size="10.00">Handler()</text>
<text text-anchor="start" x="199.5" y="-466.5" font-family="Helvetica,sans-Serif" font-size="10.00">+</text>
<text text-anchor="start" x="209.5" y="-466.5" font-family="Helvetica,sans-Serif" font-size="10.00">override void _Ready()</text>
<text text-anchor="start" x="199.5" y="-450.5" font-family="Helvetica,sans-Serif" font-size="10.00">+</text>
<text text-anchor="start" x="209.5" y="-450.5" font-family="Helvetica,sans-Serif" font-size="10.00">void TakeDamage(Attack</text>
<text text-anchor="start" x="209.5" y="-438.5" font-family="Helvetica,sans-Serif" font-size="10.00"> attack)</text>
<text text-anchor="start" x="199.5" y="-422.5" font-family="Helvetica,sans-Serif" font-size="10.00">+</text>
<text text-anchor="start" x="209.5" y="-422.5" font-family="Helvetica,sans-Serif" font-size="10.00">void SetMaxHP(double</text>
<text text-anchor="start" x="209.5" y="-410.5" font-family="Helvetica,sans-Serif" font-size="10.00"> newMaxHP)</text>
<text text-anchor="start" x="199.5" y="-394.5" font-family="Helvetica,sans-Serif" font-size="10.00">+</text>
<text text-anchor="start" x="209.5" y="-394.5" font-family="Helvetica,sans-Serif" font-size="10.00">double GetMaxHP()</text>
<text text-anchor="start" x="199.5" y="-378.5" font-family="Helvetica,sans-Serif" font-size="10.00">+</text>
<text text-anchor="start" x="209.5" y="-378.5" font-family="Helvetica,sans-Serif" font-size="10.00">void SetArmor(double</text>
<text text-anchor="start" x="209.5" y="-366.5" font-family="Helvetica,sans-Serif" font-size="10.00"> armorSun, double armorCosmic,</text>
<text text-anchor="start" x="209.5" y="-354.5" font-family="Helvetica,sans-Serif" font-size="10.00"> double armorDark)</text>
<text text-anchor="start" x="199.5" y="-338.5" font-family="Helvetica,sans-Serif" font-size="10.00">+</text>
<text text-anchor="start" x="209.5" y="-338.5" font-family="Helvetica,sans-Serif" font-size="10.00">double GetCurrentHP()</text>
<text text-anchor="start" x="199.5" y="-322.5" font-family="Helvetica,sans-Serif" font-size="10.00">+</text>
<text text-anchor="start" x="209.5" y="-322.5" font-family="Helvetica,sans-Serif" font-size="10.00">double GetArmorOfType</text>
<text text-anchor="start" x="209.5" y="-310.5" font-family="Helvetica,sans-Serif" font-size="10.00">(MagicType type)</text>
<text text-anchor="start" x="199.5" y="-294.5" font-family="Helvetica,sans-Serif" font-size="10.00">+</text>
<text text-anchor="start" x="209.5" y="-294.5" font-family="Helvetica,sans-Serif" font-size="10.00">void ModifyArmor(MagicType</text>
<text text-anchor="start" x="209.5" y="-282.5" font-family="Helvetica,sans-Serif" font-size="10.00"> magicType, double flatArmorChange)</text>
<polygon fill="#666666" stroke="#666666" points="195.5,-522 195.5,-522 377.5,-522 377.5,-522 195.5,-522"/>
<polygon fill="#666666" stroke="#666666" points="195.5,-506 195.5,-506 377.5,-506 377.5,-506 195.5,-506"/>
<polygon fill="none" stroke="#666666" points="195.5,-276 195.5,-540 377.5,-540 377.5,-276 195.5,-276"/>
</a>
</g>
</g>
<!-- Node5&#45;&gt;Node1 -->
<g id="edge4_Node000001_Node000005" class="edge">
<title>Node5&#45;&gt;Node1</title>
<g id="a_edge4_Node000001_Node000005"><a xlink:title=" ">
<path fill="none" stroke="#63b8ff" d="M242.31,-276.14C234.15,-253.9 225.38,-231.17 216.5,-210 215.64,-207.96 214.77,-205.9 213.88,-203.84"/>
<polygon fill="none" stroke="#63b8ff" points="213.83,-203.71 207.75,-199.83 208.99,-192.73 215.07,-196.61 213.83,-203.71"/>
</a>
</g>
<text text-anchor="middle" x="294.79" y="-230.5" font-family="Helvetica,sans-Serif" font-size="10.00" fill="grey"> #_playerHealthComponent</text>
</g>
<!-- Node6 -->
<g id="Node000006" class="node">
<title>Node6</title>
<g id="a_Node000006"><a xlink:href="../../dc/df8/class_area2_d.html" target="_top" xlink:title=" ">
<polygon fill="white" stroke="none" points="275,-690 232,-690 232,-638 275,-638 275,-690"/>
<text text-anchor="start" x="237" y="-676.5" font-family="Helvetica,sans-Serif" font-size="10.00">Area2D</text>
<text text-anchor="start" x="252" y="-660.5" font-family="Helvetica,sans-Serif" font-size="10.00"> </text>
<text text-anchor="start" x="252" y="-644.5" font-family="Helvetica,sans-Serif" font-size="10.00"> </text>
<polygon fill="#666666" stroke="#666666" points="232,-672 232,-672 275,-672 275,-672 232,-672"/>
<polygon fill="#666666" stroke="#666666" points="232,-656 232,-656 275,-656 275,-656 232,-656"/>
<polygon fill="none" stroke="#666666" points="232,-638 232,-690 275,-690 275,-638 232,-638"/>
</a>
</g>
</g>
<!-- Node6&#45;&gt;Node5 -->
<g id="edge5_Node000005_Node000006" class="edge">
<title>Node6&#45;&gt;Node5</title>
<g id="a_edge5_Node000005_Node000006"><a xlink:title=" ">
<path fill="none" stroke="#63b8ff" d="M258.19,-626.87C261.21,-603.68 265.32,-572 269.48,-539.98"/>
<polygon fill="none" stroke="#63b8ff" points="254.74,-626.31 256.92,-636.68 261.68,-627.22 254.74,-626.31"/>
</a>
</g>
</g>
<!-- Node7 -->
<g id="Node000007" class="node">
<title>Node7</title>
<g id="a_Node000007"><a xlink:href="../../d7/dca/class_healthbar.html" target="_top" xlink:title=" ">
<polygon fill="white" stroke="none" points="410,-740 293,-740 293,-588 410,-588 410,-740"/>
<text text-anchor="start" x="330.5" y="-726.5" font-family="Helvetica,sans-Serif" font-size="10.00">Healthbar</text>
<text text-anchor="start" x="350" y="-710.5" font-family="Helvetica,sans-Serif" font-size="10.00"> </text>
<text text-anchor="start" x="297" y="-694.5" font-family="Helvetica,sans-Serif" font-size="10.00">+</text>
<text text-anchor="start" x="307" y="-694.5" font-family="Helvetica,sans-Serif" font-size="10.00">override void _Ready()</text>
<text text-anchor="start" x="297" y="-678.5" font-family="Helvetica,sans-Serif" font-size="10.00">+</text>
<text text-anchor="start" x="307" y="-678.5" font-family="Helvetica,sans-Serif" font-size="10.00">override void _Process</text>
<text text-anchor="start" x="307" y="-666.5" font-family="Helvetica,sans-Serif" font-size="10.00">(double delta)</text>
<text text-anchor="start" x="297" y="-650.5" font-family="Helvetica,sans-Serif" font-size="10.00">+</text>
<text text-anchor="start" x="307" y="-650.5" font-family="Helvetica,sans-Serif" font-size="10.00">void InitHealthbar</text>
<text text-anchor="start" x="307" y="-638.5" font-family="Helvetica,sans-Serif" font-size="10.00">(double health)</text>
<text text-anchor="start" x="297" y="-622.5" font-family="Helvetica,sans-Serif" font-size="10.00">+</text>
<text text-anchor="start" x="307" y="-622.5" font-family="Helvetica,sans-Serif" font-size="10.00">void SetHealthPoints</text>
<text text-anchor="start" x="307" y="-610.5" font-family="Helvetica,sans-Serif" font-size="10.00">(double newHealth)</text>
<text text-anchor="start" x="297" y="-594.5" font-family="Helvetica,sans-Serif" font-size="10.00">+</text>
<text text-anchor="start" x="307" y="-594.5" font-family="Helvetica,sans-Serif" font-size="10.00">void OnTimerTimeout()</text>
<polygon fill="#666666" stroke="#666666" points="293,-722 293,-722 410,-722 410,-722 293,-722"/>
<polygon fill="#666666" stroke="#666666" points="293,-706 293,-706 410,-706 410,-706 293,-706"/>
<polygon fill="none" stroke="#666666" points="293,-588 293,-740 410,-740 410,-588 293,-588"/>
</a>
</g>
</g>
<!-- Node7&#45;&gt;Node5 -->
<g id="edge6_Node000005_Node000007" class="edge">
<title>Node7&#45;&gt;Node5</title>
<g id="a_edge6_Node000005_Node000007"><a xlink:title=" ">
<path fill="none" stroke="#63b8ff" d="M332.35,-588.17C329.43,-576.75 326.33,-564.66 323.19,-552.35"/>
<polygon fill="none" stroke="#63b8ff" points="323.22,-552.5 317.86,-547.68 320.25,-540.87 325.61,-545.69 323.22,-552.5"/>
</a>
</g>
<text text-anchor="middle" x="351.11" y="-560.5" font-family="Helvetica,sans-Serif" font-size="10.00" fill="grey"> +healthbar</text>
</g>
<!-- Node8 -->
<g id="Node000008" class="node">
<title>Node8</title>
<g id="a_Node000008"><a xlink:title=" ">
<polygon fill="white" stroke="none" points="399.5,-829 303.5,-829 303.5,-777 399.5,-777 399.5,-829"/>
<text text-anchor="start" x="308.38" y="-815.5" font-family="Helvetica,sans-Serif" font-size="10.00">TextureProgressBar</text>
<text text-anchor="start" x="350" y="-799.5" font-family="Helvetica,sans-Serif" font-size="10.00"> </text>
<text text-anchor="start" x="350" y="-783.5" font-family="Helvetica,sans-Serif" font-size="10.00"> </text>
<polygon fill="#666666" stroke="#666666" points="303.5,-811 303.5,-811 399.5,-811 399.5,-811 303.5,-811"/>
<polygon fill="#666666" stroke="#666666" points="303.5,-795 303.5,-795 399.5,-795 399.5,-795 303.5,-795"/>
<polygon fill="none" stroke="#666666" points="303.5,-777 303.5,-829 399.5,-829 399.5,-777 303.5,-777"/>
</a>
</g>
</g>
<!-- Node8&#45;&gt;Node7 -->
<g id="edge7_Node000007_Node000008" class="edge">
<title>Node8&#45;&gt;Node7</title>
<g id="a_edge7_Node000007_Node000008"><a xlink:title=" ">
<path fill="none" stroke="#63b8ff" d="M351.5,-765.92C351.5,-757.8 351.5,-748.88 351.5,-739.81"/>
<polygon fill="none" stroke="#63b8ff" points="348,-765.68 351.5,-775.68 355,-765.68 348,-765.68"/>
</a>
</g>
</g>
<!-- Node9 -->
<g id="Node000009" class="node">
<title>Node9</title>
<g id="a_Node000009"><a xlink:title=" ">
<polygon fill="white" stroke="none" points="465.5,-434 395.5,-434 395.5,-382 465.5,-382 465.5,-434"/>
<text text-anchor="start" x="400.12" y="-420.5" font-family="Helvetica,sans-Serif" font-size="10.00">PackedScene</text>
<text text-anchor="start" x="429" y="-404.5" font-family="Helvetica,sans-Serif" font-size="10.00"> </text>
<text text-anchor="start" x="429" y="-388.5" font-family="Helvetica,sans-Serif" font-size="10.00"> </text>
<polygon fill="#666666" stroke="#666666" points="395.5,-416 395.5,-416 465.5,-416 465.5,-416 395.5,-416"/>
<polygon fill="#666666" stroke="#666666" points="395.5,-400 395.5,-400 465.5,-400 465.5,-400 395.5,-400"/>
<polygon fill="none" stroke="#666666" points="395.5,-382 395.5,-434 465.5,-434 465.5,-382 395.5,-382"/>
</a>
</g>
</g>
<!-- Node9&#45;&gt;Node1 -->
<g id="edge8_Node000001_Node000009" class="edge">
<title>Node9&#45;&gt;Node1</title>
<g id="a_edge8_Node000001_Node000009"><a xlink:title=" ">
<path fill="none" stroke="#63b8ff" d="M427.38,-382.23C421.09,-341.7 403.45,-260.67 358.5,-210 333.87,-182.23 300.71,-159.6 268.62,-142.09"/>
<polygon fill="none" stroke="#63b8ff" points="268.74,-142.15 261.56,-142.87 258.13,-136.53 265.31,-135.81 268.74,-142.15"/>
</a>
</g>
<text text-anchor="middle" x="420.49" y="-230.5" font-family="Helvetica,sans-Serif" font-size="10.00" fill="grey"> #_spellScene</text>
</g>
</g>
</svg>

<g id="navigator" transform="translate(0 0)" fill="#404254">
  <rect fill="#f2f5e9" fill-opacity="0.5" stroke="#606060" stroke-width=".5" x="0" y="0" width="60" height="60"/>
  <use id="zoomplus" xlink:href="#zoomPlus" x="17" y="9" onmousedown="handleZoom(evt,'in')"/>
  <use id="zoomminus" xlink:href="#zoomMin" x="42" y="9" onmousedown="handleZoom(evt,'out')"/>
  <use id="reset" xlink:href="#resetDef" x="30" y="36" onmousedown="handleReset()"/>
   <use id="arrowup" xlink:href="#arrowUp" x="0" y="0" onmousedown="handlePan(0,-1)"/>
  <use id="arrowright" xlink:href="#arrowRight" x="0" y="0" onmousedown="handlePan(1,0)"/>
  <use id="arrowdown" xlink:href="#arrowDown" x="0" y="0" onmousedown="handlePan(0,1)"/>
  <use id="arrowleft" xlink:href="#arrowLeft" x="0" y="0" onmousedown="handlePan(-1,0)"/>
</g>
<svg viewBox="0 0 15 15" width="100%" height="30px" preserveAspectRatio="xMaxYMin meet">
 <g id="arrow_out" transform="scale(0.3 0.3)">
  <a xlink:href="class_inventory_spell__coll__graph_org.svg" target="_base">
   <rect id="button" ry="5" rx="5" y="6" x="6" height="38" width="38"
        fill="#f2f5e9" fill-opacity="0.5" stroke="#606060" stroke-width="1.0"/>
   <path id="arrow"
     d="M 11.500037,31.436501 C 11.940474,20.09759 22.043105,11.32322 32.158766,21.979434 L 37.068811,17.246167 C 37.068811,17.246167 37.088388,32 37.088388,32 L 22.160133,31.978069 C 22.160133,31.978069 26.997745,27.140456 26.997745,27.140456 C 18.528582,18.264221 13.291696,25.230495 11.500037,31.436501 z"
     style="fill:#404040;"/>
  </a>
 </g>
</svg>

<style type='text/css'>
<![CDATA[
[data-mouse-over-selected='false'] { opacity: 0.7; }
[data-mouse-over-selected='true']  { opacity: 1.0; }
]]>
</style>
<script type="application/ecmascript"><![CDATA[
document.addEventListener('DOMContentLoaded', (event) => {
  highlightEdges();
  highlightAdjacentNodes();
});
]]></script>
</svg>
