<?xml version="1.0" encoding="UTF-8" standalone="no"?>
<!DOCTYPE svg PUBLIC "-//W3C//DTD SVG 1.1//EN"
 "http://www.w3.org/Graphics/SVG/1.1/DTD/svg11.dtd">
<!-- Generated by graphviz version 12.1.0 (20240811.2233)
 -->
<!-- Title: Spell Pages: 1 -->
<svg width="457pt" height="913pt"
 viewBox="0.00 0.00 456.50 913.00" xmlns="http://www.w3.org/2000/svg" xmlns:xlink="http://www.w3.org/1999/xlink">
<g id="graph0" class="graph" transform="scale(1 1) rotate(0) translate(4 909)">
<title>Spell</title>
<!-- Node1 -->
<g id="Node000001" class="node">
<title>Node1</title>
<g id="a_Node000001"><a xlink:title=" ">
<polygon fill="#999999" stroke="none" points="154,-164 0,-164 0,0 154,0 154,-164"/>
<text text-anchor="start" x="66.12" y="-150.5" font-family="Helvetica,sans-Serif" font-size="10.00">Spell</text>
<text text-anchor="start" x="75.5" y="-134.5" font-family="Helvetica,sans-Serif" font-size="10.00"> </text>
<text text-anchor="start" x="4" y="-118.5" font-family="Helvetica,sans-Serif" font-size="10.00">+</text>
<text text-anchor="start" x="14" y="-118.5" font-family="Helvetica,sans-Serif" font-size="10.00">override void _Ready()</text>
<text text-anchor="start" x="4" y="-102.5" font-family="Helvetica,sans-Serif" font-size="10.00">+</text>
<text text-anchor="start" x="14" y="-102.5" font-family="Helvetica,sans-Serif" font-size="10.00">virtual void Init(Attack</text>
<text text-anchor="start" x="14" y="-90.5" font-family="Helvetica,sans-Serif" font-size="10.00"> attack, Vector2 playerPosition,</text>
<text text-anchor="start" x="14" y="-78.5" font-family="Helvetica,sans-Serif" font-size="10.00"> Vector2 targetPosition)</text>
<text text-anchor="start" x="4" y="-62.5" font-family="Helvetica,sans-Serif" font-size="10.00">+</text>
<text text-anchor="start" x="14" y="-62.5" font-family="Helvetica,sans-Serif" font-size="10.00">override void _PhysicsProcess</text>
<text text-anchor="start" x="14" y="-50.5" font-family="Helvetica,sans-Serif" font-size="10.00">(double delta)</text>
<text text-anchor="start" x="4" y="-34.5" font-family="Helvetica,sans-Serif" font-size="10.00">+</text>
<text text-anchor="start" x="14" y="-34.5" font-family="Helvetica,sans-Serif" font-size="10.00">virtual void OnAreaEntered</text>
<text text-anchor="start" x="14" y="-22.5" font-family="Helvetica,sans-Serif" font-size="10.00">(Area2D area)</text>
<text text-anchor="start" x="4" y="-6.5" font-family="Helvetica,sans-Serif" font-size="10.00">+</text>
<text text-anchor="start" x="14" y="-6.5" font-family="Helvetica,sans-Serif" font-size="10.00">double GetTimeUntilDeleteion()</text>
<polygon fill="#666666" stroke="#666666" points="0,-146 0,-146 154,-146 154,-146 0,-146"/>
<polygon fill="#666666" stroke="#666666" points="0,-130 0,-130 154,-130 154,-130 0,-130"/>
<polygon fill="none" stroke="#666666" points="0,0 0,-164 154,-164 154,0 0,0"/>
</a>
</g>
</g>
<!-- Node2 -->
<g id="Node000002" class="node">
<title>Node2</title>
<g id="a_Node000002"><a xlink:href="../../dc/df8/class_area2_d.html" target="_top" xlink:title=" ">
<polygon fill="white" stroke="none" points="140.5,-766 97.5,-766 97.5,-714 140.5,-714 140.5,-766"/>
<text text-anchor="start" x="102.5" y="-752.5" font-family="Helvetica,sans-Serif" font-size="10.00">Area2D</text>
<text text-anchor="start" x="117.5" y="-736.5" font-family="Helvetica,sans-Serif" font-size="10.00"> </text>
<text text-anchor="start" x="117.5" y="-720.5" font-family="Helvetica,sans-Serif" font-size="10.00"> </text>
<polygon fill="#666666" stroke="#666666" points="97.5,-748 97.5,-748 140.5,-748 140.5,-748 97.5,-748"/>
<polygon fill="#666666" stroke="#666666" points="97.5,-732 97.5,-732 140.5,-732 140.5,-732 97.5,-732"/>
<polygon fill="none" stroke="#666666" points="97.5,-714 97.5,-766 140.5,-766 140.5,-714 97.5,-714"/>
</a>
</g>
</g>
<!-- Node2&#45;&gt;Node1 -->
<g id="edge1_Node000001_Node000002" class="edge">
<title>Node2&#45;&gt;Node1</title>
<g id="a_edge1_Node000001_Node000002"><a xlink:title=" ">
<path fill="none" stroke="#63b8ff" d="M101.3,-703.99C90.15,-679.93 76.81,-646.87 71,-616 41.26,-457.99 54.65,-268.94 66.33,-163.77"/>
<polygon fill="none" stroke="#63b8ff" points="98.13,-705.47 105.58,-713.01 104.45,-702.47 98.13,-705.47"/>
</a>
</g>
</g>
<!-- Node6 -->
<g id="Node000006" class="node">
<title>Node6</title>
<g id="a_Node000006"><a xlink:href="../../d1/da7/class_health_component.html" target="_top" xlink:title=" ">
<polygon fill="white" stroke="none" points="400,-616 218,-616 218,-352 400,-352 400,-616"/>
<text text-anchor="start" x="269.62" y="-602.5" font-family="Helvetica,sans-Serif" font-size="10.00">HealthComponent</text>
<text text-anchor="start" x="307.5" y="-586.5" font-family="Helvetica,sans-Serif" font-size="10.00"> </text>
<text text-anchor="start" x="222" y="-570.5" font-family="Helvetica,sans-Serif" font-size="10.00">+</text>
<text text-anchor="start" x="232" y="-570.5" font-family="Helvetica,sans-Serif" font-size="10.00">delegate void DeathEvent</text>
<text text-anchor="start" x="232" y="-558.5" font-family="Helvetica,sans-Serif" font-size="10.00">Handler()</text>
<text text-anchor="start" x="222" y="-542.5" font-family="Helvetica,sans-Serif" font-size="10.00">+</text>
<text text-anchor="start" x="232" y="-542.5" font-family="Helvetica,sans-Serif" font-size="10.00">override void _Ready()</text>
<text text-anchor="start" x="222" y="-526.5" font-family="Helvetica,sans-Serif" font-size="10.00">+</text>
<text text-anchor="start" x="232" y="-526.5" font-family="Helvetica,sans-Serif" font-size="10.00">void TakeDamage(Attack</text>
<text text-anchor="start" x="232" y="-514.5" font-family="Helvetica,sans-Serif" font-size="10.00"> attack)</text>
<text text-anchor="start" x="222" y="-498.5" font-family="Helvetica,sans-Serif" font-size="10.00">+</text>
<text text-anchor="start" x="232" y="-498.5" font-family="Helvetica,sans-Serif" font-size="10.00">void SetMaxHP(double</text>
<text text-anchor="start" x="232" y="-486.5" font-family="Helvetica,sans-Serif" font-size="10.00"> newMaxHP)</text>
<text text-anchor="start" x="222" y="-470.5" font-family="Helvetica,sans-Serif" font-size="10.00">+</text>
<text text-anchor="start" x="232" y="-470.5" font-family="Helvetica,sans-Serif" font-size="10.00">double GetMaxHP()</text>
<text text-anchor="start" x="222" y="-454.5" font-family="Helvetica,sans-Serif" font-size="10.00">+</text>
<text text-anchor="start" x="232" y="-454.5" font-family="Helvetica,sans-Serif" font-size="10.00">void SetArmor(double</text>
<text text-anchor="start" x="232" y="-442.5" font-family="Helvetica,sans-Serif" font-size="10.00"> armorSun, double armorCosmic,</text>
<text text-anchor="start" x="232" y="-430.5" font-family="Helvetica,sans-Serif" font-size="10.00"> double armorDark)</text>
<text text-anchor="start" x="222" y="-414.5" font-family="Helvetica,sans-Serif" font-size="10.00">+</text>
<text text-anchor="start" x="232" y="-414.5" font-family="Helvetica,sans-Serif" font-size="10.00">double GetCurrentHP()</text>
<text text-anchor="start" x="222" y="-398.5" font-family="Helvetica,sans-Serif" font-size="10.00">+</text>
<text text-anchor="start" x="232" y="-398.5" font-family="Helvetica,sans-Serif" font-size="10.00">double GetArmorOfType</text>
<text text-anchor="start" x="232" y="-386.5" font-family="Helvetica,sans-Serif" font-size="10.00">(MagicType type)</text>
<text text-anchor="start" x="222" y="-370.5" font-family="Helvetica,sans-Serif" font-size="10.00">+</text>
<text text-anchor="start" x="232" y="-370.5" font-family="Helvetica,sans-Serif" font-size="10.00">void ModifyArmor(MagicType</text>
<text text-anchor="start" x="232" y="-358.5" font-family="Helvetica,sans-Serif" font-size="10.00"> magicType, double flatArmorChange)</text>
<polygon fill="#666666" stroke="#666666" points="218,-598 218,-598 400,-598 400,-598 218,-598"/>
<polygon fill="#666666" stroke="#666666" points="218,-582 218,-582 400,-582 400,-582 218,-582"/>
<polygon fill="none" stroke="#666666" points="218,-352 218,-616 400,-616 400,-352 218,-352"/>
</a>
</g>
</g>
<!-- Node2&#45;&gt;Node6 -->
<g id="edge6_Node000006_Node000002" class="edge">
<title>Node2&#45;&gt;Node6</title>
<g id="a_edge6_Node000006_Node000002"><a xlink:title=" ">
<path fill="none" stroke="#63b8ff" d="M144.23,-705.27C163.41,-679.64 191.03,-642.7 218.2,-606.38"/>
<polygon fill="none" stroke="#63b8ff" points="141.66,-702.87 138.47,-712.97 147.26,-707.06 141.66,-702.87"/>
</a>
</g>
</g>
<!-- Node3 -->
<g id="Node000003" class="node">
<title>Node3</title>
<g id="a_Node000003"><a xlink:href="../../d9/db7/class_attack.html" target="_top" xlink:title=" ">
<polygon fill="white" stroke="none" points="381,-304 207,-304 207,-212 381,-212 381,-304"/>
<text text-anchor="start" x="279.75" y="-290.5" font-family="Helvetica,sans-Serif" font-size="10.00">Attack</text>
<text text-anchor="start" x="292.5" y="-274.5" font-family="Helvetica,sans-Serif" font-size="10.00"> </text>
<text text-anchor="start" x="211" y="-258.5" font-family="Helvetica,sans-Serif" font-size="10.00">+</text>
<text text-anchor="start" x="221" y="-258.5" font-family="Helvetica,sans-Serif" font-size="10.00">Attack(double damageValue,</text>
<text text-anchor="start" x="221" y="-246.5" font-family="Helvetica,sans-Serif" font-size="10.00"> MagicType type, HealthComponent</text>
<text text-anchor="start" x="221" y="-234.5" font-family="Helvetica,sans-Serif" font-size="10.00"> attackerNode)</text>
<text text-anchor="start" x="211" y="-218.5" font-family="Helvetica,sans-Serif" font-size="10.00">+</text>
<text text-anchor="start" x="221" y="-218.5" font-family="Helvetica,sans-Serif" font-size="10.00">Attack(Attack attack)</text>
<polygon fill="#666666" stroke="#666666" points="207,-286 207,-286 381,-286 381,-286 207,-286"/>
<polygon fill="#666666" stroke="#666666" points="207,-270 207,-270 381,-270 381,-270 207,-270"/>
<polygon fill="none" stroke="#666666" points="207,-212 207,-304 381,-304 381,-212 207,-212"/>
</a>
</g>
</g>
<!-- Node3&#45;&gt;Node1 -->
<g id="edge2_Node000001_Node000003" class="edge">
<title>Node3&#45;&gt;Node1</title>
<g id="a_edge2_Node000001_Node000003"><a xlink:title=" ">
<path fill="none" stroke="#63b8ff" d="M238.12,-212.19C215.5,-194.06 188.86,-172.7 163.83,-152.62"/>
<polygon fill="none" stroke="#63b8ff" points="164.02,-152.78 156.84,-152.14 154.66,-145.27 161.84,-145.9 164.02,-152.78"/>
</a>
</g>
<text text-anchor="middle" x="231.57" y="-184.5" font-family="Helvetica,sans-Serif" font-size="10.00" fill="grey"> #_attack</text>
</g>
<!-- Node4 -->
<g id="Node000004" class="node">
<title>Node4</title>
<g id="a_Node000004"><a xlink:title=" ">
<polygon fill="white" stroke="none" points="118,-510 80,-510 80,-458 118,-458 118,-510"/>
<text text-anchor="start" x="84.75" y="-496.5" font-family="Helvetica,sans-Serif" font-size="10.00">double</text>
<text text-anchor="start" x="97.5" y="-480.5" font-family="Helvetica,sans-Serif" font-size="10.00"> </text>
<text text-anchor="start" x="97.5" y="-464.5" font-family="Helvetica,sans-Serif" font-size="10.00"> </text>
<polygon fill="#666666" stroke="#666666" points="80,-492 80,-492 118,-492 118,-492 80,-492"/>
<polygon fill="#666666" stroke="#666666" points="80,-476 80,-476 118,-476 118,-476 80,-476"/>
<polygon fill="none" stroke="#666666" points="80,-458 80,-510 118,-510 118,-458 80,-458"/>
</a>
</g>
</g>
<!-- Node4&#45;&gt;Node1 -->
<g id="edge10_Node000001_Node000004" class="edge">
<title>Node4&#45;&gt;Node1</title>
<g id="a_edge10_Node000001_Node000004"><a xlink:title=" ">
<path fill="none" stroke="#63b8ff" d="M97,-458.11C94.27,-423.55 89.36,-359.06 86.25,-304 83.89,-262.23 81.86,-215.99 80.31,-176.64"/>
<polygon fill="none" stroke="#63b8ff" points="80.32,-176.74 76.09,-170.9 79.85,-164.75 84.08,-170.59 80.32,-176.74"/>
</a>
</g>
<text text-anchor="middle" x="142.12" y="-260.5" font-family="Helvetica,sans-Serif" font-size="10.00" fill="grey"> +MaxLifeTimeInSeconds</text>
<text text-anchor="middle" x="142.12" y="-248.5" font-family="Helvetica,sans-Serif" font-size="10.00" fill="grey">+_timeLeftUntilDeletion</text>
</g>
<!-- Node4&#45;&gt;Node3 -->
<g id="edge3_Node000003_Node000004" class="edge">
<title>Node4&#45;&gt;Node3</title>
<g id="a_edge3_Node000003_Node000004"><a xlink:title=" ">
<path fill="none" stroke="#63b8ff" d="M100.47,-458C103.19,-430 110.93,-384.3 133,-352 141.92,-338.94 167.6,-322.25 195.91,-306.63"/>
<polygon fill="none" stroke="#63b8ff" points="195.94,-306.61 199.31,-300.24 206.49,-300.9 203.12,-307.27 195.94,-306.61"/>
</a>
</g>
<text text-anchor="middle" x="187.81" y="-324.5" font-family="Helvetica,sans-Serif" font-size="10.00" fill="grey"> +damage</text>
</g>
<!-- Node5 -->
<g id="Node000005" class="node">
<title>Node5</title>
<g id="a_Node000005"><a xlink:title=" ">
<polygon fill="white" stroke="none" points="199.5,-510 142.5,-510 142.5,-458 199.5,-458 199.5,-510"/>
<text text-anchor="start" x="147.38" y="-496.5" font-family="Helvetica,sans-Serif" font-size="10.00">MagicType</text>
<text text-anchor="start" x="169.5" y="-480.5" font-family="Helvetica,sans-Serif" font-size="10.00"> </text>
<text text-anchor="start" x="169.5" y="-464.5" font-family="Helvetica,sans-Serif" font-size="10.00"> </text>
<polygon fill="#666666" stroke="#666666" points="142.5,-492 142.5,-492 199.5,-492 199.5,-492 142.5,-492"/>
<polygon fill="#666666" stroke="#666666" points="142.5,-476 142.5,-476 199.5,-476 199.5,-476 142.5,-476"/>
<polygon fill="none" stroke="#666666" points="142.5,-458 142.5,-510 199.5,-510 199.5,-458 142.5,-458"/>
</a>
</g>
</g>
<!-- Node5&#45;&gt;Node3 -->
<g id="edge4_Node000003_Node000005" class="edge">
<title>Node5&#45;&gt;Node3</title>
<g id="a_edge4_Node000003_Node000005"><a xlink:title=" ">
<path fill="none" stroke="#63b8ff" d="M174.74,-458.03C179.62,-430.64 189.88,-386.07 209,-352 216.53,-338.59 226.33,-325.53 236.59,-313.64"/>
<polygon fill="none" stroke="#63b8ff" points="236.67,-313.55 237.7,-306.41 244.68,-304.61 243.66,-311.75 236.67,-313.55"/>
</a>
</g>
<text text-anchor="middle" x="256.49" y="-324.5" font-family="Helvetica,sans-Serif" font-size="10.00" fill="grey"> +magicType</text>
</g>
<!-- Node6&#45;&gt;Node3 -->
<g id="edge5_Node000003_Node000006" class="edge">
<title>Node6&#45;&gt;Node3</title>
<g id="a_edge5_Node000003_Node000006"><a xlink:title=" ">
<path fill="none" stroke="#63b8ff" d="M300.23,-352.05C299.41,-339.8 298.61,-327.86 297.87,-316.84"/>
<polygon fill="none" stroke="#63b8ff" points="297.87,-316.77 293.48,-311.05 297.07,-304.8 301.46,-310.52 297.87,-316.77"/>
</a>
</g>
<text text-anchor="middle" x="320.98" y="-324.5" font-family="Helvetica,sans-Serif" font-size="10.00" fill="grey"> +attacker</text>
</g>
<!-- Node7 -->
<g id="Node000007" class="node">
<title>Node7</title>
<g id="a_Node000007"><a xlink:title=" ">
<polygon fill="white" stroke="none" points="313,-766 207,-766 207,-714 313,-714 313,-766"/>
<text text-anchor="start" x="211.62" y="-752.5" font-family="Helvetica,sans-Serif" font-size="10.00">AudioStreamPlayer2D</text>
<text text-anchor="start" x="258.5" y="-736.5" font-family="Helvetica,sans-Serif" font-size="10.00"> </text>
<text text-anchor="start" x="258.5" y="-720.5" font-family="Helvetica,sans-Serif" font-size="10.00"> </text>
<polygon fill="#666666" stroke="#666666" points="207,-748 207,-748 313,-748 313,-748 207,-748"/>
<polygon fill="#666666" stroke="#666666" points="207,-732 207,-732 313,-732 313,-732 207,-732"/>
<polygon fill="none" stroke="#666666" points="207,-714 207,-766 313,-766 313,-714 207,-714"/>
</a>
</g>
</g>
<!-- Node7&#45;&gt;Node6 -->
<g id="edge7_Node000006_Node000007" class="edge">
<title>Node7&#45;&gt;Node6</title>
<g id="a_edge7_Node000006_Node000007"><a xlink:title=" ">
<path fill="none" stroke="#63b8ff" d="M264.79,-714.18C268.8,-693.37 274.89,-661.82 281.27,-628.72"/>
<polygon fill="none" stroke="#63b8ff" points="281.29,-628.65 278.5,-622 283.56,-616.87 286.35,-623.52 281.29,-628.65"/>
</a>
</g>
<text text-anchor="middle" x="304.86" y="-636.5" font-family="Helvetica,sans-Serif" font-size="10.00" fill="grey"> +HitSound</text>
</g>
<!-- Node8 -->
<g id="Node000008" class="node">
<title>Node8</title>
<g id="a_Node000008"><a xlink:href="../../d7/dca/class_healthbar.html" target="_top" xlink:title=" ">
<polygon fill="white" stroke="none" points="448.5,-816 331.5,-816 331.5,-664 448.5,-664 448.5,-816"/>
<text text-anchor="start" x="369" y="-802.5" font-family="Helvetica,sans-Serif" font-size="10.00">Healthbar</text>
<text text-anchor="start" x="388.5" y="-786.5" font-family="Helvetica,sans-Serif" font-size="10.00"> </text>
<text text-anchor="start" x="335.5" y="-770.5" font-family="Helvetica,sans-Serif" font-size="10.00">+</text>
<text text-anchor="start" x="345.5" y="-770.5" font-family="Helvetica,sans-Serif" font-size="10.00">override void _Ready()</text>
<text text-anchor="start" x="335.5" y="-754.5" font-family="Helvetica,sans-Serif" font-size="10.00">+</text>
<text text-anchor="start" x="345.5" y="-754.5" font-family="Helvetica,sans-Serif" font-size="10.00">override void _Process</text>
<text text-anchor="start" x="345.5" y="-742.5" font-family="Helvetica,sans-Serif" font-size="10.00">(double delta)</text>
<text text-anchor="start" x="335.5" y="-726.5" font-family="Helvetica,sans-Serif" font-size="10.00">+</text>
<text text-anchor="start" x="345.5" y="-726.5" font-family="Helvetica,sans-Serif" font-size="10.00">void InitHealthbar</text>
<text text-anchor="start" x="345.5" y="-714.5" font-family="Helvetica,sans-Serif" font-size="10.00">(double health)</text>
<text text-anchor="start" x="335.5" y="-698.5" font-family="Helvetica,sans-Serif" font-size="10.00">+</text>
<text text-anchor="start" x="345.5" y="-698.5" font-family="Helvetica,sans-Serif" font-size="10.00">void SetHealthPoints</text>
<text text-anchor="start" x="345.5" y="-686.5" font-family="Helvetica,sans-Serif" font-size="10.00">(double newHealth)</text>
<text text-anchor="start" x="335.5" y="-670.5" font-family="Helvetica,sans-Serif" font-size="10.00">+</text>
<text text-anchor="start" x="345.5" y="-670.5" font-family="Helvetica,sans-Serif" font-size="10.00">void OnTimerTimeout()</text>
<polygon fill="#666666" stroke="#666666" points="331.5,-798 331.5,-798 448.5,-798 448.5,-798 331.5,-798"/>
<polygon fill="#666666" stroke="#666666" points="331.5,-782 331.5,-782 448.5,-782 448.5,-782 331.5,-782"/>
<polygon fill="none" stroke="#666666" points="331.5,-664 331.5,-816 448.5,-816 448.5,-664 331.5,-664"/>
</a>
</g>
</g>
<!-- Node8&#45;&gt;Node6 -->
<g id="edge8_Node000006_Node000008" class="edge">
<title>Node8&#45;&gt;Node6</title>
<g id="a_edge8_Node000006_Node000008"><a xlink:title=" ">
<path fill="none" stroke="#63b8ff" d="M366.14,-664.17C362.5,-652.75 358.64,-640.66 354.72,-628.35"/>
<polygon fill="none" stroke="#63b8ff" points="354.7,-628.29 349.06,-623.79 351.05,-616.86 356.68,-621.36 354.7,-628.29"/>
</a>
</g>
<text text-anchor="middle" x="383.51" y="-636.5" font-family="Helvetica,sans-Serif" font-size="10.00" fill="grey"> +healthbar</text>
</g>
<!-- Node9 -->
<g id="Node000009" class="node">
<title>Node9</title>
<g id="a_Node000009"><a xlink:title=" ">
<polygon fill="white" stroke="none" points="438,-905 342,-905 342,-853 438,-853 438,-905"/>
<text text-anchor="start" x="346.88" y="-891.5" font-family="Helvetica,sans-Serif" font-size="10.00">TextureProgressBar</text>
<text text-anchor="start" x="388.5" y="-875.5" font-family="Helvetica,sans-Serif" font-size="10.00"> </text>
<text text-anchor="start" x="388.5" y="-859.5" font-family="Helvetica,sans-Serif" font-size="10.00"> </text>
<polygon fill="#666666" stroke="#666666" points="342,-887 342,-887 438,-887 438,-887 342,-887"/>
<polygon fill="#666666" stroke="#666666" points="342,-871 342,-871 438,-871 438,-871 342,-871"/>
<polygon fill="none" stroke="#666666" points="342,-853 342,-905 438,-905 438,-853 342,-853"/>
</a>
</g>
</g>
<!-- Node9&#45;&gt;Node8 -->
<g id="edge9_Node000008_Node000009" class="edge">
<title>Node9&#45;&gt;Node8</title>
<g id="a_edge9_Node000008_Node000009"><a xlink:title=" ">
<path fill="none" stroke="#63b8ff" d="M390,-841.92C390,-833.8 390,-824.88 390,-815.81"/>
<polygon fill="none" stroke="#63b8ff" points="386.5,-841.68 390,-851.68 393.5,-841.68 386.5,-841.68"/>
</a>
</g>
</g>
</g>
</svg>
