<?xml version="1.0" encoding="UTF-8" standalone="no"?>
<!DOCTYPE svg PUBLIC "-//W3C//DTD SVG 1.1//EN"
 "http://www.w3.org/Graphics/SVG/1.1/DTD/svg11.dtd">
<!-- Generated by graphviz version 12.1.0 (20240811.2233)
 -->
<!-- Title: UISpellSlot Pages: 1 -->
<svg width="164pt" height="264pt"
 viewBox="0.00 0.00 164.00 264.00" xmlns="http://www.w3.org/2000/svg" xmlns:xlink="http://www.w3.org/1999/xlink">
<g id="graph0" class="graph" transform="scale(1 1) rotate(0) translate(4 260)">
<title>UISpellSlot</title>
<!-- Node1 -->
<g id="Node000001" class="node">
<title>Node1</title>
<g id="a_Node000001"><a xlink:title="Class for the Spell Box that shows the currently active spell.">
<polygon fill="#999999" stroke="none" points="156,-168 0,-168 0,0 156,0 156,-168"/>
<text text-anchor="start" x="53.25" y="-154.5" font-family="Helvetica,sans-Serif" font-size="10.00">UISpellSlot</text>
<text text-anchor="start" x="4" y="-138.5" font-family="Helvetica,sans-Serif" font-size="10.00">+</text>
<text text-anchor="start" x="14" y="-138.5" font-family="Helvetica,sans-Serif" font-size="10.00">Texture2D StartingTexture</text>
<text text-anchor="start" x="4" y="-122.5" font-family="Helvetica,sans-Serif" font-size="10.00">+</text>
<text text-anchor="start" x="14" y="-122.5" font-family="Helvetica,sans-Serif" font-size="10.00">override void _Ready()</text>
<text text-anchor="start" x="4" y="-106.5" font-family="Helvetica,sans-Serif" font-size="10.00">+</text>
<text text-anchor="start" x="14" y="-106.5" font-family="Helvetica,sans-Serif" font-size="10.00">void SetSpell(Texture2D</text>
<text text-anchor="start" x="14" y="-94.5" font-family="Helvetica,sans-Serif" font-size="10.00"> icon)</text>
<text text-anchor="start" x="4" y="-78.5" font-family="Helvetica,sans-Serif" font-size="10.00">+</text>
<text text-anchor="start" x="14" y="-78.5" font-family="Helvetica,sans-Serif" font-size="10.00">override void _PhysicsProcess</text>
<text text-anchor="start" x="14" y="-66.5" font-family="Helvetica,sans-Serif" font-size="10.00">(double delta)</text>
<text text-anchor="start" x="4" y="-50.5" font-family="Helvetica,sans-Serif" font-size="10.00">+</text>
<text text-anchor="start" x="14" y="-50.5" font-family="Helvetica,sans-Serif" font-size="10.00">void Cast(double cooldown)</text>
<text text-anchor="start" x="4" y="-34.5" font-family="Helvetica,sans-Serif" font-size="10.00">+</text>
<text text-anchor="start" x="14" y="-34.5" font-family="Helvetica,sans-Serif" font-size="10.00">bool IsOnCooldown()</text>
<text text-anchor="start" x="4" y="-18.5" font-family="Helvetica,sans-Serif" font-size="10.00">+</text>
<text text-anchor="start" x="14" y="-18.5" font-family="Helvetica,sans-Serif" font-size="10.00">static string ConvertTime</text>
<text text-anchor="start" x="14" y="-6.5" font-family="Helvetica,sans-Serif" font-size="10.00">ToStringInSeconds(double time)</text>
<polygon fill="#666666" stroke="#666666" points="0,-150 0,-150 156,-150 156,-150 0,-150"/>
<polygon fill="#666666" stroke="#666666" points="0,-134 0,-134 12,-134 12,-134 0,-134"/>
<polygon fill="#666666" stroke="#666666" points="12,-134 12,-134 156,-134 156,-134 12,-134"/>
<polygon fill="none" stroke="#666666" points="0,0 0,-168 156,-168 156,0 0,0"/>
</a>
</g>
</g>
<!-- Node2 -->
<g id="Node000002" class="node">
<title>Node2</title>
<g id="a_Node000002"><a xlink:href="../../d3/dd2/class_panel_container.html" target="_top" xlink:title=" ">
<polygon fill="white" stroke="none" points="116,-256 40,-256 40,-204 116,-204 116,-256"/>
<text text-anchor="start" x="44.62" y="-242.5" font-family="Helvetica,sans-Serif" font-size="10.00">PanelContainer</text>
<text text-anchor="start" x="76.5" y="-226.5" font-family="Helvetica,sans-Serif" font-size="10.00"> </text>
<text text-anchor="start" x="76.5" y="-210.5" font-family="Helvetica,sans-Serif" font-size="10.00"> </text>
<polygon fill="#666666" stroke="#666666" points="40,-238 40,-238 116,-238 116,-238 40,-238"/>
<polygon fill="#666666" stroke="#666666" points="40,-222 40,-222 116,-222 116,-222 40,-222"/>
<polygon fill="none" stroke="#666666" points="40,-204 40,-256 116,-256 116,-204 40,-204"/>
</a>
</g>
</g>
<!-- Node2&#45;&gt;Node1 -->
<g id="edge1_Node000001_Node000002" class="edge">
<title>Node2&#45;&gt;Node1</title>
<g id="a_edge1_Node000001_Node000002"><a xlink:title=" ">
<path fill="none" stroke="#63b8ff" d="M78,-192.79C78,-185.07 78,-176.61 78,-167.94"/>
<polygon fill="none" stroke="#63b8ff" points="74.5,-192.73 78,-202.73 81.5,-192.73 74.5,-192.73"/>
</a>
</g>
</g>
</g>
</svg>
