<?xml version="1.0" encoding="UTF-8" standalone="no"?>
<!DOCTYPE svg PUBLIC "-//W3C//DTD SVG 1.1//EN"
 "http://www.w3.org/Graphics/SVG/1.1/DTD/svg11.dtd">
<!-- Generated by graphviz version 12.1.0 (20240811.2233)
 -->
<!-- Title: SunBeam Pages: 1 -->
<svg width="457pt" height="1061pt"
 viewBox="0.00 0.00 456.50 1061.00" xmlns="http://www.w3.org/2000/svg" xmlns:xlink="http://www.w3.org/1999/xlink">
<g id="graph0" class="graph" transform="scale(1 1) rotate(0) translate(4 1057)">
<title>SunBeam</title>
<!-- Node1 -->
<g id="Node000001" class="node">
<title>Node1</title>
<g id="a_Node000001"><a xlink:title=" ">
<polygon fill="#999999" stroke="none" points="289.5,-88 168.5,-88 168.5,0 289.5,0 289.5,-88"/>
<text text-anchor="start" x="207.62" y="-74.5" font-family="Helvetica,sans-Serif" font-size="10.00">SunBeam</text>
<text text-anchor="start" x="227.5" y="-58.5" font-family="Helvetica,sans-Serif" font-size="10.00"> </text>
<text text-anchor="start" x="172.5" y="-42.5" font-family="Helvetica,sans-Serif" font-size="10.00">+</text>
<text text-anchor="start" x="182.5" y="-42.5" font-family="Helvetica,sans-Serif" font-size="10.00">override void Init</text>
<text text-anchor="start" x="182.5" y="-30.5" font-family="Helvetica,sans-Serif" font-size="10.00">(Attack attack, Vector2</text>
<text text-anchor="start" x="182.5" y="-18.5" font-family="Helvetica,sans-Serif" font-size="10.00"> playerPosition, Vector2</text>
<text text-anchor="start" x="182.5" y="-6.5" font-family="Helvetica,sans-Serif" font-size="10.00"> targetPosition)</text>
<polygon fill="#666666" stroke="#666666" points="168.5,-70 168.5,-70 289.5,-70 289.5,-70 168.5,-70"/>
<polygon fill="#666666" stroke="#666666" points="168.5,-54 168.5,-54 289.5,-54 289.5,-54 168.5,-54"/>
<polygon fill="none" stroke="#666666" points="168.5,0 168.5,-88 289.5,-88 289.5,0 168.5,0"/>
</a>
</g>
</g>
<!-- Node2 -->
<g id="Node000002" class="node">
<title>Node2</title>
<g id="a_Node000002"><a xlink:href="../../d8/d0d/class_spell.html" target="_top" xlink:title=" ">
<polygon fill="white" stroke="none" points="154,-312 0,-312 0,-148 154,-148 154,-312"/>
<text text-anchor="start" x="66.12" y="-298.5" font-family="Helvetica,sans-Serif" font-size="10.00">Spell</text>
<text text-anchor="start" x="75.5" y="-282.5" font-family="Helvetica,sans-Serif" font-size="10.00"> </text>
<text text-anchor="start" x="4" y="-266.5" font-family="Helvetica,sans-Serif" font-size="10.00">+</text>
<text text-anchor="start" x="14" y="-266.5" font-family="Helvetica,sans-Serif" font-size="10.00">override void _Ready()</text>
<text text-anchor="start" x="4" y="-250.5" font-family="Helvetica,sans-Serif" font-size="10.00">+</text>
<text text-anchor="start" x="14" y="-250.5" font-family="Helvetica,sans-Serif" font-size="10.00">virtual void Init(Attack</text>
<text text-anchor="start" x="14" y="-238.5" font-family="Helvetica,sans-Serif" font-size="10.00"> attack, Vector2 playerPosition,</text>
<text text-anchor="start" x="14" y="-226.5" font-family="Helvetica,sans-Serif" font-size="10.00"> Vector2 targetPosition)</text>
<text text-anchor="start" x="4" y="-210.5" font-family="Helvetica,sans-Serif" font-size="10.00">+</text>
<text text-anchor="start" x="14" y="-210.5" font-family="Helvetica,sans-Serif" font-size="10.00">override void _PhysicsProcess</text>
<text text-anchor="start" x="14" y="-198.5" font-family="Helvetica,sans-Serif" font-size="10.00">(double delta)</text>
<text text-anchor="start" x="4" y="-182.5" font-family="Helvetica,sans-Serif" font-size="10.00">+</text>
<text text-anchor="start" x="14" y="-182.5" font-family="Helvetica,sans-Serif" font-size="10.00">virtual void OnAreaEntered</text>
<text text-anchor="start" x="14" y="-170.5" font-family="Helvetica,sans-Serif" font-size="10.00">(Area2D area)</text>
<text text-anchor="start" x="4" y="-154.5" font-family="Helvetica,sans-Serif" font-size="10.00">+</text>
<text text-anchor="start" x="14" y="-154.5" font-family="Helvetica,sans-Serif" font-size="10.00">double GetTimeUntilDeleteion()</text>
<polygon fill="#666666" stroke="#666666" points="0,-294 0,-294 154,-294 154,-294 0,-294"/>
<polygon fill="#666666" stroke="#666666" points="0,-278 0,-278 154,-278 154,-278 0,-278"/>
<polygon fill="none" stroke="#666666" points="0,-148 0,-312 154,-312 154,-148 0,-148"/>
</a>
</g>
</g>
<!-- Node2&#45;&gt;Node1 -->
<g id="edge1_Node000001_Node000002" class="edge">
<title>Node2&#45;&gt;Node1</title>
<g id="a_edge1_Node000001_Node000002"><a xlink:title=" ">
<path fill="none" stroke="#63b8ff" d="M151.14,-139.25C165.95,-121.32 180.85,-103.29 193.6,-87.86"/>
<polygon fill="none" stroke="#63b8ff" points="148.53,-136.92 144.85,-146.86 153.92,-141.38 148.53,-136.92"/>
</a>
</g>
</g>
<!-- Node3 -->
<g id="Node000003" class="node">
<title>Node3</title>
<g id="a_Node000003"><a xlink:href="../../dc/df8/class_area2_d.html" target="_top" xlink:title=" ">
<polygon fill="white" stroke="none" points="140.5,-914 97.5,-914 97.5,-862 140.5,-862 140.5,-914"/>
<text text-anchor="start" x="102.5" y="-900.5" font-family="Helvetica,sans-Serif" font-size="10.00">Area2D</text>
<text text-anchor="start" x="117.5" y="-884.5" font-family="Helvetica,sans-Serif" font-size="10.00"> </text>
<text text-anchor="start" x="117.5" y="-868.5" font-family="Helvetica,sans-Serif" font-size="10.00"> </text>
<polygon fill="#666666" stroke="#666666" points="97.5,-896 97.5,-896 140.5,-896 140.5,-896 97.5,-896"/>
<polygon fill="#666666" stroke="#666666" points="97.5,-880 97.5,-880 140.5,-880 140.5,-880 97.5,-880"/>
<polygon fill="none" stroke="#666666" points="97.5,-862 97.5,-914 140.5,-914 140.5,-862 97.5,-862"/>
</a>
</g>
</g>
<!-- Node3&#45;&gt;Node2 -->
<g id="edge2_Node000002_Node000003" class="edge">
<title>Node3&#45;&gt;Node2</title>
<g id="a_edge2_Node000002_Node000003"><a xlink:title=" ">
<path fill="none" stroke="#63b8ff" d="M101.3,-851.99C90.15,-827.93 76.81,-794.87 71,-764 41.26,-605.99 54.65,-416.94 66.33,-311.77"/>
<polygon fill="none" stroke="#63b8ff" points="98.13,-853.47 105.58,-861.01 104.45,-850.47 98.13,-853.47"/>
</a>
</g>
</g>
<!-- Node7 -->
<g id="Node000007" class="node">
<title>Node7</title>
<g id="a_Node000007"><a xlink:href="../../d1/da7/class_health_component.html" target="_top" xlink:title=" ">
<polygon fill="white" stroke="none" points="400,-764 218,-764 218,-500 400,-500 400,-764"/>
<text text-anchor="start" x="269.62" y="-750.5" font-family="Helvetica,sans-Serif" font-size="10.00">HealthComponent</text>
<text text-anchor="start" x="307.5" y="-734.5" font-family="Helvetica,sans-Serif" font-size="10.00"> </text>
<text text-anchor="start" x="222" y="-718.5" font-family="Helvetica,sans-Serif" font-size="10.00">+</text>
<text text-anchor="start" x="232" y="-718.5" font-family="Helvetica,sans-Serif" font-size="10.00">delegate void DeathEvent</text>
<text text-anchor="start" x="232" y="-706.5" font-family="Helvetica,sans-Serif" font-size="10.00">Handler()</text>
<text text-anchor="start" x="222" y="-690.5" font-family="Helvetica,sans-Serif" font-size="10.00">+</text>
<text text-anchor="start" x="232" y="-690.5" font-family="Helvetica,sans-Serif" font-size="10.00">override void _Ready()</text>
<text text-anchor="start" x="222" y="-674.5" font-family="Helvetica,sans-Serif" font-size="10.00">+</text>
<text text-anchor="start" x="232" y="-674.5" font-family="Helvetica,sans-Serif" font-size="10.00">void TakeDamage(Attack</text>
<text text-anchor="start" x="232" y="-662.5" font-family="Helvetica,sans-Serif" font-size="10.00"> attack)</text>
<text text-anchor="start" x="222" y="-646.5" font-family="Helvetica,sans-Serif" font-size="10.00">+</text>
<text text-anchor="start" x="232" y="-646.5" font-family="Helvetica,sans-Serif" font-size="10.00">void SetMaxHP(double</text>
<text text-anchor="start" x="232" y="-634.5" font-family="Helvetica,sans-Serif" font-size="10.00"> newMaxHP)</text>
<text text-anchor="start" x="222" y="-618.5" font-family="Helvetica,sans-Serif" font-size="10.00">+</text>
<text text-anchor="start" x="232" y="-618.5" font-family="Helvetica,sans-Serif" font-size="10.00">double GetMaxHP()</text>
<text text-anchor="start" x="222" y="-602.5" font-family="Helvetica,sans-Serif" font-size="10.00">+</text>
<text text-anchor="start" x="232" y="-602.5" font-family="Helvetica,sans-Serif" font-size="10.00">void SetArmor(double</text>
<text text-anchor="start" x="232" y="-590.5" font-family="Helvetica,sans-Serif" font-size="10.00"> armorSun, double armorCosmic,</text>
<text text-anchor="start" x="232" y="-578.5" font-family="Helvetica,sans-Serif" font-size="10.00"> double armorDark)</text>
<text text-anchor="start" x="222" y="-562.5" font-family="Helvetica,sans-Serif" font-size="10.00">+</text>
<text text-anchor="start" x="232" y="-562.5" font-family="Helvetica,sans-Serif" font-size="10.00">double GetCurrentHP()</text>
<text text-anchor="start" x="222" y="-546.5" font-family="Helvetica,sans-Serif" font-size="10.00">+</text>
<text text-anchor="start" x="232" y="-546.5" font-family="Helvetica,sans-Serif" font-size="10.00">double GetArmorOfType</text>
<text text-anchor="start" x="232" y="-534.5" font-family="Helvetica,sans-Serif" font-size="10.00">(MagicType type)</text>
<text text-anchor="start" x="222" y="-518.5" font-family="Helvetica,sans-Serif" font-size="10.00">+</text>
<text text-anchor="start" x="232" y="-518.5" font-family="Helvetica,sans-Serif" font-size="10.00">void ModifyArmor(MagicType</text>
<text text-anchor="start" x="232" y="-506.5" font-family="Helvetica,sans-Serif" font-size="10.00"> magicType, double flatArmorChange)</text>
<polygon fill="#666666" stroke="#666666" points="218,-746 218,-746 400,-746 400,-746 218,-746"/>
<polygon fill="#666666" stroke="#666666" points="218,-730 218,-730 400,-730 400,-730 218,-730"/>
<polygon fill="none" stroke="#666666" points="218,-500 218,-764 400,-764 400,-500 218,-500"/>
</a>
</g>
</g>
<!-- Node3&#45;&gt;Node7 -->
<g id="edge7_Node000007_Node000003" class="edge">
<title>Node3&#45;&gt;Node7</title>
<g id="a_edge7_Node000007_Node000003"><a xlink:title=" ">
<path fill="none" stroke="#63b8ff" d="M144.23,-853.27C163.41,-827.64 191.03,-790.7 218.2,-754.38"/>
<polygon fill="none" stroke="#63b8ff" points="141.66,-850.87 138.47,-860.97 147.26,-855.06 141.66,-850.87"/>
</a>
</g>
</g>
<!-- Node4 -->
<g id="Node000004" class="node">
<title>Node4</title>
<g id="a_Node000004"><a xlink:href="../../d9/db7/class_attack.html" target="_top" xlink:title=" ">
<polygon fill="white" stroke="none" points="381,-452 207,-452 207,-360 381,-360 381,-452"/>
<text text-anchor="start" x="279.75" y="-438.5" font-family="Helvetica,sans-Serif" font-size="10.00">Attack</text>
<text text-anchor="start" x="292.5" y="-422.5" font-family="Helvetica,sans-Serif" font-size="10.00"> </text>
<text text-anchor="start" x="211" y="-406.5" font-family="Helvetica,sans-Serif" font-size="10.00">+</text>
<text text-anchor="start" x="221" y="-406.5" font-family="Helvetica,sans-Serif" font-size="10.00">Attack(double damageValue,</text>
<text text-anchor="start" x="221" y="-394.5" font-family="Helvetica,sans-Serif" font-size="10.00"> MagicType type, HealthComponent</text>
<text text-anchor="start" x="221" y="-382.5" font-family="Helvetica,sans-Serif" font-size="10.00"> attackerNode)</text>
<text text-anchor="start" x="211" y="-366.5" font-family="Helvetica,sans-Serif" font-size="10.00">+</text>
<text text-anchor="start" x="221" y="-366.5" font-family="Helvetica,sans-Serif" font-size="10.00">Attack(Attack attack)</text>
<polygon fill="#666666" stroke="#666666" points="207,-434 207,-434 381,-434 381,-434 207,-434"/>
<polygon fill="#666666" stroke="#666666" points="207,-418 207,-418 381,-418 381,-418 207,-418"/>
<polygon fill="none" stroke="#666666" points="207,-360 207,-452 381,-452 381,-360 207,-360"/>
</a>
</g>
</g>
<!-- Node4&#45;&gt;Node2 -->
<g id="edge3_Node000002_Node000004" class="edge">
<title>Node4&#45;&gt;Node2</title>
<g id="a_edge3_Node000002_Node000004"><a xlink:title=" ">
<path fill="none" stroke="#63b8ff" d="M227.04,-360.13C208.54,-347.12 188.52,-332.45 163.94,-312.58"/>
<polygon fill="none" stroke="#63b8ff" points="163.89,-312.54 156.71,-311.84 154.6,-304.95 161.77,-305.65 163.89,-312.54"/>
</a>
</g>
<text text-anchor="middle" x="221.66" y="-332.5" font-family="Helvetica,sans-Serif" font-size="10.00" fill="grey"> #_attack</text>
</g>
<!-- Node5 -->
<g id="Node000005" class="node">
<title>Node5</title>
<g id="a_Node000005"><a xlink:title=" ">
<polygon fill="white" stroke="none" points="118,-658 80,-658 80,-606 118,-606 118,-658"/>
<text text-anchor="start" x="84.75" y="-644.5" font-family="Helvetica,sans-Serif" font-size="10.00">double</text>
<text text-anchor="start" x="97.5" y="-628.5" font-family="Helvetica,sans-Serif" font-size="10.00"> </text>
<text text-anchor="start" x="97.5" y="-612.5" font-family="Helvetica,sans-Serif" font-size="10.00"> </text>
<polygon fill="#666666" stroke="#666666" points="80,-640 80,-640 118,-640 118,-640 80,-640"/>
<polygon fill="#666666" stroke="#666666" points="80,-624 80,-624 118,-624 118,-624 80,-624"/>
<polygon fill="none" stroke="#666666" points="80,-606 80,-658 118,-658 118,-606 80,-606"/>
</a>
</g>
</g>
<!-- Node5&#45;&gt;Node2 -->
<g id="edge11_Node000002_Node000005" class="edge">
<title>Node5&#45;&gt;Node2</title>
<g id="a_edge11_Node000002_Node000005"><a xlink:title=" ">
<path fill="none" stroke="#63b8ff" d="M97,-606.11C94.27,-571.55 89.36,-507.06 86.25,-452 83.89,-410.23 81.86,-363.99 80.31,-324.64"/>
<polygon fill="none" stroke="#63b8ff" points="80.32,-324.74 76.09,-318.9 79.85,-312.75 84.08,-318.59 80.32,-324.74"/>
</a>
</g>
<text text-anchor="middle" x="142.12" y="-408.5" font-family="Helvetica,sans-Serif" font-size="10.00" fill="grey"> +MaxLifeTimeInSeconds</text>
<text text-anchor="middle" x="142.12" y="-396.5" font-family="Helvetica,sans-Serif" font-size="10.00" fill="grey">+_timeLeftUntilDeletion</text>
</g>
<!-- Node5&#45;&gt;Node4 -->
<g id="edge4_Node000004_Node000005" class="edge">
<title>Node5&#45;&gt;Node4</title>
<g id="a_edge4_Node000004_Node000005"><a xlink:title=" ">
<path fill="none" stroke="#63b8ff" d="M100.47,-606C103.19,-578 110.93,-532.3 133,-500 141.92,-486.94 167.6,-470.25 195.91,-454.63"/>
<polygon fill="none" stroke="#63b8ff" points="195.94,-454.61 199.31,-448.24 206.49,-448.9 203.12,-455.27 195.94,-454.61"/>
</a>
</g>
<text text-anchor="middle" x="187.81" y="-472.5" font-family="Helvetica,sans-Serif" font-size="10.00" fill="grey"> +damage</text>
</g>
<!-- Node6 -->
<g id="Node000006" class="node">
<title>Node6</title>
<g id="a_Node000006"><a xlink:title=" ">
<polygon fill="white" stroke="none" points="199.5,-658 142.5,-658 142.5,-606 199.5,-606 199.5,-658"/>
<text text-anchor="start" x="147.38" y="-644.5" font-family="Helvetica,sans-Serif" font-size="10.00">MagicType</text>
<text text-anchor="start" x="169.5" y="-628.5" font-family="Helvetica,sans-Serif" font-size="10.00"> </text>
<text text-anchor="start" x="169.5" y="-612.5" font-family="Helvetica,sans-Serif" font-size="10.00"> </text>
<polygon fill="#666666" stroke="#666666" points="142.5,-640 142.5,-640 199.5,-640 199.5,-640 142.5,-640"/>
<polygon fill="#666666" stroke="#666666" points="142.5,-624 142.5,-624 199.5,-624 199.5,-624 142.5,-624"/>
<polygon fill="none" stroke="#666666" points="142.5,-606 142.5,-658 199.5,-658 199.5,-606 142.5,-606"/>
</a>
</g>
</g>
<!-- Node6&#45;&gt;Node4 -->
<g id="edge5_Node000004_Node000006" class="edge">
<title>Node6&#45;&gt;Node4</title>
<g id="a_edge5_Node000004_Node000006"><a xlink:title=" ">
<path fill="none" stroke="#63b8ff" d="M174.74,-606.03C179.62,-578.64 189.88,-534.07 209,-500 216.53,-486.59 226.33,-473.53 236.59,-461.64"/>
<polygon fill="none" stroke="#63b8ff" points="236.67,-461.55 237.7,-454.41 244.68,-452.61 243.66,-459.75 236.67,-461.55"/>
</a>
</g>
<text text-anchor="middle" x="256.49" y="-472.5" font-family="Helvetica,sans-Serif" font-size="10.00" fill="grey"> +magicType</text>
</g>
<!-- Node7&#45;&gt;Node4 -->
<g id="edge6_Node000004_Node000007" class="edge">
<title>Node7&#45;&gt;Node4</title>
<g id="a_edge6_Node000004_Node000007"><a xlink:title=" ">
<path fill="none" stroke="#63b8ff" d="M300.23,-500.05C299.41,-487.8 298.61,-475.86 297.87,-464.84"/>
<polygon fill="none" stroke="#63b8ff" points="297.87,-464.77 293.48,-459.05 297.07,-452.8 301.46,-458.52 297.87,-464.77"/>
</a>
</g>
<text text-anchor="middle" x="320.98" y="-472.5" font-family="Helvetica,sans-Serif" font-size="10.00" fill="grey"> +attacker</text>
</g>
<!-- Node8 -->
<g id="Node000008" class="node">
<title>Node8</title>
<g id="a_Node000008"><a xlink:title=" ">
<polygon fill="white" stroke="none" points="313,-914 207,-914 207,-862 313,-862 313,-914"/>
<text text-anchor="start" x="211.62" y="-900.5" font-family="Helvetica,sans-Serif" font-size="10.00">AudioStreamPlayer2D</text>
<text text-anchor="start" x="258.5" y="-884.5" font-family="Helvetica,sans-Serif" font-size="10.00"> </text>
<text text-anchor="start" x="258.5" y="-868.5" font-family="Helvetica,sans-Serif" font-size="10.00"> </text>
<polygon fill="#666666" stroke="#666666" points="207,-896 207,-896 313,-896 313,-896 207,-896"/>
<polygon fill="#666666" stroke="#666666" points="207,-880 207,-880 313,-880 313,-880 207,-880"/>
<polygon fill="none" stroke="#666666" points="207,-862 207,-914 313,-914 313,-862 207,-862"/>
</a>
</g>
</g>
<!-- Node8&#45;&gt;Node7 -->
<g id="edge8_Node000007_Node000008" class="edge">
<title>Node8&#45;&gt;Node7</title>
<g id="a_edge8_Node000007_Node000008"><a xlink:title=" ">
<path fill="none" stroke="#63b8ff" d="M264.79,-862.18C268.8,-841.37 274.89,-809.82 281.27,-776.72"/>
<polygon fill="none" stroke="#63b8ff" points="281.29,-776.65 278.5,-770 283.56,-764.87 286.35,-771.52 281.29,-776.65"/>
</a>
</g>
<text text-anchor="middle" x="304.86" y="-784.5" font-family="Helvetica,sans-Serif" font-size="10.00" fill="grey"> +HitSound</text>
</g>
<!-- Node9 -->
<g id="Node000009" class="node">
<title>Node9</title>
<g id="a_Node000009"><a xlink:href="../../d7/dca/class_healthbar.html" target="_top" xlink:title=" ">
<polygon fill="white" stroke="none" points="448.5,-964 331.5,-964 331.5,-812 448.5,-812 448.5,-964"/>
<text text-anchor="start" x="369" y="-950.5" font-family="Helvetica,sans-Serif" font-size="10.00">Healthbar</text>
<text text-anchor="start" x="388.5" y="-934.5" font-family="Helvetica,sans-Serif" font-size="10.00"> </text>
<text text-anchor="start" x="335.5" y="-918.5" font-family="Helvetica,sans-Serif" font-size="10.00">+</text>
<text text-anchor="start" x="345.5" y="-918.5" font-family="Helvetica,sans-Serif" font-size="10.00">override void _Ready()</text>
<text text-anchor="start" x="335.5" y="-902.5" font-family="Helvetica,sans-Serif" font-size="10.00">+</text>
<text text-anchor="start" x="345.5" y="-902.5" font-family="Helvetica,sans-Serif" font-size="10.00">override void _Process</text>
<text text-anchor="start" x="345.5" y="-890.5" font-family="Helvetica,sans-Serif" font-size="10.00">(double delta)</text>
<text text-anchor="start" x="335.5" y="-874.5" font-family="Helvetica,sans-Serif" font-size="10.00">+</text>
<text text-anchor="start" x="345.5" y="-874.5" font-family="Helvetica,sans-Serif" font-size="10.00">void InitHealthbar</text>
<text text-anchor="start" x="345.5" y="-862.5" font-family="Helvetica,sans-Serif" font-size="10.00">(double health)</text>
<text text-anchor="start" x="335.5" y="-846.5" font-family="Helvetica,sans-Serif" font-size="10.00">+</text>
<text text-anchor="start" x="345.5" y="-846.5" font-family="Helvetica,sans-Serif" font-size="10.00">void SetHealthPoints</text>
<text text-anchor="start" x="345.5" y="-834.5" font-family="Helvetica,sans-Serif" font-size="10.00">(double newHealth)</text>
<text text-anchor="start" x="335.5" y="-818.5" font-family="Helvetica,sans-Serif" font-size="10.00">+</text>
<text text-anchor="start" x="345.5" y="-818.5" font-family="Helvetica,sans-Serif" font-size="10.00">void OnTimerTimeout()</text>
<polygon fill="#666666" stroke="#666666" points="331.5,-946 331.5,-946 448.5,-946 448.5,-946 331.5,-946"/>
<polygon fill="#666666" stroke="#666666" points="331.5,-930 331.5,-930 448.5,-930 448.5,-930 331.5,-930"/>
<polygon fill="none" stroke="#666666" points="331.5,-812 331.5,-964 448.5,-964 448.5,-812 331.5,-812"/>
</a>
</g>
</g>
<!-- Node9&#45;&gt;Node7 -->
<g id="edge9_Node000007_Node000009" class="edge">
<title>Node9&#45;&gt;Node7</title>
<g id="a_edge9_Node000007_Node000009"><a xlink:title=" ">
<path fill="none" stroke="#63b8ff" d="M366.14,-812.17C362.5,-800.75 358.64,-788.66 354.72,-776.35"/>
<polygon fill="none" stroke="#63b8ff" points="354.7,-776.29 349.06,-771.79 351.05,-764.86 356.68,-769.36 354.7,-776.29"/>
</a>
</g>
<text text-anchor="middle" x="383.51" y="-784.5" font-family="Helvetica,sans-Serif" font-size="10.00" fill="grey"> +healthbar</text>
</g>
<!-- Node10 -->
<g id="Node000010" class="node">
<title>Node10</title>
<g id="a_Node000010"><a xlink:title=" ">
<polygon fill="white" stroke="none" points="438,-1053 342,-1053 342,-1001 438,-1001 438,-1053"/>
<text text-anchor="start" x="346.88" y="-1039.5" font-family="Helvetica,sans-Serif" font-size="10.00">TextureProgressBar</text>
<text text-anchor="start" x="388.5" y="-1023.5" font-family="Helvetica,sans-Serif" font-size="10.00"> </text>
<text text-anchor="start" x="388.5" y="-1007.5" font-family="Helvetica,sans-Serif" font-size="10.00"> </text>
<polygon fill="#666666" stroke="#666666" points="342,-1035 342,-1035 438,-1035 438,-1035 342,-1035"/>
<polygon fill="#666666" stroke="#666666" points="342,-1019 342,-1019 438,-1019 438,-1019 342,-1019"/>
<polygon fill="none" stroke="#666666" points="342,-1001 342,-1053 438,-1053 438,-1001 342,-1001"/>
</a>
</g>
</g>
<!-- Node10&#45;&gt;Node9 -->
<g id="edge10_Node000009_Node000010" class="edge">
<title>Node10&#45;&gt;Node9</title>
<g id="a_edge10_Node000009_Node000010"><a xlink:title=" ">
<path fill="none" stroke="#63b8ff" d="M390,-989.92C390,-981.8 390,-972.88 390,-963.81"/>
<polygon fill="none" stroke="#63b8ff" points="386.5,-989.68 390,-999.68 393.5,-989.68 386.5,-989.68"/>
</a>
</g>
</g>
<!-- Node11 -->
<g id="Node000011" class="node">
<title>Node11</title>
<g id="a_Node000011"><a xlink:title=" ">
<polygon fill="white" stroke="none" points="205.5,-256 172.5,-256 172.5,-204 205.5,-204 205.5,-256"/>
<text text-anchor="start" x="177.38" y="-242.5" font-family="Helvetica,sans-Serif" font-size="10.00">Color</text>
<text text-anchor="start" x="187.5" y="-226.5" font-family="Helvetica,sans-Serif" font-size="10.00"> </text>
<text text-anchor="start" x="187.5" y="-210.5" font-family="Helvetica,sans-Serif" font-size="10.00"> </text>
<polygon fill="#666666" stroke="#666666" points="172.5,-238 172.5,-238 205.5,-238 205.5,-238 172.5,-238"/>
<polygon fill="#666666" stroke="#666666" points="172.5,-222 172.5,-222 205.5,-222 205.5,-222 172.5,-222"/>
<polygon fill="none" stroke="#666666" points="172.5,-204 172.5,-256 205.5,-256 205.5,-204 172.5,-204"/>
</a>
</g>
</g>
<!-- Node11&#45;&gt;Node1 -->
<g id="edge12_Node000001_Node000011" class="edge">
<title>Node11&#45;&gt;Node1</title>
<g id="a_edge12_Node000001_Node000011"><a xlink:title=" ">
<path fill="none" stroke="#63b8ff" d="M185.35,-204.38C182.51,-179.12 180.48,-138.97 190.25,-106 190.87,-103.89 191.6,-101.78 192.4,-99.69"/>
<polygon fill="none" stroke="#63b8ff" points="192.42,-99.65 191.25,-92.53 197.38,-88.72 198.54,-95.84 192.42,-99.65"/>
</a>
</g>
<text text-anchor="middle" x="219.12" y="-114.5" font-family="Helvetica,sans-Serif" font-size="10.00" fill="grey"> +BeamColor</text>
</g>
<!-- Node12 -->
<g id="Node000012" class="node">
<title>Node12</title>
<g id="a_Node000012"><a xlink:title=" ">
<polygon fill="white" stroke="none" points="280,-256 260,-256 260,-204 280,-204 280,-256"/>
<text text-anchor="start" x="264.75" y="-242.5" font-family="Helvetica,sans-Serif" font-size="10.00">int</text>
<text text-anchor="start" x="268.5" y="-226.5" font-family="Helvetica,sans-Serif" font-size="10.00"> </text>
<text text-anchor="start" x="268.5" y="-210.5" font-family="Helvetica,sans-Serif" font-size="10.00"> </text>
<polygon fill="#666666" stroke="#666666" points="260,-238 260,-238 280,-238 280,-238 260,-238"/>
<polygon fill="#666666" stroke="#666666" points="260,-222 260,-222 280,-222 280,-222 260,-222"/>
<polygon fill="none" stroke="#666666" points="260,-204 260,-256 280,-256 280,-204 260,-204"/>
</a>
</g>
</g>
<!-- Node12&#45;&gt;Node1 -->
<g id="edge13_Node000001_Node000012" class="edge">
<title>Node12&#45;&gt;Node1</title>
<g id="a_edge13_Node000001_Node000012"><a xlink:title=" ">
<path fill="none" stroke="#63b8ff" d="M266.51,-204.31C262.77,-179.34 256.23,-139.72 248,-106 247.53,-104.06 247.02,-102.08 246.5,-100.09"/>
<polygon fill="none" stroke="#63b8ff" points="246.54,-100.23 241.07,-95.52 243.31,-88.67 248.78,-93.37 246.54,-100.23"/>
</a>
</g>
<text text-anchor="middle" x="292.64" y="-114.5" font-family="Helvetica,sans-Serif" font-size="10.00" fill="grey"> +BeamSegments</text>
</g>
<!-- Node13 -->
<g id="Node000013" class="node">
<title>Node13</title>
<g id="a_Node000013"><a xlink:title=" ">
<polygon fill="white" stroke="none" points="386,-256 358,-256 358,-204 386,-204 386,-256"/>
<text text-anchor="start" x="362.62" y="-242.5" font-family="Helvetica,sans-Serif" font-size="10.00">float</text>
<text text-anchor="start" x="370.5" y="-226.5" font-family="Helvetica,sans-Serif" font-size="10.00"> </text>
<text text-anchor="start" x="370.5" y="-210.5" font-family="Helvetica,sans-Serif" font-size="10.00"> </text>
<polygon fill="#666666" stroke="#666666" points="358,-238 358,-238 386,-238 386,-238 358,-238"/>
<polygon fill="#666666" stroke="#666666" points="358,-222 358,-222 386,-222 386,-222 358,-222"/>
<polygon fill="none" stroke="#666666" points="358,-204 358,-256 386,-256 386,-204 358,-204"/>
</a>
</g>
</g>
<!-- Node13&#45;&gt;Node1 -->
<g id="edge14_Node000001_Node000013" class="edge">
<title>Node13&#45;&gt;Node1</title>
<g id="a_edge14_Node000001_Node000013"><a xlink:title=" ">
<path fill="none" stroke="#63b8ff" d="M370.22,-204.34C367.14,-177.58 358.76,-134.81 336,-106 326.47,-93.94 313.86,-83.84 300.65,-75.56"/>
<polygon fill="none" stroke="#63b8ff" points="300.6,-75.53 293.4,-75.96 290.24,-69.48 297.44,-69.05 300.6,-75.53"/>
</a>
</g>
<text text-anchor="middle" x="390.18" y="-120.5" font-family="Helvetica,sans-Serif" font-size="10.00" fill="grey"> +BeamAngle</text>
<text text-anchor="middle" x="390.18" y="-108.5" font-family="Helvetica,sans-Serif" font-size="10.00" fill="grey">+MaxBeamLength</text>
</g>
</g>
</svg>
