<?xml version="1.0" encoding="UTF-8" standalone="no"?>
<!DOCTYPE svg PUBLIC "-//W3C//DTD SVG 1.1//EN"
 "http://www.w3.org/Graphics/SVG/1.1/DTD/svg11.dtd">
<!-- Generated by graphviz version 12.1.0 (20240811.2233)
 -->
<!-- Title: DungeonHandler Pages: 1 -->
<svg width="180pt" height="268pt"
 viewBox="0.00 0.00 180.00 268.00" xmlns="http://www.w3.org/2000/svg" xmlns:xlink="http://www.w3.org/1999/xlink">
<g id="graph0" class="graph" transform="scale(1 1) rotate(0) translate(4 264)">
<title>DungeonHandler</title>
<!-- Node1 -->
<g id="Node000001" class="node">
<title>Node1</title>
<g id="a_Node000001"><a xlink:title="Manages the dungeon layout, room transitions, and player movement between rooms.">
<polygon fill="#999999" stroke="none" points="172,-172 0,-172 0,0 172,0 172,-172"/>
<text text-anchor="start" x="49.62" y="-158.5" font-family="Helvetica,sans-Serif" font-size="10.00">DungeonHandler</text>
<text text-anchor="start" x="4" y="-142.5" font-family="Helvetica,sans-Serif" font-size="10.00">+</text>
<text text-anchor="start" x="14" y="-142.5" font-family="Helvetica,sans-Serif" font-size="10.00">int MinRooms</text>
<text text-anchor="start" x="4" y="-126.5" font-family="Helvetica,sans-Serif" font-size="10.00">+</text>
<text text-anchor="start" x="14" y="-126.5" font-family="Helvetica,sans-Serif" font-size="10.00">int MaxRooms</text>
<text text-anchor="start" x="4" y="-110.5" font-family="Helvetica,sans-Serif" font-size="10.00">+</text>
<text text-anchor="start" x="14" y="-110.5" font-family="Helvetica,sans-Serif" font-size="10.00">override void _Ready()</text>
<text text-anchor="start" x="4" y="-94.5" font-family="Helvetica,sans-Serif" font-size="10.00">+</text>
<text text-anchor="start" x="14" y="-94.5" font-family="Helvetica,sans-Serif" font-size="10.00">void LoadDungeon(Dungeon</text>
<text text-anchor="start" x="14" y="-82.5" font-family="Helvetica,sans-Serif" font-size="10.00"> dungeon)</text>
<text text-anchor="start" x="4" y="-66.5" font-family="Helvetica,sans-Serif" font-size="10.00">+</text>
<text text-anchor="start" x="14" y="-66.5" font-family="Helvetica,sans-Serif" font-size="10.00">Vector2I GetCurrentRoomPosition()</text>
<text text-anchor="start" x="4" y="-50.5" font-family="Helvetica,sans-Serif" font-size="10.00">+</text>
<text text-anchor="start" x="14" y="-50.5" font-family="Helvetica,sans-Serif" font-size="10.00">Vector2 GetGridSize()</text>
<text text-anchor="start" x="4" y="-34.5" font-family="Helvetica,sans-Serif" font-size="10.00">+</text>
<text text-anchor="start" x="14" y="-34.5" font-family="Helvetica,sans-Serif" font-size="10.00">Dictionary&lt; Vector2I,</text>
<text text-anchor="start" x="14" y="-22.5" font-family="Helvetica,sans-Serif" font-size="10.00"> Room &gt; GetDungeonLayout()</text>
<text text-anchor="start" x="4" y="-6.5" font-family="Helvetica,sans-Serif" font-size="10.00">+</text>
<text text-anchor="start" x="14" y="-6.5" font-family="Helvetica,sans-Serif" font-size="10.00">MagicType GetMagicType()</text>
<polygon fill="#666666" stroke="#666666" points="0,-154 0,-154 172,-154 172,-154 0,-154"/>
<polygon fill="#666666" stroke="#666666" points="0,-122 0,-122 12,-122 12,-122 0,-122"/>
<polygon fill="#666666" stroke="#666666" points="12,-122 12,-122 172,-122 172,-122 12,-122"/>
<polygon fill="none" stroke="#666666" points="0,0 0,-172 172,-172 172,0 0,0"/>
</a>
</g>
</g>
<!-- Node2 -->
<g id="Node000002" class="node">
<title>Node2</title>
<g id="a_Node000002"><a xlink:href="../../dc/d8f/class_node.html" target="_top" xlink:title=" ">
<polygon fill="white" stroke="none" points="102.5,-260 69.5,-260 69.5,-208 102.5,-208 102.5,-260"/>
<text text-anchor="start" x="74.38" y="-246.5" font-family="Helvetica,sans-Serif" font-size="10.00">Node</text>
<text text-anchor="start" x="84.5" y="-230.5" font-family="Helvetica,sans-Serif" font-size="10.00"> </text>
<text text-anchor="start" x="84.5" y="-214.5" font-family="Helvetica,sans-Serif" font-size="10.00"> </text>
<polygon fill="#666666" stroke="#666666" points="69.5,-242 69.5,-242 102.5,-242 102.5,-242 69.5,-242"/>
<polygon fill="#666666" stroke="#666666" points="69.5,-226 69.5,-226 102.5,-226 102.5,-226 69.5,-226"/>
<polygon fill="none" stroke="#666666" points="69.5,-208 69.5,-260 102.5,-260 102.5,-208 69.5,-208"/>
</a>
</g>
</g>
<!-- Node2&#45;&gt;Node1 -->
<g id="edge1_Node000001_Node000002" class="edge">
<title>Node2&#45;&gt;Node1</title>
<g id="a_edge1_Node000001_Node000002"><a xlink:title=" ">
<path fill="none" stroke="#63b8ff" d="M86,-196.73C86,-188.97 86,-180.46 86,-171.72"/>
<polygon fill="none" stroke="#63b8ff" points="82.5,-196.72 86,-206.72 89.5,-196.72 82.5,-196.72"/>
</a>
</g>
</g>
</g>
</svg>
