<?xml version="1.0" encoding="UTF-8" standalone="no"?>
<!DOCTYPE svg PUBLIC "-//W3C//DTD SVG 1.1//EN"
 "http://www.w3.org/Graphics/SVG/1.1/DTD/svg11.dtd">
<!-- Generated by graphviz version 12.1.0 (20240811.2233)
 -->
<!-- Title: Player Pages: 1 -->
<!--zoomable 1064 -->

<svg id="main" version="1.1" xmlns="http://www.w3.org/2000/svg" xmlns:xlink="http://www.w3.org/1999/xlink" xml:space="preserve" onload="init(evt)">
<style type="text/css"><![CDATA[
.node, .edge {opacity: 0.7;}
.node.selected, .edge.selected {opacity: 1;}
.edge:hover path { stroke: red; }
.edge:hover polygon { stroke: red; fill: red; }
]]></style>

<defs>
  <circle id="rim" cx="0" cy="0" r="7"/>
  <circle id="rim2" cx="0" cy="0" r="3.5"/>
  <g id="zoomPlus">
    <use xlink:href="#rim" fill="#404040"><set attributeName="fill" to="#808080" begin="zoomplus.mouseover" end="zoomplus.mouseout"/></use>
    <path d="M-4,0h8M0,-4v8" fill="none" stroke="white" stroke-width="1.5" pointer-events="none"/>
  </g>
  <g id="zoomMin">
    <use xlink:href="#rim" fill="#404040"><set attributeName="fill" to="#808080" begin="zoomminus.mouseover" end="zoomminus.mouseout"/></use>
    <path d="M-4,0h8" fill="none" stroke="white" stroke-width="1.5" pointer-events="none"/>
  </g>
  <g id="arrowUp" transform="translate(30 24)">
    <use xlink:href="#rim"/>
    <path pointer-events="none" fill="none" stroke="white" stroke-width="1.5" d="M0,-3.0v7 M-2.5,-0.5L0,-3.0L2.5,-0.5"/>
  </g>
  <g id="arrowRight" transform="rotate(90) translate(36 -43)">
    <use xlink:href="#rim"/>
    <path pointer-events="none" fill="none" stroke="white" stroke-width="1.5" d="M0,-3.0v7 M-2.5,-0.5L0,-3.0L2.5,-0.5"/>
  </g>
  <g id="arrowDown" transform="rotate(180) translate(-30 -48)">
    <use xlink:href="#rim"/>
    <path pointer-events="none" fill="none" stroke="white" stroke-width="1.5" d="M0,-3.0v7 M-2.5,-0.5L0,-3.0L2.5,-0.5"/>
  </g>
  <g id="arrowLeft" transform="rotate(270) translate(-36 17)">
    <use xlink:href="#rim"/>
    <path pointer-events="none" fill="none" stroke="white" stroke-width="1.5" d="M0,-3.0v7 M-2.5,-0.5L0,-3.0L2.5,-0.5"/>
  </g>
  <g id="resetDef">
    <use xlink:href="#rim2" fill="#404040"><set attributeName="fill" to="#808080" begin="reset.mouseover" end="reset.mouseout"/></use>
  </g>
</defs>
<script type="application/ecmascript">
var viewWidth = 388;
var viewHeight = 1064;
var sectionId = 'dynsection-1';
</script>
<script type="application/ecmascript" xlink:href="../../svg.min.js"/>
<svg id="graph" class="graph">
<g id="viewport">
<title>Player</title>
<!-- Node1 -->
<g id="Node000001" class="node">
<title>Node1</title>
<g id="a_Node000001"><a xlink:title=" ">
<polygon fill="#999999" stroke="none" points="238,-472 72,-472 72,0 238,0 238,-472"/>
<text text-anchor="start" x="141.12" y="-458.5" font-family="Helvetica,sans-Serif" font-size="10.00">Player</text>
<text text-anchor="start" x="153.5" y="-442.5" font-family="Helvetica,sans-Serif" font-size="10.00"> </text>
<text text-anchor="start" x="76" y="-426.5" font-family="Helvetica,sans-Serif" font-size="10.00">+</text>
<text text-anchor="start" x="86" y="-426.5" font-family="Helvetica,sans-Serif" font-size="10.00">override void _Ready()</text>
<text text-anchor="start" x="76" y="-410.5" font-family="Helvetica,sans-Serif" font-size="10.00">+</text>
<text text-anchor="start" x="86" y="-410.5" font-family="Helvetica,sans-Serif" font-size="10.00">void OnPlayerDeath()</text>
<text text-anchor="start" x="76" y="-394.5" font-family="Helvetica,sans-Serif" font-size="10.00">+</text>
<text text-anchor="start" x="86" y="-394.5" font-family="Helvetica,sans-Serif" font-size="10.00">override void _Process</text>
<text text-anchor="start" x="86" y="-382.5" font-family="Helvetica,sans-Serif" font-size="10.00">(double delta)</text>
<text text-anchor="start" x="76" y="-366.5" font-family="Helvetica,sans-Serif" font-size="10.00">+</text>
<text text-anchor="start" x="86" y="-366.5" font-family="Helvetica,sans-Serif" font-size="10.00">override void _PhysicsProcess</text>
<text text-anchor="start" x="86" y="-354.5" font-family="Helvetica,sans-Serif" font-size="10.00">(double delta)</text>
<text text-anchor="start" x="76" y="-338.5" font-family="Helvetica,sans-Serif" font-size="10.00">+</text>
<text text-anchor="start" x="86" y="-338.5" font-family="Helvetica,sans-Serif" font-size="10.00">override void _Unhandled</text>
<text text-anchor="start" x="86" y="-326.5" font-family="Helvetica,sans-Serif" font-size="10.00">Input(InputEvent @event)</text>
<text text-anchor="start" x="76" y="-310.5" font-family="Helvetica,sans-Serif" font-size="10.00">+</text>
<text text-anchor="start" x="86" y="-310.5" font-family="Helvetica,sans-Serif" font-size="10.00">void EquipAugmentInSlot</text>
<text text-anchor="start" x="86" y="-298.5" font-family="Helvetica,sans-Serif" font-size="10.00">(Augment augment, int slot)</text>
<text text-anchor="start" x="76" y="-282.5" font-family="Helvetica,sans-Serif" font-size="10.00">+</text>
<text text-anchor="start" x="86" y="-282.5" font-family="Helvetica,sans-Serif" font-size="10.00">void UnEquipAugmentFromSlot</text>
<text text-anchor="start" x="86" y="-270.5" font-family="Helvetica,sans-Serif" font-size="10.00">(int slot)</text>
<text text-anchor="start" x="76" y="-254.5" font-family="Helvetica,sans-Serif" font-size="10.00">+</text>
<text text-anchor="start" x="86" y="-254.5" font-family="Helvetica,sans-Serif" font-size="10.00">void RecalculateAugmentEffects()</text>
<text text-anchor="start" x="76" y="-238.5" font-family="Helvetica,sans-Serif" font-size="10.00">+</text>
<text text-anchor="start" x="86" y="-238.5" font-family="Helvetica,sans-Serif" font-size="10.00">void SetPlayerSkill</text>
<text text-anchor="start" x="86" y="-226.5" font-family="Helvetica,sans-Serif" font-size="10.00">(int nrSkillSlot, SpellName</text>
<text text-anchor="start" x="86" y="-214.5" font-family="Helvetica,sans-Serif" font-size="10.00">? spell)</text>
<text text-anchor="start" x="76" y="-198.5" font-family="Helvetica,sans-Serif" font-size="10.00">+</text>
<text text-anchor="start" x="86" y="-198.5" font-family="Helvetica,sans-Serif" font-size="10.00">InventorySpell GetPlayer</text>
<text text-anchor="start" x="86" y="-186.5" font-family="Helvetica,sans-Serif" font-size="10.00">Skill(int slotIndex)</text>
<text text-anchor="start" x="76" y="-170.5" font-family="Helvetica,sans-Serif" font-size="10.00">+</text>
<text text-anchor="start" x="86" y="-170.5" font-family="Helvetica,sans-Serif" font-size="10.00">void TestEquip()</text>
<text text-anchor="start" x="76" y="-154.5" font-family="Helvetica,sans-Serif" font-size="10.00">+</text>
<text text-anchor="start" x="86" y="-154.5" font-family="Helvetica,sans-Serif" font-size="10.00">void OpenAugmentInventory()</text>
<text text-anchor="start" x="76" y="-138.5" font-family="Helvetica,sans-Serif" font-size="10.00">+</text>
<text text-anchor="start" x="86" y="-138.5" font-family="Helvetica,sans-Serif" font-size="10.00">void OpenFuseAugments()</text>
<text text-anchor="start" x="76" y="-122.5" font-family="Helvetica,sans-Serif" font-size="10.00">+</text>
<text text-anchor="start" x="86" y="-122.5" font-family="Helvetica,sans-Serif" font-size="10.00">void OpenSkillTree()</text>
<text text-anchor="start" x="76" y="-106.5" font-family="Helvetica,sans-Serif" font-size="10.00">+</text>
<text text-anchor="start" x="86" y="-106.5" font-family="Helvetica,sans-Serif" font-size="10.00">void AddAugmentToInventory</text>
<text text-anchor="start" x="86" y="-94.5" font-family="Helvetica,sans-Serif" font-size="10.00">(Augment augment)</text>
<text text-anchor="start" x="76" y="-78.5" font-family="Helvetica,sans-Serif" font-size="10.00">+</text>
<text text-anchor="start" x="86" y="-78.5" font-family="Helvetica,sans-Serif" font-size="10.00">void AddSkillPointOfType</text>
<text text-anchor="start" x="86" y="-66.5" font-family="Helvetica,sans-Serif" font-size="10.00">(MagicType magicType)</text>
<text text-anchor="start" x="76" y="-50.5" font-family="Helvetica,sans-Serif" font-size="10.00">+</text>
<text text-anchor="start" x="86" y="-50.5" font-family="Helvetica,sans-Serif" font-size="10.00">void SetStartBasic</text>
<text text-anchor="start" x="86" y="-38.5" font-family="Helvetica,sans-Serif" font-size="10.00">(MagicType magicType)</text>
<text text-anchor="start" x="76" y="-22.5" font-family="Helvetica,sans-Serif" font-size="10.00">+</text>
<text text-anchor="start" x="86" y="-22.5" font-family="Helvetica,sans-Serif" font-size="10.00">void ResetPlayer()</text>
<text text-anchor="start" x="76" y="-6.5" font-family="Helvetica,sans-Serif" font-size="10.00">+</text>
<text text-anchor="start" x="86" y="-6.5" font-family="Helvetica,sans-Serif" font-size="10.00">void ResetPlayerHP()</text>
<polygon fill="#666666" stroke="#666666" points="72,-454 72,-454 238,-454 238,-454 72,-454"/>
<polygon fill="#666666" stroke="#666666" points="72,-438 72,-438 238,-438 238,-438 72,-438"/>
<polygon fill="none" stroke="#666666" points="72,0 72,-472 238,-472 238,0 72,0"/>
</a>
</g>
</g>
<!-- Node2 -->
<g id="Node000002" class="node">
<title>Node2</title>
<g id="a_Node000002"><a xlink:title=" ">
<polygon fill="white" stroke="none" points="88,-1056 0,-1056 0,-1004 88,-1004 88,-1056"/>
<text text-anchor="start" x="5" y="-1042.5" font-family="Helvetica,sans-Serif" font-size="10.00">CharacterBody2D</text>
<text text-anchor="start" x="42.5" y="-1026.5" font-family="Helvetica,sans-Serif" font-size="10.00"> </text>
<text text-anchor="start" x="42.5" y="-1010.5" font-family="Helvetica,sans-Serif" font-size="10.00"> </text>
<polygon fill="#666666" stroke="#666666" points="0,-1038 0,-1038 88,-1038 88,-1038 0,-1038"/>
<polygon fill="#666666" stroke="#666666" points="0,-1022 0,-1022 88,-1022 88,-1022 0,-1022"/>
<polygon fill="none" stroke="#666666" points="0,-1004 0,-1056 88,-1056 88,-1004 0,-1004"/>
</a>
</g>
</g>
<!-- Node2&#45;&gt;Node1 -->
<g id="edge1_Node000001_Node000002" class="edge">
<title>Node2&#45;&gt;Node1</title>
<g id="a_edge1_Node000001_Node000002"><a xlink:title=" ">
<path fill="none" stroke="#63b8ff" d="M43.15,-992.73C41.8,-908.84 41.9,-695.21 72,-520 74.71,-504.23 77.99,-488.09 81.67,-471.91"/>
<polygon fill="none" stroke="#63b8ff" points="39.65,-992.69 43.33,-1002.63 46.65,-992.57 39.65,-992.69"/>
</a>
</g>
</g>
<!-- Node5 -->
<g id="Node000005" class="node">
<title>Node5</title>
<g id="a_Node000005"><a xlink:href="../../d0/d8b/class_state.html" target="_top" xlink:title=" ">
<polygon fill="white" stroke="none" points="294,-956 140,-956 140,-772 294,-772 294,-956"/>
<text text-anchor="start" x="205.38" y="-942.5" font-family="Helvetica,sans-Serif" font-size="10.00">State</text>
<text text-anchor="start" x="215.5" y="-926.5" font-family="Helvetica,sans-Serif" font-size="10.00"> </text>
<text text-anchor="start" x="144" y="-910.5" font-family="Helvetica,sans-Serif" font-size="10.00">+</text>
<text text-anchor="start" x="154" y="-910.5" font-family="Helvetica,sans-Serif" font-size="10.00">virtual bool CanEnter()</text>
<text text-anchor="start" x="144" y="-894.5" font-family="Helvetica,sans-Serif" font-size="10.00">+</text>
<text text-anchor="start" x="154" y="-894.5" font-family="Helvetica,sans-Serif" font-size="10.00">virtual void Enter()</text>
<text text-anchor="start" x="144" y="-878.5" font-family="Helvetica,sans-Serif" font-size="10.00">+</text>
<text text-anchor="start" x="154" y="-878.5" font-family="Helvetica,sans-Serif" font-size="10.00">virtual void Exit()</text>
<text text-anchor="start" x="144" y="-862.5" font-family="Helvetica,sans-Serif" font-size="10.00">+</text>
<text text-anchor="start" x="154" y="-862.5" font-family="Helvetica,sans-Serif" font-size="10.00">virtual State ProcessInput</text>
<text text-anchor="start" x="154" y="-850.5" font-family="Helvetica,sans-Serif" font-size="10.00">(InputEvent @event)</text>
<text text-anchor="start" x="144" y="-834.5" font-family="Helvetica,sans-Serif" font-size="10.00">+</text>
<text text-anchor="start" x="154" y="-834.5" font-family="Helvetica,sans-Serif" font-size="10.00">virtual State ProcessFrame</text>
<text text-anchor="start" x="154" y="-822.5" font-family="Helvetica,sans-Serif" font-size="10.00">(double delta)</text>
<text text-anchor="start" x="144" y="-806.5" font-family="Helvetica,sans-Serif" font-size="10.00">+</text>
<text text-anchor="start" x="154" y="-806.5" font-family="Helvetica,sans-Serif" font-size="10.00">virtual State ProcessPhysics</text>
<text text-anchor="start" x="154" y="-794.5" font-family="Helvetica,sans-Serif" font-size="10.00">(double delta)</text>
<text text-anchor="start" x="144" y="-778.5" font-family="Helvetica,sans-Serif" font-size="10.00">+</text>
<text text-anchor="start" x="154" y="-778.5" font-family="Helvetica,sans-Serif" font-size="10.00">virtual void UpdateAnimations()</text>
<polygon fill="#666666" stroke="#666666" points="140,-938 140,-938 294,-938 294,-938 140,-938"/>
<polygon fill="#666666" stroke="#666666" points="140,-922 140,-922 294,-922 294,-922 140,-922"/>
<polygon fill="none" stroke="#666666" points="140,-772 140,-956 294,-956 294,-772 140,-772"/>
</a>
</g>
</g>
<!-- Node2&#45;&gt;Node5 -->
<g id="edge6_Node000005_Node000002" class="edge">
<title>Node2&#45;&gt;Node5</title>
<g id="a_edge6_Node000005_Node000002"><a xlink:title=" ">
<path fill="none" stroke="#63b8ff" d="M70.27,-1004.09C86.65,-988.57 108.74,-967.62 130.81,-946.7"/>
<polygon fill="none" stroke="#63b8ff" points="130.89,-946.63 132.49,-939.6 139.6,-938.38 137.99,-945.41 130.89,-946.63"/>
</a>
</g>
<text text-anchor="middle" x="118.71" y="-976.5" font-family="Helvetica,sans-Serif" font-size="10.00" fill="grey"> +Parent</text>
</g>
<!-- Node3 -->
<g id="Node000003" class="node">
<title>Node3</title>
<g id="a_Node000003"><a xlink:href="../../d4/dd0/class_state_machine.html" target="_top" xlink:title=" ">
<polygon fill="white" stroke="none" points="228.5,-712 81.5,-712 81.5,-520 228.5,-520 228.5,-712"/>
<text text-anchor="start" x="125" y="-698.5" font-family="Helvetica,sans-Serif" font-size="10.00">StateMachine</text>
<text text-anchor="start" x="153.5" y="-682.5" font-family="Helvetica,sans-Serif" font-size="10.00"> </text>
<text text-anchor="start" x="85.5" y="-666.5" font-family="Helvetica,sans-Serif" font-size="10.00">+</text>
<text text-anchor="start" x="95.5" y="-666.5" font-family="Helvetica,sans-Serif" font-size="10.00">void Init(CharacterBody2</text>
<text text-anchor="start" x="95.5" y="-654.5" font-family="Helvetica,sans-Serif" font-size="10.00">D parent, AnimationPlayer</text>
<text text-anchor="start" x="95.5" y="-642.5" font-family="Helvetica,sans-Serif" font-size="10.00"> animationPlayer)</text>
<text text-anchor="start" x="85.5" y="-626.5" font-family="Helvetica,sans-Serif" font-size="10.00">+</text>
<text text-anchor="start" x="95.5" y="-626.5" font-family="Helvetica,sans-Serif" font-size="10.00">void ProcessInput(InputEvent</text>
<text text-anchor="start" x="95.5" y="-614.5" font-family="Helvetica,sans-Serif" font-size="10.00"> @event)</text>
<text text-anchor="start" x="85.5" y="-598.5" font-family="Helvetica,sans-Serif" font-size="10.00">+</text>
<text text-anchor="start" x="95.5" y="-598.5" font-family="Helvetica,sans-Serif" font-size="10.00">void ProcessFrame(double</text>
<text text-anchor="start" x="95.5" y="-586.5" font-family="Helvetica,sans-Serif" font-size="10.00"> delta)</text>
<text text-anchor="start" x="85.5" y="-570.5" font-family="Helvetica,sans-Serif" font-size="10.00">+</text>
<text text-anchor="start" x="95.5" y="-570.5" font-family="Helvetica,sans-Serif" font-size="10.00">void ProcessPhysics</text>
<text text-anchor="start" x="95.5" y="-558.5" font-family="Helvetica,sans-Serif" font-size="10.00">(double delta)</text>
<text text-anchor="start" x="85.5" y="-542.5" font-family="Helvetica,sans-Serif" font-size="10.00">+</text>
<text text-anchor="start" x="95.5" y="-542.5" font-family="Helvetica,sans-Serif" font-size="10.00">State GetState()</text>
<text text-anchor="start" x="85.5" y="-526.5" font-family="Helvetica,sans-Serif" font-size="10.00">+</text>
<text text-anchor="start" x="95.5" y="-526.5" font-family="Helvetica,sans-Serif" font-size="10.00">void OnDeath()</text>
<polygon fill="#666666" stroke="#666666" points="81.5,-694 81.5,-694 228.5,-694 228.5,-694 81.5,-694"/>
<polygon fill="#666666" stroke="#666666" points="81.5,-678 81.5,-678 228.5,-678 228.5,-678 81.5,-678"/>
<polygon fill="none" stroke="#666666" points="81.5,-520 81.5,-712 228.5,-712 228.5,-520 81.5,-520"/>
</a>
</g>
</g>
<!-- Node3&#45;&gt;Node1 -->
<g id="edge2_Node000001_Node000003" class="edge">
<title>Node3&#45;&gt;Node1</title>
<g id="a_edge2_Node000001_Node000003"><a xlink:title=" ">
<path fill="none" stroke="#63b8ff" d="M155,-520.1C155,-508.82 155,-496.94 155,-484.69"/>
<polygon fill="none" stroke="#63b8ff" points="155,-484.71 151,-478.71 155,-472.71 159,-478.71 155,-484.71"/>
</a>
</g>
<text text-anchor="middle" x="189.5" y="-492.5" font-family="Helvetica,sans-Serif" font-size="10.00" fill="grey"> +StateMachine</text>
</g>
<!-- Node4 -->
<g id="Node000004" class="node">
<title>Node4</title>
<g id="a_Node000004"><a xlink:href="../../dc/d8f/class_node.html" target="_top" xlink:title=" ">
<polygon fill="white" stroke="none" points="142.5,-1056 109.5,-1056 109.5,-1004 142.5,-1004 142.5,-1056"/>
<text text-anchor="start" x="114.38" y="-1042.5" font-family="Helvetica,sans-Serif" font-size="10.00">Node</text>
<text text-anchor="start" x="124.5" y="-1026.5" font-family="Helvetica,sans-Serif" font-size="10.00"> </text>
<text text-anchor="start" x="124.5" y="-1010.5" font-family="Helvetica,sans-Serif" font-size="10.00"> </text>
<polygon fill="#666666" stroke="#666666" points="109.5,-1038 109.5,-1038 142.5,-1038 142.5,-1038 109.5,-1038"/>
<polygon fill="#666666" stroke="#666666" points="109.5,-1022 109.5,-1022 142.5,-1022 142.5,-1022 109.5,-1022"/>
<polygon fill="none" stroke="#666666" points="109.5,-1004 109.5,-1056 142.5,-1056 142.5,-1004 109.5,-1004"/>
</a>
</g>
</g>
<!-- Node4&#45;&gt;Node3 -->
<g id="edge3_Node000003_Node000004" class="edge">
<title>Node4&#45;&gt;Node3</title>
<g id="a_edge3_Node000003_Node000004"><a xlink:title=" ">
<path fill="none" stroke="#63b8ff" d="M125.18,-992.7C124.4,-942.85 124.19,-850.45 131,-772 132.69,-752.47 135.33,-731.66 138.25,-711.84"/>
<polygon fill="none" stroke="#63b8ff" points="121.68,-992.68 125.35,-1002.62 128.67,-992.56 121.68,-992.68"/>
</a>
</g>
</g>
<!-- Node4&#45;&gt;Node5 -->
<g id="edge5_Node000005_Node000004" class="edge">
<title>Node4&#45;&gt;Node5</title>
<g id="a_edge5_Node000005_Node000004"><a xlink:title=" ">
<path fill="none" stroke="#63b8ff" d="M145.33,-994.16C151.67,-982.73 159.04,-969.45 166.6,-955.84"/>
<polygon fill="none" stroke="#63b8ff" points="142.35,-992.33 140.56,-1002.77 148.47,-995.72 142.35,-992.33"/>
</a>
</g>
</g>
<!-- Node5&#45;&gt;Node3 -->
<g id="edge4_Node000003_Node000005" class="edge">
<title>Node5&#45;&gt;Node3</title>
<g id="a_edge4_Node000003_Node000005"><a xlink:title=" ">
<path fill="none" stroke="#63b8ff" d="M194.09,-772.1C190.13,-756.39 185.98,-739.94 181.93,-723.85"/>
<polygon fill="none" stroke="#63b8ff" points="182.01,-724.16 176.66,-719.32 179.07,-712.52 184.42,-717.36 182.01,-724.16"/>
</a>
</g>
<text text-anchor="middle" x="219.36" y="-744.5" font-family="Helvetica,sans-Serif" font-size="10.00" fill="grey"> +DeathState</text>
<text text-anchor="middle" x="219.36" y="-732.5" font-family="Helvetica,sans-Serif" font-size="10.00" fill="grey">+StartingState</text>
</g>
<!-- Node6 -->
<g id="Node000006" class="node">
<title>Node6</title>
<g id="a_Node000006"><a xlink:title=" ">
<polygon fill="white" stroke="none" points="309.5,-1056 228.5,-1056 228.5,-1004 309.5,-1004 309.5,-1056"/>
<text text-anchor="start" x="233.38" y="-1042.5" font-family="Helvetica,sans-Serif" font-size="10.00">AnimationPlayer</text>
<text text-anchor="start" x="267.5" y="-1026.5" font-family="Helvetica,sans-Serif" font-size="10.00"> </text>
<text text-anchor="start" x="267.5" y="-1010.5" font-family="Helvetica,sans-Serif" font-size="10.00"> </text>
<polygon fill="#666666" stroke="#666666" points="228.5,-1038 228.5,-1038 309.5,-1038 309.5,-1038 228.5,-1038"/>
<polygon fill="#666666" stroke="#666666" points="228.5,-1022 228.5,-1022 309.5,-1022 309.5,-1022 228.5,-1022"/>
<polygon fill="none" stroke="#666666" points="228.5,-1004 228.5,-1056 309.5,-1056 309.5,-1004 228.5,-1004"/>
</a>
</g>
</g>
<!-- Node6&#45;&gt;Node1 -->
<g id="edge8_Node000001_Node000006" class="edge">
<title>Node6&#45;&gt;Node1</title>
<g id="a_edge8_Node000001_Node000006"><a xlink:title=" ">
<path fill="none" stroke="#63b8ff" d="M296.82,-1004.31C301.39,-998.78 305.46,-992.58 308,-986 342.25,-897.24 316.14,-866.22 303,-772 289.67,-676.41 264.12,-573.74 237.95,-484.15"/>
<polygon fill="none" stroke="#63b8ff" points="237.98,-484.26 232.45,-479.63 234.59,-472.75 240.12,-477.37 237.98,-484.26"/>
</a>
</g>
<text text-anchor="middle" x="339.76" y="-738.5" font-family="Helvetica,sans-Serif" font-size="10.00" fill="grey"> +AnimationPlayer</text>
</g>
<!-- Node6&#45;&gt;Node5 -->
<g id="edge7_Node000005_Node000006" class="edge">
<title>Node6&#45;&gt;Node5</title>
<g id="a_edge7_Node000005_Node000006"><a xlink:title=" ">
<path fill="none" stroke="#63b8ff" d="M257.48,-1004.23C254.93,-998.32 252.37,-991.99 250.25,-986 248.22,-980.27 246.25,-974.35 244.33,-968.35"/>
<polygon fill="none" stroke="#63b8ff" points="244.31,-968.28 238.71,-963.74 240.75,-956.82 246.34,-961.36 244.31,-968.28"/>
</a>
</g>
<text text-anchor="middle" x="279.12" y="-976.5" font-family="Helvetica,sans-Serif" font-size="10.00" fill="grey"> +Animations</text>
</g>
</g>
</svg>

<g id="navigator" transform="translate(0 0)" fill="#404254">
  <rect fill="#f2f5e9" fill-opacity="0.5" stroke="#606060" stroke-width=".5" x="0" y="0" width="60" height="60"/>
  <use id="zoomplus" xlink:href="#zoomPlus" x="17" y="9" onmousedown="handleZoom(evt,'in')"/>
  <use id="zoomminus" xlink:href="#zoomMin" x="42" y="9" onmousedown="handleZoom(evt,'out')"/>
  <use id="reset" xlink:href="#resetDef" x="30" y="36" onmousedown="handleReset()"/>
   <use id="arrowup" xlink:href="#arrowUp" x="0" y="0" onmousedown="handlePan(0,-1)"/>
  <use id="arrowright" xlink:href="#arrowRight" x="0" y="0" onmousedown="handlePan(1,0)"/>
  <use id="arrowdown" xlink:href="#arrowDown" x="0" y="0" onmousedown="handlePan(0,1)"/>
  <use id="arrowleft" xlink:href="#arrowLeft" x="0" y="0" onmousedown="handlePan(-1,0)"/>
</g>
<svg viewBox="0 0 15 15" width="100%" height="30px" preserveAspectRatio="xMaxYMin meet">
 <g id="arrow_out" transform="scale(0.3 0.3)">
  <a xlink:href="class_player__coll__graph_org.svg" target="_base">
   <rect id="button" ry="5" rx="5" y="6" x="6" height="38" width="38"
        fill="#f2f5e9" fill-opacity="0.5" stroke="#606060" stroke-width="1.0"/>
   <path id="arrow"
     d="M 11.500037,31.436501 C 11.940474,20.09759 22.043105,11.32322 32.158766,21.979434 L 37.068811,17.246167 C 37.068811,17.246167 37.088388,32 37.088388,32 L 22.160133,31.978069 C 22.160133,31.978069 26.997745,27.140456 26.997745,27.140456 C 18.528582,18.264221 13.291696,25.230495 11.500037,31.436501 z"
     style="fill:#404040;"/>
  </a>
 </g>
</svg>

<style type='text/css'>
<![CDATA[
[data-mouse-over-selected='false'] { opacity: 0.7; }
[data-mouse-over-selected='true']  { opacity: 1.0; }
]]>
</style>
<script type="application/ecmascript"><![CDATA[
document.addEventListener('DOMContentLoaded', (event) => {
  highlightEdges();
  highlightAdjacentNodes();
});
]]></script>
</svg>
