<?xml version="1.0" encoding="UTF-8" standalone="no"?>
<!DOCTYPE svg PUBLIC "-//W3C//DTD SVG 1.1//EN"
 "http://www.w3.org/Graphics/SVG/1.1/DTD/svg11.dtd">
<!-- Generated by graphviz version 12.1.0 (20240811.2233)
 -->
<!-- Title: NewGameMenu Pages: 1 -->
<!--zoomable 682 -->

<svg id="main" version="1.1" xmlns="http://www.w3.org/2000/svg" xmlns:xlink="http://www.w3.org/1999/xlink" xml:space="preserve" onload="init(evt)">
<style type="text/css"><![CDATA[
.node, .edge {opacity: 0.7;}
.node.selected, .edge.selected {opacity: 1;}
.edge:hover path { stroke: red; }
.edge:hover polygon { stroke: red; fill: red; }
]]></style>

<defs>
  <circle id="rim" cx="0" cy="0" r="7"/>
  <circle id="rim2" cx="0" cy="0" r="3.5"/>
  <g id="zoomPlus">
    <use xlink:href="#rim" fill="#404040"><set attributeName="fill" to="#808080" begin="zoomplus.mouseover" end="zoomplus.mouseout"/></use>
    <path d="M-4,0h8M0,-4v8" fill="none" stroke="white" stroke-width="1.5" pointer-events="none"/>
  </g>
  <g id="zoomMin">
    <use xlink:href="#rim" fill="#404040"><set attributeName="fill" to="#808080" begin="zoomminus.mouseover" end="zoomminus.mouseout"/></use>
    <path d="M-4,0h8" fill="none" stroke="white" stroke-width="1.5" pointer-events="none"/>
  </g>
  <g id="arrowUp" transform="translate(30 24)">
    <use xlink:href="#rim"/>
    <path pointer-events="none" fill="none" stroke="white" stroke-width="1.5" d="M0,-3.0v7 M-2.5,-0.5L0,-3.0L2.5,-0.5"/>
  </g>
  <g id="arrowRight" transform="rotate(90) translate(36 -43)">
    <use xlink:href="#rim"/>
    <path pointer-events="none" fill="none" stroke="white" stroke-width="1.5" d="M0,-3.0v7 M-2.5,-0.5L0,-3.0L2.5,-0.5"/>
  </g>
  <g id="arrowDown" transform="rotate(180) translate(-30 -48)">
    <use xlink:href="#rim"/>
    <path pointer-events="none" fill="none" stroke="white" stroke-width="1.5" d="M0,-3.0v7 M-2.5,-0.5L0,-3.0L2.5,-0.5"/>
  </g>
  <g id="arrowLeft" transform="rotate(270) translate(-36 17)">
    <use xlink:href="#rim"/>
    <path pointer-events="none" fill="none" stroke="white" stroke-width="1.5" d="M0,-3.0v7 M-2.5,-0.5L0,-3.0L2.5,-0.5"/>
  </g>
  <g id="resetDef">
    <use xlink:href="#rim2" fill="#404040"><set attributeName="fill" to="#808080" begin="reset.mouseover" end="reset.mouseout"/></use>
  </g>
</defs>
<script type="application/ecmascript">
var viewWidth = 277;
var viewHeight = 682;
var sectionId = 'dynsection-1';
</script>
<script type="application/ecmascript" xlink:href="../../svg.min.js"/>
<svg id="graph" class="graph">
<g id="viewport">
<title>NewGameMenu</title>
<!-- Node1 -->
<g id="Node000001" class="node">
<title>Node1</title>
<g id="a_Node000001"><a xlink:title=" ">
<polygon fill="#999999" stroke="none" points="148,-128 18,-128 18,0 148,0 148,-128"/>
<text text-anchor="start" x="47.75" y="-114.5" font-family="Helvetica,sans-Serif" font-size="10.00">NewGameMenu</text>
<text text-anchor="start" x="81.5" y="-98.5" font-family="Helvetica,sans-Serif" font-size="10.00"> </text>
<text text-anchor="start" x="22" y="-82.5" font-family="Helvetica,sans-Serif" font-size="10.00">+</text>
<text text-anchor="start" x="32" y="-82.5" font-family="Helvetica,sans-Serif" font-size="10.00">override void _Ready()</text>
<text text-anchor="start" x="22" y="-66.5" font-family="Helvetica,sans-Serif" font-size="10.00">+</text>
<text text-anchor="start" x="32" y="-66.5" font-family="Helvetica,sans-Serif" font-size="10.00">override void _Unhandled</text>
<text text-anchor="start" x="32" y="-54.5" font-family="Helvetica,sans-Serif" font-size="10.00">Input(InputEvent @event)</text>
<text text-anchor="start" x="22" y="-38.5" font-family="Helvetica,sans-Serif" font-size="10.00">+</text>
<text text-anchor="start" x="32" y="-38.5" font-family="Helvetica,sans-Serif" font-size="10.00">void SunSelected()</text>
<text text-anchor="start" x="22" y="-22.5" font-family="Helvetica,sans-Serif" font-size="10.00">+</text>
<text text-anchor="start" x="32" y="-22.5" font-family="Helvetica,sans-Serif" font-size="10.00">void CosmicSelected()</text>
<text text-anchor="start" x="22" y="-6.5" font-family="Helvetica,sans-Serif" font-size="10.00">+</text>
<text text-anchor="start" x="32" y="-6.5" font-family="Helvetica,sans-Serif" font-size="10.00">void DarkSelected()</text>
<polygon fill="#666666" stroke="#666666" points="18,-110 18,-110 148,-110 148,-110 18,-110"/>
<polygon fill="#666666" stroke="#666666" points="18,-94 18,-94 148,-94 148,-94 18,-94"/>
<polygon fill="none" stroke="#666666" points="18,0 18,-128 148,-128 148,0 18,0"/>
</a>
</g>
</g>
<!-- Node2 -->
<g id="Node000002" class="node">
<title>Node2</title>
<g id="a_Node000002"><a xlink:href="../../d9/dc5/class_base_menu.html" target="_top" xlink:title=" ">
<polygon fill="white" stroke="none" points="166,-317 0,-317 0,-165 166,-165 166,-317"/>
<text text-anchor="start" x="59.75" y="-303.5" font-family="Helvetica,sans-Serif" font-size="10.00">BaseMenu</text>
<text text-anchor="start" x="4" y="-287.5" font-family="Helvetica,sans-Serif" font-size="10.00">+</text>
<text text-anchor="start" x="14" y="-287.5" font-family="Helvetica,sans-Serif" font-size="10.00">MenuManager.MenuType</text>
<text text-anchor="start" x="14" y="-275.5" font-family="Helvetica,sans-Serif" font-size="10.00"> MenuType</text>
<text text-anchor="start" x="4" y="-259.5" font-family="Helvetica,sans-Serif" font-size="10.00">+</text>
<text text-anchor="start" x="14" y="-259.5" font-family="Helvetica,sans-Serif" font-size="10.00">override void _Ready()</text>
<text text-anchor="start" x="4" y="-243.5" font-family="Helvetica,sans-Serif" font-size="10.00">+</text>
<text text-anchor="start" x="14" y="-243.5" font-family="Helvetica,sans-Serif" font-size="10.00">void PushMenu(MenuManager.</text>
<text text-anchor="start" x="14" y="-231.5" font-family="Helvetica,sans-Serif" font-size="10.00">MenuType newMenu)</text>
<text text-anchor="start" x="4" y="-215.5" font-family="Helvetica,sans-Serif" font-size="10.00">+</text>
<text text-anchor="start" x="14" y="-215.5" font-family="Helvetica,sans-Serif" font-size="10.00">void PopMenu()</text>
<text text-anchor="start" x="4" y="-199.5" font-family="Helvetica,sans-Serif" font-size="10.00">+</text>
<text text-anchor="start" x="14" y="-199.5" font-family="Helvetica,sans-Serif" font-size="10.00">void SetRootMenu(MenuManager.</text>
<text text-anchor="start" x="14" y="-187.5" font-family="Helvetica,sans-Serif" font-size="10.00">MenuType newMenu)</text>
<text text-anchor="start" x="4.38" y="-171.5" font-family="Helvetica,sans-Serif" font-size="10.00">#</text>
<text text-anchor="start" x="14" y="-171.5" font-family="Helvetica,sans-Serif" font-size="10.00">virtual void SetupMenu()</text>
<polygon fill="#666666" stroke="#666666" points="0,-299 0,-299 166,-299 166,-299 0,-299"/>
<polygon fill="#666666" stroke="#666666" points="0,-271 0,-271 12,-271 12,-271 0,-271"/>
<polygon fill="#666666" stroke="#666666" points="12,-271 12,-271 166,-271 166,-271 12,-271"/>
<polygon fill="none" stroke="#666666" points="0,-165 0,-317 166,-317 166,-165 0,-165"/>
</a>
</g>
</g>
<!-- Node2&#45;&gt;Node1 -->
<g id="edge1_Node000001_Node000002" class="edge">
<title>Node2&#45;&gt;Node1</title>
<g id="a_edge1_Node000001_Node000002"><a xlink:title=" ">
<path fill="none" stroke="#63b8ff" d="M83,-153.68C83,-145.02 83,-136.35 83,-128"/>
<polygon fill="none" stroke="#63b8ff" points="79.5,-153.51 83,-163.51 86.5,-153.51 79.5,-153.51"/>
</a>
</g>
</g>
<!-- Node3 -->
<g id="Node000003" class="node">
<title>Node3</title>
<g id="a_Node000003"><a xlink:href="../../dc/d8f/class_node.html" target="_top" xlink:title=" ">
<polygon fill="white" stroke="none" points="95.5,-674 62.5,-674 62.5,-622 95.5,-622 95.5,-674"/>
<text text-anchor="start" x="67.38" y="-660.5" font-family="Helvetica,sans-Serif" font-size="10.00">Node</text>
<text text-anchor="start" x="77.5" y="-644.5" font-family="Helvetica,sans-Serif" font-size="10.00"> </text>
<text text-anchor="start" x="77.5" y="-628.5" font-family="Helvetica,sans-Serif" font-size="10.00"> </text>
<polygon fill="#666666" stroke="#666666" points="62.5,-656 62.5,-656 95.5,-656 95.5,-656 62.5,-656"/>
<polygon fill="#666666" stroke="#666666" points="62.5,-640 62.5,-640 95.5,-640 95.5,-640 62.5,-640"/>
<polygon fill="none" stroke="#666666" points="62.5,-622 62.5,-674 95.5,-674 95.5,-622 62.5,-622"/>
</a>
</g>
</g>
<!-- Node3&#45;&gt;Node2 -->
<g id="edge2_Node000002_Node000003" class="edge">
<title>Node3&#45;&gt;Node2</title>
<g id="a_edge2_Node000002_Node000003"><a xlink:title=" ">
<path fill="none" stroke="#63b8ff" d="M79.36,-610.88C80.01,-545.03 81.4,-404.2 82.26,-316.86"/>
<polygon fill="none" stroke="#63b8ff" points="75.86,-610.73 79.26,-620.76 82.86,-610.8 75.86,-610.73"/>
</a>
</g>
</g>
<!-- Node4 -->
<g id="Node000004" class="node">
<title>Node4</title>
<g id="a_Node000004"><a xlink:href="../../d9/db2/class_menu_manager.html" target="_top" xlink:title=" ">
<polygon fill="white" stroke="none" points="268.5,-585 95.5,-585 95.5,-365 268.5,-365 268.5,-585"/>
<text text-anchor="start" x="151.25" y="-571.5" font-family="Helvetica,sans-Serif" font-size="10.00">MenuManager</text>
<text text-anchor="start" x="99.5" y="-555.5" font-family="Helvetica,sans-Serif" font-size="10.00">+</text>
<text text-anchor="start" x="109.5" y="-555.5" font-family="Helvetica,sans-Serif" font-size="10.00">MenuType CurrentMenu</text>
<text text-anchor="start" x="99.5" y="-539.5" font-family="Helvetica,sans-Serif" font-size="10.00">+</text>
<text text-anchor="start" x="109.5" y="-539.5" font-family="Helvetica,sans-Serif" font-size="10.00">delegate void MenuChanged</text>
<text text-anchor="start" x="109.5" y="-527.5" font-family="Helvetica,sans-Serif" font-size="10.00">EventHandler(MenuType newMenu,</text>
<text text-anchor="start" x="109.5" y="-515.5" font-family="Helvetica,sans-Serif" font-size="10.00"> bool isPush)</text>
<text text-anchor="start" x="99.5" y="-499.5" font-family="Helvetica,sans-Serif" font-size="10.00">+</text>
<text text-anchor="start" x="109.5" y="-499.5" font-family="Helvetica,sans-Serif" font-size="10.00">delegate void MenuLeftEvent</text>
<text text-anchor="start" x="109.5" y="-487.5" font-family="Helvetica,sans-Serif" font-size="10.00">Handler(MenuType leftMenu)</text>
<text text-anchor="start" x="99.5" y="-471.5" font-family="Helvetica,sans-Serif" font-size="10.00">+</text>
<text text-anchor="start" x="109.5" y="-471.5" font-family="Helvetica,sans-Serif" font-size="10.00">override void _EnterTree()</text>
<text text-anchor="start" x="99.5" y="-455.5" font-family="Helvetica,sans-Serif" font-size="10.00">+</text>
<text text-anchor="start" x="109.5" y="-455.5" font-family="Helvetica,sans-Serif" font-size="10.00">void PushMenu(MenuType</text>
<text text-anchor="start" x="109.5" y="-443.5" font-family="Helvetica,sans-Serif" font-size="10.00"> newMenu)</text>
<text text-anchor="start" x="99.5" y="-427.5" font-family="Helvetica,sans-Serif" font-size="10.00">+</text>
<text text-anchor="start" x="109.5" y="-427.5" font-family="Helvetica,sans-Serif" font-size="10.00">void PopMenu()</text>
<text text-anchor="start" x="99.5" y="-411.5" font-family="Helvetica,sans-Serif" font-size="10.00">+</text>
<text text-anchor="start" x="109.5" y="-411.5" font-family="Helvetica,sans-Serif" font-size="10.00">void SetRootMenu(MenuType</text>
<text text-anchor="start" x="109.5" y="-399.5" font-family="Helvetica,sans-Serif" font-size="10.00"> newMenu)</text>
<text text-anchor="start" x="99.5" y="-383.5" font-family="Helvetica,sans-Serif" font-size="10.00">+</text>
<text text-anchor="start" x="109.5" y="-383.5" font-family="Helvetica,sans-Serif" font-size="10.00">void RequestRootMenu</text>
<text text-anchor="start" x="109.5" y="-371.5" font-family="Helvetica,sans-Serif" font-size="10.00">(BaseMenu menu)</text>
<polygon fill="#666666" stroke="#666666" points="95.5,-567 95.5,-567 268.5,-567 268.5,-567 95.5,-567"/>
<polygon fill="#666666" stroke="#666666" points="95.5,-551 95.5,-551 107.5,-551 107.5,-551 95.5,-551"/>
<polygon fill="#666666" stroke="#666666" points="107.5,-551 107.5,-551 268.5,-551 268.5,-551 107.5,-551"/>
<polygon fill="none" stroke="#666666" points="95.5,-365 95.5,-585 268.5,-585 268.5,-365 95.5,-365"/>
</a>
</g>
</g>
<!-- Node3&#45;&gt;Node4 -->
<g id="edge4_Node000004_Node000003" class="edge">
<title>Node3&#45;&gt;Node4</title>
<g id="a_edge4_Node000004_Node000003"><a xlink:title=" ">
<path fill="none" stroke="#63b8ff" d="M99.8,-612.47C104.84,-604.1 110.5,-594.7 116.43,-584.85"/>
<polygon fill="none" stroke="#63b8ff" points="96.92,-610.47 94.76,-620.84 102.92,-614.08 96.92,-610.47"/>
</a>
</g>
</g>
<!-- Node4&#45;&gt;Node2 -->
<g id="edge3_Node000002_Node000004" class="edge">
<title>Node4&#45;&gt;Node2</title>
<g id="a_edge3_Node000002_Node000004"><a xlink:title=" ">
<path fill="none" stroke="#63b8ff" d="M135.54,-365.13C130.31,-352.86 125.02,-340.48 119.93,-328.54"/>
<polygon fill="none" stroke="#63b8ff" points="119.97,-328.65 113.94,-324.7 115.26,-317.61 121.3,-321.56 119.97,-328.65"/>
</a>
</g>
<text text-anchor="middle" x="161.45" y="-337.5" font-family="Helvetica,sans-Serif" font-size="10.00" fill="grey"> #MenuManager</text>
</g>
</g>
</svg>

<g id="navigator" transform="translate(0 0)" fill="#404254">
  <rect fill="#f2f5e9" fill-opacity="0.5" stroke="#606060" stroke-width=".5" x="0" y="0" width="60" height="60"/>
  <use id="zoomplus" xlink:href="#zoomPlus" x="17" y="9" onmousedown="handleZoom(evt,'in')"/>
  <use id="zoomminus" xlink:href="#zoomMin" x="42" y="9" onmousedown="handleZoom(evt,'out')"/>
  <use id="reset" xlink:href="#resetDef" x="30" y="36" onmousedown="handleReset()"/>
   <use id="arrowup" xlink:href="#arrowUp" x="0" y="0" onmousedown="handlePan(0,-1)"/>
  <use id="arrowright" xlink:href="#arrowRight" x="0" y="0" onmousedown="handlePan(1,0)"/>
  <use id="arrowdown" xlink:href="#arrowDown" x="0" y="0" onmousedown="handlePan(0,1)"/>
  <use id="arrowleft" xlink:href="#arrowLeft" x="0" y="0" onmousedown="handlePan(-1,0)"/>
</g>
<svg viewBox="0 0 15 15" width="100%" height="30px" preserveAspectRatio="xMaxYMin meet">
 <g id="arrow_out" transform="scale(0.3 0.3)">
  <a xlink:href="class_new_game_menu__coll__graph_org.svg" target="_base">
   <rect id="button" ry="5" rx="5" y="6" x="6" height="38" width="38"
        fill="#f2f5e9" fill-opacity="0.5" stroke="#606060" stroke-width="1.0"/>
   <path id="arrow"
     d="M 11.500037,31.436501 C 11.940474,20.09759 22.043105,11.32322 32.158766,21.979434 L 37.068811,17.246167 C 37.068811,17.246167 37.088388,32 37.088388,32 L 22.160133,31.978069 C 22.160133,31.978069 26.997745,27.140456 26.997745,27.140456 C 18.528582,18.264221 13.291696,25.230495 11.500037,31.436501 z"
     style="fill:#404040;"/>
  </a>
 </g>
</svg>

<style type='text/css'>
<![CDATA[
[data-mouse-over-selected='false'] { opacity: 0.7; }
[data-mouse-over-selected='true']  { opacity: 1.0; }
]]>
</style>
<script type="application/ecmascript"><![CDATA[
document.addEventListener('DOMContentLoaded', (event) => {
  highlightEdges();
  highlightAdjacentNodes();
});
]]></script>
</svg>
